<?xml version="1.0" encoding="utf-8" ?>
<svg xmlns="http://www.w3.org/2000/svg" xmlns:xlink="http://www.w3.org/1999/xlink" width="100" height="100">
	<path fill="#4C608F" transform="matrix(0.195312 0 0 0.195312 0.00195312 -0.000244141)" d="M183.025 198.123C194.445 181.012 219.805 167.553 239.243 163.65C269.372 157.6 302.436 167.578 323.348 190.311C325.71 192.878 327.81 195.769 330.384 198.123L363.178 198.109C389.347 198.1 392.501 199.92 392.503 226.749L392.486 275.07C392.48 278.591 393.562 297.395 391.845 299.288C385.337 306.46 387.728 278.207 387.729 275.418L387.743 232.543C387.749 227.055 388.434 215.247 386.973 210.468C383.666 199.648 368.472 202.535 359.834 202.532L327.712 202.517C323.143 197.251 318.771 192.01 313.527 187.371C280.111 157.815 229.494 161.433 196.774 190.134C194.557 192.078 184.505 202.415 183.828 202.649C183.04 202.92 159.164 202.512 156.41 202.51C122.967 202.485 123.993 203.228 124.002 233.625L124.012 337.761L140.11 337.761C144.348 336.14 146.009 335.953 140.769 334.903C137.943 324.916 141.203 287.635 140.11 284.875C129.724 284.304 140.146 272.429 142.456 268.566C141.637 268.108 140.644 268.212 139.939 267.518C139.089 264.04 139.396 225.181 140.11 220.866C143.73 216.82 150.47 218.253 155.329 218.25L196.312 218.272C199.122 218.29 202.384 218.006 205.127 218.485C209.603 219.266 203.559 229.097 205.282 232.11L205.652 231.743C206.405 228.402 209.794 223.995 210.187 221.653L209.711 221.227L209.691 220.866C207.884 216.955 201.747 210.196 203.185 207.448C204.586 204.769 212.484 196.902 216.091 195.834C220.043 197.717 223.784 201.36 227.296 204.02C234.493 199.771 239.206 198.487 246.754 195.834C246.9 176.307 244.508 180.182 266.981 180.258C271.244 183.062 269.389 191.347 269.363 195.834C275.609 197.303 283.923 199.028 288.26 204.02C290.744 202.115 295.355 196.826 297.991 196.043C301.402 195.029 313.509 206.883 314.09 209.32C314.592 211.427 309.746 216.726 308.523 218.662L308.845 218.776C312.836 216.932 368.3 218.46 369.413 218.84C373.075 220.091 373.295 224.209 373.409 227.429C373.755 237.237 374.172 304.03 372.967 307.63C375.174 309.108 384.518 307.61 387.736 308.167C402.471 307.875 409.115 312.333 409.224 327.98L409.224 412.84C409.242 422.745 410.618 436.307 397.708 438.707C387.587 440.589 354.304 439.513 342.76 439.232C325.43 438.81 327.683 422.944 327.698 411.46C327.713 399.439 327.858 387.4 327.712 375.38L284.202 375.38C286.776 385.215 291.092 394.499 295.626 403.56C299.324 403.553 321.421 400.614 316.645 408.094C313.55 409.487 248.904 408.442 239.867 408.441C233.63 408.44 202.713 408.94 200.201 408.071C197.188 407.029 198.378 404.116 200.988 403.675C205.197 402.964 210.921 403.764 215.376 403.56C224.068 396.159 225.192 385.149 229.351 375.38C206.855 375.022 184.294 375.375 161.792 375.374L145.768 375.397C119.69 375.46 119.347 368.106 119.415 343.011L119.415 247.53C119.416 237.276 119.231 226.998 119.383 216.748C119.675 197.063 136.701 198.106 150.918 198.116C161.61 198.123 172.335 198.316 183.025 198.123ZM215.376 403.56C210.921 403.764 205.197 402.964 200.988 403.675C198.378 404.116 197.188 407.029 200.201 408.071C202.713 408.94 233.63 408.44 239.867 408.441C248.904 408.442 313.55 409.487 316.645 408.094C321.421 400.614 299.324 403.553 295.626 403.56C291.092 394.499 286.776 385.215 284.202 375.38L327.712 375.38C327.858 387.4 327.713 399.439 327.698 411.46C327.683 422.944 325.43 438.81 342.76 439.232C354.304 439.513 387.587 440.589 397.708 438.707C410.618 436.307 409.242 422.745 409.224 412.84L409.224 327.98C409.115 312.333 402.471 307.875 387.736 308.167C376.741 308.471 365.654 308.155 354.651 308.154C336.897 308.152 327.643 307.406 327.696 328.53L327.712 337.761L150.851 337.761C147.298 337.883 143.654 338.073 140.11 337.761L124.012 337.761L124.002 233.625C123.993 203.228 122.967 202.485 156.41 202.51C159.164 202.512 183.04 202.92 183.828 202.649C184.505 202.415 194.557 192.078 196.774 190.134C229.494 161.433 280.111 157.815 313.527 187.371C318.771 192.01 323.143 197.251 327.712 202.517L359.834 202.532C368.472 202.535 383.666 199.648 386.973 210.468C388.434 215.247 387.749 227.055 387.743 232.543L387.729 275.418C387.728 278.207 385.337 306.46 391.845 299.288C393.562 297.395 392.48 278.591 392.486 275.07L392.503 226.749C392.501 199.92 389.347 198.1 363.178 198.109L330.384 198.123C327.81 195.769 325.71 192.878 323.348 190.311C302.436 167.578 269.372 157.6 239.243 163.65C219.805 167.553 194.445 181.012 183.025 198.123C172.335 198.316 161.61 198.123 150.918 198.116C136.701 198.106 119.675 197.063 119.383 216.748C119.231 226.998 119.416 237.276 119.415 247.53L119.415 343.011C119.347 368.106 119.69 375.46 145.768 375.397L161.792 375.374C184.294 375.375 206.855 375.022 229.351 375.38C225.192 385.149 224.068 396.159 215.376 403.56ZM250.354 227.942C220.828 235.286 232.119 284.748 264.883 275.646C287.697 269.308 290.132 238.092 266.644 227.942C261.476 226.083 255.518 226.214 250.354 227.942Z"/>
	<defs>
		<linearGradient id="gradient_0" gradientUnits="userSpaceOnUse" x1="184.8465" y1="417.99069" x2="369.52472" y2="188.91913">
			<stop offset="0" stop-color="#375487"/>
			<stop offset="1" stop-color="#5A6A8E"/>
		</linearGradient>
	</defs>
	<path fill="url(#gradient_0)" transform="matrix(0.195312 0 0 0.195312 0.00195312 -0.000244141)" d="M183.025 198.123C194.445 181.012 219.805 167.553 239.243 163.65C269.372 157.6 302.436 167.578 323.348 190.311C325.71 192.878 327.81 195.769 330.384 198.123L363.178 198.109C389.347 198.1 392.501 199.92 392.503 226.749L392.486 275.07C392.48 278.591 393.562 297.395 391.845 299.288C385.337 306.46 387.728 278.207 387.729 275.418L387.743 232.543C387.749 227.055 388.434 215.247 386.973 210.468C383.666 199.648 368.472 202.535 359.834 202.532L327.712 202.517C323.143 197.251 318.771 192.01 313.527 187.371C280.111 157.815 229.494 161.433 196.774 190.134C194.557 192.078 184.505 202.415 183.828 202.649C183.04 202.92 159.164 202.512 156.41 202.51C122.967 202.485 123.993 203.228 124.002 233.625L124.012 337.761L140.11 337.761C143.654 338.073 147.298 337.883 150.851 337.761L327.712 337.761L327.696 328.53C327.643 307.406 336.897 308.152 354.651 308.154C365.654 308.155 376.741 308.471 387.736 308.167C402.471 307.875 409.115 312.333 409.224 327.98L409.224 412.84C409.242 422.745 410.618 436.307 397.708 438.707C387.587 440.589 354.304 439.513 342.76 439.232C325.43 438.81 327.683 422.944 327.698 411.46C327.713 399.439 327.858 387.4 327.712 375.38L284.202 375.38C286.776 385.215 291.092 394.499 295.626 403.56C299.324 403.553 321.421 400.614 316.645 408.094C313.55 409.487 248.904 408.442 239.867 408.441C233.63 408.44 202.713 408.94 200.201 408.071C197.188 407.029 198.378 404.116 200.988 403.675C205.197 402.964 210.921 403.764 215.376 403.56C224.068 396.159 225.192 385.149 229.351 375.38C206.855 375.022 184.294 375.375 161.792 375.374L145.768 375.397C119.69 375.46 119.347 368.106 119.415 343.011L119.415 247.53C119.416 237.276 119.231 226.998 119.383 216.748C119.675 197.063 136.701 198.106 150.918 198.116C161.61 198.123 172.335 198.316 183.025 198.123ZM332.724 413.087L380.6 413.094C388.43 413.097 396.432 413.447 404.246 413.087L404.246 333.769L332.724 333.769L332.724 413.087ZM404.246 328.97C404.115 327.946 404.149 327.242 403.514 326.386L402.999 326.317C402.334 326.949 402.084 328.079 402.175 328.97C402.889 329.039 403.534 329.121 404.246 328.97Z"/>
	<path fill="#61C2FA" transform="matrix(0.195312 0 0 0.195312 0.00195312 -0.000244141)" d="M124.012 342.557L327.712 342.557L327.712 370.734L158.081 370.734C132.503 370.743 122.167 375.635 124.012 342.557Z"/>
	<path fill="#4C608F" transform="matrix(0.195312 0 0 0.195312 0.00195312 -0.000244141)" d="M255.205 348.341Q255.423 348.293 255.644 348.256Q255.864 348.218 256.086 348.192Q256.308 348.165 256.531 348.15Q256.754 348.134 256.978 348.129Q257.201 348.125 257.425 348.131Q257.648 348.137 257.871 348.155Q258.094 348.172 258.316 348.2Q258.537 348.228 258.757 348.267Q258.978 348.306 259.196 348.356Q259.414 348.406 259.629 348.466Q259.844 348.527 260.056 348.598Q260.268 348.669 260.476 348.75Q260.685 348.831 260.889 348.922Q261.093 349.014 261.292 349.115Q261.491 349.216 261.686 349.327Q261.88 349.438 262.068 349.558Q262.257 349.678 262.439 349.807Q262.621 349.937 262.797 350.075Q262.973 350.213 263.142 350.36Q263.31 350.506 263.472 350.661Q263.633 350.816 263.787 350.978Q263.941 351.14 264.086 351.31Q264.232 351.48 264.368 351.657Q264.505 351.833 264.634 352.016Q264.762 352.2 264.881 352.389Q265 352.578 265.109 352.773Q265.219 352.968 265.319 353.168Q265.419 353.368 265.509 353.572Q265.599 353.777 265.679 353.986Q265.759 354.195 265.828 354.407Q265.898 354.62 265.957 354.835Q266.016 355.051 266.064 355.269Q266.112 355.487 266.15 355.708Q266.188 355.928 266.214 356.15Q266.241 356.372 266.257 356.595Q266.273 356.818 266.278 357.041Q266.283 357.265 266.277 357.488Q266.271 357.712 266.253 357.935Q266.236 358.158 266.209 358.379Q266.181 358.601 266.142 358.821Q266.103 359.042 266.054 359.26Q266.004 359.478 265.944 359.693Q265.884 359.908 265.813 360.12Q265.742 360.332 265.661 360.541Q265.581 360.749 265.49 360.953Q265.398 361.157 265.297 361.357Q265.196 361.556 265.086 361.751Q264.975 361.945 264.855 362.133Q264.735 362.322 264.606 362.505Q264.477 362.687 264.339 362.863Q264.201 363.039 264.055 363.208Q263.908 363.377 263.754 363.538Q263.599 363.7 263.437 363.854Q263.275 364.008 263.105 364.153Q262.936 364.299 262.759 364.436Q262.583 364.573 262.4 364.702Q262.217 364.83 262.028 364.949Q261.839 365.069 261.644 365.179Q261.449 365.288 261.249 365.389Q261.05 365.489 260.845 365.579Q260.641 365.669 260.432 365.749Q260.223 365.829 260.011 365.899Q259.798 365.969 259.583 366.028Q259.367 366.087 259.149 366.136Q258.93 366.185 258.71 366.223Q258.489 366.261 258.267 366.288Q258.045 366.315 257.821 366.331Q257.598 366.347 257.374 366.352Q257.15 366.357 256.927 366.351Q256.703 366.345 256.48 366.328Q256.256 366.311 256.034 366.284Q255.812 366.256 255.591 366.217Q255.371 366.178 255.153 366.129Q254.934 366.079 254.719 366.019Q254.503 365.959 254.29 365.889Q254.078 365.818 253.869 365.737Q253.661 365.656 253.456 365.565Q253.252 365.474 253.052 365.372Q252.852 365.271 252.657 365.161Q252.463 365.05 252.274 364.93Q252.085 364.81 251.902 364.68Q251.72 364.551 251.543 364.413Q251.367 364.275 251.198 364.128Q251.029 363.981 250.867 363.827Q250.705 363.672 250.551 363.509Q250.397 363.347 250.251 363.177Q250.106 363.007 249.968 362.83Q249.831 362.653 249.703 362.47Q249.574 362.287 249.455 362.097Q249.335 361.908 249.226 361.713Q249.116 361.518 249.016 361.317Q248.915 361.117 248.825 360.912Q248.735 360.707 248.655 360.498Q248.575 360.289 248.505 360.076Q248.436 359.863 248.377 359.648Q248.317 359.432 248.269 359.213Q248.221 358.994 248.183 358.774Q248.145 358.553 248.118 358.331Q248.092 358.108 248.076 357.885Q248.06 357.662 248.055 357.438Q248.05 357.214 248.056 356.99Q248.063 356.766 248.08 356.543Q248.097 356.32 248.125 356.098Q248.153 355.876 248.192 355.655Q248.231 355.435 248.281 355.216Q248.33 354.998 248.391 354.783Q248.451 354.567 248.522 354.355Q248.593 354.142 248.674 353.934Q248.756 353.725 248.847 353.521Q248.938 353.316 249.04 353.117Q249.141 352.917 249.252 352.722Q249.363 352.528 249.483 352.339Q249.604 352.151 249.733 351.968Q249.863 351.785 250.001 351.609Q250.14 351.433 250.286 351.264Q250.433 351.095 250.588 350.934Q250.743 350.772 250.906 350.618Q251.069 350.464 251.239 350.319Q251.409 350.173 251.586 350.036Q251.763 349.899 251.946 349.771Q252.13 349.642 252.319 349.523Q252.509 349.404 252.704 349.295Q252.899 349.185 253.1 349.085Q253.3 348.985 253.505 348.895Q253.71 348.805 253.919 348.725Q254.129 348.646 254.341 348.576Q254.554 348.507 254.77 348.448Q254.986 348.389 255.205 348.341Z"/>
	<path fill="#FEFEFE" transform="matrix(0.195312 0 0 0.195312 0.00195312 -0.000244141)" d="M255.672 352.794Q255.971 352.715 256.278 352.676Q256.585 352.637 256.895 352.639Q257.204 352.641 257.511 352.684Q257.817 352.726 258.115 352.809Q258.413 352.892 258.698 353.014Q258.983 353.135 259.249 353.293Q259.515 353.451 259.758 353.643Q260.001 353.835 260.216 354.057Q260.431 354.279 260.616 354.528Q260.8 354.777 260.949 355.047Q261.099 355.318 261.212 355.607Q261.324 355.895 261.398 356.195Q261.471 356.496 261.505 356.804Q261.538 357.111 261.53 357.421Q261.522 357.73 261.474 358.036Q261.425 358.341 261.337 358.638Q261.249 358.935 261.122 359.217Q260.995 359.499 260.832 359.762Q260.67 360.025 260.473 360.265Q260.277 360.504 260.051 360.715Q259.825 360.926 259.573 361.106Q259.321 361.286 259.048 361.43Q258.774 361.575 258.484 361.682Q258.194 361.79 257.892 361.858Q257.782 361.883 257.67 361.902Q257.558 361.922 257.446 361.936Q257.334 361.95 257.221 361.959Q257.108 361.967 256.995 361.971Q256.882 361.974 256.768 361.971Q256.655 361.969 256.542 361.961Q256.429 361.953 256.317 361.94Q256.204 361.927 256.093 361.908Q255.981 361.889 255.87 361.865Q255.76 361.841 255.65 361.812Q255.541 361.782 255.433 361.747Q255.325 361.713 255.219 361.673Q255.113 361.633 255.009 361.588Q254.906 361.543 254.804 361.493Q254.702 361.443 254.603 361.388Q254.504 361.333 254.408 361.273Q254.312 361.214 254.218 361.149Q254.125 361.085 254.035 361.017Q253.945 360.948 253.859 360.875Q253.772 360.802 253.689 360.725Q253.606 360.648 253.527 360.567Q253.448 360.486 253.373 360.401Q253.297 360.316 253.227 360.228Q253.156 360.14 253.089 360.048Q253.023 359.957 252.961 359.862Q252.898 359.767 252.841 359.669Q252.784 359.572 252.731 359.471Q252.679 359.371 252.631 359.268Q252.583 359.166 252.541 359.061Q252.498 358.956 252.461 358.849Q252.423 358.742 252.391 358.634Q252.359 358.525 252.332 358.415Q252.305 358.305 252.284 358.194Q252.262 358.083 252.246 357.971Q252.23 357.859 252.219 357.746Q252.208 357.633 252.203 357.52Q252.198 357.407 252.198 357.294Q252.198 357.181 252.204 357.068Q252.21 356.954 252.221 356.842Q252.233 356.729 252.249 356.617Q252.266 356.505 252.288 356.394Q252.31 356.283 252.338 356.173Q252.365 356.063 252.398 355.955Q252.431 355.847 252.469 355.74Q252.507 355.633 252.55 355.529Q252.593 355.424 252.641 355.322Q252.689 355.219 252.742 355.119Q252.795 355.019 252.853 354.922Q252.911 354.824 252.973 354.73Q253.036 354.636 253.103 354.544Q253.17 354.453 253.241 354.365Q253.312 354.277 253.388 354.193Q253.463 354.109 253.543 354.028Q253.622 353.947 253.706 353.871Q253.789 353.794 253.876 353.722Q253.963 353.649 254.053 353.581Q254.144 353.513 254.237 353.449Q254.331 353.385 254.427 353.326Q254.524 353.267 254.623 353.213Q254.723 353.158 254.824 353.109Q254.926 353.059 255.03 353.015Q255.134 352.97 255.241 352.931Q255.347 352.891 255.455 352.857Q255.563 352.823 255.672 352.794Z"/>
	<path fill="#24B7C4" transform="matrix(0.195312 0 0 0.195312 0.00195312 -0.000244141)" d="M381.619 367.128C378.644 362.15 383.554 356.731 389.01 357.917C394.614 359.135 395.765 365.29 392.385 369.246C389.758 372.321 382.34 368.229 378.133 383.527L375.357 386.792C374.042 387.261 373.144 387.174 371.805 387.281L371.805 387.281C370.386 391.315 361.485 405.468 355.152 402.86C351.933 401.534 343.243 392.85 344.08 388.967C340.418 390.139 337.963 385.162 340.505 382.799C341.403 381.964 342.818 381.89 343.744 381.046C347.363 377.746 350.209 373.975 354.083 370.734C351.508 362.406 365.934 362.361 362.252 369.806C365.503 373.426 369.719 376.752 373.457 379.876C375.134 375.204 378.699 371.107 381.619 367.128ZM347.768 386.792C351.364 389.847 353.383 393.925 357.391 396.968C360.38 392.882 364.183 386.573 368.048 383.527C365.189 380.235 361.229 378.415 359.025 374.474C356.019 376.734 349.287 383.446 347.768 386.792Z"/>
	<path fill="#FAD171" transform="matrix(0.195312 0 0 0.195312 0.00195312 -0.000244141)" d="M368.048 383.527C368.626 385.847 369.834 386.32 371.805 387.281L371.805 387.281C370.386 391.315 361.485 405.468 355.152 402.86C351.933 401.534 343.243 392.85 344.08 388.967C345.376 388.316 346.635 387.71 347.768 386.792C351.364 389.847 353.383 393.925 357.391 396.968C360.38 392.882 364.183 386.573 368.048 383.527Z"/>
	<path fill="#97D597" transform="matrix(0.195312 0 0 0.195312 0.00195312 -0.000244141)" d="M378.133 383.527C379.663 384.491 380.573 385.846 381.619 387.281C401.206 376.986 392.47 412.769 380.174 392.891C376.727 391.47 373.735 387.279 371.805 387.281L371.805 387.281C373.144 387.174 374.042 387.261 375.357 386.792L378.133 383.527Z"/>
	<path fill="#E0E6EE" transform="matrix(0.195312 0 0 0.195312 0.00195312 -0.000244141)" d="M234.064 375.38L279.387 375.38C280.839 381.309 284.381 388.893 285.2 393.941C286.839 397.191 288.358 400.442 290.247 403.56L244.661 403.561C237.099 403.562 229.482 403.761 221.925 403.56C225.435 398.396 228.345 393.054 230.721 387.281C232.193 383.366 233.143 379.447 234.064 375.38Z"/>
	<path fill="#889EB9" transform="matrix(0.195312 0 0 0.195312 0.00195312 -0.000244141)" d="M234.064 375.38L279.387 375.38C280.839 381.309 284.381 388.893 285.2 393.941C273.94 385.264 269.191 387.27 255.354 387.277L230.721 387.281C232.193 383.366 233.143 379.447 234.064 375.38Z"/>
	<path fill="#F78873" transform="matrix(0.195312 0 0 0.195312 0.00195312 -0.000244141)" d="M332.724 328.97C331.273 308.182 345.267 312.775 361.442 312.771C371.711 312.769 382.055 312.487 392.312 312.778C402.409 313.065 404.53 320.287 404.246 328.97C404.115 327.946 404.149 327.242 403.514 326.386L402.999 326.317C402.334 326.949 402.084 328.079 402.175 328.97L332.724 328.97Z"/>
	<path fill="#4C608F" transform="matrix(0.195312 0 0 0.195312 0.00195312 -0.000244141)" d="M362.252 319.289C364.353 319.276 384.274 317.037 379.249 323.618C378.452 324.102 377.622 324.006 376.723 324.004C375.63 324.004 353.433 326.214 359.057 320.15C359.804 319.345 361.235 319.371 362.252 319.289Z"/>
	<path fill="#61C2FA" transform="matrix(0.195312 0 0 0.195312 0.00195312 -0.000244141)" d="M332.724 418.082C340.642 418.296 348.624 418.091 356.547 418.089L404.246 418.082C404.025 422.731 404.313 427.147 401.371 431.038C395.964 436.478 367.062 434.026 358.538 434.02C342.387 434.007 332.568 438.126 332.724 418.082Z"/>
	<path fill="#4C608F" transform="matrix(0.195312 0 0 0.195312 0.00195312 -0.000244141)" d="M368.048 421.745C374.782 421.628 374.095 428.106 369.783 431.038C363.342 431.194 363.189 424.58 368.048 421.745Z"/>
	<path fill="#E0E6EE" transform="matrix(0.195312 0 0 0.195312 0.00195312 -0.000244141)" d="M308.523 218.662L308.845 218.776C312.836 216.932 368.3 218.46 369.413 218.84C373.075 220.091 373.295 224.209 373.409 227.429C373.755 237.237 374.172 304.03 372.967 307.63C375.174 309.108 384.518 307.61 387.736 308.167C376.741 308.471 365.654 308.155 354.651 308.154C336.897 308.152 327.643 307.406 327.696 328.53L327.712 337.761L150.851 337.761C159.386 336.233 191.291 303.624 203.762 294.484C205.245 297.609 213.772 306.449 216.462 306.735C219.226 307.028 226.895 300.412 229.351 298.551C234.349 301.607 239.268 303.6 244.757 305.576C245.995 309.159 246.616 319.174 250.854 320.492C253.016 321.165 264.613 321.031 266.439 320.012C268.958 318.606 270.265 308.734 271.193 305.576C278.429 303.355 281.827 301.19 288.26 298.551C290.763 300.017 297.585 307.435 300.375 306.23C303.078 305.063 313.271 294.495 314.272 291.824C314.21 290.01 307.663 282.555 306.177 280.412C308.345 274.729 310.717 269.469 312.878 263.573C317.457 262.517 322.644 262.8 326.923 260.753C329.265 241.741 330.19 241.352 312.878 239.928C311.785 233.502 308.969 227.498 306.177 221.67C306.903 220.592 307.592 219.581 308.523 218.662Z"/>
	<path fill="#FEFEFE" transform="matrix(0.195312 0 0 0.195312 0.00195312 -0.000244141)" d="M140.11 220.866C143.73 216.82 150.47 218.253 155.329 218.25L196.312 218.272C199.122 218.29 202.384 218.006 205.127 218.485C209.603 219.266 203.559 229.097 205.282 232.11L205.652 231.743C206.405 228.402 209.794 223.995 210.187 221.653L209.711 221.227L209.691 220.866C210.248 221.089 210.48 221.295 210.939 221.67C207.607 227.656 205.424 233.284 203.762 239.928C200.513 240.279 193.094 240.47 190.679 242.281C189.462 244.659 188.467 259.588 191.376 261.28C193.813 262.697 201.512 262.526 205.114 263.573C207.254 270.515 209.099 273.991 211.877 280.412C208.405 283.649 201.192 289.54 203.762 294.484C191.291 303.624 159.386 336.233 150.851 337.761C147.298 337.883 143.654 338.073 140.11 337.761C144.348 336.14 146.009 335.953 140.769 334.903C137.943 324.916 141.203 287.635 140.11 284.875C129.724 284.304 140.146 272.429 142.456 268.566C141.637 268.108 140.644 268.212 139.939 267.518C139.089 264.04 139.396 225.181 140.11 220.866Z"/>
	<path fill="#4C608F" transform="matrix(0.195312 0 0 0.195312 0.00195312 -0.000244141)" d="M142.456 268.566C147.51 261.526 150.184 249.934 159.629 250.52C164.735 253.368 178.228 276.095 179.434 280.169C181.173 286.042 173.292 284.814 170.004 284.875L170.021 299.146C170.024 313.132 170.057 311.907 156.527 311.987C143.945 312.061 145.197 311.192 145.213 299.05L145.244 284.875C143.565 284.846 141.776 284.696 140.11 284.875C129.724 284.304 140.146 272.429 142.456 268.566Z"/>
	<path fill="#FAD171" transform="matrix(0.195312 0 0 0.195312 0.00195312 -0.000244141)" d="M156.818 254.676C161.083 254.565 172.953 276.514 174.265 280.412C172.852 280.478 166.956 279.807 166.202 281.203C164.409 284.521 167.017 305.537 165.118 307.653C164.489 308.354 159.724 308.147 158.625 308.167C155.643 307.992 152.681 308.052 149.697 308.167C149.619 305.23 150.02 281.774 149.292 281.11C147.871 279.815 142.076 280.387 140.11 280.412C143.543 275.119 153.483 257.658 156.818 254.676Z"/>
	<path fill="#61C2FA" transform="matrix(0.195312 0 0 0.195312 0.00195312 -0.000244141)" d="M251.585 184.898L264.446 184.898C264.363 206.06 262.579 196.952 278.375 203.249C281.9 204.655 284.996 207.454 288.529 208.637C291.398 209.597 295.536 203.375 299.365 201.556C302.587 203.963 305.651 206.821 308.523 209.635C306.211 213.948 303.107 217.605 300.442 221.67C305.989 230.757 306.321 234.51 309.121 243.69L309.205 243.96C313.514 244.957 318.153 245.053 322.532 245.85L322.532 257.518C319.06 257.717 313.678 258.364 310.43 259.515C306.705 260.835 307.278 266.514 306.03 269.667C304.524 273.474 302.101 276.711 300.442 280.412C302.315 284.797 306.171 287.89 308.523 292.078C305.192 294.921 302.294 298.446 299.365 301.691C295.843 298.283 292.26 294.924 288.26 292.078C279.024 298.751 276.658 298.329 267.271 301.588L266.981 301.691C265.399 305.696 264.716 310.571 264.446 314.848L264.137 315.861C262.95 316.765 254.452 316.271 252.398 316.249C251.317 311.484 250.518 306.276 248.827 301.691C242.006 298.594 236.881 297.197 229.351 293.403C225.11 295.41 221.198 298.753 217.553 301.691C213.717 299.238 210.918 295.518 208.001 292.078C210.865 287.916 214.663 284.52 217.553 280.412C212.746 271.862 211.825 267.839 208.635 259.154C204.265 257.999 199.166 257.82 194.651 257.518L194.651 245.85C199.052 245.059 203.56 244.472 208.001 243.96C210.146 232.468 212.238 230.956 216.091 221.67C214.296 217.589 210.988 212.933 208.001 209.635C210.325 206.658 213.303 204.092 216.091 201.556C219.305 204.541 223.293 207.833 227.296 209.635C230.867 208.26 233.919 205.549 237.487 203.997C253.717 196.942 251.653 206.151 251.585 184.898ZM266.644 227.942C261.476 226.083 255.518 226.214 250.354 227.942C220.828 235.286 232.119 284.748 264.883 275.646C287.697 269.308 290.132 238.092 266.644 227.942Z"/>
	<path fill="#4C608F" transform="matrix(0.195312 0 0 0.195312 0.00195312 -0.000244141)" d="M250.354 227.942C255.518 226.214 261.476 226.083 266.644 227.942C290.132 238.092 287.697 269.308 264.883 275.646C232.119 284.748 220.828 235.286 250.354 227.942ZM259.378 271.631Q259.871 271.601 260.362 271.547Q260.852 271.492 261.34 271.414Q261.827 271.336 262.31 271.233Q262.793 271.131 263.271 271.006Q263.748 270.88 264.219 270.731Q264.69 270.582 265.152 270.41Q265.615 270.238 266.069 270.044Q266.523 269.849 266.967 269.633Q267.411 269.417 267.843 269.179Q268.276 268.941 268.696 268.682Q269.117 268.423 269.524 268.144Q269.931 267.865 270.324 267.566Q270.717 267.267 271.095 266.95Q271.473 266.632 271.835 266.296Q272.197 265.96 272.542 265.607Q272.887 265.254 273.214 264.884Q273.541 264.514 273.85 264.129Q274.159 263.744 274.448 263.344Q274.738 262.944 275.007 262.53Q275.277 262.116 275.525 261.69Q275.774 261.263 276.002 260.825Q276.23 260.387 276.435 259.938Q276.641 259.49 276.825 259.031Q277.009 258.573 277.169 258.106Q277.33 257.64 277.468 257.165Q277.606 256.691 277.72 256.211Q277.835 255.731 277.925 255.245Q278.016 254.76 278.083 254.271Q278.15 253.782 278.192 253.29Q278.235 252.798 278.254 252.305Q278.272 251.811 278.267 251.318Q278.261 250.824 278.231 250.331Q278.201 249.838 278.147 249.347Q278.093 248.857 278.015 248.369Q277.937 247.882 277.835 247.398Q277.733 246.915 277.608 246.438Q277.482 245.96 277.334 245.489Q277.185 245.019 277.013 244.556Q276.842 244.093 276.648 243.639Q276.453 243.185 276.237 242.741Q276.021 242.297 275.784 241.864Q275.546 241.431 275.287 241.011Q275.029 240.59 274.75 240.183Q274.471 239.775 274.172 239.382Q273.874 238.989 273.556 238.611Q273.239 238.233 272.903 237.871Q272.567 237.509 272.214 237.164Q271.861 236.818 271.492 236.491Q271.122 236.163 270.737 235.855Q270.352 235.546 269.952 235.256Q269.552 234.966 269.139 234.697Q268.725 234.427 268.299 234.178Q267.872 233.929 267.434 233.701Q266.996 233.473 266.548 233.267Q266.099 233.061 265.641 232.877Q265.183 232.693 264.716 232.532Q264.249 232.371 263.775 232.233Q263.301 232.094 262.821 231.98Q262.341 231.865 261.855 231.774Q261.37 231.683 260.881 231.616Q260.392 231.549 259.9 231.506Q259.408 231.463 258.915 231.444Q258.421 231.426 257.928 231.431Q257.434 231.436 256.941 231.466Q256.448 231.496 255.957 231.549Q255.466 231.603 254.978 231.681Q254.49 231.759 254.006 231.861Q253.523 231.962 253.045 232.088Q252.567 232.213 252.096 232.362Q251.624 232.51 251.161 232.682Q250.698 232.854 250.243 233.048Q249.789 233.242 249.345 233.458Q248.901 233.674 248.467 233.912Q248.034 234.15 247.613 234.408Q247.192 234.667 246.785 234.946Q246.377 235.225 245.983 235.524Q245.59 235.823 245.212 236.14Q244.833 236.458 244.471 236.794Q244.108 237.13 243.763 237.483Q243.418 237.836 243.09 238.206Q242.762 238.576 242.453 238.962Q242.144 239.347 241.854 239.747Q241.564 240.147 241.295 240.561Q241.025 240.975 240.775 241.402Q240.526 241.828 240.298 242.267Q240.07 242.705 239.864 243.154Q239.658 243.603 239.474 244.062Q239.29 244.52 239.129 244.987Q238.968 245.454 238.83 245.929Q238.692 246.403 238.577 246.884Q238.463 247.364 238.372 247.85Q238.281 248.336 238.214 248.825Q238.147 249.315 238.105 249.807Q238.062 250.299 238.043 250.793Q238.025 251.287 238.03 251.781Q238.036 252.275 238.066 252.768Q238.096 253.261 238.15 253.752Q238.204 254.243 238.282 254.731Q238.36 255.219 238.462 255.703Q238.564 256.186 238.69 256.664Q238.816 257.142 238.964 257.613Q239.113 258.084 239.285 258.547Q239.457 259.01 239.651 259.465Q239.846 259.919 240.062 260.363Q240.279 260.807 240.517 261.24Q240.755 261.673 241.014 262.094Q241.273 262.515 241.552 262.922Q241.831 263.33 242.13 263.723Q242.429 264.116 242.747 264.495Q243.065 264.873 243.401 265.235Q243.737 265.597 244.09 265.942Q244.444 266.288 244.814 266.615Q245.184 266.943 245.569 267.251Q245.955 267.56 246.355 267.85Q246.756 268.139 247.17 268.409Q247.584 268.679 248.01 268.928Q248.437 269.177 248.876 269.404Q249.314 269.632 249.763 269.838Q250.212 270.044 250.671 270.228Q251.13 270.411 251.597 270.572Q252.064 270.733 252.539 270.871Q253.013 271.008 253.494 271.123Q253.974 271.237 254.46 271.328Q254.946 271.418 255.435 271.485Q255.925 271.551 256.417 271.594Q256.909 271.637 257.403 271.655Q257.897 271.673 258.391 271.667Q258.885 271.661 259.378 271.631Z"/>
	<path fill="#4C608F" transform="matrix(0.195312 0 0 0.195312 0.00195312 -0.000244141)" d="M125.558 69.6069Q126.814 69.4652 128.076 69.3852Q129.337 69.3053 130.601 69.2873Q131.865 69.2694 133.128 69.3135Q134.391 69.3575 135.651 69.4635Q136.91 69.5696 138.163 69.7372Q139.416 69.9049 140.659 70.1338Q141.902 70.3628 143.132 70.6524Q144.363 70.9421 145.577 71.2918Q146.792 71.6414 147.988 72.0503Q149.184 72.4591 150.359 72.9262Q151.533 73.3932 152.683 73.9173Q153.834 74.4414 154.957 75.0213Q156.08 75.6012 157.173 76.2355Q158.267 76.8699 159.327 77.557Q160.388 78.2442 161.414 78.9827Q162.44 79.7211 163.428 80.5089Q164.417 81.2968 165.365 82.1322Q166.314 82.9676 167.22 83.8485Q168.127 84.7295 168.989 85.6538Q169.851 86.5782 170.667 87.5437Q171.483 88.5092 172.25 89.5136Q173.017 90.518 173.734 91.5588Q174.452 92.5997 175.117 93.6744Q175.782 94.7492 176.394 95.8553Q177.005 96.9614 177.562 98.0962Q178.119 99.231 178.619 100.392Q179.12 101.553 179.562 102.736Q180.005 103.92 180.389 105.124Q180.774 106.329 181.098 107.55Q181.423 108.772 181.687 110.008Q181.951 111.244 182.155 112.491Q182.358 113.739 182.5 114.995Q182.642 116.251 182.722 117.512Q182.802 118.774 182.82 120.038Q182.838 121.302 182.794 122.565Q182.751 123.828 182.645 125.088Q182.539 126.347 182.371 127.6Q182.204 128.853 181.975 130.096Q181.746 131.339 181.457 132.57Q181.167 133.8 180.818 135.015Q180.468 136.229 180.06 137.426Q179.651 138.622 179.184 139.796Q178.717 140.971 178.193 142.121Q177.669 143.271 177.089 144.395Q176.51 145.518 175.875 146.611Q175.241 147.705 174.554 148.766Q173.867 149.827 173.129 150.852Q172.391 151.878 171.603 152.867Q170.815 153.855 169.98 154.804Q169.145 155.753 168.264 156.659Q167.383 157.566 166.459 158.428Q165.534 159.29 164.569 160.106Q163.604 160.922 162.599 161.69Q161.595 162.457 160.554 163.174Q159.513 163.892 158.439 164.557Q157.364 165.223 156.258 165.834Q155.152 166.446 154.017 167.003Q152.883 167.56 151.722 168.06Q150.561 168.561 149.377 169.004Q148.193 169.447 146.989 169.831Q145.785 170.215 144.564 170.54Q143.342 170.865 142.106 171.13Q140.87 171.394 139.623 171.597Q138.375 171.801 137.119 171.943Q135.863 172.085 134.601 172.165Q133.34 172.246 132.075 172.264Q130.811 172.282 129.548 172.238Q128.285 172.194 127.025 172.089Q125.765 171.983 124.512 171.816Q123.259 171.648 122.016 171.419Q120.772 171.191 119.542 170.901Q118.311 170.612 117.096 170.262Q115.881 169.913 114.685 169.504Q113.489 169.095 112.314 168.628Q111.139 168.161 109.989 167.637Q108.838 167.113 107.715 166.534Q106.591 165.954 105.498 165.319Q104.404 164.685 103.343 163.998Q102.282 163.311 101.256 162.573Q100.23 161.834 99.241 161.046Q98.2523 160.258 97.3035 159.423Q96.3547 158.588 95.448 157.707Q94.5413 156.826 93.679 155.901Q92.8167 154.977 92.0007 154.011Q91.1848 153.046 90.4172 152.041Q89.6496 151.037 88.9322 149.996Q88.2149 148.955 87.5495 147.88Q86.884 146.805 86.2722 145.699Q85.6603 144.592 85.1035 143.457Q84.5466 142.322 84.0462 141.161Q83.5457 140.001 83.1028 138.817Q82.6599 137.632 82.2756 136.428Q81.8913 135.224 81.5666 134.002Q81.2419 132.78 80.9775 131.544Q80.7132 130.308 80.5098 129.06Q80.3064 127.812 80.1645 126.556Q80.0226 125.3 79.9425 124.038Q79.8624 122.777 79.8443 121.512Q79.8262 120.248 79.8701 118.985Q79.9141 117.722 80.02 116.462Q80.1259 115.202 80.2935 113.949Q80.4611 112.696 80.69 111.453Q80.9188 110.209 81.2085 108.979Q81.4981 107.748 81.8477 106.533Q82.1974 105.319 82.6062 104.122Q83.0151 102.926 83.4821 101.751Q83.9492 100.577 84.4733 99.4261Q84.9974 98.2757 85.5774 97.1524Q86.1573 96.0291 86.7917 94.9356Q87.4261 93.8421 88.1134 92.781Q88.8007 91.72 89.5392 90.694Q90.2777 89.6679 91.0657 88.6793Q91.8537 87.6908 92.6892 86.7421Q93.5247 85.7934 94.4058 84.8868Q95.2869 83.9802 96.2114 83.118Q97.1359 82.2557 98.1016 81.4399Q99.0673 80.6241 100.072 79.8566Q101.076 79.0892 102.118 78.3719Q103.159 77.6547 104.234 76.9894Q105.309 76.3241 106.415 75.7124Q107.521 75.1006 108.656 74.5439Q109.791 73.9872 110.952 73.4869Q112.113 72.9865 113.297 72.5437Q114.481 72.101 115.686 71.7168Q116.89 71.3327 118.112 71.0081Q119.334 70.6836 120.57 70.4194Q121.806 70.1551 123.054 69.9519Q124.302 69.7487 125.558 69.6069ZM164.347 87.936Q163.556 87.1408 162.728 86.3846Q161.9 85.6283 161.036 84.9128Q160.172 84.1973 159.275 83.5241Q158.378 82.8509 157.45 82.2216Q156.521 81.5923 155.564 81.0083Q154.606 80.4244 153.622 79.8872Q152.637 79.3499 151.628 78.8606Q150.619 78.3714 149.587 77.9312Q148.556 77.491 147.504 77.1009Q146.453 76.7108 145.384 76.3717Q144.315 76.0326 143.23 75.7452Q142.146 75.4579 141.05 75.2231Q139.953 74.9882 138.846 74.8063Q137.74 74.6245 136.625 74.496Q135.511 74.3675 134.392 74.2928Q133.273 74.218 132.152 74.1972Q131.03 74.1763 129.909 74.2094Q128.788 74.2425 127.67 74.3294Q126.552 74.4163 125.439 74.5569Q124.326 74.6975 123.222 74.8914Q122.117 75.0853 121.023 75.3321Q119.929 75.5788 118.848 75.8779Q117.767 76.177 116.702 76.5278Q115.636 76.8785 114.589 77.28Q113.542 77.6815 112.515 78.1329Q111.489 78.5843 110.485 79.0846Q109.481 79.5848 108.502 80.1327Q107.524 80.6806 106.573 81.275Q105.621 81.8693 104.7 82.5087Q103.779 83.148 102.889 83.8309Q101.999 84.5139 101.143 85.2388Q100.288 85.9637 99.4676 86.7289Q98.6476 87.4941 97.8654 88.2979Q97.0832 89.1016 96.3405 89.942Q95.5978 90.7824 94.8964 91.6576Q94.1949 92.5327 93.5364 93.4406Q92.8778 94.3485 92.2637 95.2869Q91.6496 96.2254 91.0813 97.1923Q90.5129 98.1592 89.9918 99.1523Q89.4706 100.145 88.9978 101.162Q88.5249 102.179 88.1015 103.218Q87.6781 104.257 87.3052 105.314Q86.9322 106.372 86.6105 107.447Q86.2888 108.521 86.0191 109.61Q85.7495 110.698 85.5324 111.799Q85.3154 112.899 85.1515 114.008Q84.9877 115.118 84.8773 116.234Q84.767 117.35 84.7104 118.47Q84.6538 119.59 84.6512 120.712Q84.6485 121.834 84.6998 122.954Q84.7511 124.074 84.8561 125.191Q84.9612 126.308 85.1199 127.418Q85.2785 128.528 85.4903 129.63Q85.7021 130.731 85.9666 131.821Q86.2312 132.911 86.5478 133.987Q86.8644 135.063 87.2324 136.122Q87.6003 137.182 88.0188 138.222Q88.4373 139.263 88.9053 140.282Q89.3733 141.301 89.8898 142.297Q90.4063 143.292 90.97 144.262Q91.5337 145.232 92.1434 146.173Q92.7531 147.114 93.4074 148.025Q94.0616 148.936 94.7589 149.815Q95.4562 150.693 96.1949 151.537Q96.7077 152.123 97.2398 152.691Q97.7719 153.26 98.3226 153.81Q98.8734 154.36 99.4422 154.892Q100.011 155.424 100.597 155.936Q101.184 156.448 101.787 156.941Q102.39 157.433 103.009 157.905Q103.628 158.377 104.262 158.829Q104.897 159.28 105.546 159.709Q106.196 160.139 106.859 160.547Q107.522 160.955 108.199 161.34Q108.875 161.726 109.564 162.088Q110.253 162.451 110.954 162.79Q111.654 163.13 112.366 163.446Q113.078 163.761 113.799 164.053Q114.521 164.345 115.252 164.613Q115.983 164.881 116.723 165.124Q117.463 165.367 118.21 165.585Q118.957 165.803 119.712 165.997Q120.466 166.19 121.226 166.358Q121.986 166.526 122.752 166.668Q123.517 166.811 124.287 166.927Q125.057 167.044 125.83 167.135Q126.603 167.226 127.379 167.292Q128.155 167.357 128.933 167.396Q129.71 167.435 130.489 167.449Q131.267 167.462 132.046 167.449Q132.824 167.436 133.602 167.398Q134.379 167.359 135.155 167.294Q135.931 167.23 136.705 167.139Q137.478 167.049 138.248 166.932Q139.018 166.816 139.783 166.674Q140.549 166.532 141.309 166.365Q142.069 166.198 142.824 166.005Q143.578 165.812 144.326 165.595Q145.073 165.377 145.813 165.134Q146.553 164.892 147.284 164.625Q148.015 164.357 148.737 164.066Q149.459 163.775 150.171 163.459Q150.883 163.144 151.584 162.805Q152.285 162.466 152.974 162.104Q153.663 161.742 154.34 161.357Q155.017 160.972 155.68 160.565Q156.344 160.157 156.994 159.728Q157.643 159.299 158.278 158.848Q158.913 158.398 159.532 157.926Q160.152 157.454 160.755 156.962Q161.359 156.47 161.945 155.958Q162.532 155.446 163.101 154.915Q163.67 154.384 164.221 153.834Q164.773 153.284 165.305 152.716Q165.838 152.148 166.351 151.563Q166.864 150.977 167.357 150.375Q167.851 149.773 168.324 149.154Q168.797 148.536 169.249 147.902Q169.701 147.268 170.132 146.62Q170.563 145.971 170.971 145.308Q171.38 144.646 171.767 143.97Q172.153 143.294 172.517 142.606Q172.881 141.917 173.221 141.217Q173.562 140.517 173.878 139.806Q174.195 139.095 174.488 138.373Q174.781 137.652 175.05 136.921Q175.319 136.191 175.563 135.451Q175.808 134.712 176.027 133.965Q176.246 133.218 176.441 132.464Q176.635 131.71 176.804 130.95Q176.973 130.19 177.117 129.425Q177.261 128.66 177.379 127.89Q177.497 127.121 177.589 126.347Q177.681 125.574 177.747 124.799Q177.814 124.023 177.854 123.245Q177.895 122.468 177.909 121.689Q177.924 120.911 177.912 120.133Q177.901 119.354 177.863 118.576Q177.826 117.799 177.762 117.023Q177.699 116.247 177.61 115.473Q177.52 114.7 177.405 113.93Q177.29 113.16 177.149 112.394Q177.009 111.628 176.842 110.868Q176.676 110.107 176.485 109.352Q176.293 108.598 176.077 107.85Q175.86 107.102 175.619 106.362Q175.377 105.622 175.111 104.89Q174.845 104.158 174.555 103.436Q174.265 102.713 173.951 102.001Q173.636 101.289 173.298 100.587Q172.961 99.8858 172.6 99.196Q172.238 98.5062 171.855 97.8288Q171.471 97.1515 171.064 96.4873Q170.658 95.8232 170.23 95.1729Q169.802 94.5227 169.352 93.8871Q168.902 93.2516 168.432 92.6314Q167.961 92.0112 167.47 91.407Q166.979 90.8029 166.468 90.2155Q165.957 89.6281 165.426 89.058Q164.896 88.488 164.347 87.936Z"/>
	<defs>
		<linearGradient id="gradient_1" gradientUnits="userSpaceOnUse" x1="136.95508" y1="137.35677" x2="110.65234" y2="79.01947">
			<stop offset="0" stop-color="#FFAD8C"/>
			<stop offset="1" stop-color="#FF9693"/>
		</linearGradient>
	</defs>
	<path fill="url(#gradient_1)" transform="matrix(0.195312 0 0 0.195312 0.00195312 -0.000244141)" d="M96.1949 151.537Q95.4562 150.693 94.7589 149.815Q94.0616 148.936 93.4074 148.025Q92.7531 147.114 92.1434 146.173Q91.5337 145.232 90.97 144.262Q90.4063 143.292 89.8898 142.297Q89.3733 141.301 88.9053 140.282Q88.4373 139.263 88.0188 138.222Q87.6003 137.182 87.2324 136.122Q86.8644 135.063 86.5478 133.987Q86.2312 132.911 85.9666 131.821Q85.7021 130.731 85.4903 129.63Q85.2785 128.528 85.1198 127.418Q84.9612 126.308 84.8561 125.191Q84.7511 124.074 84.6998 122.954Q84.6485 121.834 84.6512 120.712Q84.6538 119.59 84.7104 118.47Q84.767 117.35 84.8773 116.234Q84.9877 115.118 85.1515 114.008Q85.3154 112.899 85.5324 111.799Q85.7495 110.698 86.0191 109.61Q86.2888 108.521 86.6105 107.446Q86.9322 106.372 87.3052 105.314Q87.6781 104.257 88.1015 103.218Q88.5249 102.179 88.9978 101.162Q89.4706 100.145 89.9918 99.1523Q90.5129 98.1592 91.0813 97.1923Q91.6496 96.2254 92.2637 95.2869Q92.8778 94.3485 93.5364 93.4406Q94.1949 92.5327 94.8964 91.6576Q95.5978 90.7824 96.3405 89.942Q97.0832 89.1016 97.8654 88.2979Q98.6476 87.4941 99.4676 86.7289Q100.288 85.9637 101.143 85.2388Q101.999 84.5139 102.889 83.831Q103.779 83.148 104.7 82.5087Q105.621 81.8693 106.573 81.275Q107.524 80.6806 108.502 80.1327Q109.481 79.5848 110.485 79.0846Q111.489 78.5843 112.515 78.1329Q113.542 77.6815 114.589 77.28Q115.636 76.8785 116.702 76.5278Q117.767 76.177 118.848 75.8779Q119.929 75.5788 121.023 75.3321Q122.117 75.0853 123.222 74.8914Q124.326 74.6975 125.439 74.5569Q126.552 74.4163 127.67 74.3294Q128.788 74.2425 129.909 74.2094Q131.03 74.1763 132.152 74.1972Q133.273 74.218 134.392 74.2928Q135.511 74.3675 136.625 74.496Q137.74 74.6245 138.846 74.8063Q139.953 74.9882 141.05 75.2231Q142.146 75.4579 143.23 75.7452Q144.315 76.0326 145.384 76.3717Q146.453 76.7108 147.504 77.1009Q148.556 77.491 149.587 77.9312Q150.619 78.3714 151.628 78.8606Q152.637 79.3499 153.622 79.8872Q154.606 80.4244 155.564 81.0083Q156.521 81.5923 157.45 82.2216Q158.378 82.8509 159.275 83.524Q160.172 84.1973 161.036 84.9128Q161.9 85.6283 162.728 86.3846Q163.556 87.1408 164.347 87.936Q164.896 88.488 165.426 89.058Q165.957 89.6281 166.468 90.2155Q166.979 90.8029 167.47 91.407Q167.961 92.0112 168.432 92.6314Q168.902 93.2516 169.352 93.8871Q169.802 94.5227 170.23 95.1729Q170.658 95.8232 171.064 96.4873Q171.471 97.1515 171.855 97.8288Q172.238 98.5062 172.6 99.196Q172.961 99.8858 173.298 100.587Q173.636 101.289 173.951 102.001Q174.265 102.713 174.555 103.436Q174.845 104.158 175.111 104.89Q175.377 105.622 175.619 106.362Q175.86 107.102 176.077 107.85Q176.293 108.598 176.485 109.352Q176.676 110.107 176.842 110.868Q177.009 111.628 177.149 112.394Q177.29 113.16 177.405 113.93Q177.52 114.7 177.61 115.473Q177.699 116.247 177.762 117.023Q177.826 117.799 177.863 118.576Q177.901 119.354 177.912 120.133Q177.924 120.911 177.909 121.689Q177.895 122.468 177.854 123.245Q177.814 124.023 177.747 124.799Q177.681 125.574 177.589 126.348Q177.497 127.121 177.379 127.89Q177.261 128.66 177.117 129.425Q176.973 130.19 176.804 130.95Q176.635 131.71 176.441 132.464Q176.246 133.218 176.027 133.965Q175.808 134.712 175.563 135.451Q175.319 136.191 175.05 136.921Q174.781 137.652 174.488 138.373Q174.195 139.095 173.878 139.806Q173.562 140.517 173.221 141.217Q172.881 141.917 172.517 142.606Q172.153 143.294 171.767 143.97Q171.38 144.646 170.971 145.308Q170.563 145.971 170.132 146.62Q169.701 147.268 169.249 147.902Q168.797 148.536 168.324 149.154Q167.851 149.773 167.357 150.375Q166.864 150.977 166.351 151.563Q165.838 152.148 165.305 152.716Q164.773 153.284 164.221 153.834Q163.67 154.384 163.101 154.915Q162.532 155.446 161.945 155.958Q161.359 156.47 160.755 156.962Q160.152 157.454 159.532 157.926Q158.913 158.398 158.278 158.848Q157.643 159.299 156.994 159.728Q156.344 160.157 155.68 160.565Q155.017 160.972 154.34 161.357Q153.663 161.742 152.974 162.104Q152.285 162.466 151.584 162.805Q150.883 163.144 150.171 163.459Q149.459 163.775 148.737 164.066Q148.015 164.357 147.284 164.625Q146.553 164.892 145.813 165.134Q145.073 165.377 144.326 165.595Q143.578 165.812 142.824 166.005Q142.069 166.198 141.309 166.365Q140.549 166.532 139.783 166.674Q139.018 166.816 138.248 166.932Q137.478 167.049 136.705 167.139Q135.931 167.23 135.155 167.294Q134.379 167.359 133.602 167.398Q132.824 167.436 132.046 167.449Q131.267 167.462 130.489 167.449Q129.71 167.435 128.933 167.396Q128.155 167.357 127.379 167.292Q126.603 167.226 125.83 167.135Q125.057 167.044 124.287 166.927Q123.517 166.811 122.752 166.668Q121.986 166.526 121.226 166.358Q120.466 166.19 119.712 165.997Q118.957 165.803 118.21 165.585Q117.463 165.367 116.723 165.124Q115.983 164.881 115.252 164.613Q114.521 164.345 113.799 164.053Q113.078 163.761 112.366 163.446Q111.654 163.13 110.954 162.79Q110.253 162.451 109.564 162.088Q108.875 161.726 108.199 161.34Q107.522 160.955 106.859 160.547Q106.196 160.139 105.546 159.709Q104.897 159.28 104.262 158.829Q103.628 158.377 103.009 157.905Q102.39 157.433 101.787 156.941Q101.184 156.448 100.597 155.936Q100.011 155.424 99.4422 154.892Q98.8734 154.36 98.3226 153.81Q97.7719 153.26 97.2398 152.691Q96.7077 152.123 96.1949 151.537ZM146.935 124.617C144.785 125.064 143.337 130.724 142.181 132.634C133.635 146.761 112.207 136.832 115.941 121.106C117.406 114.935 121.684 113.068 126.498 110.056C126.859 107.887 127.029 106.182 126.498 104.022C122.519 99.2339 117.824 103.416 114.018 106.902C107.571 112.805 105.966 120.443 106.467 128.76C110.386 155.777 149.073 153.959 153.264 130.218C154.107 125.438 150.763 125.07 146.935 124.617ZM152.086 118.067C155.275 118.329 156.056 118.222 157.359 115.172C155.112 108.091 140.889 94.9738 134.558 94.722C130.739 94.5701 131.715 100.666 131.735 102.988C131.628 121.897 129.68 118.432 152.086 118.067Z"/>
	<path fill="#F78873" transform="matrix(0.195312 0 0 0.195312 0.00195312 -0.000244141)" d="M164.347 87.936Q164.896 88.488 165.426 89.058Q165.957 89.6281 166.468 90.2155Q166.979 90.8029 167.47 91.407Q167.961 92.0112 168.432 92.6314Q168.902 93.2516 169.352 93.8871Q169.802 94.5227 170.23 95.1729Q170.658 95.8232 171.064 96.4873Q171.471 97.1515 171.855 97.8288Q172.238 98.5062 172.6 99.196Q172.961 99.8858 173.298 100.587Q173.636 101.289 173.951 102.001Q174.265 102.713 174.555 103.436Q174.845 104.158 175.111 104.89Q175.377 105.622 175.619 106.362Q175.86 107.102 176.077 107.85Q176.293 108.598 176.485 109.352Q176.676 110.107 176.842 110.868Q177.009 111.628 177.149 112.394Q177.29 113.16 177.405 113.93Q177.52 114.7 177.61 115.473Q177.699 116.247 177.762 117.023Q177.826 117.799 177.863 118.576Q177.901 119.354 177.912 120.133Q177.924 120.911 177.909 121.689Q177.895 122.468 177.854 123.245Q177.814 124.023 177.747 124.799Q177.681 125.574 177.589 126.348Q177.497 127.121 177.379 127.89Q177.261 128.66 177.117 129.425Q176.973 130.19 176.804 130.95Q176.635 131.71 176.441 132.464Q176.246 133.218 176.027 133.965Q175.808 134.712 175.563 135.451Q175.319 136.191 175.05 136.921Q174.781 137.652 174.488 138.373Q174.195 139.095 173.878 139.806Q173.562 140.517 173.221 141.217Q172.881 141.917 172.517 142.606Q172.153 143.294 171.767 143.97Q171.38 144.646 170.971 145.308Q170.563 145.971 170.132 146.62Q169.701 147.268 169.249 147.902Q168.797 148.536 168.324 149.154Q167.851 149.773 167.357 150.375Q166.864 150.977 166.351 151.563Q165.838 152.148 165.305 152.716Q164.773 153.284 164.221 153.834Q163.67 154.384 163.101 154.915Q162.532 155.446 161.945 155.958Q161.359 156.47 160.755 156.962Q160.152 157.454 159.532 157.926Q158.913 158.398 158.278 158.848Q157.643 159.299 156.994 159.728Q156.344 160.157 155.68 160.565Q155.017 160.972 154.34 161.357Q153.663 161.742 152.974 162.104Q152.285 162.466 151.584 162.805Q150.883 163.144 150.171 163.459Q149.459 163.775 148.737 164.066Q148.015 164.357 147.284 164.625Q146.553 164.892 145.813 165.134Q145.073 165.377 144.326 165.595Q143.578 165.812 142.824 166.005Q142.069 166.198 141.309 166.365Q140.549 166.532 139.783 166.674Q139.018 166.816 138.248 166.932Q137.478 167.049 136.705 167.139Q135.931 167.23 135.155 167.294Q134.379 167.359 133.602 167.398Q132.824 167.436 132.046 167.449Q131.267 167.462 130.489 167.449Q129.71 167.435 128.933 167.396Q128.155 167.357 127.379 167.292Q126.603 167.226 125.83 167.135Q125.057 167.044 124.287 166.927Q123.517 166.811 122.752 166.668Q121.986 166.526 121.226 166.358Q120.466 166.19 119.712 165.997Q118.957 165.803 118.21 165.585Q117.463 165.367 116.723 165.124Q115.983 164.881 115.252 164.613Q114.521 164.345 113.799 164.053Q113.078 163.761 112.366 163.446Q111.654 163.13 110.954 162.79Q110.253 162.451 109.564 162.088Q108.875 161.726 108.199 161.34Q107.522 160.955 106.859 160.547Q106.196 160.139 105.546 159.709Q104.897 159.28 104.262 158.829Q103.628 158.377 103.009 157.905Q102.39 157.433 101.787 156.941Q101.184 156.448 100.597 155.936Q100.011 155.424 99.4422 154.892Q98.8734 154.36 98.3226 153.81Q97.7719 153.26 97.2398 152.691Q96.7077 152.123 96.1949 151.537C98.9025 151.148 104.548 151.719 108.214 151.419C107.28 145.827 102.908 133.622 105.595 128.901L106.467 128.76C110.386 155.777 149.073 153.959 153.264 130.218C154.107 125.438 150.763 125.07 146.935 124.617C148.793 123.04 150.105 120.537 152.086 118.791C153.773 119.771 155.233 121.162 156.818 122.305C165.457 116.547 171.487 104.907 167.176 94.7874C166.21 92.5205 164.839 90.3786 164.347 87.936Z"/>
	<path fill="#FAD171" transform="matrix(0.195312 0 0 0.195312 0.00195312 -0.000244141)" d="M131.735 120.463C131.617 120.066 131.991 118.8 131.711 118.494C130.24 116.887 131.337 118.095 131.334 114.49C131.333 113.115 131.278 103.751 131.735 102.988C131.628 121.897 129.68 118.432 152.086 118.067L152.086 118.791C150.105 120.537 148.793 123.04 146.935 124.617C144.785 125.064 143.337 130.724 142.181 132.634C133.635 146.761 112.207 136.832 115.941 121.106C117.406 114.935 121.684 113.068 126.498 110.056C126.859 107.887 127.029 106.182 126.498 104.022C128.173 105.623 127.091 108.151 126.498 110.056C124.95 111.918 122.687 112.593 120.955 114.197C112.195 122.314 117.487 136.486 122.918 136.337C120.032 131.54 126.021 127.954 129.153 125.643L129.201 125.284L128.065 125.287C126.914 124.593 125.898 125.268 124.905 124.634L124.804 124.063L124.817 124.207C125.02 123.631 125.014 123.717 125.462 123.385L125.871 123.594C126.764 122.461 129.935 121.109 131.348 120.601L131.735 120.463Z"/>
	<path fill="#4C608F" transform="matrix(0.195312 0 0 0.195312 0.00195312 -0.000244141)" d="M323.427 98.2732C330.042 97.9481 336.84 98.2618 343.474 98.2649L411.14 98.2618C418.905 98.2615 431.976 95.4134 432.341 106.737C432.656 116.506 432.39 126.378 432.398 136.154C432.404 143.032 435.217 156.597 426.559 158.549C423.024 159.346 411.016 158.795 406.625 158.781C390.774 158.782 374.869 158.5 359.025 158.781C355.183 162.875 351.137 166.806 347.169 170.778C343.393 174.559 338.483 181.237 332.69 175.984C329.136 172.761 330.48 163.348 330.384 158.781C325.073 158.745 318.756 159.638 316.958 153.106C315.963 149.491 316.063 112.789 316.559 106.026C316.884 101.607 318.997 99.3024 323.427 98.2732ZM357.391 154.152L406.625 154.152L418.795 154.171C429.442 154.192 427.8 153.216 427.746 143.666L427.749 114.818C427.757 109.037 429.813 103.325 423.257 102.999C417.251 102.701 411.092 102.979 405.07 102.985L338.977 102.988C334.099 102.986 329.043 102.672 324.19 102.988C323.388 103.133 321.923 103.271 321.462 104.068C320.661 105.455 319.935 147.455 321.814 153.224C324.66 154.951 331.774 153.953 335.215 154.152C335.146 166.27 331.381 180.554 344.252 167.165C347.88 163.39 353.496 157.273 357.391 154.152Z"/>
	<path fill="#4C608F" transform="matrix(0.195312 0 0 0.195312 0.00195312 -0.000244141)" d="M337.041 127.18L380.572 127.173C384.634 127.173 410.286 124.22 405.517 131.365C400.695 131.76 337.23 131.372 336.778 131.173C335.435 130.584 336.474 127.955 337.041 127.18Z"/>
	<path fill="#4C608F" transform="matrix(0.195312 0 0 0.195312 0.00195312 -0.000244141)" d="M337.041 114.257C349.194 113.661 368.631 113.485 380.697 114.31C384.005 114.536 384.507 117.525 381.619 118.791L354.024 118.801C353.163 118.801 328.493 120.367 337.041 114.257Z"/>
	<path fill="#4C608F" transform="matrix(0.195312 0 0 0.195312 0.00195312 -0.000244141)" d="M337.041 138.993C347.165 138.163 364.703 138.58 374.862 139.043C377.895 139.181 381.144 140.017 378.133 143.244L351.773 143.261C350.255 143.264 330.471 145.077 337.041 138.993Z"/>
	<path fill="#61C2FA" transform="matrix(0.195312 0 0 0.195312 0.00195312 -0.000244141)" d="M132.785 384.142C134.173 384.082 155.644 382.278 151.181 387.639C149.484 389.678 140.005 388.981 137.137 388.967C173.898 426.081 238.368 440.497 288.405 431.406C291.983 430.756 304.848 427.189 307.184 427.617C309.675 428.074 308.99 431.036 307.326 432.054C302.548 433.91 297.315 434.589 292.314 435.579C240.87 445.768 188.097 434.012 146.079 402.978C142.059 400.008 138.513 396.256 134.04 393.941C134.069 396.671 135.394 403.951 132.18 405.335C127.435 405.582 129.329 395.138 129.316 392.423C129.3 388.804 127.732 384.576 132.785 384.142Z"/>
	<path fill="#61C2FA" transform="matrix(0.195312 0 0 0.195312 0.00195312 -0.000244141)" d="M91.5315 177.198C99.2492 177.522 88.7181 193.176 86.787 198.214C67.9784 247.29 76.3899 303.799 103.255 348.158C105.27 351.484 112.091 357.753 108.214 360.545C103.456 361.393 97.8394 348.832 95.9253 345.571C68.0787 298.126 64.397 238.877 85.3615 188.189C86.87 184.541 88.4109 179.734 91.5315 177.198Z"/>
	<path fill="#61C2FA" transform="matrix(0.195312 0 0 0.195312 0.00195312 -0.000244141)" d="M417.086 168.144C421.893 168.531 428.207 187.42 429.672 191.439C441.83 224.798 443.949 260.228 436.546 295.047C435.201 301.372 424.621 336.493 419.112 340.062C414.447 338.944 416.58 335.366 418.09 332.297C442.16 283.379 441.261 226.765 418.353 177.84C416.754 174.425 413.272 171.388 417.086 168.144Z"/>
	<path fill="#61C2FA" transform="matrix(0.195312 0 0 0.195312 0.00195312 -0.000244141)" d="M255.552 68.5351C274.445 67.0984 303.272 73.9948 320.257 80.8201C323.673 82.1927 344.03 90.3055 343.369 93.4779C342.336 98.4463 336.108 93.7057 333.767 92.5756C319.813 85.8395 305.373 80.774 290.247 77.3278C263.543 72.6851 235.379 71.8059 209.378 80.6395C205.813 81.8505 201.875 83.8819 198.17 84.4565C195.938 84.8024 192.476 83.0647 194.947 80.6924C202.42 73.5189 245.3 68.3219 255.552 68.5351Z"/>
</svg>
