<?xml version="1.0" encoding="utf-8" ?>
<svg xmlns="http://www.w3.org/2000/svg" xmlns:xlink="http://www.w3.org/1999/xlink" width="100" height="100">
	<path fill="#E7EBF6" transform="matrix(0.195312 0 0 0.195312 0.00195312 -0.000244141)" d="M44.1683 201.476L44.1565 140.44C44.1584 119.543 51.7973 120.22 68.5809 120.233L181.489 120.248L199.707 120.248C217.114 120.254 218.083 128.59 218.059 143.361L218.038 158.282C227.191 152.457 236.178 146.259 245.205 140.233C253.88 145.878 262.205 151.961 270.746 157.795L290.664 171.539C294.964 174.509 302.713 178.838 305.753 182.75C321.183 184.133 341.006 178.424 352.491 192.136C358.823 199.695 358.615 226.594 357.48 237.68C362.083 239.971 366.5 243.521 370.787 246.387C375.911 249.811 390.647 257.167 390.858 263.509L390.858 263.509L390.872 392.145C390.89 405.523 391.612 417.924 379.627 427.159C370.229 434.966 360.897 434.603 349.466 434.604L147.246 434.606C135.412 434.616 126.329 435.615 116.235 428.067C102.988 416.421 104.289 406.408 104.244 390.236L104.256 262.079C109.939 256.181 118.634 249.857 125.048 244.651C129.343 241.166 133.515 237.095 138.129 234.068C138.612 232.888 138.153 220.686 138.129 218.537C136.651 218.672 135.052 218.916 133.604 218.537C114.767 218.151 95.8435 218.525 76.9976 218.537L62.8363 218.552C49.1187 218.539 44.3791 216.004 44.1683 201.476Z"/>
	<path fill="#85E4E9" transform="matrix(0.195312 0 0 0.195312 0.00195312 -0.000244141)" d="M44.1683 201.476L44.1565 140.44C44.1584 119.543 51.7973 120.22 68.5809 120.233L181.489 120.248L199.707 120.248C217.114 120.254 218.083 128.59 218.059 143.361L218.038 158.282C218.263 166.36 218.292 174.676 218.038 182.75C218.07 197.079 222.913 219.653 202.02 218.537C202.021 228.868 202.137 239.215 202.02 249.545C192.912 239.772 180.947 227.292 170.848 218.537C158.452 218.535 145.992 218.255 133.604 218.537C114.767 218.151 95.8435 218.525 76.9976 218.537L62.8363 218.552C49.1187 218.539 44.3791 216.004 44.1683 201.476Z"/>
	<path fill="#0FD4FA" transform="matrix(0.195312 0 0 0.195312 0.00195312 -0.000244141)" d="M181.489 120.248L199.707 120.248C217.114 120.254 218.083 128.59 218.059 143.361L218.038 158.282C218.263 166.36 218.292 174.676 218.038 182.75C218.07 197.079 222.913 219.653 202.02 218.537C202.021 228.868 202.137 239.215 202.02 249.545C192.912 239.772 180.947 227.292 170.848 218.537C158.452 218.535 145.992 218.255 133.604 218.537C114.767 218.151 95.8435 218.525 76.9976 218.537L62.8363 218.552C49.1187 218.539 44.3791 216.004 44.1683 201.476C69.2151 200.891 94.3336 201.757 119.395 201.483C139.878 201.259 138.279 188.309 148.148 178.197C141.398 177.393 140.554 172.04 145.974 168.726L164.616 168.747C168.323 168.765 172.107 168.946 175.806 168.726C176.055 166.362 177.605 164.388 178.006 161.998C183.79 161.996 189.602 161.873 195.383 161.998C206.513 162.074 202.293 152.742 195.383 152.94L180.213 152.94C182 141.222 181.173 131.77 181.489 120.248Z"/>
	<path fill="#E7EBF6" transform="matrix(0.195312 0 0 0.195312 0.00195312 -0.000244141)" d="M175.806 168.726C181.319 168.588 186.845 168.735 192.36 168.726C194.399 168.669 196.453 168.559 198.489 168.726C203.289 172.152 202.984 177.613 196.264 178.074C191.769 178.382 187.193 178.212 182.686 178.21L159.691 178.183C156.598 178.177 150.92 177.746 148.148 178.197C141.398 177.393 140.554 172.04 145.974 168.726L164.616 168.747C168.323 168.765 172.107 168.946 175.806 168.726Z"/>
	<path fill="#E7EBF6" transform="matrix(0.195312 0 0 0.195312 0.00195312 -0.000244141)" d="M147.117 184.429C158.953 184.125 170.948 184.319 182.795 184.429C186.166 187.228 187.183 191.011 182.795 193.871C175.69 194.222 153.886 194.746 147.273 193.658C142.211 192.825 143.552 186.352 147.117 184.429Z"/>
	<path fill="#E7EBF6" transform="matrix(0.195312 0 0 0.195312 0.00195312 -0.000244141)" d="M195.383 152.94C202.293 152.742 206.513 162.074 195.383 161.998C189.602 161.873 183.79 161.996 178.006 161.998C167.337 161.993 156.641 162.166 145.974 161.998C144.159 161.055 142.969 160.132 142.06 158.282C142.67 156.316 143.121 155.098 144.703 153.677C149.241 152.22 173.76 152.948 180.213 152.94L195.383 152.94Z"/>
	<path fill="#4985F4" transform="matrix(0.195312 0 0 0.195312 0.00195312 -0.000244141)" d="M90.6386 142.492Q91.3074 142.4 91.9799 142.34Q92.6523 142.28 93.3269 142.254Q94.0015 142.227 94.6766 142.233Q95.3517 142.24 96.0257 142.279Q96.6997 142.318 97.3709 142.391Q98.0422 142.463 98.7091 142.568Q99.376 142.673 100.037 142.811Q100.698 142.948 101.351 143.118Q102.005 143.288 102.649 143.489Q103.294 143.691 103.927 143.923Q104.561 144.156 105.183 144.42Q105.804 144.683 106.412 144.977Q107.02 145.27 107.613 145.593Q108.206 145.916 108.782 146.268Q109.358 146.619 109.917 146.999Q110.475 147.378 111.015 147.784Q111.554 148.191 112.073 148.623Q112.591 149.055 113.088 149.512Q113.585 149.969 114.059 150.449Q114.533 150.93 114.983 151.434Q115.433 151.937 115.858 152.462Q116.283 152.986 116.681 153.531Q117.08 154.076 117.451 154.64Q117.823 155.204 118.166 155.785Q118.51 156.366 118.824 156.964Q119.139 157.561 119.424 158.173Q119.709 158.785 119.964 159.41Q120.218 160.035 120.442 160.672Q120.666 161.309 120.858 161.956Q121.051 162.603 121.211 163.259Q121.372 163.915 121.5 164.578Q121.628 165.241 121.724 165.909Q121.82 166.577 121.883 167.25Q121.945 167.922 121.975 168.596Q122.005 169.271 122.002 169.946Q121.999 170.621 121.963 171.295Q121.927 171.969 121.857 172.641Q121.788 173.312 121.686 173.98Q121.585 174.647 121.45 175.309Q121.316 175.97 121.149 176.625Q120.983 177.279 120.784 177.924Q120.586 178.57 120.356 179.204Q120.126 179.839 119.866 180.462Q119.605 181.085 119.315 181.694Q119.024 182.304 118.704 182.898Q118.384 183.492 118.035 184.07Q117.686 184.648 117.309 185.209Q116.933 185.769 116.529 186.31Q116.126 186.851 115.696 187.372Q115.266 187.893 114.812 188.392Q114.357 188.891 113.879 189.367Q113.4 189.844 112.899 190.296Q112.398 190.748 111.875 191.176Q111.352 191.603 110.809 192.004Q110.266 192.405 109.704 192.78Q109.142 193.154 108.563 193.5Q107.983 193.846 107.387 194.164Q106.792 194.481 106.181 194.769Q105.57 195.057 104.946 195.315Q104.322 195.572 103.686 195.799Q103.051 196.026 102.404 196.222Q101.758 196.417 101.103 196.581Q100.448 196.744 99.786 196.876Q99.1237 197.007 98.4559 197.106Q97.784 197.205 97.1079 197.272Q96.4319 197.338 95.7534 197.371Q95.075 197.404 94.3957 197.403Q93.7164 197.403 93.038 197.369Q92.3596 197.335 91.6837 197.268Q91.0078 197.2 90.336 197.1Q89.6642 196.999 88.9981 196.866Q88.3321 196.733 87.6734 196.567Q87.0148 196.401 86.3651 196.202Q85.7154 196.004 85.0762 195.774Q84.4371 195.544 83.81 195.283Q83.183 195.022 82.5695 194.73Q81.9561 194.438 81.3578 194.117Q80.7594 193.795 80.1776 193.445Q79.5958 193.094 79.032 192.715Q78.4682 192.336 77.9237 191.93Q77.3792 191.524 76.8553 191.092Q76.3315 190.659 75.8296 190.202Q75.3276 189.744 74.8488 189.262Q74.37 188.78 73.9155 188.276Q73.461 187.771 73.0319 187.244Q72.6028 186.718 72.2001 186.171Q71.7974 185.624 71.4222 185.057Q71.0469 184.491 70.7 183.907Q70.3531 183.323 70.0353 182.723Q69.7175 182.122 69.4297 181.507Q69.1418 180.892 68.8846 180.263Q68.6274 179.635 68.4014 178.994Q68.1755 178.353 67.9813 177.702Q67.7872 177.052 67.6253 176.392Q67.4634 175.732 67.3342 175.065Q67.2049 174.398 67.1087 173.726Q67.0125 173.054 66.9495 172.377Q66.8864 171.701 66.8568 171.022Q66.8271 170.344 66.8309 169.664Q66.8347 168.985 66.8719 168.307Q66.9091 167.629 66.9796 166.953Q67.0502 166.278 67.1539 165.606Q67.2576 164.935 67.3942 164.27Q67.5308 163.604 67.7 162.946Q67.8692 162.289 68.0706 161.64Q68.272 160.991 68.505 160.353Q68.7381 159.715 69.0022 159.089Q69.2664 158.464 69.5611 157.852Q69.8557 157.24 70.1801 156.643Q70.5045 156.046 70.8579 155.466Q71.2113 154.886 71.5928 154.324Q71.9744 153.762 72.3831 153.219Q72.7918 152.677 73.2267 152.155Q73.6616 151.633 74.1217 151.134Q74.5818 150.634 75.0659 150.157Q75.55 149.681 76.0569 149.229Q76.5639 148.777 77.0925 148.35Q77.6211 147.924 78.1701 147.524Q78.719 147.124 79.287 146.751Q79.855 146.379 80.4406 146.034Q81.0262 145.69 81.6281 145.375Q82.2299 145.061 82.8466 144.776Q83.4632 144.491 84.0931 144.237Q84.723 143.982 85.3646 143.759Q86.0063 143.537 86.6581 143.346Q87.3099 143.155 87.9704 142.996Q88.6308 142.837 89.2983 142.711Q89.9658 142.585 90.6386 142.492Z"/>
	<path fill="#A0A3F5" transform="matrix(0.195312 0 0 0.195312 0.00195312 -0.000244141)" d="M93.24 156.994C96.4775 157.626 109.236 170.251 109.386 172.075C109.546 174.025 107.6 176.582 105.539 176.517C102.447 176.42 96.9466 169.293 94.6604 167.023C92.2038 164.729 86.6664 176.948 81.8768 176.155C71.4054 174.421 91.9092 157.848 93.24 156.994Z"/>
	<path fill="#4985F4" transform="matrix(0.195312 0 0 0.195312 0.00195312 -0.000244141)" d="M283.134 335.052L347.533 396.796C358.171 406.943 368.692 417.335 379.627 427.159C370.229 434.966 360.897 434.603 349.466 434.604L147.246 434.606C135.412 434.616 126.329 435.615 116.235 428.067C119.083 425.446 121.758 422.572 124.506 419.843L200.436 345.122C203.74 341.862 207.328 337.452 211.282 335.052L223.372 343.223C242.236 356.066 250.513 356.703 268.937 344.477L283.134 335.052Z"/>
	<path fill="#84B5F8" transform="matrix(0.195312 0 0 0.195312 0.00195312 -0.000244141)" d="M199.707 408.186L239.615 408.193C245.054 408.185 265.342 405.235 265.5 413.173C265.64 420.211 256.922 418.296 252.377 418.261L235.688 418.238L194.872 418.248C187.333 418.255 171.287 421.507 169.145 413.634C170.638 406.203 176.714 408.162 183.065 408.169L199.707 408.186Z"/>
	<path fill="#84B5F8" transform="matrix(0.195312 0 0 0.195312 0.00195312 -0.000244141)" d="M279.073 408.186C282.584 408.189 290.097 407.774 293.185 408.297C298.569 409.209 299.342 417.513 293.496 418.238C290.364 418.366 279.927 418.909 277.447 417.606C273.321 415.438 275.033 409.33 279.073 408.186Z"/>
	<path fill="#84B5F8" transform="matrix(0.195312 0 0 0.195312 0.00195312 -0.000244141)" d="M138.129 234.068C138.758 249.373 138.809 269.658 138.129 284.847C143.028 287.839 147.669 291.376 152.432 294.59L204.798 330.401C206.967 331.895 209.284 333.336 211.282 335.052C207.328 337.452 203.74 341.862 200.436 345.122L124.506 419.843C121.758 422.572 119.083 425.446 116.235 428.067C102.988 416.421 104.289 406.408 104.244 390.236L104.256 262.079C109.939 256.181 118.634 249.857 125.048 244.651C129.343 241.166 133.515 237.095 138.129 234.068Z"/>
	<path fill="#C7D3F8" transform="matrix(0.195312 0 0 0.195312 0.00195312 -0.000244141)" d="M120.131 349.687C121.313 349.43 122.345 349.48 123.53 349.687C127.259 353.551 125.514 362.952 125.509 368.068C125.5 377.203 125.729 386.4 125.492 395.528C124.547 396.479 123.66 397.357 122.528 398.092C114.215 399.004 116.241 390.078 116.232 383.841L116.224 370.035C116.224 364.17 113.476 350.659 120.131 349.687Z"/>
	<path fill="#C7D3F8" transform="matrix(0.195312 0 0 0.195312 0.00195312 -0.000244141)" d="M118.974 299.048C128.816 298.349 125.508 312.852 125.509 320.622C125.51 325.747 127.33 333.439 122.528 336.83C118.94 337.041 116.636 335.384 116.338 331.895C115.827 325.906 113.809 302.256 118.974 299.048Z"/>
	<path fill="#4985F4" transform="matrix(0.195312 0 0 0.195312 0.00195312 -0.000244141)" d="M107.832 264.524C111.094 264.225 114.561 264.498 117.85 264.503L138.129 264.524L138.129 284.847L107.832 264.524Z"/>
	<path fill="#84B5F8" transform="matrix(0.195312 0 0 0.195312 0.00195312 -0.000244141)" d="M357.48 237.68C362.083 239.971 366.5 243.521 370.787 246.387C375.911 249.811 390.647 257.167 390.858 263.509L390.858 263.509L390.872 392.145C390.89 405.523 391.612 417.924 379.627 427.159C368.692 417.335 358.171 406.943 347.533 396.796L283.134 335.052C284.726 333.481 287.217 332.159 289.105 330.907L331.094 302.91C339.875 297.069 348.857 291.424 357.48 285.356L357.48 265.554C356.898 260.815 357.008 242.614 357.48 237.68Z"/>
	<path fill="#84B5F8" transform="matrix(0.195312 0 0 0.195312 0.00195312 -0.000244141)" d="M357.48 237.68C362.083 239.971 366.5 243.521 370.787 246.387C375.911 249.811 390.647 257.167 390.858 263.509C387.403 263.486 358.324 263.254 357.636 263.65C357.577 264.285 357.517 264.917 357.48 265.554C356.898 260.815 357.008 242.614 357.48 237.68Z"/>
	<path fill="#4985F4" transform="matrix(0.195312 0 0 0.195312 0.00195312 -0.000244141)" d="M357.48 265.554C357.517 264.917 357.577 264.285 357.636 263.65C358.324 263.254 387.403 263.486 390.858 263.509L390.858 263.509C387.692 264.675 384.357 267.502 381.552 269.385L365.684 279.991C362.965 281.791 360.298 283.713 357.48 285.356L357.48 265.554Z"/>
	<path fill="#84B5F8" transform="matrix(0.195312 0 0 0.195312 0.00195312 -0.000244141)" d="M218.038 158.282C227.191 152.457 236.178 146.259 245.205 140.233C253.88 145.878 262.205 151.961 270.746 157.795L290.664 171.539C294.964 174.509 302.713 178.838 305.753 182.75C276.527 183.049 247.267 182.748 218.038 182.75C218.292 174.676 218.263 166.36 218.038 158.282Z"/>
	<path fill="#C7D3F8" transform="matrix(0.195312 0 0 0.195312 0.00195312 -0.000244141)" d="M195.383 261.266L287.202 261.342C291.931 261.321 302.571 260.027 306.603 262.64C313.876 267.355 311.012 276.39 300.947 278.176L205.093 278.162C200.44 278.165 192.531 279.534 188.584 276.427C182.157 271.369 185.277 261.84 195.383 261.266Z"/>
	<path fill="#C7D3F8" transform="matrix(0.195312 0 0 0.195312 0.00195312 -0.000244141)" d="M229.411 226.021C232.469 225.724 235.814 226.013 238.905 226.012L287.014 226.009C291.758 226.01 302.612 224.81 306.64 227.439C313.324 231.8 310.939 241.372 302.467 242.819L238.911 242.839C232.615 242.858 222.082 243.915 221.016 235.313C220.335 229.816 224.403 226.597 229.411 226.021Z"/>
	<path fill="#C7D3F8" transform="matrix(0.195312 0 0 0.195312 0.00195312 -0.000244141)" d="M229.411 293.478L255.158 293.464C259.485 293.463 264.257 293.082 268.54 293.663C278.318 294.988 279.827 309.071 267.256 310.25C259.622 310.689 226.791 311.449 222.731 308.039C216.946 303.179 220.323 294.1 229.411 293.478Z"/>
	<path fill="#85E4E9" transform="matrix(0.195312 0 0 0.195312 0.00195312 -0.000244141)" d="M396.217 74.5277C403.21 74.5306 410.283 74.2551 417.264 74.5277C418.067 78.776 419.021 82.8908 420.265 87.0327C424.081 88.2077 427.672 89.8912 431.233 91.6743C434.532 89.7292 437.508 87.07 441.099 85.7149C444.77 88.3538 452.039 95.5591 454.528 99.4287C453.029 102.693 450.324 105.09 448.944 108.511C450.884 113.142 453.196 117.607 454.982 122.303C458.438 123.917 462.738 124.129 466.489 124.565C466.875 131.413 466.502 138.491 466.489 145.366C462.674 145.745 458.678 146.057 454.982 147.117C452.842 151.035 450.744 155.257 448.944 159.342C450.287 163.689 453.185 167.005 454.982 171.114C451.666 174.879 445.299 181.922 441.099 184.429C437.607 182.631 434.855 179.886 431.233 178.197C427.528 179.122 423.692 181.058 420.265 182.75C418.114 186.23 417.324 190.867 416.098 194.779L397.516 194.779C393.163 179.759 397.375 185.102 382.497 178.197C378.488 179.699 375.483 182.814 371.636 184.429C367.916 182.014 361.104 175.406 358.212 171.879C360.718 167.548 364.01 163.71 366.514 159.342C358.661 152.685 362.195 152.506 359.445 148.134C358.044 145.907 349.963 145.709 347.316 145.366C346.871 138.975 347.148 132.107 347.316 125.702C351.296 124.703 355.26 124.1 359.335 123.665C360.782 118.882 362.78 114.465 364.503 109.801C362.744 106.133 359.906 102.692 357.48 99.4287C362.282 95.1109 366.534 89.5957 371.636 85.7149C386.098 91.8182 378.219 92.7599 394.445 85.7149C394.73 82.0184 395.617 78.1914 396.217 74.5277Z"/>
	<path fill="#51D3D1" transform="matrix(0.195312 0 0 0.195312 0.00195312 -0.000244141)" d="M404.851 106.306Q405.51 106.282 406.17 106.291Q406.829 106.299 407.488 106.34Q408.146 106.381 408.802 106.454Q409.457 106.527 410.109 106.633Q410.76 106.738 411.405 106.875Q412.051 107.012 412.688 107.18Q413.326 107.349 413.955 107.548Q414.584 107.748 415.202 107.978Q415.82 108.208 416.426 108.468Q417.033 108.728 417.625 109.017Q418.218 109.307 418.796 109.625Q419.374 109.943 419.935 110.29Q420.497 110.636 421.041 111.009Q421.585 111.382 422.11 111.782Q422.635 112.181 423.139 112.606Q423.644 113.031 424.127 113.48Q424.611 113.929 425.071 114.401Q425.532 114.873 425.969 115.367Q426.406 115.861 426.818 116.376Q427.231 116.891 427.617 117.426Q428.004 117.96 428.364 118.513Q428.724 119.066 429.056 119.636Q429.388 120.206 429.692 120.791Q429.996 121.376 430.271 121.976Q430.546 122.576 430.791 123.188Q431.037 123.801 431.252 124.424Q431.466 125.048 431.651 125.681Q431.835 126.315 431.987 126.957Q432.14 127.598 432.261 128.247Q432.383 128.895 432.472 129.549Q432.561 130.202 432.618 130.86Q432.675 131.517 432.7 132.176Q432.725 132.835 432.717 133.495Q432.71 134.154 432.67 134.813Q432.63 135.471 432.558 136.127Q432.486 136.783 432.382 137.434Q432.277 138.086 432.141 138.731Q432.005 139.377 431.838 140.015Q431.671 140.653 431.472 141.282Q431.273 141.911 431.044 142.53Q430.815 143.148 430.556 143.755Q430.297 144.361 430.008 144.955Q429.72 145.548 429.402 146.126Q429.085 146.704 428.74 147.267Q428.394 147.829 428.022 148.373Q427.65 148.918 427.251 149.443Q426.852 149.969 426.428 150.474Q426.004 150.98 425.556 151.464Q425.108 151.948 424.636 152.409Q424.165 152.87 423.672 153.308Q423.178 153.746 422.664 154.159Q422.149 154.572 421.616 154.96Q421.082 155.347 420.529 155.708Q419.977 156.068 419.408 156.402Q418.838 156.735 418.253 157.04Q417.668 157.345 417.069 157.62Q416.47 157.896 415.858 158.143Q415.246 158.389 414.623 158.605Q413.999 158.82 413.366 159.006Q412.733 159.191 412.091 159.344Q411.45 159.498 410.802 159.62Q410.153 159.742 409.5 159.833Q408.846 159.923 408.189 159.981Q407.532 160.039 406.873 160.065Q406.213 160.091 405.552 160.084Q404.891 160.078 404.231 160.039Q403.571 159.999 402.914 159.928Q402.257 159.857 401.604 159.753Q400.951 159.649 400.304 159.514Q399.657 159.378 399.018 159.211Q398.378 159.044 397.748 158.846Q397.117 158.647 396.497 158.418Q395.877 158.189 395.269 157.93Q394.661 157.67 394.067 157.382Q393.472 157.093 392.893 156.775Q392.313 156.457 391.75 156.112Q391.186 155.766 390.641 155.393Q390.095 155.02 389.569 154.621Q389.042 154.221 388.535 153.796Q388.029 153.372 387.544 152.923Q387.059 152.473 386.597 152.001Q386.134 151.529 385.696 151.034Q385.257 150.54 384.844 150.024Q384.43 149.509 384.042 148.974Q383.654 148.438 383.293 147.885Q382.932 147.331 382.598 146.761Q382.265 146.19 381.959 145.604Q381.654 145.017 381.378 144.417Q381.102 143.816 380.856 143.203Q380.61 142.589 380.395 141.965Q380.179 141.34 379.994 140.705Q379.809 140.07 379.656 139.428Q379.503 138.785 379.381 138.135Q379.259 137.485 379.17 136.83Q379.08 136.175 379.023 135.517Q378.966 134.858 378.941 134.198Q378.916 133.537 378.924 132.877Q378.931 132.216 378.972 131.556Q379.012 130.896 379.084 130.239Q379.156 129.582 379.261 128.93Q379.366 128.277 379.502 127.63Q379.639 126.983 379.807 126.344Q379.975 125.705 380.174 125.075Q380.374 124.445 380.604 123.825Q380.834 123.205 381.094 122.598Q381.354 121.99 381.644 121.396Q381.934 120.802 382.252 120.223Q382.571 119.644 382.918 119.081Q383.264 118.518 383.638 117.973Q384.012 117.428 384.412 116.902Q384.812 116.376 385.238 115.87Q385.663 115.364 386.113 114.88Q386.563 114.396 387.036 113.934Q387.509 113.473 388.004 113.035Q388.5 112.597 389.016 112.184Q389.532 111.771 390.068 111.384Q390.603 110.997 391.157 110.637Q391.712 110.276 392.283 109.944Q392.854 109.611 393.441 109.307Q394.027 109.003 394.629 108.728Q395.23 108.453 395.843 108.207Q396.457 107.962 397.082 107.748Q397.707 107.533 398.342 107.349Q398.977 107.165 399.62 107.013Q400.264 106.861 400.913 106.74Q401.563 106.619 402.218 106.531Q402.873 106.442 403.532 106.386Q404.19 106.33 404.851 106.306Z"/>
	<path fill="#FEE78B" transform="matrix(0.195312 0 0 0.195312 0.00195312 -0.000244141)" d="M405.531 123.478Q405.77 123.472 406.008 123.478Q406.247 123.483 406.485 123.501Q406.724 123.518 406.961 123.547Q407.198 123.576 407.433 123.617Q407.668 123.657 407.901 123.709Q408.134 123.761 408.365 123.825Q408.595 123.888 408.822 123.963Q409.048 124.037 409.271 124.123Q409.494 124.208 409.713 124.304Q409.931 124.401 410.145 124.508Q410.358 124.615 410.566 124.732Q410.774 124.849 410.976 124.976Q411.178 125.104 411.374 125.241Q411.57 125.378 411.758 125.524Q411.947 125.671 412.128 125.826Q412.309 125.981 412.483 126.146Q412.656 126.31 412.821 126.482Q412.987 126.655 413.143 126.835Q413.3 127.015 413.447 127.203Q413.595 127.391 413.733 127.585Q413.871 127.78 414 127.981Q414.128 128.183 414.247 128.39Q414.365 128.597 414.474 128.81Q414.582 129.023 414.68 129.241Q414.777 129.459 414.864 129.681Q414.951 129.904 415.027 130.13Q415.103 130.356 415.168 130.586Q415.232 130.816 415.286 131.049Q415.339 131.281 415.381 131.516Q415.423 131.752 415.454 131.988Q415.484 132.225 415.503 132.463Q415.522 132.701 415.529 132.94Q415.536 133.179 415.532 133.417Q415.527 133.656 415.511 133.894Q415.495 134.133 415.467 134.37Q415.439 134.607 415.4 134.842Q415.36 135.078 415.31 135.311Q415.259 135.544 415.197 135.775Q415.134 136.006 415.061 136.233Q414.988 136.46 414.903 136.683Q414.819 136.907 414.723 137.126Q414.628 137.345 414.522 137.559Q414.417 137.773 414.3 137.981Q414.184 138.19 414.058 138.392Q413.932 138.595 413.796 138.791Q413.66 138.988 413.514 139.177Q413.369 139.366 413.214 139.548Q413.06 139.73 412.896 139.905Q412.733 140.079 412.562 140.245Q412.39 140.411 412.211 140.568Q412.031 140.726 411.844 140.874Q411.657 141.023 411.463 141.162Q411.269 141.301 411.069 141.431Q410.868 141.56 410.661 141.68Q410.455 141.799 410.242 141.909Q410.03 142.018 409.813 142.117Q409.595 142.216 409.373 142.304Q409.151 142.392 408.925 142.469Q408.699 142.546 408.47 142.612Q408.24 142.678 408.008 142.732Q407.776 142.787 407.541 142.83Q407.306 142.873 407.069 142.905Q406.833 142.937 406.595 142.957Q406.357 142.977 406.118 142.985Q405.878 142.993 405.638 142.99Q405.397 142.987 405.157 142.971Q404.918 142.956 404.679 142.929Q404.44 142.902 404.203 142.863Q403.966 142.825 403.731 142.774Q403.496 142.724 403.263 142.662Q403.031 142.6 402.802 142.527Q402.573 142.454 402.348 142.369Q402.123 142.285 401.903 142.19Q401.682 142.094 401.467 141.988Q401.251 141.882 401.041 141.765Q400.831 141.649 400.627 141.522Q400.422 141.395 400.225 141.259Q400.027 141.122 399.836 140.976Q399.646 140.829 399.462 140.674Q399.279 140.518 399.104 140.354Q398.928 140.19 398.761 140.017Q398.594 139.844 398.436 139.663Q398.278 139.483 398.128 139.294Q397.979 139.106 397.839 138.911Q397.699 138.715 397.569 138.513Q397.439 138.311 397.319 138.103Q397.199 137.894 397.09 137.68Q396.98 137.467 396.882 137.248Q396.783 137.029 396.695 136.805Q396.607 136.581 396.53 136.354Q396.453 136.126 396.387 135.895Q396.322 135.663 396.268 135.429Q396.214 135.195 396.171 134.959Q396.129 134.722 396.098 134.484Q396.067 134.245 396.048 134.006Q396.029 133.766 396.022 133.526Q396.015 133.286 396.019 133.046Q396.024 132.805 396.04 132.566Q396.057 132.326 396.085 132.087Q396.113 131.849 396.153 131.612Q396.193 131.375 396.245 131.14Q396.296 130.905 396.359 130.673Q396.422 130.441 396.497 130.213Q396.571 129.984 396.657 129.76Q396.742 129.535 396.839 129.315Q396.935 129.095 397.042 128.88Q397.149 128.665 397.267 128.455Q397.385 128.246 397.513 128.042Q397.64 127.839 397.778 127.642Q397.916 127.445 398.063 127.255Q398.21 127.065 398.367 126.883Q398.523 126.7 398.688 126.526Q398.853 126.351 399.027 126.185Q399.2 126.019 399.382 125.861Q399.563 125.704 399.753 125.555Q399.942 125.407 400.138 125.268Q400.334 125.129 400.537 125Q400.739 124.871 400.948 124.753Q401.157 124.634 401.371 124.525Q401.586 124.417 401.805 124.319Q402.025 124.221 402.249 124.134Q402.473 124.048 402.701 123.972Q402.929 123.896 403.161 123.832Q403.392 123.767 403.627 123.714Q403.861 123.662 404.098 123.62Q404.335 123.579 404.573 123.549Q404.811 123.52 405.051 123.502Q405.291 123.484 405.531 123.478Z"/>
	<path fill="#85E4E9" transform="matrix(0.195312 0 0 0.195312 0.00195312 -0.000244141)" d="M414.526 257.269L431.642 257.256C435.103 257.256 438.607 257.136 442.059 257.409L442.358 257.663L442.659 257.572C443.51 258.644 437.65 263.484 436.821 264.326L422.635 278.77C418.045 283.788 413.09 288.47 408.48 293.478C407.546 284.673 408.127 266.293 408.48 257.269C410.509 257.349 412.499 257.379 414.526 257.269Z"/>
	<path fill="#85E4E9" transform="matrix(0.195312 0 0 0.195312 0.00195312 -0.000244141)" d="M69.1186 316.023Q69.5022 315.974 69.8883 315.949Q70.2744 315.925 70.6612 315.927Q71.048 315.928 71.4339 315.955Q71.8197 315.982 72.203 316.034Q72.5863 316.086 72.9653 316.164Q73.3443 316.241 73.7174 316.343Q74.0905 316.445 74.456 316.572Q74.8216 316.698 75.1781 316.848Q75.5345 316.998 75.8803 317.172Q76.2261 317.345 76.5597 317.541Q76.8933 317.737 77.2134 317.954Q77.5334 318.171 77.8384 318.409Q78.1434 318.647 78.4321 318.904Q78.7208 319.162 78.992 319.438Q79.2631 319.714 79.5155 320.007Q79.7679 320.3 80.0004 320.609Q80.2329 320.918 80.4446 321.242Q80.6563 321.565 80.8462 321.902Q81.0361 322.239 81.2034 322.588Q81.3707 322.937 81.5147 323.296Q81.6587 323.655 81.7788 324.023Q81.8989 324.39 81.9945 324.765Q82.0901 325.14 82.1608 325.52Q82.2315 325.9 82.2771 326.284Q82.3226 326.669 82.3428 327.055Q82.3629 327.441 82.3576 327.828Q82.3523 328.215 82.3215 328.6Q82.2908 328.986 82.2347 329.368Q82.1787 329.751 82.0975 330.129Q82.0164 330.507 81.9106 330.88Q81.8047 331.252 81.6746 331.616Q81.5445 331.98 81.3907 332.335Q81.2369 332.69 81.06 333.034Q80.8832 333.378 80.6841 333.71Q80.485 334.041 80.2644 334.359Q80.0439 334.677 79.803 334.979Q79.562 335.282 79.3017 335.568Q79.0414 335.854 78.7627 336.122Q78.4841 336.391 78.1885 336.64Q77.8928 336.889 77.5814 337.119Q77.2699 337.348 76.944 337.557Q76.6182 337.765 76.2793 337.952Q75.9404 338.138 75.59 338.302Q75.2396 338.466 74.8792 338.606Q74.5187 338.746 74.1498 338.863Q73.7809 338.979 73.4052 339.071Q73.0294 339.163 72.6484 339.229Q72.2675 339.296 71.8829 339.338Q71.5982 339.369 71.3124 339.386Q71.0266 339.403 70.7402 339.406Q70.4539 339.409 70.1678 339.398Q69.8817 339.387 69.5965 339.362Q69.3112 339.337 69.0275 339.298Q68.7438 339.259 68.4624 339.206Q68.1809 339.154 67.9023 339.088Q67.6238 339.021 67.3488 338.942Q67.0738 338.862 66.803 338.769Q66.5322 338.676 66.2663 338.57Q66.0004 338.463 65.7399 338.344Q65.4795 338.225 65.2252 338.094Q64.9708 337.962 64.7232 337.818Q64.4756 337.675 64.2353 337.519Q63.995 337.363 63.7626 337.196Q63.5301 337.029 63.3061 336.851Q63.0821 336.672 62.8671 336.483Q62.6521 336.294 62.4465 336.095Q62.2409 335.895 62.0453 335.686Q61.8497 335.477 61.6645 335.259Q61.4794 335.04 61.305 334.813Q61.1307 334.586 60.9677 334.351Q60.8047 334.115 60.6533 333.872Q60.5019 333.629 60.3626 333.379Q60.2233 333.129 60.0963 332.872Q59.9693 332.616 59.855 332.353Q59.7407 332.091 59.6393 331.823Q59.538 331.555 59.4498 331.283Q59.3616 331.01 59.2867 330.734Q59.2119 330.457 59.1507 330.178Q59.0894 329.898 59.0419 329.616Q58.9943 329.333 58.9606 329.049Q58.9269 328.765 58.9071 328.479Q58.8873 328.193 58.8814 327.907Q58.8755 327.621 58.8836 327.335Q58.8917 327.048 58.9138 326.763Q58.9358 326.477 58.9718 326.193Q59.0077 325.909 59.0575 325.627Q59.1072 325.345 59.1706 325.066Q59.2341 324.787 59.311 324.511Q59.388 324.235 59.4783 323.963Q59.5686 323.692 59.6721 323.425Q59.7756 323.158 59.8919 322.896Q60.0083 322.634 60.1373 322.379Q60.2662 322.123 60.4075 321.874Q60.5488 321.625 60.7021 321.383Q60.8553 321.141 61.0202 320.907Q61.185 320.673 61.3611 320.447Q61.5372 320.221 61.7241 320.005Q61.911 319.788 62.1082 319.58Q62.3055 319.372 62.5126 319.175Q62.7197 318.977 62.9362 318.79Q63.1527 318.602 63.3781 318.426Q63.6035 318.249 63.8372 318.084Q64.071 317.918 64.3125 317.764Q64.554 317.611 64.8028 317.469Q65.0515 317.327 65.3068 317.197Q65.5622 317.068 65.8236 316.951Q66.0849 316.834 66.3517 316.73Q66.6184 316.626 66.89 316.535Q67.1615 316.444 67.4371 316.366Q67.7127 316.289 67.9918 316.224Q68.2709 316.16 68.5527 316.11Q68.8346 316.06 69.1186 316.023Z"/>
	<path fill="#85E4E9" transform="matrix(0.195312 0 0 0.195312 0.00195312 -0.000244141)" d="M452.99 219.651Q453.255 219.604 453.523 219.571Q453.79 219.537 454.059 219.516Q454.327 219.496 454.597 219.488Q454.866 219.481 455.135 219.487Q455.405 219.493 455.673 219.512Q455.942 219.531 456.209 219.563Q456.477 219.595 456.743 219.64Q457.008 219.685 457.271 219.743Q457.534 219.802 457.794 219.873Q458.054 219.944 458.31 220.027Q458.566 220.111 458.818 220.207Q459.07 220.303 459.316 220.411Q459.563 220.52 459.804 220.64Q460.045 220.76 460.28 220.892Q460.515 221.024 460.743 221.167Q460.971 221.31 461.192 221.465Q461.413 221.619 461.626 221.784Q461.839 221.949 462.044 222.124Q462.249 222.299 462.445 222.484Q462.641 222.669 462.827 222.863Q463.014 223.057 463.191 223.261Q463.367 223.464 463.534 223.676Q463.701 223.887 463.857 224.107Q464.013 224.326 464.158 224.553Q464.303 224.78 464.437 225.014Q464.571 225.248 464.693 225.488Q464.816 225.728 464.926 225.974Q465.036 226.22 465.135 226.47Q465.233 226.721 465.319 226.977Q465.404 227.232 465.478 227.491Q465.551 227.751 465.611 228.013Q465.672 228.276 465.719 228.541Q465.766 228.806 465.801 229.073Q465.835 229.341 465.856 229.609Q465.878 229.878 465.886 230.147Q465.894 230.416 465.889 230.686Q465.884 230.955 465.865 231.224Q465.847 231.493 465.816 231.76Q465.784 232.028 465.74 232.293Q465.695 232.559 465.638 232.822Q465.58 233.085 465.51 233.346Q465.44 233.606 465.357 233.862Q465.274 234.118 465.178 234.37Q465.083 234.622 464.975 234.869Q464.868 235.116 464.748 235.357Q464.629 235.599 464.497 235.834Q464.366 236.069 464.223 236.298Q464.081 236.526 463.927 236.748Q463.773 236.969 463.609 237.182Q463.445 237.396 463.27 237.601Q463.095 237.806 462.911 238.003Q462.727 238.199 462.533 238.386Q462.339 238.573 462.136 238.751Q461.933 238.928 461.722 239.095Q461.511 239.262 461.292 239.419Q461.073 239.576 460.846 239.722Q460.62 239.867 460.386 240.002Q460.153 240.136 459.913 240.259Q459.673 240.382 459.428 240.493Q459.182 240.604 458.932 240.703Q458.681 240.802 458.426 240.888Q458.171 240.975 457.912 241.049Q457.653 241.123 457.39 241.184Q457.128 241.245 456.863 241.293Q456.597 241.341 456.329 241.377Q456.061 241.412 455.792 241.434Q455.522 241.456 455.252 241.464Q454.982 241.473 454.712 241.468Q454.441 241.464 454.172 241.446Q453.902 241.428 453.633 241.397Q453.365 241.366 453.098 241.322Q452.832 241.277 452.567 241.22Q452.303 241.163 452.042 241.093Q451.781 241.022 451.524 240.939Q451.267 240.857 451.014 240.761Q450.761 240.665 450.513 240.558Q450.265 240.45 450.023 240.33Q449.781 240.21 449.545 240.078Q449.308 239.947 449.079 239.804Q448.85 239.661 448.628 239.506Q448.406 239.352 448.191 239.187Q447.977 239.022 447.772 238.847Q447.566 238.672 447.369 238.487Q447.172 238.302 446.984 238.107Q446.797 237.913 446.619 237.709Q446.441 237.505 446.273 237.293Q446.106 237.081 445.949 236.861Q445.792 236.641 445.646 236.414Q445.5 236.186 445.365 235.952Q445.231 235.717 445.108 235.477Q444.985 235.236 444.874 234.989Q444.763 234.743 444.664 234.491Q444.565 234.24 444.479 233.983Q444.393 233.727 444.319 233.467Q444.246 233.207 444.185 232.943Q444.125 232.68 444.077 232.414Q444.029 232.148 443.995 231.88Q443.96 231.612 443.939 231.342Q443.918 231.073 443.91 230.803Q443.902 230.532 443.907 230.262Q443.912 229.992 443.931 229.722Q443.95 229.452 443.981 229.184Q444.013 228.916 444.058 228.649Q444.103 228.382 444.161 228.118Q444.219 227.854 444.29 227.594Q444.361 227.333 444.445 227.076Q444.528 226.819 444.624 226.566Q444.721 226.313 444.829 226.066Q444.938 225.818 445.058 225.576Q445.179 225.334 445.311 225.098Q445.443 224.863 445.587 224.634Q445.73 224.405 445.885 224.183Q446.04 223.961 446.205 223.748Q446.371 223.534 446.547 223.329Q446.723 223.123 446.908 222.927Q447.094 222.73 447.289 222.543Q447.484 222.356 447.688 222.179Q447.892 222.001 448.105 221.834Q448.317 221.667 448.538 221.511Q448.758 221.355 448.986 221.209Q449.214 221.064 449.449 220.93Q449.684 220.796 449.925 220.674Q450.166 220.551 450.413 220.441Q450.659 220.331 450.911 220.233Q451.163 220.135 451.42 220.049Q451.676 219.963 451.936 219.891Q452.197 219.818 452.46 219.758Q452.724 219.698 452.99 219.651Z"/>
</svg>
