<?xml version="1.0" encoding="utf-8" ?>
<svg xmlns="http://www.w3.org/2000/svg" xmlns:xlink="http://www.w3.org/1999/xlink" width="100" height="100">
	<path fill="#6BEFEF" transform="matrix(0.195312 0 0 0.195312 0 -0.000244141)" d="M322.994 122.288Q323.105 120.922 323.279 119.563Q323.452 118.203 323.687 116.853Q323.921 115.503 324.217 114.165Q324.512 112.827 324.868 111.503Q325.224 110.18 325.639 108.874Q326.055 107.568 326.529 106.282Q327.003 104.996 327.535 103.733Q328.066 102.47 328.655 101.233Q329.243 99.9953 329.887 98.7856Q330.531 97.5759 331.229 96.3966Q331.927 95.2173 332.678 94.0709Q333.429 92.9244 334.231 91.8131Q335.033 90.7018 335.884 89.628Q336.735 88.5542 337.635 87.52Q338.534 86.4858 339.479 85.4935Q340.424 84.5011 341.413 83.5525Q342.402 82.6039 343.433 81.7011Q344.464 80.7983 345.535 79.9431Q346.606 79.088 347.714 78.2821Q348.823 77.4763 349.966 76.7215Q351.11 75.9668 352.287 75.2645Q353.464 74.5623 354.671 73.9141Q355.879 73.2659 357.114 72.6731Q358.35 72.0802 359.611 71.5439Q360.872 71.0076 362.156 70.529Q363.44 70.0504 364.745 69.6304Q366.049 69.2104 367.371 68.8499Q368.693 68.4895 370.03 68.1892Q371.368 67.889 372.717 67.6496Q374.066 67.4103 375.425 67.2322Q376.784 67.0542 378.149 66.9379Q379.515 66.8216 380.884 66.7673Q382.253 66.713 383.624 66.7207Q384.994 66.7285 386.363 66.7983Q387.731 66.8681 389.095 66.9998Q390.459 67.1315 391.816 67.3248Q393.173 67.5182 394.519 67.7728Q395.866 68.0273 397.2 68.3427Q398.533 68.658 399.851 69.0333Q401.169 69.4087 402.469 69.8434Q403.768 70.2781 405.047 70.7712Q406.326 71.2643 407.581 71.8148Q408.836 72.3653 410.064 72.9721Q411.293 73.5788 412.493 74.2406Q413.693 74.9024 414.862 75.6179Q416.031 76.3333 417.166 77.101Q418.301 77.8687 419.401 78.687Q420.5 79.5052 421.561 80.3725Q422.622 81.2397 423.643 82.1541Q424.663 83.0685 425.642 84.0282Q426.62 84.9878 427.554 85.9908Q428.488 86.9938 429.375 88.0381Q430.262 89.0824 431.102 90.1657Q431.941 91.2491 432.73 92.3694Q433.52 93.4897 434.257 94.6445Q434.995 95.7994 435.68 96.9865Q436.364 98.1736 436.995 99.3905Q437.625 100.607 438.199 101.852Q438.774 103.096 439.291 104.365Q439.809 105.634 440.268 106.925Q440.728 108.216 441.129 109.526Q441.529 110.837 441.87 112.164Q442.211 113.491 442.491 114.833Q442.772 116.174 442.991 117.527Q443.21 118.88 443.368 120.241Q443.526 121.602 443.622 122.969Q443.718 124.336 443.752 125.706Q443.786 127.076 443.758 128.447Q443.73 129.817 443.64 131.184Q443.55 132.552 443.398 133.913Q443.246 135.275 443.033 136.629Q442.819 137.983 442.545 139.325Q442.27 140.668 441.935 141.997Q441.6 143.326 441.205 144.638Q440.81 145.95 440.357 147.243Q439.903 148.536 439.391 149.808Q438.879 151.079 438.31 152.325Q437.741 153.572 437.116 154.792Q436.491 156.011 435.811 157.202Q435.132 158.392 434.399 159.55Q433.666 160.708 432.882 161.831Q432.098 162.955 431.263 164.042Q430.429 165.129 429.546 166.177Q428.663 167.226 427.733 168.233Q426.804 169.24 425.83 170.204Q424.856 171.168 423.839 172.086Q422.822 173.005 421.765 173.877Q420.708 174.749 419.612 175.572Q418.516 176.395 417.385 177.168Q416.253 177.94 415.087 178.661Q413.921 179.382 412.724 180.049Q411.527 180.716 410.301 181.328Q409.075 181.94 407.822 182.496Q406.57 183.052 405.293 183.55Q404.017 184.049 402.719 184.49Q401.421 184.93 400.105 185.311C400.313 191.515 400.938 203.229 400.392 209.285L372.901 209.275C369.379 209.271 364.85 208.794 361.431 209.285C354.208 210 353.547 215.324 353.932 221.511L353.932 288.982C357.074 299.592 389.326 293.911 400.392 294.731L400.392 319.609L400.423 386.641C400.433 389.648 400.701 392.941 400.113 395.892C397.547 408.772 377.9 405.458 368.709 405.457L186.958 405.461C183.522 414.147 178.514 422.541 171.504 428.835C154.774 443.992 129.855 449.227 108.576 441.114C58.1411 421.884 54.0588 350.666 104.009 328.566C105.354 327.742 107.019 327.518 108.426 326.727C108.107 300.011 108.429 273.252 108.426 246.531C107.519 240.162 108.4 228.123 108.419 221.141L108.425 149.771C108.353 130.725 109.907 122.212 131.179 122.229L140.918 122.253L301.941 122.26C308.948 122.26 315.992 122.1 322.994 122.288Z"/>
	<path fill="#0EAEF3" transform="matrix(0.195312 0 0 0.195312 0 -0.000244141)" d="M312.534 288.171C318.598 290.082 345.838 288.87 353.932 288.982C357.074 299.592 389.326 293.911 400.392 294.731L400.392 319.609L400.423 386.641C400.433 389.648 400.701 392.941 400.113 395.892C397.547 408.772 377.9 405.458 368.709 405.457L186.958 405.461C183.522 414.147 178.514 422.541 171.504 428.835C154.774 443.992 129.855 449.227 108.576 441.114C58.1411 421.884 54.0588 350.666 104.009 328.566C105.354 327.742 107.019 327.518 108.426 326.727C114.957 323.773 122.589 322.654 129.705 322.49C131.959 322.364 134.159 322.392 136.413 322.49C140.152 322.424 143.847 321.687 147.598 321.622C153.512 321.521 166.326 322.502 171.504 321.631L171.504 321.631C173.153 319.652 174.514 317.512 176.384 315.72C179.758 319.488 186.978 327.286 191.208 329.57C197.567 328.121 202.922 324.066 208.875 321.631C211.616 322.451 221.75 326.96 224.493 328.566C226.298 335.33 225.408 346.449 234.317 347.619C237.431 348.028 251.344 348.179 254.065 347.421C259.766 345.831 260.233 336.718 261.297 332.003C262.973 324.571 267.807 326.563 274.26 322.49C275.493 322.037 276.841 321.869 278.13 321.631C282.694 322.667 291.684 327.588 297.007 329.57C301.278 326.797 309.529 317.234 313.607 313.083C318.658 307.265 309.881 298.427 306.402 292.839C309.152 290.625 308.22 288.932 312.534 288.171Z"/>
	<path fill="#0CFE90" transform="matrix(0.195312 0 0 0.195312 0 -0.000244141)" d="M129.705 322.49C131.959 322.364 134.159 322.392 136.413 322.49C154.092 325.944 169.928 334.085 180.2 349.374C190.109 364.123 194.741 388.653 186.958 405.461C183.522 414.147 178.514 422.541 171.504 428.835C154.774 443.992 129.855 449.227 108.576 441.114C58.1411 421.884 54.0588 350.666 104.009 328.566C105.354 327.742 107.019 327.518 108.426 326.727C114.957 323.773 122.589 322.654 129.705 322.49Z"/>
	<path fill="#00D876" transform="matrix(0.195312 0 0 0.195312 0 -0.000244141)" d="M171.504 428.835C154.774 443.992 129.855 449.227 108.576 441.114C58.1411 421.884 54.0588 350.666 104.009 328.566C103.922 330.832 97.8283 337.817 96.2959 340.169C83.739 359.439 79.3041 385.018 92.1246 405.461C95.3365 412.781 104.525 418.743 112.002 421.134C127.059 430.162 146.384 432.645 163.546 429.459C165.843 429.032 169.237 427.806 171.504 428.835Z"/>
	<path fill="#EAF8F9" transform="matrix(0.195312 0 0 0.195312 0 -0.000244141)" d="M130.742 388.125C138.611 387.489 149.297 387.521 155.471 392.766C162.498 398.737 164.649 410.53 163.445 419.433C158.906 422.008 153.461 421.154 148.428 421.152L123.316 421.126C119.666 421.12 115.611 420.739 112.002 421.134C104.525 418.743 95.3365 412.781 92.1246 405.461C94.5122 400.692 96.0044 396.022 100.316 392.559C106.528 387.57 119.54 387.286 127.537 388.125C128.618 388.174 129.66 388.209 130.742 388.125Z"/>
	<path fill="#EFD8BC" transform="matrix(0.195312 0 0 0.195312 0 -0.000244141)" d="M124.728 349.184C145.017 345.134 156.637 374.041 139.255 384.193C127.172 380.584 120.688 368.766 123.098 356.318C123.559 353.934 124.802 351.656 124.728 349.184Z"/>
	<path fill="#F6BE8A" transform="matrix(0.195312 0 0 0.195312 0 -0.000244141)" d="M127.537 388.125C124.488 386.904 121.156 386.364 118.266 384.764C103.294 376.471 106.134 354.047 124.728 349.184C124.802 351.656 123.559 353.934 123.098 356.318C120.688 368.766 127.172 380.584 139.255 384.193C136.58 385.907 133.368 386.463 130.742 388.125C129.66 388.209 128.618 388.174 127.537 388.125Z"/>
	<path fill="#2DD1F6" transform="matrix(0.195312 0 0 0.195312 0 -0.000244141)" d="M312.534 288.171C318.598 290.082 345.838 288.87 353.932 288.982C357.074 299.592 389.326 293.911 400.392 294.731L400.392 319.609L333.636 319.602C330.684 319.595 318.678 320.05 316.843 319.595L316.689 318.914C315.961 316.806 314.825 314.938 313.607 313.083C318.658 307.265 309.881 298.427 306.402 292.839C309.152 290.625 308.22 288.932 312.534 288.171Z"/>
	<path fill="#0994E0" transform="matrix(0.195312 0 0 0.195312 0 -0.000244141)" d="M313.607 313.083C314.825 314.938 315.961 316.806 316.689 318.914C315.934 321.678 300.898 337.469 298.042 339.139C293.633 341.717 283.983 333.924 279.245 332.274C274.447 333.723 269.211 336.446 264.188 338.214C263.393 341.688 261.089 354.899 258.519 356.506C254.324 359.127 234.384 358.394 230.268 357.306C224.501 355.782 222.903 342.194 222.657 337.436C217.455 336.414 212.569 334.698 207.855 332.274C203.486 334.25 194.343 340.791 189.751 339.186C187.261 338.315 174.096 324.524 171.504 321.631L171.504 321.631C173.153 319.652 174.514 317.512 176.384 315.72C179.758 319.488 186.978 327.286 191.208 329.57C197.567 328.121 202.922 324.066 208.875 321.631C211.616 322.451 221.75 326.96 224.493 328.566C226.298 335.33 225.408 346.449 234.317 347.619C237.431 348.028 251.344 348.179 254.065 347.421C259.766 345.831 260.233 336.718 261.297 332.003C262.973 324.571 267.807 326.563 274.26 322.49C275.493 322.037 276.841 321.869 278.13 321.631C282.694 322.667 291.684 327.588 297.007 329.57C301.278 326.797 309.529 317.234 313.607 313.083Z"/>
	<path fill="#EAF8F9" transform="matrix(0.195312 0 0 0.195312 0 -0.000244141)" d="M333.638 367.98C337.705 367.8 360.191 367.538 362.623 368.508C366.866 370.2 364.78 375.643 361.431 377.179C355.571 377.594 330.792 378.782 329.613 373.794C328.932 370.911 330.965 368.575 333.638 367.98Z"/>
	<path fill="#EAF8F9" transform="matrix(0.195312 0 0 0.195312 0 -0.000244141)" d="M304.162 367.98C309.227 367.911 314.298 368.033 319.366 367.98C323.269 372.698 321.55 376.496 315.812 377.179C311.143 376.538 303.715 378.297 299.756 375.427C296.005 372.708 299.197 368.421 304.162 367.98Z"/>
	<path fill="#FEC63C" transform="matrix(0.195312 0 0 0.195312 0 -0.000244141)" d="M228.988 169.243C233.075 168.93 254.726 168.392 257.164 170.536C261.066 173.968 261.609 185.525 264.188 190.73C268.667 192.949 273.551 194.514 278.13 196.629L278.398 196.51C282.67 194.57 294.105 186.592 298.249 188.01C302.079 189.321 312.889 201.46 314.554 205.253C316.705 210.153 310.446 217.357 308.396 221.511C323.536 221.066 338.775 221.658 353.932 221.511L353.932 288.982C345.838 288.87 318.598 290.082 312.534 288.171C308.22 288.932 309.152 290.625 306.402 292.839C309.881 298.427 318.658 307.265 313.607 313.083C309.529 317.234 301.278 326.797 297.007 329.57C291.684 327.588 282.694 322.667 278.13 321.631C276.841 321.869 275.493 322.037 274.26 322.49C267.807 326.563 262.973 324.571 261.297 332.003C260.233 336.718 259.766 345.831 254.065 347.421C251.344 348.179 237.431 348.028 234.317 347.619C225.408 346.449 226.298 335.33 224.493 328.566C221.75 326.96 211.616 322.451 208.875 321.631C202.922 324.066 197.567 328.121 191.208 329.57C186.978 327.286 179.758 319.488 176.384 315.72C174.514 317.512 173.153 319.652 171.504 321.631L171.504 321.631C166.326 322.502 153.512 321.521 147.598 321.622C143.847 321.687 140.152 322.424 136.413 322.49C134.159 322.392 131.959 322.364 129.705 322.49C122.589 322.654 114.957 323.773 108.426 326.727C108.107 300.011 108.429 273.252 108.426 246.531C108.598 244.076 108.456 241.53 108.452 239.064L108.426 224.242C115.489 223.993 122.633 224.23 129.705 224.242L132.63 224.242C148.001 224.243 163.41 223.998 178.776 224.242C167.666 209.234 165.614 211.926 177.586 198.003C191.42 181.916 188.553 183.666 206.784 196.629C212.185 195.279 217.08 192.093 222.657 190.73C224.928 184.011 224.455 174.877 228.988 169.243Z"/>
	<path fill="#FE7D14" transform="matrix(0.195312 0 0 0.195312 0 -0.000244141)" d="M178.776 224.242C167.666 209.234 165.614 211.926 177.586 198.003C191.42 181.916 188.553 183.666 206.784 196.629C204.446 198.89 195.185 215.055 194.09 218.158C190.311 228.876 192.131 242.26 197.546 252.043C196.911 258.44 197.25 264.787 198.804 271.039C198.121 275.448 203.702 287.125 206.856 291.462C225.259 316.764 260.831 320.769 287.273 306.347C290.087 304.812 292.661 302.902 295.378 301.208C289.969 308.15 276.773 318.327 274.26 322.49C267.807 326.563 262.973 324.571 261.297 332.003C260.233 336.718 259.766 345.831 254.065 347.421C251.344 348.179 237.431 348.028 234.317 347.619C225.408 346.449 226.298 335.33 224.493 328.566C221.75 326.96 211.616 322.451 208.875 321.631C202.922 324.066 197.567 328.121 191.208 329.57C186.978 327.286 179.758 319.488 176.384 315.72C174.514 317.512 173.153 319.652 171.504 321.631L171.504 321.631C166.326 322.502 153.512 321.521 147.598 321.622C143.847 321.687 140.152 322.424 136.413 322.49C134.159 322.392 131.959 322.364 129.705 322.49C122.589 322.654 114.957 323.773 108.426 326.727C108.107 300.011 108.429 273.252 108.426 246.531C108.598 244.076 108.456 241.53 108.452 239.064L108.426 224.242C115.489 223.993 122.633 224.23 129.705 224.242L132.63 224.242C148.001 224.243 163.41 223.998 178.776 224.242Z"/>
	<path fill="#0EAEF3" transform="matrix(0.195312 0 0 0.195312 0 -0.000244141)" d="M108.426 224.242C115.489 223.993 122.633 224.23 129.705 224.242L132.63 224.242C148.001 224.243 163.41 223.998 178.776 224.242C181.73 227.052 176.309 236.013 175.553 241.776C171.055 241.561 160.243 241.837 156.808 244.874C153.485 247.811 154.652 267.249 155.941 270.18C154.129 272.654 154.856 277.309 155.941 280.077C164.304 287.677 170.811 276.469 176.384 290.515C177.012 292.08 177.528 293.54 178.776 294.731L178.523 295.123C174.552 301.227 166.922 304.88 172.468 311.869C173.764 313.163 175.057 314.458 176.384 315.72C174.514 317.512 173.153 319.652 171.504 321.631L171.504 321.631C166.326 322.502 153.512 321.521 147.598 321.622C143.847 321.687 140.152 322.424 136.413 322.49C134.159 322.392 131.959 322.364 129.705 322.49C122.589 322.654 114.957 323.773 108.426 326.727C108.107 300.011 108.429 273.252 108.426 246.531C108.598 244.076 108.456 241.53 108.452 239.064L108.426 224.242Z"/>
	<path fill="#0994E0" transform="matrix(0.195312 0 0 0.195312 0 -0.000244141)" d="M108.426 224.242C115.489 223.993 122.633 224.23 129.705 224.242L129.703 267.539C129.687 275.178 129.31 282.886 129.705 290.515L129.69 311.526C129.686 315.16 129.492 318.868 129.705 322.49C122.589 322.654 114.957 323.773 108.426 326.727C108.107 300.011 108.429 273.252 108.426 246.531C108.598 244.076 108.456 241.53 108.452 239.064L108.426 224.242Z"/>
	<path fill="#2DD1F6" transform="matrix(0.195312 0 0 0.195312 0 -0.000244141)" d="M129.705 290.515L176.384 290.515C177.012 292.08 177.528 293.54 178.776 294.731L178.523 295.123C174.552 301.227 166.922 304.88 172.468 311.869C173.764 313.163 175.057 314.458 176.384 315.72C174.514 317.512 173.153 319.652 171.504 321.631L171.504 321.631C166.326 322.502 153.512 321.521 147.598 321.622C143.847 321.687 140.152 322.424 136.413 322.49C134.159 322.392 131.959 322.364 129.705 322.49C129.492 318.868 129.686 315.16 129.69 311.526L129.705 290.515Z"/>
	<path fill="#0EAEF3" transform="matrix(0.195312 0 0 0.195312 0 -0.000244141)" d="M172.468 311.869C173.764 313.163 175.057 314.458 176.384 315.72C174.514 317.512 173.153 319.652 171.504 321.631C170.341 320.322 169.527 318.621 168.796 317.041C169.562 314.788 170.623 313.33 172.468 311.869Z"/>
	<path fill="#0994E0" transform="matrix(0.195312 0 0 0.195312 0 -0.000244141)" d="M155.941 270.18C159.606 275.671 169.8 274.285 175.553 275.218C177.312 280.467 179.358 285.591 181.895 290.515C180.931 291.997 179.896 293.364 178.776 294.731C177.528 293.54 177.012 292.08 176.384 290.515C170.811 276.469 164.304 287.677 155.941 280.077C154.856 277.309 154.129 272.654 155.941 270.18Z"/>
	<path fill="#0EAEF3" transform="matrix(0.195312 0 0 0.195312 0 -0.000244141)" d="M197.546 252.043C202.998 225.655 226.255 207.443 253.504 213.158C289.155 220.636 302.286 260.952 279.245 289.463C265.73 307.511 236.958 309.564 218.604 297.511C215.999 295.801 209.545 291.356 208.875 288.171C203.148 282.064 202.222 278.155 198.975 271.391L198.804 271.039C197.25 264.787 196.911 258.44 197.546 252.043Z"/>
	<path fill="#FD545D" transform="matrix(0.195312 0 0 0.195312 0 -0.000244141)" d="M236.283 265.999C238.651 264.707 244.16 265.193 246.69 265.999C262.608 266.421 276.802 270.89 279.245 289.463C265.73 307.511 236.958 309.564 218.604 297.511C215.999 295.801 209.545 291.356 208.875 288.171C214.41 275.109 218.927 265.078 236.283 265.999Z"/>
	<path fill="#F6BE8A" transform="matrix(0.195312 0 0 0.195312 0 -0.000244141)" d="M236.283 265.999C232.732 260.46 225.726 260.262 223.446 249.422C221.037 237.971 228.714 227.886 239.796 225.566C239.776 227.92 238.409 229.852 237.691 232.021C234.471 241.749 240.352 253.225 249.995 256.535C251.705 257.122 255.788 257.296 256.944 258.529C253.791 262.308 250.49 263.293 246.69 265.999C244.16 265.193 238.651 264.707 236.283 265.999Z"/>
	<path fill="#EFD8BC" transform="matrix(0.195312 0 0 0.195312 0 -0.000244141)" d="M239.796 225.566C257.736 221.821 267.759 245.216 256.944 258.529C255.788 257.296 251.705 257.122 249.995 256.535C240.352 253.225 234.471 241.749 237.691 232.021C238.409 229.852 239.776 227.92 239.796 225.566Z"/>
	<path fill="#0EAEF3" transform="matrix(0.195312 0 0 0.195312 0 -0.000244141)" d="M308.396 221.511C323.536 221.066 338.775 221.658 353.932 221.511L353.932 288.982C345.838 288.87 318.598 290.082 312.534 288.171C317.298 286.385 337.877 283.622 327.272 272.862C332.186 269.803 330.369 249.096 329.067 245.144C325.3 241.949 315.153 240.689 310.065 239.751C309.115 234.942 307.247 230.365 306.402 225.566C306.991 224.082 307.472 222.834 308.396 221.511Z"/>
	<path fill="#0994E0" transform="matrix(0.195312 0 0 0.195312 0 -0.000244141)" d="M310.065 277.407C315.048 274.986 321.842 274.725 327.272 272.862C337.877 283.622 317.298 286.385 312.534 288.171C308.22 288.932 309.152 290.625 306.402 292.839C305.858 292.125 305.484 291.312 305.08 290.515C306.363 286.082 308.353 281.7 310.065 277.407Z"/>
	<defs>
		<linearGradient id="gradient_0" gradientUnits="userSpaceOnUse" x1="345.66776" y1="174.48509" x2="420.68521" y2="80.394279">
			<stop offset="0" stop-color="#7177FA"/>
			<stop offset="1" stop-color="#96A3F7"/>
		</linearGradient>
	</defs>
	<path fill="url(#gradient_0)" transform="matrix(0.195312 0 0 0.195312 0 -0.000244141)" d="M322.994 122.288Q323.105 120.922 323.279 119.563Q323.452 118.203 323.687 116.853Q323.921 115.503 324.217 114.165Q324.512 112.827 324.868 111.503Q325.224 110.18 325.639 108.874Q326.055 107.568 326.529 106.282Q327.003 104.996 327.535 103.733Q328.066 102.47 328.655 101.233Q329.243 99.9953 329.887 98.7856Q330.531 97.5759 331.229 96.3966Q331.927 95.2173 332.678 94.0709Q333.429 92.9244 334.231 91.8131Q335.033 90.7018 335.884 89.628Q336.735 88.5542 337.635 87.52Q338.534 86.4858 339.479 85.4935Q340.424 84.5011 341.413 83.5525Q342.402 82.6039 343.433 81.7011Q344.464 80.7983 345.535 79.9431Q346.606 79.088 347.714 78.2821Q348.823 77.4763 349.966 76.7215Q351.11 75.9668 352.287 75.2645Q353.464 74.5623 354.671 73.9141Q355.879 73.2659 357.114 72.6731Q358.35 72.0802 359.611 71.5439Q360.872 71.0076 362.156 70.529Q363.44 70.0504 364.745 69.6304Q366.049 69.2104 367.371 68.8499Q368.693 68.4895 370.03 68.1892Q371.368 67.889 372.717 67.6496Q374.066 67.4103 375.425 67.2322Q376.784 67.0542 378.149 66.9379Q379.515 66.8216 380.884 66.7673Q382.253 66.713 383.624 66.7207Q384.994 66.7285 386.363 66.7983Q387.731 66.8681 389.095 66.9998Q390.459 67.1315 391.816 67.3248Q393.173 67.5182 394.519 67.7728Q395.866 68.0273 397.2 68.3427Q398.533 68.658 399.851 69.0333Q401.169 69.4087 402.469 69.8434Q403.768 70.2781 405.047 70.7712Q406.326 71.2643 407.581 71.8148Q408.836 72.3653 410.064 72.9721Q411.293 73.5788 412.493 74.2406Q413.693 74.9024 414.862 75.6179Q416.031 76.3333 417.166 77.101Q418.301 77.8687 419.401 78.687Q420.5 79.5052 421.561 80.3725Q422.622 81.2397 423.643 82.1541Q424.663 83.0685 425.642 84.0282Q426.62 84.9878 427.554 85.9908Q428.488 86.9938 429.375 88.0381Q430.262 89.0824 431.102 90.1657Q431.941 91.2491 432.73 92.3694Q433.52 93.4897 434.257 94.6445Q434.995 95.7994 435.68 96.9865Q436.364 98.1736 436.995 99.3905Q437.625 100.607 438.199 101.852Q438.774 103.096 439.291 104.365Q439.809 105.634 440.268 106.925Q440.728 108.216 441.129 109.526Q441.529 110.837 441.87 112.164Q442.211 113.491 442.491 114.833Q442.772 116.174 442.991 117.527Q443.21 118.88 443.368 120.241Q443.526 121.602 443.622 122.969Q443.718 124.336 443.752 125.706Q443.786 127.076 443.758 128.447Q443.73 129.817 443.64 131.184Q443.55 132.552 443.398 133.913Q443.246 135.275 443.033 136.629Q442.819 137.983 442.545 139.325Q442.27 140.668 441.935 141.997Q441.6 143.326 441.205 144.638Q440.81 145.95 440.357 147.243Q439.903 148.536 439.391 149.808Q438.879 151.079 438.31 152.325Q437.741 153.572 437.116 154.792Q436.491 156.011 435.811 157.202Q435.132 158.392 434.399 159.55Q433.666 160.708 432.882 161.831Q432.098 162.955 431.263 164.042Q430.429 165.129 429.546 166.177Q428.663 167.226 427.733 168.233Q426.804 169.24 425.83 170.204Q424.856 171.168 423.839 172.086Q422.822 173.005 421.765 173.877Q420.708 174.749 419.612 175.572Q418.516 176.395 417.385 177.168Q416.253 177.94 415.087 178.661Q413.921 179.382 412.724 180.049Q411.527 180.716 410.301 181.328Q409.075 181.94 407.822 182.496Q406.57 183.052 405.293 183.55Q404.017 184.049 402.719 184.49Q401.421 184.93 400.105 185.311Q399.227 185.565 398.342 185.793Q397.456 186.02 396.565 186.221Q395.673 186.422 394.776 186.595Q393.878 186.769 392.976 186.916Q392.074 187.062 391.167 187.181Q390.261 187.3 389.352 187.392Q388.442 187.484 387.531 187.548Q386.619 187.612 385.706 187.649Q384.792 187.686 383.878 187.695Q382.964 187.704 382.05 187.685Q381.136 187.666 380.224 187.62Q379.311 187.574 378.4 187.5Q377.489 187.426 376.58 187.325Q375.672 187.224 374.767 187.095Q373.862 186.967 372.961 186.811Q372.06 186.655 371.165 186.472Q370.269 186.288 369.38 186.078Q368.49 185.868 367.607 185.631Q366.725 185.395 365.849 185.131Q364.974 184.868 364.107 184.578Q363.24 184.288 362.383 183.972Q361.525 183.657 360.677 183.315Q359.829 182.973 358.992 182.606Q358.155 182.239 357.329 181.847Q356.504 181.455 355.69 181.038Q354.877 180.621 354.076 180.18Q353.276 179.739 352.489 179.273Q351.702 178.808 350.93 178.319Q350.158 177.83 349.4 177.318Q348.643 176.806 347.902 176.272Q347.16 175.737 346.436 175.18Q345.711 174.623 345.003 174.045Q344.295 173.467 343.605 172.867Q342.915 172.267 342.244 171.647Q341.572 171.027 340.92 170.387Q340.267 169.747 339.635 169.087Q339.002 168.428 338.389 167.749Q337.776 167.071 337.185 166.374Q336.593 165.678 336.022 164.964Q335.452 164.249 334.903 163.518Q334.354 162.787 333.828 162.04Q333.302 161.293 332.798 160.53Q332.295 159.767 331.815 158.989Q331.334 158.212 330.878 157.42Q330.421 156.628 329.989 155.822Q329.557 155.017 329.149 154.199Q328.741 153.381 328.358 152.551Q327.975 151.721 327.617 150.88Q327.26 150.039 326.927 149.187Q326.595 148.336 326.289 147.474Q325.983 146.613 325.703 145.743Q325.423 144.873 325.169 143.995Q324.915 143.117 324.688 142.231Q324.461 141.346 324.261 140.454Q324.061 139.562 323.888 138.665Q323.715 137.767 323.569 136.865Q323.423 135.962 323.305 135.056Q323.186 134.15 323.095 133.24Q323.004 132.331 322.94 131.419Q322.877 130.507 322.841 129.594Q322.804 128.68 322.796 127.766Q322.788 126.852 322.807 125.939Q322.826 125.025 322.873 124.112Q322.92 123.199 322.994 122.288Z"/>
	<path fill="#FEC63C" transform="matrix(0.195312 0 0 0.195312 0 -0.000244141)" d="M395.738 126.338C404.783 129.64 413.743 132.616 418.044 141.992C421.544 149.621 422.645 158.336 411.968 158.604C399.293 158.923 386.532 158.627 373.848 158.629L359.309 158.634C354.478 158.638 348.137 159.843 346.599 153.613C345.567 149.43 348.201 143.13 350.421 139.598C355.941 130.817 363.562 130.481 371.725 126.338C378.343 130.344 384.655 131.157 391.72 128.149L395.738 126.338Z"/>
	<path fill="#2C4394" transform="matrix(0.195312 0 0 0.195312 0 -0.000244141)" d="M376.494 88.7842C396.519 81.0155 417.559 106.955 395.738 126.338L391.72 128.149C384.655 131.157 378.343 130.344 371.725 126.338C358.143 115.623 359.295 95.5469 376.494 88.7842Z"/>
	<path fill="#EAF8F9" transform="matrix(0.195312 0 0 0.195312 0 -0.000244141)" d="M142.311 152.51C154.452 152.513 166.641 152.263 178.776 152.51C189.573 165.429 164.839 162.212 159.19 162.184L149.536 162.184C149.531 165.976 150.414 179.495 148.02 181.556C146.351 182.991 142.113 182.594 140.876 180.705C140.346 179.895 137.238 153.161 142.311 152.51Z"/>
	<path fill="#FD545D" transform="matrix(0.195312 0 0 0.195312 0 -0.000244141)" d="M400.392 209.285L427.046 209.267C439.896 209.26 446.237 205.983 446.228 221.573L446.222 265.295C446.225 270.188 446.566 275.199 446.214 280.077C446.636 297.459 441.757 294.749 427.788 294.743L400.392 294.731C389.326 293.911 357.074 299.592 353.932 288.982L353.932 221.511C353.547 215.324 354.208 210 361.431 209.285C364.85 208.794 369.379 209.271 372.901 209.275L400.392 209.285ZM370.929 267.697C374.917 270.743 388.204 269.377 393.221 269.378L427.083 269.369C435.12 258.976 418.865 260.791 413.407 260.786L381.803 260.789C378.423 260.795 373.719 259.931 370.929 262.213C370.304 264.226 370.407 265.331 370.85 267.327L370.929 267.697Z"/>
	<path fill="#F8222A" transform="matrix(0.195312 0 0 0.195312 0 -0.000244141)" d="M353.932 221.511C353.547 215.324 354.208 210 361.431 209.285L361.676 209.306C365.421 209.598 373.454 208.404 376.549 209.929L376.761 210.334C376.097 211.758 374.659 212.609 373.938 213.994C371.857 217.992 372.135 222.961 371.725 227.343C371.189 228.298 370.683 229.207 370.304 230.24C370.513 231.042 370.842 231.932 370.929 232.75C370.854 236.897 371.164 240.974 370.929 245.144C370.443 246.886 370.541 248.114 370.929 249.864C370.901 253.864 370.546 258.244 370.929 262.213C370.304 264.226 370.407 265.331 370.85 267.327L370.929 267.697C370.817 277.578 373.1 284.64 384.209 284.759C392.748 284.85 435.264 285.732 440.691 284.134C442.847 283.499 444.213 281.11 446.214 280.077C446.636 297.459 441.757 294.749 427.788 294.743L400.392 294.731C389.326 293.911 357.074 299.592 353.932 288.982L353.932 221.511Z"/>
	<path fill="#EAF8F9" transform="matrix(0.195312 0 0 0.195312 0 -0.000244141)" d="M371.725 227.343C374.831 224.63 385.391 226.096 389.672 226.095L411.131 226.1C414.191 226.102 425.544 225.15 427.673 227.519C429.091 229.096 429.725 232.324 427.851 233.826C425.516 235.697 419.389 234.707 416.602 234.71L384.776 234.735C381.002 234.735 373.867 235.717 370.929 232.75C370.842 231.932 370.513 231.042 370.304 230.24C370.683 229.207 371.189 228.298 371.725 227.343Z"/>
	<path fill="#EAF8F9" transform="matrix(0.195312 0 0 0.195312 0 -0.000244141)" d="M370.929 245.144C374.166 242.686 378.519 243.64 382.385 243.634L416.59 243.637C419.527 243.639 422.754 243.413 425.663 243.786C428.989 244.213 430.377 249.589 427.372 251.323C424.986 252.701 421.043 252.035 418.419 252.027L405.417 252.029C399.109 252.035 375.302 253.897 370.929 249.864C370.541 248.114 370.443 246.886 370.929 245.144Z"/>
</svg>
