<?xml version="1.0" encoding="utf-8" ?>
<svg xmlns="http://www.w3.org/2000/svg" xmlns:xlink="http://www.w3.org/1999/xlink" width="100" height="100">
	<path fill="#335C92" transform="matrix(0.195312 0 0 0.195312 0.00195312 -0.000244141)" d="M73.2446 377.118L73.2105 127.652C73.1458 114.425 76.3151 104.848 91.6107 104.744L411.502 104.741C415.493 104.741 419.71 104.466 423.673 104.856C438.246 106.288 439.798 119.469 439.771 130.707L439.752 372.197C439.834 373.844 439.803 375.47 439.752 377.118L462.246 377.118C462.395 391.82 458.625 401.646 441.888 401.777L77.3303 401.775C56.2756 401.777 49.1972 399.8 49.2462 377.118C57.2414 377.244 65.2478 377.105 73.2446 377.118Z"/>
	<path fill="#4D94D9" transform="matrix(0.195312 0 0 0.195312 0.00195312 -0.000244141)" d="M439.752 372.197C439.834 373.844 439.803 375.47 439.752 377.118L462.246 377.118C462.395 391.82 458.625 401.646 441.888 401.777L77.3303 401.775C56.2756 401.777 49.1972 399.8 49.2462 377.118C57.2414 377.244 65.2478 377.105 73.2446 377.118L399.26 377.118C412.743 377.117 426.277 376.835 439.752 377.118C439.715 375.474 439.713 373.841 439.752 372.197Z"/>
	<path fill="#335C92" transform="matrix(0.195312 0 0 0.195312 0.00195312 -0.000244141)" d="M227.998 380.711L284.889 380.711C290.112 383.719 290.459 391.207 283.681 392.581L247.41 392.591C241.634 392.592 219.279 395.944 223.73 384.167C224.38 382.446 226.431 381.442 227.998 380.711Z"/>
	<path fill="#FEFEFE" transform="matrix(0.195312 0 0 0.195312 0.00195312 -0.000244141)" d="M83.7725 151.234L83.7462 131.467C83.7306 114.137 83.413 115.328 99.7573 115.33L395.66 115.342C404.087 115.34 412.61 115.049 421.027 115.336C430.686 115.664 429.29 125.299 429.28 132.168C429.27 138.947 429.075 145.775 429.262 152.547L429.262 356.526L429.262 366.767L83.7725 366.767L83.7725 331.607C83.5031 325.091 83.7697 318.439 83.7699 311.912L83.7725 151.234Z"/>
	<path fill="#A0BFE1" transform="matrix(0.195312 0 0 0.195312 0.00195312 -0.000244141)" d="M83.7725 151.234L83.7462 131.467C83.7306 114.137 83.413 115.328 99.7573 115.33L395.66 115.342C404.087 115.34 412.61 115.049 421.027 115.336C430.686 115.664 429.29 125.299 429.28 132.168C429.27 138.947 429.075 145.775 429.262 152.547L428.918 151.406C426.661 150.757 411.731 151.222 408.613 151.225L83.7725 151.234Z"/>
	<path fill="#4D94D9" transform="matrix(0.195312 0 0 0.195312 0.00195312 -0.000244141)" d="M407.204 126.312Q407.371 126.269 407.539 126.234Q407.708 126.199 407.878 126.173Q408.048 126.147 408.219 126.129Q408.39 126.11 408.562 126.101Q408.734 126.091 408.906 126.09Q409.078 126.089 409.25 126.096Q409.422 126.104 409.593 126.12Q409.764 126.135 409.935 126.16Q410.105 126.184 410.274 126.216Q410.443 126.249 410.61 126.29Q410.777 126.331 410.942 126.38Q411.107 126.429 411.269 126.486Q411.432 126.543 411.591 126.608Q411.75 126.673 411.906 126.746Q412.062 126.819 412.214 126.899Q412.366 126.98 412.514 127.067Q412.662 127.155 412.806 127.25Q412.949 127.345 413.088 127.447Q413.227 127.549 413.36 127.657Q413.494 127.766 413.622 127.881Q413.75 127.996 413.872 128.117Q413.994 128.239 414.11 128.366Q414.226 128.493 414.335 128.625Q414.445 128.758 414.548 128.896Q414.651 129.034 414.747 129.176Q414.843 129.319 414.932 129.467Q415.021 129.614 415.102 129.765Q415.184 129.917 415.258 130.072Q415.332 130.228 415.398 130.386Q415.464 130.545 415.523 130.707Q415.581 130.869 415.632 131.034Q415.682 131.198 415.724 131.365Q415.766 131.532 415.8 131.701Q415.834 131.869 415.859 132.039Q415.885 132.21 415.902 132.381Q415.919 132.552 415.928 132.724Q415.937 132.896 415.937 133.068Q415.937 133.24 415.929 133.412Q415.92 133.584 415.904 133.755Q415.887 133.926 415.862 134.097Q415.837 134.267 415.803 134.436Q415.77 134.604 415.728 134.771Q415.686 134.938 415.636 135.103Q415.586 135.268 415.528 135.43Q415.47 135.592 415.404 135.751Q415.338 135.91 415.265 136.065Q415.191 136.221 415.11 136.372Q415.029 136.524 414.94 136.672Q414.852 136.819 414.756 136.962Q414.66 137.105 414.557 137.243Q414.455 137.381 414.346 137.514Q414.236 137.647 414.12 137.774Q414.005 137.902 413.883 138.023Q413.761 138.145 413.633 138.26Q413.506 138.375 413.372 138.484Q413.239 138.593 413.101 138.695Q412.962 138.798 412.819 138.893Q412.676 138.988 412.528 139.076Q412.38 139.164 412.228 139.245Q412.076 139.326 411.92 139.399Q411.765 139.472 411.605 139.538Q411.446 139.603 411.284 139.66Q411.122 139.718 410.957 139.767Q410.792 139.817 410.625 139.858Q410.459 139.899 410.291 139.932Q410.124 139.965 409.954 139.989Q409.785 140.014 409.615 140.03Q409.445 140.046 409.274 140.054Q409.104 140.062 408.933 140.061Q408.762 140.061 408.591 140.052Q408.421 140.043 408.25 140.026Q408.08 140.009 407.911 139.984Q407.742 139.958 407.575 139.925Q407.407 139.891 407.242 139.849Q407.076 139.807 406.912 139.757Q406.749 139.707 406.588 139.65Q406.427 139.592 406.27 139.526Q406.112 139.461 405.957 139.387Q405.803 139.314 405.652 139.233Q405.502 139.153 405.355 139.065Q405.209 138.977 405.067 138.882Q404.924 138.787 404.787 138.685Q404.65 138.583 404.518 138.474Q404.386 138.366 404.259 138.251Q404.133 138.136 404.012 138.016Q403.891 137.895 403.776 137.768Q403.661 137.642 403.553 137.51Q403.444 137.377 403.343 137.24Q403.241 137.103 403.146 136.961Q403.051 136.819 402.963 136.672Q402.875 136.526 402.794 136.375Q402.713 136.225 402.64 136.07Q402.567 135.916 402.501 135.758Q402.435 135.6 402.378 135.439Q402.32 135.279 402.27 135.115Q402.22 134.952 402.178 134.786Q402.136 134.62 402.102 134.453Q402.069 134.285 402.043 134.116Q402.018 133.947 402.001 133.777Q401.984 133.607 401.975 133.436Q401.966 133.266 401.965 133.095Q401.965 132.924 401.973 132.753Q401.981 132.583 401.997 132.413Q402.013 132.242 402.038 132.073Q402.062 131.904 402.095 131.736Q402.128 131.569 402.169 131.403Q402.21 131.237 402.259 131.073Q402.308 130.909 402.365 130.748Q402.422 130.587 402.486 130.429Q402.551 130.271 402.623 130.116Q402.696 129.961 402.776 129.81Q402.856 129.659 402.943 129.512Q403.03 129.365 403.124 129.223Q403.219 129.08 403.32 128.942Q403.421 128.805 403.529 128.672Q403.636 128.539 403.75 128.412Q403.864 128.285 403.985 128.163Q404.105 128.042 404.231 127.926Q404.357 127.811 404.488 127.702Q404.62 127.592 404.756 127.49Q404.893 127.387 405.034 127.291Q405.176 127.196 405.322 127.107Q405.468 127.018 405.618 126.936Q405.768 126.855 405.922 126.781Q406.076 126.707 406.234 126.64Q406.391 126.574 406.552 126.515Q406.712 126.456 406.875 126.406Q407.039 126.355 407.204 126.312Z"/>
	<path fill="#4D94D9" transform="matrix(0.195312 0 0 0.195312 0.00195312 -0.000244141)" d="M361.286 126.269Q361.655 126.208 362.028 126.187Q362.402 126.165 362.775 126.184Q363.148 126.203 363.518 126.262Q363.887 126.32 364.248 126.418Q364.609 126.515 364.958 126.651Q365.306 126.787 365.638 126.959Q365.97 127.131 366.282 127.338Q366.593 127.544 366.881 127.783Q367.169 128.022 367.43 128.29Q367.69 128.558 367.921 128.852Q368.151 129.147 368.349 129.464Q368.547 129.782 368.709 130.118Q368.872 130.455 368.998 130.807Q369.124 131.159 369.211 131.523Q369.299 131.886 369.347 132.257Q369.395 132.628 369.403 133.002Q369.406 133.155 369.403 133.308Q369.4 133.462 369.39 133.614Q369.379 133.767 369.363 133.92Q369.346 134.072 369.322 134.223Q369.299 134.375 369.269 134.525Q369.239 134.675 369.202 134.824Q369.166 134.973 369.122 135.12Q369.079 135.267 369.03 135.412Q368.98 135.557 368.924 135.7Q368.868 135.842 368.806 135.982Q368.744 136.123 368.676 136.26Q368.608 136.397 368.534 136.531Q368.46 136.665 368.38 136.796Q368.3 136.927 368.214 137.054Q368.129 137.181 368.038 137.304Q367.947 137.427 367.85 137.546Q367.754 137.666 367.652 137.78Q367.551 137.895 367.444 138.005Q367.338 138.115 367.227 138.221Q367.115 138.326 367 138.427Q366.884 138.527 366.764 138.622Q366.644 138.718 366.52 138.808Q366.396 138.897 366.268 138.982Q366.14 139.066 366.008 139.145Q365.877 139.223 365.742 139.296Q365.607 139.369 365.469 139.436Q365.331 139.503 365.191 139.564Q365.05 139.624 364.907 139.679Q364.764 139.733 364.618 139.781Q364.473 139.83 364.325 139.871Q364.178 139.913 364.029 139.948Q363.88 139.983 363.729 140.012Q362.976 140.155 362.209 140.131Q361.443 140.108 360.7 139.918Q360.412 139.844 360.13 139.747Q359.849 139.649 359.577 139.527Q359.306 139.406 359.045 139.262Q358.785 139.118 358.537 138.952Q358.29 138.786 358.058 138.6Q357.826 138.414 357.61 138.208Q357.395 138.003 357.197 137.78Q357 137.557 356.823 137.318Q356.645 137.079 356.488 136.826Q356.332 136.573 356.197 136.307Q356.063 136.042 355.951 135.766Q355.84 135.49 355.753 135.205Q355.665 134.921 355.602 134.63Q355.539 134.339 355.501 134.044Q355.464 133.748 355.451 133.451Q355.438 133.153 355.451 132.856Q355.464 132.559 355.502 132.263Q355.54 131.968 355.603 131.677Q355.666 131.386 355.754 131.102Q355.841 130.817 355.953 130.541Q356.064 130.265 356.199 129.999Q356.333 129.734 356.49 129.481Q356.647 129.228 356.824 128.989Q357.002 128.75 357.2 128.527Q357.397 128.304 357.613 128.099Q357.828 127.894 358.061 127.708Q358.293 127.522 358.54 127.356Q358.788 127.19 359.048 127.046Q359.309 126.902 359.581 126.781Q359.853 126.66 360.134 126.562Q360.415 126.464 360.704 126.391Q360.992 126.318 361.286 126.269Z"/>
	<path fill="#4D94D9" transform="matrix(0.195312 0 0 0.195312 0.00195312 -0.000244141)" d="M384.163 126.425Q384.387 126.38 384.614 126.349Q384.84 126.319 385.068 126.304Q385.297 126.288 385.525 126.288Q385.754 126.288 385.982 126.303Q386.21 126.317 386.437 126.347Q386.663 126.377 386.888 126.422Q387.112 126.466 387.333 126.526Q387.553 126.585 387.77 126.659Q387.986 126.733 388.197 126.821Q388.408 126.908 388.613 127.01Q388.818 127.112 389.015 127.226Q389.213 127.341 389.403 127.469Q389.592 127.597 389.773 127.737Q389.954 127.876 390.125 128.028Q390.297 128.179 390.457 128.342Q390.618 128.504 390.768 128.677Q390.918 128.85 391.056 129.032Q391.194 129.214 391.32 129.405Q391.446 129.596 391.558 129.795Q391.671 129.993 391.771 130.199Q391.871 130.405 391.956 130.617Q392.042 130.829 392.114 131.046Q392.185 131.263 392.243 131.484Q392.3 131.706 392.342 131.93Q392.385 132.155 392.412 132.382Q392.44 132.609 392.452 132.837Q392.465 133.066 392.462 133.294Q392.46 133.523 392.442 133.751Q392.425 133.979 392.392 134.205Q392.359 134.431 392.312 134.655Q392.265 134.878 392.202 135.098Q392.14 135.319 392.064 135.534Q391.988 135.749 391.897 135.959Q391.807 136.169 391.702 136.373Q391.598 136.576 391.481 136.773Q391.364 136.969 391.234 137.157Q391.104 137.345 390.962 137.524Q390.819 137.703 390.666 137.873Q390.512 138.042 390.348 138.201Q390.183 138.36 390.009 138.507Q389.834 138.655 389.65 138.791Q389.466 138.926 389.274 139.05Q389.081 139.173 388.881 139.284Q388.681 139.394 388.474 139.491Q388.267 139.588 388.054 139.671Q387.841 139.755 387.623 139.824Q387.405 139.892 387.183 139.947Q386.961 140.001 386.736 140.041Q386.57 140.07 386.402 140.091Q386.235 140.113 386.067 140.126Q385.898 140.139 385.73 140.143Q385.561 140.148 385.392 140.145Q385.223 140.141 385.055 140.13Q384.887 140.118 384.719 140.098Q384.552 140.079 384.385 140.051Q384.219 140.023 384.054 139.987Q383.889 139.951 383.726 139.907Q383.563 139.863 383.402 139.811Q383.242 139.759 383.084 139.699Q382.926 139.639 382.771 139.572Q382.616 139.505 382.465 139.43Q382.314 139.355 382.166 139.274Q382.019 139.192 381.875 139.102Q381.732 139.013 381.593 138.917Q381.454 138.821 381.32 138.719Q381.186 138.616 381.057 138.507Q380.929 138.398 380.805 138.283Q380.682 138.168 380.564 138.047Q380.447 137.926 380.335 137.799Q380.223 137.673 380.118 137.541Q380.013 137.409 379.914 137.272Q379.815 137.135 379.723 136.994Q379.631 136.852 379.546 136.706Q379.461 136.561 379.383 136.411Q379.306 136.261 379.235 136.108Q379.165 135.954 379.102 135.798Q379.039 135.641 378.984 135.482Q378.929 135.322 378.881 135.16Q378.834 134.998 378.795 134.834Q378.755 134.67 378.724 134.504Q378.693 134.338 378.669 134.171Q378.646 134.004 378.631 133.836Q378.616 133.668 378.609 133.499Q378.602 133.33 378.604 133.162Q378.605 132.993 378.615 132.824Q378.624 132.656 378.642 132.488Q378.66 132.32 378.686 132.153Q378.712 131.987 378.746 131.821Q378.78 131.656 378.822 131.492Q378.864 131.329 378.914 131.168Q378.964 131.007 379.021 130.848Q379.079 130.689 379.144 130.534Q379.21 130.378 379.283 130.226Q379.355 130.074 379.436 129.925Q379.516 129.777 379.603 129.632Q379.69 129.488 379.785 129.348Q379.879 129.208 379.98 129.073Q380.081 128.937 380.188 128.807Q380.296 128.677 380.409 128.552Q380.523 128.427 380.643 128.308Q380.762 128.189 380.887 128.076Q381.013 127.963 381.143 127.856Q381.274 127.749 381.409 127.649Q381.545 127.548 381.686 127.454Q381.826 127.361 381.971 127.274Q382.115 127.187 382.264 127.108Q382.413 127.028 382.566 126.956Q382.718 126.883 382.874 126.819Q383.03 126.754 383.189 126.697Q383.347 126.64 383.509 126.59Q383.67 126.541 383.834 126.5Q383.998 126.458 384.163 126.425Z"/>
	<path fill="#C6D8E3" transform="matrix(0.195312 0 0 0.195312 0.00195312 -0.000244141)" d="M102.75 336.551L102.743 275.386C102.752 257.79 105.469 259.892 120.755 259.893L289.958 259.904C305.087 259.841 306.532 258.246 306.519 272.949L306.498 336.551C306.733 344.058 307.107 350.044 297.898 350.083C294.086 350.1 287.273 350.387 283.681 350.033L265.731 350.033C262.146 350.021 258.562 350.16 254.978 350.033L236.754 350.033C233.139 350.21 229.491 350.221 225.876 350.033L207.543 350.033L196.991 350.033L178.402 350.033L168.123 350.033L149.791 350.033C146.772 350.318 142.968 350.586 140.003 350.033C133.881 349.847 127.698 350.029 121.569 350.033C106.661 349.967 102.596 352.875 102.75 336.551Z"/>
	<path fill="#FBBD45" transform="matrix(0.195312 0 0 0.195312 0.00195312 -0.000244141)" d="M149.791 278.184L168.123 278.184L168.123 336.551L168.123 350.033L149.791 350.033C146.772 350.318 142.968 350.586 140.003 350.033C139.912 347.793 139.945 345.576 140.003 343.336C140.096 341.092 139.989 338.801 140.003 336.551L149.791 336.551L149.791 278.184Z"/>
	<path fill="#F3A734" transform="matrix(0.195312 0 0 0.195312 0.00195312 -0.000244141)" d="M149.791 336.551C155.9 336.486 162.013 336.539 168.123 336.551L168.123 350.033L149.791 350.033L149.791 350.033C150.293 346.931 149.802 340.003 149.791 336.551Z"/>
	<path fill="#A0BFE1" transform="matrix(0.195312 0 0 0.195312 0.00195312 -0.000244141)" d="M140.003 336.551L149.791 336.551C149.775 340.172 149.338 346.821 149.791 350.033L149.791 350.033C146.772 350.318 142.968 350.586 140.003 350.033C139.912 347.793 139.945 345.576 140.003 343.336C140.096 341.092 139.989 338.801 140.003 336.551Z"/>
	<path fill="#FBBD45" transform="matrix(0.195312 0 0 0.195312 0.00195312 -0.000244141)" d="M265.731 283.476C271.711 283.548 277.7 283.478 283.681 283.476L283.681 336.551C283.693 337.473 283.738 338.406 283.681 339.327C283.669 342.883 283.541 346.481 283.681 350.033L265.731 350.033L265.731 336.551L265.731 283.476Z"/>
	<path fill="#F3A734" transform="matrix(0.195312 0 0 0.195312 0.00195312 -0.000244141)" d="M265.731 336.551C268.886 336.433 280.941 336.177 283.378 336.83C283.492 337.662 283.599 338.491 283.681 339.327C283.669 342.883 283.541 346.481 283.681 350.033L265.731 350.033L265.731 336.551Z"/>
	<path fill="#41B1F6" transform="matrix(0.195312 0 0 0.195312 0.00195312 -0.000244141)" d="M121.569 295.765L140.003 295.765L140.003 336.551C139.989 338.801 140.096 341.092 140.003 343.336C139.945 345.576 139.912 347.793 140.003 350.033C133.881 349.847 127.698 350.029 121.569 350.033L121.569 336.551L121.569 295.765Z"/>
	<path fill="#4D94D9" transform="matrix(0.195312 0 0 0.195312 0.00195312 -0.000244141)" d="M121.569 336.551L140.003 336.551C139.797 338.829 139.68 341.063 140.003 343.336C139.945 345.576 139.912 347.793 140.003 350.033C133.881 349.847 127.698 350.029 121.569 350.033L121.569 336.551Z"/>
	<path fill="#1DBD66" transform="matrix(0.195312 0 0 0.195312 0.00195312 -0.000244141)" d="M236.754 316.046L254.978 316.046L254.978 336.551C258.314 337.158 262.308 336.519 265.731 336.551L265.731 350.033C262.146 350.021 258.562 350.16 254.978 350.033L236.754 350.033C233.139 350.21 229.491 350.221 225.876 350.033L225.876 338.108L225.876 336.551C229.497 336.957 233.126 336.722 236.754 336.551C236.768 329.718 236.638 322.878 236.754 316.046Z"/>
	<path fill="#A0BFE1" transform="matrix(0.195312 0 0 0.195312 0.00195312 -0.000244141)" d="M225.876 336.551C229.497 336.957 233.126 336.722 236.754 336.551L236.754 345.937C236.753 347.297 236.709 348.675 236.754 350.033C233.139 350.21 229.491 350.221 225.876 350.033L225.876 338.108L225.876 336.551Z"/>
	<path fill="#A0BFE1" transform="matrix(0.195312 0 0 0.195312 0.00195312 -0.000244141)" d="M254.978 336.551C258.314 337.158 262.308 336.519 265.731 336.551L265.731 350.033C262.146 350.021 258.562 350.16 254.978 350.033C255.315 345.595 254.994 341.007 254.978 336.551L254.978 336.551Z"/>
	<path fill="#F77A5E" transform="matrix(0.195312 0 0 0.195312 0.00195312 -0.000244141)" d="M207.543 305.396L225.876 305.396L225.876 336.551L225.876 338.108L225.876 350.033L207.543 350.033L207.543 336.551L207.543 336.551L207.543 305.396Z"/>
	<path fill="#EC6451" transform="matrix(0.195312 0 0 0.195312 0.00195312 -0.000244141)" d="M207.543 336.551C208.865 336.29 224.654 336.409 225.624 336.652L225.876 338.108L225.876 350.033L207.543 350.033L207.543 336.551Z"/>
	<path fill="#41B1F6" transform="matrix(0.195312 0 0 0.195312 0.00195312 -0.000244141)" d="M178.402 295.765L196.991 295.765L196.991 335.867L196.991 336.551C190.861 336.915 184.549 336.654 178.402 336.551L178.402 336.551C178.257 331.985 178.395 327.372 178.397 322.801L178.402 295.765Z"/>
	<path fill="#4D94D9" transform="matrix(0.195312 0 0 0.195312 0.00195312 -0.000244141)" d="M196.991 335.867L197.369 336.554C200.477 337.457 204.315 336.239 207.543 336.551L207.543 336.551L207.543 350.033L196.991 350.033L178.402 350.033L168.123 350.033L168.123 336.551C170.428 336.545 176.744 337.612 178.402 336.551L178.402 336.551C184.549 336.654 190.861 336.915 196.991 336.551L196.991 335.867Z"/>
	<path fill="#A0BFE1" transform="matrix(0.195312 0 0 0.195312 0.00195312 -0.000244141)" d="M196.991 335.867L197.369 336.554C200.477 337.457 204.315 336.239 207.543 336.551L207.543 336.551L207.543 350.033L196.991 350.033L196.991 336.551L196.991 335.867Z"/>
	<path fill="#A0BFE1" transform="matrix(0.195312 0 0 0.195312 0.00195312 -0.000244141)" d="M178.402 336.551L178.402 336.551L178.402 350.033L168.123 350.033L168.123 336.551C170.428 336.545 176.744 337.612 178.402 336.551Z"/>
	<path fill="#A0BFE1" transform="matrix(0.195312 0 0 0.195312 0.00195312 -0.000244141)" d="M283.681 336.551C290.978 337.019 299.115 336.546 306.498 336.551C306.733 344.058 307.107 350.044 297.898 350.083C294.086 350.1 287.273 350.387 283.681 350.033C283.541 346.481 283.669 342.883 283.681 339.327C283.738 338.406 283.693 337.473 283.681 336.551Z"/>
	<path fill="#A0BFE1" transform="matrix(0.195312 0 0 0.195312 0.00195312 -0.000244141)" d="M102.75 336.551C109.014 336.555 115.309 336.695 121.569 336.551L121.569 350.033C106.661 349.967 102.596 352.875 102.75 336.551Z"/>
	<path fill="#4D94D9" transform="matrix(0.195312 0 0 0.195312 0.00195312 -0.000244141)" d="M135.196 161.529C140.849 161.053 144.512 166.997 139.975 171.181C138.669 172.386 136.63 172.969 135.065 173.785C122.216 180.482 116.429 195.483 121.031 209.194C127.979 229.897 155.757 237.098 171.628 221.561C174.427 218.821 178.873 210.562 181.367 209.832C191.016 207.01 191.106 214.513 186.673 221.192C165.752 250.313 122.362 247.259 110.53 213.605C103.13 192.556 113.878 168.896 135.196 161.529Z"/>
	<path fill="#A0BFE1" transform="matrix(0.195312 0 0 0.195312 0.00195312 -0.000244141)" d="M344.323 335.867C320.473 313.202 333.016 274.507 367.489 270.283C367.483 283.934 367.315 297.604 367.489 311.252C364.136 316.126 356.79 322.835 352.47 327.14C349.742 329.876 346.469 332.665 344.323 335.867Z"/>
	<path fill="#EC6451" transform="matrix(0.195312 0 0 0.195312 0.00195312 -0.000244141)" d="M367.489 311.252C377.056 311.13 397.031 310.057 406.04 311.252C405.502 314.122 405.123 317.066 404.318 319.874C399.022 338.339 380.305 348.197 361.863 344.549C354.206 343.034 350.601 339.853 344.323 335.867C346.469 332.665 349.742 329.876 352.47 327.14C356.79 322.835 364.136 316.126 367.489 311.252Z"/>
	<path fill="#F77A5E" transform="matrix(0.195312 0 0 0.195312 0.00195312 -0.000244141)" d="M367.489 311.252C377.056 311.13 397.031 310.057 406.04 311.252C404.217 311.563 402.243 311.407 400.405 311.252C394.183 332.428 369.985 338.659 352.47 327.14C356.79 322.835 364.136 316.126 367.489 311.252Z"/>
	<path fill="#1DBD66" transform="matrix(0.195312 0 0 0.195312 0.00195312 -0.000244141)" d="M154.917 159.303C178.896 157.973 199.238 195.654 188.168 199.025C183.163 199.284 154.03 199.943 153.006 197.494C151.126 192.998 151.515 164.16 152.49 161.685C152.962 160.484 153.785 159.842 154.917 159.303Z"/>
	<path fill="#1DBD66" transform="matrix(0.195312 0 0 0.195312 0.00195312 -0.000244141)" d="M373.975 270.283C392.768 273.581 403.645 285.204 406.04 304.276L373.975 304.276L373.975 270.283Z"/>
	<path fill="#A0BFE1" transform="matrix(0.195312 0 0 0.195312 0.00195312 -0.000244141)" d="M241.731 174.246C244.802 174.025 247.988 174.226 251.072 174.23L286.087 174.234C289.034 174.23 292.745 173.84 295.593 174.526C301.308 175.901 299.565 182.627 295.45 184.753C293.272 185.007 290.956 184.789 288.762 184.771L254.456 184.76C249.663 184.777 236.803 187.258 238.597 178.695C239.029 176.635 240.017 175.401 241.731 174.246Z"/>
	<path fill="#A0BFE1" transform="matrix(0.195312 0 0 0.195312 0.00195312 -0.000244141)" d="M254.978 196.19L283.561 196.194C286.41 196.192 291.393 195.736 293.852 195.983C298.064 196.404 301.208 201.278 297.73 204.736C294.749 207.701 286.051 206.422 281.875 206.434L254.955 206.439C250.577 206.444 246.092 206.745 241.731 206.434C239.709 205.229 238.306 203.745 238.212 201.227C237.942 193.984 250.54 196.152 254.978 196.19Z"/>
	<path fill="#A0BFE1" transform="matrix(0.195312 0 0 0.195312 0.00195312 -0.000244141)" d="M291.209 218.009C295.596 217.639 297.949 218.271 299.402 222.707C297.273 231.343 285.804 228.375 278.183 228.376L246.21 228.364C240.356 228.076 234.559 224.335 239.893 219.256C242.537 216.738 256.629 218.001 260.29 218.004L291.209 218.009Z"/>
	<path fill="#A0BFE1" transform="matrix(0.195312 0 0 0.195312 0.00195312 -0.000244141)" d="M352.47 174.246L384.375 174.237C389.805 174.237 395.375 173.973 400.787 174.287C408.3 174.723 408.33 183.201 401.563 184.753L368.224 184.758C363.818 184.757 357.024 185.159 352.901 184.733C345.207 183.937 345.621 175.568 352.47 174.246Z"/>
	<path fill="#A0BFE1" transform="matrix(0.195312 0 0 0.195312 0.00195312 -0.000244141)" d="M353.254 218.009C363.114 217.737 373.062 218.012 382.93 218.025C387.151 218.031 405.572 215.843 406.763 221.911C407.4 225.156 404.524 227.906 401.563 228.364C390.834 228.574 380.062 228.354 369.328 228.344C364.886 228.34 348.426 230.821 347.463 224.026C346.878 219.894 349.705 218.397 353.254 218.009Z"/>
	<path fill="#A0BFE1" transform="matrix(0.195312 0 0 0.195312 0.00195312 -0.000244141)" d="M352.47 196.19C367.943 196.514 385.856 195.105 400.918 196.31C408.592 196.925 408.291 204.926 401.563 206.434L370.038 206.443C365.598 206.448 352.855 207.671 349.237 205.347C345.035 202.648 347.328 196.883 352.47 196.19Z"/>
	<path fill="#1DBD66" transform="matrix(0.195312 0 0 0.195312 0.00195312 -0.000244141)" d="M213.931 174.246C217.759 174.207 224.112 173.316 227.253 175.927C230.963 179.013 227.384 184.615 223.015 184.753C219.399 184.708 212.67 185.873 209.815 183.464C205.56 179.875 209.205 174.388 213.931 174.246Z"/>
	<path fill="#F3A734" transform="matrix(0.195312 0 0 0.195312 0.00195312 -0.000244141)" d="M213.047 196.19C216.592 196.136 223.575 195.269 226.53 197.148C230.596 199.733 228.528 205.638 224.213 206.434C220.994 206.422 213.159 207.181 210.591 205.644C205.774 202.762 208.101 196.842 213.047 196.19Z"/>
	<path fill="#335C92" transform="matrix(0.195312 0 0 0.195312 0.00195312 -0.000244141)" d="M213.047 218.009C216.943 217.967 226.998 216.34 228.379 221.589C229.243 224.877 227.43 227.593 224.213 228.364C220.536 228.433 212.955 229.143 209.988 227.266C205.45 224.395 208.785 218.777 213.047 218.009Z"/>
	<path fill="#1DBD66" transform="matrix(0.195312 0 0 0.195312 0.00195312 -0.000244141)" d="M321.493 174.246C324.819 174.112 331.361 173.696 334.4 174.707C339.361 176.356 338.927 182.624 334.401 184.753C329.743 184.795 314.921 186.923 318.028 177.729C318.662 175.853 319.762 175.069 321.493 174.246Z"/>
	<path fill="#4D94D9" transform="matrix(0.195312 0 0 0.195312 0.00195312 -0.000244141)" d="M324.342 218.009C327.657 218 333.134 217.279 335.929 219.147C340.904 222.472 337.199 227.764 332.537 228.364C328.675 228.506 323.277 229.296 319.946 227.056C314.988 223.72 318.558 218.425 324.342 218.009Z"/>
	<path fill="#4D94D9" transform="matrix(0.195312 0 0 0.195312 0.00195312 -0.000244141)" d="M321.493 196.19C325.079 196.167 331.398 195.59 334.651 196.578C339.637 198.091 338.405 204.575 334.401 206.434C330.084 206.483 314.974 208.45 317.875 199.653C318.441 197.939 319.987 196.991 321.493 196.19Z"/>
</svg>
