<?xml version="1.0" encoding="utf-8" ?>
<svg xmlns="http://www.w3.org/2000/svg" xmlns:xlink="http://www.w3.org/1999/xlink" width="100" height="100">
	<path fill="#D8E8F2" transform="matrix(0.195312 0 0 0.195312 0.00195312 -0.000244141)" d="M111.056 157.017C101.49 156.564 80.1157 158.409 72.0063 156.262C62.759 153.813 62.6116 144.633 62.6291 136.952L62.66 124.311C62.6538 108.104 62.7668 91.8907 62.5654 75.6856C62.3935 61.8617 69.9705 57.8331 82.7443 57.7728L185.113 57.756C204.1 57.7271 209.775 58.1226 209.733 79.0075L209.699 89.4901C214.306 89.3546 218.747 87.7969 223.269 87.0521C277.937 78.0479 336.212 90.2971 378.101 127.881C429.607 174.095 447.757 244.186 426.427 310.349C425.222 314.089 423.438 322.31 419.353 323.794C426.579 333.828 427.927 344.758 427.912 356.646L427.894 423.759C444.431 424.201 451.58 418.701 451.587 437.433L451.58 450.601L204.585 450.526C196.915 450.469 188.755 451.159 181.164 450.601C181.003 443.817 180.449 430.653 181.308 424.21C181.793 423.679 181.878 423.818 182.562 423.759C187.967 422.512 207.6 425.084 211.041 423.237L211.159 421.909C211.385 415.996 211.166 409.992 211.159 404.07C206.926 404.961 201.561 401.718 197.745 400.165C170.648 389.135 146.144 372.844 126.78 350.839C121.236 344.54 103.8 323.829 103.642 315.827C93.728 315.687 78.6724 316.922 69.4173 315.827C60.461 315.091 61.4983 305.462 61.4933 299.374L61.5002 266.795C61.5274 247.505 63.6178 250.808 80.1875 249.083C82.133 249.203 84.0534 249.15 86.0003 249.083C85.4938 226.953 96.5635 193.531 105.103 173.866C107.592 168.134 110.906 162.79 113.291 157.017C112.518 157.087 111.828 157.155 111.056 157.017Z"/>
	<path fill="#C0BFC9" transform="matrix(0.195312 0 0 0.195312 0.00195312 -0.000244141)" d="M281.344 354.372L390.711 354.372C392.76 355.508 394.053 356.464 395.26 358.539C395.211 360.521 394.676 362.302 394.372 364.24C394.48 377.195 392.521 392.587 390.711 405.436C390.711 411.544 389.699 417.616 389.659 423.759C402.4 423.809 415.155 423.586 427.894 423.759C444.431 424.201 451.58 418.701 451.587 437.433L451.58 450.601L204.585 450.526C196.915 450.469 188.755 451.159 181.164 450.601C181.003 443.817 180.449 430.653 181.308 424.21C181.793 423.679 181.878 423.818 182.562 423.759C187.967 422.512 207.6 425.084 211.041 423.237L211.159 421.909L211.283 423.257C213.233 424.329 241.994 423.763 246.274 423.759L265.079 423.741C268.219 423.725 271.61 423.376 274.712 423.759C274.522 421.411 274.698 418.927 274.699 416.566L274.712 354.372C276.932 354.442 279.123 354.475 281.344 354.372Z"/>
	<path fill="#9FE1A6" transform="matrix(0.195312 0 0 0.195312 0.00195312 -0.000244141)" d="M182.562 423.759C187.967 422.512 207.6 425.084 211.041 423.237L211.159 421.909L211.283 423.257C213.233 424.329 241.994 423.763 246.274 423.759L265.079 423.741C268.219 423.725 271.61 423.376 274.712 423.759C277.968 424.346 282.071 423.795 285.416 423.776L362.411 423.761C371.473 423.763 380.61 424.053 389.659 423.759C402.4 423.809 415.155 423.586 427.894 423.759C444.431 424.201 451.58 418.701 451.587 437.433L451.58 450.601L204.585 450.526C196.915 450.469 188.755 451.159 181.164 450.601C181.003 443.817 180.449 430.653 181.308 424.21C181.793 423.679 181.878 423.818 182.562 423.759Z"/>
	<path fill="#03B38E" transform="matrix(0.195312 0 0 0.195312 0.00195312 -0.000244141)" d="M182.562 423.759L204.793 423.759L204.793 450.601C199.005 450.375 186.719 449.966 181.164 450.601C181.003 443.817 180.449 430.653 181.308 424.21C181.793 423.679 181.878 423.818 182.562 423.759Z"/>
	<path fill="#D8E8F2" transform="matrix(0.195312 0 0 0.195312 0.00195312 -0.000244141)" d="M317.194 384.031Q317.351 383.999 317.509 383.975Q317.667 383.951 317.826 383.935Q317.985 383.919 318.144 383.91Q318.304 383.902 318.464 383.901Q318.623 383.9 318.783 383.908Q318.943 383.915 319.102 383.93Q319.261 383.945 319.419 383.967Q319.577 383.99 319.734 384.021Q319.891 384.051 320.046 384.089Q320.202 384.127 320.355 384.173Q320.508 384.218 320.659 384.271Q320.81 384.324 320.957 384.385Q321.105 384.445 321.25 384.513Q321.395 384.58 321.537 384.655Q321.678 384.729 321.816 384.81Q321.953 384.892 322.086 384.98Q322.22 385.068 322.349 385.162Q322.478 385.256 322.602 385.357Q322.726 385.457 322.845 385.564Q322.965 385.671 323.078 385.783Q323.192 385.895 323.3 386.013Q323.409 386.13 323.511 386.253Q323.613 386.376 323.709 386.504Q323.805 386.631 323.895 386.763Q323.985 386.896 324.068 387.032Q324.152 387.168 324.228 387.309Q324.304 387.449 324.374 387.593Q324.443 387.737 324.506 387.884Q324.568 388.031 324.623 388.181Q324.679 388.331 324.726 388.484Q324.774 388.636 324.814 388.791Q324.854 388.946 324.887 389.102Q324.92 389.258 324.945 389.416Q324.969 389.574 324.987 389.733Q325.004 389.892 325.013 390.052Q325.023 390.211 325.024 390.371Q325.026 390.531 325.019 390.691Q325.013 390.85 324.999 391.009Q324.985 391.169 324.963 391.327Q324.941 391.485 324.912 391.642Q324.882 391.799 324.845 391.955Q324.808 392.11 324.763 392.264Q324.719 392.417 324.666 392.568Q324.614 392.719 324.555 392.868Q324.495 393.016 324.428 393.161Q324.362 393.307 324.288 393.448Q324.214 393.59 324.134 393.728Q324.053 393.866 323.966 394Q323.879 394.134 323.785 394.264Q323.692 394.393 323.592 394.518Q323.492 394.643 323.386 394.763Q323.28 394.882 323.168 394.997Q323.057 395.111 322.94 395.22Q322.823 395.329 322.701 395.432Q322.578 395.535 322.451 395.632Q322.324 395.729 322.192 395.819Q322.061 395.91 321.925 395.994Q321.789 396.078 321.649 396.155Q321.509 396.232 321.365 396.303Q321.222 396.373 321.075 396.436Q320.928 396.499 320.779 396.555Q320.629 396.611 320.477 396.66Q320.324 396.708 320.17 396.75Q320.015 396.791 319.859 396.824Q319.702 396.858 319.543 396.884Q319.384 396.91 319.224 396.928Q319.064 396.946 318.903 396.956Q318.743 396.966 318.582 396.968Q318.421 396.971 318.26 396.965Q318.099 396.959 317.939 396.946Q317.778 396.932 317.619 396.911Q317.459 396.889 317.301 396.86Q317.143 396.83 316.986 396.793Q316.829 396.756 316.675 396.712Q316.52 396.667 316.368 396.615Q316.216 396.562 316.066 396.503Q315.917 396.443 315.77 396.376Q315.624 396.309 315.481 396.235Q315.338 396.161 315.199 396.079Q315.06 395.998 314.925 395.911Q314.79 395.823 314.66 395.728Q314.53 395.634 314.404 395.533Q314.278 395.433 314.158 395.326Q314.037 395.219 313.922 395.107Q313.807 394.994 313.698 394.876Q313.588 394.758 313.485 394.635Q313.381 394.511 313.284 394.383Q313.187 394.255 313.096 394.122Q313.005 393.989 312.921 393.852Q312.837 393.715 312.76 393.573Q312.682 393.432 312.612 393.287Q312.542 393.143 312.479 392.994Q312.416 392.846 312.36 392.695Q312.304 392.544 312.256 392.391Q312.208 392.237 312.167 392.081Q312.127 391.926 312.094 391.768Q312.061 391.61 312.036 391.451Q312.011 391.292 311.994 391.132Q311.977 390.972 311.967 390.811Q311.958 390.651 311.957 390.49Q311.955 390.329 311.962 390.168Q311.969 390.007 311.983 389.847Q311.998 389.686 312.02 389.527Q312.042 389.368 312.073 389.21Q312.103 389.051 312.141 388.895Q312.179 388.738 312.224 388.584Q312.27 388.43 312.323 388.278Q312.376 388.126 312.437 387.977Q312.497 387.828 312.565 387.682Q312.633 387.536 312.708 387.393Q312.783 387.251 312.865 387.112Q312.947 386.973 313.035 386.839Q313.124 386.705 313.219 386.575Q313.314 386.445 313.415 386.32Q313.517 386.195 313.624 386.075Q313.732 385.955 313.845 385.84Q313.958 385.726 314.077 385.617Q314.195 385.508 314.319 385.406Q314.443 385.303 314.572 385.206Q314.701 385.11 314.834 385.02Q314.968 384.93 315.105 384.846Q315.243 384.763 315.385 384.686Q315.526 384.61 315.672 384.54Q315.817 384.471 315.965 384.409Q316.114 384.347 316.265 384.292Q316.416 384.237 316.57 384.19Q316.724 384.142 316.88 384.103Q317.036 384.063 317.194 384.031Z"/>
	<path fill="#9FE1A6" transform="matrix(0.195312 0 0 0.195312 0.00195312 -0.000244141)" d="M111.056 157.017C101.49 156.564 80.1157 158.409 72.0063 156.262C62.759 153.813 62.6116 144.633 62.6291 136.952L62.66 124.311C62.6538 108.104 62.7668 91.8907 62.5654 75.6856C62.3935 61.8617 69.9705 57.8331 82.7443 57.7728L185.113 57.756C204.1 57.7271 209.775 58.1226 209.733 79.0075L209.699 89.4901C209.559 101.784 209.712 114.092 209.71 126.387C209.707 141.174 212.81 157.346 192.089 157.025L191.613 157.017L191.613 184.578L191.331 184.371C188.288 182.103 185.683 179.061 182.972 176.41C177.425 170.985 169.76 163.327 163.975 158.536C160.716 155.837 117.567 157.086 111.056 157.017Z"/>
	<path fill="#83D2A2" transform="matrix(0.195312 0 0 0.195312 0.00195312 -0.000244141)" d="M97.5284 101.055L148.574 101.053C157.61 101.054 166.714 100.813 175.742 101.054C180.308 101.176 181.761 104.99 174.133 105.487L103.75 105.487C101.3 105.49 93.2035 106.581 91.9521 103.793C92.2459 101.067 95.4193 101.156 97.5284 101.055Z"/>
	<path fill="#83D2A2" transform="matrix(0.195312 0 0 0.195312 0.00195312 -0.000244141)" d="M95.8749 86.0766C99.2336 85.8203 102.78 86.0515 106.155 86.0576L157.162 86.07C162.864 86.0699 168.604 85.9386 174.303 86.1347C180.767 86.3571 181.415 89.8385 175.843 90.1905L99.9451 90.1426C97.8995 90.1397 92.8308 91.456 92.3099 88.4943C91.8955 86.1386 94.1683 86.25 95.8749 86.0766Z"/>
	<path fill="#83D2A2" transform="matrix(0.195312 0 0 0.195312 0.00195312 -0.000244141)" d="M95.8749 116.564C98.1245 116.368 100.505 116.532 102.768 116.536L134.032 116.585C136.535 116.567 148.114 115.151 148.847 118.239C149.365 120.421 147.707 121.058 145.953 121.024L108.624 121.005C105.765 121.001 90.8322 123.444 92.0558 117.852C93.0814 116.73 94.4603 116.698 95.8749 116.564Z"/>
	<defs>
		<linearGradient id="gradient_0" gradientUnits="userSpaceOnUse" x1="221.63759" y1="438.18262" x2="411.85437" y2="313.23035">
			<stop offset="0" stop-color="#0391FA"/>
			<stop offset="1" stop-color="#12A9FE"/>
		</linearGradient>
	</defs>
	<path fill="url(#gradient_0)" transform="matrix(0.195312 0 0 0.195312 0.00195312 -0.000244141)" d="M353.224 302.28C382.894 302.449 398.789 299.039 419.353 323.794C426.579 333.828 427.927 344.758 427.912 356.646L427.894 423.759C415.155 423.586 402.4 423.809 389.659 423.759C389.699 417.616 390.711 411.544 390.711 405.436C392.521 392.587 394.48 377.195 394.372 364.24C394.676 362.302 395.211 360.521 395.26 358.539C394.053 356.464 392.76 355.508 390.711 354.372L281.344 354.372C279.123 354.475 276.932 354.442 274.712 354.372L274.699 416.566C274.698 418.927 274.522 421.411 274.712 423.759C271.61 423.376 268.219 423.725 265.079 423.741L246.274 423.759C241.994 423.763 213.233 424.329 211.283 423.257L211.159 421.909C211.385 415.996 211.166 409.992 211.159 404.07C210.864 392.692 211.174 381.24 211.164 369.854C211.141 344.388 208.704 324.6 234.706 309.35C249.879 300.451 264.468 303.136 281.344 302.785C278.75 304.826 277.087 307.054 276.195 310.255C277.397 312.86 279.193 315.386 280.686 317.843L290.629 334.028C292.84 337.677 295.16 341.299 296.864 345.219C303.087 338.992 311.502 333.39 318.643 328.183C325.893 333.458 332.735 339.477 339.623 345.219C344.456 338.203 358.955 317.658 362.195 310.255C359.307 306.937 357.299 304.245 353.224 302.28Z"/>
	<path fill="#A4A3AE" transform="matrix(0.195312 0 0 0.195312 0.00195312 -0.000244141)" d="M244.244 357.257C247.765 352.59 253.61 354.338 258.827 354.356L281.344 354.372C279.123 354.475 276.932 354.442 274.712 354.372L274.699 416.566C274.698 418.927 274.522 421.411 274.712 423.759C271.61 423.376 268.219 423.725 265.079 423.741L246.274 423.759C246.164 401.544 244.026 378.816 244.244 357.257Z"/>
	<path fill="#0D7EE7" transform="matrix(0.195312 0 0 0.195312 0.00195312 -0.000244141)" d="M362.195 310.255C363.378 310.479 365.021 312.363 365.875 313.234L349.024 339.176C346.747 342.678 344.753 346.436 342.323 349.825C335.396 344.509 326.811 338.349 320.43 332.866C314.94 336.97 303.292 345.365 299.377 349.825C298.645 348.169 297.839 346.739 296.864 345.219C303.087 338.992 311.502 333.39 318.643 328.183C325.893 333.458 332.735 339.477 339.623 345.219C344.456 338.203 358.955 317.658 362.195 310.255Z"/>
	<path fill="#0D7EE7" transform="matrix(0.195312 0 0 0.195312 0.00195312 -0.000244141)" d="M394.372 364.24C396.248 366.854 393.471 373.829 394.361 376.912C395.867 373.635 395.042 369.065 395.876 365.547C396.272 369.902 394.318 384.233 393.792 389.551C393.322 394.318 392.959 399.744 392.453 404.318L391.592 404.555L392.03 404.653L391.996 404.211C391.951 403.608 391.955 403.01 391.962 402.406C391.456 403.436 391.781 404.686 390.711 405.436C392.521 392.587 394.48 377.195 394.372 364.24Z"/>
	<path fill="#60A0EA" transform="matrix(0.195312 0 0 0.195312 0.00195312 -0.000244141)" d="M86.0003 249.083L169.311 249.071C190.765 249.052 187.272 252.079 187.242 270.672L187.223 304.832C187.18 309.707 187.242 313.411 182.562 315.827C182.571 319.371 184.158 337.774 180.9 337.884C178.391 336.527 162.664 319.024 159.459 315.827C140.862 315.627 122.241 315.828 103.642 315.827C93.728 315.687 78.6724 316.922 69.4173 315.827C60.461 315.091 61.4983 305.462 61.4933 299.374L61.5002 266.795C61.5274 247.505 63.6178 250.808 80.1875 249.083C82.133 249.203 84.0534 249.15 86.0003 249.083Z"/>
	<path fill="#0D7EE7" transform="matrix(0.195312 0 0 0.195312 0.00195312 -0.000244141)" d="M69.4173 315.827C60.461 315.091 61.4983 305.462 61.4933 299.374L61.5002 266.795C61.5274 247.505 63.6178 250.808 80.1875 249.083C78.5788 250.763 76.2546 252.433 75.5782 254.734C74.299 259.086 75.0927 300.784 75.2248 307.296C75.3082 311.412 77.425 313.169 80.1875 315.827C76.6353 315.802 72.9552 315.587 69.4173 315.827Z"/>
	<path fill="#D8E8F2" transform="matrix(0.195312 0 0 0.195312 0.00195312 -0.000244141)" d="M113.889 271.061Q114.082 271.046 114.276 271.041Q114.47 271.035 114.664 271.039Q114.858 271.043 115.052 271.057Q115.245 271.071 115.438 271.094Q115.631 271.117 115.822 271.149Q116.013 271.182 116.203 271.224Q116.392 271.266 116.579 271.317Q116.766 271.368 116.951 271.428Q117.135 271.488 117.317 271.557Q117.498 271.626 117.675 271.704Q117.853 271.782 118.027 271.869Q118.2 271.955 118.37 272.05Q118.539 272.145 118.703 272.249Q118.867 272.352 119.026 272.463Q119.185 272.574 119.339 272.693Q119.492 272.811 119.64 272.938Q119.787 273.064 119.928 273.197Q120.069 273.33 120.204 273.47Q120.338 273.61 120.465 273.756Q120.593 273.903 120.713 274.055Q120.833 274.208 120.945 274.366Q121.057 274.524 121.162 274.688Q121.266 274.851 121.363 275.019Q121.459 275.188 121.547 275.361Q121.635 275.534 121.714 275.711Q121.794 275.888 121.865 276.068Q121.935 276.249 121.997 276.433Q122.058 276.617 122.111 276.804Q122.164 276.99 122.207 277.18Q122.25 277.369 122.284 277.56Q122.319 277.751 122.343 277.943Q122.368 278.136 122.383 278.329Q122.398 278.522 122.404 278.716Q122.41 278.91 122.406 279.104Q122.402 279.298 122.389 279.492Q122.375 279.685 122.352 279.878Q122.33 280.071 122.297 280.262Q122.265 280.453 122.224 280.643Q122.182 280.832 122.131 281.02Q122.08 281.207 122.02 281.391Q121.96 281.576 121.892 281.757Q121.823 281.939 121.745 282.116Q121.667 282.294 121.581 282.468Q121.495 282.642 121.4 282.811Q121.305 282.98 121.202 283.145Q121.099 283.309 120.988 283.468Q120.877 283.628 120.759 283.781Q120.64 283.935 120.514 284.082Q120.389 284.23 120.256 284.371Q120.122 284.512 119.983 284.647Q119.843 284.781 119.697 284.909Q119.551 285.036 119.398 285.157Q119.246 285.277 119.088 285.39Q118.93 285.502 118.767 285.607Q118.603 285.712 118.435 285.808Q118.267 285.905 118.094 285.993Q117.921 286.081 117.744 286.161Q117.567 286.24 117.387 286.311Q117.206 286.382 117.022 286.444Q116.839 286.506 116.652 286.559Q116.465 286.612 116.276 286.655Q116.087 286.699 115.896 286.733Q115.705 286.768 115.513 286.793Q115.32 286.818 115.127 286.833Q114.933 286.848 114.739 286.854Q114.545 286.86 114.35 286.857Q114.156 286.853 113.962 286.84Q113.768 286.827 113.575 286.804Q113.382 286.782 113.19 286.749Q112.999 286.717 112.809 286.676Q112.619 286.634 112.431 286.584Q112.244 286.533 112.059 286.473Q111.874 286.413 111.692 286.344Q111.511 286.275 111.332 286.198Q111.154 286.12 110.98 286.033Q110.806 285.947 110.637 285.852Q110.467 285.757 110.302 285.654Q110.137 285.551 109.978 285.44Q109.818 285.329 109.664 285.21Q109.511 285.092 109.363 284.965Q109.215 284.839 109.073 284.706Q108.932 284.573 108.797 284.433Q108.662 284.293 108.535 284.146Q108.407 284 108.287 283.847Q108.166 283.694 108.053 283.536Q107.941 283.378 107.836 283.214Q107.731 283.05 107.634 282.882Q107.538 282.713 107.449 282.54Q107.361 282.367 107.282 282.19Q107.202 282.012 107.131 281.831Q107.06 281.65 106.998 281.466Q106.936 281.282 106.884 281.095Q106.831 280.908 106.787 280.718Q106.744 280.529 106.71 280.338Q106.676 280.146 106.651 279.953Q106.626 279.761 106.611 279.567Q106.596 279.373 106.59 279.179Q106.584 278.985 106.588 278.79Q106.592 278.596 106.606 278.402Q106.619 278.208 106.642 278.015Q106.665 277.822 106.697 277.631Q106.73 277.439 106.771 277.249Q106.813 277.059 106.864 276.872Q106.915 276.684 106.975 276.499Q107.035 276.315 107.105 276.133Q107.174 275.951 107.252 275.773Q107.33 275.595 107.416 275.421Q107.503 275.247 107.598 275.078Q107.693 274.908 107.797 274.744Q107.9 274.579 108.011 274.42Q108.122 274.26 108.241 274.107Q108.36 273.953 108.487 273.805Q108.613 273.658 108.746 273.516Q108.88 273.375 109.02 273.24Q109.16 273.106 109.307 272.978Q109.454 272.851 109.607 272.731Q109.759 272.61 109.918 272.498Q110.076 272.385 110.24 272.281Q110.404 272.176 110.573 272.08Q110.741 271.983 110.915 271.895Q111.088 271.807 111.265 271.728Q111.443 271.648 111.624 271.578Q111.805 271.507 111.989 271.446Q112.174 271.384 112.361 271.332Q112.548 271.279 112.737 271.236Q112.927 271.193 113.118 271.159Q113.31 271.125 113.502 271.1Q113.695 271.076 113.889 271.061Z"/>
	<path fill="#D8E8F2" transform="matrix(0.195312 0 0 0.195312 0.00195312 -0.000244141)" d="M139.125 271.03Q139.315 271.026 139.505 271.03Q139.695 271.035 139.885 271.049Q140.075 271.063 140.264 271.086Q140.452 271.109 140.64 271.141Q140.827 271.173 141.013 271.214Q141.199 271.255 141.382 271.306Q141.566 271.356 141.746 271.415Q141.927 271.473 142.105 271.541Q142.283 271.609 142.457 271.685Q142.631 271.761 142.802 271.845Q142.972 271.93 143.138 272.022Q143.305 272.115 143.466 272.215Q143.627 272.316 143.784 272.424Q143.94 272.532 144.091 272.647Q144.242 272.763 144.388 272.886Q144.533 273.009 144.672 273.138Q144.811 273.268 144.944 273.404Q145.077 273.54 145.203 273.683Q145.329 273.825 145.448 273.974Q145.567 274.122 145.678 274.276Q145.79 274.43 145.894 274.589Q145.998 274.748 146.094 274.912Q146.191 275.076 146.279 275.245Q146.367 275.413 146.447 275.586Q146.527 275.758 146.599 275.934Q146.67 276.111 146.733 276.29Q146.796 276.47 146.85 276.652Q146.905 276.834 146.95 277.019Q146.995 277.204 147.032 277.39Q147.068 277.577 147.095 277.765Q147.123 277.953 147.141 278.143Q147.159 278.332 147.168 278.522Q147.177 278.712 147.177 278.902Q147.177 279.092 147.167 279.282Q147.158 279.472 147.139 279.662Q147.121 279.851 147.093 280.039Q147.065 280.227 147.029 280.414Q146.992 280.6 146.946 280.785Q146.901 280.969 146.846 281.152Q146.791 281.334 146.728 281.513Q146.665 281.693 146.593 281.869Q146.521 282.045 146.441 282.217Q146.36 282.389 146.272 282.558Q146.183 282.726 146.087 282.89Q145.99 283.054 145.886 283.213Q145.781 283.372 145.669 283.525Q145.557 283.679 145.438 283.827Q145.319 283.975 145.193 284.118Q145.066 284.26 144.933 284.396Q144.8 284.532 144.661 284.661Q144.521 284.79 144.376 284.913Q144.23 285.035 144.079 285.151Q143.928 285.266 143.771 285.374Q143.615 285.482 143.453 285.582Q143.291 285.682 143.125 285.774Q142.959 285.866 142.788 285.95Q142.618 286.034 142.443 286.11Q142.269 286.186 142.091 286.253Q141.913 286.32 141.732 286.379Q141.551 286.437 141.367 286.487Q141.184 286.537 140.998 286.578Q140.812 286.619 140.625 286.65Q140.437 286.682 140.249 286.705Q140.06 286.727 139.87 286.741Q139.609 286.76 139.348 286.761Q139.086 286.762 138.825 286.746Q138.564 286.73 138.305 286.697Q138.046 286.663 137.789 286.613Q137.533 286.562 137.28 286.495Q137.028 286.427 136.78 286.343Q136.533 286.259 136.291 286.159Q136.05 286.059 135.815 285.943Q135.581 285.826 135.355 285.695Q135.129 285.564 134.912 285.417Q134.696 285.271 134.489 285.111Q134.282 284.951 134.087 284.777Q133.891 284.604 133.708 284.418Q133.524 284.231 133.353 284.033Q133.183 283.836 133.025 283.627Q132.868 283.418 132.725 283.199Q132.582 282.98 132.454 282.752Q132.326 282.524 132.213 282.289Q132.1 282.053 132.003 281.81Q131.906 281.567 131.826 281.318Q131.745 281.07 131.681 280.816Q131.617 280.563 131.57 280.305Q131.524 280.048 131.494 279.788Q131.464 279.529 131.452 279.267Q131.439 279.006 131.444 278.745Q131.449 278.484 131.472 278.223Q131.494 277.963 131.534 277.704Q131.573 277.446 131.63 277.19Q131.686 276.935 131.76 276.684Q131.833 276.433 131.923 276.188Q132.013 275.942 132.119 275.703Q132.225 275.464 132.347 275.233Q132.469 275.002 132.605 274.779Q132.742 274.556 132.894 274.343Q133.045 274.129 133.21 273.927Q133.375 273.724 133.553 273.533Q133.732 273.341 133.922 273.162Q134.113 272.983 134.315 272.817Q134.517 272.651 134.729 272.499Q134.942 272.347 135.164 272.209Q135.386 272.071 135.617 271.948Q135.848 271.826 136.086 271.718Q136.325 271.611 136.57 271.52Q136.815 271.429 137.066 271.355Q137.316 271.28 137.571 271.222Q137.826 271.164 138.085 271.124Q138.343 271.083 138.603 271.06Q138.864 271.036 139.125 271.03Z"/>
	<path fill="#D8E8F2" transform="matrix(0.195312 0 0 0.195312 0.00195312 -0.000244141)" d="M88.3399 271.201Q88.5259 271.165 88.7135 271.138Q88.901 271.111 89.0897 271.093Q89.2783 271.075 89.4676 271.067Q89.6569 271.058 89.8464 271.058Q90.0359 271.059 90.2251 271.068Q90.4143 271.078 90.6029 271.097Q90.7914 271.116 90.9788 271.143Q91.1663 271.171 91.3521 271.208Q91.5379 271.245 91.7218 271.291Q91.9056 271.337 92.087 271.392Q92.2684 271.447 92.447 271.51Q92.6255 271.574 92.8007 271.646Q92.976 271.718 93.1475 271.798Q93.3191 271.879 93.4865 271.967Q93.654 272.056 93.8169 272.153Q93.9799 272.25 94.138 272.354Q94.2961 272.458 94.4489 272.57Q94.6017 272.682 94.749 272.802Q94.8962 272.921 95.0375 273.047Q95.1788 273.174 95.3138 273.307Q95.4487 273.44 95.5771 273.579Q95.7055 273.718 95.827 273.864Q95.9485 274.009 96.0628 274.16Q96.1771 274.311 96.284 274.468Q96.3908 274.624 96.49 274.786Q96.5891 274.947 96.6804 275.113Q96.7716 275.279 96.8546 275.45Q96.9377 275.62 97.0124 275.794Q97.0871 275.968 97.1533 276.146Q97.2195 276.323 97.277 276.504Q97.3345 276.685 97.3831 276.868Q97.4318 277.051 97.4716 277.236Q97.5113 277.421 97.5421 277.608Q97.5728 277.795 97.5944 277.983Q97.616 278.172 97.6285 278.361Q97.641 278.55 97.6443 278.739Q97.6477 278.929 97.6418 279.118Q97.6359 279.307 97.6209 279.496Q97.6059 279.685 97.5817 279.873Q97.5576 280.061 97.5243 280.247Q97.4911 280.434 97.4488 280.619Q97.4066 280.803 97.3555 280.986Q97.3044 281.168 97.2445 281.348Q97.1846 281.528 97.116 281.704Q97.0475 281.881 96.9705 282.054Q96.8934 282.227 96.8081 282.396Q96.7228 282.566 96.6294 282.73Q96.536 282.895 96.4347 283.055Q96.3335 283.216 96.2245 283.371Q96.1156 283.526 95.9993 283.675Q95.883 283.825 95.7596 283.969Q95.6362 284.112 95.506 284.25Q95.3757 284.388 95.239 284.519Q95.1022 284.65 94.9593 284.774Q94.8164 284.899 94.6676 285.016Q94.5188 285.133 94.3645 285.243Q94.2102 285.353 94.0508 285.455Q93.8913 285.558 93.7271 285.652Q93.5629 285.747 93.3943 285.833Q93.2257 285.92 93.0531 285.998Q92.8805 286.076 92.7043 286.146Q92.5282 286.216 92.3488 286.277Q92.1695 286.338 91.9874 286.39Q91.8053 286.443 91.6209 286.486Q91.3686 286.545 91.1129 286.588Q90.8572 286.631 90.5993 286.656Q90.3413 286.682 90.0822 286.69Q89.8232 286.699 89.5641 286.69Q89.305 286.681 89.0471 286.655Q88.7892 286.63 88.5335 286.587Q88.2779 286.544 88.0256 286.484Q87.7734 286.424 87.5256 286.348Q87.2779 286.272 87.0358 286.179Q86.7936 286.087 86.5582 285.978Q86.3227 285.87 86.0949 285.746Q85.8671 285.622 85.648 285.484Q85.4289 285.345 85.2195 285.193Q85.0101 285.04 84.8112 284.874Q84.6124 284.707 84.425 284.528Q84.2376 284.349 84.0625 284.158Q83.8874 283.967 83.7254 283.765Q83.5633 283.562 83.415 283.35Q83.2667 283.137 83.1328 282.915Q82.9989 282.693 82.88 282.463Q82.7611 282.233 82.6577 281.995Q82.5543 281.757 82.4669 281.513Q82.3795 281.269 82.3084 281.02Q82.2374 280.771 82.183 280.517Q82.1286 280.264 82.0911 280.007Q82.0536 279.751 82.0331 279.493Q82.0127 279.234 82.0094 278.975Q82.0062 278.716 82.0201 278.457Q82.034 278.198 82.065 277.941Q82.096 277.684 82.144 277.429Q82.192 277.174 82.2567 276.923Q82.3215 276.672 82.4027 276.426Q82.4839 276.18 82.5813 275.94Q82.6787 275.699 82.7918 275.466Q82.9049 275.233 83.0332 275.008Q83.1614 274.782 83.3044 274.566Q83.4473 274.35 83.6042 274.143Q83.7611 273.937 83.9314 273.742Q84.1016 273.546 84.2845 273.362Q84.4673 273.179 84.6619 273.007Q84.8565 272.836 85.062 272.678Q85.2675 272.52 85.483 272.376Q85.6986 272.232 85.9232 272.103Q86.1478 271.973 86.3805 271.859Q86.6131 271.745 86.8529 271.646Q87.0926 271.547 87.3383 271.465Q87.5841 271.382 87.8347 271.316Q88.0854 271.25 88.3399 271.201Z"/>
	<path fill="#D8E8F2" transform="matrix(0.195312 0 0 0.195312 0.00195312 -0.000244141)" d="M163.211 271.088Q163.401 271.077 163.59 271.075Q163.78 271.073 163.97 271.08Q164.16 271.087 164.349 271.103Q164.538 271.12 164.726 271.145Q164.914 271.171 165.101 271.206Q165.288 271.24 165.472 271.284Q165.657 271.328 165.84 271.38Q166.022 271.433 166.202 271.495Q166.381 271.556 166.558 271.626Q166.734 271.696 166.907 271.775Q167.08 271.853 167.249 271.94Q167.417 272.027 167.582 272.122Q167.746 272.217 167.906 272.32Q168.065 272.423 168.22 272.534Q168.374 272.644 168.523 272.762Q168.672 272.88 168.815 273.005Q168.957 273.13 169.094 273.262Q169.231 273.393 169.361 273.532Q169.491 273.67 169.614 273.814Q169.737 273.959 169.854 274.109Q169.97 274.259 170.078 274.415Q170.187 274.571 170.288 274.732Q170.389 274.892 170.482 275.058Q170.575 275.223 170.66 275.393Q170.744 275.563 170.821 275.737Q170.897 275.911 170.965 276.088Q171.033 276.265 171.093 276.446Q171.152 276.626 171.202 276.809Q171.253 276.992 171.294 277.177Q171.336 277.363 171.368 277.55Q171.4 277.737 171.424 277.925Q171.447 278.114 171.461 278.303Q171.475 278.492 171.48 278.682Q171.485 278.872 171.48 279.062Q171.476 279.252 171.463 279.441Q171.449 279.63 171.426 279.819Q171.403 280.007 171.372 280.195Q171.34 280.382 171.299 280.567Q171.258 280.753 171.208 280.936Q171.158 281.119 171.099 281.3Q171.04 281.48 170.973 281.658Q170.905 281.835 170.829 282.009Q170.753 282.183 170.669 282.353Q170.585 282.523 170.492 282.689Q170.399 282.855 170.299 283.016Q170.198 283.177 170.09 283.333Q169.982 283.489 169.866 283.64Q169.751 283.79 169.628 283.935Q169.505 284.08 169.375 284.218Q169.245 284.357 169.109 284.489Q168.973 284.621 168.83 284.747Q168.688 284.872 168.539 284.99Q168.39 285.109 168.236 285.22Q168.082 285.331 167.923 285.434Q167.764 285.537 167.6 285.633Q167.435 285.728 167.267 285.815Q167.098 285.903 166.926 285.982Q166.753 286.061 166.577 286.132Q166.4 286.202 166.221 286.264Q166.041 286.326 165.859 286.379Q165.677 286.432 165.492 286.476Q165.307 286.521 165.121 286.556Q164.934 286.591 164.746 286.617Q164.558 286.643 164.369 286.66Q164.112 286.683 163.854 286.689Q163.596 286.695 163.338 286.684Q163.081 286.672 162.824 286.644Q162.568 286.616 162.314 286.571Q162.059 286.526 161.809 286.465Q161.558 286.403 161.312 286.325Q161.067 286.247 160.826 286.153Q160.586 286.058 160.353 285.949Q160.119 285.839 159.893 285.714Q159.668 285.589 159.451 285.449Q159.234 285.31 159.026 285.156Q158.819 285.002 158.622 284.835Q158.426 284.668 158.24 284.489Q158.055 284.309 157.882 284.118Q157.709 283.926 157.549 283.724Q157.389 283.522 157.243 283.309Q157.097 283.096 156.965 282.875Q156.833 282.653 156.716 282.423Q156.599 282.193 156.497 281.956Q156.396 281.719 156.31 281.475Q156.224 281.232 156.155 280.983Q156.085 280.735 156.032 280.482Q155.979 280.23 155.943 279.974Q155.907 279.719 155.888 279.462Q155.869 279.204 155.867 278.946Q155.865 278.688 155.879 278.431Q155.894 278.173 155.926 277.917Q155.958 277.661 156.007 277.408Q156.056 277.154 156.121 276.905Q156.186 276.655 156.268 276.41Q156.35 276.166 156.447 275.927Q156.545 275.688 156.658 275.456Q156.771 275.224 156.9 275Q157.028 274.776 157.171 274.561Q157.313 274.346 157.47 274.141Q157.627 273.936 157.797 273.742Q157.967 273.548 158.149 273.365Q158.331 273.183 158.525 273.013Q158.719 272.842 158.924 272.685Q159.129 272.529 159.343 272.385Q159.558 272.242 159.782 272.114Q160.006 271.985 160.237 271.871Q160.469 271.758 160.708 271.66Q160.946 271.562 161.191 271.48Q161.436 271.398 161.685 271.332Q161.935 271.266 162.188 271.217Q162.441 271.168 162.697 271.136Q162.953 271.103 163.211 271.088Z"/>
	<path fill="#FCC780" transform="matrix(0.195312 0 0 0.195312 0.00195312 -0.000244141)" d="M234.988 190.912C236.17 165.714 247.042 141.558 267.123 125.751C308.144 93.4618 368.186 106.927 391.614 153.83C396.629 163.872 401.142 179.726 399.807 190.912C400.306 192.546 400.815 193.639 402.089 194.795L402.089 194.795C414.852 201.854 414.452 222.07 402.089 229.447C398.471 233.71 396.473 235.322 390.711 236.295C390.699 251.515 392.205 268.795 403.134 280.47C395.705 292.673 378.374 291.534 366.045 291.533L345.155 291.522C344.372 295.618 344.871 300.115 345.155 304.257C342.172 308.593 323.625 324.174 318.643 328.183C310.939 321.952 298.486 311.74 291.956 304.257C291.969 301.23 292.461 294.114 291.956 291.522C287.929 291.992 282.566 291.505 278.401 291.517C260.933 291.568 252.029 292.115 236.543 282.219C243.934 267.907 246.872 250.606 246.783 234.608C249.925 234.649 253.073 234.608 256.216 234.608C256.336 235.813 256.231 237.094 256.216 238.309C261.072 237.888 265.458 237.497 267.963 232.636L267.963 202.862C268.041 199.37 267.972 195.864 267.963 192.37C267.326 185.524 262.224 184.162 256.216 184.578C255.042 184.658 253.826 184.586 252.647 184.578C250.064 184.603 247.205 184.952 244.657 184.578C241.019 185.801 237.921 188.515 234.988 190.912Z"/>
	<path fill="#3D5394" transform="matrix(0.195312 0 0 0.195312 0.00195312 -0.000244141)" d="M234.988 190.912C236.17 165.714 247.042 141.558 267.123 125.751C308.144 93.4618 368.186 106.927 391.614 153.83C396.629 163.872 401.142 179.726 399.807 190.912C397.643 187.827 395.092 186.022 391.631 184.578C389.033 184.749 386.426 184.353 383.793 184.578L380.666 184.578C373.248 184.367 369.028 186.643 369.243 194.795C362.076 192.2 354.817 186.841 349.685 181.255C333.51 192.957 309.222 201.127 289.03 202.008C281.991 202.669 275.029 202.894 267.963 202.862C268.041 199.37 267.972 195.864 267.963 192.37C267.326 185.524 262.224 184.162 256.216 184.578C255.042 184.658 253.826 184.586 252.647 184.578C250.064 184.603 247.205 184.952 244.657 184.578C241.019 185.801 237.921 188.515 234.988 190.912Z"/>
	<path fill="#D8E8F2" transform="matrix(0.195312 0 0 0.195312 0.00195312 -0.000244141)" d="M234.988 190.912C236.17 165.714 247.042 141.558 267.123 125.751C308.144 93.4618 368.186 106.927 391.614 153.83C396.629 163.872 401.142 179.726 399.807 190.912C397.643 187.827 395.092 186.022 391.631 184.578C389.033 184.749 386.426 184.353 383.793 184.578C376.865 149.177 361.275 131.698 324.775 124.744C323.367 126.604 310.023 131.384 306.751 133.263C272.444 152.959 270.759 190.24 268.09 192.372L267.963 192.37C267.326 185.524 262.224 184.162 256.216 184.578C255.042 184.658 253.826 184.586 252.647 184.578C250.064 184.603 247.205 184.952 244.657 184.578C241.019 185.801 237.921 188.515 234.988 190.912Z"/>
	<path fill="#60A0EA" transform="matrix(0.195312 0 0 0.195312 0.00195312 -0.000244141)" d="M234.988 190.912C236.17 165.714 247.042 141.558 267.123 125.751C308.144 93.4618 368.186 106.927 391.614 153.83C396.629 163.872 401.142 179.726 399.807 190.912C397.643 187.827 395.092 186.022 391.631 184.578C388.381 149.292 360.908 121.578 325.772 116.786C292.075 112.189 257.027 136.379 247.63 168.715C246.13 173.875 245.37 179.261 244.657 184.578C241.019 185.801 237.921 188.515 234.988 190.912Z"/>
	<path fill="#2B3F7D" transform="matrix(0.195312 0 0 0.195312 0.00195312 -0.000244141)" d="M252.647 184.578C260.098 145.108 283.404 123.36 324.775 124.744C323.367 126.604 310.023 131.384 306.751 133.263C272.444 152.959 270.759 190.24 268.09 192.372L267.963 192.37C267.326 185.524 262.224 184.162 256.216 184.578C255.042 184.658 253.826 184.586 252.647 184.578Z"/>
	<defs>
		<linearGradient id="gradient_1" gradientUnits="userSpaceOnUse" x1="237.48677" y1="262.40424" x2="291.59314" y2="263.07507">
			<stop offset="0" stop-color="#283D7D"/>
			<stop offset="1" stop-color="#485EA7"/>
		</linearGradient>
	</defs>
	<path fill="url(#gradient_1)" transform="matrix(0.195312 0 0 0.195312 0.00195312 -0.000244141)" d="M256.216 238.309C261.072 237.888 265.458 237.497 267.963 232.636C271.072 257.363 291.288 269.574 291.956 273.039L291.956 291.522L291.956 291.522C287.929 291.992 282.566 291.505 278.401 291.517C260.933 291.568 252.029 292.115 236.543 282.219C243.934 267.907 246.872 250.606 246.783 234.608C249.925 234.649 253.073 234.608 256.216 234.608C256.336 235.813 256.231 237.094 256.216 238.309Z"/>
	<path fill="#FCC780" transform="matrix(0.195312 0 0 0.195312 0.00195312 -0.000244141)" d="M345.155 273.039C345.158 274.269 345.183 275.503 345.155 276.732C345.174 281.548 345.603 286.749 345.155 291.522C344.372 295.618 344.871 300.115 345.155 304.257C342.172 308.593 323.625 324.174 318.643 328.183C310.939 321.952 298.486 311.74 291.956 304.257C291.969 301.23 292.461 294.114 291.956 291.522L291.956 291.522L291.956 273.039C294.537 273.111 305.982 280.732 313.343 281.507C329.176 282.829 332.858 278.725 345.155 273.039Z"/>
	<path fill="#F7A331" transform="matrix(0.195312 0 0 0.195312 0.00195312 -0.000244141)" d="M345.155 273.039C345.158 274.269 345.183 275.503 345.155 276.732C343.597 277.542 342.41 278.731 341.068 279.835C326.192 292.068 310.362 291.552 291.956 291.522L291.956 273.039C294.537 273.111 305.982 280.732 313.343 281.507C329.176 282.829 332.858 278.725 345.155 273.039Z"/>
	<path fill="#F7A331" transform="matrix(0.195312 0 0 0.195312 0.00195312 -0.000244141)" d="M383.793 184.578C386.426 184.353 389.033 184.749 391.631 184.578C395.092 186.022 397.643 187.827 399.807 190.912C400.306 192.546 400.815 193.639 402.089 194.795L402.089 194.795C414.852 201.854 414.452 222.07 402.089 229.447C398.471 233.71 396.473 235.322 390.711 236.295L389.659 236.295C387.734 236.033 385.724 236.188 383.793 236.295L380.666 236.295C375.242 236.027 371.301 236.278 369.243 230.459C368.998 226.495 369.224 222.452 369.229 218.478L369.243 194.795C369.028 186.643 373.248 184.367 380.666 184.578L383.793 184.578Z"/>
	<path fill="#60A0EA" transform="matrix(0.195312 0 0 0.195312 0.00195312 -0.000244141)" d="M369.243 194.795C369.028 186.643 373.248 184.367 380.666 184.578L380.666 209.699C380.638 218.516 381.107 227.503 380.666 236.295C375.242 236.027 371.301 236.278 369.243 230.459C368.998 226.495 369.224 222.452 369.229 218.478L369.243 194.795Z"/>
	<path fill="#F7C721" transform="matrix(0.195312 0 0 0.195312 0.00195312 -0.000244141)" d="M383.793 184.578C386.426 184.353 389.033 184.749 391.631 184.578C395.092 186.022 397.643 187.827 399.807 190.912C400.306 192.546 400.815 193.639 402.089 194.795C402.011 199.763 402.062 204.732 402.089 209.699C397.141 209.413 385.545 209.411 380.666 209.699L380.666 184.578L383.793 184.578Z"/>
	<path fill="#E47036" transform="matrix(0.195312 0 0 0.195312 0.00195312 -0.000244141)" d="M402.089 194.795C414.852 201.854 414.452 222.07 402.089 229.447C400.989 221.056 402.116 203.931 402.089 194.795Z"/>
	<path fill="#3D5394" transform="matrix(0.195312 0 0 0.195312 0.00195312 -0.000244141)" d="M389.659 236.295L390.711 236.295C390.699 251.515 392.205 268.795 403.134 280.47C395.705 292.673 378.374 291.534 366.045 291.533L345.155 291.522C345.603 286.749 345.174 281.548 345.155 276.732C345.183 275.503 345.158 274.269 345.155 273.039C347.834 270.018 350.874 267.09 353.224 263.811C355.496 260.84 379.492 256.651 389.659 236.295Z"/>
	<defs>
		<linearGradient id="gradient_2" gradientUnits="userSpaceOnUse" x1="351.24292" y1="243.2374" x2="378.47974" y2="257.23462">
			<stop offset="0" stop-color="#94B1DE"/>
			<stop offset="1" stop-color="#BCD1FB"/>
		</linearGradient>
	</defs>
	<path fill="url(#gradient_2)" transform="matrix(0.195312 0 0 0.195312 0.00195312 -0.000244141)" d="M369.243 230.459C371.301 236.278 375.242 236.027 380.666 236.295L383.793 236.295C385.724 236.188 387.734 236.033 389.659 236.295C379.492 256.651 355.496 260.84 353.224 263.811C349.596 263.876 346.001 264.961 342.323 265.076C342.255 263.338 342.067 261.486 342.323 259.766C346.411 259.596 356.4 256.851 359.862 254.669C364.611 245.844 365.968 239.549 369.243 230.459Z"/>
	<path fill="#3D5394" transform="matrix(0.195312 0 0 0.195312 0.00195312 -0.000244141)" d="M369.243 230.459C371.301 236.278 375.242 236.027 380.666 236.295L383.793 236.295C378.518 243.02 367.635 251.663 359.862 254.669C364.611 245.844 365.968 239.549 369.243 230.459Z"/>
	<path fill="#0D7EE7" transform="matrix(0.195312 0 0 0.195312 0.00195312 -0.000244141)" d="M342.323 265.076C338.824 270.675 325.041 270.103 320.602 268.497C314.361 266.239 314.475 256.491 320.751 254.201C323.632 253.15 327.387 253.945 330.385 253.936C336.513 253.919 339.988 252.616 342.323 259.766C342.067 261.486 342.255 263.338 342.323 265.076Z"/>
	<path fill="#2B3F7D" transform="matrix(0.195312 0 0 0.195312 0.00195312 -0.000244141)" d="M341.924 211.659Q342.298 211.582 342.679 211.555Q343.059 211.528 343.44 211.551Q343.821 211.575 344.196 211.648Q344.57 211.721 344.932 211.843Q345.294 211.964 345.636 212.133Q345.979 212.301 346.296 212.513Q346.614 212.724 346.901 212.976Q347.188 213.228 347.439 213.515Q347.69 213.802 347.902 214.12Q348.113 214.438 348.281 214.78Q348.449 215.123 348.57 215.485Q348.691 215.847 348.764 216.221Q348.836 216.596 348.859 216.977Q348.882 217.358 348.855 217.739Q348.827 218.119 348.75 218.493Q348.673 218.867 348.547 219.227Q348.421 219.587 348.249 219.928Q348.077 220.269 347.862 220.584Q347.647 220.899 347.392 221.183Q347.138 221.467 346.848 221.715Q346.558 221.964 346.238 222.172Q345.918 222.379 345.573 222.544Q345.229 222.708 344.865 222.825Q344.502 222.942 344.127 223.011Q343.813 223.068 343.495 223.091Q343.177 223.113 342.858 223.101Q342.539 223.088 342.223 223.04Q341.908 222.993 341.6 222.911Q341.291 222.828 340.994 222.713Q340.697 222.597 340.414 222.45Q340.131 222.302 339.866 222.125Q339.601 221.947 339.357 221.741Q339.113 221.535 338.893 221.304Q338.674 221.072 338.481 220.818Q338.288 220.564 338.124 220.29Q337.96 220.016 337.828 219.726Q337.695 219.435 337.595 219.132Q337.495 218.829 337.429 218.517Q337.363 218.204 337.332 217.887Q337.301 217.569 337.305 217.25Q337.308 217.005 337.332 216.761Q337.356 216.517 337.4 216.276Q337.445 216.035 337.509 215.798Q337.574 215.562 337.658 215.332Q337.743 215.102 337.846 214.88Q337.95 214.657 338.072 214.445Q338.194 214.232 338.333 214.031Q338.473 213.829 338.629 213.64Q338.785 213.451 338.957 213.276Q339.128 213.101 339.314 212.941Q339.5 212.781 339.698 212.638Q339.897 212.494 340.107 212.368Q340.317 212.241 340.537 212.133Q340.757 212.025 340.985 211.936Q341.214 211.847 341.449 211.778Q341.684 211.708 341.924 211.659Z"/>
	<path fill="#3D5394" transform="matrix(0.195312 0 0 0.195312 0.00195312 -0.000244141)" d="M290.122 216.201Q290.141 216.068 290.166 215.935Q290.191 215.803 290.222 215.672Q290.253 215.541 290.29 215.412Q290.328 215.283 290.371 215.155Q290.414 215.028 290.464 214.902Q290.513 214.777 290.568 214.654Q290.623 214.531 290.684 214.411Q290.744 214.291 290.811 214.174Q290.877 214.057 290.949 213.943Q291.02 213.829 291.097 213.718Q291.174 213.608 291.256 213.501Q291.339 213.395 291.425 213.292Q291.513 213.189 291.604 213.091Q291.696 212.992 291.792 212.898Q291.888 212.804 291.989 212.714Q292.089 212.625 292.194 212.54Q292.299 212.455 292.407 212.376Q292.516 212.296 292.628 212.221Q292.74 212.147 292.855 212.078Q292.971 212.008 293.089 211.945Q293.208 211.881 293.329 211.823Q293.451 211.765 293.575 211.713Q293.699 211.66 293.825 211.614Q293.952 211.567 294.08 211.527Q294.208 211.486 294.339 211.452Q294.469 211.418 294.6 211.389Q294.732 211.361 294.865 211.339Q294.997 211.317 295.131 211.301Q295.265 211.285 295.399 211.276Q295.533 211.266 295.668 211.263Q295.803 211.26 295.937 211.263Q296.072 211.266 296.206 211.275Q296.34 211.284 296.474 211.3Q296.608 211.316 296.741 211.338Q296.873 211.36 297.005 211.388Q297.137 211.416 297.267 211.45Q297.397 211.484 297.526 211.525Q297.654 211.565 297.78 211.611Q297.907 211.658 298.031 211.71Q298.155 211.762 298.277 211.82Q298.398 211.878 298.517 211.942Q298.635 212.005 298.751 212.074Q298.867 212.143 298.979 212.218Q299.091 212.292 299.199 212.372Q299.308 212.451 299.413 212.536Q299.518 212.621 299.618 212.71Q299.719 212.799 299.815 212.893Q299.912 212.987 300.003 213.086Q300.095 213.184 300.182 213.287Q300.269 213.39 300.352 213.496Q300.434 213.603 300.511 213.713Q300.588 213.824 300.66 213.937Q300.732 214.051 300.798 214.168Q300.865 214.286 300.926 214.406Q300.986 214.526 301.042 214.649Q301.097 214.771 301.146 214.897Q301.196 215.022 301.239 215.149Q301.282 215.277 301.32 215.406Q301.357 215.535 301.389 215.666Q301.42 215.797 301.445 215.929Q301.47 216.062 301.489 216.195Q301.508 216.328 301.521 216.462Q301.533 216.596 301.54 216.731Q301.546 216.865 301.546 217Q301.546 217.234 301.527 217.468Q301.508 217.702 301.47 217.933Q301.432 218.164 301.375 218.392Q301.318 218.619 301.243 218.841Q301.168 219.063 301.075 219.278Q300.982 219.493 300.872 219.7Q300.762 219.907 300.635 220.104Q300.508 220.301 300.366 220.488Q300.224 220.674 300.067 220.848Q299.91 221.022 299.739 221.182Q299.568 221.343 299.385 221.489Q299.202 221.635 299.007 221.766Q298.813 221.897 298.608 222.011Q298.403 222.126 298.19 222.223Q297.977 222.32 297.757 222.4Q297.536 222.48 297.31 222.541Q297.084 222.602 296.853 222.645Q296.623 222.688 296.39 222.712Q296.156 222.736 295.922 222.74Q295.688 222.745 295.454 222.731Q295.22 222.716 294.988 222.683Q294.756 222.65 294.527 222.597Q294.299 222.545 294.075 222.474Q293.852 222.404 293.635 222.315Q293.418 222.227 293.209 222.12Q293 222.014 292.8 221.892Q292.6 221.769 292.411 221.63Q292.222 221.492 292.045 221.338Q291.868 221.185 291.704 221.017Q291.54 220.85 291.39 220.669Q291.241 220.489 291.106 220.297Q290.971 220.105 290.853 219.903Q290.61 219.487 290.439 219.037Q290.268 218.586 290.175 218.114Q290.081 217.641 290.068 217.16Q290.055 216.678 290.122 216.201Z"/>
	<path fill="#F7A331" transform="matrix(0.195312 0 0 0.195312 0.00195312 -0.000244141)" d="M318.643 221.642C327.587 223.524 307.585 230.455 317.412 236.295C319.369 236.322 321.914 235.521 323.639 236.594C324.432 238.09 323.625 238.661 322.274 239.171C318.602 239.568 311.416 238.624 310.79 233.871C310.359 230.602 316.513 224.23 318.643 221.642Z"/>
	<path fill="#60A0EA" transform="matrix(0.195312 0 0 0.195312 0.00195312 -0.000244141)" d="M256.216 184.578C262.224 184.162 267.326 185.524 267.963 192.37C267.972 195.864 268.041 199.37 267.963 202.862L267.963 232.636C265.458 237.497 261.072 237.888 256.216 238.309C256.231 237.094 256.336 235.813 256.216 234.608C253.073 234.608 249.925 234.649 246.783 234.608C241.915 234.164 238.898 232.144 234.988 229.447C235.171 227.126 235.023 224.732 235.015 222.403L234.988 209.699C235.003 203.437 234.893 197.174 234.988 190.912L234.988 190.912C237.921 188.515 241.019 185.801 244.657 184.578C247.205 184.952 250.064 184.603 252.647 184.578C253.826 184.586 255.042 184.658 256.216 184.578Z"/>
	<path fill="#F7C721" transform="matrix(0.195312 0 0 0.195312 0.00195312 -0.000244141)" d="M252.647 184.578C253.826 184.586 255.042 184.658 256.216 184.578L256.216 210.968C248.628 210.326 243.504 210.888 234.988 209.699C235.003 203.437 234.893 197.174 234.988 190.912L234.988 190.912C237.921 188.515 241.019 185.801 244.657 184.578C247.205 184.952 250.064 184.603 252.647 184.578Z"/>
	<path fill="#F7A331" transform="matrix(0.195312 0 0 0.195312 0.00195312 -0.000244141)" d="M234.988 209.699C243.504 210.888 248.628 210.326 256.216 210.968C256.204 218.84 256.052 226.739 256.216 234.608C253.073 234.608 249.925 234.649 246.783 234.608C241.915 234.164 238.898 232.144 234.988 229.447C235.171 227.126 235.023 224.732 235.015 222.403L234.988 209.699Z"/>
	<path fill="#E47036" transform="matrix(0.195312 0 0 0.195312 0.00195312 -0.000244141)" d="M234.988 190.912C234.893 197.174 235.003 203.437 234.988 209.699L235.015 222.403C235.023 224.732 235.171 227.126 234.988 229.447L234.36 228.818C223.027 217.311 223.238 202.171 234.988 190.912Z"/>
</svg>
