<?xml version="1.0" encoding="utf-8" ?>
<svg xmlns="http://www.w3.org/2000/svg" xmlns:xlink="http://www.w3.org/1999/xlink" width="100" height="100">
	<path fill="#4D729D" transform="matrix(0.195312 0 0 0.195312 0.00195312 -0.000244141)" d="M208.117 104.947C211.157 104.351 213.781 103.066 216.733 102.257C267.027 88.4718 326.334 105.442 362.506 142.769C366.474 146.864 370.147 151.374 374.235 155.325C378.845 152.878 383.438 151.082 388.386 149.465C394.738 140.232 401.738 149.158 398.102 153.64C395.67 156.637 392.194 156.366 389.527 154.008C384.822 155.003 380.963 156.612 376.731 158.825C381.01 163.495 385.882 169.84 388.386 175.663C393.272 177.545 395.683 181.158 391.734 185.646C397.61 190.972 404.82 217.467 404.757 226.071L430.818 226.053C437.313 226.049 448.44 223.476 448.913 232.796C449.129 237.054 448.991 241.374 448.99 245.638L448.98 428.495C448.988 432.951 449.123 437.445 448.914 441.895C448.356 453.759 437.191 451.355 428.801 451.353L251.614 451.364C232.845 451.36 232.251 450.811 232.267 430.009L232.278 409.276L232.278 374.617C225.188 373.725 203.205 357.652 194.557 352.179L194.275 352.003C191.314 362.012 183.385 374.893 174.444 380.945C170.129 376.124 177.831 372.252 181.861 367.51C190.52 357.322 191.849 346.796 191.849 333.964L174.444 333.964C174.361 355.727 168.131 356.911 154.391 370.736C152.419 372.72 147.459 379.006 144.6 379.203C139.873 377.298 151.481 368.124 152.965 366.646C149.543 362.675 145.581 359.305 142.297 355.16C123.789 331.796 109.809 301.619 107.992 271.487L91.3879 271.505C71.8621 271.53 63.7444 270.374 63.7379 246.995L63.7301 125.542C63.7314 123.394 63.5617 121.104 63.7949 118.978C65.7131 101.487 88.4284 104.939 100.467 104.942L142.16 104.953C146.943 104.951 151.724 104.966 156.506 104.866C165.288 104.684 167.453 103.245 174.444 109.201C175.855 109.825 179.479 109.423 181.048 109.201C191.606 102.136 194.849 104.895 208.117 104.947Z"/>
	<path fill="#6FD2F9" transform="matrix(0.195312 0 0 0.195312 0.00195312 -0.000244141)" d="M174.444 109.201C175.855 109.825 179.479 109.423 181.048 109.201C182.398 109.552 184.406 109.261 185.818 109.242C209.485 108.926 233.193 109.193 256.864 109.198L280.82 109.195C303.079 109.195 302.083 109.479 302.074 130.445L302.063 210.718C293.37 210.899 284.631 210.721 275.934 210.721L67.9529 210.718L67.9493 131.407C67.9459 105.033 75.2975 109.197 97.5559 109.195L168.455 109.193C170.472 109.198 172.433 109.54 174.444 109.201Z"/>
	<path fill="#4D729D" transform="matrix(0.195312 0 0 0.195312 0.00195312 -0.000244141)" d="M166.085 124.155L181.048 124.155C182.449 127.071 183.437 130.275 184.499 133.327L196.367 168.319C198.157 173.663 199.767 179.08 201.473 184.453C206.666 200.807 208.124 197.544 187.819 197.504C185.169 192.467 183.954 186.554 181.966 181.21L177.562 181.21L161.487 181.21C158.695 186.38 157.911 192.35 155.259 197.504C153.241 197.771 139.972 197.742 138.268 197.249C136.946 193.623 150.215 157.711 152.085 151.918L157.236 135.829C158.472 131.959 159.522 127.726 161.487 124.155L166.085 124.155Z"/>
	<path fill="#FED78F" transform="matrix(0.195312 0 0 0.195312 0.00195312 -0.000244141)" d="M164.466 128.278C168.822 128.167 173.204 128.273 177.562 128.278C183.588 138.514 196.433 181.054 200.01 193.244L190.321 193.244C188.58 188.248 187.221 181.182 184.549 176.791C182.616 176.733 180.67 176.785 178.735 176.791C171.888 176.806 165.031 176.659 158.186 176.791C155.481 182.227 154.687 188.366 151.723 193.745L142.481 193.745C145.036 188.832 146.412 183.114 148.102 177.851L157.589 148.583C159.746 141.774 161.408 134.762 164.466 128.278Z"/>
	<path fill="#4D729D" transform="matrix(0.195312 0 0 0.195312 0.00195312 -0.000244141)" d="M170.293 137.636C175.086 137.774 181.536 163.591 182.254 168.112L182.059 168.345L182.28 168.74C181.052 169.908 174.178 169.296 172.375 169.278C170.766 169.274 160.708 170.103 160.693 168.295C160.67 165.351 168.643 140.134 170.293 137.636Z"/>
	<path fill="#6FD2F9" transform="matrix(0.195312 0 0 0.195312 0.00195312 -0.000244141)" d="M171.257 147.896C172.846 150.156 175.771 161.07 177.562 165.023L172.375 165.023L166.085 165.023C167.566 159.284 169.122 153.43 171.257 147.896Z"/>
	<path fill="#4D729D" transform="matrix(0.195312 0 0 0.195312 0.00195312 -0.000244141)" d="M206.479 141.404L223.634 141.404C224.025 151.989 223.646 162.748 223.647 173.35L223.648 187.469C223.648 190.095 224.511 195.291 222.873 197.504C220.265 197.51 207.379 198.656 206.27 196.244C205.44 194.44 204.944 144.856 206.479 141.404Z"/>
	<path fill="#FED78F" transform="matrix(0.195312 0 0 0.195312 0.00195312 -0.000244141)" d="M210.237 145.735L219.478 145.735L219.478 193.244L210.237 193.244L210.237 145.735Z"/>
	<path fill="#4D729D" transform="matrix(0.195312 0 0 0.195312 0.00195312 -0.000244141)" d="M210.237 122.778C214.62 122.57 221.067 121.685 223.467 126.46C225.871 131.242 222.81 136.231 218.433 138.391C203.764 142.213 199.734 125.845 210.237 122.778Z"/>
	<path fill="#FED78F" transform="matrix(0.195312 0 0 0.195312 0.00195312 -0.000244141)" d="M213.337 127.295C221.378 126.899 222.732 132.694 215.726 134.764C208.866 134.929 205.188 128.794 213.337 127.295Z"/>
	<path fill="#A6E6EE" transform="matrix(0.195312 0 0 0.195312 0.00195312 -0.000244141)" d="M118.363 271.487L232.278 271.487L232.278 374.617C225.188 373.725 203.205 357.652 194.557 352.179L194.275 352.003C191.314 362.012 183.385 374.893 174.444 380.945C170.129 376.124 177.831 372.252 181.861 367.51C190.52 357.322 191.849 346.796 191.849 333.964L174.444 333.964C174.361 355.727 168.131 356.911 154.391 370.736C152.419 372.72 147.459 379.006 144.6 379.203C139.873 377.298 151.481 368.124 152.965 366.646C149.543 362.675 145.581 359.305 142.297 355.16C123.789 331.796 109.809 301.619 107.992 271.487L118.363 271.487Z"/>
	<path fill="#D9ECF0" transform="matrix(0.195312 0 0 0.195312 0.00195312 -0.000244141)" d="M107.992 271.487L118.363 271.487C122.176 272.179 133.737 271.486 138.238 271.487C143.188 293.565 148.26 309.788 162.707 328.454C164.88 331.261 167.011 335.28 170.293 336.895C171.149 352.503 162.566 356.599 152.965 366.646C149.543 362.675 145.581 359.305 142.297 355.16C123.789 331.796 109.809 301.619 107.992 271.487Z"/>
	<path fill="#4D729D" transform="matrix(0.195312 0 0 0.195312 0.00195312 -0.000244141)" d="M178.735 285.285C182.596 285.22 186.46 285.267 190.321 285.285C194.885 291.32 199.796 297.225 204.537 303.127C216.572 318.105 211.884 315.255 195.747 315.315C195.759 326.35 196.676 341.533 194.275 352.003C191.314 362.012 183.385 374.893 174.444 380.945C170.129 376.124 177.831 372.252 181.861 367.51C190.52 357.322 191.849 346.796 191.849 333.964L174.444 333.964C174.361 355.727 168.131 356.911 154.391 370.736C152.419 372.72 147.459 379.006 144.6 379.203C139.873 377.298 151.481 368.124 152.965 366.646C162.566 356.599 171.149 352.503 170.293 336.895C170.306 329.706 170.407 322.503 170.293 315.315C167.766 315.333 156.575 317.161 157.445 312.42C157.602 311.558 176.746 287.02 178.735 285.285Z"/>
	<path fill="#A6E6EE" transform="matrix(0.195312 0 0 0.195312 0.00195312 -0.000244141)" d="M174.444 315.315C180.242 315.311 186.053 315.225 191.849 315.315L191.849 333.964L174.444 333.964L174.444 315.315Z"/>
	<path fill="white" transform="matrix(0.195312 0 0 0.195312 0.00195312 -0.000244141)" d="M181.048 289.562C183.305 289.535 185.561 289.546 187.819 289.562C194.192 296.399 200.029 303.955 205.838 311.278L187.819 311.278L162.978 311.278C166.993 306.168 177.112 292.754 181.048 289.562Z"/>
	<path fill="#A6E6EE" transform="matrix(0.195312 0 0 0.195312 0.00195312 -0.000244141)" d="M306.18 143.11C315.434 145.591 348.529 167.8 351.033 176.791C351.59 177.442 352.094 178.081 352.565 178.797C355.444 180.478 362.264 190.125 364.179 193.244C368.527 188.039 375.272 183.064 381.916 181.359C382.288 181.263 382.161 181.349 382.331 181.21C383.554 178.367 385.025 176.063 388.386 175.663C393.272 177.545 395.683 181.158 391.734 185.646C397.61 190.972 404.82 217.467 404.757 226.071C403.512 226.111 402.268 226.086 401.024 226.071C398.203 226.403 394.993 226.099 392.137 226.092L306.18 226.071L306.18 143.11Z"/>
	<path fill="#D9ECF0" transform="matrix(0.195312 0 0 0.195312 0.00195312 -0.000244141)" d="M384.424 185.646C386.832 186.596 389.352 186.871 391.734 185.646C397.61 190.972 404.82 217.467 404.757 226.071C403.512 226.111 402.268 226.086 401.024 226.071C398.707 225.74 396.072 226.036 393.72 226.045L378.319 226.071C376.966 218.451 371.83 201.261 366.062 197.504C370.767 191.647 376.767 186.605 384.424 185.646Z"/>
	<path fill="#4D729D" transform="matrix(0.195312 0 0 0.195312 0.00195312 -0.000244141)" d="M387.077 206.028C393.958 205.819 394.648 214.203 388.386 216.034C380.877 216.268 380.641 208.389 387.077 206.028Z"/>
	<path fill="#4D729D" transform="matrix(0.195312 0 0 0.195312 0.00195312 -0.000244141)" d="M388.386 175.663C393.272 177.545 395.683 181.158 391.734 185.646C389.352 186.871 386.832 186.596 384.424 185.646C376.767 186.605 370.767 191.647 366.062 197.504C360.996 204.435 359.62 215.408 357.929 215.572C350.29 216.316 361.493 196.146 364.179 193.244C368.527 188.039 375.272 183.064 381.916 181.359C382.288 181.263 382.161 181.349 382.331 181.21C383.554 178.367 385.025 176.063 388.386 175.663Z"/>
	<path fill="#629EC3" transform="matrix(0.195312 0 0 0.195312 0.00195312 -0.000244141)" d="M387.779 180.146Q387.835 180.112 387.894 180.083Q387.953 180.054 388.015 180.031Q388.076 180.008 388.14 179.991Q388.203 179.974 388.268 179.963Q388.333 179.952 388.399 179.947Q388.464 179.942 388.53 179.943Q388.596 179.945 388.661 179.953Q388.727 179.96 388.791 179.974Q388.855 179.988 388.918 180.008Q388.98 180.028 389.041 180.054Q389.101 180.08 389.159 180.111Q389.217 180.143 389.271 180.18Q389.326 180.216 389.377 180.258Q389.427 180.3 389.474 180.347Q389.52 180.393 389.562 180.444Q389.604 180.495 389.641 180.549Q389.678 180.603 389.709 180.661Q389.741 180.719 389.767 180.779Q389.793 180.84 389.813 180.902Q389.833 180.965 389.847 181.029Q389.861 181.094 389.869 181.159Q389.877 181.224 389.878 181.29Q389.88 181.356 389.875 181.422Q389.87 181.487 389.859 181.552Q389.848 181.617 389.831 181.68Q389.814 181.744 389.791 181.806Q389.768 181.867 389.739 181.926Q389.711 181.986 389.676 182.042Q389.642 182.098 389.602 182.15Q389.563 182.203 389.519 182.252Q389.474 182.3 389.425 182.344Q389.377 182.389 389.324 182.428Q389.249 182.484 389.168 182.529Q389.087 182.574 389 182.608Q388.913 182.641 388.823 182.663Q388.732 182.685 388.64 182.694Q388.547 182.704 388.454 182.701Q388.361 182.698 388.27 182.682Q388.178 182.667 388.089 182.639Q388 182.611 387.916 182.572Q387.832 182.533 387.754 182.482Q387.675 182.432 387.605 182.372Q387.534 182.311 387.472 182.242Q387.41 182.173 387.358 182.095Q387.306 182.018 387.264 181.935Q387.223 181.852 387.193 181.764Q387.164 181.676 387.146 181.584Q387.128 181.493 387.123 181.4Q387.118 181.307 387.125 181.214Q387.132 181.122 387.152 181.031Q387.171 180.94 387.203 180.852Q387.235 180.765 387.278 180.682Q387.321 180.6 387.375 180.524Q387.429 180.448 387.492 180.38Q387.556 180.312 387.628 180.253Q387.7 180.195 387.779 180.146Z"/>
	<path fill="#4D729D" transform="matrix(0.195312 0 0 0.195312 0.00195312 -0.000244141)" d="M351.033 176.791C351.59 177.442 352.094 178.081 352.565 178.797C351.438 180.923 346.639 188.358 344.365 189.243C337.652 188.122 347.922 177.466 351.033 176.791Z"/>
	<path fill="#4D729D" transform="matrix(0.195312 0 0 0.195312 0.00195312 -0.000244141)" d="M337.511 197.978C342.691 198.641 339.463 204.249 338.932 207.658C338.573 209.972 339.148 213.018 337.511 214.829C329.3 215.825 335.813 200.181 337.511 197.978Z"/>
	<path fill="#D9ECF0" transform="matrix(0.195312 0 0 0.195312 0.00195312 -0.000244141)" d="M208.117 104.947C211.157 104.351 213.781 103.066 216.733 102.257C267.027 88.4718 326.334 105.442 362.506 142.769C366.474 146.864 370.147 151.374 374.235 155.325C378.845 152.878 383.438 151.082 388.386 149.465C394.738 140.232 401.738 149.158 398.102 153.64C395.67 156.637 392.194 156.366 389.527 154.008C384.822 155.003 380.963 156.612 376.731 158.825C381.01 163.495 385.882 169.84 388.386 175.663C385.025 176.063 383.554 178.367 382.331 181.21C382.161 181.349 382.288 181.263 381.916 181.359C375.272 183.064 368.527 188.039 364.179 193.244C362.264 190.125 355.444 180.478 352.565 178.797C352.094 178.081 351.59 177.442 351.033 176.791C348.529 167.8 315.434 145.591 306.18 143.11C306.166 134.556 308.556 114.298 302.044 108.34C296.783 103.526 289.072 104.927 282.511 104.937L225.574 104.949C219.771 104.939 213.909 104.612 208.117 104.947Z"/>
	<path fill="#4D729D" transform="matrix(0.195312 0 0 0.195312 0.00195312 -0.000244141)" d="M388.386 149.465C394.738 140.232 401.738 149.158 398.102 153.64C395.67 156.637 392.194 156.366 389.527 154.008C384.822 155.003 380.963 156.612 376.731 158.825C373.22 160.39 355.937 175.516 357.679 167.653C358.351 164.617 371.044 157.121 374.235 155.325C378.845 152.878 383.438 151.082 388.386 149.465Z"/>
	<path fill="#A6E6EE" transform="matrix(0.195312 0 0 0.195312 0.00195312 -0.000244141)" d="M394.201 149.465C395.975 150.392 394.821 151.467 393.44 152.164C391.441 150.976 392.755 150.408 394.201 149.465Z"/>
	<path fill="white" transform="matrix(0.195312 0 0 0.195312 0.00195312 -0.000244141)" d="M241.544 230.109L416.667 230.104C421.158 230.103 443.536 228.125 444.45 232.435C445.308 236.484 444.827 241.397 444.827 245.553L444.788 434.362C444.84 440.061 446.92 446.535 439.311 447.467C425.615 447.643 411.896 447.469 398.197 447.469L268.217 447.47C262.508 447.47 237.815 450.193 236.629 443.291C235.719 437.998 236.278 427.305 236.277 421.369L236.281 283.019C236.281 277.193 235.302 233.063 236.893 231.175C237.963 229.906 240.037 230.145 241.544 230.109Z"/>
	<defs>
		<linearGradient id="gradient_0" gradientUnits="userSpaceOnUse" x1="345.44446" y1="372.19788" x2="334.36331" y2="262.89404">
			<stop offset="0" stop-color="#F9B16F"/>
			<stop offset="1" stop-color="#FFDEAC"/>
		</linearGradient>
	</defs>
	<path fill="url(#gradient_0)" transform="matrix(0.195312 0 0 0.195312 0.00195312 -0.000244141)" d="M317.143 274.463C325.814 252.327 353.613 252.326 365.121 274.463C387.952 267.201 405.782 281.802 399.119 305.7C418.815 313.688 417.619 338.319 399.853 350.328C399.725 356.14 399.849 361.983 399.853 367.799L395.196 367.799L286.508 367.799C279.212 368.782 282.244 355.16 282.264 348.976C263.875 340.472 264.792 312.619 282.264 304.933C277.482 282.016 295.292 266.99 317.143 274.463Z"/>
	<path fill="#4D729D" transform="matrix(0.195312 0 0 0.195312 0.00195312 -0.000244141)" d="M317.143 274.463C325.814 252.327 353.613 252.326 365.121 274.463C387.952 267.201 405.782 281.802 399.119 305.7C418.815 313.688 417.619 338.319 399.853 350.328C399.725 356.14 399.849 361.983 399.853 367.799L395.196 367.799C395.188 361.165 395.09 354.518 395.196 347.885L395.454 347.688C397.239 346.352 399.239 345.373 401.042 344.074C411.735 336.373 411.843 318.856 400.597 311.512C392.19 306.022 394.499 309.613 396.144 299.889C398.382 286.663 386.044 273.616 372.69 276.434C360.757 278.951 365.964 283.019 359.298 272.261C350.043 257.327 329.887 259.261 321.515 274.541C317.823 281.279 317.942 279.323 311.64 277.363C297.398 272.934 284.444 286.191 285.73 300.215C286.6 309.687 288.549 305.285 280.709 310.968C272.642 316.816 270.654 329.76 276.148 337.903C278.781 341.805 282.753 344.126 286.508 346.799L286.535 360.751C286.542 363.073 286.711 365.489 286.508 367.799C279.212 368.782 282.244 355.16 282.264 348.976C263.875 340.472 264.792 312.619 282.264 304.933C277.482 282.016 295.292 266.99 317.143 274.463Z"/>
	<path fill="#3B5F90" transform="matrix(0.195312 0 0 0.195312 0.00195312 -0.000244141)" d="M330.731 294.46C331.857 294.593 332.821 294.781 333.633 295.638C334.757 296.825 355.029 341.196 356.898 345.617C357.594 347.262 359.216 349.775 357.346 351.213C352.679 354.799 347.683 338.766 346.034 335.521L333.227 335.521L318.882 335.521C309.158 362.37 306.308 350.898 306.32 350.49C306.367 348.852 321.496 314.654 323.228 310.534C325.016 306.281 327.231 297.343 330.731 294.46Z"/>
	<path fill="#FED78F" transform="matrix(0.195312 0 0 0.195312 0.00195312 -0.000244141)" d="M331.467 304.111C333.297 304.939 341.741 326.132 343.422 329.973L333.227 329.973C329.27 329.991 325.313 330.02 321.356 329.973L331.467 304.111Z"/>
	<path fill="#3B5F90" transform="matrix(0.195312 0 0 0.195312 0.00195312 -0.000244141)" d="M371.724 307.986C375.447 308.527 374.243 315.577 374.241 318.21L374.252 331.026C374.258 336.743 376.551 349.296 371.724 352.003C370.64 351.93 369.541 351.515 368.961 350.538C368.459 349.691 368.318 311.716 369.008 310.002C369.465 308.866 370.68 308.405 371.724 307.986Z"/>
	<path fill="#3B5F90" transform="matrix(0.195312 0 0 0.195312 0.00195312 -0.000244141)" d="M370.03 293.733C375.95 292.269 377.226 297.93 372.742 300.738C367.74 301.225 364.973 295.917 370.03 293.733Z"/>
	<path fill="#D9ECF0" transform="matrix(0.195312 0 0 0.195312 0.00195312 -0.000244141)" d="M306.18 413.819L381.752 413.819C381.76 418.806 381.664 423.793 381.752 428.78C377.616 429.057 373.36 428.794 369.209 428.79L343.422 428.78L266.896 428.78L266.896 413.819L306.18 413.819Z"/>
	<path fill="#D9ECF0" transform="matrix(0.195312 0 0 0.195312 0.00195312 -0.000244141)" d="M266.896 385.315L381.752 385.315L381.752 399.966L266.896 399.966L266.896 385.315Z"/>
	<path fill="#6FD2F9" transform="matrix(0.195312 0 0 0.195312 0.00195312 -0.000244141)" d="M395.196 412.286L411.991 412.286L411.991 428.78L395.196 428.78L395.196 412.286Z"/>
	<path fill="#A6E6EE" transform="matrix(0.195312 0 0 0.195312 0.00195312 -0.000244141)" d="M395.196 384.199L411.991 384.199L411.991 399.966L395.196 399.966C395.225 395.672 394.625 388.008 395.196 384.199Z"/>
	<path fill="#D9ECF0" transform="matrix(0.195312 0 0 0.195312 0.00195312 -0.000244141)" d="M67.9529 214.829L302.063 214.829C302.05 218.575 302.21 222.327 302.063 226.071L260.493 226.071L245.967 226.03C229.568 225.949 232.272 229.715 232.268 243.96L232.278 267.477L95.7592 267.49C68.2586 267.495 67.9204 266.286 67.936 241.4L67.9529 214.829Z"/>
	<path fill="#4D729D" transform="matrix(0.195312 0 0 0.195312 0.00195312 -0.000244141)" d="M122.344 231.102C125.226 231.012 141.668 229.98 142.39 232.435C142.856 234.019 144.608 252.974 139.922 253.687C136.62 253.741 122.549 254.055 120.324 253.503C119.112 251.686 119.045 233.285 120.026 231.636C120.698 231.133 121.537 231.172 122.344 231.102Z"/>
	<path fill="#EE9D8F" transform="matrix(0.195312 0 0 0.195312 0.00195312 -0.000244141)" d="M123.987 235.342L138.238 235.342L138.238 249.522L123.987 249.522L123.987 235.342Z"/>
	<path fill="#4D729D" transform="matrix(0.195312 0 0 0.195312 0.00195312 -0.000244141)" d="M89.7165 231.102C92.6292 231.093 107.56 230.125 109.196 232.019C109.601 235.24 111.113 252.858 107.992 253.687C105.185 253.687 89.1544 254.202 87.6896 253.074C86.9192 249.738 86.8765 234.881 87.5912 231.558C88.1923 231.085 88.9837 231.149 89.7165 231.102Z"/>
	<path fill="#6FD2F9" transform="matrix(0.195312 0 0 0.195312 0.00195312 -0.000244141)" d="M91.4869 235.342L105.207 235.342C105.207 237.252 105.566 248.934 105.207 249.522L91.4869 249.522C91.5074 244.881 91.5712 240.256 91.1762 235.626L91.4869 235.342Z"/>
	<path fill="#D9ECF0" transform="matrix(0.195312 0 0 0.195312 0.00195312 -0.000244141)" d="M194.275 352.003L194.557 352.179C203.205 357.652 225.188 373.725 232.278 374.617L232.278 409.276C217.869 409.086 198.737 393.735 186.194 390.766C186.162 386.713 184.744 387.492 181.418 386.843L181.048 386.769C178.675 384.95 175.955 383.734 174.444 380.945C183.385 374.893 191.314 362.012 194.275 352.003Z"/>
	<path fill="#6FD2F9" transform="matrix(0.195312 0 0 0.195312 0.00195312 -0.000244141)" d="M144.537 379.777C148.356 381.036 150.175 383.009 151.723 386.769C151.745 388.102 151.774 389.433 151.723 390.766C149.709 393.556 147.797 394.881 144.537 395.872C133.192 392.91 134.397 383.171 144.537 379.777Z"/>
	<path fill="#4D729D" transform="matrix(0.195312 0 0 0.195312 0.00195312 -0.000244141)" d="M381.752 104.947C385.264 105.584 406.141 128.282 406.248 131.017C406.287 132.021 405.409 132.766 404.757 133.395C403.229 132.828 383.701 111.526 381.318 109.053C379.39 107.051 379.553 106.503 381.752 104.947Z"/>
	<path fill="#4D729D" transform="matrix(0.195312 0 0 0.195312 0.00195312 -0.000244141)" d="M343.422 78.1117C346.571 78.8701 375.652 94.0364 370.03 99.0552C365.881 98.118 360.367 92.8213 356.617 90.3962C352.537 87.7579 338.675 82.5408 343.422 78.1117Z"/>
	<path fill="#4D729D" transform="matrix(0.195312 0 0 0.195312 0.00195312 -0.000244141)" d="M302.063 61.6735C307.217 61.8299 330.565 70.8001 331.784 73.0798C331.946 74.3652 331.46 75.1305 330.731 76.1387C329.931 76.1041 302.176 65.7447 301.338 65.3211C300.501 63.9027 301.002 62.8545 302.063 61.6735Z"/>
	<path fill="#4D729D" transform="matrix(0.195312 0 0 0.195312 0.00195312 -0.000244141)" d="M67.9529 293.733C68.693 293.786 69.2041 293.767 69.7825 294.297C72.2779 300.621 73.3291 308.497 75.9819 315.492C77.0914 318.418 80.7265 323.65 77.7252 326.181C71.6345 326.192 66.0053 295.884 66.5244 294.856C66.883 294.146 67.2883 294.05 67.9529 293.733Z"/>
	<path fill="#4D729D" transform="matrix(0.195312 0 0 0.195312 0.00195312 -0.000244141)" d="M151.723 386.769L181.048 386.769L181.418 386.843C184.744 387.492 186.162 386.713 186.194 390.766C178.094 392.844 160.941 389.372 151.723 390.766C151.774 389.433 151.745 388.102 151.723 386.769Z"/>
	<path fill="#4D729D" transform="matrix(0.195312 0 0 0.195312 0.00195312 -0.000244141)" d="M411.991 141.404C418.175 140.942 429.393 166.429 429.239 168.089C428.9 168.753 428.398 168.95 427.768 169.278C424.333 170.319 421.435 160.255 419.731 157.218C417.739 153.668 409.274 144.098 411.991 141.404Z"/>
	<path fill="#4D729D" transform="matrix(0.195312 0 0 0.195312 0.00195312 -0.000244141)" d="M200.01 62.805C201.643 62.9479 202.961 63.0968 204.123 64.4232C204.986 67.8086 195.131 69.2128 192.942 69.9252C187.65 71.6474 182.6 73.7877 177.562 76.1387C175.635 76.6725 173.933 76.5763 173.808 74.2287C175.391 70.5638 195.92 64.4934 200.01 62.805Z"/>
	<path fill="#4D729D" transform="matrix(0.195312 0 0 0.195312 0.00195312 -0.000244141)" d="M81.6202 335.521C84.0522 335.78 84.7524 337.461 85.8443 339.445C89.9774 346.952 94.0053 352.662 98.2438 359.683C99.4252 361.64 99.5572 362.421 97.8668 363.981C93.8426 364.221 80.2757 339.319 80.4959 337.174C80.5724 336.429 81.1087 335.999 81.6202 335.521Z"/>
	<path fill="#4D729D" transform="matrix(0.195312 0 0 0.195312 0.00195312 -0.000244141)" d="M241.544 55.9395C243.801 55.6906 248.395 55.8456 246.047 59.2996C244.643 60.048 224.271 61.9235 219.478 62.805C217.728 63.3266 213.736 62.2923 215.814 60.0651C218.255 57.4498 237.18 56.1974 241.544 55.9395Z"/>
	<path fill="#4D729D" transform="matrix(0.195312 0 0 0.195312 0.00195312 -0.000244141)" d="M260.493 55.9395C266.326 55.2855 297.721 56.7234 287.98 62.805C280.339 61.7266 272.879 60.1953 265.143 59.8937C263.723 59.8383 262.074 59.9991 260.698 59.695C258.584 59.2277 258.399 56.5523 260.493 55.9395Z"/>
	<path fill="#4D729D" transform="matrix(0.195312 0 0 0.195312 0.00195312 -0.000244141)" d="M160.626 80.2588C163.31 79.848 165.244 81.7837 162.51 83.7573C155.713 88.6645 149.404 92.0371 142.481 97.4967C140.786 98.0094 138.951 96.7699 139.626 94.9507C140.889 91.5469 156.866 82.0925 160.626 80.2588Z"/>
	<path fill="#4D729D" transform="matrix(0.195312 0 0 0.195312 0.00195312 -0.000244141)" d="M106.302 371.85C108.685 372.547 117.417 379.52 114.873 384.199C112.081 383.349 102.409 375.938 106.302 371.85Z"/>
</svg>
