<?xml version="1.0" encoding="utf-8" ?>
<svg xmlns="http://www.w3.org/2000/svg" xmlns:xlink="http://www.w3.org/1999/xlink" width="100" height="100">
	<path fill="#4AACF3" transform="matrix(0.195312 0 0 0.195312 0 -0.000244141)" d="M340.96 368.467C333.71 375.561 325.472 382.286 316.984 387.782C250.122 431.078 158.743 405.907 118.979 338.546C89.3072 288.282 96.4304 220.596 134.01 176.3C184.463 116.829 274.088 108.5 334.377 158.85C340.706 164.135 346.517 170.191 351.954 176.38C357.627 171.124 363.308 164.247 369.301 159.671Q371.416 162.377 373.861 164.789Q376.307 167.201 379.042 169.278C374.876 172.958 363.871 183.277 360.868 187.592C364.271 191.384 366.777 196.116 369.203 200.576C392.133 242.744 390.465 298.45 364.307 338.832C360.555 344.624 353.509 352.782 350.939 358.279L350.939 358.279C348.831 360.748 346.578 363.126 344.25 365.387L340.96 368.467L340.96 368.467Z"/>
	<path fill="#24488B" transform="matrix(0.195312 0 0 0.195312 0 -0.000244141)" d="M315.557 343.126Q313.725 344.87 311.812 346.524Q309.898 348.178 307.907 349.739Q305.917 351.299 303.853 352.762Q301.79 354.225 299.659 355.587Q297.528 356.949 295.333 358.207Q293.139 359.466 290.887 360.617Q288.635 361.768 286.33 362.81Q284.026 363.852 281.673 364.782Q279.321 365.712 276.927 366.528Q274.533 367.344 272.103 368.045Q269.672 368.745 267.211 369.327Q264.75 369.91 262.263 370.374Q259.777 370.837 257.271 371.181Q254.765 371.525 252.245 371.748Q249.726 371.971 247.199 372.073Q244.671 372.175 242.142 372.155Q239.613 372.136 237.087 371.994Q234.562 371.853 232.046 371.591Q229.531 371.329 227.03 370.946Q224.53 370.564 222.051 370.061Q219.572 369.559 217.12 368.938Q214.668 368.318 212.249 367.58Q209.83 366.842 207.449 365.989Q205.067 365.136 202.73 364.169Q200.393 363.203 198.104 362.125Q195.816 361.047 193.582 359.861Q191.348 358.675 189.174 357.383Q187 356.091 184.89 354.695Q182.78 353.3 180.74 351.806Q178.699 350.311 176.733 348.72Q174.767 347.129 172.879 345.445Q170.992 343.761 169.187 341.989Q167.382 340.217 165.665 338.36Q163.948 336.503 162.322 334.566Q160.695 332.628 159.164 330.615Q157.633 328.602 156.2 326.518Q154.767 324.433 153.436 322.283Q152.105 320.132 150.879 317.92Q149.652 315.707 148.534 313.439Q147.415 311.17 146.407 308.851Q145.398 306.531 144.502 304.166Q143.606 301.8 142.825 299.395Q142.044 296.989 141.379 294.549Q140.714 292.108 140.167 289.639Q139.621 287.169 139.193 284.676Q138.765 282.183 138.458 279.673Q138.15 277.162 137.964 274.64Q137.777 272.117 137.712 269.589Q137.647 267.06 137.703 264.532Q137.76 262.003 137.937 259.48Q138.115 256.957 138.414 254.445Q138.712 251.933 139.131 249.439Q139.55 246.945 140.088 244.473Q140.627 242.002 141.283 239.559Q141.939 237.116 142.712 234.708Q143.485 232.3 144.372 229.931Q145.26 227.563 146.26 225.239Q147.26 222.916 148.371 220.644Q149.482 218.371 150.7 216.155Q151.919 213.938 153.242 211.783Q154.566 209.628 155.991 207.538Q157.417 205.449 158.941 203.43Q160.465 201.412 162.085 199.469Q163.704 197.526 165.415 195.663Q167.126 193.8 168.924 192.021Q170.723 190.243 172.604 188.553Q174.486 186.862 176.447 185.264Q178.407 183.667 180.442 182.165Q182.477 180.663 184.582 179.26Q186.687 177.858 188.857 176.558Q191.027 175.258 193.257 174.064Q195.486 172.87 197.771 171.784Q200.055 170.699 202.389 169.724Q204.723 168.749 207.101 167.888Q209.48 167.027 211.896 166.28Q214.313 165.534 216.763 164.905Q219.213 164.275 221.69 163.764Q224.167 163.253 226.666 162.862Q229.165 162.47 231.679 162.199Q234.194 161.928 236.719 161.779Q239.244 161.629 241.773 161.6Q244.302 161.572 246.83 161.665Q249.358 161.758 251.878 161.972Q254.398 162.186 256.905 162.521Q259.412 162.856 261.9 163.311Q264.388 163.766 266.852 164.34Q269.315 164.914 271.748 165.606Q274.181 166.297 276.578 167.105Q278.975 167.913 281.33 168.835Q283.685 169.756 285.994 170.79Q288.302 171.824 290.558 172.968Q292.814 174.111 295.013 175.362Q297.212 176.612 299.348 177.967Q301.483 179.322 303.552 180.777Q305.62 182.233 307.617 183.786Q309.613 185.34 311.532 186.987Q313.451 188.634 315.289 190.372Q317.127 192.11 318.88 193.934Q320.632 195.758 322.295 197.664Q323.958 199.57 325.527 201.553Q327.096 203.537 328.568 205.594Q330.041 207.65 331.413 209.775Q332.784 211.9 334.052 214.089Q335.321 216.277 336.482 218.524Q337.644 220.771 338.696 223.071Q339.749 225.371 340.689 227.719Q341.63 230.067 342.457 232.457Q343.284 234.847 343.995 237.275Q344.706 239.702 345.3 242.161Q345.894 244.619 346.369 247.104Q346.844 249.588 347.199 252.092Q347.554 254.596 347.789 257.115Q348.023 259.633 348.136 262.16Q348.25 264.687 348.242 267.216Q348.233 269.746 348.104 272.272Q347.974 274.798 347.723 277.314Q347.473 279.831 347.101 282.333Q346.73 284.835 346.239 287.316Q345.748 289.798 345.138 292.252Q344.529 294.707 343.802 297.13Q343.075 299.552 342.233 301.937Q341.39 304.322 340.434 306.664Q339.478 309.006 338.411 311.299Q337.344 313.592 336.168 315.831Q334.992 318.071 333.71 320.251Q332.427 322.431 331.042 324.547Q329.656 326.663 328.171 328.71Q326.685 330.758 325.103 332.731Q320.679 338.249 315.557 343.126Z"/>
	<path fill="#E7ECFA" transform="matrix(0.195312 0 0 0.195312 0 -0.000244141)" d="M208.844 180.206Q210.734 179.464 212.654 178.805Q214.574 178.146 216.521 177.571Q218.468 176.996 220.439 176.506Q222.409 176.017 224.398 175.613Q226.388 175.21 228.394 174.893Q230.399 174.577 232.416 174.348Q234.433 174.12 236.459 173.979Q238.484 173.838 240.513 173.786Q242.543 173.733 244.573 173.769Q246.603 173.805 248.629 173.929Q250.655 174.053 252.674 174.266Q254.694 174.478 256.701 174.778Q258.709 175.078 260.702 175.465Q262.695 175.853 264.669 176.326Q266.643 176.8 268.595 177.359Q270.547 177.918 272.472 178.561Q274.398 179.205 276.294 179.931Q278.189 180.658 280.051 181.467Q281.914 182.275 283.739 183.164Q285.564 184.053 287.349 185.02Q289.134 185.987 290.875 187.032Q292.616 188.076 294.31 189.195Q296.004 190.314 297.648 191.505Q299.291 192.697 300.881 193.959Q302.472 195.221 304.005 196.551Q305.539 197.882 307.014 199.277Q308.488 200.673 309.9 202.131Q311.312 203.59 312.66 205.108Q314.007 206.627 315.287 208.203Q316.567 209.779 317.778 211.409Q318.988 213.039 320.126 214.72Q321.264 216.401 322.328 218.13Q323.392 219.859 324.379 221.633Q325.367 223.407 326.277 225.222Q327.186 227.037 328.016 228.89Q328.845 230.743 329.593 232.63Q330.341 234.517 331.007 236.435Q331.672 238.354 332.253 240.299Q332.834 242.244 333.33 244.213Q333.826 246.181 334.236 248.17Q334.646 250.158 334.968 252.162Q335.291 254.167 335.526 256.183Q335.762 258.2 335.909 260.225Q336.056 262.249 336.115 264.279Q336.174 266.308 336.145 268.338Q336.115 270.368 335.997 272.395Q335.88 274.422 335.674 276.441Q335.468 278.461 335.174 280.47Q334.88 282.479 334.5 284.473Q334.119 286.467 333.652 288.443Q333.184 290.418 332.632 292.372Q332.079 294.325 331.442 296.253Q330.804 298.18 330.084 300.078Q329.363 301.976 328.56 303.841Q327.758 305.706 326.875 307.534Q325.992 309.362 325.03 311.15Q324.069 312.938 323.03 314.682Q321.991 316.427 320.878 318.124Q319.764 319.822 318.578 321.469Q317.391 323.117 316.134 324.711Q314.877 326.305 313.552 327.843Q312.227 329.381 310.836 330.86Q309.445 332.339 307.991 333.756Q306.537 335.173 305.023 336.525Q303.757 337.656 302.45 338.74Q301.143 339.824 299.798 340.86Q298.452 341.896 297.07 342.882Q295.688 343.868 294.271 344.803Q292.853 345.738 291.403 346.621Q289.953 347.504 288.471 348.334Q286.99 349.163 285.479 349.938Q283.968 350.713 282.43 351.433Q280.892 352.152 279.329 352.815Q277.766 353.478 276.18 354.084Q274.594 354.69 272.986 355.237Q271.379 355.785 269.753 356.273Q268.127 356.762 266.484 357.191Q264.841 357.62 263.184 357.989Q261.527 358.358 259.857 358.667Q258.187 358.975 256.507 359.222Q254.828 359.47 253.14 359.656Q251.452 359.842 249.759 359.967Q248.065 360.091 246.369 360.154Q244.672 360.216 242.974 360.217Q241.276 360.218 239.579 360.158Q237.882 360.097 236.189 359.974Q234.495 359.851 232.807 359.667Q231.119 359.483 229.439 359.237Q227.759 358.992 226.089 358.685Q224.419 358.379 222.762 358.011Q221.104 357.644 219.46 357.217Q217.817 356.79 216.191 356.303Q214.564 355.816 212.956 355.27Q211.348 354.724 209.761 354.12Q208.174 353.516 206.611 352.855Q205.047 352.194 203.508 351.476Q201.969 350.758 200.458 349.985Q198.946 349.211 197.464 348.384Q195.981 347.556 194.53 346.674Q193.079 345.793 191.66 344.859Q190.242 343.926 188.859 342.941Q187.476 341.956 186.129 340.922Q184.783 339.888 183.475 338.805Q182.167 337.722 180.899 336.593Q179.631 335.463 178.406 334.288Q177.18 333.113 175.998 331.894Q174.816 330.676 173.679 329.414Q172.542 328.153 171.451 326.852Q170.361 325.55 169.319 324.21Q168.277 322.869 167.284 321.492Q166.292 320.114 165.35 318.701Q164.408 317.288 163.518 315.842Q162.628 314.396 161.792 312.919Q160.955 311.441 160.173 309.934Q159.391 308.427 158.664 306.892Q157.937 305.358 157.267 303.798Q156.597 302.238 155.983 300.655Q155.37 299.071 154.815 297.467Q154.26 295.862 153.764 294.238Q153.267 292.614 152.83 290.974Q152.394 289.333 152.017 287.677Q151.64 286.022 151.324 284.353Q151.007 282.685 150.752 281.007Q150.497 279.328 150.303 277.641Q150.109 275.954 149.976 274.262Q149.844 272.569 149.773 270.872Q149.702 269.176 149.693 267.478Q149.684 265.78 149.737 264.083Q149.79 262.386 149.904 260.692Q150.019 258.998 150.195 257.309Q150.372 255.62 150.609 253.939Q150.847 252.258 151.145 250.586Q151.444 248.915 151.803 247.255Q152.163 245.596 152.582 243.95Q153.002 242.305 153.481 240.676Q153.96 239.047 154.498 237.437Q155.036 235.826 155.633 234.237Q156.229 232.647 156.883 231.08Q157.537 229.513 158.248 227.971Q158.958 226.429 159.724 224.914Q160.491 223.398 161.312 221.912Q162.132 220.426 163.007 218.97Q163.881 217.515 164.808 216.092Q165.735 214.669 166.713 213.281Q167.691 211.894 168.719 210.542Q169.747 209.191 170.824 207.878Q171.9 206.564 173.024 205.291Q174.147 204.018 175.317 202.787Q176.486 201.556 177.699 200.368Q178.912 199.18 180.168 198.037Q181.424 196.894 182.72 195.798Q184.017 194.701 185.352 193.653Q186.688 192.604 188.061 191.605Q189.433 190.606 190.842 189.658Q192.25 188.709 193.692 187.813Q195.134 186.916 196.607 186.072Q198.081 185.229 199.584 184.44Q201.088 183.65 202.619 182.916Q204.15 182.182 205.707 181.504Q207.264 180.827 208.844 180.206Z"/>
	<path fill="#C8D3E8" transform="matrix(0.195312 0 0 0.195312 0 -0.000244141)" d="M305.023 336.525Q303.757 337.656 302.45 338.74Q301.143 339.824 299.798 340.86Q298.452 341.896 297.07 342.882Q295.688 343.868 294.271 344.803Q292.853 345.738 291.403 346.621Q289.953 347.504 288.471 348.334Q286.99 349.163 285.479 349.938Q283.968 350.713 282.43 351.433Q280.892 352.152 279.329 352.815Q277.766 353.478 276.18 354.084Q274.594 354.69 272.986 355.237Q271.379 355.785 269.753 356.273Q268.127 356.762 266.484 357.191Q264.841 357.62 263.184 357.989Q261.527 358.358 259.857 358.667Q258.187 358.975 256.507 359.222Q254.828 359.47 253.14 359.656Q251.452 359.842 249.759 359.967Q248.065 360.091 246.369 360.154Q244.672 360.216 242.974 360.217Q241.276 360.218 239.579 360.158Q237.882 360.097 236.189 359.974Q234.495 359.851 232.807 359.667Q231.119 359.483 229.439 359.237Q227.759 358.992 226.089 358.685Q224.419 358.379 222.762 358.011Q221.104 357.644 219.46 357.217Q217.817 356.79 216.191 356.303Q214.564 355.816 212.956 355.27Q211.348 354.724 209.761 354.12Q208.174 353.516 206.611 352.855Q205.047 352.194 203.508 351.476Q201.969 350.758 200.458 349.985Q198.946 349.211 197.464 348.384Q195.981 347.556 194.53 346.674Q193.079 345.793 191.66 344.859Q190.242 343.926 188.859 342.941Q187.476 341.956 186.129 340.922Q184.783 339.888 183.475 338.805Q182.167 337.722 180.899 336.593Q179.631 335.463 178.406 334.288Q177.18 333.113 175.998 331.894Q174.816 330.676 173.679 329.414Q172.542 328.153 171.451 326.852Q170.361 325.55 169.319 324.21Q168.277 322.869 167.284 321.492Q166.292 320.114 165.35 318.701Q164.408 317.288 163.518 315.842Q162.628 314.396 161.792 312.919Q160.955 311.441 160.173 309.934Q159.391 308.427 158.664 306.892Q157.937 305.358 157.267 303.798Q156.597 302.238 155.983 300.655Q155.37 299.071 154.815 297.467Q154.26 295.862 153.764 294.238Q153.267 292.614 152.83 290.974Q152.394 289.333 152.017 287.677Q151.64 286.022 151.324 284.353Q151.007 282.685 150.752 281.007Q150.497 279.328 150.303 277.641Q150.109 275.954 149.976 274.262Q149.844 272.569 149.773 270.872Q149.702 269.176 149.693 267.478Q149.684 265.78 149.737 264.083Q149.79 262.386 149.904 260.692Q150.019 258.998 150.195 257.309Q150.372 255.62 150.609 253.939Q150.847 252.258 151.145 250.586Q151.444 248.915 151.803 247.255Q152.163 245.596 152.582 243.95Q153.002 242.305 153.481 240.676Q153.96 239.047 154.498 237.437Q155.036 235.826 155.633 234.237Q156.229 232.647 156.883 231.08Q157.537 229.513 158.248 227.971Q158.958 226.429 159.724 224.914Q160.491 223.398 161.312 221.912Q162.132 220.426 163.007 218.97Q163.881 217.515 164.808 216.092Q165.735 214.669 166.713 213.281Q167.691 211.894 168.719 210.542Q169.747 209.191 170.824 207.878Q171.9 206.564 173.024 205.291Q174.147 204.018 175.317 202.787Q176.486 201.556 177.699 200.368Q178.912 199.18 180.168 198.037Q181.424 196.894 182.72 195.798Q184.017 194.701 185.352 193.653Q186.688 192.604 188.061 191.605Q189.433 190.606 190.842 189.658Q192.25 188.709 193.692 187.813Q195.134 186.916 196.607 186.072Q198.081 185.229 199.584 184.44Q201.088 183.65 202.619 182.916Q204.15 182.182 205.707 181.504Q207.264 180.827 208.844 180.206C208.559 181.938 206.388 183.197 205.069 184.306C173.559 210.826 165.144 247.124 176.103 285.297C176.936 288.2 182.149 305.629 184.532 305.808C185.567 305.763 186.613 305.667 187.642 305.808C190.096 306.091 192.521 305.958 194.979 305.808C195.074 312.433 194.958 319.058 194.979 325.684C197.159 328.156 200.534 332.123 203.767 333.098L203.767 335.299C204.508 336.88 213.368 335.971 215.26 335.957C215.272 329.704 214.837 323.218 215.26 316.996C215.662 323.24 215.234 329.686 215.26 335.957L235.998 335.957C235.875 333.865 235.855 331.835 235.998 329.744L235.998 327.801C236.196 330.505 235.895 333.245 235.998 335.957L246.152 335.957C246.185 333.893 246.068 331.799 246.152 329.744C246.292 327.19 246.244 324.683 246.152 322.131C251.718 322.19 263.092 339.965 267.556 335.299L267.556 335.957L279.27 335.957L296.847 335.957C297.949 335.987 299.044 336.029 300.146 335.957C301.492 336.216 303.959 335.908 305.023 336.525Z"/>
	<path fill="#4AACF3" transform="matrix(0.195312 0 0 0.195312 0 -0.000244141)" d="M184.532 305.808C185.567 305.763 186.613 305.667 187.642 305.808C190.096 306.091 192.521 305.958 194.979 305.808C195.074 312.433 194.958 319.058 194.979 325.684C197.159 328.156 200.534 332.123 203.767 333.098L203.767 335.299L203.633 335.625C202.619 336.341 185.876 335.961 183.258 335.957L183.23 317.596C183.227 314.383 182.118 308.369 184.532 305.808Z"/>
	<path fill="#FBB653" transform="matrix(0.195312 0 0 0.195312 0 -0.000244141)" d="M246.152 322.131C251.718 322.19 263.092 339.965 267.556 335.299L267.556 335.957L246.152 335.957C246.3 333.861 246.411 331.835 246.152 329.744C246.292 327.19 246.244 324.683 246.152 322.131Z"/>
	<path fill="#51C346" transform="matrix(0.195312 0 0 0.195312 0 -0.000244141)" d="M282.239 245.752C285.294 245.69 288.364 245.76 291.422 245.752C294.123 246.344 293.031 248.65 293.021 250.823L293.027 296.582C293.024 302.322 292.624 308.37 293.033 314.081C295.128 316.32 297.2 319.357 300.146 320.5L300.146 335.957C299.044 336.029 297.949 335.987 296.847 335.957L279.27 335.957L279.27 327.801L279.252 260.184C279.239 255.191 277.922 249.22 282.239 245.752Z"/>
	<path fill="#339247" transform="matrix(0.195312 0 0 0.195312 0 -0.000244141)" d="M279.27 327.801C279.344 327.226 279.377 325.765 279.728 325.379C285.351 327.293 290.204 334.373 296.847 335.957L279.27 335.957L279.27 327.801Z"/>
	<path fill="#FECF4F" transform="matrix(0.195312 0 0 0.195312 0 -0.000244141)" d="M246.152 322.131L246.142 292.599C246.14 274.406 241.401 271.026 258.897 270.987C259.079 283.17 258.21 296.18 258.897 308.218C261.033 311.78 266.507 315.301 267.556 318.941L267.556 335.299C263.092 339.965 251.718 322.19 246.152 322.131Z"/>
	<path fill="#4D79DA" transform="matrix(0.195312 0 0 0.195312 0 -0.000244141)" d="M215.26 316.996C215.288 313.141 214.657 287.431 215.935 286.229C217.555 284.705 220.906 285.187 222.988 285.235L227.357 285.235L229.28 285.624C228.635 298.276 228.917 311.275 229.101 323.95C231.282 326.066 233.456 328.065 235.998 329.744C235.855 331.835 235.875 333.865 235.998 335.957L215.26 335.957C215.234 329.686 215.662 323.24 215.26 316.996Z"/>
	<path fill="#4AACF3" transform="matrix(0.195312 0 0 0.195312 0 -0.000244141)" d="M222.988 285.235L227.357 285.235L229.28 285.624C228.635 298.276 228.917 311.275 229.101 323.95C226.975 322.392 224.871 320.79 222.988 318.941L222.988 285.235Z"/>
	<path fill="#76E574" transform="matrix(0.195312 0 0 0.195312 0 -0.000244141)" d="M291.422 245.752C294.578 245.797 298.032 245.349 300.146 248.187C300.302 252.494 300.154 256.829 300.15 261.14L300.153 308.925C300.155 312.76 300.321 316.675 300.146 320.5C297.2 319.357 295.128 316.32 293.033 314.081C292.624 308.37 293.024 302.322 293.027 296.582L293.021 250.823C293.031 248.65 294.123 246.344 291.422 245.752Z"/>
	<path fill="#FEEDAA" transform="matrix(0.195312 0 0 0.195312 0 -0.000244141)" d="M258.897 270.987C270.854 269.569 267.569 279.437 267.557 287.601C267.542 298.027 267.287 308.522 267.556 318.941C266.507 315.301 261.033 311.78 258.897 308.218C258.21 296.18 259.079 283.17 258.897 270.987Z"/>
	<path fill="#27BAF8" transform="matrix(0.195312 0 0 0.195312 0 -0.000244141)" d="M227.357 285.235C240.045 285.38 236.008 289.569 236.006 302.545L235.998 327.801L235.998 329.744C233.456 328.065 231.282 326.066 229.101 323.95C228.917 311.275 228.635 298.276 229.28 285.624L227.357 285.235Z"/>
	<path fill="#27BAF8" transform="matrix(0.195312 0 0 0.195312 0 -0.000244141)" d="M187.642 305.808C193.769 305.573 200.466 303.664 203.767 309.025C203.773 317.005 204.121 325.136 203.767 333.098C200.534 332.123 197.159 328.156 194.979 325.684C194.958 319.058 195.074 312.433 194.979 305.808C192.521 305.958 190.096 306.091 187.642 305.808Z"/>
	<path fill="#EA5A54" transform="matrix(0.195312 0 0 0.195312 0 -0.000244141)" d="M305.242 203.313L305.359 203.622C301.756 213.317 299.829 227.974 296.847 238.596C294.067 234.767 290.371 231.39 287.07 227.999L270.397 244.794C266.698 248.592 258.86 257.986 254.657 260.086C243.12 259.776 231.668 257.735 219.428 257.681C215.466 261.023 211.894 264.902 208.246 268.578L195.993 280.743C192.984 283.773 189.137 289.665 184.532 290.025C181.692 289.406 180.897 287.999 180.166 285.235C181.514 280.014 210.962 252.255 216.374 247.362C227.466 248.15 238.616 249.289 249.73 249.572C259.007 240.924 269.948 229.595 278.497 220.258C276.275 217.553 273.81 215.126 271.333 212.658C281.729 209.56 294.807 205.729 305.242 203.313Z"/>
	<path fill="#F79639" transform="matrix(0.195312 0 0 0.195312 0 -0.000244141)" d="M226.981 197.921Q227.467 197.87 227.955 197.842Q228.444 197.814 228.933 197.811Q229.422 197.807 229.91 197.827Q230.399 197.847 230.886 197.891Q231.373 197.935 231.857 198.003Q232.341 198.071 232.822 198.163Q233.302 198.254 233.777 198.369Q234.252 198.484 234.722 198.622Q235.191 198.76 235.652 198.921Q236.114 199.082 236.568 199.265Q237.021 199.448 237.465 199.653Q237.909 199.858 238.342 200.085Q238.775 200.311 239.197 200.559Q239.619 200.807 240.028 201.074Q240.437 201.342 240.832 201.63Q241.228 201.918 241.609 202.224Q241.99 202.531 242.355 202.856Q242.721 203.18 243.07 203.523Q243.419 203.865 243.751 204.224Q244.083 204.583 244.397 204.958Q244.711 205.333 245.006 205.723Q245.301 206.112 245.577 206.516Q245.853 206.92 246.109 207.337Q246.365 207.753 246.6 208.182Q246.835 208.611 247.049 209.051Q247.262 209.49 247.454 209.94Q247.647 210.39 247.816 210.848Q247.986 211.307 248.133 211.773Q248.28 212.239 248.405 212.712Q248.529 213.185 248.63 213.664Q248.731 214.142 248.808 214.625Q248.885 215.108 248.939 215.594Q248.993 216.08 249.022 216.568Q249.052 217.056 249.058 217.545Q249.064 218.034 249.046 218.523Q249.028 219.011 248.986 219.498Q248.944 219.986 248.878 220.47Q248.813 220.955 248.723 221.435Q248.634 221.916 248.521 222.392Q248.408 222.868 248.272 223.337Q248.136 223.807 247.978 224.27Q247.819 224.732 247.638 225.186Q247.457 225.641 247.253 226.085Q247.05 226.53 246.826 226.964Q246.601 227.399 246.355 227.821Q246.11 228.244 245.843 228.654Q245.577 229.065 245.292 229.461Q245.006 229.858 244.701 230.24Q244.396 230.623 244.073 230.99Q243.75 231.356 243.409 231.707Q243.068 232.058 242.71 232.391Q242.353 232.725 241.979 233.041Q241.606 233.356 241.218 233.653Q240.829 233.95 240.427 234.228Q240.024 234.506 239.609 234.763Q239.193 235.021 238.765 235.258Q238.338 235.495 237.899 235.711Q237.46 235.926 237.011 236.12Q236.562 236.314 236.105 236.486Q235.647 236.658 235.181 236.807Q234.715 236.957 234.243 237.083Q233.771 237.209 233.293 237.312Q232.815 237.415 232.332 237.495Q231.85 237.574 231.364 237.63Q230.875 237.686 230.385 237.718Q229.894 237.75 229.402 237.758Q228.911 237.766 228.419 237.749Q227.928 237.733 227.438 237.692Q226.948 237.652 226.46 237.587Q225.973 237.523 225.489 237.434Q225.005 237.346 224.526 237.233Q224.048 237.121 223.575 236.986Q223.102 236.85 222.637 236.691Q222.172 236.533 221.714 236.351Q221.257 236.17 220.81 235.966Q220.362 235.762 219.925 235.537Q219.488 235.311 219.063 235.065Q218.638 234.818 218.225 234.551Q217.812 234.283 217.413 233.996Q217.014 233.709 216.63 233.402Q216.245 233.095 215.876 232.77Q215.507 232.445 215.155 232.102Q214.802 231.759 214.467 231.399Q214.132 231.039 213.815 230.664Q213.498 230.288 213.2 229.897Q212.902 229.506 212.623 229.1Q212.345 228.695 212.086 228.277Q211.828 227.858 211.591 227.428Q211.353 226.997 211.137 226.555Q210.922 226.113 210.728 225.661Q210.534 225.209 210.362 224.749Q210.191 224.288 210.042 223.819Q209.894 223.35 209.769 222.875Q209.643 222.399 209.542 221.918Q209.44 221.437 209.362 220.951Q209.284 220.466 209.23 219.977Q209.176 219.488 209.146 218.997Q209.116 218.507 209.111 218.015Q209.105 217.523 209.124 217.032Q209.142 216.54 209.185 216.05Q209.228 215.561 209.294 215.073Q209.361 214.586 209.452 214.103Q209.542 213.619 209.657 213.141Q209.771 212.663 209.909 212.191Q210.047 211.719 210.207 211.254Q210.368 210.789 210.552 210.333Q210.735 209.877 210.941 209.43Q211.146 208.984 211.374 208.548Q211.601 208.111 211.85 207.687Q212.098 207.263 212.368 206.851Q212.637 206.44 212.926 206.042Q213.215 205.644 213.523 205.261Q213.832 204.878 214.158 204.511Q214.485 204.143 214.83 203.792Q215.174 203.441 215.535 203.108Q215.897 202.774 216.274 202.459Q216.651 202.143 217.044 201.847Q217.436 201.551 217.843 201.274Q218.249 200.997 218.669 200.741Q219.088 200.484 219.52 200.249Q219.952 200.013 220.394 199.799Q220.837 199.585 221.29 199.393Q221.743 199.202 222.204 199.032Q222.666 198.863 223.136 198.716Q223.605 198.57 224.081 198.447Q224.557 198.324 225.039 198.224Q225.52 198.124 226.006 198.049Q226.492 197.973 226.981 197.921Z"/>
	<path fill="#24488B" transform="matrix(0.195312 0 0 0.195312 0 -0.000244141)" d="M369.301 159.671Q371.416 162.377 373.861 164.789Q376.307 167.201 379.042 169.278C374.876 172.958 363.871 183.277 360.868 187.592C357.196 190.404 353.785 194.204 350.939 197.84C347.464 194.625 344.028 191.197 340.96 187.592C344.458 183.73 348.312 180.111 351.954 176.38C357.627 171.124 363.308 164.247 369.301 159.671Z"/>
	<path fill="#24488B" transform="matrix(0.195312 0 0 0.195312 0 -0.000244141)" d="M325.103 332.731C330.273 336.954 347.308 353.181 350.939 358.279L350.939 358.279C348.831 360.748 346.578 363.126 344.25 365.387L340.96 368.467L340.96 368.467C338.389 366.542 335.996 363.674 333.678 361.417L321.932 349.802C319.78 347.648 317.415 345.541 315.557 343.126Q320.679 338.249 325.103 332.731Z"/>
	<defs>
		<linearGradient id="gradient_0" gradientUnits="userSpaceOnUse" x1="388.88956" y1="174.85362" x2="433.18408" y2="78.699966">
			<stop offset="0" stop-color="#446FC4"/>
			<stop offset="1" stop-color="#4E86DC"/>
		</linearGradient>
	</defs>
	<path fill="url(#gradient_0)" transform="matrix(0.195312 0 0 0.195312 0 -0.000244141)" d="M369.301 159.671Q368.632 158.815 367.999 157.933Q367.366 157.051 366.77 156.144Q366.173 155.237 365.614 154.306Q365.055 153.375 364.534 152.422Q364.014 151.469 363.533 150.496Q363.051 149.523 362.61 148.53Q362.169 147.538 361.769 146.529Q361.368 145.52 361.01 144.495Q360.651 143.47 360.334 142.431Q360.018 141.393 359.744 140.342Q359.47 139.291 359.239 138.23Q359.008 137.169 358.821 136.1Q358.633 135.03 358.49 133.954Q358.346 132.878 358.247 131.797Q358.147 130.715 358.092 129.631Q358.036 128.547 358.026 127.461Q358.014 126.375 358.048 125.29Q358.081 124.205 358.159 123.122Q358.236 122.038 358.358 120.96Q358.48 119.881 358.645 118.807Q358.811 117.734 359.02 116.669Q359.23 115.603 359.482 114.547Q359.735 113.491 360.03 112.447Q360.326 111.402 360.664 110.37Q361.002 109.338 361.382 108.321Q361.761 107.304 362.182 106.303Q362.603 105.302 363.065 104.319Q363.526 103.336 364.027 102.373Q364.528 101.41 365.068 100.468Q365.609 99.5257 366.187 98.6065Q366.765 97.6874 367.38 96.7926Q367.995 95.8978 368.646 95.0289Q369.297 94.16 369.983 93.3183Q370.669 92.4767 371.389 91.6637Q372.109 90.8508 372.861 90.0679Q373.613 89.285 374.397 88.5335Q375.181 87.782 375.995 87.0631Q376.808 86.3442 377.651 85.6591Q378.493 84.974 379.363 84.3238Q380.232 83.6736 381.128 83.0595Q382.023 82.4454 382.943 81.8683Q383.863 81.2913 384.805 80.7522Q385.748 80.2132 386.712 79.7131Q387.675 79.2129 388.659 78.7526Q389.642 78.2922 390.643 77.8723Q391.645 77.4525 392.662 77.0738Q393.68 76.6952 394.712 76.3584Q395.745 76.0216 396.79 75.7272Q397.835 75.4329 398.891 75.1814Q399.947 74.9299 401.013 74.7217Q402.079 74.5136 403.152 74.3491Q404.225 74.1846 405.304 74.064Q406.383 73.9435 407.467 73.8671Q408.55 73.7906 409.635 73.7585Q410.72 73.7264 411.806 73.7385Q412.892 73.7507 413.976 73.8072Q415.06 73.8637 416.142 73.9644Q417.223 74.065 418.299 74.2098Q419.375 74.3545 420.444 74.543Q421.513 74.7316 422.574 74.9636Q423.635 75.1956 424.685 75.4707Q425.736 75.7458 426.774 76.0636Q427.812 76.3813 428.837 76.7412Q429.861 77.101 430.87 77.5024Q431.879 77.9038 432.871 78.346Q433.862 78.7882 434.835 79.2705Q435.808 79.7528 436.76 80.2745Q437.712 80.7961 438.643 81.3561Q439.573 81.9162 440.479 82.5137Q441.386 83.1113 442.267 83.7453Q443.149 84.3794 444.004 85.0489Q444.858 85.7184 445.685 86.4222Q446.512 87.126 447.309 87.863Q448.107 88.6 448.873 89.3689Q449.64 90.1378 450.375 90.9374Q451.109 91.7369 451.811 92.5658Q452.512 93.3947 453.179 94.2515Q453.846 95.1083 454.477 95.9916Q455.109 96.8749 455.704 97.7832Q456.298 98.6916 456.856 99.6235Q457.413 100.555 457.932 101.509Q458.451 102.463 458.93 103.437Q459.409 104.411 459.849 105.404Q460.288 106.397 460.686 107.407Q461.085 108.418 461.442 109.443Q461.798 110.469 462.113 111.508Q462.428 112.547 462.7 113.598Q462.972 114.649 463.201 115.711Q463.429 116.772 463.615 117.842Q463.8 118.912 463.942 119.988Q464.083 121.065 464.181 122.146Q464.278 123.228 464.332 124.312Q464.385 125.397 464.394 126.482Q464.403 127.568 464.367 128.653Q464.332 129.739 464.252 130.821Q464.173 131.904 464.049 132.983Q463.925 134.062 463.758 135.134Q463.59 136.207 463.379 137.272Q463.167 138.337 462.913 139.393Q462.658 140.448 462.361 141.493Q462.063 142.537 461.723 143.568Q461.384 144.599 461.002 145.616Q460.62 146.632 460.197 147.632Q459.775 148.632 459.311 149.614Q458.848 150.596 458.345 151.559Q457.842 152.521 457.3 153.462Q456.759 154.403 456.179 155.321Q455.599 156.239 454.982 157.133Q454.366 158.026 453.713 158.894Q453.06 159.762 452.373 160.602Q451.685 161.442 450.964 162.254Q450.242 163.065 449.489 163.847Q448.735 164.628 447.95 165.378Q447.165 166.128 446.35 166.846Q445.535 167.563 444.691 168.247Q443.847 168.93 442.976 169.579Q442.106 170.227 441.209 170.84Q440.312 171.452 439.392 172.027Q438.471 172.603 437.527 173.14Q436.584 173.677 435.619 174.176Q434.654 174.674 433.67 175.133Q432.686 175.591 431.684 176.009Q430.682 176.427 429.663 176.804Q428.645 177.181 427.612 177.515Q426.579 177.85 425.534 178.143Q424.488 178.435 423.431 178.685Q422.375 178.934 421.309 179.14Q420.243 179.347 419.169 179.509Q416.347 179.936 413.496 180.059C414.51 180.896 415.215 181.119 415.863 182.381C411.737 183.533 408.123 186.583 408.063 180.015Q406.103 179.899 404.157 179.639Q402.211 179.378 400.29 178.975Q398.369 178.572 396.482 178.029Q394.596 177.485 392.754 176.804Q390.913 176.122 389.127 175.307Q387.341 174.492 385.62 173.548Q383.899 172.603 382.252 171.534Q380.605 170.465 379.042 169.278Q376.307 167.201 373.861 164.789Q371.416 162.377 369.301 159.671Z"/>
	<path fill="#B4EDFA" transform="matrix(0.195312 0 0 0.195312 0 -0.000244141)" d="M408.063 180.015Q410.778 180.176 413.496 180.059C414.51 180.896 415.215 181.119 415.863 182.381C411.737 183.533 408.123 186.583 408.063 180.015Z"/>
	<path fill="#FBB653" transform="matrix(0.195312 0 0 0.195312 0 -0.000244141)" d="M404.789 82.5C428.445 77.1763 450.51 97.9981 454.737 120.714C455.126 135.636 451.897 151.4 439.323 160.939C422.154 179.88 388.334 171.055 374.579 151.002C361.223 131.529 366.95 103.399 386.217 90.1207C390.965 86.221 398.688 83.2966 404.789 82.5Z"/>
	<path fill="#F79639" transform="matrix(0.195312 0 0 0.195312 0 -0.000244141)" d="M386.217 90.1207L386.316 90.5666C375.166 100.838 368.416 108.038 367.801 124.991C367.651 129.141 367.469 130.138 369.685 133.209C370.984 135.01 376.934 143.848 378.783 144.566C383.669 146.465 385.836 154.236 391.119 157.042C395.28 159.252 396.71 161.906 403.103 164.799C418.844 171.925 425.644 171.496 439.026 160.692L439.323 160.939C422.154 179.88 388.334 171.055 374.579 151.002C361.223 131.529 366.95 103.399 386.217 90.1207Z"/>
	<path fill="#FEEDAA" transform="matrix(0.195312 0 0 0.195312 0 -0.000244141)" d="M404.789 82.5C428.445 77.1763 450.51 97.9981 454.737 120.714C451.983 118.305 452.874 106.966 448.596 105.513C438.897 107.718 422.933 95.7509 419.012 86.6549C418.696 85.9216 418.774 83.5994 418.215 83.2023C415.984 81.616 405.868 83.3534 404.789 82.5Z"/>
	<path fill="#E7ECFA" transform="matrix(0.195312 0 0 0.195312 0 -0.000244141)" d="M411.204 95.9681C414.517 95.7995 415.124 96.3451 415.863 99.5746C425.201 100.044 435.276 110.457 428.369 113.982C424.309 116.054 422.015 109.699 415.863 107.559C415.746 112.341 415.851 117.145 415.863 121.93C419.962 122.724 424.459 123.751 427.903 126.236C439.62 134.688 431.266 150.803 415.863 152.597C416.652 157.836 414.231 160.141 409.344 158.162C408.948 156.245 409.022 154.52 409.344 152.597L408.646 152.521C401.82 151.748 391.443 145.202 392.586 137.688C392.843 135.997 395.873 133.76 397.625 134.199C401.479 135.164 401.06 142.627 409.344 144.3C409.328 139.207 409.503 134.098 409.344 129.008C405.707 127.903 401.335 127.014 398.226 124.779C387.286 116.911 393.717 101.676 408.241 99.5746C409.084 98.1403 409.944 97.0546 411.204 95.9681Z"/>
	<path fill="#FBB653" transform="matrix(0.195312 0 0 0.195312 0 -0.000244141)" d="M415.863 130.249C423.379 132.269 426.854 134.663 422.527 142.113C420.33 143.602 418.449 144.064 415.863 144.3C415.529 139.711 415.828 134.862 415.863 130.249Z"/>
	<path fill="#FECF4F" transform="matrix(0.195312 0 0 0.195312 0 -0.000244141)" d="M408.241 107.559C410.276 107.444 409.35 118.824 409.344 120.714C407.663 120.213 406.263 119.59 404.789 118.656C398.675 115.011 402.023 108.713 408.241 107.559Z"/>
	<path fill="#4D79DA" transform="matrix(0.195312 0 0 0.195312 0 -0.000244141)" d="M78.1042 349.658Q79.0855 349.361 80.0797 349.11Q81.0739 348.86 82.0789 348.656Q83.0838 348.453 84.0972 348.297Q85.1106 348.142 86.1303 348.034Q87.1499 347.926 88.1735 347.867Q89.1971 347.808 90.2223 347.797Q91.2476 347.786 92.2722 347.823Q93.2968 347.861 94.3185 347.946Q95.3403 348.032 96.3568 348.166Q97.3733 348.3 98.3824 348.482Q99.3914 348.664 100.391 348.893Q101.39 349.122 102.378 349.398Q103.365 349.674 104.338 349.997Q105.312 350.319 106.268 350.687Q107.225 351.055 108.164 351.468Q109.102 351.881 110.02 352.338Q110.938 352.795 111.834 353.294Q112.729 353.794 113.6 354.335Q114.471 354.876 115.315 355.458Q116.159 356.04 116.975 356.661Q117.791 357.282 118.577 357.941Q119.362 358.599 120.116 359.295Q120.87 359.99 121.589 360.72Q122.309 361.45 122.994 362.213Q123.679 362.976 124.327 363.771Q124.975 364.565 125.584 365.39Q126.194 366.214 126.764 367.066Q127.334 367.919 127.863 368.797Q128.392 369.675 128.879 370.577Q129.367 371.479 129.811 372.404Q130.255 373.328 130.654 374.272Q131.054 375.216 131.409 376.178Q131.764 377.14 132.073 378.118Q132.382 379.095 132.644 380.086Q132.907 381.078 133.122 382.08Q133.337 383.082 133.505 384.094Q133.673 385.105 133.793 386.124Q133.913 387.142 133.984 388.165Q134.056 389.187 134.079 390.212Q134.103 391.238 134.077 392.262Q134.052 393.287 133.979 394.31Q133.905 395.333 133.783 396.351Q133.662 397.369 133.492 398.38Q133.322 399.391 133.105 400.393Q132.888 401.395 132.624 402.386Q132.359 403.377 132.049 404.354Q131.738 405.331 131.381 406.292Q131.025 407.253 130.623 408.197Q130.222 409.14 129.776 410.064Q129.33 410.987 128.841 411.888Q128.353 412.789 127.822 413.667Q127.291 414.544 126.72 415.395Q126.148 416.246 125.537 417.07Q124.926 417.893 124.276 418.686Q123.627 419.48 122.941 420.242Q122.255 421.004 121.533 421.732Q120.812 422.461 120.057 423.155Q119.302 423.849 118.515 424.506Q117.729 425.163 116.912 425.783Q116.095 426.402 115.249 426.982Q114.404 427.563 113.532 428.102Q112.66 428.642 111.764 429.14Q110.868 429.638 109.949 430.093Q109.03 430.548 108.091 430.959Q107.152 431.37 106.194 431.736Q105.236 432.103 104.263 432.423Q103.289 432.744 102.301 433.018Q101.313 433.293 100.313 433.52Q99.3134 433.748 98.304 433.928Q97.2946 434.107 96.2778 434.24Q95.2611 434.372 94.2392 434.456Q93.2174 434.539 92.1927 434.575Q91.168 434.611 90.1428 434.598Q89.1175 434.585 88.0941 434.524Q87.0706 434.462 86.0511 434.353Q85.0317 434.243 84.0186 434.086Q83.0055 433.928 82.0009 433.723Q80.9963 433.518 80.0026 433.265Q79.0088 433.013 78.0281 432.714Q77.0474 432.415 76.0819 432.07Q75.1164 431.725 74.1682 431.335Q73.2201 430.945 72.2914 430.51Q71.3627 430.076 70.4556 429.598Q69.5485 429.12 68.665 428.599Q67.7815 428.079 66.9235 427.518Q66.0655 426.957 65.235 426.355Q64.4045 425.754 63.6033 425.114Q62.8021 424.475 62.032 423.798Q61.2619 423.121 60.5246 422.408Q59.7873 421.696 59.0845 420.949Q58.3817 420.203 57.715 419.424Q57.0482 418.645 56.4189 417.835Q55.7897 417.026 55.1993 416.188Q54.609 415.349 54.0589 414.484Q53.5089 413.619 53.0002 412.729Q52.4916 411.838 52.0256 410.925Q51.5596 410.012 51.1372 409.077Q50.7149 408.143 50.3371 407.19Q49.9593 406.237 49.6269 405.267Q49.2946 404.297 49.0084 403.312Q48.7222 402.328 48.4828 401.331Q48.2435 400.334 48.0514 399.327Q47.8594 398.32 47.7151 397.305Q47.5709 396.29 47.4747 395.269Q47.3785 394.248 47.3306 393.224Q47.2828 392.2 47.2833 391.174Q47.2839 390.149 47.3328 389.125Q47.3818 388.101 47.479 387.08Q47.5763 386.059 47.7216 385.044Q47.867 384.03 48.0601 383.023Q48.2532 382.016 48.4937 381.019Q48.7341 380.022 49.0213 379.038Q49.3086 378.054 49.642 377.084Q49.9753 376.115 50.3541 375.162Q50.7329 374.209 51.1563 373.275Q51.5797 372.341 52.0467 371.429Q52.5136 370.516 53.0232 369.626Q53.5328 368.737 54.0838 367.872Q54.6348 367.007 55.226 366.17Q55.8172 365.332 56.4473 364.523Q57.0774 363.714 57.745 362.936Q58.4127 362.158 59.1162 361.412Q59.8199 360.666 60.5579 359.955Q61.2959 359.243 62.0667 358.567Q62.8375 357.891 63.6394 357.252Q64.4413 356.613 65.2724 356.012Q66.1036 355.412 66.9622 354.852Q67.8207 354.291 68.7048 353.772Q70.9244 352.468 73.2825 351.436Q75.6406 350.404 78.1042 349.658Z"/>
	<defs>
		<linearGradient id="gradient_1" gradientUnits="userSpaceOnUse" x1="95.625076" y1="391.91382" x2="115.86535" y2="371.59174">
			<stop offset="0" stop-color="#FCC353"/>
			<stop offset="1" stop-color="#FFEFC0"/>
		</linearGradient>
	</defs>
	<path fill="url(#gradient_1)" transform="matrix(0.195312 0 0 0.195312 0 -0.000244141)" d="M89.9737 356.74L90.8725 356.74C116.697 356.413 133.518 387.759 120.91 406.782C119.923 409.242 118.101 411.615 116.661 413.841C112.804 417.806 107.02 422.78 101.569 424.149C79.9271 434.864 49.2967 409.141 58.0471 381.413C59.3882 367.674 77.1577 357.455 89.9737 356.74Z"/>
	<defs>
		<linearGradient id="gradient_2" gradientUnits="userSpaceOnUse" x1="59.57383" y1="400.88306" x2="98.207603" y2="367.30688">
			<stop offset="0" stop-color="#F5741E"/>
			<stop offset="1" stop-color="#FECE5A"/>
		</linearGradient>
	</defs>
	<path fill="url(#gradient_2)" transform="matrix(0.195312 0 0 0.195312 0 -0.000244141)" d="M58.0471 381.413C59.3882 367.674 77.1577 357.455 89.9737 356.74C89.9847 360.743 90.0523 364.52 89.2836 368.467C89.3201 370.033 89.3624 371.592 89.2836 373.158C74.4821 374.48 73.908 390.011 89.2836 393.868L89.2836 404.351C85.983 403.462 83.9794 401.621 83.3941 398.253C81.4369 398.237 77.4396 397.152 77.9251 400.196C79.7843 406.135 83.6461 408.669 89.2836 410.314C89.347 411.306 89.2335 413.092 89.9737 413.841L91.4165 414.188L90.5562 414.495C90.8015 418.172 90.8869 421.83 90.8725 425.516C92.4892 425.491 101.363 423.97 101.569 424.149C79.9271 434.864 49.2967 409.141 58.0471 381.413Z"/>
	<path fill="#F79639" transform="matrix(0.195312 0 0 0.195312 0 -0.000244141)" d="M101.569 424.149C79.9271 434.864 49.2967 409.141 58.0471 381.413C58.2555 383.807 57.4509 386.518 56.9597 388.857C59.9214 382.37 62.0977 385.492 64.3166 390.15C63.9639 390.651 63.55 391.155 63.264 391.695C64.6365 397.345 66.9945 394.941 62.9338 397.494C61.8333 398.185 61.9228 402.931 62.6231 404.271C63.2288 402.535 62.7137 401.345 64.0238 399.871C64.9632 399.764 75.6868 402.332 73.8647 400.488L74.1787 400.074C75.7908 399.915 76.469 401.687 76.9095 399.726L77.1698 399.572C77.3949 399.859 77.5346 400.145 77.9251 400.196C79.7843 406.135 83.6461 408.669 89.2836 410.314C89.347 411.306 89.2335 413.092 89.9737 413.841L91.4165 414.188L90.5562 414.495C90.8015 418.172 90.8869 421.83 90.8725 425.516C92.4892 425.491 101.363 423.97 101.569 424.149Z"/>
	<path fill="#E7ECFA" transform="matrix(0.195312 0 0 0.195312 0 -0.000244141)" d="M89.2836 368.467C90.8788 368.374 92.4123 368.366 94.0072 368.467C93.8977 370.06 93.8793 371.565 94.0072 373.158C99.6923 374.002 102.968 376.955 104.699 382.305C102.676 382.817 100.595 383.256 98.6053 383.879C97.7239 381.13 96.6033 379.778 94.0072 378.533C93.9368 381.979 93.9394 385.412 94.0072 388.857C105.838 392.697 108.097 397.233 101.569 406.782C99.1524 408.159 96.5546 409.205 94.0072 410.314L94.0072 413.841C92.6656 413.839 91.3143 413.805 89.9737 413.841C89.2335 413.092 89.347 411.306 89.2836 410.314C83.6461 408.669 79.7843 406.135 77.9251 400.196C77.4396 397.152 81.4369 398.237 83.3941 398.253C83.9794 401.621 85.983 403.462 89.2836 404.351L89.2836 393.868C73.908 390.011 74.4821 374.48 89.2836 373.158C89.3624 371.592 89.3201 370.033 89.2836 368.467Z"/>
	<path fill="#F79639" transform="matrix(0.195312 0 0 0.195312 0 -0.000244141)" d="M89.2836 378.533C89.7657 381.117 89.1118 384.991 89.2836 387.841C88.0973 387.43 87.0459 386.866 85.9496 386.267C81.6533 382.432 85.2126 379.73 89.2836 378.533Z"/>
	<path fill="#FBB653" transform="matrix(0.195312 0 0 0.195312 0 -0.000244141)" d="M94.0072 394.7C97.8521 396.09 100.349 398.949 97.5502 402.556C92.1563 407.061 93.8527 399.061 94.0072 394.7Z"/>
	<path fill="#FBB653" transform="matrix(0.195312 0 0 0.195312 0 -0.000244141)" d="M101.569 406.782C104.038 406.242 104.29 403.027 105.873 401.467C110.235 403.478 113.715 407.816 119.117 407.238C121.882 406.942 116.319 411.597 116.661 413.841C112.804 417.806 107.02 422.78 101.569 424.149C101.363 423.97 92.4892 425.491 90.8725 425.516C90.8869 421.83 90.8015 418.172 90.5562 414.495L91.4165 414.188L89.9737 413.841C91.3143 413.805 92.6656 413.839 94.0072 413.841L94.0072 410.314C96.5546 409.205 99.1524 408.159 101.569 406.782Z"/>
	<defs>
		<linearGradient id="gradient_3" gradientUnits="userSpaceOnUse" x1="121.07693" y1="374.92685" x2="104.40941" y2="379.80316">
			<stop offset="0" stop-color="#FEBF49"/>
			<stop offset="1" stop-color="#FFD892"/>
		</linearGradient>
	</defs>
	<path fill="url(#gradient_3)" transform="matrix(0.195312 0 0 0.195312 0 -0.000244141)" d="M90.8725 356.74C116.697 356.413 133.518 387.759 120.91 406.782C120.594 404.279 124.507 400.112 122.868 397.615C121.845 398.191 122.929 404.079 118.846 402.101C127.671 401.301 122.401 370.496 104.315 361.594C102.035 360.472 99.5517 359.915 97.2773 358.82C95.9786 356.144 93.1643 358.582 90.8725 356.74Z"/>
	<path fill="#EA7975" transform="matrix(0.195312 0 0 0.195312 0 -0.000244141)" d="M350.939 358.279C354.265 358.68 363.137 347.911 365.755 345.397C376.471 356.367 387.481 367.027 398.402 377.792C402.992 382.316 410.099 388.177 413.538 393.393C417.193 398.934 419.547 409.591 415.863 415.76C414.519 425.521 404.761 433.26 395.384 434.535C381.665 436.4 374.039 427.073 365.28 418.35L343.186 396.511C338.799 392.215 334.579 387.62 329.698 383.879C333.089 379.135 344.811 371.205 340.96 368.467L344.25 365.387C346.578 363.126 348.831 360.748 350.939 358.279Z"/>
	<path fill="#EA5A54" transform="matrix(0.195312 0 0 0.195312 0 -0.000244141)" d="M344.25 365.387C350.177 369.878 355.076 375.209 360.346 380.404L385.016 405.126C391.158 411.284 396.476 420.002 406.433 418.697C408.016 418.489 415.39 415.56 415.863 415.76C414.519 425.521 404.761 433.26 395.384 434.535C381.665 436.4 374.039 427.073 365.28 418.35L343.186 396.511C338.799 392.215 334.579 387.62 329.698 383.879C333.089 379.135 344.811 371.205 340.96 368.467L344.25 365.387Z"/>
	<path fill="#B4EDFA" transform="matrix(0.195312 0 0 0.195312 0 -0.000244141)" d="M56.9597 325.684C60.2178 324.341 63.8488 323.659 67.3015 323.028C70.0508 332.849 76.0476 342.335 78.1042 349.658Q75.6406 350.404 73.2825 351.436Q70.9244 352.468 68.7048 353.772C64.037 350.311 57.8761 331.252 56.9597 325.684Z"/>
	<path fill="#B4EDFA" transform="matrix(0.195312 0 0 0.195312 0 -0.000244141)" d="M437.31 237.859L437.673 238.004C437.075 247.045 438.398 256.921 438.134 266.22C434.645 266.12 431.153 266.185 427.662 266.22C427.927 257.224 426.95 248.494 425.899 239.583C429.68 238.813 433.475 238.261 437.31 237.859Z"/>
	<path fill="#B4EDFA" transform="matrix(0.195312 0 0 0.195312 0 -0.000244141)" d="M292.175 79.2878C297.978 80.8306 313.633 85.0269 317.775 87.8949C318.309 89.1518 315.117 95.7796 314.497 97.3195L314.208 97.8483C313.867 98.0404 293.434 90.7262 289.597 90.1207C290.558 86.5421 291.34 82.8981 292.175 79.2878Z"/>
	<path fill="#B4EDFA" transform="matrix(0.195312 0 0 0.195312 0 -0.000244141)" d="M53.5177 282.032C55.6147 281.813 57.6243 281.907 59.7247 282.032C59.6775 290.462 61.3989 299.11 63.264 307.296C61.1572 307.55 59.058 307.901 56.9597 308.218C55.4347 308.555 53.854 308.746 52.314 309.025C50.2874 300.137 49.407 291.057 48.2288 282.032L53.5177 282.032Z"/>
	<path fill="#B4EDFA" transform="matrix(0.195312 0 0 0.195312 0 -0.000244141)" d="M227.357 74.1131L231.976 74.1131C231.816 77.4921 231.957 80.93 231.976 84.3153C225.722 84.729 214.95 85.9938 209.237 88.0839L206.402 88.0839C205.776 84.2604 205.3 80.7893 203.767 77.205C211.784 76.2431 219.147 74.3879 227.357 74.1131Z"/>
	<path fill="#B4EDFA" transform="matrix(0.195312 0 0 0.195312 0 -0.000244141)" d="M147.233 98.586C147.74 98.9556 151.828 106.288 152.594 107.559C147.955 111.165 136.547 118.979 131.255 122.081L130.768 121.93C128.911 119.006 126.637 116.365 124.709 113.478C131.466 107.611 139.529 103.071 147.233 98.586Z"/>
	<path fill="#B4EDFA" transform="matrix(0.195312 0 0 0.195312 0 -0.000244141)" d="M333.859 95.9681C341.402 97.3949 348.994 104.647 355.422 108.581L355.757 108.784C353.456 111.391 351.581 114.547 349.681 117.454L349.386 117.881L348.865 117.817C344.762 113.919 333.639 107.344 328.345 105.1C329.921 102.007 331.392 98.4637 333.859 95.9681Z"/>
	<path fill="#B4EDFA" transform="matrix(0.195312 0 0 0.195312 0 -0.000244141)" d="M425.899 282.032C429.712 282.15 433.507 282.307 437.31 282.605C437.041 291.497 434.079 300.173 433.858 309.025C430.138 308.478 426.289 307.07 422.527 307.296C423.949 299.952 426.598 289.276 425.899 282.032Z"/>
	<path fill="#B4EDFA" transform="matrix(0.195312 0 0 0.195312 0 -0.000244141)" d="M417.609 322.131C420.011 322.527 425.915 324.131 427.702 325.616C427.675 328.485 419.509 346.192 417.609 349.376C415.533 349.265 410.904 346.12 407.676 345.397C410.655 337.577 414.607 330.296 417.609 322.131Z"/>
	<path fill="#B4EDFA" transform="matrix(0.195312 0 0 0.195312 0 -0.000244141)" d="M425.899 197.102C428.261 198.699 432.939 218.462 433.858 222.038C430.4 222.711 427.31 223.516 424.053 224.876C423.339 224.603 417.63 204.191 415.863 200.592C419.141 198.914 422.279 197.779 425.899 197.102Z"/>
	<path fill="#B4EDFA" transform="matrix(0.195312 0 0 0.195312 0 -0.000244141)" d="M62.0262 197.102C65.3266 198.39 68.7652 199.286 72.0694 200.592C68.7107 207.358 65.1648 217.376 64.3166 224.876C60.8428 223.781 57.0787 223.622 53.5177 222.865C54.8221 216.671 58.9066 202.249 62.0262 197.102Z"/>
	<path fill="#B4EDFA" transform="matrix(0.195312 0 0 0.195312 0 -0.000244141)" d="M248.505 73.5859C257.4 73.5429 266.218 74.3867 275.03 75.507C274.759 78.772 274.144 81.9963 273.924 85.2736L273.634 86.0843C273.533 86.1235 252.256 84.0105 248.505 84.3153C248.58 80.7339 248.578 77.1672 248.505 73.5859Z"/>
	<path fill="#B4EDFA" transform="matrix(0.195312 0 0 0.195312 0 -0.000244141)" d="M111.411 125.146C114.022 127.139 116.941 130.362 118.933 132.968C115.221 136.242 102.855 149.822 101.569 150.591C99.1974 148.348 96.4489 146.484 94.0072 144.3C96.3885 139.143 106.677 128.943 111.411 125.146Z"/>
	<path fill="#B4EDFA" transform="matrix(0.195312 0 0 0.195312 0 -0.000244141)" d="M187.642 81.4973C187.962 81.9482 190.058 90.305 190.497 91.7278C187.456 92.9551 168.605 100.167 167.354 99.5746C165.881 96.6605 164.611 93.6157 163.275 90.6343C171.148 86.8844 179.417 84.3363 187.642 81.4973Z"/>
	<path fill="#B4EDFA" transform="matrix(0.195312 0 0 0.195312 0 -0.000244141)" d="M50.3582 239.583C53.6881 240.327 57.3417 240.463 60.7432 240.831C59.3939 248.783 58.9998 257.022 58.993 265.073C55.41 264.973 51.8157 265.12 48.2288 265.073C48.1688 256.393 49.1149 248.155 50.3582 239.583Z"/>
	<path fill="#B4EDFA" transform="matrix(0.195312 0 0 0.195312 0 -0.000244141)" d="M83.3941 158.162C85.4428 159.217 89.204 162.362 90.8725 164.034L90.7896 164.244C89.5802 167.215 79.9541 183.931 78.1793 185.184L78.1365 185.064L77.9251 185.15C75.142 183.493 72.2847 181.975 69.4322 180.442C72.5297 173.957 78.9707 163.13 83.3941 158.162Z"/>
</svg>
