<?xml version="1.0" encoding="utf-8" ?>
<svg xmlns="http://www.w3.org/2000/svg" xmlns:xlink="http://www.w3.org/1999/xlink" width="100" height="100">
	<path fill="#22519E" transform="matrix(0.195312 0 0 0.195312 0.00195312 -0.000244141)" d="M76.5067 384.13L76.4941 167.864C76.3325 152.877 79.0927 156.013 92.8399 156.011L118.287 156.023C118.278 159.162 118.195 162.324 118.287 165.46C121.01 165.643 123.71 165.762 126.336 164.87L126.336 168.768L89.2929 168.768C89.0216 176.631 89.2898 184.605 89.2901 192.479L89.2929 384.13C104.389 384.534 120.106 384.136 135.295 384.135L227.441 384.13L227.441 399.186L285.006 399.186C285.1 394.172 285.015 389.145 285.006 384.13L422.682 384.13L422.682 168.768C411.211 168.57 399.72 169.024 388.251 168.768L388.251 156.023L415.338 156.003C422.956 155.999 434.765 153.125 434.905 163.191C435.185 183.369 434.917 203.591 434.918 223.774L434.92 384.13C443.189 384.244 451.472 384.139 459.743 384.13C459.773 399.942 461.721 413.852 449.641 426.264C441.696 434.429 432.165 436.634 421.126 436.709L97.0048 436.72C83.4358 436.716 72.9243 436.563 62.4719 426.16C49.8941 413.642 51.6521 400.326 51.6699 384.13L76.5067 384.13Z"/>
	<path fill="#8DDDFB" transform="matrix(0.195312 0 0 0.195312 0.00195312 -0.000244141)" d="M297.19 397.185L433.822 397.177C437.659 397.173 443.593 396.707 447.179 397.185C447.294 412.558 440.889 423.643 424.268 423.752L116.702 423.751C113.595 423.749 110.241 423.467 107.169 423.754C103.57 424.306 89.5272 423.913 85.7516 423.651C72.1451 422.707 63.6179 410.137 64.5542 397.185L89.2929 397.185L213.772 397.185L213.772 412.25L297.19 412.25L297.19 397.185Z"/>
	<path fill="#1AAAF9" transform="matrix(0.195312 0 0 0.195312 0.00195312 -0.000244141)" d="M64.5542 397.185L89.2929 397.185C88.4295 411.828 97.287 416.766 107.169 423.754C103.57 424.306 89.5272 423.913 85.7516 423.651C72.1451 422.707 63.6179 410.137 64.5542 397.185Z"/>
	<path fill="#FEAF48" transform="matrix(0.195312 0 0 0.195312 0.00195312 -0.000244141)" d="M187.197 73.1361L213.772 73.1361C213.785 79.205 213.973 85.3368 213.772 91.3987C221.134 92.2477 229.805 95.8949 235.393 100.809C239.579 96.1182 244.287 91.506 249.006 87.3473C254.21 93.3077 260.463 99.4164 266.382 104.684C261.503 107.57 256.808 112.503 253.214 116.891C257.781 124.211 261.155 131.588 262.67 140.161C269.08 140.158 275.634 139.863 282.028 140.161L282.028 164.87C275.578 164.868 269.119 164.795 262.67 164.87C260.961 172.724 257.066 178.988 254.271 186.318C257.478 188.014 263.635 195.618 266.382 198.957L254.801 210.668C252.683 212.808 250.416 215.574 247.904 217.226C243.297 213.198 238.474 209.306 233.26 206.091C227.503 211.269 220.265 213.538 212.956 215.581L212.956 234.626L187.197 234.626C187.198 228.288 187.343 221.916 187.197 215.581C179.432 213.306 172.446 210.487 165.621 206.091C161.025 210.76 156.587 214.669 151.089 218.292C146.009 214.744 138.166 206.409 133.585 201.466C136.5 196.429 142.547 188.772 147.122 185.126C141.517 179.338 140.57 172.142 138.067 164.87C135.672 164.596 128.207 163.851 126.336 164.87C123.71 165.762 121.01 165.643 118.287 165.46C118.195 162.324 118.278 159.162 118.287 156.023L118.287 141.218L138.067 141.218C139.495 132.784 142.789 125.824 147.122 118.556L133.585 104.684C136.843 101.121 147.413 89.6102 151.089 87.3473C155.978 91.0361 160.291 96.4518 164.664 100.809C171.439 96.1515 179.041 92.6709 187.197 91.3987C186.228 85.3862 186.89 79.1905 187.197 73.1361ZM201.375 192.412Q202.335 192.384 203.292 192.31Q204.249 192.235 205.202 192.113Q206.154 191.992 207.1 191.824Q208.045 191.656 208.981 191.441Q209.917 191.227 210.842 190.967Q211.766 190.707 212.676 190.402Q213.587 190.097 214.481 189.748Q215.376 189.399 216.252 189.007Q217.128 188.614 217.984 188.179Q218.84 187.744 219.674 187.267Q220.508 186.791 221.317 186.274Q222.126 185.757 222.909 185.201Q223.692 184.645 224.447 184.052Q225.202 183.458 225.926 182.828Q226.651 182.198 227.344 181.534Q228.037 180.869 228.696 180.171Q229.356 179.473 229.981 178.744Q230.605 178.014 231.193 177.255Q231.781 176.496 232.331 175.709Q232.881 174.922 233.392 174.109Q233.903 173.296 234.374 172.459Q234.844 171.622 235.273 170.763Q235.702 169.904 236.088 169.025Q236.474 168.145 236.816 167.248Q237.159 166.351 237.457 165.439Q237.755 164.526 238.009 163.6Q238.262 162.673 238.469 161.736Q238.676 160.798 238.838 159.852Q238.999 158.905 239.113 157.952Q239.228 156.998 239.296 156.041Q239.363 155.083 239.384 154.123Q239.404 153.163 239.378 152.203Q239.352 151.243 239.278 150.286Q239.205 149.328 239.084 148.376Q238.964 147.423 238.797 146.477Q238.63 145.532 238.417 144.595Q238.204 143.659 237.945 142.734Q237.687 141.81 237.383 140.899Q237.079 139.988 236.731 139.093Q236.383 138.198 235.992 137.321Q235.6 136.444 235.166 135.588Q234.732 134.731 234.257 133.897Q233.781 133.062 233.265 132.253Q232.749 131.443 232.194 130.659Q231.64 129.875 231.047 129.12Q230.454 128.364 229.825 127.639Q229.196 126.913 228.532 126.219Q227.869 125.525 227.172 124.865Q226.475 124.204 225.746 123.579Q225.017 122.953 224.259 122.364Q223.501 121.775 222.714 121.224Q221.928 120.673 221.116 120.161Q220.303 119.649 219.467 119.178Q218.63 118.706 217.771 118.276Q216.913 117.847 216.034 117.459Q215.155 117.072 214.259 116.728Q213.362 116.385 212.45 116.085Q211.537 115.786 210.611 115.532Q209.685 115.277 208.748 115.069Q207.811 114.86 206.864 114.698Q205.918 114.536 204.965 114.42Q204.011 114.304 203.054 114.235Q202.096 114.166 201.136 114.145Q200.176 114.123 199.216 114.148Q198.255 114.173 197.296 114.246Q196.336 114.318 195.382 114.438Q194.428 114.557 193.48 114.723Q192.533 114.89 191.595 115.102Q190.657 115.315 189.731 115.573Q188.804 115.831 187.892 116.135Q186.979 116.439 186.082 116.786Q185.186 117.134 184.307 117.526Q183.429 117.918 182.571 118.352Q181.713 118.786 180.877 119.262Q180.041 119.738 179.23 120.254Q178.418 120.771 177.633 121.326Q176.848 121.882 176.091 122.475Q175.334 123.069 174.607 123.698Q173.881 124.328 173.186 124.993Q172.491 125.658 171.829 126.356Q171.168 127.054 170.541 127.784Q169.915 128.514 169.325 129.274Q168.735 130.033 168.183 130.821Q167.631 131.609 167.119 132.423Q166.607 133.237 166.135 134.075Q165.663 134.913 165.233 135.773Q164.802 136.633 164.415 137.513Q164.028 138.394 163.684 139.292Q163.34 140.19 163.041 141.104Q162.742 142.018 162.488 142.946Q162.234 143.874 162.026 144.813Q161.818 145.752 161.656 146.7Q161.495 147.648 161.38 148.603Q161.265 149.558 161.197 150.517Q161.129 151.476 161.108 152.438Q161.087 153.4 161.114 154.361Q161.141 155.322 161.214 156.281Q161.288 157.24 161.409 158.194Q161.529 159.149 161.697 160.096Q161.864 161.043 162.078 161.981Q162.292 162.918 162.551 163.844Q162.811 164.77 163.115 165.683Q163.42 166.595 163.769 167.491Q164.118 168.387 164.511 169.265Q164.904 170.143 165.339 171.001Q165.774 171.858 166.251 172.694Q166.728 173.529 167.245 174.34Q167.763 175.15 168.319 175.935Q168.876 176.719 169.47 177.475Q170.065 178.231 170.696 178.957Q171.326 179.683 171.992 180.378Q172.658 181.072 173.357 181.732Q174.056 182.393 174.786 183.018Q175.517 183.644 176.277 184.233Q177.038 184.822 177.826 185.372Q178.615 185.923 179.429 186.435Q180.244 186.946 181.082 187.417Q181.921 187.888 182.782 188.317Q183.643 188.746 184.523 189.132Q185.404 189.518 186.303 189.861Q187.202 190.204 188.116 190.502Q189.03 190.8 189.958 191.052Q190.886 191.305 191.826 191.512Q192.765 191.719 193.713 191.879Q194.661 192.04 195.617 192.154Q196.572 192.267 197.531 192.334Q198.49 192.401 199.452 192.42Q200.414 192.44 201.375 192.412Z"/>
	<path fill="#FE8754" transform="matrix(0.195312 0 0 0.195312 0.00195312 -0.000244141)" d="M197.008 102.545Q198.253 102.467 199.5 102.45Q200.748 102.433 201.995 102.477Q203.241 102.522 204.484 102.627Q205.727 102.733 206.964 102.899Q208.2 103.065 209.427 103.292Q210.653 103.519 211.867 103.806Q213.082 104.093 214.28 104.439Q215.479 104.785 216.659 105.19Q217.839 105.595 218.998 106.057Q220.156 106.519 221.291 107.037Q222.426 107.556 223.534 108.129Q224.641 108.703 225.72 109.33Q226.798 109.957 227.844 110.636Q228.891 111.316 229.902 112.046Q230.914 112.776 231.889 113.554Q232.863 114.333 233.798 115.159Q234.734 115.984 235.627 116.855Q236.521 117.726 237.37 118.639Q238.22 119.553 239.024 120.507Q239.827 121.461 240.583 122.453Q241.339 123.445 242.046 124.474Q242.752 125.502 243.407 126.564Q244.062 127.625 244.664 128.718Q245.266 129.811 245.814 130.931Q246.361 132.052 246.853 133.199Q247.345 134.345 247.781 135.514Q248.216 136.683 248.593 137.873Q248.97 139.062 249.288 140.268Q249.607 141.474 249.865 142.694Q250.124 143.915 250.322 145.146Q250.521 146.378 250.659 147.618Q250.796 148.858 250.873 150.103Q250.95 151.348 250.965 152.596Q250.981 153.843 250.935 155.09Q250.889 156.336 250.782 157.579Q250.675 158.822 250.507 160.058Q250.339 161.294 250.111 162.521Q249.882 163.747 249.594 164.961Q249.306 166.175 248.958 167.373Q248.61 168.571 248.204 169.751Q247.798 170.93 247.335 172.088Q246.871 173.247 246.352 174.381Q245.832 175.515 245.257 176.622Q244.682 177.729 244.054 178.807Q243.425 179.884 242.745 180.93Q242.064 181.975 241.333 182.986Q240.602 183.997 239.822 184.971Q239.042 185.944 238.215 186.878Q237.388 187.813 236.516 188.705Q235.645 189.597 234.73 190.446Q233.816 191.295 232.861 192.097Q231.906 192.9 230.913 193.655Q229.919 194.409 228.89 195.115Q227.861 195.82 226.798 196.473Q225.736 197.127 224.643 197.728Q223.549 198.329 222.428 198.875Q221.306 199.421 220.159 199.912Q219.012 200.402 217.843 200.836Q216.673 201.27 215.483 201.646Q214.294 202.021 213.087 202.338Q211.88 202.655 210.66 202.912Q209.439 203.169 208.207 203.366Q206.975 203.563 205.735 203.7Q204.495 203.836 203.25 203.911Q202.007 203.986 200.761 204Q199.516 204.014 198.271 203.967Q197.026 203.92 195.785 203.812Q194.544 203.704 193.31 203.535Q192.076 203.366 190.852 203.137Q189.627 202.908 188.416 202.62Q187.204 202.331 186.008 201.983Q184.812 201.635 183.634 201.229Q182.457 200.823 181.3 200.359Q180.144 199.896 179.012 199.377Q177.88 198.857 176.775 198.283Q175.669 197.708 174.594 197.081Q173.518 196.453 172.474 195.773Q171.43 195.093 170.421 194.363Q169.412 193.633 168.44 192.854Q167.468 192.075 166.535 191.249Q165.602 190.424 164.711 189.554Q163.82 188.683 162.973 187.77Q162.125 186.857 161.323 185.904Q160.522 184.951 159.768 183.959Q159.014 182.968 158.31 181.94Q157.605 180.913 156.952 179.852Q156.299 178.792 155.698 177.7Q155.098 176.609 154.552 175.49Q154.006 174.37 153.515 173.225Q153.024 172.08 152.59 170.913Q152.157 169.745 151.78 168.557Q151.404 167.37 151.087 166.166Q150.769 164.961 150.511 163.742Q150.253 162.524 150.055 161.294Q149.857 160.064 149.72 158.826Q149.583 157.588 149.506 156.345Q149.429 155.102 149.414 153.856Q149.398 152.611 149.444 151.366Q149.49 150.121 149.596 148.88Q149.703 147.639 149.87 146.405Q150.037 145.17 150.265 143.946Q150.493 142.721 150.78 141.509Q151.067 140.297 151.414 139.101Q151.76 137.904 152.165 136.726Q152.57 135.548 153.032 134.391Q153.494 133.235 154.012 132.102Q154.53 130.969 155.103 129.863Q155.676 128.757 156.303 127.681Q156.929 126.604 157.608 125.56Q158.286 124.515 159.015 123.505Q159.744 122.495 160.522 121.522Q161.3 120.549 162.124 119.615Q162.949 118.682 163.818 117.789Q164.687 116.897 165.599 116.049Q166.511 115.2 167.463 114.398Q168.416 113.595 169.406 112.84Q170.397 112.085 171.423 111.379Q172.45 110.673 173.51 110.019Q174.57 109.364 175.66 108.763Q176.751 108.161 177.87 107.613Q178.988 107.066 180.133 106.574Q181.277 106.082 182.444 105.647Q183.611 105.211 184.798 104.834Q185.985 104.456 187.189 104.137Q188.394 103.819 189.612 103.559Q190.83 103.3 192.06 103.1Q193.289 102.901 194.527 102.762Q195.765 102.623 197.008 102.545ZM201.375 192.412Q202.335 192.384 203.292 192.31Q204.249 192.235 205.202 192.113Q206.154 191.992 207.1 191.824Q208.045 191.656 208.981 191.441Q209.917 191.227 210.842 190.967Q211.766 190.707 212.676 190.402Q213.587 190.097 214.481 189.748Q215.376 189.399 216.252 189.007Q217.128 188.614 217.984 188.179Q218.84 187.744 219.674 187.267Q220.508 186.791 221.317 186.274Q222.126 185.757 222.909 185.201Q223.692 184.645 224.447 184.052Q225.202 183.458 225.926 182.828Q226.651 182.198 227.344 181.534Q228.037 180.869 228.696 180.171Q229.356 179.473 229.981 178.744Q230.605 178.014 231.193 177.255Q231.781 176.496 232.331 175.709Q232.881 174.922 233.392 174.109Q233.903 173.296 234.374 172.459Q234.844 171.622 235.273 170.763Q235.702 169.904 236.088 169.025Q236.474 168.145 236.816 167.248Q237.159 166.351 237.457 165.439Q237.755 164.526 238.009 163.6Q238.262 162.673 238.469 161.736Q238.676 160.798 238.838 159.852Q238.999 158.905 239.113 157.952Q239.228 156.998 239.296 156.041Q239.363 155.083 239.384 154.123Q239.404 153.163 239.378 152.203Q239.352 151.243 239.278 150.286Q239.205 149.328 239.084 148.376Q238.964 147.423 238.797 146.477Q238.63 145.532 238.417 144.595Q238.204 143.659 237.945 142.734Q237.687 141.81 237.383 140.899Q237.079 139.988 236.731 139.093Q236.383 138.198 235.992 137.321Q235.6 136.444 235.166 135.588Q234.732 134.731 234.257 133.897Q233.781 133.062 233.265 132.253Q232.749 131.443 232.194 130.659Q231.64 129.875 231.047 129.12Q230.454 128.364 229.825 127.639Q229.196 126.913 228.532 126.219Q227.869 125.525 227.172 124.865Q226.475 124.204 225.746 123.579Q225.017 122.953 224.259 122.364Q223.501 121.775 222.714 121.224Q221.928 120.673 221.116 120.161Q220.303 119.649 219.467 119.178Q218.63 118.706 217.771 118.276Q216.913 117.847 216.034 117.459Q215.155 117.072 214.259 116.728Q213.362 116.385 212.45 116.085Q211.537 115.786 210.611 115.532Q209.685 115.277 208.748 115.069Q207.811 114.86 206.864 114.698Q205.918 114.536 204.965 114.42Q204.011 114.304 203.054 114.235Q202.096 114.166 201.136 114.145Q200.176 114.123 199.216 114.148Q198.255 114.173 197.296 114.246Q196.336 114.318 195.382 114.438Q194.428 114.557 193.48 114.723Q192.533 114.89 191.595 115.102Q190.657 115.315 189.731 115.573Q188.804 115.831 187.892 116.135Q186.979 116.439 186.082 116.786Q185.186 117.134 184.307 117.526Q183.429 117.918 182.571 118.352Q181.713 118.786 180.877 119.262Q180.041 119.738 179.23 120.254Q178.418 120.771 177.633 121.326Q176.848 121.882 176.091 122.475Q175.334 123.069 174.607 123.698Q173.881 124.328 173.186 124.993Q172.491 125.658 171.829 126.356Q171.168 127.054 170.541 127.784Q169.915 128.514 169.325 129.274Q168.735 130.033 168.183 130.821Q167.631 131.609 167.119 132.423Q166.607 133.237 166.135 134.075Q165.663 134.913 165.233 135.773Q164.802 136.633 164.415 137.513Q164.028 138.394 163.684 139.292Q163.34 140.19 163.041 141.104Q162.742 142.018 162.488 142.946Q162.234 143.874 162.026 144.813Q161.818 145.752 161.656 146.7Q161.495 147.648 161.38 148.603Q161.265 149.558 161.197 150.517Q161.129 151.476 161.108 152.438Q161.087 153.4 161.114 154.361Q161.141 155.322 161.214 156.281Q161.288 157.24 161.409 158.194Q161.529 159.149 161.697 160.096Q161.864 161.043 162.078 161.981Q162.292 162.918 162.551 163.844Q162.811 164.77 163.115 165.683Q163.42 166.595 163.769 167.491Q164.118 168.387 164.511 169.265Q164.904 170.143 165.339 171.001Q165.774 171.858 166.251 172.694Q166.728 173.529 167.245 174.34Q167.763 175.15 168.319 175.935Q168.876 176.719 169.47 177.475Q170.065 178.231 170.696 178.957Q171.326 179.683 171.992 180.378Q172.658 181.072 173.357 181.732Q174.056 182.393 174.786 183.018Q175.517 183.644 176.277 184.233Q177.038 184.822 177.826 185.372Q178.615 185.923 179.429 186.435Q180.244 186.946 181.082 187.417Q181.921 187.888 182.782 188.317Q183.643 188.746 184.523 189.132Q185.404 189.518 186.303 189.861Q187.202 190.204 188.116 190.502Q189.03 190.8 189.958 191.052Q190.886 191.305 191.826 191.512Q192.765 191.719 193.713 191.879Q194.661 192.04 195.617 192.154Q196.572 192.267 197.531 192.334Q198.49 192.401 199.452 192.42Q200.414 192.44 201.375 192.412Z"/>
	<path fill="#1AAAF9" transform="matrix(0.195312 0 0 0.195312 0.00195312 -0.000244141)" d="M212.956 126.26C215.846 129.207 218.799 132.065 221.619 135.084C218.411 138.528 215.112 141.894 211.856 145.292C216.757 145.184 221.691 145.289 226.595 145.292C226.701 149.503 226.6 153.739 226.595 157.953C222.545 158.104 218.441 157.959 214.386 157.953C210.095 157.949 201.049 158.581 197.288 157.612C192.884 156.478 190.441 151.079 192.855 147.162C194.691 144.183 197.824 141.729 200.263 139.242L212.956 126.26Z"/>
	<path fill="#FED394" transform="matrix(0.195312 0 0 0.195312 0.00195312 -0.000244141)" d="M196.426 82.7306L204.729 82.7306L204.729 91.3987L196.426 91.3987C196.435 88.5094 196.456 85.6198 196.426 82.7306Z"/>
	<path fill="#FED394" transform="matrix(0.195312 0 0 0.195312 0.00195312 -0.000244141)" d="M267.273 148.197C268.913 148.14 270.566 148.188 272.208 148.197L272.208 156.023L269.863 156.023C267.81 155.948 265.786 155.878 263.732 156.023L263.732 148.197L267.273 148.197Z"/>
	<path fill="#FED394" transform="matrix(0.195312 0 0 0.195312 0.00195312 -0.000244141)" d="M247.904 102.605C249.875 103.277 251.584 105.507 253.214 106.797C251.87 108.378 250.52 109.874 249.006 111.293L248.586 111.304C247.006 109.873 245.533 108.314 244.035 106.797C245.185 105.289 246.58 103.96 247.904 102.605Z"/>
	<path fill="#FED394" transform="matrix(0.195312 0 0 0.195312 0.00195312 -0.000244141)" d="M153.993 103.633C155.342 104.245 156.586 105.765 157.623 106.797C156.442 108.32 155.216 109.805 153.993 111.293L153.623 111.315C152.317 110.323 151.26 108.979 150.173 107.753L153.993 103.633Z"/>
	<path fill="#07C6BF" transform="matrix(0.195312 0 0 0.195312 0.00195312 -0.000244141)" d="M401.983 73.1361C408.922 73.1168 423.633 71.1841 428.735 75.6324C428.965 77.6695 428.777 79.8287 428.757 81.8803L428.747 109.374C428.747 112.134 429.494 120.539 427.707 122.757C425.745 125.192 418.789 125.73 416.719 123.383C414.552 120.927 415.403 114.695 415.405 111.725L415.423 96.1034C407.215 103.606 399.844 112.137 391.996 120.023C387.215 124.826 382.081 123.86 375.758 123.862L300.375 123.858C295.402 123.859 273.676 124.478 270.325 123.433C268.79 120.663 277.816 111.529 280.03 109.993L351.966 109.99C362.335 109.992 372.845 110.361 383.198 109.993C389.444 105.473 401.381 91.7637 406.872 85.8993C401.429 85.3398 387.054 87.5376 383.244 84.248C381.035 82.3409 380.197 77.2868 382.338 75.0472C385.788 71.4392 397.389 73.1206 401.983 73.1361Z"/>
	<path fill="#22519E" transform="matrix(0.195312 0 0 0.195312 0.00195312 -0.000244141)" d="M295.558 223.401C299.501 222.987 301.742 222.872 303.413 226.961C303.058 230.033 298.689 248.611 296.941 250.366C293.357 253.964 290.094 250.288 287.532 247.662C282.734 251.377 277.172 257.498 272.704 261.878L246.323 287.556C242.288 291.48 237.37 298.437 231.757 299.799C226.918 298.502 219.475 293.064 214.873 290.428L189.555 276.191C182.046 280.983 174.28 285.275 166.649 289.856L146.771 301.813C143.415 303.801 139.118 307.103 135.316 307.969C130.448 308.129 126.303 302.949 128.97 298.342C130.676 295.395 135.11 293.845 137.913 292.207L170.631 272.847C190.611 260.662 184.707 259.281 203.849 269.916C212.887 274.937 221.974 279.712 230.759 285.189C246.048 270.989 264.791 253.27 279.042 237.945C264.084 221.96 283.511 224.373 295.558 223.401Z"/>
	<path fill="#FE8754" transform="matrix(0.195312 0 0 0.195312 0.00195312 -0.000244141)" d="M320.116 254.061C328.663 254.181 337.224 254.073 345.773 254.061L345.773 365.481C342.932 365.29 339.971 365.454 337.116 365.458L320.116 365.481C320.502 353.137 320.121 340.65 320.12 328.294L320.116 254.061Z"/>
	<path fill="#177ED7" transform="matrix(0.195312 0 0 0.195312 0.00195312 -0.000244141)" d="M292.567 279.601L308.749 279.601L308.749 365.481L297.938 365.481L282.028 365.481L282.011 290.391C281.98 286.806 281.755 283.177 282.028 279.601C285.542 279.667 289.053 279.633 292.567 279.601Z"/>
	<path fill="#1AAAF9" transform="matrix(0.195312 0 0 0.195312 0.00195312 -0.000244141)" d="M170.754 298L195.334 298L195.334 365.481L170.754 365.481C171.092 360.267 170.764 354.909 170.762 349.674L170.754 315.148C170.751 309.448 170.483 303.689 170.754 298Z"/>
	<defs>
		<linearGradient id="gradient_0" gradientUnits="userSpaceOnUse" x1="355.92807" y1="300.8212" x2="375.4635" y2="299.41864">
			<stop offset="0" stop-color="#C1C7D9"/>
			<stop offset="1" stop-color="#BDD1DA"/>
		</linearGradient>
	</defs>
	<path fill="url(#gradient_0)" transform="matrix(0.195312 0 0 0.195312 0.00195312 -0.000244141)" d="M359.984 235.245L377.138 235.245C375.38 235.651 373.463 235.409 371.681 235.245L371.681 365.481L359.984 365.481L359.981 249.84C359.977 244.969 359.817 240.116 359.984 235.245Z"/>
	<path fill="#1AAAF9" transform="matrix(0.195312 0 0 0.195312 0.00195312 -0.000244141)" d="M245.014 306.332L269.863 306.332L269.863 365.481L254.115 365.497C251.094 365.524 248.021 365.773 245.014 365.481C245.309 360.404 245.027 355.194 245.022 350.099L245.024 320.182C245.021 315.607 244.62 310.878 245.014 306.332Z"/>
	<path fill="#07C6BF" transform="matrix(0.195312 0 0 0.195312 0.00195312 -0.000244141)" d="M132.348 321.744L159.044 321.744L159.044 365.481C156.096 365.712 153.02 365.493 150.053 365.492L132.348 365.481C132.549 360.589 132.362 355.613 132.36 350.711L132.348 321.744Z"/>
	<path fill="#22519E" transform="matrix(0.195312 0 0 0.195312 0.00195312 -0.000244141)" d="M312.257 222.652L385.701 222.652L385.701 235.245L377.138 235.245L359.984 235.245C354.667 235.01 349.236 235.231 343.907 235.233L312.257 235.245L312.257 222.652Z"/>
	<path fill="#FE8754" transform="matrix(0.195312 0 0 0.195312 0.00195312 -0.000244141)" d="M208.155 330.027L233.26 330.027L233.26 365.481L208.155 365.481L208.155 330.027Z"/>
	<path fill="#AEBFD0" transform="matrix(0.195312 0 0 0.195312 0.00195312 -0.000244141)" d="M314.89 173.749C321.738 173.438 364.852 173.134 367.644 174.231C373.814 176.656 372.132 184.2 366.803 186.318C364.543 186.558 362.137 186.359 359.858 186.348L346.718 186.31C340.456 186.298 317.797 187.681 313.177 185.395C307.652 182.662 309.557 175.251 314.89 173.749Z"/>
	<path fill="#AEBFD0" transform="matrix(0.195312 0 0 0.195312 0.00195312 -0.000244141)" d="M317.338 147.357C327.949 147.11 357.484 145.905 367.297 147.474C371.567 148.157 375.78 159.519 363.218 159.514L331.484 159.518C327.534 159.52 315.152 160.88 312.008 158.35C307.095 154.396 310.289 147.911 317.338 147.357Z"/>
</svg>
