<?xml version="1.0" encoding="utf-8" ?>
<svg xmlns="http://www.w3.org/2000/svg" xmlns:xlink="http://www.w3.org/1999/xlink" width="100" height="100">
	<path fill="#9AE4F9" transform="matrix(0.195312 0 0 0.195312 0.00195312 -0.000244141)" d="M287.985 127.879L287.979 102.249C287.972 76.2259 289.439 72.9482 315.925 72.998L402.656 73.0115C412.11 73.0104 429.524 70.4071 436.324 77.4156C442.06 83.3281 440.998 89.9703 441.002 97.5352L441.003 160.038C441.004 167.643 441.132 175.276 440.956 182.878C440.549 200.497 429.537 199.386 415.256 199.375L388.896 199.367C382.242 205.344 373.126 218.878 365.21 220.654C366.996 228.4 370.197 249.087 369.393 257.343C367.558 256.746 365.789 256.039 364.007 255.299C363.866 250.591 366.513 242.249 359.767 241.822C355.704 241.655 334.687 241.082 332.86 242.764C331.742 243.794 332.216 253.285 332.211 255.299C328.816 256.286 325.621 257.802 322.258 258.821C319.738 257.177 317.382 255.255 314.996 253.425C296.289 241.844 320.845 229.777 294.305 229.794L239.159 229.811L102.979 229.804C97.5113 229.8 91.6676 229.412 86.2381 230.039C75.1412 231.321 78.2246 250.769 78.2252 258.82L78.2398 350.343C78.2395 359.508 77.9461 368.75 78.2325 377.906C78.6545 391.398 92.4486 387.766 102.058 387.757L272.937 387.752C275.894 387.739 279.416 387.298 282.289 387.753L299.882 387.753C302.341 385.618 309.549 376.1 312.709 376.688C322.866 378.579 304.564 394.614 303.296 395.139C299.827 396.576 266.902 395.914 260.468 395.908C252.756 396.241 237.826 396.646 230.23 395.908L230.213 417.038C230.21 420.443 229.986 424.017 230.23 427.405C235.996 427.783 245.249 426.693 250.317 427.768C255.686 428.907 254.429 435.013 248.609 435.665C236.018 437.077 211.794 436.037 198.782 435.743C195.791 435.956 192.655 435.75 189.643 435.745L152.503 435.762C149.044 435.765 141.255 436.903 138.431 434.429C136.319 432.58 137.457 428.259 140.159 427.626C143.106 426.937 157.826 427.327 161.755 427.405L161.755 395.908L93.4586 395.924C73.5141 395.931 70.259 391.466 70.2495 369.885L70.2427 257.262C70.238 242.393 66.5879 223.648 87.4109 222.031C88.2116 216.308 89.8313 208.419 92.2771 203.263C93.7011 200.262 97.6546 198.922 99.621 202.172C101.199 204.779 96.5258 218.392 95.7419 222.031C104.912 222.386 114.242 221.387 123.374 222.031C123.943 216.522 128.248 209.358 130.951 204.477C122.875 198.292 115.523 192.275 109.868 183.633C91.5226 155.599 99.9896 116.093 128.106 97.9142C157.015 79.2226 192.758 86.4255 213.64 113.254C216.062 116.365 218.136 119.729 220.26 123.045C222.874 121.853 226.317 121.666 229.156 121.251C247.102 118.63 271.33 120.123 287.985 127.879ZM341.816 199.93C344.971 204.602 358.417 221.053 365.21 220.654C373.126 218.878 382.242 205.344 388.896 199.367L415.256 199.375C429.537 199.386 440.549 200.497 440.956 182.878C441.132 175.276 441.004 167.643 441.003 160.038L441.002 97.5352C440.998 89.9703 442.06 83.3281 436.324 77.4156C429.524 70.4071 412.11 73.0104 402.656 73.0115L315.925 72.998C289.439 72.9482 287.972 76.2259 287.979 102.249L287.985 127.879L287.978 167.34C287.981 194.125 284.277 199.93 315.323 199.942L341.816 199.93ZM195.743 205.932C208.084 211.948 220.481 200.829 215.492 186.7C213.078 183.142 202.112 172.002 198.782 169.454C214.969 132.019 181.799 98.7148 146.835 112.713C126.687 120.779 116.994 144.748 125.183 164.649C133.387 184.586 156.451 195.362 176.933 188.054L185.539 196.711C188.762 199.995 191.705 203.608 195.743 205.932Z"/>
	<defs>
		<linearGradient id="gradient_0" gradientUnits="userSpaceOnUse" x1="446.48096" y1="175.15053" x2="282.55502" y2="98.086494">
			<stop offset="0" stop-color="#4846DE"/>
			<stop offset="1" stop-color="#B19DFF"/>
		</linearGradient>
	</defs>
	<path fill="url(#gradient_0)" transform="matrix(0.195312 0 0 0.195312 0.00195312 -0.000244141)" d="M287.985 127.879L287.979 102.249C287.972 76.2259 289.439 72.9482 315.925 72.998L402.656 73.0115C412.11 73.0104 429.524 70.4071 436.324 77.4156C442.06 83.3281 440.998 89.9703 441.002 97.5352L441.003 160.038C441.004 167.643 441.132 175.276 440.956 182.878C440.549 200.497 429.537 199.386 415.256 199.375L388.896 199.367C382.242 205.344 373.126 218.878 365.21 220.654C358.417 221.053 344.971 204.602 341.816 199.93L315.323 199.942C284.277 199.93 287.981 194.125 287.978 167.34L287.985 127.879ZM364.007 213.793C365.982 212.541 367.535 210.949 369.393 209.585C373.517 205.397 382.233 195.194 386.501 192.259C395.943 191.913 405.519 192.278 414.975 192.275C438.121 192.268 433.426 188.644 433.426 167.535L433.426 104.918C433.44 87.7496 437.634 80.671 417.358 80.6936L356.042 80.7026L320.04 80.6902C314.634 80.6904 308.037 80.2269 302.746 80.8251C293.485 81.8724 295.733 92.8323 295.736 99.4522L295.747 167.817C295.744 173.586 295.573 179.382 295.645 185.145C295.755 193.952 304.677 192.35 310.786 192.291L330.54 192.231C334.444 192.225 340.606 191.173 344.187 193.086C345.852 193.976 361.145 210.269 364.007 213.793Z"/>
	<path fill="#CBCAF7" transform="matrix(0.195312 0 0 0.195312 0.00195312 -0.000244141)" d="M349.851 151.266C353.283 151.033 356.868 151.255 360.316 151.256L399.207 151.261C402.66 151.261 406.377 151.017 409.785 151.584C414.666 152.396 413.97 157.278 410.394 159.238C408.234 159.521 405.91 159.285 403.729 159.26L364.276 159.242C360.496 159.242 353.527 159.751 350.205 158.918C345.665 157.779 346.45 153.164 349.851 151.266Z"/>
	<path fill="#CBCAF7" transform="matrix(0.195312 0 0 0.195312 0.00195312 -0.000244141)" d="M349.851 106.15C356.716 106.211 409.445 105.589 411.318 106.74C413.819 108.278 413.163 113.133 410.394 113.995C403.358 114.161 354.563 115.123 349.474 113.707C345.834 112.695 346.11 107.676 349.851 106.15Z"/>
	<path fill="#CBCAF7" transform="matrix(0.195312 0 0 0.195312 0.00195312 -0.000244141)" d="M361.104 163.499C368.631 163.367 376.176 163.541 383.706 163.508C387.052 163.493 402.305 161.62 402.744 167.027C403.237 173.086 392.471 171.578 388.896 171.581L363.348 171.585C360.839 171.587 341.988 173.331 347.71 165.258C349.554 162.657 357.668 163.809 360.704 163.537L361.104 163.499Z"/>
	<path fill="#CBCAF7" transform="matrix(0.195312 0 0 0.195312 0.00195312 -0.000244141)" d="M369.393 119.212L387.881 119.199C391.167 119.194 402.048 117.636 402.391 122.573C402.916 130.124 386.133 126.982 380.375 126.968L359.31 126.961C356.186 126.962 347.403 128.735 347.219 123.789C346.936 116.185 363.473 119.191 369.393 119.212Z"/>
	<path fill="#FA80AF" transform="matrix(0.195312 0 0 0.195312 0.00195312 -0.000244141)" d="M322.258 149.261C327.577 149.007 327.037 153.27 326.766 157.259C328.578 157.124 332.528 156.472 333.925 157.801C335.267 159.076 335.275 162.078 333.999 163.373C332.572 164.822 328.663 164.284 326.766 164.259L326.766 169.454C326.046 171.131 325.476 171.833 323.891 172.749C319.133 172.379 319.628 167.942 319.625 164.259C316.209 164.446 307.589 163.153 312.09 158.232C313.512 156.676 317.643 157.226 319.625 157.259C319.465 153.767 318.785 151.192 322.258 149.261Z"/>
	<path fill="#FA80AF" transform="matrix(0.195312 0 0 0.195312 0.00195312 -0.000244141)" d="M323.034 104.195C327.465 104.846 326.82 109.049 326.766 112.554C330.155 112.52 338.494 113.495 333.69 118.697C332.39 120.104 328.633 119.953 326.766 120.161C326.771 124.239 327.531 126.474 323.034 127.879C321.454 127.536 320.734 126.831 319.625 125.737C319.393 123.598 319.573 121.364 319.625 119.212C309.091 120.693 307.177 112.528 319.625 112.554C319.677 108.584 319.072 106.32 323.034 104.195Z"/>
	<path fill="#FA80AF" transform="matrix(0.195312 0 0 0.195312 0.00195312 -0.000244141)" d="M130.951 204.477C122.875 198.292 115.523 192.275 109.868 183.633C91.5226 155.599 99.9896 116.093 128.106 97.9142C157.015 79.2226 192.758 86.4255 213.64 113.254C216.062 116.365 218.136 119.729 220.26 123.045C230.587 141.188 230.11 170.59 215.492 186.7C220.481 200.829 208.084 211.948 195.743 205.932C176.952 217.007 148.845 216.939 130.951 204.477ZM195.743 205.932C208.084 211.948 220.481 200.829 215.492 186.7C213.078 183.142 202.112 172.002 198.782 169.454C214.969 132.019 181.799 98.7148 146.835 112.713C126.687 120.779 116.994 144.748 125.183 164.649C133.387 184.586 156.451 195.362 176.933 188.054L185.539 196.711C188.762 199.995 191.705 203.608 195.743 205.932Z"/>
	<defs>
		<linearGradient id="gradient_1" gradientUnits="userSpaceOnUse" x1="203.46483" y1="209.08917" x2="139.93633" y2="116.73166">
			<stop offset="0" stop-color="#3732CF"/>
			<stop offset="1" stop-color="#6450DC"/>
		</linearGradient>
	</defs>
	<path fill="url(#gradient_1)" transform="matrix(0.195312 0 0 0.195312 0.00195312 -0.000244141)" d="M176.933 188.054C156.451 195.362 133.387 184.586 125.183 164.649C116.994 144.748 126.687 120.779 146.835 112.713C181.799 98.7148 214.969 132.019 198.782 169.454C202.112 172.002 213.078 183.142 215.492 186.7C220.481 200.829 208.084 211.948 195.743 205.932C191.705 203.608 188.762 199.995 185.539 196.711L176.933 188.054ZM165.372 182.663Q166.177 182.603 166.979 182.504Q167.78 182.405 168.576 182.267Q169.372 182.129 170.159 181.952Q170.947 181.775 171.726 181.559Q172.504 181.343 173.271 181.09Q174.037 180.836 174.791 180.545Q175.544 180.255 176.282 179.927Q177.02 179.599 177.741 179.236Q178.463 178.873 179.165 178.474Q179.868 178.076 180.55 177.644Q181.232 177.211 181.892 176.746Q182.552 176.28 183.188 175.783Q183.824 175.286 184.436 174.758Q185.047 174.23 185.631 173.673Q186.216 173.116 186.772 172.531Q187.329 171.946 187.856 171.334Q188.383 170.722 188.879 170.085Q189.375 169.448 189.84 168.787Q190.304 168.127 190.736 167.444Q191.167 166.761 191.565 166.058Q191.962 165.355 192.325 164.634Q192.687 163.912 193.014 163.174Q193.34 162.435 193.63 161.681Q193.92 160.928 194.173 160.161Q194.425 159.393 194.64 158.615Q194.855 157.836 195.031 157.048Q195.207 156.26 195.344 155.464Q195.481 154.669 195.579 153.867Q195.677 153.065 195.736 152.26Q195.794 151.455 195.813 150.647Q195.832 149.84 195.811 149.033Q195.79 148.225 195.73 147.42Q195.67 146.615 195.57 145.813Q195.47 145.012 195.331 144.217Q195.192 143.421 195.014 142.633Q194.836 141.846 194.619 141.068Q194.403 140.29 194.148 139.523Q193.894 138.757 193.602 138.004Q193.31 137.251 192.982 136.513Q192.654 135.775 192.289 135.055Q191.925 134.334 191.526 133.632Q191.127 132.93 190.694 132.248Q190.261 131.567 189.795 130.907Q189.329 130.248 188.831 129.612Q188.333 128.976 187.804 128.365Q187.276 127.755 186.718 127.171Q186.16 126.587 185.574 126.031Q184.988 125.475 184.376 124.949Q183.764 124.423 183.126 123.927Q182.489 123.431 181.827 122.968Q181.166 122.504 180.483 122.073Q179.8 121.642 179.097 121.246Q178.393 120.849 177.671 120.487Q176.949 120.126 176.21 119.8Q175.471 119.474 174.717 119.185Q173.963 118.896 173.196 118.644Q172.429 118.392 171.65 118.179Q170.871 117.965 170.083 117.79Q169.295 117.614 168.499 117.478Q167.703 117.342 166.901 117.245Q166.099 117.148 165.294 117.09Q164.488 117.032 163.681 117.014Q162.874 116.996 162.066 117.018Q161.259 117.04 160.454 117.101Q159.65 117.162 158.85 117.263Q158.05 117.363 157.255 117.503Q156.461 117.643 155.675 117.821Q154.888 118 154.112 118.216Q153.335 118.433 152.57 118.688Q151.805 118.942 151.053 119.234Q150.301 119.526 149.564 119.854Q148.828 120.183 148.108 120.547Q147.389 120.911 146.688 121.31Q145.987 121.709 145.307 122.142Q144.626 122.574 143.968 123.04Q143.309 123.506 142.675 124.003Q142.04 124.5 141.43 125.028Q140.821 125.556 140.238 126.113Q139.655 126.67 139.1 127.255Q138.545 127.84 138.019 128.452Q137.493 129.064 136.998 129.7Q136.503 130.337 136.04 130.997Q135.577 131.657 135.147 132.339Q134.716 133.021 134.32 133.723Q133.924 134.426 133.562 135.147Q133.201 135.868 132.875 136.605Q132.55 137.343 132.26 138.096Q131.971 138.849 131.72 139.615Q131.468 140.381 131.254 141.158Q131.04 141.936 130.864 142.723Q130.689 143.51 130.552 144.305Q130.415 145.1 130.318 145.9Q130.22 146.701 130.162 147.505Q130.104 148.309 130.085 149.115Q130.066 149.922 130.087 150.728Q130.108 151.534 130.168 152.338Q130.228 153.142 130.328 153.942Q130.428 154.743 130.566 155.537Q130.705 156.331 130.883 157.118Q131.06 157.905 131.276 158.682Q131.492 159.459 131.746 160.224Q132 160.99 132.291 161.742Q132.582 162.494 132.909 163.231Q133.237 163.968 133.6 164.688Q133.964 165.408 134.362 166.109Q134.76 166.81 135.192 167.491Q135.624 168.172 136.089 168.831Q136.554 169.49 137.05 170.125Q137.547 170.76 138.074 171.371Q138.601 171.981 139.158 172.565Q139.714 173.148 140.299 173.704Q140.883 174.259 141.494 174.786Q142.105 175.312 142.741 175.808Q143.378 176.304 144.037 176.768Q144.697 177.231 145.378 177.663Q146.06 178.094 146.762 178.491Q147.464 178.888 148.184 179.25Q148.905 179.612 149.642 179.939Q150.379 180.265 151.132 180.555Q151.884 180.845 152.65 181.097Q153.416 181.35 154.193 181.565Q154.971 181.78 155.758 181.956Q156.545 182.133 157.339 182.27Q158.134 182.408 158.934 182.506Q159.734 182.605 160.539 182.664Q161.343 182.723 162.149 182.743Q162.955 182.762 163.762 182.742Q164.568 182.722 165.372 182.663ZM183.966 184.611C188.777 189.147 194.66 196.171 199.606 199.93C206.661 201.286 212.65 194.965 207.645 188.752C205.999 186.709 196.134 176.71 194.279 175.426C191.052 178.871 187.934 182.001 183.966 184.611Z"/>
	<path fill="#9A7CF2" transform="matrix(0.195312 0 0 0.195312 0.00195312 -0.000244141)" d="M87.4109 222.031C88.2116 216.308 89.8313 208.419 92.2771 203.263C93.7011 200.262 97.6546 198.922 99.621 202.172C101.199 204.779 96.5258 218.392 95.7419 222.031C104.912 222.386 114.242 221.387 123.374 222.031L204.012 222.03C216.906 222.029 229.857 221.764 242.744 222.031C245.847 223.443 276.39 221.837 283.809 223.084L284.19 223.937L284.131 223.632C284.617 224.535 287.254 228.073 285.721 228.937C282.438 230.787 242.621 227.204 239.159 229.811L102.979 229.804C97.5113 229.8 91.6676 229.412 86.2381 230.039C75.1412 231.321 78.2246 250.769 78.2252 258.82L78.2398 350.343C78.2395 359.508 77.9461 368.75 78.2325 377.906C78.6545 391.398 92.4486 387.766 102.058 387.757L272.937 387.752C275.894 387.739 279.416 387.298 282.289 387.753L299.882 387.753C302.341 385.618 309.549 376.1 312.709 376.688C322.866 378.579 304.564 394.614 303.296 395.139C299.827 396.576 266.902 395.914 260.468 395.908C252.756 396.241 237.826 396.646 230.23 395.908L230.213 417.038C230.21 420.443 229.986 424.017 230.23 427.405C235.996 427.783 245.249 426.693 250.317 427.768C255.686 428.907 254.429 435.013 248.609 435.665C236.018 437.077 211.794 436.037 198.782 435.743C195.791 435.956 192.655 435.75 189.643 435.745L152.503 435.762C149.044 435.765 141.255 436.903 138.431 434.429C136.319 432.58 137.457 428.259 140.159 427.626C143.106 426.937 157.826 427.327 161.755 427.405L161.755 395.908L93.4586 395.924C73.5141 395.931 70.259 391.466 70.2495 369.885L70.2427 257.262C70.238 242.393 66.5879 223.648 87.4109 222.031Z"/>
	<defs>
		<linearGradient id="gradient_2" gradientUnits="userSpaceOnUse" x1="252.2476" y1="414.85056" x2="220.13097" y2="416.34686">
			<stop offset="0" stop-color="#3B2AC4"/>
			<stop offset="1" stop-color="#7156EA"/>
		</linearGradient>
	</defs>
	<path fill="url(#gradient_2)" transform="matrix(0.195312 0 0 0.195312 0.00195312 -0.000244141)" d="M221.727 396.5C218.857 396.507 215.953 396.605 213.089 396.414C216.076 395.789 227.297 395.477 230.23 395.908L230.213 417.038C230.21 420.443 229.986 424.017 230.23 427.405C235.996 427.783 245.249 426.693 250.317 427.768C255.686 428.907 254.429 435.013 248.609 435.665C236.018 437.077 211.794 436.037 198.782 435.743C199.427 435.201 217.992 435.646 220.786 435.133C221.181 431.559 223.156 428.743 223.727 425.301C225.079 417.148 222.818 404.63 221.727 396.5Z"/>
	<path fill="#4945DF" transform="matrix(0.195312 0 0 0.195312 0.00195312 -0.000244141)" d="M299.882 387.753C302.341 385.618 309.549 376.1 312.709 376.688C322.866 378.579 304.564 394.614 303.296 395.139C299.827 396.576 266.902 395.914 260.468 395.908L260.591 395.495C264.938 393.435 270.736 398.168 269.305 392.666C268.781 390.653 267.649 390.091 269.261 388.419L269.141 387.928L269.289 388.383L269.215 387.985C266.791 387.817 264.214 388.359 261.825 387.997C265.162 387.053 277.4 388.007 281.987 387.771L282.289 387.753L299.882 387.753Z"/>
	<defs>
		<linearGradient id="gradient_3" gradientUnits="userSpaceOnUse" x1="316.82498" y1="238.84885" x2="279.98953" y2="232.07938">
			<stop offset="0" stop-color="#4C37E1"/>
			<stop offset="1" stop-color="#6D5BF9"/>
		</linearGradient>
	</defs>
	<path fill="url(#gradient_3)" transform="matrix(0.195312 0 0 0.195312 0.00195312 -0.000244141)" d="M242.744 222.031L281.002 222.021C301.537 222.025 315.023 217.633 315.03 243.633C315.031 246.889 315.181 250.173 314.996 253.425C296.289 241.844 320.845 229.777 294.305 229.794L239.159 229.811C242.621 227.204 282.438 230.787 285.721 228.937C287.254 228.073 284.617 224.535 284.131 223.632L284.19 223.937L283.809 223.084C276.39 221.837 245.847 223.443 242.744 222.031Z"/>
	<defs>
		<linearGradient id="gradient_4" gradientUnits="userSpaceOnUse" x1="410.99255" y1="337.77896" x2="290.76431" y2="297.72247">
			<stop offset="0" stop-color="#A450EF"/>
			<stop offset="1" stop-color="#CEB4FA"/>
		</linearGradient>
	</defs>
	<path fill="url(#gradient_4)" transform="matrix(0.195312 0 0 0.195312 0.00195312 -0.000244141)" d="M332.211 255.299C332.216 253.285 331.742 243.794 332.86 242.764C334.687 241.082 355.704 241.655 359.767 241.822C366.513 242.249 363.866 250.591 364.007 255.299C365.789 256.039 367.558 256.746 369.393 257.343C372.843 258.864 376.104 260.537 379.305 262.546C382.927 259.536 386.171 254.976 390.66 253.425C394.145 254.402 409.226 270.41 410.535 272.805C412.375 276.169 404.381 282.306 402.203 284.324C404.72 289.36 407.342 294.597 408.792 300.066C424.405 299.994 423.596 297.695 423.637 314.124C423.685 333.5 426.968 332.62 408.792 332.468C407.362 337.785 405.615 342.898 402.36 347.395L402.203 347.608C418.206 357.843 409.343 361.087 398.634 371.666C389.494 380.695 390.023 379.794 380.375 370.418C375.604 373.174 370.945 374.726 366.076 377.088C365.409 382.082 366.272 390.606 359.685 391.658C357.969 391.932 338.853 392.299 336.294 391.785C331.784 388.941 332.206 381.707 332.211 377.088C326.375 375.399 321.222 372.522 316.218 369.129C312.037 372.08 308.794 376.022 303.864 377.796C299.698 375.254 285.913 361.381 286.278 356.979C286.564 353.53 291.62 349.783 294.119 347.608C291.31 342.044 288.996 337.021 287.426 330.978C284.446 330.811 276.002 331.682 273.854 330.603C271.69 329.515 270.811 305.355 273.315 300.941C275.764 299.184 283.654 300.487 286.976 300.119L287.426 300.066C289.334 294.543 291.346 289.472 294.119 284.324C290.925 280.84 287.049 276.896 285.037 272.6C286.202 269.831 302.489 253.287 304.313 253.558C307.533 254.036 314.027 259.974 316.218 262.546C318.204 261.21 320.132 259.933 322.258 258.821C325.621 257.802 328.816 256.286 332.211 255.299ZM352.11 338.053Q352.658 337.975 353.201 337.87Q353.745 337.765 354.282 337.633Q354.82 337.502 355.35 337.344Q355.881 337.186 356.403 337.003Q356.925 336.819 357.437 336.61Q357.95 336.401 358.451 336.167Q358.953 335.933 359.442 335.675Q359.932 335.417 360.408 335.134Q360.884 334.852 361.346 334.547Q361.808 334.242 362.254 333.915Q362.7 333.588 363.13 333.239Q363.559 332.89 363.971 332.52Q364.383 332.151 364.776 331.761Q365.17 331.372 365.543 330.964Q365.917 330.555 366.27 330.129Q366.623 329.703 366.955 329.26Q367.287 328.818 367.597 328.359Q367.907 327.9 368.193 327.427Q368.48 326.954 368.743 326.467Q369.007 325.98 369.246 325.481Q369.485 324.982 369.699 324.471Q369.913 323.961 370.102 323.441Q370.291 322.921 370.454 322.392Q370.617 321.863 370.754 321.327Q370.891 320.79 371.001 320.248Q371.112 319.706 371.195 319.159Q371.279 318.612 371.336 318.061Q371.392 317.511 371.422 316.958Q371.451 316.405 371.454 315.852Q371.456 315.298 371.431 314.746Q371.407 314.193 371.355 313.642Q371.303 313.091 371.224 312.543Q371.145 311.995 371.039 311.452Q370.934 310.909 370.801 310.371Q370.669 309.834 370.511 309.304Q370.352 308.773 370.168 308.252Q369.984 307.73 369.774 307.218Q369.564 306.706 369.329 306.204Q369.095 305.703 368.836 305.214Q368.577 304.725 368.294 304.249Q368.011 303.773 367.706 303.312Q367.4 302.851 367.072 302.405Q366.744 301.959 366.395 301.53Q366.045 301.101 365.675 300.69Q365.305 300.278 364.915 299.885Q364.525 299.493 364.116 299.119Q363.708 298.746 363.281 298.394Q362.855 298.041 362.411 297.71Q361.968 297.379 361.509 297.069Q361.05 296.76 360.576 296.474Q360.102 296.188 359.615 295.926Q359.128 295.663 358.628 295.425Q358.129 295.186 357.618 294.973Q357.108 294.759 356.587 294.571Q356.067 294.383 355.538 294.221Q355.009 294.058 354.472 293.922Q353.936 293.786 353.393 293.676Q352.851 293.567 352.304 293.484Q351.757 293.401 351.206 293.345Q350.655 293.289 350.103 293.26Q349.55 293.231 348.997 293.23Q348.443 293.228 347.89 293.254Q347.337 293.279 346.787 293.332Q346.236 293.384 345.688 293.464Q345.141 293.544 344.599 293.65Q344.057 293.756 343.521 293.889Q342.984 294.021 342.455 294.18Q341.926 294.339 341.405 294.523Q340.885 294.708 340.374 294.918Q339.862 295.128 339.362 295.362Q338.862 295.597 338.374 295.856Q337.886 296.115 337.411 296.397Q336.936 296.68 336.476 296.985Q336.016 297.291 335.571 297.618Q335.126 297.946 334.698 298.295Q334.269 298.644 333.859 299.013Q333.448 299.383 333.056 299.772Q332.664 300.162 332.292 300.57Q331.919 300.978 331.567 301.404Q331.215 301.83 330.885 302.272Q330.554 302.715 330.245 303.173Q329.937 303.631 329.651 304.104Q329.365 304.577 329.103 305.063Q328.841 305.549 328.603 306.048Q328.365 306.547 328.151 307.056Q327.938 307.566 327.75 308.085Q327.562 308.605 327.399 309.133Q327.237 309.661 327.101 310.196Q326.964 310.732 326.854 311.273Q326.744 311.815 326.661 312.361Q326.578 312.907 326.522 313.456Q326.465 314.006 326.436 314.558Q326.407 315.109 326.404 315.662Q326.402 316.214 326.427 316.766Q326.452 317.318 326.503 317.868Q326.555 318.418 326.634 318.965Q326.713 319.512 326.818 320.054Q326.924 320.596 327.056 321.133Q327.188 321.669 327.346 322.199Q327.504 322.728 327.688 323.249Q327.871 323.77 328.081 324.282Q328.29 324.793 328.524 325.293Q328.758 325.794 329.016 326.282Q329.274 326.771 329.556 327.246Q329.838 327.721 330.143 328.182Q330.448 328.643 330.775 329.088Q331.102 329.533 331.45 329.962Q331.799 330.391 332.168 330.802Q332.537 331.213 332.926 331.605Q333.314 331.998 333.722 332.371Q334.13 332.744 334.555 333.096Q334.98 333.449 335.422 333.78Q335.865 334.112 336.322 334.421Q336.78 334.73 337.253 335.016Q337.725 335.303 338.211 335.566Q338.697 335.828 339.195 336.067Q339.694 336.306 340.203 336.52Q340.712 336.734 341.231 336.923Q341.751 337.112 342.279 337.275Q342.806 337.438 343.342 337.575Q343.877 337.712 344.418 337.823Q344.959 337.933 345.505 338.017Q346.052 338.101 346.601 338.158Q347.151 338.215 347.702 338.245Q348.254 338.275 348.806 338.278Q349.359 338.281 349.911 338.257Q350.463 338.233 351.013 338.182Q351.563 338.131 352.11 338.053Z"/>
	<path fill="#9A7CF2" transform="matrix(0.195312 0 0 0.195312 0.00195312 -0.000244141)" d="M332.211 255.299C332.216 253.285 331.742 243.794 332.86 242.764C334.687 241.082 355.704 241.655 359.767 241.822C356.1 242.181 352.174 241.096 348.601 242.158C350.757 243.255 353.19 240.873 354.359 244.134C353.242 250.67 351.039 247.862 347.539 248.607C350.548 248.651 353.932 248.448 356.867 249.042C351.177 249.557 344.829 249.028 339.071 249.042C339.231 266.764 339.51 259.246 325.748 265.63C322.179 267.286 318.802 269.606 314.996 270.664C311.358 268.186 308.235 265.057 304.652 262.546C303.277 263.904 301.865 265.24 300.573 266.677C305.434 267.137 301.938 277.189 299.882 279.975C300.927 281.387 301.849 282.791 302.707 284.324C299.84 288.829 297.178 293.401 295.473 298.492C292.06 308.685 295.527 306.92 285.037 307.227C285.842 307.503 286.672 307.745 287.426 308.14C287.757 312.108 285.574 322.161 286.371 323.781C296.593 324.092 292.927 328.24 297.099 337.386C298.712 340.922 301.167 344.084 302.707 347.608C300.676 351.874 296.596 354.138 294.119 358.007C297.339 361.936 300.868 365.738 304.652 369.129C308.157 365.988 311.996 362.344 316.218 360.233C318.617 361.608 320.711 363.403 323.027 364.903C326.678 367.268 338.841 370.473 339.522 373.018C340.033 374.928 340.289 383.245 339.841 385C337.096 390.26 343.205 389.927 336.438 391.278L336.294 391.785C331.784 388.941 332.206 381.707 332.211 377.088C326.375 375.399 321.222 372.522 316.218 369.129C312.037 372.08 308.794 376.022 303.864 377.796C299.698 375.254 285.913 361.381 286.278 356.979C286.564 353.53 291.62 349.783 294.119 347.608C291.31 342.044 288.996 337.021 287.426 330.978C284.446 330.811 276.002 331.682 273.854 330.603C271.69 329.515 270.811 305.355 273.315 300.941C275.764 299.184 283.654 300.487 286.976 300.119L287.426 300.066C289.334 294.543 291.346 289.472 294.119 284.324C290.925 280.84 287.049 276.896 285.037 272.6C286.202 269.831 302.489 253.287 304.313 253.558C307.533 254.036 314.027 259.974 316.218 262.546C318.204 261.21 320.132 259.933 322.258 258.821C325.621 257.802 328.816 256.286 332.211 255.299Z"/>
	<path fill="#CBCAF7" transform="matrix(0.195312 0 0 0.195312 0.00195312 -0.000244141)" d="M279.465 307.227L285.037 307.227C285.842 307.503 286.672 307.745 287.426 308.14C287.757 312.108 285.574 322.161 286.371 323.781L279.465 323.781C279.737 318.309 279.483 312.713 279.465 307.227Z"/>
	<path fill="#CBCAF7" transform="matrix(0.195312 0 0 0.195312 0.00195312 -0.000244141)" d="M300.573 266.677C305.434 267.137 301.938 277.189 299.882 279.975C298.137 277.719 295.842 275.944 294.119 273.652C295.73 271.032 298.334 268.756 300.573 266.677Z"/>
	<path fill="#4945DF" transform="matrix(0.195312 0 0 0.195312 0.00195312 -0.000244141)" d="M359.767 241.822C366.513 242.249 363.866 250.591 364.007 255.299C365.789 256.039 367.558 256.746 369.393 257.343C372.843 258.864 376.104 260.537 379.305 262.546C382.927 259.536 386.171 254.976 390.66 253.425C394.145 254.402 409.226 270.41 410.535 272.805C412.375 276.169 404.381 282.306 402.203 284.324C404.72 289.36 407.342 294.597 408.792 300.066C424.405 299.994 423.596 297.695 423.637 314.124C423.685 333.5 426.968 332.62 408.792 332.468C407.362 337.785 405.615 342.898 402.36 347.395L402.203 347.608C418.206 357.843 409.343 361.087 398.634 371.666C389.494 380.695 390.023 379.794 380.375 370.418C375.604 373.174 370.945 374.726 366.076 377.088C365.409 382.082 366.272 390.606 359.685 391.658C357.969 391.932 338.853 392.299 336.294 391.785L336.438 391.278C343.205 389.927 337.096 390.26 339.841 385L357.651 385C359.545 367.584 357.338 373.271 372.411 366.439C375.582 365.001 378.395 362.925 381.873 362.309C385.053 363.866 387.897 366.882 390.66 369.129C394.485 365.108 398.508 361.391 402.203 357.222C399.381 354.221 395.749 351.072 393.532 347.608C395.695 343.512 398.289 340.043 399.945 335.626C404.588 323.246 399.168 324.896 415.972 325.038L415.972 308.14C397.109 308.224 404.938 307.853 398.255 293.598C392.86 282.093 390.891 283.663 402.203 274.602C398.495 270.455 394.32 266.746 390.66 262.546C377.353 276.787 381.631 269.642 369.062 264.979C355.131 259.81 356.75 265.671 356.867 249.042C353.932 248.448 350.548 248.651 347.539 248.607C351.039 247.862 353.242 250.67 354.359 244.134C353.19 240.873 350.757 243.255 348.601 242.158C352.174 241.096 356.1 242.181 359.767 241.822Z"/>
	<defs>
		<linearGradient id="gradient_5" gradientUnits="userSpaceOnUse" x1="377.1673" y1="323.07367" x2="320.35687" y2="308.56024">
			<stop offset="0" stop-color="#473AE8"/>
			<stop offset="1" stop-color="#9B69F8"/>
		</linearGradient>
	</defs>
	<path fill="url(#gradient_5)" transform="matrix(0.195312 0 0 0.195312 0.00195312 -0.000244141)" d="M346.508 286.222Q347.237 286.164 347.967 286.142Q348.698 286.119 349.428 286.133Q350.159 286.146 350.888 286.195Q351.617 286.245 352.343 286.33Q353.069 286.415 353.79 286.535Q354.511 286.656 355.225 286.811Q355.939 286.967 356.645 287.157Q357.35 287.348 358.046 287.572Q358.741 287.797 359.425 288.056Q360.108 288.314 360.778 288.606Q361.448 288.898 362.103 289.222Q362.758 289.546 363.397 289.902Q364.035 290.258 364.655 290.645Q365.275 291.031 365.876 291.448Q366.476 291.865 367.055 292.31Q367.635 292.756 368.191 293.23Q368.748 293.703 369.281 294.203Q369.814 294.703 370.322 295.229Q370.829 295.755 371.311 296.305Q371.792 296.855 372.246 297.428Q372.7 298 373.125 298.595Q373.55 299.189 373.946 299.804Q374.341 300.418 374.706 301.051Q375.071 301.685 375.405 302.335Q375.739 302.985 376.04 303.651Q376.341 304.317 376.609 304.997Q376.878 305.677 377.112 306.369Q377.347 307.061 377.547 307.764Q377.748 308.467 377.914 309.178Q378.079 309.89 378.21 310.609Q378.341 311.328 378.436 312.053Q378.531 312.778 378.591 313.506Q378.651 314.234 378.675 314.965Q378.698 315.695 378.687 316.426Q378.675 317.157 378.627 317.886Q378.579 318.615 378.496 319.342Q378.412 320.068 378.294 320.789Q378.175 321.51 378.021 322.224Q377.867 322.939 377.678 323.645Q377.489 324.351 377.266 325.047Q377.042 325.743 376.785 326.427Q376.528 327.111 376.238 327.782Q375.948 328.452 375.625 329.108Q375.302 329.764 374.947 330.403Q374.593 331.042 374.207 331.663Q373.822 332.284 373.407 332.885Q372.991 333.487 372.547 334.067Q372.102 334.647 371.63 335.205Q371.158 335.763 370.659 336.297Q370.16 336.83 369.635 337.339Q369.111 337.848 368.562 338.331Q368.013 338.813 367.441 339.268Q366.869 339.723 366.276 340.15Q365.682 340.576 365.068 340.973Q364.455 341.37 363.822 341.737Q363.19 342.103 362.54 342.438Q361.891 342.773 361.225 343.076Q360.56 343.378 359.881 343.648Q359.202 343.918 358.51 344.154Q357.818 344.39 357.116 344.592Q356.414 344.794 355.702 344.961Q354.991 345.129 354.272 345.261Q353.553 345.393 352.829 345.49Q352.104 345.587 351.376 345.648Q350.646 345.709 349.913 345.735Q349.181 345.76 348.448 345.75Q347.715 345.739 346.984 345.693Q346.253 345.646 345.524 345.564Q344.796 345.481 344.073 345.363Q343.35 345.245 342.633 345.091Q341.916 344.938 341.208 344.749Q340.5 344.561 339.802 344.338Q339.104 344.115 338.418 343.857Q337.731 343.6 337.058 343.31Q336.386 343.019 335.728 342.696Q335.07 342.373 334.429 342.017Q333.788 341.662 333.165 341.276Q332.543 340.89 331.939 340.473Q331.336 340.057 330.755 339.611Q330.173 339.166 329.613 338.692Q329.054 338.219 328.519 337.718Q327.983 337.218 327.473 336.692Q326.963 336.165 326.479 335.615Q325.996 335.064 325.54 334.49Q325.084 333.917 324.656 333.321Q324.229 332.726 323.832 332.11Q323.434 331.494 323.067 330.86Q322.701 330.225 322.366 329.574Q322.03 328.922 321.728 328.255Q321.425 327.587 321.155 326.906Q320.886 326.224 320.65 325.53Q320.414 324.836 320.213 324.132Q320.012 323.427 319.845 322.713Q319.679 322 319.547 321.279Q319.416 320.558 319.32 319.831Q319.225 319.104 319.165 318.374Q319.105 317.644 319.081 316.911Q319.057 316.179 319.07 315.446Q319.082 314.713 319.13 313.982Q319.178 313.251 319.262 312.523Q319.346 311.795 319.466 311.072Q319.585 310.349 319.741 309.632Q319.896 308.916 320.086 308.208Q320.276 307.5 320.5 306.803Q320.725 306.105 320.984 305.42Q321.242 304.734 321.534 304.062Q321.826 303.39 322.151 302.732Q322.476 302.076 322.832 301.435Q323.189 300.795 323.576 300.173Q323.964 299.551 324.382 298.949Q324.799 298.347 325.246 297.766Q325.693 297.185 326.168 296.627Q326.642 296.068 327.144 295.534Q327.646 295 328.173 294.491Q328.7 293.982 329.252 293.499Q329.803 293.017 330.378 292.562Q330.953 292.107 331.549 291.681Q332.146 291.255 332.762 290.859Q333.379 290.463 334.014 290.098Q334.649 289.732 335.302 289.398Q335.954 289.065 336.622 288.763Q337.29 288.462 337.972 288.194Q338.654 287.926 339.349 287.692Q340.043 287.457 340.748 287.258Q341.453 287.058 342.167 286.893Q342.881 286.728 343.603 286.598Q344.324 286.468 345.051 286.374Q345.777 286.28 346.508 286.222ZM352.11 338.053Q352.658 337.975 353.201 337.87Q353.745 337.765 354.282 337.633Q354.82 337.502 355.35 337.344Q355.881 337.186 356.403 337.003Q356.925 336.819 357.437 336.61Q357.95 336.401 358.451 336.167Q358.953 335.933 359.442 335.675Q359.932 335.417 360.408 335.134Q360.884 334.852 361.346 334.547Q361.808 334.242 362.254 333.915Q362.7 333.588 363.13 333.239Q363.559 332.89 363.971 332.52Q364.383 332.151 364.776 331.761Q365.17 331.372 365.543 330.964Q365.917 330.555 366.27 330.129Q366.623 329.703 366.955 329.26Q367.287 328.818 367.597 328.359Q367.907 327.9 368.193 327.427Q368.48 326.954 368.743 326.467Q369.007 325.98 369.246 325.481Q369.485 324.982 369.699 324.471Q369.913 323.961 370.102 323.441Q370.291 322.921 370.454 322.392Q370.617 321.863 370.754 321.327Q370.891 320.79 371.001 320.248Q371.112 319.706 371.195 319.159Q371.279 318.612 371.336 318.061Q371.392 317.511 371.422 316.958Q371.451 316.405 371.454 315.852Q371.456 315.298 371.431 314.746Q371.407 314.193 371.355 313.642Q371.303 313.091 371.224 312.543Q371.145 311.995 371.039 311.452Q370.934 310.909 370.801 310.371Q370.669 309.834 370.511 309.304Q370.352 308.773 370.168 308.252Q369.984 307.73 369.774 307.218Q369.564 306.706 369.329 306.204Q369.095 305.703 368.836 305.214Q368.577 304.725 368.294 304.249Q368.011 303.773 367.706 303.312Q367.4 302.851 367.072 302.405Q366.744 301.959 366.395 301.53Q366.045 301.101 365.675 300.69Q365.305 300.278 364.915 299.885Q364.525 299.493 364.116 299.119Q363.708 298.746 363.281 298.394Q362.855 298.041 362.411 297.71Q361.968 297.379 361.509 297.069Q361.05 296.76 360.576 296.474Q360.102 296.188 359.615 295.926Q359.128 295.663 358.628 295.425Q358.129 295.186 357.618 294.973Q357.108 294.759 356.587 294.571Q356.067 294.383 355.538 294.221Q355.009 294.058 354.472 293.922Q353.936 293.786 353.393 293.676Q352.851 293.567 352.304 293.484Q351.757 293.401 351.206 293.345Q350.655 293.289 350.103 293.26Q349.55 293.231 348.997 293.23Q348.443 293.228 347.89 293.254Q347.337 293.279 346.787 293.332Q346.236 293.384 345.688 293.464Q345.141 293.544 344.599 293.65Q344.057 293.756 343.521 293.889Q342.984 294.021 342.455 294.18Q341.926 294.339 341.405 294.523Q340.885 294.708 340.374 294.918Q339.862 295.128 339.362 295.362Q338.862 295.597 338.374 295.856Q337.886 296.115 337.411 296.397Q336.936 296.68 336.476 296.985Q336.016 297.291 335.571 297.618Q335.126 297.946 334.698 298.295Q334.269 298.644 333.859 299.013Q333.448 299.383 333.056 299.772Q332.664 300.162 332.292 300.57Q331.919 300.978 331.567 301.404Q331.215 301.83 330.885 302.272Q330.554 302.715 330.245 303.173Q329.937 303.631 329.651 304.104Q329.365 304.577 329.103 305.063Q328.841 305.549 328.603 306.048Q328.365 306.547 328.151 307.056Q327.938 307.566 327.75 308.085Q327.562 308.605 327.399 309.133Q327.237 309.661 327.101 310.196Q326.964 310.732 326.854 311.273Q326.744 311.815 326.661 312.361Q326.578 312.907 326.522 313.456Q326.465 314.006 326.436 314.558Q326.407 315.109 326.404 315.662Q326.402 316.214 326.427 316.766Q326.452 317.318 326.503 317.868Q326.555 318.418 326.634 318.965Q326.713 319.512 326.818 320.054Q326.924 320.596 327.056 321.133Q327.188 321.669 327.346 322.199Q327.504 322.728 327.688 323.249Q327.871 323.77 328.081 324.282Q328.29 324.793 328.524 325.293Q328.758 325.794 329.016 326.282Q329.274 326.771 329.556 327.246Q329.838 327.721 330.143 328.182Q330.448 328.643 330.775 329.088Q331.102 329.533 331.45 329.962Q331.799 330.391 332.168 330.802Q332.537 331.213 332.926 331.605Q333.314 331.998 333.722 332.371Q334.13 332.744 334.555 333.096Q334.98 333.449 335.422 333.78Q335.865 334.112 336.322 334.421Q336.78 334.73 337.253 335.016Q337.725 335.303 338.211 335.566Q338.697 335.828 339.195 336.067Q339.694 336.306 340.203 336.52Q340.712 336.734 341.231 336.923Q341.751 337.112 342.279 337.275Q342.806 337.438 343.342 337.575Q343.877 337.712 344.418 337.823Q344.959 337.933 345.505 338.017Q346.052 338.101 346.601 338.158Q347.151 338.215 347.702 338.245Q348.254 338.275 348.806 338.278Q349.359 338.281 349.911 338.257Q350.463 338.233 351.013 338.182Q351.563 338.131 352.11 338.053Z"/>
	<path fill="#FA80AF" transform="matrix(0.195312 0 0 0.195312 0.00195312 -0.000244141)" d="M211.21 354.325L211.207 314.407C211.206 307.591 210.741 300.414 211.332 293.636C213.014 292.708 233.79 292.453 234.946 293.987C236.002 297.971 235.411 309.391 235.41 314.09L235.404 354.325C227.346 354.458 219.27 354.339 211.21 354.325Z"/>
	<defs>
		<linearGradient id="gradient_6" gradientUnits="userSpaceOnUse" x1="171.81053" y1="326.83813" x2="141.23543" y2="323.04172">
			<stop offset="0" stop-color="#06A9F2"/>
			<stop offset="1" stop-color="#0FCDF6"/>
		</linearGradient>
	</defs>
	<path fill="url(#gradient_6)" transform="matrix(0.195312 0 0 0.195312 0.00195312 -0.000244141)" d="M144.098 295.855C173.957 295.826 169.268 289.99 169.269 318.084L169.262 354.325L144.098 354.325L144.098 295.855Z"/>
	<path fill="#4945DF" transform="matrix(0.195312 0 0 0.195312 0.00195312 -0.000244141)" d="M214.203 252.622C216.71 252.736 219.234 253.131 221.727 253.425C224.984 254.298 229.063 255.447 232.437 255.299C235.133 258.921 235.084 270.996 236.694 276.276C237.513 281.04 232.495 284.192 230.343 279.05C229.32 276.603 228.614 269.854 227.855 266.677C218.343 273.5 196.597 289.394 186.347 294.43C186.288 294.399 186.229 294.369 186.171 294.337L185.881 294.174C179.512 290.662 163.333 273.281 156.858 267.578C145.887 274.937 134.734 282.041 123.698 289.309L111.798 297.129C108.781 299.098 105.726 301.416 102.322 302.65C97.0252 300.607 98.6253 296.618 102.473 293.951C110.496 288.39 156.478 258.129 158.62 258.734C159.08 258.864 183.671 282.699 186.347 285.172L211.369 268.869C215.247 266.32 219.306 263.951 223.018 261.166C219.83 260.472 209.451 260.78 211.265 255.119C211.719 253.704 212.955 253.202 214.203 252.622Z"/>
	<path fill="#4945DF" transform="matrix(0.195312 0 0 0.195312 0.00195312 -0.000244141)" d="M169.262 354.325L177.747 354.325L202.773 354.325C205.643 354.541 208.347 354.594 211.21 354.325C219.27 354.339 227.346 354.458 235.404 354.325C237.32 354.31 255.149 353.717 248.306 360.929C245.67 363.706 233.707 362.305 230.045 362.305L102.322 362.309C93.824 355.377 104.589 354.162 109.815 354.325C118.086 354.333 126.471 354.644 134.728 354.325L144.098 354.325L169.262 354.325Z"/>
	<defs>
		<linearGradient id="gradient_7" gradientUnits="userSpaceOnUse" x1="258.05511" y1="264.59189" x2="213.68304" y2="236.35521">
			<stop offset="0" stop-color="#2827C3"/>
			<stop offset="1" stop-color="#9C94FF"/>
		</linearGradient>
	</defs>
	<path fill="url(#gradient_7)" transform="matrix(0.195312 0 0 0.195312 0.00195312 -0.000244141)" d="M221.727 245.127C219.267 244.905 214.28 245.071 212.715 242.973C204.837 232.419 240.586 239.765 242.744 240.245C246.093 239.955 264.302 239.945 264.336 244.861C264.346 246.273 249.252 279.474 247.782 280.813C244.969 283.372 241.79 279.957 241.731 277.021C240.091 276.556 238.383 276.448 236.694 276.276C235.084 270.996 235.133 258.921 232.437 255.299C229.063 255.447 224.984 254.298 221.727 253.425C222.466 251.22 220.38 249.911 221.727 245.127Z"/>
	<path fill="#FA8ADD" transform="matrix(0.195312 0 0 0.195312 0.00195312 -0.000244141)" d="M221.727 245.127C225.962 245.629 230.069 245.996 234.16 247.249C236.477 246.884 238.439 246.948 240.761 247.249C245.519 247.791 250.283 248.538 255.035 249.042C252.991 251.304 243.271 272.956 241.731 277.021C240.091 276.556 238.383 276.448 236.694 276.276C235.084 270.996 235.133 258.921 232.437 255.299C229.063 255.447 224.984 254.298 221.727 253.425C222.466 251.22 220.38 249.911 221.727 245.127Z"/>
	<path fill="#FEDAF4" transform="matrix(0.195312 0 0 0.195312 0.00195312 -0.000244141)" d="M221.727 245.127C225.962 245.629 230.069 245.996 234.16 247.249L233.921 247.397L233.58 247.269C232.839 246.996 230.9 246.212 231.09 247.686C231.35 249.717 229.999 253.816 230.393 254.883C230.847 254.896 232.161 254.864 232.437 255.299C229.063 255.447 224.984 254.298 221.727 253.425C222.466 251.22 220.38 249.911 221.727 245.127Z"/>
	<defs>
		<linearGradient id="gradient_8" gradientUnits="userSpaceOnUse" x1="204.29716" y1="332.6622" x2="176.26562" y2="329.94095">
			<stop offset="0" stop-color="#F378D1"/>
			<stop offset="1" stop-color="#EDAEF4"/>
		</linearGradient>
	</defs>
	<path fill="url(#gradient_8)" transform="matrix(0.195312 0 0 0.195312 0.00195312 -0.000244141)" d="M177.747 354.325L177.742 325.313C177.739 320.535 177.166 313.317 178.124 308.87C179.6 307.652 200.606 307.63 202.215 308.652C203.473 312.854 203.035 346.752 202.773 354.325L177.747 354.325Z"/>
	<defs>
		<linearGradient id="gradient_9" gradientUnits="userSpaceOnUse" x1="134.19595" y1="335.88287" x2="110.05964" y2="335.61441">
			<stop offset="0" stop-color="#00BFF4"/>
			<stop offset="1" stop-color="#0EDCF6"/>
		</linearGradient>
	</defs>
	<path fill="url(#gradient_9)" transform="matrix(0.195312 0 0 0.195312 0.00195312 -0.000244141)" d="M109.815 354.325C109.67 350.076 109.2 319.116 110.347 317.757C112.119 317.187 131.977 317.015 134.32 317.511C135.236 319.533 134.73 349.836 134.728 354.325C126.471 354.644 118.086 354.333 109.815 354.325Z"/>
	<path fill="#9A7CF2" transform="matrix(0.195312 0 0 0.195312 0.00195312 -0.000244141)" d="M432.224 219.748C441.225 218.014 441.476 258.754 440.228 261.017C439.71 261.955 438.826 262.252 437.86 262.546C429.868 264.246 432.343 252.804 432.027 248.116C431.666 242.773 428.178 223.953 428.953 222.074C429.478 220.8 431.061 220.274 432.224 219.748Z"/>
	<path fill="#9A7CF2" transform="matrix(0.195312 0 0 0.195312 0.00195312 -0.000244141)" d="M244.274 89.2387C250.694 88.9263 271.741 89.972 274.799 93.9899C280.017 100.846 267.35 99.0506 264.811 98.5766C253.487 95.9931 245.944 97.5616 235.404 96.7927C227.313 89.974 239.909 89.1983 244.274 89.2387Z"/>
	<path fill="#9A7CF2" transform="matrix(0.195312 0 0 0.195312 0.00195312 -0.000244141)" d="M318.685 417.254C321.803 417.17 324.446 419.3 322.501 422.672C320.642 425.897 307.884 429.355 303.864 430.47C302.234 430.563 300.748 429.885 299.984 428.354C297.176 422.732 313.493 419.334 318.685 417.254Z"/>
	<path fill="#9A7CF2" transform="matrix(0.195312 0 0 0.195312 0.00195312 -0.000244141)" d="M351.06 399.253C354.191 399.08 355.488 401.823 354.139 404.592C352.431 408.099 341.508 414.368 337.729 415.749C335.4 415.576 332.814 412.634 333.95 410.262C334.654 408.79 348.88 400.174 351.06 399.253Z"/>
	<path fill="#9A7CF2" transform="matrix(0.195312 0 0 0.195312 0.00195312 -0.000244141)" d="M282.289 427.405C285.952 427.25 289.838 429.665 286.92 433.33C284.694 436.125 274.647 436.255 271.051 436.536C262.361 437.093 263.49 430.608 267.498 429.288C270.42 428.325 278.46 428.033 282.289 427.405Z"/>
	<path fill="#9A7CF2" transform="matrix(0.195312 0 0 0.195312 0.00195312 -0.000244141)" d="M434.415 276.276C441.641 275.712 440.445 294.189 433.423 295.855C425.897 297.556 430.276 281.098 431.44 278.228C431.915 277.058 433.337 276.682 434.415 276.276Z"/>
</svg>
