<?xml version="1.0" encoding="utf-8" ?>
<svg xmlns="http://www.w3.org/2000/svg" xmlns:xlink="http://www.w3.org/1999/xlink" width="100" height="100">
	<defs>
		<linearGradient id="gradient_0" gradientUnits="userSpaceOnUse" x1="276.22806" y1="449.12119" x2="182.20314" y2="60.31049">
			<stop offset="0" stop-color="#395D8E"/>
			<stop offset="1" stop-color="#4590B4"/>
		</linearGradient>
	</defs>
	<path fill="url(#gradient_0)" transform="matrix(0.195312 0 0 0.195312 0.00195312 -0.000244141)" d="M349.498 328.802L349.508 399.091C349.513 403.432 349.731 407.882 348.88 412.16C342.088 446.319 302.943 438.963 276.756 438.962L161.296 438.974C153.549 438.984 145.252 439.598 137.614 438.288C121.096 435.457 110.051 421.789 109.857 405.129C109.602 383.271 109.921 361.365 109.922 339.502L109.905 113.282C109.906 108.84 109.719 104.241 110.351 99.837C112.854 82.4129 128.977 69.8187 146.244 69.7416L299.553 69.7345C320.978 69.7207 342.059 71.0646 348.203 97.6356C350.391 107.097 349.498 123.748 349.497 133.967L349.498 190.232L373.493 190.242C382.038 190.231 389.877 188.911 396.503 195.561C403.246 202.328 402.319 213.721 401.751 222.583L401.763 288.107C401.778 313.019 390.701 313.809 368.676 313.796L349.498 313.78L349.498 328.802ZM129.23 377.13C141.686 377.482 154.257 377.129 166.727 377.128L320.573 377.134C323.775 377.134 327.033 377.276 330.226 377.13L330.226 328.802L330.226 313.78L309.215 313.782C296.245 313.851 286.122 313.779 282.692 298.487C282.097 296.095 282.702 288.731 282.703 285.737L282.692 244.24C282.237 239.758 282.673 232.931 282.686 228.221C282.751 204.388 277.486 190.257 309.012 190.222L324.363 190.221C326.347 190.229 329.578 191.359 330.226 188.929C330.374 179.492 330.222 170.034 330.223 160.595L330.226 117.345L129.23 117.345L129.23 377.13ZM231.122 421.121Q231.468 421.092 231.812 421.046Q232.156 421 232.498 420.937Q232.839 420.875 233.177 420.795Q233.515 420.716 233.849 420.621Q234.182 420.525 234.511 420.413Q234.84 420.301 235.163 420.174Q235.486 420.046 235.802 419.903Q236.118 419.76 236.427 419.602Q236.736 419.443 237.037 419.27Q237.337 419.097 237.63 418.909Q237.922 418.721 238.204 418.519Q238.487 418.318 238.759 418.102Q239.031 417.887 239.293 417.659Q239.554 417.431 239.805 417.19Q240.055 416.949 240.293 416.697Q240.531 416.444 240.757 416.18Q240.982 415.916 241.194 415.642Q241.407 415.367 241.606 415.082Q241.804 414.798 241.989 414.504Q242.174 414.21 242.344 413.907Q242.514 413.605 242.669 413.294Q242.824 412.984 242.964 412.666Q243.104 412.348 243.229 412.024Q243.353 411.7 243.461 411.37Q243.569 411.04 243.662 410.706Q243.754 410.371 243.829 410.032Q243.905 409.693 243.964 409.351Q244.023 409.009 244.066 408.664Q244.108 408.32 244.134 407.974Q244.159 407.627 244.168 407.28Q244.177 406.933 244.168 406.586Q244.16 406.239 244.135 405.893Q244.11 405.547 244.068 405.202Q244.026 404.857 243.967 404.515Q243.908 404.173 243.833 403.834Q243.758 403.495 243.666 403.161Q243.574 402.826 243.466 402.496Q243.358 402.166 243.235 401.842Q243.111 401.517 242.971 401.199Q242.832 400.881 242.677 400.571Q242.522 400.26 242.352 399.957Q242.182 399.654 241.998 399.36Q241.814 399.066 241.615 398.781Q241.417 398.496 241.205 398.222Q240.993 397.947 240.767 397.683Q240.542 397.418 240.304 397.165Q240.067 396.913 239.817 396.672Q239.567 396.43 239.306 396.202Q239.044 395.973 238.772 395.758Q238.5 395.542 238.218 395.34Q237.935 395.138 237.644 394.95Q237.352 394.762 237.051 394.588Q236.75 394.415 236.442 394.256Q236.133 394.097 235.817 393.954Q235.501 393.81 235.178 393.682Q234.855 393.554 234.527 393.442Q234.198 393.33 233.865 393.234Q233.531 393.138 233.193 393.058Q232.855 392.979 232.514 392.916Q232.173 392.852 231.828 392.806Q231.484 392.76 231.139 392.73Q230.793 392.701 230.446 392.688Q230.099 392.675 229.752 392.68Q229.405 392.684 229.058 392.705Q228.589 392.734 228.123 392.793Q227.657 392.853 227.196 392.943Q226.735 393.033 226.281 393.153Q225.827 393.273 225.381 393.423Q224.936 393.573 224.502 393.752Q224.067 393.931 223.646 394.138Q223.224 394.345 222.817 394.579Q222.41 394.814 222.019 395.075Q221.628 395.335 221.255 395.621Q220.883 395.907 220.53 396.217Q220.176 396.527 219.844 396.86Q219.513 397.192 219.203 397.546Q218.894 397.899 218.609 398.272Q218.323 398.646 218.063 399.037Q217.803 399.428 217.569 399.836Q217.335 400.243 217.129 400.665Q216.923 401.087 216.744 401.522Q216.566 401.956 216.417 402.402Q216.268 402.847 216.148 403.302Q216.029 403.756 215.94 404.217Q215.85 404.679 215.792 405.145Q215.733 405.611 215.705 406.08Q215.677 406.549 215.68 407.019Q215.683 407.489 215.717 407.957Q215.751 408.426 215.816 408.891Q215.881 409.357 215.976 409.817Q216.072 410.277 216.197 410.729Q216.323 411.182 216.478 411.626Q216.633 412.069 216.817 412.502Q217 412.934 217.212 413.353Q217.424 413.772 217.664 414.177Q217.903 414.581 218.168 414.969Q218.433 415.357 218.724 415.726Q219.014 416.096 219.328 416.445Q219.642 416.795 219.978 417.123Q220.314 417.451 220.671 417.756Q221.029 418.061 221.405 418.342Q221.781 418.623 222.176 418.879Q222.57 419.134 222.98 419.363Q223.39 419.592 223.815 419.794Q224.239 419.995 224.676 420.168Q225.112 420.342 225.559 420.486Q226.007 420.63 226.462 420.744Q226.918 420.858 227.38 420.942Q227.842 421.026 228.309 421.079Q228.776 421.133 229.245 421.155Q229.714 421.177 230.184 421.169Q230.654 421.16 231.122 421.121Z"/>
	<path fill="#53C051" transform="matrix(0.195312 0 0 0.195312 0.00195312 -0.000244141)" d="M182.645 252.582C184.865 225.421 202.974 213.781 229.402 215.716C249.65 215.822 270.933 231.52 271.586 252.582L225.898 252.582L197.104 252.588C192.308 252.592 187.432 252.818 182.645 252.582Z"/>
	<path fill="#8DD046" transform="matrix(0.195312 0 0 0.195312 0.00195312 -0.000244141)" d="M182.645 252.582C184.865 225.421 202.974 213.781 229.402 215.716C228.233 215.731 227.066 215.756 225.898 215.716L225.911 242.606C225.916 245.454 226.433 249.968 225.898 252.582L197.104 252.588C192.308 252.592 187.432 252.818 182.645 252.582Z"/>
	<path fill="#FAD286" transform="matrix(0.195312 0 0 0.195312 0.00195312 -0.000244141)" d="M200.519 173.942Q200.669 173.413 200.841 172.89Q201.013 172.368 201.206 171.853Q201.399 171.337 201.613 170.831Q201.827 170.324 202.061 169.826Q202.296 169.328 202.55 168.841Q202.805 168.353 203.079 167.876Q203.354 167.399 203.647 166.934Q203.941 166.469 204.253 166.016Q204.565 165.563 204.896 165.124Q205.226 164.684 205.575 164.258Q205.923 163.832 206.288 163.421Q206.654 163.01 207.036 162.614Q207.417 162.218 207.815 161.838Q208.213 161.457 208.626 161.094Q209.039 160.73 209.466 160.384Q209.893 160.038 210.335 159.709Q210.776 159.381 211.23 159.07Q211.684 158.76 212.151 158.469Q212.618 158.177 213.096 157.905Q213.574 157.633 214.062 157.381Q214.551 157.128 215.05 156.896Q215.549 156.664 216.056 156.452Q216.564 156.241 217.08 156.05Q217.596 155.859 218.12 155.69Q218.643 155.52 219.173 155.372Q219.703 155.224 220.238 155.098Q220.773 154.972 221.314 154.868Q221.854 154.763 222.398 154.681Q222.942 154.599 223.489 154.54Q224.035 154.48 224.584 154.443Q225.133 154.405 225.683 154.39Q226.233 154.375 226.783 154.383Q227.333 154.391 227.882 154.421Q228.432 154.451 228.979 154.503Q229.527 154.556 230.072 154.63Q230.617 154.705 231.158 154.802Q231.7 154.899 232.237 155.018Q232.774 155.137 233.306 155.278Q233.837 155.419 234.363 155.581Q234.888 155.744 235.407 155.928Q235.925 156.111 236.436 156.316Q236.946 156.521 237.448 156.747Q237.95 156.972 238.442 157.218Q238.934 157.464 239.416 157.73Q239.897 157.995 240.368 158.281Q240.838 158.566 241.297 158.87Q241.755 159.174 242.2 159.497Q242.646 159.819 243.078 160.16Q243.51 160.501 243.928 160.859Q244.345 161.216 244.748 161.591Q245.151 161.966 245.538 162.357Q245.925 162.748 246.296 163.154Q246.667 163.56 247.02 163.981Q247.374 164.403 247.711 164.838Q248.047 165.273 248.365 165.722Q248.684 166.17 248.984 166.632Q249.283 167.093 249.564 167.566Q249.845 168.039 250.106 168.523Q250.367 169.008 250.608 169.502Q250.849 169.996 251.069 170.5Q251.29 171.004 251.49 171.517Q251.69 172.029 251.869 172.549Q252.047 173.07 252.205 173.597Q252.362 174.124 252.498 174.657Q252.625 175.155 252.733 175.658Q252.84 176.161 252.929 176.668Q253.017 177.174 253.086 177.684Q253.156 178.193 253.205 178.705Q253.255 179.217 253.285 179.731Q253.315 180.244 253.325 180.758Q253.335 181.272 253.326 181.786Q253.317 182.301 253.288 182.814Q253.259 183.327 253.21 183.839Q253.162 184.351 253.093 184.861Q253.025 185.371 252.938 185.878Q252.851 186.384 252.744 186.887Q252.637 187.391 252.511 187.889Q252.385 188.388 252.24 188.881Q252.095 189.375 251.932 189.862Q251.768 190.35 251.586 190.831Q251.404 191.312 251.204 191.785Q251.003 192.259 250.785 192.724Q250.567 193.19 250.331 193.647Q250.095 194.104 249.842 194.552Q249.589 194.999 249.318 195.437Q249.048 195.874 248.762 196.301Q248.475 196.728 248.172 197.144Q247.87 197.56 247.551 197.964Q247.233 198.368 246.899 198.759Q246.566 199.15 246.217 199.529Q245.869 199.907 245.507 200.272Q245.144 200.637 244.768 200.987Q244.392 201.338 244.003 201.674Q243.613 202.01 243.212 202.331Q242.81 202.652 242.396 202.957Q241.982 203.263 241.557 203.552Q241.132 203.841 240.696 204.114Q240.26 204.387 239.814 204.643Q239.368 204.899 238.913 205.138Q238.457 205.377 237.993 205.598Q237.529 205.819 237.056 206.023Q236.584 206.226 236.104 206.411Q235.624 206.596 235.138 206.763Q234.651 206.93 234.159 207.078Q233.666 207.226 233.168 207.355Q232.671 207.484 232.168 207.594Q231.666 207.704 231.16 207.794Q230.653 207.885 230.144 207.956Q229.635 208.028 229.123 208.079Q228.611 208.131 228.098 208.163Q227.585 208.196 227.071 208.208Q226.557 208.221 226.042 208.214Q225.528 208.207 225.015 208.18Q224.501 208.153 223.989 208.107Q223.477 208.061 222.967 207.995Q222.457 207.929 221.949 207.844Q221.442 207.758 220.939 207.654Q220.435 207.549 219.936 207.426Q219.437 207.302 218.943 207.159Q218.449 207.016 217.96 206.855Q217.472 206.693 216.99 206.513Q216.509 206.333 216.034 206.135Q215.56 205.937 215.093 205.721Q214.627 205.504 214.169 205.27Q213.711 205.036 213.262 204.785Q212.813 204.534 212.374 204.266Q211.936 203.997 211.507 203.713Q211.079 203.428 210.662 203.127Q210.245 202.826 209.84 202.509Q209.434 202.193 209.042 201.861Q208.649 201.529 208.269 201.183Q207.889 200.836 207.523 200.475Q207.156 200.114 206.804 199.74Q206.452 199.365 206.114 198.977Q205.776 198.589 205.453 198.189Q205.131 197.788 204.824 197.376Q204.516 196.964 204.225 196.54Q203.934 196.116 203.659 195.681Q203.384 195.246 203.126 194.802Q202.868 194.357 202.628 193.902Q202.387 193.448 202.164 192.985Q201.94 192.521 201.735 192.05Q201.529 191.578 201.342 191.099Q201.155 190.62 200.986 190.135Q200.817 189.649 200.667 189.157Q200.517 188.665 200.386 188.168Q200.255 187.671 200.142 187.169Q200.03 186.667 199.937 186.161Q199.844 185.655 199.771 185.146Q199.697 184.637 199.643 184.126Q199.589 183.615 199.555 183.101Q199.52 182.588 199.506 182.074Q199.491 181.56 199.496 181.046Q199.5 180.532 199.525 180.018Q199.549 179.504 199.593 178.992Q199.637 178.48 199.701 177.969Q199.765 177.459 199.848 176.952Q199.931 176.444 200.033 175.94Q200.135 175.436 200.257 174.936Q200.378 174.437 200.519 173.942Z"/>
	<path fill="#E49A59" transform="matrix(0.195312 0 0 0.195312 0.00195312 -0.000244141)" d="M200.519 173.942Q200.669 173.413 200.841 172.89Q201.013 172.368 201.206 171.853Q201.399 171.337 201.613 170.831Q201.827 170.324 202.061 169.826Q202.296 169.328 202.55 168.841Q202.805 168.353 203.079 167.876Q203.354 167.399 203.647 166.934Q203.941 166.469 204.253 166.016Q204.565 165.563 204.896 165.124Q205.226 164.684 205.575 164.258Q205.923 163.832 206.288 163.421Q206.654 163.01 207.036 162.614Q207.417 162.218 207.815 161.838Q208.213 161.457 208.626 161.094Q209.039 160.73 209.466 160.384Q209.893 160.038 210.335 159.709Q210.776 159.381 211.23 159.07Q211.684 158.76 212.151 158.469Q212.618 158.177 213.096 157.905Q213.574 157.633 214.062 157.381Q214.551 157.128 215.05 156.896Q215.549 156.664 216.056 156.452Q216.564 156.241 217.08 156.05Q217.596 155.859 218.12 155.69Q218.643 155.52 219.173 155.372Q219.703 155.224 220.238 155.098Q220.773 154.972 221.314 154.868Q221.854 154.763 222.398 154.681Q222.942 154.599 223.489 154.54Q224.035 154.48 224.584 154.443Q225.133 154.405 225.683 154.39Q226.233 154.375 226.783 154.383Q227.333 154.391 227.882 154.421Q228.432 154.451 228.979 154.503Q229.527 154.556 230.072 154.63Q230.617 154.705 231.158 154.802Q231.7 154.899 232.237 155.018Q232.774 155.137 233.306 155.278Q233.837 155.419 234.363 155.581Q234.888 155.744 235.407 155.928Q235.925 156.111 236.436 156.316Q236.946 156.521 237.448 156.747Q237.95 156.972 238.442 157.218Q238.934 157.464 239.416 157.73Q239.897 157.995 240.368 158.281Q240.838 158.566 241.297 158.87Q241.755 159.174 242.2 159.497Q242.646 159.819 243.078 160.16Q243.51 160.501 243.928 160.859Q244.345 161.216 244.748 161.591Q245.151 161.966 245.538 162.357Q245.925 162.748 246.296 163.154Q246.667 163.56 247.02 163.981Q247.374 164.403 247.711 164.838Q248.047 165.273 248.365 165.722Q248.684 166.17 248.984 166.632Q249.283 167.093 249.564 167.566Q249.845 168.039 250.106 168.523Q250.367 169.008 250.608 169.502Q250.849 169.996 251.069 170.5Q251.29 171.004 251.49 171.517Q251.69 172.029 251.869 172.549Q252.047 173.07 252.205 173.597Q252.362 174.124 252.498 174.657L219.186 174.508C215.575 174.489 203.223 174.826 200.519 173.942Z"/>
	<path fill="#4B6E95" transform="matrix(0.195312 0 0 0.195312 0.00195312 -0.000244141)" d="M169.266 291.077C187.291 290.847 205.35 291.079 223.377 291.078L241.277 291.066C244.704 291.048 248.29 290.79 251.699 291.101C260.305 291.887 259.588 304.522 250.546 305.457L177.167 305.475C174.144 305.474 170.931 305.693 167.938 305.316C159.597 304.265 159.686 291.984 169.266 291.077Z"/>
	<path fill="#4B6E95" transform="matrix(0.195312 0 0 0.195312 0.00195312 -0.000244141)" d="M269.548 321.517C273.859 321.537 281.236 320.902 285.103 321.488C293.525 322.765 294.333 334.7 285.674 336.049C281.217 336.744 273.385 336.252 268.615 336.251L232.375 336.238C226.165 336.188 209.888 339.383 210.055 329.002C210.19 320.656 217.756 321.499 223.609 321.501L256.989 321.513C261.175 321.496 265.364 321.343 269.548 321.517Z"/>
	<path fill="#33BCE0" transform="matrix(0.195312 0 0 0.195312 0.00195312 -0.000244141)" d="M167.888 321.517C174.07 321.838 188.394 320.607 193.472 322.058C201.148 324.251 199.341 333.424 193.271 336.238C187.351 335.997 170.839 337.176 166.286 335.173C159.806 332.323 162.256 323.667 167.888 321.517Z"/>
	<path fill="#83D2E7" transform="matrix(0.195312 0 0 0.195312 0.00195312 -0.000244141)" d="M330.226 188.929C330.433 190.651 331.359 190.252 332.839 190.232C338.391 190.174 343.945 190.22 349.498 190.232L373.493 190.242C382.038 190.231 389.877 188.911 396.503 195.561C403.246 202.328 402.319 213.721 401.751 222.583L401.763 288.107C401.778 313.019 390.701 313.809 368.676 313.796L349.498 313.78L349.498 328.802L330.226 328.802L330.226 313.78L309.215 313.782C296.245 313.851 286.122 313.779 282.692 298.487C282.097 296.095 282.702 288.731 282.703 285.737L282.692 244.24C282.237 239.758 282.673 232.931 282.686 228.221C282.751 204.388 277.486 190.257 309.012 190.222L324.363 190.221C326.347 190.229 329.578 191.359 330.226 188.929Z"/>
	<path fill="#33BCE0" transform="matrix(0.195312 0 0 0.195312 0.00195312 -0.000244141)" d="M374.908 254.231C375.274 253.011 374.954 251.271 374.977 249.973C375.612 250.87 375.078 254.334 375.09 255.564L377.148 255.027C378.35 254.722 378.713 255.756 380.082 254.758L380.615 255.089C381.593 255.118 382.429 254.356 383.356 254.07L383.099 254.842C384.037 254.682 384.724 254.143 385.606 253.844C386.704 255.44 387.082 254.426 388.499 254.107L388.698 255.041C389.292 254.698 389.731 254.337 390.398 254.131C390.236 254.585 390.14 254.857 390.127 255.346C391.162 254.457 392.257 253.352 391.52 255.523C392.243 255.229 392.715 254.498 393.42 254.398C392.401 257.576 397.962 251.196 398.324 250.585C398.673 249.998 400.205 243.087 401.279 245.583C402.415 237.858 400.501 228.606 401.449 222.976L401.751 222.583L401.763 288.107C401.778 313.019 390.701 313.809 368.676 313.796L349.498 313.78L349.498 328.802L330.226 328.802L330.226 313.78L309.215 313.782C296.245 313.851 286.122 313.779 282.692 298.487L283.093 298.3L283.183 296.977L283.156 297.161L283.6 296.609L284.866 296.772C292.609 293.53 301.844 286.914 310.166 282.901C314.93 280.604 315.412 280.964 319.628 277.691C322.054 277.379 323.245 280.686 325.681 280.557Q326.134 280.806 326.595 281.041Q327.056 281.276 327.523 281.497Q327.991 281.718 328.466 281.924Q328.94 282.13 329.421 282.321Q329.901 282.512 330.387 282.688Q330.874 282.864 331.365 283.025Q331.857 283.186 332.353 283.332Q332.849 283.478 333.35 283.608Q333.851 283.738 334.355 283.852Q334.859 283.967 335.367 284.066Q335.875 284.165 336.385 284.248Q336.896 284.331 337.409 284.398Q337.921 284.465 338.436 284.516Q338.951 284.567 339.467 284.602Q339.983 284.637 340.5 284.657Q341.017 284.676 341.534 284.679Q342.051 284.682 342.568 284.669Q343.085 284.656 343.601 284.627Q344.118 284.598 344.633 284.553Q345.148 284.507 345.662 284.446Q346.176 284.385 346.687 284.308Q347.198 284.231 347.707 284.138Q348.216 284.046 348.722 283.937Q349.228 283.828 349.73 283.704Q350.232 283.58 350.73 283.44Q351.228 283.3 351.721 283.145Q352.214 282.99 352.703 282.82Q353.191 282.649 353.674 282.464Q354.157 282.278 354.633 282.078Q355.11 281.877 355.581 281.662Q356.051 281.447 356.514 281.218Q356.978 280.988 357.434 280.744Q357.89 280.5 358.338 280.242Q358.787 279.984 359.227 279.712Q359.667 279.441 360.098 279.155Q360.53 278.87 360.952 278.571Q361.374 278.273 361.787 277.961Q362.2 277.65 362.603 277.326Q363.006 277.001 363.399 276.665Q363.791 276.328 364.174 275.98Q364.556 275.631 364.927 275.271Q365.298 274.911 365.658 274.539Q366.017 274.167 366.365 273.785Q366.713 273.402 367.049 273.009Q367.385 272.615 367.709 272.212Q368.032 271.808 368.343 271.395Q368.654 270.982 368.952 270.559Q369.25 270.136 369.534 269.704Q369.819 269.272 370.09 268.832Q370.361 268.391 370.619 267.943Q370.876 267.494 371.119 267.038Q371.362 266.581 371.591 266.117Q371.82 265.654 372.034 265.183Q372.249 264.712 372.448 264.235Q372.648 263.758 372.833 263.275Q373.018 262.792 373.187 262.303Q373.357 261.815 373.511 261.321Q373.666 260.827 373.805 260.329Q373.944 259.831 374.067 259.329Q374.191 258.826 374.299 258.321Q374.407 257.815 374.499 257.306Q374.591 256.797 374.667 256.285Q374.743 255.774 374.803 255.26Q374.864 254.746 374.908 254.231Z"/>
	<path fill="#4B6E95" transform="matrix(0.195312 0 0 0.195312 0.00195312 -0.000244141)" d="M330.226 313.78C332.303 313.608 334.511 313.748 336.6 313.752L349.498 313.78L349.498 328.802L330.226 328.802L330.226 313.78Z"/>
	<path fill="#FEFEFE" transform="matrix(0.195312 0 0 0.195312 0.00195312 -0.000244141)" d="M325.681 280.557Q325.028 280.198 324.392 279.81Q323.756 279.422 323.138 279.006Q322.519 278.59 321.921 278.147Q321.322 277.704 320.743 277.234Q320.164 276.764 319.608 276.269Q319.051 275.774 318.516 275.255Q317.982 274.736 317.472 274.193Q316.961 273.65 316.475 273.085Q315.99 272.52 315.53 271.934Q315.07 271.348 314.637 270.741Q314.203 270.135 313.798 269.51Q313.392 268.885 313.015 268.243Q312.637 267.6 312.289 266.941Q311.941 266.283 311.622 265.609Q311.304 264.935 311.016 264.248Q310.728 263.561 310.471 262.862Q310.214 262.162 309.989 261.452Q309.763 260.742 309.57 260.022Q309.376 259.303 309.215 258.575Q309.054 257.848 308.926 257.114Q308.798 256.38 308.702 255.641Q308.607 254.902 308.545 254.159Q308.482 253.417 308.453 252.672Q308.424 251.927 308.429 251.182Q308.433 250.437 308.471 249.693Q308.509 248.949 308.58 248.207Q308.651 247.465 308.755 246.728Q308.859 245.99 308.996 245.257Q309.133 244.525 309.302 243.799Q309.472 243.074 309.674 242.357Q309.875 241.639 310.109 240.932Q310.343 240.224 310.608 239.528Q310.873 238.832 311.169 238.148Q311.465 237.464 311.792 236.794Q312.118 236.124 312.474 235.47Q312.83 234.815 313.215 234.177Q313.599 233.539 314.013 232.919Q314.426 232.299 314.866 231.697Q315.306 231.096 315.773 230.516Q316.24 229.935 316.732 229.375Q317.224 228.816 317.741 228.279Q318.258 227.743 318.798 227.229Q319.339 226.716 319.902 226.228Q320.464 225.739 321.048 225.277Q321.632 224.814 322.236 224.378Q322.841 223.942 323.464 223.533Q324.087 223.124 324.727 222.744Q325.368 222.363 326.025 222.012Q326.682 221.66 327.354 221.339Q328.026 221.017 328.712 220.726Q329.398 220.435 330.096 220.174Q330.794 219.914 331.504 219.685Q332.213 219.456 332.931 219.259Q333.65 219.063 334.377 218.898Q335.104 218.734 335.837 218.602Q336.57 218.47 337.309 218.371Q338.047 218.272 338.79 218.206Q339.532 218.14 340.276 218.108Q341.021 218.075 341.766 218.076Q342.511 218.077 343.255 218.111Q344 218.145 344.742 218.213Q345.484 218.28 346.222 218.381Q346.96 218.481 347.694 218.614Q348.427 218.748 349.153 218.914Q349.879 219.08 350.598 219.279Q351.316 219.477 352.024 219.707Q352.733 219.938 353.431 220.2Q354.128 220.461 354.813 220.754Q355.499 221.047 356.17 221.37Q356.842 221.693 357.498 222.046Q358.154 222.399 358.794 222.781Q359.434 223.162 360.056 223.572Q360.678 223.983 361.281 224.42Q361.884 224.858 362.467 225.322Q363.05 225.786 363.612 226.275Q364.174 226.765 364.713 227.279Q365.252 227.793 365.768 228.331Q366.284 228.869 366.775 229.429Q367.266 229.99 367.731 230.572Q368.197 231.154 368.636 231.756Q369.075 232.358 369.487 232.979Q369.898 233.6 370.282 234.239Q370.665 234.877 371.02 235.533Q371.374 236.188 371.699 236.859Q372.024 237.529 372.318 238.214Q372.613 238.898 372.877 239.595Q373.14 240.292 373.372 241Q373.605 241.708 373.805 242.426Q374.005 243.144 374.173 243.87Q374.341 244.596 374.476 245.328Q374.612 246.061 374.714 246.799Q374.817 247.537 374.886 248.279Q374.955 249.021 374.991 249.765Q375.028 250.509 375.03 251.255Q375.033 252 375.002 252.744Q374.972 253.489 374.908 254.231Q374.864 254.746 374.803 255.26Q374.743 255.774 374.667 256.285Q374.591 256.797 374.499 257.306Q374.407 257.815 374.299 258.321Q374.191 258.826 374.067 259.329Q373.944 259.831 373.805 260.329Q373.666 260.827 373.512 261.321Q373.357 261.815 373.187 262.303Q373.018 262.792 372.833 263.275Q372.648 263.758 372.449 264.235Q372.249 264.712 372.034 265.183Q371.82 265.654 371.591 266.117Q371.362 266.581 371.119 267.038Q370.876 267.494 370.619 267.943Q370.361 268.391 370.09 268.832Q369.819 269.272 369.535 269.704Q369.25 270.136 368.952 270.559Q368.654 270.982 368.343 271.395Q368.032 271.808 367.709 272.212Q367.385 272.615 367.049 273.009Q366.713 273.402 366.365 273.785Q366.017 274.167 365.658 274.539Q365.298 274.911 364.927 275.271Q364.556 275.631 364.174 275.98Q363.792 276.328 363.399 276.665Q363.006 277.001 362.603 277.326Q362.2 277.65 361.787 277.961Q361.374 278.273 360.952 278.571Q360.53 278.87 360.098 279.155Q359.667 279.441 359.227 279.712Q358.787 279.984 358.338 280.242Q357.89 280.5 357.434 280.744Q356.978 280.988 356.514 281.218Q356.051 281.447 355.581 281.662Q355.11 281.877 354.633 282.078Q354.157 282.278 353.674 282.464Q353.191 282.649 352.703 282.82Q352.214 282.99 351.721 283.145Q351.228 283.3 350.73 283.44Q350.232 283.58 349.73 283.704Q349.227 283.828 348.722 283.937Q348.216 284.046 347.707 284.138Q347.198 284.231 346.687 284.308Q346.176 284.385 345.662 284.446Q345.148 284.507 344.633 284.553Q344.118 284.598 343.602 284.627Q343.085 284.656 342.568 284.669Q342.051 284.682 341.534 284.679Q341.017 284.676 340.5 284.657Q339.983 284.637 339.467 284.602Q338.951 284.567 338.436 284.516Q337.921 284.465 337.409 284.398Q336.896 284.331 336.385 284.248Q335.875 284.165 335.367 284.066Q334.859 283.967 334.355 283.852Q333.851 283.738 333.35 283.608Q332.849 283.478 332.353 283.332Q331.857 283.186 331.365 283.025Q330.874 282.864 330.387 282.688Q329.901 282.512 329.421 282.321Q328.94 282.13 328.466 281.924Q327.991 281.718 327.523 281.497Q327.056 281.276 326.595 281.041Q326.134 280.806 325.681 280.557Z"/>
	<path fill="#83D2E7" transform="matrix(0.195312 0 0 0.195312 0.00195312 -0.000244141)" d="M338.891 228.57Q339.45 228.487 340.013 228.431Q340.575 228.375 341.14 228.347Q341.705 228.318 342.27 228.318Q342.835 228.317 343.4 228.344Q343.965 228.371 344.528 228.426Q345.09 228.481 345.65 228.563Q346.209 228.645 346.764 228.754Q347.318 228.864 347.867 229Q348.416 229.137 348.957 229.3Q349.498 229.463 350.031 229.652Q350.564 229.842 351.087 230.057Q351.609 230.272 352.121 230.513Q352.633 230.753 353.132 231.019Q353.631 231.284 354.117 231.574Q354.602 231.863 355.073 232.176Q355.544 232.489 355.999 232.824Q356.454 233.16 356.892 233.517Q357.33 233.875 357.75 234.253Q358.17 234.632 358.571 235.03Q358.972 235.429 359.353 235.847Q359.734 236.264 360.094 236.7Q360.454 237.136 360.793 237.589Q361.131 238.042 361.447 238.511Q361.763 238.98 362.055 239.464Q362.348 239.948 362.616 240.445Q362.884 240.943 363.128 241.453Q363.372 241.963 363.59 242.484Q363.809 243.006 364.002 243.537Q364.194 244.069 364.361 244.609Q364.527 245.15 364.667 245.697Q364.807 246.245 364.92 246.799Q365.032 247.353 365.118 247.912Q365.204 248.471 365.262 249.033Q365.32 249.596 365.35 250.16Q365.381 250.725 365.384 251.29Q365.387 251.855 365.362 252.42Q365.337 252.985 365.285 253.548Q365.232 254.111 365.152 254.671Q365.072 255.23 364.965 255.785Q364.858 256.341 364.724 256.89Q364.589 257.439 364.429 257.981Q364.268 258.523 364.08 259.056Q363.893 259.59 363.68 260.113Q363.467 260.637 363.228 261.15Q362.989 261.662 362.726 262.162Q362.463 262.663 362.175 263.149Q361.888 263.636 361.577 264.108Q361.266 264.581 360.932 265.037Q360.598 265.493 360.242 265.933Q359.887 266.372 359.51 266.794Q359.133 267.215 358.736 267.618Q358.339 268.02 357.923 268.403Q357.507 268.786 357.073 269.148Q356.638 269.51 356.187 269.85Q355.735 270.19 355.267 270.507Q354.8 270.825 354.317 271.119Q353.834 271.414 353.338 271.684Q352.841 271.955 352.332 272.2Q351.823 272.446 351.302 272.667Q350.782 272.887 350.251 273.082Q349.72 273.277 349.181 273.446Q348.641 273.614 348.094 273.756Q347.547 273.898 346.993 274.013Q346.44 274.128 345.881 274.216Q345.32 274.304 344.755 274.365Q344.19 274.425 343.622 274.458Q343.055 274.491 342.487 274.495Q341.919 274.5 341.351 274.477Q340.783 274.454 340.217 274.402Q339.651 274.351 339.088 274.272Q338.526 274.194 337.967 274.087Q337.409 273.98 336.857 273.847Q336.305 273.713 335.76 273.552Q335.215 273.391 334.678 273.204Q334.142 273.016 333.615 272.803Q333.089 272.589 332.573 272.35Q332.058 272.111 331.555 271.846Q331.052 271.582 330.562 271.293Q330.073 271.004 329.598 270.692Q329.124 270.379 328.665 270.044Q328.206 269.708 327.765 269.351Q327.323 268.993 326.9 268.614Q326.476 268.236 326.072 267.836Q325.668 267.437 325.283 267.018Q324.899 266.6 324.536 266.163Q324.173 265.725 323.832 265.271Q323.49 264.817 323.172 264.346Q322.854 263.875 322.559 263.39Q322.264 262.904 321.993 262.404Q321.722 261.905 321.477 261.392Q321.231 260.88 321.011 260.356Q320.79 259.832 320.596 259.298Q320.402 258.764 320.234 258.221Q320.067 257.678 319.926 257.128Q319.785 256.577 319.672 256.02Q319.558 255.464 319.472 254.902Q319.386 254.34 319.328 253.775Q319.269 253.21 319.239 252.642Q319.209 252.075 319.206 251.507Q319.204 250.938 319.229 250.371Q319.255 249.803 319.308 249.237Q319.361 248.672 319.443 248.109Q319.524 247.547 319.633 246.989Q319.741 246.431 319.877 245.88Q320.013 245.328 320.176 244.783Q320.339 244.239 320.529 243.703Q320.718 243.168 320.934 242.642Q321.15 242.116 321.391 241.602Q321.633 241.087 321.899 240.585Q322.165 240.083 322.456 239.595Q322.747 239.107 323.061 238.634Q323.375 238.16 323.713 237.703Q324.05 237.245 324.409 236.805Q324.769 236.365 325.149 235.943Q325.53 235.521 325.931 235.118Q326.331 234.716 326.752 234.333Q327.172 233.951 327.61 233.589Q328.049 233.228 328.505 232.888Q328.96 232.549 329.432 232.232Q329.904 231.916 330.391 231.623Q330.878 231.33 331.379 231.061Q331.879 230.793 332.393 230.549Q332.906 230.305 333.431 230.087Q333.956 229.869 334.49 229.677Q335.025 229.485 335.569 229.319Q336.112 229.154 336.663 229.015Q337.214 228.876 337.772 228.765Q338.329 228.654 338.891 228.57Z"/>
	<path fill="#FEFEFE" transform="matrix(0.195312 0 0 0.195312 0.00195312 -0.000244141)" d="M353.118 238.315C369.106 239.693 344.52 261.256 339.932 261.048C337.351 260.931 334.394 257.264 332.839 255.464C327.283 252.359 324.644 244.947 331.017 244.114C335.109 243.579 337.728 247.484 340.555 249.767C343.831 246.925 349.482 239.584 353.118 238.315Z"/>
	<path fill="#B6E6F0" transform="matrix(0.195312 0 0 0.195312 0.00195312 -0.000244141)" d="M330.226 188.929C330.433 190.651 331.359 190.252 332.839 190.232C323.68 191.697 295.047 188.968 291.547 193.079C290.763 194.001 293.266 195.83 293.205 197.251C293.121 199.2 285.273 212.468 283.398 210.908C280.558 219.771 284.484 241.728 283.092 247.127L282.692 244.24C282.237 239.758 282.673 232.931 282.686 228.221C282.751 204.388 277.486 190.257 309.012 190.222L324.363 190.221C326.347 190.229 329.578 191.359 330.226 188.929Z"/>
	<path fill="#33BCE0" transform="matrix(0.195312 0 0 0.195312 0.00195312 -0.000244141)" d="M203.114 88.7508C218.112 88.3154 237.428 87.9851 252.336 88.7796C258.894 89.1291 258.88 98.356 252.383 99.0424C247.352 99.4923 241.276 99.0539 236.146 99.0491L201.266 99.0424C196.314 95.3859 197.017 89.8264 203.114 88.7508Z"/>
</svg>
