<?xml version="1.0" encoding="utf-8" ?>
<svg xmlns="http://www.w3.org/2000/svg" xmlns:xlink="http://www.w3.org/1999/xlink" width="100" height="100">
	<path fill="#9EEDE3" transform="matrix(0.195312 0 0 0.195312 0.00195312 -0.000244141)" d="M349.431 72.8174C349.446 57.9235 351.989 59.7481 364.524 59.738C380.845 59.7248 386.954 55.3802 386.664 72.8174C392.009 73.7145 396.516 75.8353 401.112 78.6451L401.317 78.4349C404.74 74.8659 408.708 67.7909 414.279 71.8241C418.435 74.8325 432.792 89.2564 434.741 92.9218C434.778 93.7913 434.836 94.6458 434.741 95.5127C433.371 98.7049 430.421 100.987 428.142 103.538C430.876 108.561 432.919 113.612 434.741 119.031C440.721 119.107 446.714 117.052 450.391 122.879L450.413 141.449C450.435 156.544 449.845 154.903 434.741 154.764C433.022 160.383 431.21 166.051 428.142 171.104L428.349 171.458C436.631 185.488 440.971 178.331 425.647 193.551C413.258 205.856 413.834 211.867 401.112 198.141C396.751 200.216 391.477 203.461 386.664 203.948C395.655 212.003 402.721 244.628 403.411 257.016C404.106 269.515 402.877 282.754 400.356 294.994C405.251 294.939 413.235 293.531 414.619 300.019C415.207 302.774 415.055 318.218 414.884 321.693C414.48 329.93 403.206 327.44 397.697 327.433C390.511 327.423 383.302 327.572 376.119 327.427C373.789 338.221 342.454 368.192 329.73 372.516C333.719 385.015 332.267 398.463 332.259 411.377L332.247 433.128C332.269 436.058 333.841 446.695 330.42 447.857C326.583 446.763 328.411 433.109 328.41 429.818L304.161 429.818C304.043 432.665 304.911 445.738 303.135 447.327C298.625 451.361 300.115 431.669 300.231 429.818C290.335 429.59 280.387 429.818 270.485 429.819L211.321 429.818C211.336 433.846 211.782 440.896 211.321 444.538L211.296 444.873C211.158 446.87 210.026 447.849 208.073 446.825C206.675 444.487 207.312 433.087 207.319 429.818L184.302 429.818C184.292 433.764 186.375 447.361 182.248 447.815C179.308 446.056 180.538 436.655 180.548 433.747L180.544 394.348C180.525 386.976 180.084 379.628 182.437 372.516C180.345 370.66 177.727 369.166 175.425 367.574C152.094 351.446 134.398 330.35 123.267 304.068C121.164 299.103 118.622 293.234 118.155 287.873L101.292 287.886C71.234 287.876 60.1397 276.822 60.126 246.636L60.0768 184.709C60.0643 170.304 69.8702 156.837 83.8529 153.028C91.7033 150.89 101.368 151.74 109.522 151.74L139.172 151.751L139.172 148.149C142.533 142.394 158.154 144.568 165.144 144.265L164.837 144.433C175.164 118.437 197.422 111.029 222.728 116.495C243.13 110.978 265.243 111.184 285.884 115.289C290.746 116.256 295.411 118.139 300.231 119.031L301.087 119.334C301.4 119.158 306.704 106.412 308.355 104C296.662 92.6446 300.352 93.5336 311.803 82.104C321.407 72.5184 324.216 65.1111 335.134 78.6451C339.798 76.5535 344.444 74.0373 349.431 72.8174ZM401.112 198.141C413.834 211.867 413.258 205.856 425.647 193.551C440.971 178.331 436.631 185.488 428.349 171.458L428.142 171.104C431.21 166.051 433.022 160.383 434.741 154.764C449.845 154.903 450.435 156.544 450.413 141.449L450.391 122.879C446.714 117.052 440.721 119.107 434.741 119.031C432.919 113.612 430.876 108.561 428.142 103.538C430.421 100.987 433.371 98.7049 434.741 95.5127C434.836 94.6458 434.778 93.7913 434.741 92.9218C432.792 89.2564 418.435 74.8325 414.279 71.8241C408.708 67.7909 404.74 74.8659 401.317 78.4349L401.112 78.6451C396.516 75.8353 392.009 73.7145 386.664 72.8174C386.954 55.3802 380.845 59.7248 364.524 59.738C351.989 59.7481 349.446 57.9235 349.431 72.8174C344.444 74.0373 339.798 76.5535 335.134 78.6451C324.216 65.1111 321.407 72.5184 311.803 82.104C300.352 93.5336 296.662 92.6446 308.355 104C306.704 106.412 301.4 119.158 301.087 119.334L300.231 119.031C296.849 119.759 291.947 118.546 289.577 121.688C288.303 123.377 288.106 147.463 288.839 151.837C289.639 156.615 298.309 155.038 301.594 155.45C303.436 161.622 305.472 167.234 308.355 173C296.881 184.29 297.908 181.799 310.679 194.607C328.967 212.946 321.351 208.465 335.134 199.137C339.837 201.362 344.659 202.963 349.431 204.965C349.333 211.503 347.914 218.721 354.713 219.978L354.713 225.108C347.431 224.094 349.421 230.412 349.418 236.299L349.431 294.994L333.998 294.963C315.262 294.948 319.653 301.329 319.741 318.411C319.805 330.638 328.998 327.43 337.75 327.412L362.765 327.414C367.184 327.408 371.716 327.167 376.119 327.427C383.302 327.572 390.511 327.423 397.697 327.433C403.206 327.44 414.48 329.93 414.884 321.693C415.055 318.218 415.207 302.774 414.619 300.019C413.235 293.531 405.251 294.939 400.356 294.994C402.877 282.754 404.106 269.515 403.411 257.016C402.721 244.628 395.655 212.003 386.664 203.948C391.477 203.461 396.751 200.216 401.112 198.141ZM273.792 333.625L273.792 317.242C288.068 305.936 290.957 296.298 290.701 277.99C290.568 268.417 290.918 270.168 293.373 261.372C295.532 253.632 294.605 244.49 292.758 236.761C290.624 227.833 287.162 234.605 282.214 237.028C266.887 244.535 237.921 216.404 228.284 245.493C218.682 249.903 217.187 258.936 219.292 268.69C224.081 290.884 216.726 298.741 237.484 317.242L237.484 333.625C211.245 336.087 190.423 344.687 182.437 372.516C180.084 379.628 180.525 386.976 180.544 394.348L180.548 433.747C180.538 436.655 179.308 446.056 182.248 447.815C186.375 447.361 184.292 433.764 184.302 429.818L207.319 429.818C207.312 433.087 206.675 444.487 208.073 446.825C210.026 447.849 211.158 446.87 211.296 444.873L211.321 444.538C211.782 440.896 211.336 433.846 211.321 429.818L270.485 429.819C280.387 429.818 290.335 429.59 300.231 429.818C300.115 431.669 298.625 451.361 303.135 447.327C304.911 445.738 304.043 432.665 304.161 429.818L328.41 429.818C328.411 433.109 326.583 446.763 330.42 447.857C333.841 446.695 332.269 436.058 332.247 433.128L332.259 411.377C332.267 398.463 333.719 385.015 329.73 372.516C321.959 345.821 299.851 336.291 273.792 333.625ZM139.172 151.751L109.522 151.74C101.368 151.74 91.7033 150.89 83.8529 153.028C69.8702 156.837 60.0643 170.304 60.0768 184.709L60.126 246.636C60.1397 276.822 71.234 287.876 101.292 287.886L118.155 287.873L138.27 287.873C141.202 296.258 147.803 293.977 155.75 293.978L193.836 293.97C208.107 293.964 208.408 295.619 208.406 279.375L208.391 261.699C217.253 260.759 214.27 249.611 214.26 241.942C214.254 237.491 216.239 227.33 209.609 226.775C201.567 226.101 189.869 226.844 181.498 226.843L118.155 226.839C118.908 217.047 131.628 185.25 139.172 179.343C141.482 184.716 146.917 183.272 151.788 183.246C157.442 183.216 163.104 183.103 168.758 183.22C180.792 199.288 197.407 207.891 217.986 203.015C256.213 193.956 263.812 142.107 231.689 121.385C228.941 119.612 225.901 118.448 223.141 116.753L222.728 116.495C197.422 111.029 175.164 118.437 164.837 144.433L165.144 144.265C158.154 144.568 142.533 142.394 139.172 148.149L139.172 151.751Z"/>
	<path fill="#4141A5" transform="matrix(0.195312 0 0 0.195312 0.00195312 -0.000244141)" d="M349.431 72.8174C349.446 57.9235 351.989 59.7481 364.524 59.738C380.845 59.7248 386.954 55.3802 386.664 72.8174C392.009 73.7145 396.516 75.8353 401.112 78.6451L401.317 78.4349C404.74 74.8659 408.708 67.7909 414.279 71.8241C418.435 74.8325 432.792 89.2564 434.741 92.9218C434.778 93.7913 434.836 94.6458 434.741 95.5127C433.371 98.7049 430.421 100.987 428.142 103.538C430.876 108.561 432.919 113.612 434.741 119.031C440.721 119.107 446.714 117.052 450.391 122.879L450.413 141.449C450.435 156.544 449.845 154.903 434.741 154.764C433.022 160.383 431.21 166.051 428.142 171.104L428.349 171.458C436.631 185.488 440.971 178.331 425.647 193.551C413.258 205.856 413.834 211.867 401.112 198.141C396.751 200.216 391.477 203.461 386.664 203.948C395.655 212.003 402.721 244.628 403.411 257.016C404.106 269.515 402.877 282.754 400.356 294.994C405.251 294.939 413.235 293.531 414.619 300.019C415.207 302.774 415.055 318.218 414.884 321.693C414.48 329.93 403.206 327.44 397.697 327.433C390.511 327.423 383.302 327.572 376.119 327.427C371.716 327.167 367.184 327.408 362.765 327.414L337.75 327.412C328.998 327.43 319.805 330.638 319.741 318.411C319.653 301.329 315.262 294.948 333.998 294.963L349.431 294.994L349.418 236.299C349.421 230.412 347.431 224.094 354.713 225.108L354.713 219.978C347.914 218.721 349.333 211.503 349.431 204.965C344.659 202.963 339.837 201.362 335.134 199.137C321.351 208.465 328.967 212.946 310.679 194.607C297.908 181.799 296.881 184.29 308.355 173C305.472 167.234 303.436 161.622 301.594 155.45C298.309 155.038 289.639 156.615 288.839 151.837C288.106 147.463 288.303 123.377 289.577 121.688C291.947 118.546 296.849 119.759 300.231 119.031L301.087 119.334C301.4 119.158 306.704 106.412 308.355 104C296.662 92.6446 300.352 93.5336 311.803 82.104C321.407 72.5184 324.216 65.1111 335.134 78.6451C339.798 76.5535 344.444 74.0373 349.431 72.8174ZM353.544 63.659C355.006 79.1995 354.577 74.5787 343.243 79.2723C340.455 80.4267 337.907 82.1156 335.134 83.2817C331.383 80.921 327.968 77.3142 324.751 74.2656C318.993 81.7562 310.943 87.3861 305.036 94.7462C307.318 97.7301 310.462 100.241 312.274 103.538C310.137 108.832 307.149 113.671 305.527 119.206C303.474 126.206 300.278 123.797 292.709 123.721L292.709 150.802C303.551 152.204 303.079 148.083 306.601 158.66C307.824 162.334 309.22 166.296 311.35 169.539C315.298 175.551 309.137 177.721 304.161 182.413C311.333 188.935 317.676 196.366 324.751 202.986C328.241 200.052 331.089 196.267 335.134 194.095C338.228 195.863 341.332 197.664 344.637 199.014C354.757 203.147 353.827 198.214 353.617 208.11C353.559 210.854 354.095 213.59 354.713 216.249L377.171 216.249L381.745 216.249L381.745 201.028C390.867 198.626 393.162 196.878 401.112 193.244C404.515 196.386 408.001 199.449 411.004 202.986C416.481 196.906 427.735 187.418 431.809 181.491C428.82 178.559 426.231 175.319 423.155 172.46C427.787 164.084 429.168 159.821 431.809 150.802L446.328 150.802C446.579 147.384 446.356 143.927 446.338 140.501L446.328 123.721C441.479 122.252 436.731 123.296 431.809 122.879C429.156 116.203 425.408 108.668 423.155 102.669C425.677 99.7603 428.766 97.0981 431.809 94.7462C427.594 89.0569 417.256 80.0233 411.749 74.2656C407.584 76.4843 404.87 80.4739 401.112 83.2817C396.733 80.0365 383.182 76.2466 382.898 74.2735C382.401 70.8171 383.126 67.1816 382.719 63.659L364.568 63.659L353.544 63.659ZM353.544 269.107C354.415 272.8 352.148 283.728 354.539 285.886C360.301 286.987 355.955 284.803 358.29 281.979C358.712 264.343 358.146 246.635 358.29 228.989L353.544 228.989C352.744 239.932 353.059 258.098 353.544 269.107ZM358.29 225.108C364.581 225.107 370.881 225.027 377.171 225.108C377.172 223.399 377.192 221.687 377.171 219.978L358.29 219.978C358.28 221.688 358.258 223.398 358.29 225.108Z"/>
	<path fill="#9EEDE3" transform="matrix(0.195312 0 0 0.195312 0.00195312 -0.000244141)" d="M380.986 219.978C390.092 218.501 383.632 209.349 386.263 203.873L386.664 203.948C395.655 212.003 402.721 244.628 403.411 257.016C404.106 269.515 402.877 282.754 400.356 294.994L386.664 294.994L386.664 250.567C386.665 243.266 387.024 235.781 386.657 228.498C386.485 225.097 383.841 225.282 380.986 225.108L380.986 219.978Z"/>
	<path fill="#4141A5" transform="matrix(0.195312 0 0 0.195312 0.00195312 -0.000244141)" d="M364.595 90.5225Q365.76 90.4345 366.927 90.4037Q368.095 90.3728 369.263 90.3993Q370.43 90.4258 371.595 90.5095Q372.76 90.5932 373.92 90.7339Q375.079 90.8746 376.23 91.072Q377.381 91.2694 378.522 91.523Q379.662 91.7766 380.788 92.0859Q381.914 92.3951 383.024 92.7591Q384.134 93.1232 385.224 93.5412Q386.315 93.9593 387.384 94.4303Q388.453 94.9013 389.497 95.4241Q390.542 95.947 391.559 96.5204Q392.577 97.0939 393.565 97.7165Q394.553 98.3391 395.509 99.0095Q396.466 99.6798 397.388 100.396Q398.311 101.113 399.197 101.873Q400.083 102.634 400.931 103.438Q401.779 104.241 402.586 105.085Q403.394 105.929 404.159 106.811Q404.924 107.694 405.645 108.613Q406.366 109.532 407.041 110.485Q407.716 111.438 408.343 112.423Q408.97 113.409 409.549 114.423Q410.127 115.438 410.655 116.48Q411.183 117.522 411.659 118.588Q412.135 119.655 412.559 120.743Q412.982 121.832 413.351 122.94Q413.721 124.048 414.035 125.173Q414.35 126.298 414.609 127.437Q414.868 128.575 415.071 129.726Q415.274 130.876 415.42 132.035Q415.567 133.193 415.656 134.358Q415.745 135.523 415.777 136.69Q415.81 137.858 415.784 139.025Q415.759 140.193 415.677 141.358Q415.594 142.523 415.455 143.683Q415.316 144.842 415.12 145.994Q414.923 147.145 414.671 148.285Q414.419 149.426 414.111 150.552Q413.803 151.679 413.44 152.789Q413.077 153.899 412.661 154.991Q412.244 156.082 411.774 157.151Q411.304 158.22 410.782 159.265Q410.261 160.31 409.689 161.328Q409.116 162.347 408.495 163.335Q407.873 164.324 407.204 165.281Q406.535 166.239 405.819 167.162Q405.104 168.085 404.344 168.972Q403.584 169.859 402.782 170.708Q401.98 171.557 401.137 172.365Q400.294 173.174 399.412 173.94Q398.53 174.706 397.612 175.428Q396.694 176.149 395.742 176.826Q394.789 177.502 393.805 178.13Q392.82 178.759 391.806 179.338Q390.792 179.917 389.751 180.447Q388.71 180.976 387.644 181.453Q386.578 181.93 385.49 182.355Q384.402 182.779 383.294 183.15Q382.187 183.521 381.062 183.837Q379.938 184.153 378.799 184.413Q377.661 184.674 376.511 184.878Q375.361 185.082 374.202 185.23Q373.043 185.377 371.879 185.468Q370.713 185.559 369.544 185.592Q368.375 185.626 367.205 185.602Q366.036 185.578 364.869 185.496Q363.702 185.415 362.541 185.276Q361.379 185.137 360.226 184.942Q359.073 184.746 357.931 184.495Q356.788 184.243 355.66 183.935Q354.531 183.627 353.419 183.265Q352.307 182.902 351.215 182.485Q350.122 182.068 349.051 181.598Q347.98 181.128 346.933 180.606Q345.886 180.084 344.866 179.511Q343.847 178.938 342.856 178.316Q341.866 177.694 340.907 177.024Q339.948 176.354 339.024 175.638Q338.099 174.921 337.211 174.16Q336.323 173.399 335.473 172.596Q334.623 171.792 333.813 170.948Q333.004 170.103 332.237 169.22Q331.47 168.337 330.747 167.418Q330.025 166.498 329.348 165.544Q328.671 164.59 328.042 163.604Q327.413 162.618 326.833 161.602Q326.254 160.586 325.724 159.543Q325.195 158.5 324.718 157.432Q324.24 156.364 323.816 155.274Q323.392 154.184 323.021 153.075Q322.651 151.965 322.335 150.839Q322.02 149.713 321.76 148.572Q321.501 147.432 321.297 146.28Q321.094 145.128 320.947 143.968Q320.8 142.807 320.711 141.641Q320.622 140.475 320.589 139.306Q320.557 138.136 320.583 136.967Q320.608 135.798 320.691 134.631Q320.774 133.464 320.913 132.303Q321.053 131.142 321.25 129.989Q321.447 128.836 321.7 127.694Q321.953 126.552 322.262 125.424Q322.571 124.296 322.935 123.184Q323.299 122.073 323.717 120.98Q324.135 119.888 324.606 118.817Q325.078 117.747 325.601 116.701Q326.124 115.655 326.698 114.635Q327.272 113.616 327.895 112.627Q328.519 111.637 329.19 110.679Q329.861 109.721 330.578 108.797Q331.296 107.873 332.058 106.986Q332.819 106.098 333.624 105.249Q334.429 104.4 335.274 103.592Q336.119 102.783 337.003 102.017Q337.887 101.251 338.807 100.53Q339.728 99.8082 340.683 99.1326Q341.637 98.457 342.624 97.8291Q343.611 97.2012 344.628 96.6225Q345.644 96.0438 346.688 95.5158Q347.731 94.9877 348.8 94.5115Q349.868 94.0353 350.958 93.6122Q352.049 93.189 353.159 92.8199Q354.269 92.4508 355.395 92.1366Q356.522 91.8225 357.663 91.564Q358.803 91.3056 359.955 91.1034Q361.108 90.9013 362.268 90.756Q363.429 90.6107 364.595 90.5225ZM369.876 181.602Q370.944 181.562 372.008 181.469Q373.073 181.377 374.131 181.232Q375.19 181.087 376.24 180.891Q377.291 180.695 378.33 180.448Q379.37 180.2 380.396 179.902Q381.422 179.604 382.432 179.256Q383.443 178.908 384.435 178.511Q385.427 178.114 386.398 177.669Q387.369 177.224 388.318 176.732Q389.266 176.239 390.189 175.701Q391.112 175.163 392.008 174.581Q392.904 173.998 393.77 173.372Q394.636 172.747 395.47 172.079Q396.305 171.412 397.106 170.704Q397.906 169.997 398.671 169.251Q399.436 168.505 400.164 167.722Q400.892 166.94 401.58 166.123Q402.269 165.306 402.916 164.456Q403.564 163.606 404.169 162.725Q404.774 161.845 405.336 160.936Q405.897 160.026 406.413 159.091Q406.929 158.155 407.399 157.195Q407.869 156.236 408.291 155.254Q408.713 154.273 409.087 153.271Q409.46 152.27 409.784 151.252Q410.108 150.234 410.382 149.201Q410.656 148.168 410.879 147.123Q411.102 146.078 411.273 145.024Q411.445 143.969 411.564 142.907Q411.684 141.845 411.751 140.779Q411.819 139.713 411.834 138.644Q411.849 137.576 411.812 136.508Q411.775 135.44 411.685 134.375Q411.596 133.311 411.454 132.252Q411.313 131.192 411.12 130.142Q410.927 129.091 410.682 128.05Q410.438 127.01 410.143 125.983Q409.848 124.956 409.502 123.945Q409.157 122.934 408.763 121.941Q408.369 120.947 407.927 119.975Q407.485 119.002 406.995 118.052Q406.506 117.102 405.97 116.178Q405.435 115.253 404.855 114.356Q404.275 113.458 403.652 112.59Q403.028 111.722 402.363 110.886Q401.698 110.05 400.993 109.247Q400.288 108.444 399.544 107.677Q398.801 106.91 398.02 106.18Q397.24 105.45 396.425 104.759Q395.61 104.068 394.762 103.418Q393.914 102.768 393.035 102.16Q392.156 101.552 391.249 100.988Q390.341 100.424 389.407 99.9055Q388.473 99.3867 387.515 98.9142Q386.556 98.4417 385.576 98.0167Q384.596 97.5917 383.595 97.2152Q382.596 96.8388 381.578 96.5117Q380.561 96.1847 379.529 95.9079Q378.497 95.631 377.453 95.4051Q376.408 95.1792 375.354 95.0046Q374.3 94.8301 373.239 94.7074Q372.177 94.5847 371.111 94.5142Q370.045 94.4436 368.976 94.4254Q367.908 94.4071 366.84 94.4412Q365.768 94.4754 364.699 94.5623Q363.63 94.6492 362.567 94.7885Q361.503 94.9278 360.448 95.1192Q359.393 95.3107 358.348 95.5537Q357.304 95.7968 356.272 96.0909Q355.241 96.3851 354.225 96.7295Q353.21 97.074 352.212 97.468Q351.215 97.8619 350.238 98.3045Q349.261 98.747 348.307 99.237Q347.353 99.7271 346.424 100.263Q345.496 100.8 344.594 101.381Q343.693 101.962 342.822 102.587Q341.95 103.212 341.11 103.879Q340.27 104.546 339.464 105.254Q338.658 105.961 337.888 106.708Q337.118 107.454 336.385 108.237Q335.653 109.02 334.959 109.839Q334.266 110.657 333.614 111.508Q332.962 112.36 332.352 113.242Q331.743 114.124 331.177 115.036Q330.612 115.947 330.092 116.885Q329.572 117.823 329.099 118.786Q328.626 119.748 328.2 120.733Q327.775 121.717 327.399 122.721Q327.022 123.726 326.696 124.747Q326.369 125.769 326.093 126.805Q325.817 127.841 325.592 128.89Q325.368 129.939 325.195 130.997Q325.022 132.056 324.901 133.121Q324.781 134.187 324.713 135.257Q324.644 136.327 324.629 137.4Q324.614 138.472 324.651 139.544Q324.688 140.616 324.778 141.685Q324.868 142.753 325.011 143.816Q325.153 144.879 325.348 145.934Q325.542 146.989 325.788 148.032Q326.034 149.076 326.331 150.107Q326.628 151.137 326.976 152.152Q327.323 153.167 327.72 154.163Q328.117 155.159 328.562 156.135Q329.008 157.11 329.501 158.063Q329.993 159.016 330.532 159.943Q331.071 160.87 331.655 161.769Q332.239 162.669 332.867 163.539Q333.494 164.409 334.164 165.246Q334.833 166.084 335.543 166.888Q336.253 167.692 337.001 168.46Q337.75 169.228 338.535 169.959Q339.321 170.689 340.141 171.38Q340.961 172.071 341.814 172.72Q342.668 173.37 343.552 173.977Q344.436 174.584 345.349 175.147Q346.262 175.71 347.201 176.227Q348.141 176.744 349.105 177.214Q350.069 177.685 351.054 178.107Q352.04 178.53 353.045 178.903Q354.051 179.277 355.073 179.6Q356.096 179.924 357.133 180.197Q358.17 180.47 359.219 180.692Q360.269 180.913 361.328 181.083Q362.386 181.253 363.452 181.37Q364.518 181.488 365.589 181.553Q366.659 181.618 367.732 181.63Q368.804 181.642 369.876 181.602Z"/>
	<path fill="#FE977D" transform="matrix(0.195312 0 0 0.195312 0.00195312 -0.000244141)" d="M366.995 103.291Q367.843 103.258 368.692 103.266Q369.541 103.274 370.388 103.323Q371.235 103.373 372.079 103.464Q372.923 103.555 373.762 103.687Q374.6 103.819 375.431 103.992Q376.262 104.165 377.084 104.378Q377.906 104.592 378.716 104.845Q379.526 105.098 380.323 105.391Q381.12 105.683 381.901 106.014Q382.683 106.346 383.447 106.715Q384.212 107.084 384.957 107.489Q385.703 107.895 386.427 108.337Q387.152 108.779 387.854 109.256Q388.557 109.733 389.235 110.243Q389.913 110.754 390.565 111.297Q391.218 111.84 391.843 112.414Q392.468 112.988 393.064 113.592Q393.66 114.197 394.226 114.829Q394.792 115.462 395.327 116.121Q395.861 116.781 396.363 117.466Q396.864 118.15 397.332 118.859Q397.799 119.567 398.231 120.298Q398.664 121.029 399.06 121.779Q399.456 122.53 399.814 123.299Q400.173 124.069 400.494 124.854Q400.815 125.64 401.097 126.441Q401.379 127.242 401.621 128.055Q401.864 128.868 402.067 129.693Q402.269 130.517 402.431 131.35Q402.593 132.184 402.714 133.024Q402.835 133.864 402.915 134.709Q402.995 135.554 403.033 136.402Q403.071 137.25 403.068 138.099Q403.065 138.948 403.021 139.795Q402.976 140.643 402.89 141.487Q402.804 142.332 402.677 143.171Q402.55 144.01 402.382 144.842Q402.214 145.675 402.005 146.497Q401.797 147.32 401.548 148.132Q401.3 148.943 401.012 149.742Q400.724 150.541 400.398 151.324Q400.071 152.108 399.707 152.874Q399.342 153.641 398.941 154.389Q398.539 155.137 398.102 155.864Q397.664 156.591 397.191 157.296Q396.719 158.002 396.212 158.683Q395.706 159.364 395.167 160.019Q394.627 160.675 394.057 161.303Q393.486 161.932 392.886 162.532Q392.285 163.132 391.656 163.701Q391.026 164.271 390.37 164.809Q389.714 165.348 389.032 165.853Q388.35 166.359 387.644 166.83Q386.939 167.302 386.211 167.738Q385.483 168.175 384.734 168.575Q383.986 168.976 383.219 169.339Q382.451 169.703 381.667 170.028Q380.883 170.353 380.085 170.64Q379.286 170.927 378.474 171.174Q377.662 171.422 376.839 171.629Q376.015 171.836 375.183 172.003Q374.351 172.17 373.511 172.296Q372.672 172.422 371.827 172.507Q370.983 172.592 370.135 172.635Q369.281 172.679 368.426 172.68Q367.57 172.682 366.716 172.641Q365.862 172.601 365.01 172.518Q364.159 172.436 363.313 172.312Q362.467 172.187 361.628 172.021Q360.789 171.855 359.959 171.648Q359.129 171.441 358.311 171.194Q357.492 170.946 356.687 170.659Q355.881 170.371 355.091 170.044Q354.3 169.717 353.527 169.351Q352.754 168.986 352 168.583Q351.245 168.18 350.512 167.74Q349.778 167.3 349.067 166.825Q348.356 166.349 347.67 165.84Q346.983 165.33 346.322 164.787Q345.662 164.244 345.028 163.669Q344.395 163.094 343.791 162.488Q343.187 161.883 342.613 161.249Q342.04 160.614 341.498 159.952Q340.957 159.29 340.448 158.603Q339.94 157.915 339.466 157.203Q338.992 156.491 338.554 155.756Q338.116 155.022 337.714 154.267Q337.313 153.512 336.949 152.738Q336.585 151.964 336.26 151.173Q335.934 150.382 335.649 149.576Q335.363 148.77 335.117 147.951Q334.871 147.131 334.666 146.301Q334.46 145.471 334.296 144.631Q334.132 143.792 334.01 142.946Q333.887 142.099 333.806 141.248Q333.726 140.396 333.687 139.542Q333.648 138.688 333.652 137.832Q333.655 136.977 333.701 136.123Q333.746 135.269 333.834 134.418Q333.922 133.568 334.051 132.722Q334.18 131.877 334.351 131.039Q334.522 130.201 334.734 129.372Q334.946 128.544 335.198 127.727Q335.451 126.909 335.743 126.106Q336.036 125.302 336.367 124.514Q336.699 123.725 337.069 122.954Q337.439 122.183 337.846 121.431Q338.254 120.679 338.698 119.949Q339.142 119.218 339.622 118.51Q340.102 117.801 340.615 117.118Q341.129 116.434 341.676 115.777Q342.223 115.119 342.802 114.489Q343.38 113.86 343.989 113.259Q344.598 112.659 345.236 112.089Q345.874 111.519 346.539 110.981Q347.204 110.444 347.895 109.939Q348.586 109.435 349.3 108.965Q350.015 108.496 350.752 108.062Q351.489 107.628 352.247 107.231Q353.004 106.834 353.78 106.475Q354.556 106.115 355.349 105.795Q356.142 105.474 356.95 105.193Q357.758 104.912 358.578 104.671Q359.399 104.43 360.23 104.23Q361.062 104.029 361.902 103.87Q362.742 103.711 363.589 103.594Q364.437 103.476 365.288 103.4Q366.14 103.325 366.995 103.291Z"/>
	<path fill="#4141A5" transform="matrix(0.195312 0 0 0.195312 0.00195312 -0.000244141)" d="M366.895 115.134C371.312 115.597 370.353 118.369 370.237 122.015C373.267 122.751 378.232 123.564 376.192 127.63C375.725 127.942 358.033 122.911 362.919 133.965C364.693 137.977 370.235 136.893 373.739 138.332C382.178 141.799 380.573 153.097 370.237 156.683C370.298 159.411 370.497 162.66 366.895 161.944C365.866 160.447 366.135 158.423 366.142 156.683C355.026 153.48 358.207 149.993 360.243 150.264C364.135 150.783 366.031 153.755 371.088 152.14C373.84 151.261 375.859 147.902 374.759 145.087C372.76 139.972 367.229 141.784 363.243 139.894C355.531 136.237 356.685 125.086 366.895 122.015C366.467 119.893 366.129 117.191 366.895 115.134Z"/>
	<path fill="#A2D4F7" transform="matrix(0.195312 0 0 0.195312 0.00195312 -0.000244141)" d="M330.518 323.468C328.135 323.557 324.351 324.414 323.896 321.153C323.578 318.883 323.045 300.853 324.422 299.834C326.878 298.016 345.294 298.832 348.707 298.833L378.923 298.831C386.645 298.83 404.735 297.235 411.004 300.39C411.11 304.548 411.504 319.733 410.475 322.669C409.37 323.768 406.404 323.474 404.914 323.47L404.686 323.468L330.518 323.468Z"/>
	<path fill="#DFEBF6" transform="matrix(0.195312 0 0 0.195312 0.00195312 -0.000244141)" d="M330.518 323.468C328.135 323.557 324.351 324.414 323.896 321.153C323.578 318.883 323.045 300.853 324.422 299.834C326.878 298.016 345.294 298.832 348.707 298.833L378.923 298.831C386.645 298.83 404.735 297.235 411.004 300.39C411.11 304.548 411.504 319.733 410.475 322.669C409.37 323.768 406.404 323.474 404.914 323.47L404.686 323.468L403.981 323.097C403.175 320.312 403.991 309.237 403.757 305.223L330.518 305.223L330.518 323.468Z"/>
	<path fill="#FE977D" transform="matrix(0.195312 0 0 0.195312 0.00195312 -0.000244141)" d="M358.29 228.989L368.926 228.989L382.719 228.989L382.719 294.994L368.926 294.994L358.29 294.994C358.226 290.656 358.116 286.315 358.29 281.979C358.712 264.343 358.146 246.635 358.29 228.989Z"/>
	<path fill="#FEC46A" transform="matrix(0.195312 0 0 0.195312 0.00195312 -0.000244141)" d="M358.29 228.989L368.926 228.989L368.935 273.45C368.937 280.561 369.32 287.904 368.926 294.994L358.29 294.994C358.226 290.656 358.116 286.315 358.29 281.979C358.712 264.343 358.146 246.635 358.29 228.989Z"/>
	<path fill="#FFE7B8" transform="matrix(0.195312 0 0 0.195312 0.00195312 -0.000244141)" d="M353.544 269.107C354.415 272.8 352.148 283.728 354.539 285.886C360.301 286.987 355.955 284.803 358.29 281.979C358.116 286.315 358.226 290.656 358.29 294.994L353.544 294.994L353.544 269.107Z"/>
	<path fill="#4141A5" transform="matrix(0.195312 0 0 0.195312 0.00195312 -0.000244141)" d="M228.284 245.493C237.921 216.404 266.887 244.535 282.214 237.028C287.162 234.605 290.624 227.833 292.758 236.761C294.605 244.49 295.532 253.632 293.373 261.372C290.918 270.168 290.568 268.417 290.701 277.99C290.957 296.298 288.068 305.936 273.792 317.242L273.792 333.625C299.851 336.291 321.959 345.821 329.73 372.516C333.719 385.015 332.267 398.463 332.259 411.377L332.247 433.128C332.269 436.058 333.841 446.695 330.42 447.857C326.583 446.763 328.411 433.109 328.41 429.818L304.161 429.818C304.043 432.665 304.911 445.738 303.135 447.327C298.625 451.361 300.115 431.669 300.231 429.818C290.335 429.59 280.387 429.818 270.485 429.819L211.321 429.818C211.336 433.846 211.782 440.896 211.321 444.538L211.296 444.873C211.158 446.87 210.026 447.849 208.073 446.825C206.675 444.487 207.312 433.087 207.319 429.818L184.302 429.818C184.292 433.764 186.375 447.361 182.248 447.815C179.308 446.056 180.538 436.655 180.548 433.747L180.544 394.348C180.525 386.976 180.084 379.628 182.437 372.516C190.423 344.687 211.245 336.087 237.484 333.625L237.484 317.242C216.726 298.741 224.081 290.884 219.292 268.69C217.187 258.936 218.682 249.903 228.284 245.493ZM275.418 264.829C263.209 267.812 250.302 268.666 238.783 262.823C232.247 270.37 224.573 277.588 225.322 288.357C226.984 312.251 251.996 325.653 272.863 312.964C283.324 304.252 288.999 291.68 286.799 278.078C281.899 276.118 285.285 278.144 281.684 272.126C280.016 269.338 277.766 267.046 275.418 264.829ZM258.937 347.057C263.764 349.998 268.509 353.63 272.863 357.235C273.355 357.506 273.924 358.001 274.477 357.884C277.396 352.291 282.269 344.655 284.32 339.115C280.051 338.565 275.804 337.974 271.582 337.129C267.286 340.334 263.134 343.725 258.937 347.057ZM227.183 339.115C230.331 344.498 234.551 353.145 238.019 357.885C238.744 357.916 239.116 357.577 239.738 357.235C243.745 353.676 248.37 349.759 252.998 347.057C250.508 345.113 242.146 337.284 239.738 337.129C235.604 338.116 231.327 338.226 227.183 339.115Z"/>
	<path fill="#3CBCFE" transform="matrix(0.195312 0 0 0.195312 0.00195312 -0.000244141)" d="M184.302 426.11L184.288 398.57C184.289 392.253 183.903 385.656 184.895 379.407C188.571 356.239 202.944 346.442 222.728 339.115C224.555 342.757 234.871 361.989 237.043 363.339C239.998 362.21 242.954 359.013 245.943 357.448L246.355 357.235C247.417 359.842 249.046 362.288 250.473 364.714C249.221 370.203 248.248 375.751 247.085 381.259L241.498 406.595C246.409 410.766 251.169 415.098 256.057 419.293C260.799 415.124 265.212 410.116 270.454 406.595L264.879 380.169C263.815 375.062 263.044 369.713 261.588 364.714C262.983 362.068 264.601 359.619 266.404 357.235C269.006 359.154 272.169 362.224 275.266 363.177C277.605 362.622 286.439 343.514 288.503 340.26L288.705 339.945C310.465 344.463 326.087 362.763 328.148 384.833C328.664 390.351 328.421 396.015 328.421 401.558L328.41 426.11L304.161 426.11L304.174 403.107C304.177 399.398 304.556 395.144 303.992 391.493C303.625 389.118 300.529 389.398 300.295 391.746C299.91 395.614 300.235 399.766 300.236 403.674L300.231 429.818C290.335 429.59 280.387 429.818 270.485 429.819L211.321 429.818C211.336 433.846 211.782 440.896 211.321 444.538L211.316 409.92C211.316 407.127 213.632 385.529 207.821 390.107C206.412 392.552 207.296 400.749 207.304 403.739L207.319 426.11L184.302 426.11Z"/>
	<path fill="#FEC46A" transform="matrix(0.195312 0 0 0.195312 0.00195312 -0.000244141)" d="M231.086 248.71C234.279 236.122 243.9 233.873 255.726 237.372C268.178 241.056 276.58 246.265 288.705 237.177C291.577 247.831 290.996 254.316 288.705 264.829C287.974 266.645 286.61 268.365 285.716 270.155C283.849 267.604 281.56 265.271 279.545 262.823C280.696 262.132 281.912 261.688 283.052 260.939C290.748 252.157 274.083 261.051 273.174 261.373C262.475 265.167 247.164 263.702 237.484 257.752C236.218 259.525 229.647 267.988 228.284 269.107C227.064 270.966 225.791 272.808 224.685 274.737C224.18 273.236 223.576 271.724 223.342 270.155C221.829 260.886 220.45 252.236 231.086 248.71Z"/>
	<path fill="#FD9EA7" transform="matrix(0.195312 0 0 0.195312 0.00195312 -0.000244141)" d="M256.057 349.69C258.416 350.698 261.591 353.648 263.713 355.249C261.031 357.6 259.168 360.303 257.447 363.408C259.647 374.822 262.717 394.454 266.404 404.746L265.87 405.121C262.341 407.574 259.444 410.893 256.057 413.563L255.714 413.715C254.635 413.568 247.704 406.103 246.355 404.746C246.95 400.534 248.05 396.274 248.907 392.097L254.873 363.408C252.824 360.71 250.821 357.976 248.81 355.249C251.129 353.249 253.518 351.402 256.057 349.69Z"/>
	<path fill="#FEC46A" transform="matrix(0.195312 0 0 0.195312 0.00195312 -0.000244141)" d="M241.498 319.133C250.345 321.177 254.413 322.59 263.713 321.037C265.781 320.436 267.836 319.824 269.877 319.133C270.348 323.099 269.893 329.412 269.877 333.625C264.974 336.735 260.812 340.788 256.057 344.056C251.663 340.959 246.067 335.834 241.498 333.625L241.498 319.133Z"/>
	<path fill="#4141A5" transform="matrix(0.195312 0 0 0.195312 0.00195312 -0.000244141)" d="M164.837 144.433C175.164 118.437 197.422 111.029 222.728 116.495L223.141 116.753C225.901 118.448 228.941 119.612 231.689 121.385C263.812 142.107 256.213 193.956 217.986 203.015C197.407 207.891 180.792 199.288 168.758 183.22C163.104 183.103 157.442 183.216 151.788 183.246C146.917 183.272 141.482 184.716 139.172 179.343L139.172 174.766L107.571 174.749C89.984 174.742 84.6058 171.619 84.604 191.82L84.6158 207.205C84.621 213.437 83.3518 258.583 85.6342 261.271C87.9783 264.03 101.595 262.803 105.447 262.823C105.197 256.05 104.663 237.901 105.723 231.77C106.702 226.104 113.904 226.758 118.155 226.839L181.498 226.843C189.869 226.844 201.567 226.101 209.609 226.775C216.239 227.33 214.254 237.491 214.26 241.942C214.27 249.611 217.253 260.759 208.391 261.699L208.406 279.375C208.408 295.619 208.107 293.964 193.836 293.97L155.75 293.978C147.803 293.977 141.202 296.258 138.27 287.873L118.155 287.873L101.292 287.886C71.234 287.876 60.1397 276.822 60.126 246.636L60.0768 184.709C60.0643 170.304 69.8702 156.837 83.8529 153.028C91.7033 150.89 101.368 151.74 109.522 151.74L139.172 151.751L139.172 148.149C142.533 142.394 158.154 144.568 165.144 144.265L164.837 144.433ZM203.414 257.752C205.678 257.712 207.931 257.694 210.195 257.752L210.214 239.764C210.218 236.775 210.364 233.719 210.195 230.738L122.565 230.725C118.817 230.715 114.947 230.507 111.213 230.738C110.464 231.15 109.961 231.403 109.662 232.262C109.155 233.713 107.279 261.479 111.645 262.578C113.896 263.144 137.735 262.861 138.144 262.523C139.648 261.277 139.457 258.73 141.703 257.966C143.821 257.246 157.877 257.746 161.002 257.749L203.414 257.752ZM138.27 274.737L104.844 274.742C87.2205 274.741 71.9675 275.885 71.7774 253.157L71.7663 191.279C71.7863 162.449 84.9932 163.431 107.11 163.423L139.172 163.43L139.172 155.45L106.412 155.441C100.377 155.438 92.9024 154.699 87.1042 156.046C60.8843 162.142 63.7883 185.496 63.7832 205.711L63.7973 249.128C63.8926 280.396 79.8344 284.085 106.942 284.087L138.27 284.076L138.27 274.737ZM142.871 179.343L151.505 179.343C154.729 179.356 158.027 179.514 161.242 179.343L167.021 179.343C160.604 164 163.719 162.098 163.403 148.59L163.39 148.149L157.479 148.149C152.656 148.126 147.678 147.852 142.871 148.149C142.643 158.53 142.874 168.957 142.871 179.343ZM157.479 150.802C159.272 154.594 158.293 160.252 159.543 164.694C158.194 168.067 159.384 172.45 160.291 175.813L159.952 175.922C158.464 174.532 158.154 173.313 157.799 171.334L157.479 171.104C156.787 168.545 153.371 167.925 151.505 166.159C153.077 164.268 156.405 163.095 157.113 160.668C156.555 158.685 149.624 159.377 152.962 155.401C155.819 153.692 158.186 156.762 157.479 150.802ZM152.884 279.05C153.138 278.115 153.484 277.202 153.802 276.286C164.498 269.703 150.535 272.969 153.315 267.31C154.992 266.081 158.124 265.117 160.194 264.829C163.402 266.23 160.398 273.69 162.178 275.61L162.533 275.529C164.205 271.999 161.131 265.807 163.39 262.823L163.39 261.699L142.302 261.699C142.296 265.402 141.672 287.945 143.171 289.508C146.191 290.626 150.573 290.052 153.802 290.025C153.439 280.706 154.918 287.868 157.47 282.702C158.813 279.985 154.546 279.599 152.884 279.05Z"/>
	<path fill="#A2D4F7" transform="matrix(0.195312 0 0 0.195312 0.00195312 -0.000244141)" d="M204.512 118.511Q205.511 118.443 206.513 118.424Q207.514 118.405 208.515 118.435Q209.516 118.466 210.515 118.545Q211.513 118.624 212.507 118.752Q213.5 118.88 214.486 119.056Q215.472 119.232 216.448 119.457Q217.424 119.681 218.388 119.953Q219.352 120.225 220.302 120.544Q221.251 120.862 222.184 121.227Q223.117 121.592 224.03 122.002Q224.944 122.412 225.837 122.866Q226.729 123.321 227.599 123.818Q228.468 124.316 229.312 124.855Q230.156 125.394 230.972 125.975Q231.789 126.555 232.576 127.174Q233.363 127.793 234.119 128.45Q234.875 129.108 235.598 129.801Q236.32 130.494 237.008 131.222Q237.696 131.95 238.348 132.711Q239 133.471 239.613 134.263Q240.227 135.055 240.801 135.875Q241.375 136.696 241.908 137.544Q242.441 138.392 242.932 139.265Q243.423 140.138 243.871 141.034Q244.319 141.93 244.722 142.846Q245.125 143.763 245.483 144.699Q245.841 145.634 246.153 146.586Q246.465 147.538 246.73 148.504Q246.995 149.47 247.212 150.447Q247.429 151.425 247.598 152.412Q247.767 153.399 247.888 154.394Q248.008 155.388 248.08 156.387Q248.152 157.386 248.175 158.387Q248.197 159.389 248.171 160.39Q248.145 161.391 248.07 162.39Q247.994 163.389 247.87 164.383Q247.746 165.376 247.574 166.363Q247.401 167.35 247.18 168.327Q246.96 169.304 246.692 170.269Q246.423 171.234 246.108 172.184Q245.793 173.135 245.432 174.069Q245.071 175.003 244.664 175.919Q244.258 176.834 243.807 177.729Q243.356 178.623 242.862 179.494Q242.368 180.365 241.832 181.211Q241.295 182.057 240.719 182.876Q240.142 183.695 239.525 184.484Q238.909 185.274 238.255 186.032Q237.601 186.791 236.91 187.516Q236.22 188.242 235.494 188.932Q234.769 189.623 234.011 190.278Q233.253 190.932 232.463 191.549Q231.674 192.165 230.856 192.743Q230.037 193.32 229.191 193.856Q228.345 194.393 227.474 194.887Q226.603 195.382 225.709 195.833Q224.815 196.284 223.9 196.691Q222.984 197.098 222.05 197.459Q221.116 197.821 220.166 198.136Q219.215 198.452 218.25 198.72Q217.285 198.989 216.308 199.21Q215.331 199.431 214.345 199.604Q213.358 199.777 212.365 199.901Q211.371 200.025 210.372 200.101Q209.368 200.177 208.362 200.203Q207.356 200.23 206.35 200.207Q205.344 200.184 204.34 200.111Q203.336 200.039 202.337 199.917Q201.338 199.795 200.346 199.625Q199.354 199.454 198.371 199.234Q197.389 199.015 196.419 198.748Q195.448 198.48 194.492 198.165Q193.536 197.851 192.597 197.489Q191.658 197.128 190.737 196.72Q189.817 196.313 188.917 195.861Q188.018 195.409 187.142 194.913Q186.266 194.418 185.416 193.88Q184.565 193.341 183.742 192.762Q182.919 192.183 182.126 191.564Q181.332 190.944 180.57 190.287Q179.808 189.63 179.079 188.935Q178.35 188.241 177.656 187.512Q176.962 186.783 176.305 186.021Q175.648 185.258 175.029 184.464Q174.41 183.671 173.831 182.847Q173.252 182.024 172.714 181.173Q172.177 180.323 171.681 179.446Q171.186 178.57 170.734 177.671Q170.283 176.771 169.876 175.851Q169.469 174.93 169.108 173.991Q168.747 173.051 168.432 172.095Q168.118 171.139 167.851 170.168Q167.584 169.198 167.365 168.216Q167.146 167.233 166.975 166.241Q166.805 165.249 166.683 164.25Q166.562 163.251 166.49 162.247Q166.418 161.243 166.395 160.237Q166.373 159.231 166.4 158.224Q166.426 157.218 166.503 156.215Q166.579 155.211 166.705 154.212Q166.83 153.214 167.005 152.223Q167.18 151.231 167.403 150.25Q167.626 149.268 167.897 148.299Q168.168 147.33 168.487 146.375Q168.805 145.42 169.17 144.482Q169.535 143.544 169.946 142.626Q170.357 141.707 170.812 140.809Q171.268 139.912 171.767 139.038Q172.266 138.163 172.807 137.315Q173.349 136.467 173.931 135.646Q174.514 134.825 175.136 134.034Q175.758 133.243 176.418 132.483Q177.079 131.723 177.776 130.997Q178.473 130.271 179.204 129.58Q179.936 128.889 180.701 128.235Q181.466 127.581 182.262 126.965Q183.058 126.349 183.884 125.773Q184.709 125.197 185.562 124.663Q186.415 124.128 187.293 123.636Q188.171 123.144 189.072 122.696Q189.973 122.248 190.895 121.844Q191.818 121.441 192.758 121.084Q193.699 120.726 194.657 120.415Q195.614 120.105 196.585 119.841Q197.557 119.578 198.54 119.363Q199.523 119.148 200.516 118.981Q201.509 118.814 202.508 118.697Q203.508 118.579 204.512 118.511Z"/>
	<path fill="#4141A5" transform="matrix(0.195312 0 0 0.195312 0.00195312 -0.000244141)" d="M207.319 126.56C212.238 126.33 213.919 129.146 215.429 133.489C221.254 133.432 231.608 135.772 226.215 143.692C222.016 149.858 200.845 143.231 203.256 149.023C204.593 152.233 209.652 151.809 212.413 152.162C229.567 154.358 236.905 175.992 215.429 184.809C214.647 188.888 212.937 192.082 208.391 192.37C203.715 191.971 202.089 189.201 201.247 184.809C198.296 184.607 194.026 184.325 191.573 182.533C188.92 180.593 187.489 175.711 189.863 173.029C194.479 167.817 216.032 174.879 214.396 168.512C213.268 164.117 206.729 164.901 203.325 164.41C186.937 162.045 180.985 138.634 201.247 133.489C201.92 129.519 203.17 127.554 207.319 126.56Z"/>
	<path fill="#FEC46A" transform="matrix(0.195312 0 0 0.195312 0.00195312 -0.000244141)" d="M207.319 130.188C211.562 130.584 211.759 133.682 211.321 137.24C212.381 137.309 227.571 136.113 222.819 141.689C219.58 145.489 197.319 137.684 199.957 149.633C201.845 158.189 212.46 154.213 218.487 158.232C229.725 165.726 225.385 179.239 211.321 181.491C211.746 185.105 211.821 188.6 207.319 188.499C204.773 186.703 205.397 184.234 205.765 181.491C205.197 181.436 188.795 180.415 192.404 176.262C196.867 171.127 220.156 180.661 218.289 167.878C216.903 158.393 203.507 162.68 197.593 158.098C187.609 150.363 191.493 138.764 205.765 137.24C204.971 134.501 204.744 131.961 207.319 130.188Z"/>
	<path fill="#4141A5" transform="matrix(0.195312 0 0 0.195312 0.00195312 -0.000244141)" d="M122.149 235.966C130.029 235.377 125.79 253.558 125.352 254.254C124.761 254.326 122.75 254.518 122.51 253.769C122.133 252.592 121.696 236.922 122.149 235.966Z"/>
	<path fill="#4141A5" transform="matrix(0.195312 0 0 0.195312 0.00195312 -0.000244141)" d="M141.154 235.966C141.875 235.942 143.093 235.767 143.548 236.518C144.151 237.514 145.374 250.889 142.302 253.013C137.705 252.917 139.292 238.13 141.154 235.966Z"/>
	<path fill="#4141A5" transform="matrix(0.195312 0 0 0.195312 0.00195312 -0.000244141)" d="M190.112 235.966C191.051 236.127 191.597 236.236 192.312 236.898C193.055 238.343 194.3 251.134 191.055 253.013C186.897 252.717 188.34 237.757 190.112 235.966Z"/>
	<path fill="#4141A5" transform="matrix(0.195312 0 0 0.195312 0.00195312 -0.000244141)" d="M172.508 235.966C177.412 235.649 175.781 250.969 174.05 253.013C169.389 253.283 170.503 238.048 172.508 235.966Z"/>
	<path fill="#FEC46A" transform="matrix(0.195312 0 0 0.195312 0.00195312 -0.000244141)" d="M139.172 163.43L139.172 171.104L107.561 171.097C87.6998 171.102 80.7787 169.66 80.7604 191.022L80.7616 255.643C80.8327 270.339 93.8117 266.673 104.108 266.666L138.27 266.661C138.294 269.351 138.36 272.048 138.27 274.737L104.844 274.742C87.2205 274.741 71.9675 275.885 71.7774 253.157L71.7663 191.279C71.7863 162.449 84.9932 163.431 107.11 163.423L139.172 163.43Z"/>
	<path fill="#A2D4F7" transform="matrix(0.195312 0 0 0.195312 0.00195312 -0.000244141)" d="M163.39 261.699L204.244 261.699L204.244 281.979C204.416 293.615 202.816 290.024 189.182 290.029L163.39 290.025L163.39 287.873C163.228 279.543 163.417 271.16 163.39 262.823L163.39 261.699Z"/>
	<path fill="#89B0FA" transform="matrix(0.195312 0 0 0.195312 0.00195312 -0.000244141)" d="M204.244 281.979C204.416 293.615 202.816 290.024 189.182 290.029L163.39 290.025L163.39 287.873C163.821 285.994 163.54 283.879 163.39 281.979L204.244 281.979Z"/>
	<path fill="#CACEF8" transform="matrix(0.195312 0 0 0.195312 0.00195312 -0.000244141)" d="M160.194 264.829C163.402 266.23 160.398 273.69 162.178 275.61L162.533 275.529C164.205 271.999 161.131 265.807 163.39 262.823C163.417 271.16 163.228 279.543 163.39 287.873L163.39 290.025L161.242 290.025C158.763 290.098 156.281 290.049 153.802 290.025C153.439 280.706 154.918 287.868 157.47 282.702C158.813 279.985 154.546 279.599 152.884 279.05C153.138 278.115 153.484 277.202 153.802 276.286C164.498 269.703 150.535 272.969 153.315 267.31C154.992 266.081 158.124 265.117 160.194 264.829Z"/>
	<path fill="#DFEBF6" transform="matrix(0.195312 0 0 0.195312 0.00195312 -0.000244141)" d="M160.194 264.829C163.402 266.23 160.398 273.69 162.178 275.61L162.533 275.529C164.205 271.999 161.131 265.807 163.39 262.823C163.417 271.16 163.228 279.543 163.39 287.873L163.39 290.025L161.242 290.025C161.13 285.394 162.323 268.121 160.194 264.829Z"/>
	<path fill="#CACEF8" transform="matrix(0.195312 0 0 0.195312 0.00195312 -0.000244141)" d="M157.479 150.802C159.272 154.594 158.293 160.252 159.543 164.694C158.194 168.067 159.384 172.45 160.291 175.813L159.952 175.922C158.464 174.532 158.154 173.313 157.799 171.334L157.479 171.104C156.787 168.545 153.371 167.925 151.505 166.159C153.077 164.268 156.405 163.095 157.113 160.668C156.555 158.685 149.624 159.377 152.962 155.401C155.819 153.692 158.186 156.762 157.479 150.802Z"/>
	<path fill="#4141A5" transform="matrix(0.195312 0 0 0.195312 0.00195312 -0.000244141)" d="M220.175 446.066C224.273 445.895 228.441 446.055 232.547 446.057L277.019 446.064C278.202 446.062 294.752 444.673 288.705 449.849C285.69 450.09 282.525 449.882 279.492 449.868L236.277 449.853C234.539 449.853 214.469 451.674 220.175 446.066Z"/>
	<path fill="#4141A5" transform="matrix(0.195312 0 0 0.195312 0.00195312 -0.000244141)" d="M371.772 397.011C382.463 398.615 354.378 412.451 352.111 413.563C350.528 413.823 349.568 412.795 349.697 411.184C349.779 410.146 368.686 398.937 371.772 397.011Z"/>
	<path fill="#4141A5" transform="matrix(0.195312 0 0 0.195312 0.00195312 -0.000244141)" d="M119.348 118.352C122.252 118.28 122.031 120.121 120.525 122.05C116.872 126.728 109.422 136.363 105.447 140.387C96.4375 139.1 117.57 119.544 119.348 118.352Z"/>
	<path fill="#4141A5" transform="matrix(0.195312 0 0 0.195312 0.00195312 -0.000244141)" d="M183.441 74.2656C184.92 74.2003 186.136 75.2948 185.646 76.8725C185.295 78.0013 167.048 86.6511 164.837 87.7907C163.314 88.0539 162.17 87.4157 162.162 85.8162C164.014 82.0153 179.424 75.6899 183.441 74.2656Z"/>
	<path fill="#4141A5" transform="matrix(0.195312 0 0 0.195312 0.00195312 -0.000244141)" d="M424.788 337.129C432.947 338.24 414.835 359.533 413.963 360.083C407.43 359.766 416.815 349.77 418.026 347.873C420.236 344.411 422.103 340.19 424.788 337.129Z"/>
	<path fill="#4141A5" transform="matrix(0.195312 0 0 0.195312 0.00195312 -0.000244141)" d="M276.364 60.7449C278.732 60.6727 304.806 62.8841 300.231 68.8038C297.855 68.7409 277.828 65.1077 275.812 64.2572C274.905 62.9453 275.357 61.8897 276.364 60.7449Z"/>
	<path fill="#4141A5" transform="matrix(0.195312 0 0 0.195312 0.00195312 -0.000244141)" d="M244.564 59.7644C247.28 59.692 259.874 59.2128 261.279 59.9314C262.148 60.376 263.288 61.6656 262.484 62.6422C261.345 64.0262 254.914 63.5576 252.998 63.659C249.123 63.4281 233.437 66.6434 235.644 61.2903C237.456 59.7342 242.197 59.966 244.564 59.7644Z"/>
	<path fill="#4141A5" transform="matrix(0.195312 0 0 0.195312 0.00195312 -0.000244141)" d="M218.684 63.659C220.058 63.1073 222.173 62.8006 222.735 64.5115C222.21 67.6388 204.949 70.8036 201.247 71.781L200.978 71.8842C200.047 72.2339 199.374 72.5707 198.43 72.0983C191.41 68.5874 214.953 64.0213 218.684 63.659Z"/>
	<path fill="#4141A5" transform="matrix(0.195312 0 0 0.195312 0.00195312 -0.000244141)" d="M76.0014 305.223C79.1575 306.152 79.3211 310.367 80.2939 313.1C81.723 317.117 87.9556 327.518 84.6194 329.946C81.7052 329.804 71.6256 308.567 76.0014 305.223Z"/>
	<path fill="#4141A5" transform="matrix(0.195312 0 0 0.195312 0.00195312 -0.000244141)" d="M149.858 92.9218C155.966 95.2059 144.185 101.395 142.09 103.039C138.962 105.495 136.002 108.521 132.645 110.619C124.321 109.333 146.738 94.3561 149.858 92.9218Z"/>
	<path fill="#4141A5" transform="matrix(0.195312 0 0 0.195312 0.00195312 -0.000244141)" d="M439.929 300.39C446.924 301.973 435.045 323.68 433.705 324.881C428.475 323.886 434.318 315.281 435.775 311.298C436.99 307.976 437.521 303.041 439.929 300.39Z"/>
	<path fill="#4141A5" transform="matrix(0.195312 0 0 0.195312 0.00195312 -0.000244141)" d="M444.172 221.198C444.788 221.213 445.885 221.196 446.319 221.723C447.311 222.929 451.114 244.017 448.138 246.635C444.406 246.872 445.246 238.893 444.823 235.652C444.376 232.23 441.681 223.794 444.172 221.198Z"/>
	<path fill="#4141A5" transform="matrix(0.195312 0 0 0.195312 0.00195312 -0.000244141)" d="M446.818 260.939C452.853 261.454 446.871 285.758 446.328 286.444C440.785 285.928 444.348 278.086 444.89 273.101C445.283 269.475 444.347 263.818 446.818 260.939Z"/>
	<path fill="#4141A5" transform="matrix(0.195312 0 0 0.195312 0.00195312 -0.000244141)" d="M401.112 370.939C410.861 371.998 389.225 388.49 387.859 389.215C381.954 387.776 389.541 382.847 391.312 381.149C394.73 377.871 397.752 374.228 401.112 370.939Z"/>
	<path fill="#4141A5" transform="matrix(0.195312 0 0 0.195312 0.00195312 -0.000244141)" d="M91.7931 341.48C95.242 342.147 97.4331 348.716 99.1153 351.426C101.649 355.508 106.986 359.839 103.213 363.408C100.817 361.508 86.5527 344.298 91.7931 341.48Z"/>
	<path fill="#4141A5" transform="matrix(0.195312 0 0 0.195312 0.00195312 -0.000244141)" d="M142.302 398.986C145.24 399.483 148.202 402.899 150.62 404.566C154.296 407.099 163.801 410.592 159.543 414.665C158.5 414.468 136.625 402.91 142.302 398.986Z"/>
	<path fill="#4141A5" transform="matrix(0.195312 0 0 0.195312 0.00195312 -0.000244141)" d="M113.268 372.516C116.18 372.678 129.592 387.635 129.807 388.23C130.194 389.303 129.326 390.131 128.647 390.825C127.256 390.656 109.744 377.324 113.268 372.516Z"/>
</svg>
