<?xml version="1.0" encoding="utf-8" ?>
<svg xmlns="http://www.w3.org/2000/svg" xmlns:xlink="http://www.w3.org/1999/xlink" width="100" height="100">
	<path fill="#ADE5F9" transform="matrix(0.195312 0 0 0.195312 0.00195312 -0.000244141)" d="M228.262 161.135C220.472 151.853 233.589 151.912 239.411 151.937L252.536 151.919C264.243 151.874 263.975 149.016 272.207 157.373L279.262 164.398C281.538 166.647 299.195 181.488 294.471 183.517L294.471 184.213C294.199 186.758 294.449 189.441 294.462 192.004L294.462 225.987C294.46 229.197 294.241 232.562 294.471 235.755C294.488 238.516 293.937 246.02 294.471 248.005L294.471 248.005C302.163 247.993 309.917 248.255 317.6 248.005C316.857 248.303 315.88 248.085 315.09 248.005L315.09 254.357L315.09 263.715C320.147 263.68 328.967 261.492 329.81 267.025C332.756 286.355 327.055 281.091 315.09 282.1C315.022 285.404 315.163 288.712 315.09 292.01C329.27 292.462 329.79 288.434 329.779 303.835L329.752 318.19C329.745 321.153 329.247 323.867 326.041 324.705C325.948 327.771 325.661 331.031 326.041 334.079C326.081 336.679 326.06 339.278 326.041 341.878L311.382 341.835C309.051 341.826 306.51 341.616 304.199 341.878C304.047 345.923 304.186 349.999 304.192 354.048L304.208 377.217C304.21 402.542 303.753 407.571 274.815 407.491L135.332 407.475C128.086 407.482 118.546 408.052 111.599 407.21C94.6571 405.155 97.4828 386.105 97.4842 373.889L97.4796 177.198C97.4804 155.312 100.266 152.792 122.455 152.911C122.503 155.832 122.458 158.762 122.455 161.685C124.649 161.647 145.73 161.815 146.621 161.339Q147.321 161.767 148.036 162.171Q148.752 162.574 149.48 162.952Q150.209 163.331 150.95 163.683Q151.692 164.035 152.445 164.362Q153.199 164.688 153.963 164.988Q154.727 165.287 155.502 165.56Q156.276 165.833 157.06 166.078Q157.843 166.324 158.635 166.542Q159.426 166.759 160.225 166.949Q161.024 167.139 161.829 167.301Q162.633 167.463 163.443 167.597Q164.254 167.731 165.068 167.836Q165.882 167.941 166.699 168.018Q167.517 168.094 168.336 168.142Q169.156 168.19 169.977 168.21Q170.798 168.229 171.619 168.219Q172.439 168.21 173.26 168.172Q174.08 168.133 174.898 168.066Q175.716 167.999 176.532 167.904Q177.347 167.808 178.159 167.684Q178.97 167.56 179.777 167.408Q180.584 167.255 181.385 167.075Q182.186 166.894 182.98 166.686Q183.774 166.478 184.56 166.241Q185.346 166.005 186.124 165.742Q186.901 165.478 187.669 165.188Q188.437 164.897 189.194 164.58Q189.952 164.262 190.697 163.919Q191.443 163.575 192.176 163.206Q192.909 162.836 193.629 162.441Q194.349 162.046 195.054 161.626Q195.76 161.206 196.45 160.762C205.535 161.897 218.116 160.823 228.262 161.135Z"/>
	<path fill="#436491" transform="matrix(0.195312 0 0 0.195312 0.00195312 -0.000244141)" d="M304.199 341.878C304.047 345.923 304.186 349.999 304.192 354.048L304.208 377.217C304.21 402.542 303.753 407.571 274.815 407.491L135.332 407.475C128.086 407.482 118.546 408.052 111.599 407.21C94.6571 405.155 97.4828 386.105 97.4842 373.889L97.4796 177.198C97.4804 155.312 100.266 152.792 122.455 152.911C122.503 155.832 122.458 158.762 122.455 161.685C105.687 161.565 106.708 161.546 106.718 176.908L106.737 385.895C106.833 399.118 110.784 398.034 122.655 398.032L274.886 398.012C295.897 398.028 294.488 398.306 294.471 377.827L294.471 341.878C297.403 341.898 301.403 342.358 304.199 341.878Z"/>
	<path fill="#D6E5F8" transform="matrix(0.195312 0 0 0.195312 0.00195312 -0.000244141)" d="M294.471 248.005C302.163 247.993 309.917 248.255 317.6 248.005C316.857 248.303 315.88 248.085 315.09 248.005L315.09 254.357L315.09 263.715C320.147 263.68 328.967 261.492 329.81 267.025C332.756 286.355 327.055 281.091 315.09 282.1C315.022 285.404 315.163 288.712 315.09 292.01C329.27 292.462 329.79 288.434 329.779 303.835L329.752 318.19C329.745 321.153 329.247 323.867 326.041 324.705C325.948 327.771 325.661 331.031 326.041 334.079C326.081 336.679 326.06 339.278 326.041 341.878L311.382 341.835C309.051 341.826 306.51 341.616 304.199 341.878C301.403 342.358 297.403 341.898 294.471 341.878C293.94 340.117 294.424 336.068 294.471 334.079L294.47 267.039C294.469 264.243 294.062 249.523 294.471 248.005Z"/>
	<path fill="#FA988E" transform="matrix(0.195312 0 0 0.195312 0.00195312 -0.000244141)" d="M315.09 292.01C329.27 292.462 329.79 288.434 329.779 303.835L329.752 318.19C326.708 318.027 319.619 318.885 317.312 317.126C312.769 313.664 316.348 298.085 315.09 292.01L315.09 292.01Z"/>
	<path fill="#F14C4A" transform="matrix(0.195312 0 0 0.195312 0.00195312 -0.000244141)" d="M326.041 324.705C320.757 324.622 309.163 327.09 307.774 321.205C307.106 318.376 306.367 295.237 308.498 292.828C309.657 291.518 313.439 291.975 315.09 292.01C316.348 298.085 312.769 313.664 317.312 317.126C319.619 318.885 326.708 318.027 329.752 318.19C329.745 321.153 329.247 323.867 326.041 324.705Z"/>
	<path fill="#ADE5F9" transform="matrix(0.195312 0 0 0.195312 0.00195312 -0.000244141)" d="M308.808 264.368C310.903 263.995 312.991 263.982 315.09 263.715C314.986 269.844 315.05 275.971 315.09 282.1C309.338 282.533 308.719 280.384 308.808 275.16C308.907 271.563 308.701 267.962 308.808 264.368Z"/>
	<path fill="#436491" transform="matrix(0.195312 0 0 0.195312 0.00195312 -0.000244141)" d="M228.262 161.135C220.472 151.853 233.589 151.912 239.411 151.937L252.536 151.919C264.243 151.874 263.975 149.016 272.207 157.373L279.262 164.398C281.538 166.647 299.195 181.488 294.471 183.517C288.949 182.676 280.273 183.967 273.959 183.465C260.421 182.389 269.692 168.088 264.859 162.789C262.013 159.668 233.774 161.366 228.262 161.135Z"/>
	<path fill="#299DFB" transform="matrix(0.195312 0 0 0.195312 0.00195312 -0.000244141)" d="M132.379 327.932L153.066 327.904C159.922 327.902 170.101 326.024 171.515 335.405C172.064 339.051 172.06 362.63 171.308 365.865C170.582 368.988 167.97 370.966 165.367 372.515C157.515 373.156 141.604 372.995 133.847 372.437C130.377 372.188 127.648 371.055 126.502 367.407C125.551 364.378 125.785 339.435 126.18 335.258C126.526 331.591 128.714 328.874 132.379 327.932Z"/>
	<path fill="#F6F7F9" transform="matrix(0.195312 0 0 0.195312 0.00195312 -0.000244141)" d="M156.847 340.461C171.388 343.471 148.124 358.957 144.541 362.215C143.498 361.175 142.449 360.158 141.35 359.177C139.825 357.85 135.791 355.068 135.926 352.823C136.147 349.145 141.409 345.622 145.34 350.094C148.714 346.929 152.604 342.397 156.847 340.461Z"/>
	<path fill="#299DFB" transform="matrix(0.195312 0 0 0.195312 0.00195312 -0.000244141)" d="M133.688 195.551L153.108 195.525C159.299 195.522 170.384 193.604 171.571 202.234C172.335 207.794 172.075 228.262 171.246 233.035C170.554 237.029 167.751 239.064 163.815 239.571L143.478 239.589C121.688 239.599 125.999 234.797 125.984 215.409C125.979 208.231 123.515 196.58 133.688 195.551Z"/>
	<path fill="#F6F7F9" transform="matrix(0.195312 0 0 0.195312 0.00195312 -0.000244141)" d="M155.62 208.03C159.602 207.914 160.356 209.922 161.302 213.48C157.58 216.935 147.902 226.935 144.541 228.778C143.721 228.258 143.007 227.623 142.273 226.992C140.034 224.791 132.242 218.597 138.137 215.834C140.64 214.661 142.894 215.301 145.34 216.157C148.666 213.661 151.592 209.241 155.62 208.03Z"/>
	<path fill="#299DFB" transform="matrix(0.195312 0 0 0.195312 0.00195312 -0.000244141)" d="M134.49 261.562L154.237 261.551C175.971 261.542 171.717 266.525 171.711 286.024C171.709 293.715 173.929 304.191 163.178 304.905C157.915 305.147 152.541 304.913 147.264 304.913C140.906 304.913 126.97 307.429 126.163 298.114C125.669 292.413 125.993 286.446 125.993 280.719C125.993 272.725 123.363 262.251 134.49 261.562Z"/>
	<path fill="#F6F7F9" transform="matrix(0.195312 0 0 0.195312 0.00195312 -0.000244141)" d="M156.847 275.16C158.938 275.452 161.646 277.061 161.667 279.447C161.692 282.338 148.217 293.003 145.34 295.906C144.219 295.138 143.239 294.392 142.273 293.428C128.348 281.326 142.326 281.339 145.34 284.035C148.756 280.797 152.341 276.79 156.847 275.16Z"/>
	<path fill="#7DCBFB" transform="matrix(0.195312 0 0 0.195312 0.00195312 -0.000244141)" d="M198.612 224.316C201.45 224.049 204.484 224.305 207.346 224.307L255.377 224.312C259.739 224.312 276.258 222.104 273.516 231.251C272.839 233.511 271.229 234.654 269.281 235.755C264.729 235.901 260.131 235.763 255.573 235.758L210.498 235.767C207.61 235.783 198.304 236.764 195.948 235.15C193.594 233.536 191.546 225.486 198.612 224.316Z"/>
	<path fill="#7DCBFB" transform="matrix(0.195312 0 0 0.195312 0.00195312 -0.000244141)" d="M199.416 202.139C202.639 201.88 206.046 202.106 209.287 202.12L252.842 202.163C257.482 202.162 262.153 201.959 266.788 202.165C274.716 202.516 276.215 211.545 269.281 213.48C263.139 213.204 256.889 213.469 250.732 213.472L213.798 213.477C208.544 213.475 195.264 215.541 194.308 209.752C193.335 203.865 194.405 202.41 199.416 202.139Z"/>
	<path fill="#7DCBFB" transform="matrix(0.195312 0 0 0.195312 0.00195312 -0.000244141)" d="M196.464 268.231C200.245 267.994 204.142 268.222 207.939 268.224L254.654 268.228C258.399 268.227 268.485 267.123 271.521 269.478C275.005 272.181 273.303 276.691 270.944 279.505C268.541 279.895 265.83 279.548 263.384 279.522L216.264 279.505C213.146 279.506 197.127 280.583 195.213 278.426C192.932 275.856 194.014 270.323 196.464 268.231Z"/>
	<path fill="#7DCBFB" transform="matrix(0.195312 0 0 0.195312 0.00195312 -0.000244141)" d="M197.55 290.909C199.628 290.616 202.037 290.895 204.153 290.9L250.281 290.897C254.706 290.898 269.89 289.5 272.889 292.895C275.495 295.846 273.468 299.764 270.944 301.978C268.845 302.227 266.396 301.966 264.258 301.97L248.2 301.977C232.042 301.981 215.851 302.218 199.698 301.962C190.559 301.817 192.971 291.073 197.55 290.909Z"/>
	<path fill="#7DCBFB" transform="matrix(0.195312 0 0 0.195312 0.00195312 -0.000244141)" d="M198.612 357.269C201.863 357.06 205.245 357.258 208.511 357.259L257.34 357.264C264.211 357.262 270.472 354.928 273.994 361.094C274.167 364.387 273.354 366.906 270.093 368.271C266.528 368.464 262.872 368.284 259.298 368.282L212.131 368.248C209.197 368.247 198.359 369.126 196.086 367.64C194.068 366.32 191.401 357.746 198.612 357.269Z"/>
	<path fill="#7DCBFB" transform="matrix(0.195312 0 0 0.195312 0.00195312 -0.000244141)" d="M197.55 335.283L245.302 335.285C253.5 335.284 262.864 334.853 270.944 335.283C275.285 338.517 274.993 342.974 270.944 346.25C262.252 345.997 198.245 346.938 196.021 345.864C193.72 344.753 192.105 336.264 197.55 335.283Z"/>
	<path fill="#51719A" transform="matrix(0.195312 0 0 0.195312 0.00195312 -0.000244141)" d="M315.09 184.213L388.486 184.181C391.784 184.167 395.304 183.888 398.554 184.49C418.614 188.203 415.206 208.956 415.231 223.669L415.266 239.841C415.273 242.495 415.628 245.382 415.239 248.005C404.568 248.366 393.771 248.004 383.086 248.004L317.6 248.005C309.917 248.255 302.163 247.993 294.471 248.005L294.471 248.005C293.937 246.02 294.488 238.516 294.471 235.755C294.241 232.562 294.46 229.197 294.462 225.987L294.462 192.004C294.449 189.441 294.199 186.758 294.471 184.213L315.09 184.213ZM398.667 216.157C401.787 214.373 401.379 204.26 400.055 201.937C399.043 200.161 395.838 200.729 394.169 200.83C393.074 201.474 386.763 218.303 398.667 216.157ZM382.91 216.157C389.266 215.499 387.969 209.743 387.129 203.435C386.845 201.305 384.68 200.946 382.91 200.83C381.371 201.071 380.105 201.2 378.952 202.357C377.954 207.769 376.449 216.045 382.91 216.157ZM370.621 216.157C375.182 214.583 373.694 203.589 372.821 201.966C371.499 200.857 369.945 200.804 368.28 200.83C363.089 202.473 364.406 211.269 365.573 215.412C366.83 216.306 369.11 216.164 370.621 216.157Z"/>
	<path fill="#436491" transform="matrix(0.195312 0 0 0.195312 0.00195312 -0.000244141)" d="M294.471 184.213L315.09 184.213L315.09 235.755L400.726 235.735C405.576 235.682 410.39 235.479 415.239 235.755C415.209 239.676 414.558 244.183 415.239 248.005C404.568 248.366 393.771 248.004 383.086 248.004L317.6 248.005C309.917 248.255 302.163 247.993 294.471 248.005L294.471 248.005C293.937 246.02 294.488 238.516 294.471 235.755C294.241 232.562 294.46 229.197 294.462 225.987L294.462 192.004C294.449 189.441 294.199 186.758 294.471 184.213Z"/>
	<path fill="#334868" transform="matrix(0.195312 0 0 0.195312 0.00195312 -0.000244141)" d="M294.471 235.755L315.09 235.755C315.083 239.832 314.982 243.93 315.09 248.005L301.121 247.977C298.983 247.969 296.58 247.714 294.471 248.005C293.937 246.02 294.488 238.516 294.471 235.755Z"/>
	<path fill="#4AD6DF" transform="matrix(0.195312 0 0 0.195312 0.00195312 -0.000244141)" d="M146.621 161.339Q145.814 160.846 145.028 160.32Q144.242 159.795 143.478 159.238Q142.713 158.682 141.972 158.095Q141.231 157.508 140.514 156.891Q139.797 156.275 139.105 155.63Q138.414 154.985 137.749 154.313Q137.084 153.641 136.446 152.943Q135.809 152.244 135.2 151.521Q134.591 150.797 134.012 150.05Q133.433 149.302 132.885 148.532Q132.337 147.762 131.82 146.97Q131.303 146.178 130.818 145.366Q130.334 144.554 129.882 143.723Q129.431 142.892 129.013 142.044Q128.596 141.196 128.213 140.331Q127.83 139.467 127.482 138.588Q127.134 137.708 126.822 136.816Q126.51 135.923 126.234 135.019Q125.958 134.114 125.719 133.2Q125.48 132.285 125.278 131.361Q125.075 130.437 124.911 129.506Q124.746 128.575 124.619 127.638Q124.492 126.701 124.403 125.76Q124.314 124.819 124.263 123.875Q124.212 122.93 124.199 121.985Q124.186 121.039 124.211 120.094Q124.236 119.149 124.299 118.206Q124.362 117.262 124.464 116.322Q124.565 115.382 124.704 114.447Q124.843 113.511 125.02 112.583Q125.196 111.654 125.41 110.733Q125.624 109.812 125.875 108.9Q126.126 107.988 126.413 107.088Q126.701 106.187 127.024 105.298Q127.348 104.41 127.707 103.535Q128.066 102.66 128.46 101.801Q128.854 100.941 129.283 100.098Q129.711 99.2556 130.173 98.4306Q130.635 97.6056 131.13 96.8Q131.625 95.9943 132.152 95.2093Q132.679 94.4242 133.238 93.6611Q133.796 92.8979 134.385 92.1579Q134.973 91.4179 135.591 90.7022Q136.209 89.9865 136.855 89.2963Q137.502 88.6061 138.175 87.9426Q138.849 87.279 139.549 86.6431Q140.248 86.0072 140.973 85.4001Q141.698 84.793 142.447 84.2156Q143.196 83.6382 143.967 83.0914Q144.739 82.5446 145.532 82.0294Q146.324 81.5142 147.137 81.0314Q147.95 80.5486 148.782 80.099Q149.614 79.6493 150.463 79.2336Q151.312 78.8179 152.178 78.4367Q153.043 78.0556 153.923 77.7096Q154.803 77.3637 155.696 77.0535Q156.59 76.7433 157.495 76.4694Q158.4 76.1954 159.315 75.9582Q160.23 75.721 161.154 75.5209Q162.078 75.3208 163.01 75.1581Q163.941 74.9955 164.879 74.8705Q165.816 74.7455 166.757 74.6584Q167.699 74.5713 168.643 74.5222Q169.587 74.4731 170.533 74.4622Q171.478 74.4512 172.424 74.4784Q173.369 74.5056 174.312 74.5708Q175.255 74.6361 176.195 74.7393Q177.135 74.8426 178.07 74.9836Q179.005 75.1247 179.934 75.3033Q180.862 75.4819 181.783 75.6979Q182.703 75.9138 183.614 76.1667Q184.526 76.4196 185.426 76.709Q186.326 76.9984 187.214 77.3239Q188.101 77.6493 188.975 78.0103Q189.849 78.3713 190.708 78.7673Q191.567 79.1632 192.409 79.5935Q193.251 80.0237 194.075 80.4876Q194.899 80.9514 195.703 81.4481Q196.508 81.9448 197.292 82.4735Q198.076 83.0023 198.837 83.5622Q199.599 84.1221 200.338 84.7122Q201.077 85.3024 201.791 85.9219Q202.506 86.5414 203.194 87.1892Q203.883 87.837 204.545 88.512Q205.207 89.187 205.842 89.8882Q206.476 90.5894 207.082 91.3156Q207.687 92.0418 208.263 92.7918Q208.839 93.5418 209.384 94.3144Q209.929 95.087 210.443 95.881Q210.956 96.675 211.437 97.489Q211.918 98.303 212.366 99.1358Q212.814 99.9686 213.228 100.819Q213.642 101.669 214.021 102.535Q214.4 103.401 214.744 104.282Q215.088 105.163 215.397 106.057Q215.705 106.95 215.977 107.856Q216.249 108.762 216.484 109.677Q216.719 110.593 216.918 111.518Q217.116 112.442 217.276 113.374Q217.437 114.306 217.56 115.244Q217.683 116.181 217.768 117.123Q217.853 118.065 217.9 119.009Q217.947 119.953 217.956 120.899Q217.965 121.844 217.936 122.789Q217.906 123.735 217.839 124.678Q217.772 125.621 217.667 126.561Q217.561 127.5 217.418 128.435Q217.275 129.37 217.094 130.298Q216.914 131.226 216.696 132.146Q216.478 133.066 216.223 133.977Q215.968 134.887 215.677 135.787Q215.385 136.686 215.058 137.573Q214.731 138.46 214.368 139.334Q214.005 140.207 213.607 141.065Q213.209 141.922 212.777 142.763Q212.345 143.604 211.879 144.427Q211.414 145.25 210.915 146.054Q210.417 146.857 209.886 147.64Q209.356 148.423 208.794 149.184Q208.233 149.944 207.641 150.682Q207.049 151.419 206.428 152.132Q205.807 152.845 205.158 153.533Q204.508 154.22 203.832 154.881Q203.155 155.541 202.453 156.174Q201.75 156.807 201.023 157.411Q200.295 158.015 199.544 158.589Q198.793 159.163 198.019 159.707Q197.245 160.25 196.45 160.762Q195.76 161.206 195.054 161.626Q194.349 162.046 193.629 162.441Q192.909 162.836 192.176 163.206Q191.443 163.575 190.697 163.919Q189.952 164.262 189.194 164.58Q188.437 164.897 187.669 165.188Q186.901 165.478 186.124 165.742Q185.346 166.005 184.56 166.241Q183.774 166.478 182.98 166.686Q182.186 166.894 181.385 167.075Q180.584 167.256 179.777 167.408Q178.97 167.56 178.159 167.684Q177.347 167.808 176.532 167.904Q175.716 167.999 174.898 168.066Q174.08 168.133 173.26 168.172Q172.439 168.21 171.619 168.219Q170.798 168.229 169.977 168.21Q169.156 168.19 168.336 168.142Q167.517 168.094 166.699 168.018Q165.882 167.941 165.068 167.836Q164.254 167.731 163.443 167.597Q162.633 167.463 161.829 167.301Q161.024 167.139 160.225 166.949Q159.426 166.759 158.635 166.542Q157.843 166.324 157.06 166.078Q156.276 165.833 155.502 165.56Q154.727 165.287 153.963 164.988Q153.199 164.688 152.445 164.362Q151.692 164.035 150.95 163.683Q150.209 163.331 149.48 162.952Q148.752 162.574 148.036 162.171Q147.321 161.767 146.621 161.339ZM172.614 157.991Q173.515 157.952 174.413 157.869Q175.311 157.786 176.203 157.659Q177.096 157.532 177.982 157.361Q178.867 157.19 179.743 156.976Q180.619 156.763 181.484 156.506Q182.348 156.249 183.199 155.951Q184.05 155.652 184.885 155.312Q185.72 154.972 186.538 154.591Q187.355 154.211 188.153 153.791Q188.951 153.371 189.727 152.912Q190.504 152.453 191.256 151.957Q192.009 151.46 192.737 150.928Q193.465 150.395 194.165 149.827Q194.866 149.26 195.538 148.658Q196.21 148.057 196.852 147.424Q197.493 146.79 198.103 146.126Q198.713 145.462 199.289 144.768Q199.866 144.075 200.408 143.354Q200.95 142.633 201.456 141.887Q201.961 141.14 202.43 140.37Q202.899 139.599 203.329 138.807Q203.759 138.015 204.15 137.202Q204.541 136.389 204.892 135.559Q205.242 134.728 205.552 133.881Q205.861 133.034 206.129 132.173Q206.397 131.312 206.622 130.438Q206.847 129.565 207.029 128.682Q207.21 127.799 207.349 126.908Q207.487 126.017 207.582 125.12Q207.676 124.223 207.727 123.323Q207.777 122.422 207.784 121.521Q207.79 120.619 207.752 119.718Q207.714 118.817 207.632 117.919Q207.55 117.021 207.424 116.128Q207.298 115.235 207.128 114.35Q206.959 113.464 206.746 112.588Q206.533 111.711 206.277 110.847Q206.022 109.982 205.724 109.131Q205.427 108.279 205.087 107.444Q204.748 106.608 204.369 105.79Q203.989 104.972 203.57 104.174Q203.151 103.376 202.693 102.599Q202.235 101.822 201.74 101.068Q201.244 100.315 200.712 99.5867Q200.181 98.8584 199.614 98.1571Q199.047 97.4558 198.446 96.7831Q197.846 96.1104 197.213 95.468Q196.58 94.8255 195.917 94.2149Q195.253 93.6043 194.56 93.0269Q193.868 92.4496 193.148 91.9069Q192.427 91.3642 191.682 90.8574Q190.936 90.3507 190.166 89.8811Q189.396 89.4116 188.604 88.9803Q187.812 88.5491 187 88.1572Q186.188 87.7653 185.357 87.4137Q184.527 87.0621 183.68 86.7516Q182.834 86.4412 181.973 86.1726Q181.112 85.904 180.239 85.678Q179.366 85.4519 178.483 85.2689Q177.6 85.086 176.709 84.9465Q175.818 84.8071 174.922 84.7114Q174.025 84.6158 173.125 84.5643Q172.224 84.5128 171.323 84.5054Q170.421 84.4981 169.52 84.535Q168.618 84.5719 167.718 84.6532Q166.819 84.7344 165.924 84.8596Q165.03 84.9849 164.143 85.154Q163.256 85.323 162.378 85.5354Q161.5 85.7478 160.634 86.0031Q159.768 86.2583 158.915 86.5558Q158.062 86.8533 157.225 87.1923Q156.388 87.5313 155.569 87.911Q154.749 88.2907 153.95 88.7101Q153.15 89.1296 152.372 89.5878Q151.593 90.0461 150.839 90.542Q150.084 91.0378 149.354 91.5702Q148.625 92.1026 147.922 92.6701Q147.22 93.2376 146.546 93.839Q145.872 94.4403 145.229 95.074Q144.586 95.7078 143.974 96.3723Q143.362 97.0368 142.784 97.7306Q142.206 98.4244 141.663 99.1457Q141.119 99.867 140.612 100.614Q140.105 101.361 139.635 102.132Q139.165 102.904 138.733 103.697Q138.301 104.49 137.909 105.304Q137.517 106.117 137.165 106.949Q136.814 107.781 136.503 108.629Q136.193 109.477 135.925 110.339Q135.656 111.202 135.43 112.076Q135.205 112.95 135.022 113.835Q134.84 114.719 134.701 115.612Q134.562 116.504 134.467 117.402Q134.372 118.3 134.321 119.202Q134.271 120.104 134.264 121.007Q134.258 121.91 134.296 122.812Q134.334 123.714 134.416 124.614Q134.499 125.513 134.625 126.407Q134.751 127.301 134.921 128.188Q135.091 129.075 135.305 129.953Q135.518 130.83 135.775 131.696Q136.031 132.562 136.329 133.415Q136.628 134.267 136.968 135.104Q137.308 135.94 137.688 136.759Q138.069 137.578 138.489 138.377Q138.91 139.177 139.369 139.954Q139.828 140.732 140.325 141.486Q140.822 142.24 141.355 142.969Q141.888 143.698 142.456 144.4Q143.025 145.102 143.627 145.775Q144.229 146.448 144.863 147.091Q145.498 147.733 146.163 148.344Q146.828 148.955 147.523 149.532Q148.217 150.109 148.939 150.652Q149.661 151.195 150.409 151.701Q151.157 152.207 151.928 152.677Q152.7 153.146 153.494 153.576Q154.288 154.007 155.102 154.398Q155.916 154.789 156.748 155.14Q157.58 155.491 158.428 155.8Q159.277 156.11 160.139 156.377Q161.002 156.644 161.877 156.869Q162.751 157.094 163.636 157.275Q164.521 157.457 165.413 157.595Q166.306 157.733 167.204 157.826Q168.102 157.92 169.004 157.97Q169.906 158.02 170.809 158.025Q171.712 158.03 172.614 157.991Z"/>
	<path fill="#436491" transform="matrix(0.195312 0 0 0.195312 0.00195312 -0.000244141)" d="M180.65 107.8C190.325 109.087 181.904 117.339 178.733 120.731C174.033 125.759 169.488 133.998 163.178 125.767C159.176 122.257 154.845 117.138 162.17 114.844C165.182 115.524 166.358 117.08 168.384 119.246C171.415 115.829 176.352 109.05 180.65 107.8Z"/>
	<path fill="#436491" transform="matrix(0.195312 0 0 0.195312 0.00195312 -0.000244141)" d="M170.017 86.1948Q170.153 86.1669 170.292 86.1523Q170.43 86.1377 170.569 86.1366Q170.708 86.1354 170.847 86.1477Q170.986 86.16 171.122 86.1857Q171.259 86.2113 171.393 86.2501Q171.526 86.2889 171.656 86.3404Q171.785 86.3919 171.909 86.4556Q172.032 86.5194 172.149 86.5948Q172.266 86.6702 172.375 86.7566Q172.484 86.8429 172.585 86.9395Q172.685 87.0359 172.775 87.1417Q172.866 87.2475 172.945 87.3615Q173.025 87.4754 173.094 87.5966Q173.162 87.7178 173.218 87.845Q173.275 87.9723 173.318 88.1043Q173.362 88.2364 173.393 88.3721Q173.424 88.5078 173.441 88.6458Q173.459 88.7839 173.463 88.923Q173.467 89.0621 173.458 89.2009Q173.448 89.3398 173.426 89.477Q173.403 89.6143 173.367 89.7488Q173.331 89.8832 173.282 90.0135Q173.234 90.1439 173.173 90.2689Q173.111 90.3939 173.039 90.5124Q172.966 90.631 172.882 90.7419Q172.798 90.8528 172.703 90.9551Q172.609 91.0573 172.505 91.15Q172.401 91.2427 172.289 91.3249Q172.177 91.4071 172.057 91.478Q171.937 91.549 171.811 91.608Q171.685 91.6671 171.554 91.7136Q171.423 91.7602 171.288 91.7939Q171.103 91.84 170.913 91.8613Q170.724 91.8826 170.533 91.8785Q170.342 91.8745 170.154 91.8454Q169.965 91.8162 169.782 91.7623Q169.6 91.7084 169.425 91.6308Q169.251 91.5532 169.089 91.4533Q168.926 91.3533 168.778 91.2327Q168.631 91.1122 168.5 90.9731Q168.369 90.8341 168.258 90.679Q168.147 90.5239 168.058 90.3555Q167.968 90.1871 167.902 90.0083Q167.835 89.8295 167.793 89.6435Q167.751 89.4575 167.733 89.2675Q167.716 89.0776 167.724 88.887Q167.732 88.6964 167.765 88.5086Q167.798 88.3207 167.856 88.1389Q167.914 87.9571 167.995 87.7845Q168.076 87.6119 168.18 87.4516Q168.283 87.2913 168.407 87.146Q168.531 87.0008 168.672 86.8732Q168.814 86.7456 168.972 86.6379Q169.129 86.5302 169.299 86.4443Q169.47 86.3583 169.65 86.2957Q169.83 86.233 170.017 86.1948Z"/>
	<path fill="#436491" transform="matrix(0.195312 0 0 0.195312 0.00195312 -0.000244141)" d="M137.742 118.265C141.871 117.994 144.033 121.267 140.046 123.347C136.031 124.316 134.927 120.513 137.742 118.265Z"/>
	<path fill="#436491" transform="matrix(0.195312 0 0 0.195312 0.00195312 -0.000244141)" d="M202.597 117.783Q202.779 117.723 202.967 117.689Q203.156 117.654 203.347 117.645Q203.539 117.636 203.729 117.653Q203.92 117.67 204.107 117.712Q204.294 117.755 204.473 117.822Q204.653 117.889 204.821 117.98Q204.99 118.071 205.145 118.184Q205.3 118.296 205.438 118.429Q205.576 118.562 205.695 118.712Q205.815 118.862 205.913 119.026Q206.01 119.191 206.085 119.367Q206.16 119.544 206.21 119.728Q206.261 119.913 206.286 120.103Q206.311 120.293 206.31 120.485Q206.309 120.676 206.283 120.866Q206.256 121.056 206.204 121.24Q206.152 121.424 206.076 121.6Q206 121.776 205.9 121.94Q205.801 122.103 205.681 122.252Q205.56 122.401 205.421 122.533Q205.281 122.664 205.126 122.775Q204.97 122.887 204.8 122.976Q204.631 123.066 204.451 123.131Q204.271 123.197 204.084 123.238Q203.953 123.267 203.819 123.283Q203.685 123.299 203.551 123.303Q203.416 123.306 203.282 123.297Q203.148 123.287 203.015 123.265Q202.882 123.243 202.752 123.209Q202.622 123.174 202.496 123.127Q202.37 123.081 202.249 123.022Q202.127 122.964 202.012 122.894Q201.897 122.824 201.789 122.744Q201.681 122.663 201.582 122.573Q201.482 122.483 201.391 122.384Q201.3 122.284 201.219 122.177Q201.138 122.07 201.067 121.955Q200.997 121.84 200.938 121.719Q200.878 121.599 200.831 121.473Q200.783 121.347 200.748 121.217Q200.713 121.087 200.69 120.955Q200.667 120.822 200.657 120.688Q200.646 120.554 200.649 120.419Q200.651 120.285 200.667 120.151Q200.682 120.017 200.71 119.886Q200.738 119.754 200.778 119.626Q200.818 119.497 200.871 119.373Q200.923 119.249 200.987 119.131Q201.05 119.012 201.125 118.9Q201.2 118.788 201.285 118.684Q201.37 118.58 201.465 118.484Q201.559 118.388 201.662 118.302Q201.765 118.216 201.876 118.139Q201.987 118.063 202.105 117.998Q202.223 117.933 202.346 117.879Q202.469 117.825 202.597 117.783Z"/>
	<path fill="#436491" transform="matrix(0.195312 0 0 0.195312 0.00195312 -0.000244141)" d="M169.927 150.631Q170.063 150.607 170.2 150.597Q170.337 150.587 170.475 150.591Q170.613 150.594 170.749 150.611Q170.886 150.628 171.02 150.659Q171.155 150.689 171.285 150.733Q171.416 150.776 171.542 150.832Q171.668 150.888 171.787 150.956Q171.907 151.024 172.019 151.104Q172.132 151.183 172.236 151.274Q172.34 151.364 172.435 151.464Q172.529 151.564 172.614 151.673Q172.698 151.781 172.771 151.898Q172.845 152.015 172.906 152.138Q172.968 152.261 173.017 152.39Q173.066 152.518 173.102 152.651Q173.138 152.784 173.161 152.92Q173.184 153.056 173.193 153.193Q173.203 153.331 173.199 153.468Q173.195 153.606 173.177 153.743Q173.16 153.879 173.129 154.014Q173.098 154.148 173.054 154.278Q173.01 154.409 172.953 154.534Q172.897 154.66 172.828 154.779Q172.76 154.899 172.68 155.011Q172.599 155.123 172.509 155.227Q172.418 155.33 172.318 155.425Q172.217 155.519 172.108 155.603Q171.999 155.687 171.882 155.76Q171.765 155.832 171.641 155.893Q171.518 155.954 171.389 156.003Q171.26 156.051 171.127 156.087Q170.994 156.123 170.858 156.145Q170.723 156.167 170.586 156.176Q170.449 156.185 170.312 156.181Q170.175 156.176 170.04 156.158Q169.904 156.14 169.77 156.109Q169.637 156.078 169.507 156.034Q169.377 155.99 169.253 155.934Q169.128 155.878 169.009 155.809Q168.89 155.741 168.779 155.661Q168.667 155.582 168.564 155.491Q168.461 155.401 168.367 155.301Q168.273 155.202 168.19 155.093Q168.106 154.985 168.033 154.868Q167.961 154.752 167.9 154.629Q167.839 154.507 167.79 154.379Q167.742 154.251 167.706 154.118Q167.67 153.986 167.647 153.851Q167.624 153.716 167.615 153.579Q167.605 153.443 167.609 153.306Q167.613 153.169 167.63 153.033Q167.648 152.897 167.678 152.763Q167.709 152.63 167.752 152.5Q167.796 152.37 167.851 152.245Q167.907 152.12 167.975 152.001Q168.043 151.882 168.122 151.77Q168.201 151.658 168.291 151.555Q168.381 151.451 168.48 151.357Q168.579 151.263 168.688 151.179Q168.796 151.095 168.912 151.022Q169.027 150.949 169.15 150.887Q169.272 150.826 169.4 150.776Q169.528 150.727 169.66 150.691Q169.792 150.654 169.927 150.631Z"/>
	<path fill="#FEB34A" transform="matrix(0.195312 0 0 0.195312 0.00195312 -0.000244141)" d="M346.797 71.5585Q347.838 71.4712 348.881 71.4351Q349.925 71.3989 350.969 71.4139Q352.014 71.4289 353.056 71.4951Q354.098 71.5612 355.136 71.6784Q356.174 71.7955 357.204 71.9633Q358.235 72.1312 359.256 72.3493Q360.278 72.5674 361.287 72.8354Q362.297 73.1033 363.292 73.4203Q364.287 73.7374 365.265 74.1028Q366.243 74.4682 367.203 74.8811Q368.162 75.294 369.1 75.7534Q370.038 76.2128 370.952 76.7176Q371.866 77.2224 372.755 77.7714Q373.643 78.3204 374.503 78.9123Q375.364 79.5042 376.194 80.1375Q377.025 80.7708 377.823 81.444Q378.621 82.1172 379.386 82.8288Q380.15 83.5403 380.879 84.2884Q381.608 85.0366 382.299 85.8195Q382.99 86.6024 383.642 87.4183Q384.294 88.2342 384.905 89.081Q385.516 89.9278 386.085 90.8036Q386.654 91.6793 387.18 92.5819Q387.705 93.4844 388.185 94.4117Q388.666 95.3389 389.1 96.2886Q389.535 97.2382 389.922 98.208Q390.31 99.1778 390.649 100.165Q390.989 101.153 391.28 102.156Q391.57 103.159 391.812 104.175Q392.053 105.191 392.244 106.218Q392.435 107.245 392.576 108.28Q392.716 109.315 392.806 110.355Q392.896 111.395 392.934 112.439Q392.973 113.483 392.961 114.527Q392.948 115.571 392.884 116.614Q392.821 117.656 392.706 118.694Q392.591 119.732 392.426 120.763Q392.261 121.794 392.045 122.816Q391.829 123.838 391.564 124.848Q391.298 125.858 390.983 126.854Q390.669 127.85 390.306 128.829Q389.943 129.808 389.532 130.768Q389.121 131.728 388.664 132.667Q388.207 133.606 387.704 134.522Q387.202 135.437 386.655 136.327Q386.108 137.217 385.518 138.078Q384.929 138.94 384.297 139.772Q383.666 140.604 382.995 141.404Q382.323 142.204 381.614 142.97Q380.904 143.736 380.158 144.467Q379.411 145.197 378.63 145.89Q377.849 146.583 377.034 147.237Q376.22 147.891 375.375 148.504Q374.529 149.117 373.655 149.688Q372.781 150.259 371.879 150.787Q370.978 151.315 370.052 151.797Q369.126 152.28 368.177 152.717Q367.229 153.154 366.26 153.543Q365.291 153.933 364.304 154.275Q363.317 154.617 362.315 154.91Q361.313 155.203 360.297 155.447Q359.282 155.69 358.255 155.884Q357.229 156.078 356.195 156.221Q355.16 156.364 354.12 156.456Q353.077 156.549 352.03 156.59Q350.983 156.631 349.936 156.62Q348.888 156.61 347.842 156.548Q346.797 156.486 345.755 156.373Q344.714 156.26 343.679 156.096Q342.645 155.932 341.62 155.717Q340.594 155.502 339.581 155.237Q338.567 154.972 337.568 154.658Q336.569 154.343 335.586 153.98Q334.604 153.617 333.64 153.206Q332.677 152.795 331.734 152.337Q330.792 151.879 329.874 151.376Q328.955 150.872 328.062 150.324Q327.17 149.776 326.305 149.185Q325.441 148.593 324.606 147.96Q323.771 147.327 322.969 146.654Q322.167 145.98 321.398 145.268Q320.63 144.556 319.897 143.807Q319.165 143.058 318.47 142.275Q317.775 141.491 317.12 140.673Q316.465 139.856 315.85 139.008Q315.236 138.159 314.664 137.282Q314.092 136.404 313.563 135.5Q313.035 134.595 312.552 133.666Q312.069 132.736 311.632 131.784Q311.195 130.832 310.806 129.859Q310.416 128.887 310.075 127.897Q309.734 126.906 309.441 125.9Q309.149 124.894 308.907 123.875Q308.664 122.856 308.472 121.826Q308.28 120.797 308.139 119.759Q307.998 118.721 307.908 117.677Q307.818 116.633 307.779 115.587Q307.741 114.54 307.754 113.492Q307.767 112.445 307.831 111.399Q307.895 110.354 308.011 109.313Q308.126 108.272 308.293 107.237Q308.46 106.203 308.677 105.178Q308.894 104.154 309.162 103.141Q309.429 102.128 309.746 101.13Q310.063 100.131 310.428 99.1495Q310.794 98.1678 311.207 97.2053Q311.62 96.2428 312.08 95.3017Q312.541 94.3607 313.046 93.4433Q313.552 92.526 314.102 91.6347Q314.653 90.7433 315.246 89.8801Q315.839 89.0169 316.475 88.1838Q317.11 87.3508 317.785 86.55Q318.46 85.7492 319.174 84.9825Q319.888 84.2159 320.638 83.4852Q321.389 82.7546 322.175 82.0617Q322.96 81.3688 323.779 80.7154Q324.598 80.0619 325.448 79.4495Q326.298 78.8371 327.176 78.2672Q328.055 77.6973 328.961 77.1713Q329.867 76.6452 330.798 76.1643Q331.728 75.6835 332.681 75.2489Q333.635 74.8143 334.608 74.4271Q335.581 74.0399 336.572 73.701Q337.564 73.3621 338.57 73.0723Q339.577 72.7825 340.597 72.5426Q341.616 72.3026 342.646 72.113Q343.677 71.9235 344.715 71.7847Q345.753 71.646 346.797 71.5585ZM347.536 114.844C344.824 112.481 340.399 107.177 336.552 107.561C326.222 108.594 334.664 117.686 337.82 120.668C340.442 123.2 342.967 126.022 346.227 127.731C348.037 127.778 350.189 128.113 351.583 126.704C354.064 124.197 365.962 109.073 367.665 106.092C370.141 101.756 365.899 98.5024 361.903 98.4857C356.924 101.536 351.815 110.295 347.536 114.844Z"/>
	<defs>
		<linearGradient id="gradient_0" gradientUnits="userSpaceOnUse" x1="341.6604" y1="398.67868" x2="413.11108" y2="399.80591">
			<stop offset="0" stop-color="#167BEE"/>
			<stop offset="1" stop-color="#36AFFB"/>
		</linearGradient>
	</defs>
	<path fill="url(#gradient_0)" transform="matrix(0.195312 0 0 0.195312 0.00195312 -0.000244141)" d="M369.223 369.15C368.924 367.177 367.518 363.04 369.874 361.854C373.279 360.14 384.203 361.105 387.944 362.215C386.936 364.792 386.907 366.429 387.25 369.15C390.327 369.607 392.332 370.749 394.812 372.515C395.551 371.531 396.235 370.443 397.256 369.734C400.544 367.572 405.936 374.063 407.517 376.398C409.416 379.202 407.647 380.33 405.853 382.604C407.568 384.621 408.594 387.53 409.837 389.883L414.263 390.412C415.181 396.203 416.196 401.777 414.263 407.48L413.941 407.582C411.318 408.393 409.417 407.777 408.389 410.71C407.991 411.981 407.616 413.41 406.779 414.464C407.814 416.062 408.951 417.654 409.837 419.337C407.903 422.569 404.61 426.739 401.533 428.947C399.062 431.576 397.126 429.765 394.812 427.814C392.578 429.042 390.362 429.989 387.944 430.802C388.044 432.557 388.137 434.249 387.944 436.001C382.499 438.364 374.66 438.413 369.223 436.001C369.098 434.297 369.226 432.516 369.223 430.802C367.121 429.847 365.116 428.726 362.983 427.814C360.695 428.53 358.793 429.989 356.526 430.802C352.121 427.544 348.591 423.138 346.227 418.223C347.179 416.86 348.562 415.645 349.737 414.464C349.347 411.437 348.515 409.013 347.141 406.298C345.414 406.487 343.591 406.342 341.853 406.298C340.822 402.574 340.273 392.731 342.439 390.183C344.139 389.421 345.801 390.029 347.536 390.412C348.627 388.086 349.385 386.147 349.737 383.587C349.18 381.801 348.071 380.142 347.141 378.525C349.267 374.545 353.882 370.489 357.785 368.271C359.647 369.493 361.31 371.052 362.983 372.515C365.074 371.342 367.009 370.103 369.223 369.15ZM381.134 421.329Q381.665 421.275 382.192 421.196Q382.72 421.116 383.242 421.01Q383.765 420.905 384.282 420.774Q384.799 420.643 385.309 420.486Q385.819 420.33 386.321 420.149Q386.823 419.968 387.315 419.762Q387.807 419.556 388.289 419.327Q388.77 419.097 389.24 418.844Q389.71 418.591 390.166 418.315Q390.623 418.04 391.065 417.742Q391.508 417.444 391.935 417.125Q392.363 416.806 392.774 416.466Q393.185 416.126 393.579 415.766Q393.973 415.407 394.349 415.028Q394.725 414.65 395.081 414.253Q395.438 413.857 395.775 413.443Q396.112 413.029 396.428 412.6Q396.744 412.17 397.039 411.725Q397.334 411.281 397.606 410.822Q397.878 410.364 398.128 409.892Q398.378 409.421 398.604 408.938Q398.83 408.454 399.032 407.961Q399.234 407.467 399.412 406.964Q399.589 406.461 399.742 405.95Q399.895 405.439 400.022 404.921Q400.149 404.403 400.251 403.879Q400.353 403.356 400.429 402.828Q400.505 402.3 400.555 401.769Q400.605 401.238 400.628 400.705Q400.652 400.172 400.65 399.638Q400.647 399.105 400.619 398.572Q400.59 398.04 400.535 397.509Q400.48 396.978 400.399 396.451Q400.319 395.924 400.212 395.401Q400.105 394.879 399.973 394.362Q399.841 393.845 399.684 393.336Q399.526 392.826 399.344 392.325Q399.162 391.823 398.955 391.332Q398.748 390.84 398.518 390.359Q398.287 389.878 398.033 389.409Q397.779 388.94 397.503 388.484Q397.226 388.028 396.927 387.586Q396.629 387.144 396.309 386.717Q395.988 386.29 395.648 385.88Q395.307 385.47 394.947 385.076Q394.586 384.683 394.207 384.308Q393.828 383.933 393.43 383.577Q393.033 383.221 392.619 382.885Q392.205 382.549 391.774 382.234Q391.344 381.919 390.899 381.625Q390.454 381.331 389.995 381.06Q389.535 380.788 389.063 380.54Q388.592 380.291 388.108 380.066Q387.624 379.841 387.13 379.64Q386.636 379.439 386.133 379.262Q385.63 379.086 385.118 378.934Q384.607 378.782 384.089 378.656Q383.57 378.53 383.047 378.429Q382.523 378.328 381.995 378.253Q381.466 378.178 380.935 378.13Q380.404 378.081 379.871 378.058Q379.338 378.036 378.805 378.039Q378.272 378.043 377.739 378.072Q377.206 378.102 376.676 378.158Q376.147 378.214 375.621 378.295Q375.095 378.377 374.574 378.484Q374.053 378.591 373.538 378.724Q373.023 378.857 372.515 379.015Q372.007 379.172 371.507 379.355Q371.007 379.537 370.517 379.744Q370.027 379.951 369.547 380.181Q369.068 380.412 368.6 380.665Q368.133 380.919 367.678 381.196Q367.223 381.472 366.783 381.77Q366.342 382.068 365.917 382.388Q365.492 382.707 365.082 383.047Q364.673 383.387 364.281 383.747Q363.889 384.107 363.515 384.485Q363.141 384.863 362.786 385.26Q362.431 385.656 362.096 386.069Q361.761 386.482 361.446 386.912Q361.132 387.341 360.839 387.785Q360.546 388.229 360.275 388.686Q360.004 389.144 359.756 389.615Q359.507 390.085 359.283 390.568Q359.058 391.05 358.857 391.542Q358.656 392.035 358.479 392.537Q358.303 393.039 358.151 393.549Q357.999 394.058 357.873 394.575Q357.746 395.092 357.645 395.614Q357.544 396.137 357.468 396.663Q357.393 397.19 357.343 397.72Q357.294 398.249 357.27 398.781Q357.247 399.312 357.249 399.844Q357.252 400.376 357.281 400.908Q357.309 401.439 357.364 401.968Q357.419 402.497 357.499 403.023Q357.58 403.549 357.686 404.07Q357.792 404.591 357.924 405.107Q358.055 405.622 358.212 406.131Q358.369 406.639 358.55 407.139Q358.732 407.639 358.937 408.13Q359.143 408.621 359.372 409.101Q359.602 409.581 359.855 410.049Q360.108 410.517 360.383 410.972Q360.658 411.427 360.956 411.868Q361.253 412.31 361.572 412.736Q361.89 413.162 362.23 413.572Q362.569 413.981 362.927 414.374Q363.286 414.767 363.664 415.142Q364.042 415.517 364.437 415.872Q364.833 416.228 365.245 416.564Q365.658 416.9 366.086 417.215Q366.514 417.531 366.958 417.825Q367.401 418.119 367.859 418.391Q368.316 418.663 368.786 418.912Q369.256 419.161 369.738 419.387Q370.219 419.613 370.711 419.815Q371.204 420.017 371.705 420.194Q372.207 420.372 372.716 420.525Q373.226 420.677 373.742 420.805Q374.259 420.933 374.781 421.035Q375.303 421.137 375.829 421.214Q376.356 421.29 376.886 421.341Q377.415 421.391 377.947 421.416Q378.478 421.441 379.01 421.439Q379.542 421.438 380.073 421.41Q380.605 421.383 381.134 421.329Z"/>
	<path fill="#7DCBFB" transform="matrix(0.195312 0 0 0.195312 0.00195312 -0.000244141)" d="M397.256 369.734C400.544 367.572 405.936 374.063 407.517 376.398C409.416 379.202 407.647 380.33 405.853 382.604C407.568 384.621 408.594 387.53 409.837 389.883L414.263 390.412C415.181 396.203 416.196 401.777 414.263 407.48L413.941 407.582C411.318 408.393 409.417 407.777 408.389 410.71C407.102 405.559 413.145 412.85 409.249 401.182C408.437 398.752 410.149 391.476 413.289 391.101L413.28 390.919C411.978 390.646 410.314 390.64 409.17 389.977C407.953 387.784 405.15 384.187 405.655 381.678C403.083 378.348 402.417 377.04 403.089 372.632C401.999 370.911 399.733 369.584 397.67 370.034L397.256 369.734Z"/>
	<path fill="#7DCBFB" transform="matrix(0.195312 0 0 0.195312 0.00195312 -0.000244141)" d="M401.533 428.947C402.236 426.55 405.843 424.163 407.343 422.021C411.374 416.264 403.663 415.927 406.779 414.464C407.814 416.062 408.951 417.654 409.837 419.337C407.903 422.569 404.61 426.739 401.533 428.947Z"/>
	<path fill="#299DFB" transform="matrix(0.195312 0 0 0.195312 0.00195312 -0.000244141)" d="M376.676 378.158Q377.206 378.102 377.739 378.072Q378.272 378.043 378.805 378.039Q379.338 378.036 379.871 378.058Q380.404 378.081 380.935 378.13Q381.466 378.178 381.995 378.253Q382.523 378.328 383.047 378.429Q383.57 378.53 384.089 378.656Q384.607 378.782 385.118 378.934Q385.63 379.086 386.133 379.262Q386.636 379.439 387.13 379.64Q387.624 379.841 388.108 380.066Q388.591 380.291 389.063 380.54Q389.535 380.788 389.994 381.06Q390.454 381.331 390.899 381.625Q391.344 381.919 391.774 382.234Q392.205 382.549 392.619 382.885Q393.033 383.221 393.43 383.577Q393.828 383.933 394.207 384.308Q394.586 384.683 394.947 385.076Q395.307 385.47 395.648 385.88Q395.988 386.29 396.309 386.717Q396.629 387.144 396.927 387.586Q397.226 388.028 397.503 388.484Q397.779 388.94 398.033 389.409Q398.287 389.878 398.518 390.359Q398.748 390.84 398.955 391.332Q399.162 391.823 399.344 392.325Q399.526 392.826 399.684 393.336Q399.841 393.845 399.973 394.362Q400.105 394.879 400.212 395.401Q400.319 395.924 400.399 396.451Q400.48 396.978 400.535 397.509Q400.59 398.04 400.618 398.572Q400.647 399.105 400.65 399.638Q400.652 400.172 400.628 400.705Q400.605 401.238 400.555 401.769Q400.505 402.3 400.429 402.828Q400.353 403.356 400.251 403.879Q400.149 404.403 400.022 404.921Q399.895 405.439 399.742 405.95Q399.589 406.461 399.412 406.964Q399.234 407.467 399.032 407.961Q398.83 408.454 398.604 408.938Q398.378 409.421 398.128 409.892Q397.878 410.364 397.606 410.822Q397.334 411.281 397.039 411.725Q396.744 412.17 396.428 412.6Q396.112 413.029 395.775 413.443Q395.438 413.857 395.082 414.253Q394.725 414.65 394.349 415.028Q393.973 415.407 393.579 415.766Q393.185 416.126 392.774 416.466Q392.363 416.806 391.935 417.125Q391.508 417.444 391.065 417.742Q390.623 418.04 390.166 418.315Q389.71 418.591 389.24 418.844Q388.77 419.097 388.289 419.327Q387.807 419.556 387.315 419.762Q386.823 419.968 386.321 420.149Q385.819 420.33 385.309 420.486Q384.799 420.643 384.282 420.774Q383.765 420.905 383.242 421.01Q382.72 421.116 382.192 421.196Q381.665 421.275 381.134 421.329Q380.605 421.383 380.073 421.41Q379.542 421.438 379.01 421.439Q378.478 421.441 377.947 421.416Q377.415 421.391 376.886 421.341Q376.356 421.29 375.829 421.214Q375.303 421.137 374.781 421.035Q374.259 420.933 373.742 420.805Q373.226 420.677 372.716 420.525Q372.207 420.372 371.705 420.194Q371.204 420.017 370.711 419.815Q370.219 419.613 369.738 419.387Q369.256 419.161 368.786 418.912Q368.316 418.663 367.859 418.391Q367.401 418.119 366.958 417.825Q366.514 417.531 366.086 417.215Q365.658 416.9 365.245 416.564Q364.833 416.228 364.437 415.872Q364.041 415.517 363.664 415.142Q363.286 414.767 362.927 414.374Q362.569 413.981 362.23 413.572Q361.89 413.162 361.572 412.736Q361.253 412.31 360.956 411.868Q360.658 411.427 360.383 410.972Q360.108 410.517 359.855 410.049Q359.602 409.581 359.373 409.101Q359.143 408.621 358.937 408.13Q358.732 407.639 358.55 407.139Q358.369 406.639 358.212 406.131Q358.055 405.622 357.924 405.107Q357.792 404.592 357.686 404.07Q357.58 403.549 357.499 403.023Q357.419 402.497 357.364 401.968Q357.309 401.439 357.281 400.908Q357.252 400.376 357.249 399.844Q357.247 399.312 357.27 398.781Q357.294 398.249 357.343 397.72Q357.393 397.19 357.468 396.663Q357.544 396.137 357.645 395.614Q357.746 395.092 357.872 394.575Q357.999 394.058 358.151 393.549Q358.303 393.039 358.479 392.537Q358.656 392.035 358.857 391.542Q359.058 391.05 359.283 390.568Q359.507 390.085 359.756 389.615Q360.004 389.144 360.275 388.686Q360.546 388.229 360.839 387.785Q361.132 387.341 361.446 386.911Q361.761 386.482 362.096 386.069Q362.431 385.656 362.786 385.26Q363.141 384.863 363.515 384.485Q363.889 384.107 364.281 383.747Q364.673 383.387 365.082 383.047Q365.491 382.707 365.917 382.388Q366.342 382.068 366.783 381.77Q367.223 381.472 367.678 381.195Q368.133 380.919 368.6 380.665Q369.068 380.412 369.547 380.181Q370.027 379.951 370.517 379.744Q371.007 379.537 371.507 379.355Q372.007 379.172 372.515 379.015Q373.023 378.857 373.538 378.724Q374.053 378.591 374.574 378.484Q375.095 378.377 375.621 378.295Q376.147 378.214 376.676 378.158ZM379.416 410.453Q379.76 410.407 380.101 410.338Q380.441 410.269 380.777 410.177Q381.112 410.086 381.44 409.972Q381.769 409.859 382.089 409.724Q382.409 409.589 382.719 409.433Q383.03 409.277 383.329 409.101Q383.629 408.925 383.916 408.729Q384.203 408.533 384.476 408.319Q384.75 408.105 385.009 407.873Q385.267 407.641 385.51 407.392Q385.753 407.144 385.978 406.88Q386.204 406.615 386.412 406.337Q386.619 406.058 386.808 405.766Q386.997 405.475 387.166 405.171Q387.335 404.868 387.483 404.553Q387.632 404.239 387.759 403.916Q387.886 403.593 387.992 403.262Q388.097 402.931 388.181 402.593Q388.264 402.256 388.325 401.914Q388.386 401.572 388.424 401.227Q388.462 400.881 388.477 400.534Q388.492 400.187 388.484 399.84Q388.475 399.492 388.444 399.146Q388.413 398.8 388.359 398.457Q388.305 398.114 388.229 397.775Q388.152 397.436 388.053 397.103Q387.954 396.77 387.833 396.444Q387.712 396.118 387.57 395.801Q387.428 395.484 387.265 395.177Q387.102 394.871 386.919 394.575Q386.737 394.28 386.534 393.997Q386.332 393.715 386.112 393.446Q385.892 393.177 385.654 392.924Q385.416 392.671 385.162 392.434Q384.908 392.197 384.639 391.977Q384.37 391.757 384.087 391.556Q383.803 391.355 383.507 391.173Q383.212 390.99 382.904 390.828Q382.597 390.666 382.279 390.525Q381.962 390.384 381.636 390.264Q381.31 390.144 380.977 390.046Q380.643 389.948 380.304 389.872Q379.965 389.796 379.622 389.743Q379.278 389.69 378.932 389.66Q378.586 389.63 378.239 389.623Q377.891 389.616 377.544 389.631Q377.197 389.647 376.852 389.686Q376.507 389.725 376.165 389.787Q375.916 389.832 375.669 389.889Q375.423 389.946 375.179 390.015Q374.935 390.084 374.695 390.164Q374.455 390.245 374.22 390.337Q373.984 390.429 373.753 390.532Q373.522 390.635 373.296 390.75Q373.07 390.864 372.85 390.989Q372.63 391.115 372.416 391.25Q372.202 391.386 371.995 391.532Q371.789 391.678 371.589 391.833Q371.389 391.989 371.197 392.154Q371.006 392.319 370.822 392.494Q370.638 392.668 370.463 392.851Q370.288 393.034 370.122 393.225Q369.956 393.416 369.8 393.615Q369.643 393.814 369.497 394.02Q369.35 394.227 369.213 394.44Q369.077 394.653 368.951 394.873Q368.825 395.092 368.709 395.317Q368.594 395.543 368.49 395.773Q368.386 396.004 368.293 396.24Q368.2 396.475 368.118 396.715Q368.037 396.954 367.967 397.198Q367.897 397.441 367.839 397.687Q367.781 397.934 367.735 398.183Q367.689 398.432 367.655 398.683Q367.621 398.933 367.599 399.186Q367.578 399.438 367.568 399.691Q367.559 399.944 367.562 400.197Q367.564 400.45 367.579 400.703Q367.594 400.956 367.621 401.207Q367.649 401.459 367.688 401.709Q367.727 401.959 367.779 402.207Q367.83 402.455 367.893 402.7Q367.957 402.945 368.032 403.187Q368.107 403.429 368.194 403.667Q368.28 403.904 368.378 404.138Q368.477 404.371 368.586 404.599Q368.695 404.828 368.815 405.051Q368.935 405.273 369.066 405.49Q369.197 405.707 369.338 405.917Q369.479 406.127 369.631 406.33Q369.782 406.533 369.943 406.729Q370.103 406.924 370.273 407.112Q370.443 407.3 370.622 407.479Q370.801 407.658 370.989 407.828Q371.176 407.998 371.372 408.159Q371.567 408.32 371.77 408.471Q371.973 408.623 372.183 408.764Q372.393 408.905 372.61 409.036Q372.826 409.167 373.049 409.288Q373.272 409.408 373.5 409.518Q373.728 409.627 373.961 409.725Q374.195 409.824 374.433 409.91Q374.67 409.997 374.912 410.073Q375.154 410.148 375.399 410.211Q375.644 410.275 375.892 410.327Q376.14 410.378 376.39 410.418Q376.64 410.457 376.891 410.485Q377.143 410.512 377.396 410.527Q377.648 410.542 377.901 410.545Q378.155 410.548 378.408 410.539Q378.661 410.53 378.913 410.508Q379.165 410.487 379.416 410.453Z"/>
	<path fill="#50E7C6" transform="matrix(0.195312 0 0 0.195312 0.00195312 -0.000244141)" d="M378.736 292.01C382.402 291.557 392.188 291.738 396.167 292.01C398.071 297.343 397.266 311.924 397.256 318.19C396.893 327.009 387.117 325.642 379.859 324.515C376.286 323.96 375.835 322.095 375.713 318.711C375.382 313.81 373.426 293.58 378.736 292.01Z"/>
	<path fill="#29C5A6" transform="matrix(0.195312 0 0 0.195312 0.00195312 -0.000244141)" d="M375.713 318.711L376.058 318.406C380.075 319.015 391.468 318.414 396.167 318.19L397.256 318.19C396.893 327.009 387.117 325.642 379.859 324.515C376.286 323.96 375.835 322.095 375.713 318.711Z"/>
	<path fill="#F6DB19" transform="matrix(0.195312 0 0 0.195312 0.00195312 -0.000244141)" d="M362.983 318.19C362.849 322.074 362.668 324.178 358.41 324.562C355.697 324.806 344.095 325.208 342.514 323.193C341.834 322.327 340.563 294.895 343.104 292.791C344.597 291.555 347.14 291.897 348.933 292.01C362.572 291.853 363.018 289.89 363.009 304.014L362.983 318.19Z"/>
	<path fill="#FEB34A" transform="matrix(0.195312 0 0 0.195312 0.00195312 -0.000244141)" d="M362.983 318.19C362.849 322.074 362.668 324.178 358.41 324.562C355.697 324.806 344.095 325.208 342.514 323.193C341.834 322.327 340.563 294.895 343.104 292.791C344.597 291.555 347.14 291.897 348.933 292.01L348.966 292.373C349.298 296.461 347.632 314.909 350.497 317.182C353.435 319.513 360.531 317.091 362.983 318.19Z"/>
	<path fill="#D6E5F8" transform="matrix(0.195312 0 0 0.195312 0.00195312 -0.000244141)" d="M378.736 263.715C381.362 263.41 395.185 263.179 396.446 264.402C397.247 267.183 398.396 281.184 394.812 282.1C391.061 282.131 380.945 282.86 377.813 281.563C375.901 280.771 373.008 264.875 378.736 263.715Z"/>
	<path fill="#D6E5F8" transform="matrix(0.195312 0 0 0.195312 0.00195312 -0.000244141)" d="M347.141 282.1C339.182 281.812 342.037 266.538 343.253 264.258C345.739 263.208 356.276 263.62 359.394 263.744C363.808 263.919 363.244 265.008 362.983 269.017C363.058 271.623 364.003 279.053 362.33 280.921C360.723 282.716 350.193 282.584 347.141 282.1Z"/>
	<path fill="#F6F7F9" transform="matrix(0.195312 0 0 0.195312 0.00195312 -0.000244141)" d="M349.737 269.017C354.148 269.036 358.574 269.131 362.983 269.017C363.058 271.623 364.003 279.053 362.33 280.921C360.723 282.716 350.193 282.584 347.141 282.1C348.079 282.081 348.947 282.045 349.868 281.857C349.759 277.577 349.75 273.298 349.737 269.017Z"/>
	<path fill="#F9D8A4" transform="matrix(0.195312 0 0 0.195312 0.00195312 -0.000244141)" d="M418.626 139.695Q419.003 139.678 419.38 139.702Q419.757 139.725 420.129 139.79Q420.501 139.855 420.864 139.96Q421.227 140.066 421.576 140.21Q421.925 140.354 422.257 140.535Q422.588 140.716 422.898 140.933Q423.207 141.149 423.491 141.398Q423.776 141.647 424.031 141.925Q424.286 142.203 424.51 142.508Q424.733 142.813 424.922 143.14Q425.111 143.467 425.263 143.813Q425.415 144.159 425.529 144.519Q425.642 144.879 425.716 145.25Q425.789 145.62 425.822 145.997Q425.854 146.373 425.846 146.751Q425.837 147.129 425.787 147.503Q425.75 147.783 425.69 148.059Q425.63 148.335 425.547 148.605Q425.465 148.875 425.361 149.138Q425.257 149.4 425.132 149.653Q425.006 149.907 424.861 150.149Q424.715 150.391 424.551 150.62Q424.386 150.849 424.203 151.065Q424.02 151.28 423.82 151.479Q423.62 151.679 423.405 151.861Q423.189 152.044 422.96 152.208Q422.73 152.372 422.487 152.517Q422.245 152.662 421.992 152.787Q421.738 152.912 421.476 153.015Q421.213 153.119 420.943 153.201Q420.672 153.282 420.396 153.342Q420.12 153.401 419.84 153.438Q419.61 153.468 419.378 153.483Q419.147 153.497 418.914 153.496Q418.682 153.495 418.451 153.479Q418.219 153.462 417.99 153.43Q417.76 153.398 417.532 153.351Q417.305 153.303 417.082 153.241Q416.858 153.178 416.639 153.101Q416.421 153.023 416.208 152.931Q415.994 152.84 415.788 152.733Q415.582 152.627 415.383 152.508Q415.184 152.388 414.993 152.255Q414.803 152.122 414.622 151.977Q414.441 151.832 414.27 151.675Q414.099 151.518 413.939 151.349Q413.779 151.181 413.631 151.003Q413.483 150.824 413.347 150.636Q413.211 150.448 413.088 150.251Q412.965 150.054 412.856 149.85Q412.746 149.645 412.651 149.433Q412.555 149.222 412.474 149.004Q412.393 148.787 412.327 148.565Q412.26 148.342 412.209 148.116Q412.158 147.889 412.122 147.66Q412.086 147.431 412.066 147.2Q412.045 146.968 412.04 146.736Q412.036 146.504 412.046 146.273Q412.057 146.041 412.083 145.81Q412.11 145.58 412.151 145.351Q412.193 145.123 412.25 144.898Q412.307 144.673 412.379 144.452Q412.451 144.232 412.538 144.016Q412.624 143.801 412.725 143.592Q412.826 143.383 412.94 143.181Q413.055 142.979 413.183 142.786Q413.311 142.592 413.452 142.407Q413.592 142.223 413.745 142.048Q413.898 141.873 414.062 141.709Q414.226 141.545 414.401 141.392Q414.576 141.24 414.76 141.099Q414.945 140.959 415.139 140.831Q415.332 140.703 415.534 140.588Q415.736 140.473 415.945 140.373Q416.154 140.272 416.369 140.185Q416.585 140.099 416.806 140.027Q417.026 139.955 417.251 139.898Q417.476 139.841 417.705 139.8Q417.933 139.758 418.164 139.732Q418.394 139.706 418.626 139.695Z"/>
	<path fill="#ADE5F9" transform="matrix(0.195312 0 0 0.195312 0.00195312 -0.000244141)" d="M73.3637 378.572Q73.5287 378.544 73.6949 378.525Q73.8611 378.505 74.028 378.494Q74.1949 378.482 74.3622 378.479Q74.5295 378.475 74.6967 378.48Q74.864 378.485 75.0308 378.498Q75.1977 378.51 75.3637 378.531Q75.5297 378.552 75.6945 378.581Q75.8593 378.61 76.0225 378.647Q76.1857 378.684 76.3469 378.729Q76.5081 378.774 76.667 378.826Q76.8258 378.879 76.9819 378.939Q77.1381 378.999 77.2911 379.067Q77.4441 379.135 77.5936 379.21Q77.7432 379.285 77.8889 379.367Q78.0346 379.449 78.1762 379.538Q78.3178 379.627 78.4548 379.723Q78.5919 379.819 78.7242 379.922Q78.8564 380.024 78.9836 380.133Q79.1107 380.242 79.2324 380.357Q79.3541 380.472 79.47 380.592Q79.586 380.713 79.696 380.839Q79.806 380.965 79.9098 381.096Q80.0135 381.228 80.1108 381.364Q80.208 381.5 80.2985 381.64Q80.3891 381.781 80.4727 381.926Q80.5563 382.071 80.6327 382.22Q80.7092 382.369 80.7783 382.521Q80.8475 382.673 80.9092 382.829Q80.9709 382.985 81.0249 383.143Q81.079 383.301 81.1253 383.462Q81.1716 383.623 81.21 383.786Q81.2485 383.948 81.279 384.113Q81.3095 384.278 81.332 384.443Q81.3545 384.609 81.369 384.776Q81.3834 384.943 81.3897 385.11Q81.396 385.277 81.3942 385.444Q81.3924 385.612 81.3825 385.779Q81.3726 385.946 81.3546 386.112Q81.3366 386.278 81.3105 386.444Q81.2845 386.609 81.2504 386.773Q81.2164 386.937 81.1744 387.099Q81.1325 387.26 81.0827 387.42Q81.0329 387.58 80.9755 387.737Q80.918 387.894 80.853 388.048Q80.7879 388.203 80.7155 388.353Q80.6431 388.504 80.5634 388.651Q80.4838 388.799 80.3971 388.942Q80.3104 389.085 80.2168 389.224Q80.1233 389.362 80.0231 389.496Q79.923 389.63 79.8164 389.759Q79.7099 389.888 79.5972 390.012Q79.4845 390.136 79.3659 390.254Q79.2474 390.372 79.1232 390.484Q78.9991 390.596 78.8696 390.702Q78.7402 390.808 78.6058 390.908Q78.4713 391.008 78.3322 391.1Q78.1931 391.193 78.0496 391.28Q77.9062 391.366 77.7587 391.445Q77.6113 391.524 77.4601 391.596Q77.309 391.667 77.1545 391.732Q77.0001 391.796 76.8427 391.853Q76.6854 391.91 76.5254 391.959Q76.3655 392.008 76.2033 392.049Q76.0412 392.091 75.8772 392.124Q75.6536 392.169 75.4276 392.2Q75.2015 392.231 74.9739 392.246Q74.7463 392.262 74.5181 392.262Q74.29 392.263 74.0623 392.248Q73.8346 392.234 73.6084 392.204Q73.3822 392.175 73.1584 392.13Q72.9347 392.086 72.7143 392.026Q72.494 391.967 72.2781 391.894Q72.0621 391.82 71.8515 391.732Q71.6409 391.644 71.4366 391.543Q71.2323 391.441 71.0351 391.327Q70.838 391.212 70.6488 391.084Q70.4597 390.957 70.2794 390.817Q70.099 390.677 69.9284 390.526Q69.7577 390.374 69.5975 390.212Q69.4372 390.05 69.288 389.877Q69.1388 389.704 69.0013 389.522Q68.8639 389.34 68.7388 389.15Q68.6136 388.959 68.5014 388.76Q68.3892 388.562 68.2903 388.356Q68.1915 388.15 68.1065 387.939Q68.0214 387.727 67.9506 387.51Q67.8797 387.293 67.8234 387.072Q67.767 386.851 67.7254 386.627Q67.6838 386.402 67.6571 386.176Q67.6304 385.949 67.6188 385.721Q67.6072 385.493 67.6106 385.265Q67.6141 385.037 67.6326 384.81Q67.6511 384.582 67.6846 384.357Q67.7182 384.131 67.7665 383.908Q67.8149 383.685 67.8779 383.466Q67.9409 383.247 68.0183 383.032Q68.0957 382.817 68.1871 382.608Q68.2785 382.399 68.3835 382.197Q68.4885 381.994 68.6067 381.799Q68.7249 381.604 68.8557 381.417Q68.9866 381.23 69.1295 381.052Q69.2724 380.874 69.4267 380.706Q69.5811 380.539 69.7462 380.381Q69.9113 380.224 70.0865 380.078Q70.2617 379.931 70.4461 379.797Q70.6306 379.663 70.8235 379.541Q71.0165 379.419 71.217 379.311Q71.4176 379.202 71.6249 379.107Q71.8322 379.011 72.0454 378.93Q72.2585 378.849 72.4766 378.782Q72.6946 378.715 72.9167 378.662Q73.1387 378.61 73.3637 378.572Z"/>
	<path fill="#ADE5F9" transform="matrix(0.195312 0 0 0.195312 0.00195312 -0.000244141)" d="M245.629 70.4054Q245.79 70.3722 245.952 70.347Q246.115 70.3217 246.278 70.3045Q246.442 70.2872 246.606 70.278Q246.77 70.2687 246.935 70.2675Q247.099 70.2663 247.263 70.2732Q247.428 70.28 247.591 70.2949Q247.755 70.3098 247.918 70.3327Q248.081 70.3556 248.242 70.3864Q248.404 70.4172 248.563 70.4559Q248.723 70.4946 248.881 70.5411Q249.039 70.5876 249.194 70.6417Q249.349 70.6958 249.501 70.7575Q249.654 70.8192 249.803 70.8882Q249.952 70.9573 250.098 71.0336Q250.243 71.1098 250.385 71.1932Q250.527 71.2765 250.664 71.3666Q250.802 71.4568 250.935 71.5536Q251.068 71.6503 251.196 71.7535Q251.324 71.8567 251.447 71.966Q251.569 72.0753 251.687 72.1905Q251.804 72.3056 251.915 72.4264Q252.027 72.5472 252.132 72.6733Q252.238 72.7995 252.337 72.9306Q252.436 73.0617 252.529 73.1975Q252.622 73.3333 252.707 73.4735Q252.793 73.6137 252.872 73.7579Q252.951 73.9022 253.023 74.0501Q253.095 74.198 253.159 74.3492Q253.223 74.5005 253.28 74.6547Q253.337 74.8089 253.387 74.9658Q253.436 75.1226 253.478 75.2816Q253.519 75.4407 253.553 75.6016Q253.587 75.7625 253.613 75.9249Q253.638 76.0872 253.656 76.2506Q253.674 76.4141 253.684 76.5782Q253.694 76.7423 253.696 76.9067Q253.697 77.0711 253.691 77.2353Q253.685 77.3996 253.671 77.5634Q253.656 77.7272 253.634 77.8901Q253.612 78.0529 253.582 78.2145Q253.551 78.3761 253.513 78.5361Q253.475 78.696 253.429 78.8538Q253.383 79.0117 253.33 79.1671Q253.276 79.3226 253.215 79.4752Q253.154 79.6278 253.085 79.7773Q253.017 79.9267 252.941 80.0726Q252.865 80.2185 252.783 80.3605Q252.7 80.5026 252.61 80.6404Q252.521 80.7782 252.424 80.9115Q252.328 81.0447 252.225 81.1731Q252.123 81.3015 252.014 81.4247Q251.905 81.5479 251.79 81.6656Q251.675 81.7833 251.555 81.8953Q251.435 82.0072 251.309 82.1132Q251.183 82.2191 251.052 82.3188Q250.922 82.4184 250.786 82.5116Q250.651 82.6047 250.511 82.6911Q250.371 82.7775 250.227 82.8569Q250.083 82.9364 249.936 83.0087Q249.788 83.081 249.637 83.146Q249.486 83.2109 249.332 83.2685Q249.178 83.326 249.021 83.3759Q248.865 83.4258 248.706 83.468Q248.547 83.5101 248.386 83.5445Q248.224 83.579 248.061 83.6056Q247.898 83.6321 247.734 83.6506Q247.57 83.6691 247.405 83.6795Q247.24 83.6899 247.075 83.6922Q246.91 83.6945 246.745 83.6886Q246.58 83.6828 246.415 83.6688Q246.251 83.6549 246.087 83.6328Q245.923 83.6108 245.761 83.5807Q245.598 83.5506 245.438 83.5126Q245.277 83.4746 245.118 83.4287Q244.96 83.3829 244.803 83.3292Q244.647 83.2756 244.494 83.2143Q244.34 83.1531 244.19 83.0844Q244.04 83.0156 243.893 82.9396Q243.746 82.8636 243.604 82.7804Q243.461 82.6973 243.323 82.6072Q243.184 82.5172 243.05 82.4204Q242.916 82.3236 242.787 82.2204Q242.658 82.1171 242.535 82.0077Q242.411 81.8982 242.293 81.7828Q242.175 81.6674 242.062 81.5463Q241.95 81.4252 241.844 81.2988Q241.737 81.1723 241.637 81.0408Q241.537 80.9093 241.444 80.773Q241.351 80.6367 241.264 80.4959Q241.178 80.3552 241.098 80.2104Q241.019 80.0656 240.947 79.9171Q240.874 79.7685 240.809 79.6166Q240.745 79.4647 240.687 79.3098Q240.63 79.1549 240.58 78.9973Q240.531 78.8398 240.489 78.68Q240.447 78.5202 240.413 78.3585Q240.379 78.1968 240.353 78.0337Q240.327 77.8706 240.309 77.7064Q240.292 77.5421 240.282 77.3773Q240.272 77.2124 240.27 77.0472Q240.269 76.882 240.275 76.717Q240.282 76.5519 240.296 76.3874Q240.311 76.2228 240.333 76.0592Q240.356 75.8956 240.387 75.7333Q240.417 75.571 240.456 75.4104Q240.495 75.2498 240.541 75.0913Q240.588 74.9328 240.642 74.7767Q240.696 74.6207 240.758 74.4675Q240.82 74.3144 240.889 74.1644Q240.958 74.0145 241.035 73.8681Q241.112 73.7218 241.195 73.5793Q241.279 73.4369 241.369 73.2988Q241.46 73.1607 241.557 73.0272Q241.655 72.8937 241.758 72.7651Q241.862 72.6366 241.972 72.5133Q242.082 72.39 242.198 72.2722Q242.314 72.1545 242.435 72.0426Q242.557 71.9307 242.683 71.8249Q242.81 71.7191 242.942 71.6197Q243.074 71.5202 243.211 71.4274Q243.347 71.3346 243.488 71.2486Q243.629 71.1626 243.775 71.0837Q243.92 71.0048 244.068 70.9331Q244.217 70.8613 244.369 70.797Q244.522 70.7327 244.677 70.676Q244.832 70.6193 244.99 70.5702Q245.147 70.5212 245.307 70.4799Q245.467 70.4387 245.629 70.4054Z"/>
	<path fill="#F9D8A4" transform="matrix(0.195312 0 0 0.195312 0.00195312 -0.000244141)" d="M73.1627 273.776Q73.3208 273.734 73.4808 273.7Q73.6407 273.665 73.8022 273.639Q73.9636 273.613 74.1262 273.594Q74.2887 273.576 74.452 273.565Q74.6153 273.555 74.7789 273.552Q74.9424 273.55 75.1059 273.555Q75.2695 273.561 75.4325 273.574Q75.5955 273.588 75.7577 273.609Q75.9199 273.631 76.0808 273.66Q76.2418 273.69 76.4011 273.727Q76.5604 273.764 76.7176 273.809Q76.8749 273.854 77.0298 273.907Q77.1847 273.959 77.3368 274.02Q77.489 274.08 77.638 274.147Q77.787 274.215 77.9325 274.29Q78.078 274.365 78.2197 274.446Q78.3613 274.528 78.4988 274.617Q78.6364 274.705 78.7693 274.801Q78.9023 274.896 79.0305 274.998Q79.1587 275.099 79.2817 275.207Q79.4048 275.315 79.5224 275.429Q79.64 275.542 79.7519 275.662Q79.8638 275.781 79.9697 275.906Q80.0756 276.03 80.1753 276.16Q80.275 276.29 80.3682 276.424Q80.4615 276.559 80.548 276.698Q80.6345 276.836 80.7141 276.979Q80.7938 277.122 80.8663 277.269Q80.9388 277.416 81.0041 277.566Q81.0694 277.716 81.1272 277.869Q81.185 278.022 81.2353 278.177Q81.2856 278.333 81.3282 278.491Q81.3708 278.649 81.4056 278.809Q81.4404 278.969 81.4673 279.13Q81.4943 279.291 81.5133 279.454Q81.5323 279.616 81.5433 279.78Q81.5544 279.943 81.5574 280.106Q81.5604 280.27 81.5554 280.433Q81.5504 280.597 81.5374 280.76Q81.5244 280.923 81.5035 281.085Q81.4825 281.248 81.4536 281.409Q81.4248 281.57 81.388 281.729Q81.3513 281.889 81.3068 282.046Q81.2623 282.203 81.2102 282.358Q81.158 282.513 81.0984 282.666Q81.0387 282.818 80.9716 282.967Q80.9045 283.117 80.8303 283.262Q80.756 283.408 80.6746 283.55Q80.5933 283.692 80.5051 283.83Q80.4169 283.968 80.3221 284.101Q80.2273 284.234 80.126 284.363Q80.0248 284.491 79.9174 284.615Q79.81 284.738 79.6966 284.856Q79.5833 284.974 79.4643 285.086Q79.3454 285.199 79.221 285.305Q79.0967 285.411 78.9673 285.511Q78.838 285.612 78.7038 285.705Q78.5697 285.799 78.4311 285.886Q78.2926 285.973 78.1499 286.053Q78.0073 286.133 77.8609 286.206Q77.7145 286.279 77.5647 286.345Q77.4149 286.411 77.2621 286.469Q77.1092 286.527 76.9537 286.578Q76.7982 286.629 76.6404 286.672Q75.8128 286.898 74.9548 286.908Q74.0969 286.918 73.2644 286.71Q72.9972 286.643 72.7364 286.555Q72.4757 286.467 72.223 286.357Q71.9704 286.247 71.7277 286.117Q71.4849 285.987 71.2537 285.838Q71.0225 285.688 70.8044 285.52Q70.5862 285.352 70.3827 285.167Q70.1791 284.982 69.9915 284.78Q69.8039 284.578 69.6336 284.362Q69.4632 284.146 69.3112 283.916Q69.1592 283.686 69.0267 283.445Q68.8941 283.204 68.7819 282.952Q68.6696 282.701 68.5785 282.441Q68.4873 282.181 68.4178 281.915Q68.3483 281.648 68.3011 281.377Q68.2538 281.106 68.229 280.832Q68.2041 280.557 68.202 280.282Q68.1998 280.007 68.2204 279.732Q68.2409 279.458 68.2839 279.186Q68.327 278.914 68.3923 278.646Q68.4576 278.379 68.5446 278.117Q68.6317 277.856 68.74 277.603Q68.8483 277.35 68.977 277.107Q69.1058 276.863 69.2542 276.631Q69.4025 276.399 69.5695 276.18Q69.7364 275.961 69.9208 275.757Q70.1052 275.553 70.3058 275.364Q70.5064 275.175 70.7218 275.004Q70.9373 274.833 71.1661 274.679Q71.3949 274.526 71.6356 274.393Q71.8763 274.259 72.1271 274.145Q72.3779 274.032 72.6373 273.939Q72.8966 273.847 73.1627 273.776Z"/>
	<path fill="#F9D8A4" transform="matrix(0.195312 0 0 0.195312 0.00195312 -0.000244141)" d="M144.512 424.951Q144.716 424.902 144.923 424.867Q145.13 424.831 145.338 424.809Q145.547 424.788 145.756 424.78Q145.966 424.772 146.176 424.778Q146.386 424.784 146.594 424.803Q146.803 424.823 147.01 424.856Q147.217 424.89 147.422 424.937Q147.626 424.984 147.827 425.044Q148.028 425.104 148.225 425.178Q148.421 425.251 148.613 425.337Q148.804 425.423 148.989 425.522Q149.174 425.621 149.353 425.731Q149.531 425.842 149.701 425.964Q149.872 426.086 150.034 426.219Q150.196 426.352 150.35 426.495Q150.503 426.639 150.646 426.792Q150.789 426.945 150.922 427.108Q151.055 427.27 151.177 427.441Q151.299 427.611 151.409 427.79Q151.52 427.968 151.618 428.153Q151.717 428.339 151.803 428.53Q151.889 428.721 151.962 428.918Q152.035 429.114 152.095 429.315Q152.156 429.516 152.202 429.721Q152.249 429.925 152.282 430.132Q152.316 430.34 152.335 430.549Q152.355 430.757 152.36 430.967Q152.366 431.177 152.358 431.386Q152.35 431.596 152.328 431.805Q152.306 432.013 152.27 432.22Q152.235 432.427 152.186 432.631Q152.136 432.835 152.074 433.035Q152.012 433.235 151.936 433.431Q151.861 433.627 151.772 433.817Q151.684 434.007 151.583 434.192Q151.483 434.376 151.37 434.553Q151.258 434.73 151.134 434.899Q151.01 435.069 150.875 435.229Q150.741 435.39 150.595 435.542Q150.45 435.693 150.296 435.835Q150.141 435.977 149.977 436.108Q149.813 436.239 149.641 436.359Q149.469 436.479 149.29 436.588Q149.11 436.696 148.924 436.793Q148.738 436.889 148.545 436.973Q148.353 437.057 148.156 437.128Q147.958 437.199 147.757 437.257Q147.555 437.315 147.35 437.36Q147.198 437.393 147.045 437.419Q146.892 437.444 146.738 437.462Q146.584 437.48 146.429 437.491Q146.274 437.501 146.119 437.504Q145.964 437.507 145.809 437.503Q145.654 437.498 145.499 437.486Q145.344 437.474 145.19 437.454Q145.036 437.435 144.884 437.407Q144.731 437.38 144.58 437.346Q144.428 437.311 144.279 437.269Q144.129 437.227 143.982 437.178Q143.835 437.129 143.69 437.073Q143.546 437.017 143.404 436.953Q143.262 436.89 143.124 436.82Q142.985 436.75 142.85 436.673Q142.715 436.597 142.584 436.513Q142.453 436.43 142.327 436.341Q142.2 436.251 142.078 436.156Q141.955 436.06 141.838 435.959Q141.72 435.857 141.608 435.75Q141.496 435.643 141.388 435.531Q141.281 435.419 141.18 435.301Q141.079 435.184 140.983 435.061Q140.887 434.939 140.798 434.812Q140.708 434.686 140.625 434.555Q140.542 434.424 140.465 434.289Q140.388 434.154 140.318 434.016Q140.248 433.877 140.185 433.735Q140.121 433.594 140.065 433.449Q140.009 433.304 139.96 433.157Q139.911 433.01 139.869 432.861Q139.827 432.711 139.792 432.56Q139.757 432.409 139.73 432.256Q139.703 432.103 139.683 431.949Q139.664 431.795 139.651 431.64Q139.639 431.486 139.635 431.331Q139.63 431.175 139.633 431.02Q139.636 430.865 139.646 430.71Q139.657 430.555 139.675 430.401Q139.693 430.247 139.718 430.094Q139.744 429.941 139.777 429.789Q139.81 429.638 139.85 429.488Q139.89 429.338 139.938 429.19Q139.986 429.042 140.04 428.897Q140.095 428.752 140.157 428.609Q140.218 428.467 140.287 428.328Q140.355 428.189 140.431 428.053Q140.506 427.917 140.588 427.785Q140.67 427.653 140.758 427.526Q140.846 427.398 140.94 427.275Q141.035 427.151 141.135 427.033Q141.235 426.914 141.341 426.801Q141.447 426.687 141.558 426.579Q141.669 426.471 141.785 426.368Q141.902 426.265 142.023 426.168Q142.144 426.071 142.27 425.981Q142.396 425.89 142.526 425.805Q142.656 425.72 142.79 425.642Q142.924 425.564 143.062 425.492Q143.2 425.421 143.341 425.356Q143.482 425.291 143.626 425.234Q143.77 425.176 143.916 425.125Q144.063 425.074 144.212 425.031Q144.361 424.987 144.512 424.951Z"/>
	<path fill="#FA988E" transform="matrix(0.195312 0 0 0.195312 0.00195312 -0.000244141)" d="M276.638 104.25Q277.001 104.206 277.366 104.204Q277.732 104.202 278.095 104.242Q278.458 104.282 278.815 104.363Q279.171 104.444 279.516 104.565Q279.861 104.687 280.189 104.847Q280.518 105.007 280.826 105.203Q281.134 105.4 281.417 105.631Q281.701 105.861 281.956 106.123Q282.211 106.385 282.435 106.674Q282.658 106.963 282.847 107.275Q283.036 107.588 283.188 107.921Q283.34 108.253 283.453 108.601Q283.566 108.948 283.639 109.306Q283.711 109.665 283.742 110.029Q283.773 110.393 283.762 110.758Q283.751 111.123 283.698 111.485Q283.663 111.728 283.608 111.967Q283.554 112.207 283.482 112.441Q283.41 112.676 283.319 112.904Q283.229 113.132 283.122 113.353Q283.014 113.574 282.89 113.785Q282.766 113.997 282.625 114.199Q282.485 114.4 282.33 114.59Q282.175 114.78 282.005 114.958Q281.836 115.136 281.653 115.3Q281.47 115.464 281.276 115.613Q281.081 115.762 280.875 115.896Q280.67 116.03 280.454 116.148Q280.239 116.266 280.015 116.367Q279.791 116.467 279.56 116.551Q279.329 116.634 279.093 116.699Q278.856 116.764 278.615 116.811Q278.406 116.852 278.195 116.878Q277.983 116.905 277.771 116.917Q277.558 116.929 277.345 116.928Q277.132 116.926 276.92 116.909Q276.707 116.893 276.496 116.863Q276.286 116.833 276.077 116.788Q275.869 116.744 275.664 116.686Q275.459 116.628 275.259 116.556Q275.058 116.484 274.863 116.399Q274.667 116.314 274.478 116.216Q274.289 116.118 274.107 116.008Q273.925 115.898 273.75 115.776Q273.576 115.653 273.41 115.52Q273.244 115.386 273.088 115.242Q272.931 115.097 272.784 114.943Q272.638 114.788 272.502 114.624Q272.366 114.46 272.242 114.287Q272.117 114.114 272.004 113.934Q271.892 113.753 271.791 113.565Q271.691 113.377 271.603 113.183Q271.516 112.989 271.441 112.789Q271.367 112.59 271.306 112.385Q271.245 112.181 271.198 111.974Q271.151 111.766 271.118 111.555Q271.085 111.345 271.066 111.133Q271.047 110.921 271.042 110.708Q271.037 110.495 271.047 110.282Q271.056 110.069 271.08 109.857Q271.104 109.646 271.142 109.436Q271.18 109.227 271.231 109.02Q271.283 108.813 271.349 108.611Q271.414 108.408 271.493 108.21Q271.572 108.012 271.664 107.82Q271.756 107.628 271.86 107.442Q271.965 107.257 272.082 107.079Q272.198 106.9 272.327 106.73Q272.455 106.561 272.595 106.4Q272.734 106.239 272.884 106.087Q273.034 105.936 273.194 105.795Q273.354 105.654 273.522 105.524Q273.691 105.394 273.868 105.276Q274.045 105.158 274.23 105.051Q274.415 104.945 274.606 104.852Q274.797 104.758 274.994 104.677Q275.192 104.597 275.394 104.529Q275.596 104.462 275.802 104.409Q276.008 104.355 276.217 104.315Q276.427 104.276 276.638 104.25Z"/>
	<path fill="#ADE5F9" transform="matrix(0.195312 0 0 0.195312 0.00195312 -0.000244141)" d="M73.3849 181.325C82.1573 180.519 84.4079 191.321 76.2184 193.497C67.7035 194.242 65.9769 185.083 73.3849 181.325Z"/>
	<path fill="#F9D8A4" transform="matrix(0.195312 0 0 0.195312 0.00195312 -0.000244141)" d="M315.09 425.793C323.819 425.156 325.46 437.049 317.6 438.404C309.809 438.812 307.9 429.811 315.09 425.793Z"/>
	<path fill="#FA988E" transform="matrix(0.195312 0 0 0.195312 0.00195312 -0.000244141)" d="M437.76 337.046Q437.903 337.015 438.047 336.991Q438.192 336.968 438.337 336.951Q438.482 336.934 438.628 336.925Q438.774 336.915 438.921 336.913Q439.067 336.91 439.213 336.915Q439.359 336.92 439.505 336.931Q439.651 336.943 439.796 336.962Q439.941 336.981 440.085 337.007Q440.229 337.033 440.372 337.066Q440.514 337.099 440.655 337.139Q440.796 337.179 440.934 337.226Q441.073 337.273 441.209 337.326Q441.345 337.379 441.479 337.44Q441.612 337.5 441.743 337.566Q441.873 337.633 442 337.705Q442.127 337.778 442.25 337.857Q442.373 337.936 442.492 338.021Q442.612 338.105 442.726 338.196Q442.841 338.286 442.952 338.383Q443.062 338.479 443.168 338.58Q443.273 338.681 443.374 338.787Q443.474 338.894 443.569 339.005Q443.665 339.116 443.754 339.232Q443.844 339.347 443.928 339.467Q444.012 339.587 444.09 339.711Q444.168 339.835 444.239 339.962Q444.311 340.09 444.377 340.22Q444.442 340.351 444.501 340.485Q444.56 340.619 444.613 340.756Q444.665 340.892 444.711 341.031Q444.756 341.17 444.795 341.311Q444.834 341.452 444.866 341.595Q444.898 341.738 444.923 341.882Q444.948 342.026 444.966 342.171Q444.983 342.317 444.994 342.463Q445.005 342.608 445.008 342.755Q445.012 342.901 445.009 343.047Q445.005 343.194 444.994 343.34Q444.984 343.485 444.966 343.631Q444.948 343.776 444.923 343.92Q444.898 344.064 444.866 344.207Q444.834 344.35 444.796 344.491Q444.757 344.632 444.711 344.771Q444.665 344.91 444.613 345.047Q444.561 345.183 444.502 345.317Q444.443 345.451 444.377 345.582Q444.312 345.713 444.24 345.84Q444.168 345.968 444.09 346.092Q444.012 346.216 443.928 346.335Q443.844 346.455 443.755 346.571Q443.665 346.687 443.57 346.798Q443.475 346.909 443.374 347.015Q443.274 347.122 443.168 347.223Q443.063 347.324 442.952 347.42Q442.842 347.516 442.727 347.607Q442.612 347.697 442.493 347.782Q442.374 347.867 442.25 347.946Q442.127 348.025 442 348.098Q441.873 348.171 441.743 348.237Q441.613 348.304 441.479 348.364Q441.346 348.424 441.21 348.477Q441.073 348.531 440.935 348.577Q440.796 348.624 440.655 348.664Q440.515 348.704 440.372 348.737Q440.228 348.77 440.083 348.797Q439.937 348.823 439.791 348.842Q439.644 348.861 439.497 348.873Q439.35 348.884 439.202 348.889Q439.054 348.893 438.906 348.89Q438.759 348.888 438.611 348.878Q438.464 348.867 438.317 348.85Q438.17 348.833 438.025 348.808Q437.879 348.784 437.735 348.752Q437.59 348.72 437.448 348.681Q437.305 348.642 437.165 348.597Q437.024 348.551 436.886 348.498Q436.748 348.446 436.613 348.386Q436.477 348.327 436.345 348.261Q436.213 348.195 436.084 348.122Q435.956 348.05 435.83 347.971Q435.705 347.893 435.584 347.808Q435.463 347.723 435.347 347.632Q435.23 347.542 435.118 347.445Q435.006 347.349 434.898 347.247Q434.791 347.146 434.689 347.039Q434.587 346.932 434.49 346.82Q434.394 346.709 434.303 346.592Q434.212 346.476 434.127 346.355Q434.041 346.234 433.962 346.11Q433.883 345.985 433.81 345.856Q433.737 345.728 433.671 345.596Q433.604 345.464 433.545 345.329Q433.485 345.194 433.432 345.056Q433.378 344.918 433.332 344.777Q433.286 344.637 433.247 344.495Q433.207 344.352 433.175 344.208Q433.143 344.064 433.118 343.918Q433.093 343.773 433.075 343.626Q433.057 343.479 433.046 343.332Q433.036 343.184 433.032 343.037Q433.029 342.889 433.033 342.741Q433.037 342.593 433.048 342.446Q433.059 342.299 433.078 342.152Q433.096 342.006 433.122 341.86Q433.148 341.714 433.181 341.57Q433.213 341.426 433.253 341.284Q433.293 341.142 433.34 341.002Q433.387 340.862 433.441 340.724Q433.495 340.586 433.555 340.451Q433.615 340.316 433.682 340.185Q433.749 340.053 433.823 339.925Q433.896 339.797 433.976 339.672Q434.056 339.548 434.141 339.427Q434.227 339.307 434.319 339.191Q434.41 339.075 434.507 338.964Q434.605 338.852 434.707 338.746Q434.81 338.639 434.917 338.538Q435.025 338.437 435.137 338.341Q435.25 338.245 435.367 338.155Q435.484 338.065 435.605 337.981Q435.727 337.897 435.852 337.818Q435.978 337.74 436.107 337.668Q436.236 337.596 436.368 337.531Q436.501 337.466 436.637 337.407Q436.772 337.348 436.91 337.296Q437.049 337.244 437.189 337.199Q437.33 337.153 437.473 337.115Q437.616 337.077 437.76 337.046Z"/>
</svg>
