<?xml version="1.0" encoding="utf-8" ?>
<svg xmlns="http://www.w3.org/2000/svg" xmlns:xlink="http://www.w3.org/1999/xlink" width="60" height="60">
	<path fill="#274A99" transform="scale(0.117188 0.117188)" d="M439.38 436.743C442.22 436.742 455.227 435.7 457.102 437.603C457.636 439.196 457.228 439.949 455.765 440.691C452.35 440.681 439.757 441.871 437.546 439.451C436.95 437.747 437.888 437.176 439.38 436.743Z"/>
	<path fill="#274A99" transform="scale(0.117188 0.117188)" d="M405.605 436.743C407.159 436.731 435.459 434.836 426.134 440.691C422.639 441.09 406.188 441.21 404.678 440.011C403.989 438.515 404.208 437.611 405.605 436.743Z"/>
	<path fill="#D2DEF7" transform="scale(0.117188 0.117188)" d="M130.111 74.2384C133.544 74.0449 155.899 73.9049 158.078 74.7884C161.721 76.2662 159.851 81.4968 156.784 82.5582C151.5 82.4214 133.571 83.3986 129.621 82.3064C126.527 81.4508 127.071 75.4092 130.111 74.2384Z"/>
	<path fill="#D2DEF7" transform="scale(0.117188 0.117188)" d="M108.193 93.5973C112.583 93.1945 133.971 93.1403 135.713 94.3878C138.369 96.2897 137.841 101.68 132.312 101.915C124.968 101.906 114.016 102.717 107.104 102.147C101.666 101.699 100.499 94.0997 108.193 93.5973Z"/>
	<path fill="#D2DEF7" transform="scale(0.117188 0.117188)" d="M83.5884 74.2384C87.2602 74.0284 116.316 74.0326 117.719 74.4688C121.567 75.665 121.016 81.0419 117.727 82.5582C106.363 82.6027 94.9477 82.7711 83.5884 82.5582C80.0181 80.3366 80.1276 76.3775 83.5884 74.2384Z"/>
	<path fill="#98E4D8" transform="scale(0.117188 0.117188)" d="M84.6676 185.684C84.9553 188.881 84.7044 192.194 84.6782 195.41L84.6961 321.18C84.7174 323.436 84.9417 325.806 84.6676 328.046C84.1905 326.672 83.0766 325.211 82.433 323.843C62.8083 282.133 63.885 227.155 84.6676 185.684Z"/>
	<path fill="#98E4D8" transform="scale(0.117188 0.117188)" d="M426.978 328.046C426.803 326.855 427.023 325.542 427.029 324.333L426.979 216.717C426.979 205.868 426.658 194.931 426.978 184.092C430.823 189.668 432.822 196.546 434.882 202.944C447.193 241.173 447.596 288.933 428.547 325.348C428.074 326.252 427.39 327.133 426.978 328.046Z"/>
	<path fill="#274A99" transform="scale(0.117188 0.117188)" d="M341.613 100.482C348.85 78.6184 370.332 65.7015 392.811 73.4925C425.108 84.6862 429.598 128.017 400.057 146.513C432.051 145.175 425.144 161.397 426.978 184.092C426.658 194.931 426.979 205.868 426.979 216.717L427.029 324.333C427.023 325.542 426.803 326.855 426.978 328.046C425.31 343.374 432.619 362.631 419.748 374.433C425.285 380.401 441.237 394.811 444.711 400.797C452.216 413.728 436.66 429.255 424.07 420.534C421.244 418.576 418.767 415.703 416.378 413.246L404.157 400.481C398.181 394.234 390.247 387.661 385.324 380.7C385.886 378.297 386.855 376.801 388.48 374.972C386.146 372.832 383.994 370.616 381.928 368.213C376.68 370.964 371.394 372.652 365.778 374.433C365.55 375.606 365.446 377.7 365.305 378.24L364.878 378.351C363.386 377.447 361.864 375.731 360.037 375.824L359.641 376.048C361.417 380.249 361.425 386.639 356.911 381.724L356.669 381.843L356.881 382.528C347.522 390.001 335.767 385.338 331.732 387.152L364.052 387.155C366.633 387.153 377.816 386.389 379.328 387.739C381.949 390.081 376.608 391.255 374.96 390.974C363.276 403.149 344.766 417.793 328.372 422.369C333.584 425.967 333.821 430.822 333.91 436.743C338.481 436.95 343.12 436.755 347.7 436.753L383.305 436.733C385.464 436.71 390.729 435.795 390.807 439.169C389.559 441.702 381.666 440.691 379.317 440.693L68.8587 440.694C65.4249 440.718 61.3025 441.178 57.9455 440.541C56.8227 440.328 54.535 439.222 55.9216 437.864C57.8063 436.019 68.364 436.729 71.3104 436.743C67.9452 431.065 69.6399 394.325 69.6384 385.749L69.6363 360.254C69.6347 341.093 65.8866 341.951 84.6676 341.999C84.9522 337.342 85.0985 332.699 84.6676 328.046C84.9417 325.806 84.7174 323.436 84.6961 321.18L84.6782 195.41C84.7044 192.194 84.9553 188.881 84.6676 185.684C86.7727 175.688 80.4866 162.874 90.3071 152.706C97.195 145.575 106.175 146.685 115.24 146.513C118.62 141.17 123.512 136.605 127.903 132.088C163.161 95.8202 214.92 75.4119 265.504 78.3299C288.639 79.6645 321.986 88.2005 341.613 100.482ZM407.709 308.961C407.745 325.924 408.872 346.944 393.243 358.582C396.265 360.18 398.458 362.141 400.795 364.614C402.202 363.389 403.483 361.147 405.334 360.65C409.402 361.117 414.08 368.923 417.75 371.281C423.328 364.935 423.023 359.154 423 351.211L422.973 282.08C421.149 284.593 425.226 303.419 420.337 308.778C420.075 309.066 420.049 309.399 419.968 309.766L419.439 310.036C417.5 309.313 419.867 301.35 418.072 298.573L418.12 297.873C416.736 298.489 417.993 309.903 417.85 312.237L417.623 310.197C417.585 311.97 417.591 313.712 417.708 315.482L417.75 315.401C417.81 319.715 415.958 319.551 416.939 323.54C417.94 327.611 409.808 329.601 410.919 320.998C410.996 320.401 409.073 309.016 407.709 308.961ZM400.057 98.4777C396.097 100.387 385.444 112.022 380.665 115.802L380.284 115.506C377.604 113.409 371.537 105.809 368.701 105.551C361.874 107.662 366.946 112.146 369.412 115.802L369.747 116.037C382.25 124.898 375.194 131.14 390.599 116.309C393.237 113.771 412.813 99.52 400.057 98.4777Z"/>
	<path fill="#FEFEFE" transform="scale(0.117188 0.117188)" d="M383.918 128.219C384.434 130.323 383.911 143.822 383.918 147.136C380.91 147.389 382.432 129.515 383.918 128.219Z"/>
	<path fill="#FEFEFE" transform="scale(0.117188 0.117188)" d="M382.733 108.74C382.816 97.6339 382.599 86.5785 382.431 75.4904L382.733 75.2802C386.18 83.5191 382.377 98.7736 383.918 107.224L382.733 108.74Z"/>
	<path fill="#FEFEFE" transform="scale(0.117188 0.117188)" d="M130.111 427.922L136.713 427.922C136.654 428.742 136.492 429.65 136.713 430.442C136.835 432.817 137.231 434.589 138.238 436.743L128.102 436.743C129.844 433.78 130.104 431.269 130.111 427.922Z"/>
	<path fill="#FEB8B4" transform="scale(0.117188 0.117188)" d="M391.7 360.996C393.366 363.283 395.561 365.282 397.489 367.356C395.834 369.322 393.688 370.905 391.7 372.52C390.566 372.092 386.492 367.631 385.324 366.486C387.317 364.559 389.624 362.85 391.7 360.996Z"/>
	<path fill="#FDE452" transform="scale(0.117188 0.117188)" d="M356.705 198.304C365.422 198.729 365.42 209.406 357.474 211.628C347.905 211.347 347.994 199.924 356.705 198.304Z"/>
	<path fill="#FDE452" transform="scale(0.117188 0.117188)" d="M233.591 211.266C242.68 210.025 244.477 221.765 236.124 224.284C226.984 224.536 224.809 214.112 233.591 211.266Z"/>
	<path fill="#FDE452" transform="scale(0.117188 0.117188)" d="M316.712 220.979C324.432 218.907 327.888 232.161 317.24 233.897C308.548 233.891 307.892 222.504 316.712 220.979Z"/>
	<path fill="#FDE452" transform="scale(0.117188 0.117188)" d="M281.94 245.805C289.212 245.484 290.914 257.545 281.94 259.646C272.339 258.903 272.029 247.629 281.94 245.805Z"/>
	<path fill="#FB7760" transform="scale(0.117188 0.117188)" d="M193.769 235.941C203.201 234.96 205.588 245.802 197.311 249.253C188.495 250.935 185.748 239.267 193.769 235.941Z"/>
	<path fill="#57AC49" transform="scale(0.117188 0.117188)" d="M125.264 425.987L126.091 425.987C126.249 436.468 124.928 437.078 114.541 436.821C107.291 436.642 107.814 431.876 108.193 425.987C113.84 425.989 119.636 426.27 125.264 425.987Z"/>
	<path fill="#5AB2FC" transform="scale(0.117188 0.117188)" d="M73.6138 425.987L78.7218 425.987L92.0093 425.987C92.0882 429.245 93.0072 434.114 89.5049 435.915C85.6731 437.884 76.3175 438.219 73.6138 433.231C73.4664 430.8 73.5226 428.416 73.6138 425.987Z"/>
	<path fill="#F64E4D" transform="scale(0.117188 0.117188)" d="M140.522 424.504C142.333 424.707 144.152 424.801 145.961 424.504L159.251 424.504C159.306 427.414 159.393 430.322 159.251 433.231C157.481 436.232 155.019 437.186 151.537 437.279C139.685 437.595 140.23 435.364 140.522 424.504Z"/>
	<path fill="#FB7760" transform="scale(0.117188 0.117188)" d="M140.522 382.735C142.334 382.709 144.149 382.731 145.961 382.735C145.669 387.351 145.951 392.057 145.957 396.687L145.961 424.504C144.152 424.801 142.333 424.707 140.522 424.504L140.522 382.735Z"/>
	<path fill="#D2DEF7" transform="scale(0.117188 0.117188)" d="M130.111 390.974L136.713 390.974L136.713 430.442C136.492 429.65 136.654 428.742 136.713 427.922L130.111 427.922L130.111 390.974Z"/>
	<path fill="#A9DE72" transform="scale(0.117188 0.117188)" d="M353.499 234.708L362.019 234.708L362.019 270.355C359.177 270.388 356.341 270.406 353.499 270.355L353.499 234.708Z"/>
	<path fill="#77C947" transform="scale(0.117188 0.117188)" d="M108.193 374.433C111.828 374.235 115.459 374.254 119.095 374.433C117.387 374.546 115.704 374.493 113.995 374.433L113.995 425.987C117.626 425.973 121.696 425.487 125.264 425.987C119.636 426.27 113.84 425.989 108.193 425.987C107.694 422.583 108.197 414.729 108.203 410.765L108.193 374.433Z"/>
	<path fill="#FEFEFE" transform="scale(0.117188 0.117188)" d="M162.981 414.045C170.687 416.524 178.309 419.678 186.391 420.57C186.725 420.607 186.606 420.592 186.978 420.74C180.061 424.237 178.216 429.151 178.09 436.743C172.591 437.059 166.898 436.786 161.38 436.743C163.991 431.75 162.946 419.97 162.981 414.045Z"/>
	<path fill="#77C947" transform="scale(0.117188 0.117188)" d="M343.583 234.708L353.499 234.708L353.499 270.355C350.127 270.475 346.9 270.964 343.583 271.536L343.583 234.708Z"/>
	<path fill="#D2DEF7" transform="scale(0.117188 0.117188)" d="M95.829 390.974L104.223 390.974L104.233 419.703C104.228 423.949 103.814 428.358 104.209 432.576C104.347 434.051 105.519 435.469 105.363 436.786L104.223 436.743L93.9902 436.743C97.3096 431.979 95.8482 424.166 95.8431 418.73L95.829 390.974Z"/>
	<path fill="#5AB2FC" transform="scale(0.117188 0.117188)" d="M170.887 283.758L171.429 283.889C172.093 286.031 171.694 294.913 171.695 297.713L171.69 328.046L162.981 328.046L162.981 283.758C165.636 283.97 168.241 284.205 170.887 283.758Z"/>
	<path fill="#A9DE72" transform="scale(0.117188 0.117188)" d="M283.315 279.745L287.262 279.745L287.27 311.89C287.272 317.25 287.518 322.698 287.262 328.046L278.726 328.046C278.19 324.574 278.726 317.672 278.735 313.789L278.726 279.745C280.267 279.809 281.775 279.82 283.315 279.745Z"/>
	<path fill="#4D9FFC" transform="scale(0.117188 0.117188)" d="M153.654 283.758C159.396 283.767 165.146 283.635 170.887 283.758C168.241 284.205 165.636 283.97 162.981 283.758L162.981 328.046L153.654 328.046L153.654 283.758Z"/>
	<defs>
		<linearGradient id="gradient_0" gradientUnits="userSpaceOnUse" x1="71.024948" y1="386.35913" x2="94.127174" y2="384.60318">
			<stop offset="0" stop-color="#A6ECF6"/>
			<stop offset="1" stop-color="#70D7F9"/>
		</linearGradient>
	</defs>
	<path fill="url(#gradient_0)" transform="scale(0.117188 0.117188)" d="M73.6138 346.012L92.0093 346.012L92.0093 349.458C87.5836 349.46 83.1461 349.534 78.7218 349.458L78.7334 407.08C78.7354 412.006 77.8805 421.711 78.7218 425.987L73.6138 425.987C73.6146 399.339 73.3277 372.656 73.6138 346.012Z"/>
	<path fill="#77C947" transform="scale(0.117188 0.117188)" d="M269.21 279.745L283.315 279.745C281.775 279.82 280.267 279.809 278.726 279.745L278.735 313.789C278.726 317.672 278.19 324.574 278.726 328.046C275.553 328.105 272.384 328.077 269.21 328.046L269.21 279.745Z"/>
	<path fill="#FCD730" transform="scale(0.117188 0.117188)" d="M382.733 75.2802C400.561 78.0047 414.55 90.8772 415.838 109.24C411.834 109.23 407.754 109.052 403.758 109.24C410.478 103.366 409.607 96.9887 400.795 93.5973C393.978 96.3506 389.647 102.837 383.918 107.224C382.377 98.7736 386.18 83.5191 382.733 75.2802Z"/>
	<path fill="#FEB8B4" transform="scale(0.117188 0.117188)" d="M145.961 382.735L159.251 382.735L159.251 424.504L145.961 424.504L145.957 396.687C145.951 392.057 145.669 387.351 145.961 382.735Z"/>
	<path fill="#FEB8B4" transform="scale(0.117188 0.117188)" d="M405.605 365.183C408.234 368.04 410.99 370.768 413.652 373.593L434.369 395.229C439.978 401.024 446.999 407.3 439.38 415.775C436.875 411.999 429.888 405.516 426.409 401.964L397.489 372.52C400.522 370.347 403.047 367.873 405.605 365.183Z"/>
	<path fill="#D2DEF7" transform="scale(0.117188 0.117188)" d="M305.592 257.472L324.102 257.472L324.102 280.72C319.1 284.375 314.803 289.114 311.511 294.339C308.999 298.505 307.174 302.661 305.592 307.246C305.799 301.736 305.6 296.158 305.598 290.638L305.592 257.472Z"/>
	<path fill="#A9DE72" transform="scale(0.117188 0.117188)" d="M119.095 374.433L126.091 374.433L126.091 425.987L125.264 425.987C121.696 425.487 117.626 425.973 113.995 425.987L113.995 374.433C115.704 374.493 117.387 374.546 119.095 374.433Z"/>
	<path fill="#FB7760" transform="scale(0.117188 0.117188)" d="M397.489 372.52L426.409 401.964C429.888 405.516 436.875 411.999 439.38 415.775C430.33 424.897 421.926 412.946 416.288 407.08L400.834 391.209C397.263 387.605 393.753 383.889 389.798 380.7C392.047 377.667 395.326 375.587 397.489 372.52Z"/>
	<path fill="#5AB2FC" transform="scale(0.117188 0.117188)" d="M205.614 247.504L209.911 247.504L209.911 328.046C207.153 327.718 204.233 327.968 201.459 328.046C200.644 321.647 201.516 315.515 201.466 309.123C201.319 290.073 201.786 270.992 201.459 251.947L205.614 247.504Z"/>
	<path fill="#4D9FFC" transform="scale(0.117188 0.117188)" d="M192.197 253.164C195.486 253.19 198.405 253.367 201.459 251.947C201.786 270.992 201.319 290.073 201.466 309.123C201.516 315.515 200.644 321.647 201.459 328.046C204.233 327.968 207.153 327.718 209.911 328.046C207.974 328.435 205.481 328.103 203.487 328.082L192.197 328.046L192.197 253.164Z"/>
	<path fill="#FCD730" transform="scale(0.117188 0.117188)" d="M400.057 113.17L415.838 113.17C415.082 131.96 402.224 144.764 383.918 147.136C383.911 143.822 384.434 130.323 383.918 128.219C386.615 127.142 396.34 115.832 400.057 113.17Z"/>
	<path fill="#FCD730" transform="scale(0.117188 0.117188)" d="M229.806 246.927L238.745 246.927C238.921 254.023 238.757 261.132 238.746 268.229L238.693 318.449C238.647 321.628 238.477 324.873 238.745 328.046C235.759 328.112 232.792 328.139 229.806 328.046L229.806 246.927Z"/>
	<path fill="#FB7760" transform="scale(0.117188 0.117188)" d="M343.583 113.17C349.683 113.186 355.952 112.773 362.019 113.17C367.13 118.689 372.49 124.874 378.61 129.252C378.596 135.167 378.951 141.241 378.61 147.136C363.568 145.389 351.829 137.93 346.425 123.044C345.262 119.839 344.626 116.427 343.583 113.17Z"/>
	<path fill="#FDE452" transform="scale(0.117188 0.117188)" d="M238.745 246.927L248.212 246.927L248.212 328.046L238.745 328.046C238.477 324.873 238.647 321.628 238.693 318.449L238.746 268.229C238.757 261.132 238.921 254.023 238.745 246.927Z"/>
	<path fill="#FEB8B4" transform="scale(0.117188 0.117188)" d="M375.994 75.2802L378.61 75.2802L378.61 108.74C372.902 102.018 363.687 96.4628 360.912 109.24L354.625 109.24L343.583 109.24C349.626 90.9358 353.136 79.1095 375.994 75.2802Z"/>
	<path fill="#9DDAF9" transform="scale(0.117188 0.117188)" d="M78.7218 349.458C83.1461 349.534 87.5836 349.46 92.0093 349.458L92.0093 425.987L78.7218 425.987C77.8805 421.711 78.7354 412.006 78.7334 407.08L78.7218 349.458Z"/>
	<path fill="#FEFEFE" transform="scale(0.117188 0.117188)" d="M276.151 390.974L289.246 390.974C290.212 401.453 296.291 412.036 301.832 420.74L237.303 420.74C238.717 418.233 268.507 398.524 274.815 391.569C275.162 391.186 275.664 391.129 276.151 390.974Z"/>
	<path fill="#D2DEF7" transform="scale(0.117188 0.117188)" d="M222.409 390.974L276.151 390.974C275.664 391.129 275.162 391.186 274.815 391.569C268.507 398.524 238.717 418.233 237.303 420.74L208.538 420.74C215.623 411.055 219.51 402.657 222.409 390.974Z"/>
	<path fill="#98E4D8" transform="scale(0.117188 0.117188)" d="M162.981 390.974L218.476 390.974C214.548 404.85 211.436 409.698 203.542 420.74C198.114 420.741 192.375 420.342 186.978 420.74C186.606 420.592 186.725 420.607 186.391 420.57C178.309 419.678 170.687 416.524 162.981 414.045L162.981 390.974Z"/>
	<path fill="#98E4D8" transform="scale(0.117188 0.117188)" d="M293.056 390.974L365.028 390.955C368.298 390.933 371.707 390.698 374.96 390.974C363.276 403.149 344.766 417.793 328.372 422.369C322.91 419.766 313.463 420.723 307.264 420.74C299.523 411.263 296.2 402.62 293.056 390.974Z"/>
	<path fill="#9DDAF9" transform="scale(0.117188 0.117188)" d="M189.109 424.504C195.476 424.266 201.952 424.498 208.328 424.498L294.082 424.499C302.599 424.5 311.157 424.334 319.669 424.569C328.813 424.822 329.746 428.118 329.677 436.743L323.125 436.743L182.159 436.743C182.178 431.089 182.812 426.165 189.109 424.504Z"/>
	<path fill="#9CB0F5" transform="scale(0.117188 0.117188)" d="M353.499 274.717C395.727 271.347 421.357 326.972 389.464 357.405C381.199 365.291 369.803 370.815 358.239 370.568C345.331 372.216 331.094 366.443 321.817 357.612C291.996 329.22 310.9 275.498 353.499 274.717Z"/>
	<path fill="#274A99" transform="scale(0.117188 0.117188)" d="M354.625 280.72C364.302 279.663 374.958 284.304 382.265 290.435C411.85 315.258 396.629 362.261 356.705 365.183L356.452 365.191C333.08 365.753 313.6 347.034 313.014 323.679C312.429 300.366 331.518 281.252 354.625 280.72Z"/>
	<path fill="#9DDAF9" transform="scale(0.117188 0.117188)" d="M351.9 285.101C360.864 283.712 371.72 287.221 378.734 292.797C406.08 314.536 393.01 357.567 358.239 360.996C305.693 361.744 303.838 289.656 351.9 285.101Z"/>
	<path fill="#FEFEFE" transform="scale(0.117188 0.117188)" d="M360.912 287.538C378.457 286.831 396.145 321.39 388.48 324.227C383.482 324.313 384.59 320.901 383.513 316.903C381.379 308.973 377.504 302.736 370.707 298.015C368.527 296.501 353.625 291.481 360.912 287.538Z"/>
	<path fill="#FEFEFE" transform="scale(0.117188 0.117188)" d="M358.239 296.238C374.207 295.8 387.927 326.866 380.665 331.989C379.91 332.081 376.88 332.43 376.476 331.924C373.964 328.777 378.191 312.52 362.795 304.238C359.411 302.418 353.556 300.324 358.239 296.238Z"/>
	<path fill="#98E4D8" transform="scale(0.117188 0.117188)" d="M115.24 146.513C118.62 141.17 123.512 136.605 127.903 132.088C163.161 95.8202 214.92 75.4119 265.504 78.3299C288.639 79.6645 321.986 88.2005 341.613 100.482C338.433 119.553 343.864 137.683 362.019 146.513L115.24 146.513Z"/>
	<defs>
		<linearGradient id="gradient_1" gradientUnits="userSpaceOnUse" x1="78.287659" y1="184.64445" x2="407.10379" y2="344.34622">
			<stop offset="0" stop-color="#E1E6F5"/>
			<stop offset="1" stop-color="#FFFFFE"/>
		</linearGradient>
	</defs>
	<path fill="url(#gradient_1)" transform="scale(0.117188 0.117188)" d="M88.7042 341.999L88.6985 182.733C88.686 157.574 87.0483 150.279 113.602 150.309L344.727 150.324C356.919 150.324 370.006 151.413 381.632 151.258C392.174 151.117 411.252 146.843 419.044 154.768C424.483 160.299 422.981 170.74 422.982 177.784L422.973 282.08C421.149 284.593 425.226 303.419 420.337 308.778C420.075 309.066 420.049 309.399 419.968 309.766L419.439 310.036C417.5 309.313 419.867 301.35 418.072 298.573L418.12 297.873C416.736 298.489 417.993 309.903 417.85 312.237L417.623 310.197C417.585 311.97 417.591 313.712 417.708 315.482L417.75 315.401C417.81 319.715 415.958 319.551 416.939 323.54C417.94 327.611 409.808 329.601 410.919 320.998C410.996 320.401 409.073 309.016 407.709 308.961L407.718 187.541C407.723 165.401 409.351 164.196 384.307 164.198L134.843 164.196C128.074 164.19 121.25 164.01 114.486 164.237C102.382 164.644 104.204 174.31 104.21 183.018L104.211 342.163C104.197 349.151 102.509 360.099 112.414 360.938C119.052 361.501 127.333 360.99 134.16 360.986L319.231 360.996C331.625 369.767 338.405 375.009 355.328 375.008C358.819 375.008 362.313 374.42 365.778 374.433C365.55 375.606 365.446 377.7 365.305 378.24L364.878 378.351C363.386 377.447 361.864 375.731 360.037 375.824L359.641 376.048C361.417 380.249 361.425 386.639 356.911 381.724L356.669 381.843L356.881 382.528C347.522 390.001 335.767 385.338 331.732 387.152L162.981 387.152C163.031 384.823 163.427 381.964 162.104 379.939C158.669 377.773 139.23 378.494 137.678 380.043C136.208 381.51 136.682 385.214 136.713 387.152L130.111 387.152C130.096 382.219 131.817 374.477 128.102 370.568C124.099 370.513 107.309 369.456 104.835 371.956C103.466 373.339 104.221 384.779 104.223 387.152L95.829 387.152C95.6776 372.961 96.0402 358.758 95.829 344.569C95.1736 343.709 94.7477 342.82 93.9902 341.999C92.2358 341.932 90.4608 341.992 88.7042 341.999Z"/>
	<path fill="#FEFEFE" transform="scale(0.117188 0.117188)" d="M113.995 168.075C119.754 167.92 125.54 168.066 131.303 168.07L379.568 168.068C405.301 168.038 403.755 164.991 403.759 188.348L403.758 302.903C396.859 287.206 383.154 274.297 365.778 271.536L365.785 245.675C365.78 227.43 368.75 230.997 351.483 230.838C348.85 230.814 342.147 229.573 340.106 231.32C338.611 239.444 339.439 264.047 339.694 273.041C335.536 274.205 331.755 276.147 327.962 278.159C327.958 270.041 328.367 261.738 327.962 253.638C320.428 253.15 309.46 253.369 301.832 253.638C301.571 256.634 301.779 259.663 301.805 262.666L301.832 328.046L290.996 328.046L290.999 294.051C291.004 290.743 292.074 278.661 290.476 276.44C288.254 275.449 269.147 275.995 265.5 275.996C265.139 281.577 265.49 287.404 265.491 293.017L265.5 328.046L251.981 328.046L251.981 243.283C248.089 243.056 229.208 242.918 226.728 243.772C224.954 245.665 225.99 270.731 225.99 274.615L225.982 328.046L213.82 328.046L213.82 243.283C211.378 243.318 209.007 243.424 206.561 243.283C206.355 241.87 206.023 240.574 205.614 239.21L226.635 224.284C231.679 229.882 237.995 229.176 243.214 224.284C250.864 231.694 263.54 241.173 272.139 247.504C264.066 269.112 299.325 267.694 290.996 248.367C297.487 244.082 304.311 240.43 310.698 235.941C321.406 241.31 327.503 234.908 327.962 224.284C331.117 221.676 344.202 212.623 347.854 211.266C354.194 216.388 362.424 217.729 366.603 208.963C371.059 192.327 345.648 187.634 346.528 207.466C339.33 211.51 332.175 216.13 325.499 220.979C321.056 215.294 312.796 215.059 308.5 221.392C305.804 225.366 306.514 229.498 307.264 233.897C300.955 237.03 295.251 241.472 289.246 245.151C284.39 241.303 279.272 240.957 274.538 245.151C271.291 241.816 267.385 238.95 263.778 236.015L245.03 220.979C250.454 202.975 219.136 203.279 225.043 220.979C217.734 225.586 210.397 230.683 203.542 235.941C194.049 224.434 177.6 240.105 188.28 250.052L188.28 328.046L175.486 328.046L175.486 279.745C166.982 279.563 158.407 279.669 149.9 279.745C149.487 284.828 149.886 290.241 149.889 295.368L149.9 328.046L138.238 328.046L138.226 198.436C138.226 195.74 139.7 176.97 135.913 177.834C132.999 178.499 134.25 187.18 134.247 189.363L134.231 313.066C134.226 337.356 130.84 332.015 157.398 331.99L303.63 331.989C305.406 341.52 309.838 349.507 315.57 357.165L139.553 357.171C134.728 357.172 109.492 359.397 108.545 353.642C107.629 348.074 108.192 340.035 108.191 334.279L108.202 185.46C108.172 178.582 105.462 169.121 113.995 168.075Z"/>
	<path fill="#274A99" transform="scale(0.117188 0.117188)" d="M151.24 207.466C154.473 207.441 182.266 204.751 176.018 211.266C173.187 211.415 144.232 213.978 151.24 207.466Z"/>
	<path fill="#274A99" transform="scale(0.117188 0.117188)" d="M152.638 250.814C156.417 250.807 174.742 250.307 176.851 251.175C178.59 251.891 178.216 254.354 175.486 254.531C170.941 254.537 154.047 255.153 150.96 253.997C148.668 253.139 150.822 251.042 152.638 250.814Z"/>
	<path fill="#274A99" transform="scale(0.117188 0.117188)" d="M151.24 239.21C154.873 239.202 182.527 236.312 176.951 242.905C171.982 243.001 154.319 243.576 150.598 242.593C149.791 241.483 150.356 240.111 151.24 239.21Z"/>
	<path fill="#274A99" transform="scale(0.117188 0.117188)" d="M151.859 263L167.534 262.967C170.035 262.965 175.921 262.051 177.942 263.768C178.608 265.166 178.202 266.07 176.951 266.803L161.591 266.824C159.787 266.835 151.25 267.683 150.396 265.917C149.704 264.485 150.586 263.509 151.859 263Z"/>
	<path fill="#274A99" transform="scale(0.117188 0.117188)" d="M151.24 195.745L182.235 195.732C184.872 195.733 205.584 193.516 200.03 199.49C186.061 199.767 165.364 200.594 151.639 199.43C149.598 199.257 149.687 196.604 151.24 195.745Z"/>
	<path fill="#274A99" transform="scale(0.117188 0.117188)" d="M163.873 184.092L189.854 184.093C192.647 184.09 195.493 183.888 198.274 183.949C199.605 183.978 202.199 185.596 200.845 187.047C199.669 188.307 190.574 187.86 188.28 187.864L166.742 187.834C162.942 187.843 154.089 188.568 150.81 187.506C146.085 182.372 162.298 184.093 163.873 184.092Z"/>
</svg>
