<?xml version="1.0" encoding="utf-8" ?>
<svg xmlns="http://www.w3.org/2000/svg" xmlns:xlink="http://www.w3.org/1999/xlink" width="60" height="60">
	<path fill="#4C5C85" transform="scale(0.117188 0.117188)" d="M323.652 105.737C333.457 105.103 343.596 105.733 353.436 105.734L442.605 105.732C452.711 105.734 466.469 103.072 466.966 117.73C467.186 124.205 467.011 130.736 467.016 137.218L467.011 175.283C467.006 182.33 467.138 189.371 467.035 196.418C466.756 215.363 461.684 216.021 443.991 216.02L424.737 216.004L424.737 362.535C434.137 363.83 444.15 360.964 453.563 362.799C464.827 364.995 456.855 387.349 451.429 392.782C440.791 403.436 429.334 401.003 415.579 400.997L223.062 400.996L73.6777 401.108C55.5075 401.297 44.3631 387.929 44.3591 370.3C44.357 360.982 54.5091 362.518 60.8567 362.521L78.7498 362.535L78.7494 178.945C78.7324 162.44 76.0278 140.015 98.8594 136.416C104.458 135.534 112.015 136.072 117.752 136.074L297.059 136.083C302.827 136.085 308.669 136.309 314.428 136.08C315.156 125.219 310.321 110.27 323.652 105.737ZM105.907 163.054L105.907 340.742L397.254 340.742L397.254 216.004C390.438 215.957 383.613 215.931 376.796 216.004C372.792 218.979 364.163 225.505 361.247 228.733C355.241 232.541 342.599 244.912 336.561 243.904C326.955 242.299 334.815 222.151 335.924 216.004C316.185 216.069 314.436 214.259 314.422 193.919L314.437 174.334C314.451 170.686 314.636 166.965 314.444 163.325L314.428 163.054L105.907 163.054ZM326.193 110.984C316.284 112.416 319.762 127.832 319.765 136.301L319.759 192.659C319.752 197.022 318.293 206.557 322.512 209.468C326.464 212.195 341.061 208.241 341.864 212.08C342.859 216.838 335.582 236.185 337.855 238.948C340.545 239.783 369.663 213.024 375.393 210.781C378.113 209.717 416.027 210.315 422.719 210.316L444.826 210.336C461.582 210.353 461.753 210.449 461.752 191.56L461.739 137.736C461.748 128.926 465.393 112.015 454.505 111.159C447.652 110.62 440.549 110.979 433.664 110.979L349.028 110.979C341.542 110.973 333.626 110.196 326.193 110.984ZM50.2001 368.495C50.2247 374.435 50.501 382.418 55.0378 386.896L55.7337 387.031C58.3728 382.877 58.2057 386.321 62.5749 384.298L62.5144 384.086C51.6437 383.507 89.9504 383.028 92.0002 383.015L177.5 382.404C184.314 382.32 191.099 382.461 197.906 382.529L213.243 382.736C214.279 382.751 215.065 382.394 214.582 381.261C212.117 378.325 208.912 372.084 207.137 368.495L50.2001 368.495ZM295.425 368.495C288.453 381.014 294.487 381.327 280.25 381.271L217.683 381.261C217.013 381.75 216.272 381.626 215.453 381.671C223.201 382.181 231.853 381.75 239.707 381.751L287.996 381.736C288.081 384.395 305.761 382.357 309.765 382.314L387.549 382.013C400.19 381.955 435.758 380.067 446.297 383.722C447.804 384.244 447.931 385.435 448.189 386.795C448.951 385.814 449.824 384.35 450.957 383.808C452.857 378.687 453.117 373.83 453.85 368.495C448.335 368.818 442.637 368.499 437.106 368.497L295.425 368.495Z"/>
	<path fill="#DEDDDF" transform="scale(0.117188 0.117188)" d="M213.754 368.495C223.01 368.726 232.326 368.494 241.59 368.494L288.742 368.495C288.195 370.271 287.644 371.961 286.811 373.625L285.738 375.773L217.683 375.773L213.754 368.495Z"/>
	<defs>
		<linearGradient id="gradient_0" gradientUnits="userSpaceOnUse" x1="250.73071" y1="395.32761" x2="250.7755" y2="381.21448">
			<stop offset="0" stop-color="#C5D3E0"/>
			<stop offset="1" stop-color="#F9F8F4"/>
		</linearGradient>
	</defs>
	<path fill="url(#gradient_0)" transform="scale(0.117188 0.117188)" d="M214.582 381.261L217.683 381.261C217.013 381.75 216.272 381.626 215.453 381.671C223.201 382.181 231.853 381.75 239.707 381.751L287.996 381.736C288.081 384.395 305.761 382.357 309.765 382.314L387.549 382.013C400.19 381.955 435.758 380.067 446.297 383.722C447.804 384.244 447.931 385.435 448.189 386.795C448.951 385.814 449.824 384.35 450.957 383.808C443.165 395.952 436.297 395.529 423.598 395.467L100.458 395.459C88.0112 395.468 62.4547 399.157 55.0378 386.896L55.7337 387.031C58.3728 382.877 58.2057 386.321 62.5749 384.298L62.5144 384.086C51.6437 383.507 89.9504 383.028 92.0002 383.015L177.5 382.404C184.314 382.32 191.099 382.461 197.906 382.529L213.243 382.736C214.279 382.751 215.065 382.394 214.582 381.261Z"/>
	<path fill="#9BABC2" transform="scale(0.117188 0.117188)" d="M107.049 141.915L291.28 141.913C298.99 141.912 306.72 141.778 314.428 141.915L314.428 157.698L124.637 157.71C120.685 157.715 103.726 156.583 101.065 158.376C99.442 162.468 100.272 168.393 100.271 172.695L100.272 330.8C100.267 344.628 96.851 346.242 109.221 346.245L373.634 346.248L400.202 346.248C404.693 343 402.923 332.875 402.919 327.432L402.909 216.004C408.243 216.209 413.668 216.012 419.01 216.004L419.01 362.535L121.224 362.535C109.023 362.535 96.7181 362.898 84.5309 362.535L84.5238 178.548C84.5252 158.794 81.758 142.142 107.049 141.915Z"/>
	<path fill="#4C5C85" transform="scale(0.117188 0.117188)" d="M328 202.713C327.735 196.561 327.988 190.278 327.992 184.114L328.001 147.49C328.001 142.373 324.776 115.502 330.988 119.17L330.988 180.593L331.405 181.508C339.977 180.985 348.787 181.178 357.396 181.226C360.661 186.206 368.735 193.83 374.457 195.63C377.912 197.699 382.881 197.957 385.563 199.774C388.729 199.629 391.846 199.57 395.013 199.774C396.011 198.949 406.006 196.07 409.733 193.945C415.214 191.211 420.208 186.222 423.644 181.226C426.966 180.892 430.406 181.189 433.748 181.21L450.957 181.226L450.957 119.17C455.509 118.347 453.774 122.26 453.819 125.362C453.918 132.027 453.847 138.702 453.848 145.369L453.85 202.713C449.365 203.019 444.674 202.732 440.172 202.724L328 202.713Z"/>
	<path fill="#EFBF53" transform="scale(0.117188 0.117188)" d="M330.988 180.593L331.405 181.508C339.977 180.985 348.787 181.178 357.396 181.226C360.661 186.206 368.735 193.83 374.457 195.63C377.912 197.699 382.881 197.957 385.563 199.774C379.598 200.146 373.438 199.787 367.448 199.779L330.988 199.774L330.988 180.593Z"/>
	<path fill="#EFBF53" transform="scale(0.117188 0.117188)" d="M423.644 181.226C426.966 180.892 430.406 181.189 433.748 181.21L450.957 181.226L450.957 199.774L400.309 199.77C398.591 199.77 396.71 199.953 395.013 199.774C396.011 198.949 406.006 196.07 409.733 193.945C415.214 191.211 420.208 186.222 423.644 181.226Z"/>
	<path fill="#FAD96F" transform="scale(0.117188 0.117188)" d="M330.988 119.17L450.957 119.17L450.957 181.226L433.748 181.21C430.406 181.189 426.966 180.892 423.644 181.226C443.072 148.869 415.172 112.507 380.975 121.379C355.326 128.033 341.399 158.618 357.396 181.226C348.787 181.178 339.977 180.985 331.405 181.508L330.988 180.593L330.988 119.17Z"/>
	<path fill="#4C5C85" transform="scale(0.117188 0.117188)" d="M357.396 181.226C341.399 158.618 355.326 128.033 380.975 121.379C415.172 112.507 443.072 148.869 423.644 181.226C420.208 186.222 415.214 191.211 409.733 193.945C406.006 196.07 396.011 198.949 395.013 199.774C391.846 199.57 388.729 199.629 385.563 199.774C382.881 197.957 377.912 197.699 374.457 195.63C368.735 193.83 360.661 186.206 357.396 181.226ZM389.435 132.684C389.926 138.441 386.123 139.613 384.218 133.587C381.574 134.062 379.26 135.045 376.796 136.08C379.035 141.705 376.56 144.965 372.453 139.491C370.315 141.456 368.217 143.435 366.845 146.034C372.06 148.268 371.341 151.744 365.242 150.298C364.036 152.783 363.21 154.888 363.257 157.698C368.617 158.592 369.53 162.099 363.257 163.054C363.851 165.519 364.4 168 365.242 170.394C370.167 168.946 373.605 171.145 368.112 175.088C369.553 177.564 371.231 179.067 373.634 180.593C377.115 175.325 379.861 177.963 377.923 183.614C380.435 184.922 382.835 185.972 385.563 186.729C386.26 181.522 390.546 179.755 390.768 185.807L390.815 186.472C392.332 187.379 397.58 186.081 399.437 185.807C397.473 179.038 401.409 176.975 404.465 183.614C407.016 181.541 409.538 179.442 411.793 177.042C405.279 173.192 409.176 170.737 415.543 172.835C415.77 170.096 416.52 168.152 417.684 165.684C411.91 164.665 411.425 160.549 418.249 161.26C418.277 158.387 418.009 155.643 417.684 152.796C411.661 153.988 409.398 150.545 415.543 148.27C414.657 145.932 413.351 143.865 411.793 141.915C408.005 146.179 404.536 143.537 408.541 139.491C406.766 137.775 405.111 136.603 402.909 135.497C399.399 140.744 395.314 139.446 398.068 133.587C395.117 132.864 392.466 132.672 389.435 132.684ZM357.396 181.226C360.661 186.206 368.735 193.83 374.457 195.63C375.336 195.588 375.957 196.091 376.773 196.05C376.23 194.184 382.147 192.667 379.17 189.885C356.113 179.52 349.998 150.625 370.199 134.456C384.413 123.079 405.591 125.972 416.618 140.182C429.239 156.446 422.763 175.925 407.581 187.477C407.02 188.385 406.202 188.613 405.251 189.003L405.691 188.928L404.939 189.196C409.054 190.092 406.386 193.715 409.416 193.926L409.733 193.945C415.214 191.211 420.208 186.222 423.644 181.226C443.072 148.869 415.172 112.507 380.975 121.379C355.326 128.033 341.399 158.618 357.396 181.226Z"/>
	<path fill="#DEDDDF" transform="scale(0.117188 0.117188)" d="M407.581 187.477C407.02 188.385 406.202 188.613 405.251 189.003L405.691 188.928L404.939 189.196C409.054 190.092 406.386 193.715 409.416 193.926L409.733 193.945C406.006 196.07 396.011 198.949 395.013 199.774C391.846 199.57 388.729 199.629 385.563 199.774C382.881 197.957 377.912 197.699 374.457 195.63C375.336 195.588 375.957 196.091 376.773 196.05C376.23 194.184 382.147 192.667 379.17 189.885C389.933 193.724 397.526 191.605 407.581 187.477Z"/>
	<path fill="#EC776B" transform="scale(0.117188 0.117188)" d="M389.435 146.034C400.771 139.784 416.107 167.094 393.021 173.878C373.906 176.976 369.737 146.201 389.435 146.034ZM389.998 150.298C378.51 152.814 379.276 169.375 392.064 168.706C403.706 165.733 401.877 150.154 389.998 150.298Z"/>
	<path fill="#92D5F0" transform="scale(0.117188 0.117188)" d="M314.428 163.054L314.444 163.325C314.636 166.965 314.451 170.686 314.437 174.334L314.422 193.919C314.436 214.259 316.185 216.069 335.924 216.004C334.815 222.151 326.955 242.299 336.561 243.904C342.599 244.912 355.241 232.541 361.247 228.733C361.505 233.619 361.244 238.664 361.243 243.564L361.275 293.245C361.301 298.564 362.452 304.757 358.708 309.125C354.617 313.898 338.892 312.254 332.769 312.257L281.103 312.258C273.863 312.256 262.474 313.762 262.266 303.115C262.13 296.113 262.293 289.078 262.295 282.072L262.263 216.105C262.242 196.093 263.393 198.055 284.541 198.115L314.428 198.128L314.419 174.952C314.412 171.015 314.185 166.98 314.428 163.054ZM298.187 237.589C285.14 238.793 288.79 255.287 288.772 264.36C288.759 271.579 286.529 288.427 299.405 286.781C301.688 286.489 314.308 280.112 317.373 278.491C322.865 275.809 333.299 272.302 335.395 266.101C339.367 254.352 325.202 249.982 317.421 246.086C311.369 243.056 305.063 238.259 298.187 237.589Z"/>
	<path fill="#4C5C85" transform="scale(0.117188 0.117188)" d="M273.47 208.772L292.745 208.756C295.778 208.754 299.186 208.438 302.168 208.902C306.127 209.517 305.483 212.829 302.688 214.442C299.902 214.708 273.722 214.664 272.369 214.138C269.465 213.008 271.084 209.435 273.47 208.772Z"/>
	<path fill="#4C5C85" transform="scale(0.117188 0.117188)" d="M272.566 221.955C280.973 221.756 302.261 220.883 310.068 222.167C313.105 222.667 313.041 226.07 310.751 227.439L284.472 227.444C280.759 227.449 276.564 227.926 272.912 227.399C269.906 226.966 270.602 223.243 272.566 221.955Z"/>
	<path fill="#4C5C85" transform="scale(0.117188 0.117188)" d="M341.997 293.914C343.791 293.845 353.933 294.122 349.59 298.184C347.183 300.435 342.218 299.551 339.228 299.551L279.938 299.557C269.754 300.111 271.482 294.524 275.333 294.087C281.505 293.385 290.721 293.922 297.237 293.923L341.997 293.914Z"/>
	<path fill="#EC776B" transform="scale(0.117188 0.117188)" d="M298.187 244.066C303.343 244.891 311.751 250.688 316.724 253.212C320.778 255.269 331.185 257.923 329.239 264.182C328.414 266.836 320.765 269.605 318.182 270.856L307.39 276.283C304.239 277.902 296.003 283.619 295.492 276.625C295.072 270.872 292.789 246.177 298.187 244.066Z"/>
	<path fill="#4C5C85" transform="scale(0.117188 0.117188)" d="M153.038 187.477C158.48 187.198 164.092 187.465 169.55 187.469L224.073 187.466C247.856 187.386 250.447 190.01 250.445 216.073L250.424 293.064C250.421 301.039 250.602 309.042 250.458 317.013C250.274 327.262 243.204 318.027 240.601 314.914C239.886 314.309 239.241 313.574 238.581 312.908L160.098 312.924C149.712 312.932 138.733 312.774 136.331 299.192C135.521 294.616 136.005 289.339 136.013 284.685L136.021 222.692C136.018 208.285 133.242 190.533 153.038 187.477ZM155.38 192.962C137.981 194.869 141.641 213.787 141.644 226.351L141.637 285.807C141.631 304.24 141.959 307.628 160.547 307.532L236.313 307.499C237.767 307.413 239.147 307.35 240.601 307.499C242.208 308.971 243.613 310.613 245.046 312.25C245.184 304.188 245.045 296.11 245.043 288.046L245.053 216.564C245.066 196.729 246.488 192.966 225.72 192.957L155.38 192.962Z"/>
	<path fill="#DEDDDF" transform="scale(0.117188 0.117188)" d="M209.975 213.136C214.529 213.131 241.777 209.427 234.531 219.869C231.983 220.883 226.031 220.285 223.062 220.258L207.127 220.259C204.87 220.262 202.525 220.447 200.279 220.317C197.568 220.159 195.733 216.455 197.816 214.474C200.034 212.365 206.889 213.14 209.975 213.136Z"/>
	<path fill="#DEDDDF" transform="scale(0.117188 0.117188)" d="M198.588 231.763L219.748 231.751C224.858 231.742 240.179 229.336 234.789 239.025C227.783 239.818 208.484 239.469 201.369 238.924C196.569 238.557 195.906 235.303 198.588 231.763Z"/>
	<path fill="#DEDDDF" transform="scale(0.117188 0.117188)" d="M154.46 287.706C160.977 287.623 230.554 286.834 233.856 287.986C237.577 289.284 236.033 293.934 232.829 294.763L180.397 294.763C171.966 294.763 163.397 295.085 154.981 294.78C150.257 294.609 149.816 288.701 154.46 287.706Z"/>
	<path fill="#DEDDDF" transform="scale(0.117188 0.117188)" d="M173.314 250.627L213.55 250.626C216.196 250.626 242.845 247.758 234.328 256.935C232.753 258.632 227.541 257.865 225.455 257.866L212.688 257.853L173.594 257.849C168.026 257.853 161.803 258.349 156.324 257.928C149.689 257.417 146.463 250.628 161.04 250.62L173.314 250.627Z"/>
	<path fill="#DEDDDF" transform="scale(0.117188 0.117188)" d="M160.941 269.15L210.643 269.147C219.424 269.146 239.032 264.644 234.789 276.535C231.756 276.488 228.721 276.524 225.687 276.535L187.513 276.541C181.61 276.542 156.854 277.29 152.427 275.636C146.114 269.058 157.951 269.164 160.941 269.15Z"/>
	<path fill="#4C5C85" transform="scale(0.117188 0.117188)" d="M154.46 204.679L173.16 204.664C178.143 204.662 186.04 202.791 186.468 209.141C186.804 214.12 186.439 219.297 186.414 224.295C186.393 228.583 188.389 238.273 183.688 240.424C175.292 240.826 164.111 240.78 155.59 240.513C151.817 240.395 151.325 238.546 151.124 235.335C150.918 232.059 150.708 208.426 151.412 206.755C151.89 205.622 153.416 205.118 154.46 204.679Z"/>
	<path fill="#FAD96F" transform="scale(0.117188 0.117188)" d="M156.739 210.316C163.202 210.042 174.879 209.75 181.219 210.316L181.219 234.979L156.739 234.979L156.739 210.316Z"/>
	<path fill="#4C5C85" transform="scale(0.117188 0.117188)" d="M168.214 217.263C178.733 216.226 181.561 233.346 169.877 221.955C169.502 221.981 158.41 229.836 160.368 222.893C161.035 220.527 166.101 218.365 168.214 217.263Z"/>
</svg>
