<?xml version="1.0" encoding="utf-8" ?>
<svg xmlns="http://www.w3.org/2000/svg" xmlns:xlink="http://www.w3.org/1999/xlink" width="60" height="60">
	<path fill="#FDAA3B" transform="scale(0.117188 0.117188)" d="M366.669 232.071C368.247 233.357 370.425 233.738 371.864 235.183C372.021 237.08 367.479 245.114 366.122 246.762C364.608 247.218 362.212 245.472 360.856 244.701C360.609 243.483 365.604 233.279 366.669 232.071Z"/>
	<path fill="#FDAA3B" transform="scale(0.117188 0.117188)" d="M298.358 233.209C298.901 233.711 302.746 241.87 303.588 243.363L303.531 243.682L303.262 243.81C301.472 245.103 299.608 246.449 297.604 247.384C295.156 243.916 293.165 240.586 291.737 236.579C293.998 235.538 296.175 234.4 298.358 233.209Z"/>
	<path fill="#FDAA3B" transform="scale(0.117188 0.117188)" d="M360.856 193.264C363.644 196.134 366.905 199.625 368.595 203.275C367.016 204.754 365.343 206.206 363.554 207.427C360.955 204.851 357.752 200.803 355.043 197.913C356.887 196.313 358.731 194.478 360.856 193.264Z"/>
	<path fill="#FDAA3B" transform="scale(0.117188 0.117188)" d="M324.964 258.305C327.717 258.039 337.29 257.274 338.739 258.305C338.719 260.446 338.891 262.658 338.739 264.784C334.203 264.85 329.488 265.142 324.964 264.784L324.964 258.305Z"/>
	<path fill="#FDAA3B" transform="scale(0.117188 0.117188)" d="M343.259 257.318L343.482 256.759C344.369 255.938 354.864 249.805 356.079 249.353C357.047 250.631 358.391 252.028 358.902 253.54C358.631 255.175 350.444 260.584 348.392 261.894C346.678 260.442 345.188 258.411 343.259 257.318Z"/>
	<path fill="#FDAA3B" transform="scale(0.117188 0.117188)" d="M289.544 213.287C291.852 213.634 294.16 213.954 296.476 214.246C296.534 215.984 296.815 225.434 296.274 226.285L296.052 226.324C293.876 226.789 291.707 227.287 289.544 227.808C289.216 222.928 289.474 218.161 289.544 213.287Z"/>
	<path fill="#FDAA3B" transform="scale(0.117188 0.117188)" d="M366.669 213.287C374.275 213.317 375.467 215.302 373.833 225.207C373.479 227.353 369.36 227.316 367.706 227.808C366.921 226.855 366.224 215.577 366.239 213.556L366.669 213.287Z"/>
	<path fill="#FDAA3B" transform="scale(0.117188 0.117188)" d="M304.274 255.268C305.443 253.123 306.709 251.201 308.312 249.353C311.305 252.302 315.876 253.101 318.689 256.327C315.415 266.37 312.065 261.373 304.274 255.268Z"/>
	<path fill="#616DAF" transform="scale(0.117188 0.117188)" d="M382.752 291.259L392.24 291.259L392.24 306.805C388.888 306.714 385.951 306.911 382.752 307.983C382.477 302.455 382.736 296.799 382.752 291.259Z"/>
	<path fill="#616DAF" transform="scale(0.117188 0.117188)" d="M345.344 394.758C347.86 399.273 357.569 407.204 361.53 412.123C359.314 414.258 357.167 416.442 355.043 418.667C349.205 413.35 343.73 407.564 338.089 402.033C340.233 399.398 342.873 397.083 345.344 394.758Z"/>
	<path fill="#616DAF" transform="scale(0.117188 0.117188)" d="M323.242 349.015L336.032 349.015C336.421 350.42 336.031 370.348 336.032 373.73C332.466 373.705 328.494 373.327 324.964 373.73C321.745 374.185 323.206 368.271 323.213 365.437L323.242 349.015Z"/>
	<path fill="#616DAF" transform="scale(0.117188 0.117188)" d="M355.043 302.165C357.287 305.069 360.208 307.088 361.872 310.441C358.848 313.151 343.243 326.064 346.294 329.289C348.454 330.334 350.336 331.398 352.167 332.955C349.746 338.036 346.654 343.295 346.294 349.015C343.752 349.137 341.281 349.238 338.739 349.015C340.073 344.19 341.647 339.313 344.113 334.93C345.14 333.104 347.712 331.254 346.294 329.289C343.276 326.82 340.241 323.43 338.089 320.176C338.143 320.094 338.195 320.01 338.25 319.929L338.53 319.525C341.586 315.074 350.784 306.408 355.043 302.165Z"/>
	<path fill="#0083C7" transform="scale(0.117188 0.117188)" d="M51.1363 391.238C52.9932 391.244 54.8526 391.27 56.709 391.238L55.664 391.486C55.0812 393.792 55.4263 411.733 55.8602 414.616C56.8894 421.452 62.0289 425.817 67.7488 429.189C66.2587 429.178 64.7119 429.087 63.2283 429.189C41.9433 426.96 43.0777 408.086 43.4921 391.238C46.0437 391.314 48.5848 391.282 51.1363 391.238Z"/>
	<path fill="#F46F45" transform="scale(0.117188 0.117188)" d="M369.241 150.012C372.752 149.045 375.737 149.134 379.245 150.012C389.604 156.009 387.284 164.492 387.229 174.875L361.872 174.875C361.623 164.517 360.052 156.993 369.241 150.012Z"/>
	<path fill="#4D5770" transform="scale(0.117188 0.117188)" d="M241.24 356.675L307.458 356.675L307.458 367.24L241.24 367.24L241.24 356.675Z"/>
	<path fill="#74D6AF" transform="scale(0.117188 0.117188)" d="M241.24 219.128L244.4 219.128C244.461 222.02 244.417 224.915 244.4 227.808C232.364 227.647 220.304 227.808 208.265 227.806L144.282 227.808C139.096 232.575 141.198 244.604 141.225 251.084C139.113 251.219 137.078 251.215 134.964 251.084L132.264 251.084L132.229 240.217C132.184 221.492 137.243 219.052 154.826 219.1L241.24 219.128Z"/>
	<path fill="#74D6AF" transform="scale(0.117188 0.117188)" d="M265.85 222.437C268.778 222.551 276.74 233.869 278.503 236.566C281.65 241.38 272.615 240.249 270.272 240.225L270.291 279.55C270.363 305.245 269.302 302.155 292.908 302.152L327.752 302.165L327.752 310.441L323.242 310.441L290.612 310.447C285.992 310.448 279.027 311.018 274.658 310.12C258.801 306.861 261.927 289.613 261.931 277.848L261.941 240.225C258.706 240.044 255.445 240.446 252.221 240.137L252.171 239.75C254.028 236.284 263.517 224.11 265.85 222.437Z"/>
	<path fill="#74D6AF" transform="scale(0.117188 0.117188)" d="M379.245 133.118C400.046 133.667 399.983 146.803 399.986 163.294L399.981 247.854C399.983 256.642 400.715 265.832 399.979 274.569C388.122 286.708 389.499 264.3 389.498 259.095L389.498 171.8C389.497 160.14 394.32 144.128 380.045 143.855L379.245 143.841C379.384 140.304 379.356 136.654 379.245 133.118Z"/>
	<path fill="#94A3E2" transform="scale(0.117188 0.117188)" d="M109.601 161.25C112.75 161.056 116.019 161.237 119.179 161.238L196.528 161.25L196.528 170.873L138.752 170.879C131.573 170.879 108.651 168.094 105.645 174.028C106.025 182.402 105.651 190.969 105.648 199.364L105.645 251.084L95.9183 251.084L95.8926 186.2C95.847 173.994 95.4648 164.501 109.601 161.25Z"/>
	<path fill="#FEC75D" transform="scale(0.117188 0.117188)" d="M351.099 195.378C352.939 195.705 353.999 196.383 355.043 197.913C357.752 200.803 360.955 204.851 363.554 207.427C364.322 208.979 365.267 212.471 366.669 213.287L366.239 213.556C366.224 215.577 366.921 226.855 367.706 227.808C367.657 229.206 367.053 230.724 366.669 232.071C365.604 233.279 360.609 243.483 360.856 244.701C359.365 246.254 357.831 248.103 356.079 249.353C354.864 249.805 344.369 255.938 343.482 256.759L343.259 257.318C341.907 257.667 340.108 258.373 338.739 258.305C337.29 257.274 327.717 258.039 324.964 258.305C323.078 258.416 320.316 257.23 318.689 256.327C315.876 253.101 311.305 252.302 308.312 249.353C306.518 247.849 304.897 245.542 303.262 243.81L303.531 243.682L303.588 243.363C302.746 241.87 298.901 233.711 298.358 233.209C297.247 231.164 297.443 228.069 296.052 226.324L296.274 226.285C296.815 225.434 296.534 215.984 296.476 214.246L298.358 210.357C315.399 205.809 335.415 209.442 351.099 195.378ZM328.639 208.335C308.172 211.038 312.917 243.015 334.425 239.455L334.689 239.409C353.789 234.198 350.696 206.669 328.639 208.335Z"/>
	<path fill="#4CAFF9" transform="scale(0.117188 0.117188)" d="M223.474 391.238C227.379 391.287 231.284 391.254 235.189 391.238L235.199 403.118C235.143 432.061 221.654 429.197 197.739 429.197L73.549 429.194C70.1992 429.207 66.5353 429.707 63.2283 429.189C64.7119 429.087 66.2587 429.178 67.7488 429.189C62.0289 425.817 56.8894 421.452 55.8602 414.616C55.4263 411.733 55.0812 393.792 55.664 391.486L56.709 391.238L67.7488 391.238C72.9141 391.237 115.957 390.795 116.992 391.687L117.009 392.19C117.774 390.276 153.005 391.113 158.258 391.238C164.922 391.668 172.537 391.239 179.316 391.237L223.474 391.238Z"/>
	<path fill="#353D49" transform="scale(0.117188 0.117188)" d="M117.009 392.19C117.774 390.276 153.005 391.113 158.258 391.238L158.258 407.092L117.009 407.092L117.009 392.19Z"/>
	<path fill="#4D5770" transform="scale(0.117188 0.117188)" d="M212.631 133.118C216.739 133.569 220.447 135.923 224.3 137.261L261.077 149.997C291.982 160.89 283.843 158.332 316.823 146.438L338.607 138.813C340.201 138.242 353.155 132.997 354.023 133.118L354.023 150.012L354.031 179.53C354.042 185.31 355.541 190.787 351.099 195.378C335.415 209.442 315.399 205.809 298.358 210.357C274.567 208.806 234.475 212.661 216.785 194.954C210.519 188.682 212.616 180.924 212.618 172.74L212.631 138.813C212.591 136.918 212.629 135.014 212.631 133.118Z"/>
	<path fill="#353D49" transform="scale(0.117188 0.117188)" d="M212.631 133.118C216.739 133.569 220.447 135.923 224.3 137.261L261.077 149.997C291.982 160.89 283.843 158.332 316.823 146.438L338.607 138.813C340.201 138.242 353.155 132.997 354.023 133.118L354.023 150.012C350.662 150.138 346.6 152.306 343.349 153.313L305.096 165.467C281.888 172.668 286.755 172.769 264.072 165.112C257.802 162.996 217.12 149.21 212.631 150.012C212.629 148.255 213.103 139.693 212.631 138.813C212.591 136.918 212.629 135.014 212.631 133.118Z"/>
	<path fill="#4D5770" transform="scale(0.117188 0.117188)" d="M282.913 77.4102C288.435 78.9642 293.882 80.9604 299.325 82.7775L381.536 110.375C397.481 115.86 404.258 116.91 379.245 124.215C378.636 126.686 378.728 130.599 379.245 133.118C379.356 136.654 379.384 140.304 379.245 143.841C378.952 145.958 379.113 147.891 379.245 150.012C375.737 149.134 372.752 149.045 369.241 150.012C368.814 142.823 369.23 135.347 369.241 128.125C365.035 129.773 358.778 132.299 354.373 132.806L354.023 133.118C353.155 132.997 340.201 138.242 338.607 138.813L316.823 146.438C283.843 158.332 291.982 160.89 261.077 149.997L224.3 137.261C220.447 135.923 216.739 133.569 212.631 133.118C207.591 131.871 174.543 120.659 173.867 117.719C172.762 112.916 192.295 108.678 196.098 107.382L261.528 84.726C268.589 82.1899 275.691 79.4569 282.913 77.4102Z"/>
	<path fill="#F46F45" transform="scale(0.117188 0.117188)" d="M297.604 119.668C286.567 134.093 271.365 126.621 272.363 114.119C273.362 101.606 287.873 97.8353 296.476 108.61C297.75 112.567 297.954 115.524 297.604 119.668Z"/>
	<path fill="#FEC75D" transform="scale(0.117188 0.117188)" d="M296.476 108.61L359.98 108.604C372.598 108.615 379.521 109.595 379.245 124.215C378.636 126.686 378.728 130.599 379.245 133.118C379.356 136.654 379.384 140.304 379.245 143.841C378.952 145.958 379.113 147.891 379.245 150.012C375.737 149.134 372.752 149.045 369.241 150.012C368.814 142.823 369.23 135.347 369.241 128.125C369.271 125.687 369.756 122.185 368.585 120.009C366.712 118.652 347.695 119.665 344.202 119.665L297.604 119.668C297.954 115.524 297.75 112.567 296.476 108.61Z"/>
	<path fill="#94A3E2" transform="scale(0.117188 0.117188)" d="M392.24 291.259L408.278 291.259L408.278 307.983C414.507 309.271 420.087 311.473 425.468 314.872C429.328 311.538 432.436 307.203 436.506 304.132C441.699 309.572 447.694 316.389 453.634 321C450.449 324.555 447.051 328.436 443.286 331.38C447.15 338.253 448.923 344.603 452.084 350.401C457.638 350.62 463.202 350.084 468.747 350.401L468.747 373.73L452.084 373.73C449.715 381.577 447.93 384.244 444.808 391.238C448.715 394.513 452.453 398.322 455.954 402.033C452.275 405.603 447.675 409.317 444.808 413.547C442.362 415.287 440.44 417.248 438.402 419.433C434.078 415.96 429.165 412.288 425.468 408.16C419.376 410.568 414.88 413.249 408.278 414.748L408.278 430.415C402.823 430.421 394.683 431.118 389.503 430.415C387.052 430.186 384.677 430.241 382.223 430.415C382.237 425.193 382.29 419.969 382.223 414.748C382.005 414.384 367.874 407.675 366.669 407.092C364.859 408.651 363.212 410.428 361.53 412.123C357.569 407.204 347.86 399.273 345.344 394.758C346.354 393.895 347.363 393.032 348.392 392.19C344.502 384.858 342.452 382.835 340.057 373.73C338.158 373.258 328.065 373.949 324.964 373.73C328.494 373.327 332.466 373.705 336.032 373.73C336.031 370.348 336.421 350.42 336.032 349.015L338.739 349.015C341.281 349.238 343.752 349.137 346.294 349.015C346.654 343.295 349.746 338.036 352.167 332.955C350.336 331.398 348.454 330.334 346.294 329.289C343.243 326.064 358.848 313.151 361.872 310.441C364.178 311.579 365.818 313.15 367.706 314.872C372.464 311.786 377.213 309.327 382.752 307.983C385.951 306.911 388.888 306.714 392.24 306.805L392.24 291.259ZM394.56 325.849C348.01 330.51 352.708 399.825 401.312 396.718C433.206 393.721 443.638 353.037 418.624 333.063C412.354 328.057 402.644 324.434 394.56 325.849Z"/>
	<path fill="#616DAF" transform="scale(0.117188 0.117188)" d="M340.057 373.73C342.135 373.786 344.218 373.882 346.294 373.73C347.792 379.158 350.056 383.921 353.084 388.656C352.113 389.398 349.39 391.912 348.392 392.19C344.502 384.858 342.452 382.835 340.057 373.73Z"/>
	<path fill="#616DAF" transform="scale(0.117188 0.117188)" d="M433.386 402.033C436.887 406.102 440.656 410.138 444.808 413.547C442.362 415.287 440.44 417.248 438.402 419.433C434.078 415.96 429.165 412.288 425.468 408.16C428.176 406.193 430.903 404.284 433.386 402.033Z"/>
	<path fill="#616DAF" transform="scale(0.117188 0.117188)" d="M382.223 414.748C383.369 414.22 392.4 415.903 394.56 415.956L394.56 430.415C392.872 430.363 391.19 430.286 389.503 430.415C387.052 430.186 384.677 430.241 382.223 430.415C382.237 425.193 382.29 419.969 382.223 414.748Z"/>
	<path fill="#616DAF" transform="scale(0.117188 0.117188)" d="M394.56 325.849C402.644 324.434 412.354 328.057 418.624 333.063C443.638 353.037 433.206 393.721 401.312 396.718C352.708 399.825 348.01 330.51 394.56 325.849ZM390.853 344.803C366.761 349.817 373.78 384.532 396.303 381.145C420.28 374.231 414.666 343.239 390.853 344.803Z"/>
	<path fill="#4D5770" transform="scale(0.117188 0.117188)" d="M51.1363 381.145C50.9217 373.962 51.1354 366.733 51.1373 359.544L51.1301 289.578C51.127 281.127 48.0196 267.774 59.5569 267.526C70.9247 267.282 82.3496 267.512 93.7228 267.519L196.023 267.516C202.589 267.517 209.43 267.101 215.958 267.716C226.225 268.683 223.492 280.588 223.493 288.006L223.474 391.238L179.316 391.237C172.537 391.239 164.922 391.668 158.258 391.238C153.005 391.113 117.774 390.276 117.009 392.19L116.992 391.687C115.957 390.795 72.9141 391.237 67.7488 391.238L56.709 391.238C54.8526 391.27 52.9932 391.244 51.1363 391.238L51.1363 381.145ZM68.5313 283.288L67.9545 283.486C66.5374 287.839 67.6335 368.288 67.7488 376.019L192.907 376.031C197.325 376.036 202.355 376.456 206.693 376.019C208.589 373.744 207.501 367.245 207.502 364.406L207.492 283.288L114.848 283.288C99.4267 283.288 83.9457 282.978 68.5313 283.288Z"/>
	<path fill="#353D49" transform="scale(0.117188 0.117188)" d="M51.1363 376.019L67.7488 376.019L67.7488 391.238L56.709 391.238C54.8526 391.27 52.9932 391.244 51.1363 391.238L51.1363 381.145C51.5109 379.545 51.2303 377.659 51.1363 376.019Z"/>
	<path fill="#F47D8B" transform="scale(0.117188 0.117188)" d="M117.009 313.378C115.012 297.772 124.16 301.594 133.288 307.472L157.328 322.602C167.508 328.937 167.575 335.151 155.296 339.624C151.506 337.927 147.144 337.785 143.384 335.718C139.911 333.809 126.055 319.634 121.595 315.301C119.055 312.835 117.299 308.912 117.009 313.378Z"/>
	<path fill="#EE5662" transform="scale(0.117188 0.117188)" d="M117.009 313.378C117.299 308.912 119.055 312.835 121.595 315.301C126.055 319.634 139.911 333.809 143.384 335.718C147.144 337.785 151.506 337.927 155.296 339.624L135.08 351.82C131.429 354.033 127.711 357.041 123.668 358.416C114.232 356.202 116.992 347.799 116.995 339.813L117.009 313.378Z"/>
</svg>
