<svg xmlns="http://www.w3.org/2000/svg" enable-background="new 0 0 512 512" viewBox="0 0 512 512" id="cloudserver">
  <path fill="#9be3ff" fill-rule="evenodd" d="M224.198,66.43c0-2.755-2.241-5.002-4.997-5.002c-28.753,0-52.151,23.399-52.151,52.151
		c0,2.765,2.237,5.001,5.001,5.001c2.765,0,4.997-2.237,4.997-5.001c0-23.245,18.909-42.148,42.153-42.148
		C221.962,71.431,224.198,69.189,224.198,66.43L224.198,66.43z M48.739,357.291c0-18.89,15.371-34.25,34.26-34.25
		c18.891,0,34.26,15.358,34.26,34.25c0,18.897-15.363,34.26-34.26,34.26C64.104,391.551,48.739,376.185,48.739,357.291
		L48.739,357.291z M221.74,357.291c0-18.89,15.371-34.25,34.26-34.25c18.889,0,34.26,15.36,34.26,34.25
		c0,18.894-15.365,34.26-34.26,34.26C237.106,391.551,221.74,376.185,221.74,357.291L221.74,357.291z M394.742,357.291
		c0-18.893,15.369-34.25,34.26-34.25c18.889,0,34.26,15.36,34.26,34.25c0,18.895-15.365,34.26-34.26,34.26
		C410.104,391.551,394.742,376.188,394.742,357.291L394.742,357.291z M161.39,204.269c-23.384,0-42.422-19.02-42.422-42.407
		c0-17.333,10.449-32.733,26.477-39.288c1.964-0.803,3.209-2.788,3.089-4.905c-0.077-1.361-0.113-2.726-0.113-4.09
		c0-39.03,31.75-70.781,70.781-70.781c18.451,0,35.937,7.086,49.193,19.918c1.372,1.328,3.375,1.755,5.171,1.111
		c6.875-2.467,14.098-3.705,21.404-3.705c32.419,0,59.551,24.258,63.044,56.507c0.222,2.049,1.665,3.747,3.654,4.288
		c18.439,5.013,31.355,21.825,31.355,40.944c0,23.386-19.027,42.407-42.412,42.407H161.39z" clip-rule="evenodd" class="color9bc9ff svgShape"></path>
  <path fill="#018abe" fill-rule="evenodd" d="M227.198,66.43c0,4.42-3.585,8.001-7.996,8.001c-21.589,0-39.153,17.56-39.153,39.148
		c0,4.421-3.576,8.001-7.997,8.001c-4.421,0-8.001-3.581-8.001-8.001c0-30.406,24.74-55.151,55.151-55.151
		C223.613,58.429,227.198,62.019,227.198,66.43L227.198,66.43z M494.102,462.262c-1.84,2.5-4.713,3.939-7.869,3.939H371.77
		c-3.161,0-6.029-1.439-7.879-3.939c-1.84-2.51-2.368-5.68-1.43-8.69c9.077-29.321,35.817-49.023,66.54-49.023
		c30.718,0,57.458,19.702,66.54,49.023C496.48,456.581,495.952,459.752,494.102,462.262L494.102,462.262z M429.002,326.04
		c17.239,0,31.26,14.021,31.26,31.251c0,17.239-14.021,31.26-31.26,31.26c-17.243,0-31.26-14.021-31.26-31.26
		C397.742,340.062,411.758,326.04,429.002,326.04L429.002,326.04z M287.26,357.291c0,17.239-14.021,31.26-31.26,31.26
		c-17.239,0-31.26-14.021-31.26-31.26c0-17.229,14.021-31.251,31.26-31.251C273.239,326.04,287.26,340.062,287.26,357.291
		L287.26,357.291z M322.54,453.572c0.939,3.01,0.41,6.18-1.439,8.69c-1.84,2.5-4.708,3.939-7.869,3.939H198.769
		c-3.156,0-6.029-1.439-7.879-3.939c-1.84-2.51-2.368-5.68-1.43-8.69c9.077-29.321,35.818-49.023,66.54-49.023
		C286.718,404.549,313.458,424.251,322.54,453.572L322.54,453.572z M114.259,357.291c0,17.239-14.017,31.26-31.26,31.26
		c-17.239,0-31.26-14.021-31.26-31.26c0-17.229,14.021-31.251,31.26-31.251C100.242,326.04,114.259,340.062,114.259,357.291
		L114.259,357.291z M149.543,453.572c0.939,3.01,0.406,6.18-1.434,8.69c-1.849,2.5-4.718,3.939-7.879,3.939H25.772
		c-3.161,0-6.029-1.439-7.883-3.939c-1.84-2.51-2.368-5.68-1.429-8.69c9.082-29.321,35.822-49.023,66.54-49.023
		C113.721,404.549,140.462,424.251,149.543,453.572L149.543,453.572z M121.968,161.861c0,21.73,17.692,39.408,39.422,39.408h189.221
		c21.73,0,39.412-17.677,39.412-39.408c0-17.739-11.983-33.383-29.142-38.049c-3.18-0.863-5.501-3.581-5.85-6.86
		c-3.331-30.694-29.142-53.83-60.062-53.83c-7.011,0-13.87,1.189-20.391,3.529c-2.868,1.028-6.067,0.34-8.27-1.779
		c-12.696-12.304-29.439-19.074-47.107-19.074c-37.379,0-67.781,30.411-67.781,67.781c0,1.25,0.042,2.571,0.109,3.92
		c0.203,3.402-1.788,6.562-4.949,7.85C131.63,131.469,121.968,145.802,121.968,161.861L121.968,161.861z M510.832,448.83
		c-5.303-17.088-16.139-32.449-30.538-43.229c-6.643-4.973-13.842-8.879-21.433-11.71c10.61-8.671,17.399-21.853,17.399-36.601
		c0-23.329-16.998-42.753-39.261-46.56v-48.187c0-2.123-0.84-4.152-2.34-5.652c-1.5-1.5-3.538-2.35-5.657-2.35h-165v-37.27h86.609
		c30.557,0,55.41-24.863,55.41-55.41c0-23.132-14.493-43.729-35.832-51.83c-6.416-36.209-37.879-62.912-75.22-62.912
		c-7.199,0-14.29,0.991-21.131,2.963c-15.196-13.111-34.416-20.282-54.637-20.282c-45.98,0-83.429,37.228-83.779,83.127
		c-18.064,9.591-29.453,28.231-29.453,48.933c0,30.548,24.863,55.41,55.42,55.41h86.609v37.27h-165c-4.416,0-7.996,3.59-7.996,8.002
		v48.187c-22.263,3.807-39.262,23.23-39.262,46.56c0,14.748,6.789,27.929,17.399,36.601c-7.591,2.831-14.8,6.737-21.428,11.71
		c-14.403,10.78-25.24,26.141-30.543,43.229c-2.449,7.931-1.047,16.281,3.84,22.919c4.902,6.642,12.46,10.45,20.763,10.45H140.23
		c8.289,0,15.861-3.807,20.749-10.45c4.902-6.638,6.303-14.988,3.85-22.919c-5.298-17.088-16.14-32.449-30.538-43.229
		c-6.638-4.973-13.837-8.879-21.428-11.71c10.605-8.671,17.399-21.853,17.399-36.601c0-23.329-17.003-42.753-39.261-46.56V270.54
		h156.999v40.191c-22.258,3.807-39.257,23.23-39.257,46.56c0,14.748,6.789,27.929,17.399,36.601
		c-7.591,2.831-14.79,6.737-21.433,11.71c-14.399,10.78-25.24,26.141-30.539,43.229c-2.448,7.931-1.047,16.281,3.84,22.919
		c4.902,6.642,12.46,10.45,20.758,10.45h114.463c8.289,0,15.856-3.807,20.749-10.45c4.902-6.638,6.298-14.988,3.85-22.919
		c-5.298-17.088-16.14-32.449-30.538-43.229c-6.643-4.973-13.842-8.879-21.433-11.71c10.61-8.671,17.399-21.853,17.399-36.601
		c0-23.329-16.998-42.753-39.257-46.56V270.54H421v40.191c-22.259,3.807-39.262,23.23-39.262,46.56
		c0,14.748,6.794,27.929,17.399,36.601c-7.586,2.831-14.8,6.737-21.428,11.71c-14.398,10.78-25.24,26.141-30.538,43.229
		c-2.449,7.931-1.052,16.281,3.84,22.919c4.897,6.642,12.459,10.45,20.758,10.45h114.463c8.289,0,15.857-3.807,20.749-10.45
		C511.879,465.111,513.28,456.761,510.832,448.83z" clip-rule="evenodd" class="color57a4ff svgShape"></path>
</svg>
