<svg xmlns="http://www.w3.org/2000/svg" xml:space="preserve" id="digital-book" width="512" height="512" x="0" y="0" enable-background="new 0 0 512 512" version="1.1" viewBox="0 0 512 512">
  <g>
    <linearGradient id="SVGID_1_" x1="57.85" x2="57.85" y1="7" y2="503.79" gradientUnits="userSpaceOnUse">
      <stop offset="0" style="stop-color:#00ffed"></stop>
      <stop offset=".99" style="stop-color:#9d00c6"></stop>
    </linearGradient>
    <path fill="url(#SVGID_1_)" d="M47.059,71h21.58c3.758,0,6.805-3.242,6.805-7s-3.047-7-6.805-7h-21.58
		c-3.758,0-6.804,3.242-6.804,7S43.301,71,47.059,71z"></path>
    <linearGradient id="SVGID_2_" x1="119.41" x2="119.41" y1="7" y2="503.79" gradientUnits="userSpaceOnUse">
      <stop offset="0" style="stop-color:#00ffed"></stop>
      <stop offset=".99" style="stop-color:#9d00c6"></stop>
    </linearGradient>
    <path fill="url(#SVGID_2_)" d="M108.622,71h21.576c3.758,0,6.804-3.242,6.804-7s-3.046-7-6.804-7h-21.576
		c-3.759,0-6.805,3.242-6.805,7S104.863,71,108.622,71z"></path>
    <linearGradient id="SVGID_3_" x1="180.967" x2="180.967" y1="7" y2="503.79" gradientUnits="userSpaceOnUse">
      <stop offset="0" style="stop-color:#00ffed"></stop>
      <stop offset=".99" style="stop-color:#9d00c6"></stop>
    </linearGradient>
    <path fill="url(#SVGID_3_)" d="M170.177,71h21.58c3.759,0,6.805-3.242,6.805-7s-3.046-7-6.805-7h-21.58
		c-3.759,0-6.804,3.242-6.804,7S166.418,71,170.177,71z"></path>
    <linearGradient id="SVGID_4_" x1="256" x2="256" y1="7" y2="503.926" gradientUnits="userSpaceOnUse">
      <stop offset="0" style="stop-color:#00ffed"></stop>
      <stop offset=".99" style="stop-color:#9d00c6"></stop>
    </linearGradient>
    <path fill="url(#SVGID_4_)" d="M407.506,121.768c-1.511-1.293-3.434-1.859-5.404-1.551L376,124.324v-17.241
		c0-1.99-1.002-3.877-2.513-5.17c-1.511-1.298-3.578-1.848-5.545-1.551l-111.911,17.553l-111.888-17.553
		c-1.958-0.297-4.105,0.253-5.62,1.551c-1.512,1.293-2.523,3.181-2.523,5.17v17.242l-26.051-4.108
		c-1.955-0.309-4.008,0.257-5.523,1.551c-1.511,1.293-2.426,3.181-2.426,5.17v180.013c0,3.351,2.548,6.203,5.858,6.721
		l147.028,23.059c0.352,0.056,0.732,0.083,1.084,0.083c0.353,0,0.718-0.028,1.07-0.083l78.146-12.261l22.286,22.282
		c1.275,1.278,3.009,1.994,4.813,1.994c1.805,0,3.538-0.716,4.812-1.994l28.769-28.768c0.947-0.945,1.551-2.102,1.822-3.317
		l6.452-0.995c3.311-0.518,5.86-3.371,5.86-6.721V126.938C410,124.948,409.017,123.061,407.506,121.768z M396,134.894v166.238
		l-6.427,1.021l-23.519-23.563l4.042-0.609c3.311-0.522,5.903-3.375,5.903-6.725V246.5c0-1.008,0.642-2.119,0.546-3.26
		c-0.063-0.748-0.546-1.461-0.546-2.126V138.098L396,134.894z M354.12,266.678l-4.715-4.683L362,255.368v10.065L354.12,266.678z
		 M362,234.258l-99-32.313v-71.324l99-15.583V234.258z M263,249.803l9.662,29.701L263,281.02V249.803z M150,115.039l99,15.583
		V281.02l-50.032-7.865c0.461-0.279,0.946-0.61,1.345-1.008l29.228-29.199c2.658-2.654,2.671-6.962,0.013-9.621
		c-2.65-2.658-6.957-2.658-9.615,0l-29.2,29.199c-2.547,2.543-2.583,6.6-0.251,9.274L150,265.437V115.039z M256.083,323.123
		L116,301.132V134.894l20,3.205v133.158c0,3.351,2.57,6.203,5.881,6.721l112.994,17.719c0.353,0.056,0.738,0.083,1.09,0.083
		c0.355,0,0.724-0.039,1.071-0.093l0.011,0.01l19.678-3.087l8.482,25.937L256.083,323.123z M303.049,315.74l8.061-15.352
		l12.178,12.176L303.049,315.74z M362.287,332.317l-48.097-48.093c-1.285-1.286-3.019-1.994-4.811-1.994
		c-0.34,0-0.681,0.024-1.024,0.075c-2.141,0.329-3.995,1.65-5,3.568l-8.957,17.058l-27.794-85.437l85.437,27.794l-17.054,8.953
		c-1.919,1.004-3.24,2.86-3.569,5c-0.323,2.14,0.389,4.308,1.92,5.835l48.093,48.097L362.287,332.317z"></path>
    <linearGradient id="SVGID_5_" x1="210.152" x2="210.152" y1="7" y2="503.79" gradientUnits="userSpaceOnUse">
      <stop offset="0" style="stop-color:#00ffed"></stop>
      <stop offset=".99" style="stop-color:#9d00c6"></stop>
    </linearGradient>
    <path fill="url(#SVGID_5_)" d="M219.943,180.451c1.329,1.329,3.07,1.994,4.811,1.994s3.485-0.665,4.811-1.994
		c2.658-2.659,2.658-6.966,0-9.621l-29.203-29.199c-2.658-2.658-6.971-2.658-9.621,0c-2.658,2.659-2.658,6.967,0,9.621
		L219.943,180.451z"></path>
    <linearGradient id="SVGID_6_" x1="301.85" x2="301.85" y1="7" y2="503.79" gradientUnits="userSpaceOnUse">
      <stop offset="0" style="stop-color:#00ffed"></stop>
      <stop offset=".99" style="stop-color:#9d00c6"></stop>
    </linearGradient>
    <path fill="url(#SVGID_6_)" d="M282.439,180.451c1.326,1.329,3.07,1.994,4.811,1.994c1.741,0,3.484-0.665,4.811-1.994
		l29.199-29.199c2.658-2.654,2.658-6.966,0-9.621c-2.65-2.658-6.971-2.658-9.621,0l-29.199,29.199
		C279.781,173.484,279.781,177.796,282.439,180.451z"></path>
    <linearGradient id="SVGID_7_" x1="191.164" x2="191.164" y1="7" y2="503.79" gradientUnits="userSpaceOnUse">
      <stop offset="0" style="stop-color:#00ffed"></stop>
      <stop offset=".99" style="stop-color:#9d00c6"></stop>
    </linearGradient>
    <path fill="url(#SVGID_7_)" d="M218.614,207c0-3.758-3.046-7-6.805-7h-41.292c-3.759,0-6.805,3.242-6.805,7s3.046,7,6.805,7h41.292
		C215.568,214,218.614,210.758,218.614,207z"></path>
    <linearGradient id="SVGID_8_" x1="256" x2="256" y1="7" y2="503.79" gradientUnits="userSpaceOnUse">
      <stop offset="0" style="stop-color:#00ffed"></stop>
      <stop offset=".99" style="stop-color:#9d00c6"></stop>
    </linearGradient>
    <path fill="url(#SVGID_8_)" d="M476.789,32H35.211C21.859,32,11,42.553,11,55.904v286.821C11,356.077,21.859,367,35.211,367H193v43
		h-32.815C140.804,410,125,425.781,125,445.161v28.341c0,3.758,3.081,6.498,6.84,6.498h248.32c3.758,0,6.84-2.74,6.84-6.498v-28.341
		c0-19.38-15.804-35.161-35.184-35.161H319v-43h157.789C490.141,367,501,356.077,501,342.725V55.904
		C501,42.553,490.141,32,476.789,32z M35.211,45h441.578C482.637,45,487,50.058,487,55.904V82H25V55.904
		C25,50.058,29.363,45,35.211,45z M373,445.161V467H139v-21.839c0-11.876,9.309-21.161,21.185-21.161h191.632
		C363.691,424,373,433.285,373,445.161z M306,410H206v-43h100V410z M476.789,353H35.211C29.363,353,25,348.572,25,342.725V96h462
		v246.725C487,348.572,482.637,353,476.789,353z"></path>
  </g>
</svg>
