<?xml version="1.0" encoding="utf-8" ?>
<svg xmlns="http://www.w3.org/2000/svg" xmlns:xlink="http://www.w3.org/1999/xlink" width="60" height="60">
	<path fill="#2EA9F4" transform="scale(0.117188 0.117188)" d="M306.661 234.836C307.774 230.261 309.038 211.177 311.308 208.834C314.023 206.032 323.863 207.46 327.537 207.462L357.049 207.474C363.204 208.723 362.796 228.834 363.567 234.836C368.632 235.991 375.207 238.058 379.263 241.437C380.76 239.454 393.768 228.337 396.134 226.696C402.5 222.28 405.833 228.567 410.053 232.684C416.219 238.699 427.738 249.022 432.825 255.585C436.444 260.255 421.39 274.128 417.609 278.598C420.854 285.731 423.64 292.703 426.158 300.133L439.047 300.108C455.553 300.097 452.246 303.825 452.256 318.136L452.244 345.037C452.196 349.928 450.063 351.915 445.119 351.761C438.787 351.564 432.494 351.49 426.158 351.492C423.943 358.149 421.421 364.376 418.652 370.806C422.227 375.261 431.886 387.003 433.542 391.373C431.194 396.813 425.143 401.146 421.129 405.39L409.02 418.027C400.909 426.463 402.108 426.904 391.752 418.969C387.596 415.784 383.469 412.558 379.263 409.44C373.925 412.362 368.411 415.253 362.549 417C362.138 422.384 360.902 442.303 357.049 445.284C353.641 445.479 350.21 445.316 346.797 445.293L330.164 445.259C312.964 445.263 313.231 449.349 311.185 430.498C310.698 426.011 309.998 421.504 309.712 417C304.945 414.1 297.306 411.592 291.655 408.582C287.966 411.219 284.278 413.871 280.667 416.615C276.896 419.479 271.463 426.025 266.68 421.841C258.738 414.892 252.208 406.384 244.145 399.47C242.819 398.333 241.333 397.277 240.123 396.026C235.905 389.562 250.194 377.029 253.966 371.1L253.83 370.806C250.274 365.355 247.638 358.45 245.549 352.291C239.228 352.277 224.583 353.07 219.426 351.492L219.366 351.389C217.205 347.773 217.041 311.79 218.031 304.638C218.933 298.12 240.426 299.502 245.549 300.133C246.839 293.412 250.561 284.623 253.83 278.598C251.214 275.765 248.59 272.929 245.855 270.21C232.387 256.819 235.812 258.856 247.476 247.17L260.519 234.122C270.84 223.744 269.484 222.826 281.958 233.338C285.178 236.052 288.467 238.685 291.655 241.437C296.523 238.835 301.309 236.319 306.661 234.836Z"/>
	<path fill="#4FC2F6" transform="scale(0.117188 0.117188)" d="M320.061 218.998L350.549 218.998C350.588 223.036 350.648 239.359 352.119 242.099C353.521 244.713 362.672 246.28 365.521 247.481C369.516 249.165 375.638 252.882 379.512 253.791C383.24 254.667 395.408 241.485 400.088 238.716C406.597 244.942 413.834 252.08 420.143 258.522C417.97 260.74 404.222 275.515 404.004 277.689C403.71 280.621 409.715 290.382 411.2 293.806C417.406 308.113 411.003 312.076 426.512 312.047L440.206 312.018L440.206 340.258C436.243 340.258 420.797 339.489 418.284 341.031C415.413 342.792 412.118 355.512 409.902 360.009C403.571 372.863 401.788 367.281 411.09 379.91C413.808 383.6 416.314 387.432 418.652 391.373C412.136 397.591 406.315 404.955 400.088 410.697C393.772 405.999 387.855 399.797 382.193 394.333C372.328 400.247 362.271 404.981 350.992 407.511C350.999 415.425 350.212 425.455 349.164 433.375L348.744 433.598L322.874 433.598C322.155 424.918 321.126 416.158 320.061 407.511C307.91 403.302 301.89 402.161 290.286 394.333C284.678 397.909 274.427 406.058 269.936 410.697C265.196 403.553 258.092 397.454 252.042 391.373C257.009 384.7 263.613 379.198 268.288 372.413C262.303 363 257.173 353.146 255.421 342.003C246.62 341.904 237.809 341.996 229.006 342.003L229.006 311.339C237.512 311.348 246.174 310.944 254.662 311.339C255.625 303.267 258.972 294.469 262.491 287.176C263.93 284.195 268.2 279.482 266.3 275.956C263.764 271.248 255.756 265.385 252.297 260.367L252.042 259.992C255.6 254.434 266.641 244.918 271.693 239.514C275.026 242.454 278.425 245.322 281.808 248.204C292.252 257.097 289.399 255.286 300.48 249.807C305.018 247.563 318.99 244.364 319.822 240.864C320.594 237.612 320.069 223.363 320.061 218.998Z"/>
	<path fill="#E8EEEF" transform="scale(0.117188 0.117188)" d="M363.567 377.88C360.842 374.996 353.263 365.806 352.638 362.159C351.695 356.66 357.312 351.013 362.666 353.573C365.928 355.133 373.408 361.973 376.685 364.587C382.201 369.907 396.256 378.335 387.366 386.996C378.284 395.844 368.237 386.85 363.567 377.88Z"/>
	<path fill="#496F7B" transform="scale(0.117188 0.117188)" d="M298.676 279.552C298.075 282.075 294.241 284.44 292.872 286.806C282.767 304.26 278.292 321.293 285.594 341.283C295.795 369.209 323.456 381.751 351.652 374.726C353.409 376.973 355.421 379.048 357.049 381.39C302.993 406.561 247.949 332.076 290.551 286.891C293.056 284.234 295.903 281.92 298.676 279.552Z"/>
	<path fill="#61838D" transform="scale(0.117188 0.117188)" d="M298.676 279.552C343.303 240.312 408.303 288.274 392.395 337.679C389.677 346.122 383.705 358.984 376.685 364.587C373.408 361.973 365.928 355.133 362.666 353.573C357.312 351.013 351.695 356.66 352.638 362.159C353.263 365.806 360.842 374.996 363.567 377.88C361.428 379.155 359.329 380.375 357.049 381.39C355.421 379.048 353.409 376.973 351.652 374.726C323.456 381.751 295.795 369.209 285.594 341.283C278.292 321.293 282.767 304.26 292.872 286.806C294.241 284.44 298.075 282.075 298.676 279.552Z"/>
	<path fill="#E8EEEF" transform="scale(0.117188 0.117188)" d="M333.398 290.558C340.664 288.702 350.721 292.687 356.494 296.972C372.349 308.74 375.467 330.986 363.505 346.693C357.751 354.247 348.535 358.203 339.42 359.474C289.863 361.799 290.37 292.835 333.398 290.558Z"/>
	<path fill="#E8EEEF" transform="scale(0.117188 0.117188)" d="M311.507 69.2534C312.722 68.2818 314.319 70.1271 315.226 70.9268C318.657 73.9521 358.881 112.391 358.753 114.876C358.303 119.787 358.74 125.071 358.749 130.018L358.767 160.78C358.779 173.787 357.663 192.415 358.753 204.828C358.224 205.747 357.675 206.617 357.049 207.474L327.537 207.462C323.863 207.46 314.023 206.032 311.308 208.834C309.038 211.177 307.774 230.261 306.661 234.836C301.309 236.319 296.523 238.835 291.655 241.437C288.467 238.685 285.178 236.052 281.958 233.338C269.484 222.826 270.84 223.744 260.519 234.122L247.476 247.17C235.812 258.856 232.387 256.819 245.855 270.21C248.59 272.929 251.214 275.765 253.83 278.598C250.561 284.623 246.839 293.412 245.549 300.133C240.426 299.502 218.933 298.12 218.031 304.638C217.041 311.79 217.205 347.773 219.366 351.389L219.426 351.492C224.583 353.07 239.228 352.277 245.549 352.291C247.638 358.45 250.274 365.355 253.83 370.806L253.966 371.1C250.194 377.029 235.905 389.562 240.123 396.026L239.581 396.117C235.812 399.317 221.113 398.161 215.179 398.161L75.2309 398.148C70.0767 398.141 64.9209 397.951 59.7687 398.149L59.771 175.67C59.7703 140.211 59.3928 104.707 59.7687 69.2534C64.4097 69.6036 69.1272 69.1305 73.7835 69.1667L291.356 69.2386C295.7 69.2364 308.035 69.9573 311.507 69.2534Z"/>
	<path fill="#BCD4D9" transform="scale(0.117188 0.117188)" d="M88.989 351.492L110.026 351.492L110.026 367.027C103.016 367.011 95.9977 367.152 88.989 367.027L88.989 351.492Z"/>
	<path fill="#BCD4D9" transform="scale(0.117188 0.117188)" d="M88.989 319.367C95.9274 319.72 103.067 319.379 110.026 319.367C110.451 324.272 110.311 329.883 110.026 334.784C103.112 335.204 95.9314 334.794 88.989 334.784L88.989 319.367Z"/>
	<path fill="#BCD4D9" transform="scale(0.117188 0.117188)" d="M88.989 285.672C95.9216 286.033 103.071 285.685 110.026 285.672L110.026 301.269C103.014 301.258 96.0007 301.349 88.989 301.269C89.1684 296.098 88.9977 290.85 88.989 285.672Z"/>
	<path fill="#BCD4D9" transform="scale(0.117188 0.117188)" d="M273.76 178.016C277.896 177.788 282.149 177.997 286.299 178L311.507 178.016L311.507 194.987C308.925 194.89 306.345 194.946 303.762 194.987L284.926 194.997C278.89 195.021 267.734 196.749 266.516 188.298C265.753 183.001 268.344 178.644 273.76 178.016Z"/>
	<path fill="#BCD4D9" transform="scale(0.117188 0.117188)" d="M88.989 253.276L124.583 253.28C130.716 253.282 136.87 253.426 143 253.276L143 268.979C125.335 269.374 106.322 268 88.989 268.979L88.989 253.276Z"/>
	<path fill="#F5B612" transform="scale(0.117188 0.117188)" d="M197.181 351.492C204.566 351.546 212.056 351.187 219.426 351.492C224.583 353.07 239.228 352.277 245.549 352.291C247.638 358.45 250.274 365.355 253.83 370.806C249.443 371.356 244.526 370.78 240.079 370.776L212.139 370.799C207.184 370.794 202.119 370.502 197.181 370.806L197.181 351.492Z"/>
	<path fill="#BCD4D9" transform="scale(0.117188 0.117188)" d="M273.76 145.523L328.292 145.523L328.292 162.369C325.931 162.307 323.581 162.328 321.22 162.369L286.387 162.348C282.252 162.324 277.813 162.809 273.718 162.401C263.825 161.416 263.985 146.559 273.76 145.523Z"/>
	<path fill="#BCD4D9" transform="scale(0.117188 0.117188)" d="M311.507 69.2534C312.722 68.2818 314.319 70.1271 315.226 70.9268C318.657 73.9521 358.881 112.391 358.753 114.876L311.507 114.876L311.507 69.2534Z"/>
	<path fill="#E8655E" transform="scale(0.117188 0.117188)" d="M197.181 370.806L141.651 370.819C139.211 370.819 136.618 370.983 134.204 370.633C126.198 369.472 123.996 359.067 129.585 353.907C133.095 350.667 138.623 351.451 142.999 351.466L182.743 351.482C187.544 351.468 192.384 351.329 197.181 351.492L197.181 370.806Z"/>
	<path fill="#BCD4D9" transform="scale(0.117188 0.117188)" d="M95.1678 98.5487L159.712 98.5316C164.702 98.5317 169.353 97.6102 173.219 101.24C173.513 109.303 175.002 114.564 165.375 114.876L87.6561 114.876C87.5193 105.92 84.7807 98.8587 95.1678 98.5487Z"/>
	<path fill="#F5B612" transform="scale(0.117188 0.117188)" d="M216.592 268.979C235.311 272.859 215.056 288.525 209.508 294.053L172.867 330.675C161.69 341.953 162.151 345.869 148.888 332.685L134.717 318.589C132.028 315.911 127.372 312.999 127.139 308.893C126.871 304.145 131.993 299.453 136.549 302.309C141.781 305.588 154.884 320.094 159.542 324.935C170.507 316.354 185.984 299.082 195.982 288.893C199.959 284.84 212.159 270.666 216.592 268.979Z"/>
	<path fill="#FCCD06" transform="scale(0.117188 0.117188)" d="M152.469 229.773C147.007 225.199 142.933 218.588 140.024 212.157C119.084 165.861 165.622 118.348 212.088 136.54C241.196 147.936 257.697 180.333 245.752 210.014C243.999 214.368 236.322 228.007 232.193 229.773C224.656 237.994 208.081 245.071 197.055 245.438L196.723 245.446C193.377 245.87 190.091 245.648 186.739 245.446C175.058 243.674 160.655 238.704 152.469 229.773Z"/>
	<path fill="#F5B612" transform="scale(0.117188 0.117188)" d="M190.687 156.607C220.415 155.394 224.641 198.856 194.158 202.993C160.53 203.679 160.419 159.391 190.687 156.607Z"/>
	<path fill="#206DBB" transform="scale(0.117188 0.117188)" d="M181.916 207.474C188.598 207.284 195.377 207.917 202.033 207.474C209.908 208.431 218.316 205.661 224.182 212.735C227.379 216.591 229.906 224.936 232.193 229.773C224.656 237.994 208.081 245.071 197.055 245.438L196.723 245.446C193.377 245.87 190.091 245.648 186.739 245.446C175.058 243.674 160.655 238.704 152.469 229.773C161.716 207.795 156.554 208.669 181.615 207.49L181.916 207.474Z"/>
	<path fill="#E8655E" transform="scale(0.117188 0.117188)" d="M189.561 224.627C191.353 223.853 192.373 223.846 194.158 224.627C196.328 228.794 196.988 240.627 196.723 245.446C193.377 245.87 190.091 245.648 186.739 245.446C186.439 240.069 187.225 229.539 189.561 224.627Z"/>
	<path fill="#E8EEEF" transform="scale(0.117188 0.117188)" d="M181.916 207.474C188.598 207.284 195.377 207.917 202.033 207.474C201.63 210.943 201.776 215.524 200.426 218.721L200.025 218.865C199.429 218.582 199.002 218.299 198.497 217.887C197.706 220.666 195.806 222.373 194.158 224.627C192.373 223.846 191.353 223.853 189.561 224.627C188.217 222.911 186.726 220.389 185.119 218.998L184.403 218.777C182.418 216.651 182.282 210.305 181.916 207.474Z"/>
	<path fill="#F39E85" transform="scale(0.117188 0.117188)" d="M192.424 209.928C194.266 212.722 196.643 215.116 198.497 217.887C197.706 220.666 195.806 222.373 194.158 224.627C192.373 223.846 191.353 223.853 189.561 224.627C188.217 222.911 186.726 220.389 185.119 218.998C186.646 215.855 190.022 212.491 192.424 209.928Z"/>
	<path fill="#206DBB" transform="scale(0.117188 0.117188)" d="M202.033 207.474C209.908 208.431 218.316 205.661 224.182 212.735C227.379 216.591 229.906 224.936 232.193 229.773C224.656 237.994 208.081 245.071 197.055 245.438L196.723 245.446C196.988 240.627 196.328 228.794 194.158 224.627C195.806 222.373 197.706 220.666 198.497 217.887C199.002 218.299 199.429 218.582 200.025 218.865L200.426 218.721C201.776 215.524 201.63 210.943 202.033 207.474Z"/>
</svg>
