<?xml version="1.0" encoding="utf-8" ?>
<svg xmlns="http://www.w3.org/2000/svg" xmlns:xlink="http://www.w3.org/1999/xlink" width="60" height="60">
	<path fill="#202999" transform="scale(0.117188 0.117188)" d="M310.08 445.805C311.589 446.282 311.875 448.062 310.905 449.189C309.627 450.672 294.788 453.165 291.77 453.618C288.91 453.538 287.693 450.745 291.154 449.849C296.923 448.357 304.131 447.099 310.08 445.805Z"/>
	<path fill="#202999" transform="scale(0.117188 0.117188)" d="M245.508 69.7423C248.138 69.7116 266.222 67.4374 263.152 72.8332C261.753 74.0376 259.043 73.6199 257.264 73.5987C254.356 73.5162 241.971 74.1734 240.742 73.7313C237.044 70.2058 243.483 69.9151 245.508 69.7423Z"/>
	<path fill="#202999" transform="scale(0.117188 0.117188)" d="M447.417 225.169C453.577 225.705 453.124 246.8 451.587 248.36C447.27 248.383 448.101 239.807 447.567 235.9C447.155 232.877 444.721 227.426 447.417 225.169Z"/>
	<path fill="#202999" transform="scale(0.117188 0.117188)" d="M437.208 188.291C441.289 188.828 446.059 206.896 446.197 210.163C445.941 210.961 445.476 211.333 444.877 211.875C441.477 211.936 439.557 200.798 438.329 197.533C437.162 194.429 434.531 191.183 437.208 188.291Z"/>
	<path fill="#202999" transform="scale(0.117188 0.117188)" d="M450.401 262.224C456.858 263.482 451.591 284.904 450.401 286.28C445.242 286.562 448.434 276.552 448.734 272.617C448.954 269.718 447.849 264.061 450.401 262.224Z"/>
	<path fill="#202999" transform="scale(0.117188 0.117188)" d="M58.9591 254.282C63.703 254.762 61.6861 264.963 61.8126 269.166C61.9125 272.483 63.3451 276.07 61.0239 278.818C55.2004 278.248 57.5518 255.631 58.9591 254.282Z"/>
	<path fill="#202999" transform="scale(0.117188 0.117188)" d="M420.28 155.392C424.022 156.257 432.627 171.805 432.733 174.967C432.46 175.769 431.842 176.09 431.179 176.549C427.985 176.323 418.868 157.909 418.839 157.618C418.742 156.646 419.641 155.962 420.28 155.392Z"/>
	<path fill="#202999" transform="scale(0.117188 0.117188)" d="M215.748 448.055C217.802 448.06 244.922 450.445 237.436 454.905C235.094 455 208.163 453.399 215.748 448.055Z"/>
	<path fill="#202999" transform="scale(0.117188 0.117188)" d="M154.939 96.7483C157.121 97.0303 157.503 99.0355 155.887 100.275C153.929 101.776 139.829 111.19 137.87 112.049C128.889 110.357 152.463 97.583 154.939 96.7483Z"/>
	<path fill="#202999" transform="scale(0.117188 0.117188)" d="M124.7 118.667C125.773 119.015 126.472 119.82 126.627 120.951C126.579 121.08 113.185 135.199 111.065 137.041C100.651 137.002 122.772 119.636 124.7 118.667Z"/>
	<path fill="#202999" transform="scale(0.117188 0.117188)" d="M61.7633 292.198C62.6792 292.181 63.9574 292.142 64.5243 293.003C65.1315 293.925 70.4963 312.955 68.6264 315.322C68.0235 315.562 66.9579 316.025 66.373 315.609C64.2457 314.094 59.9451 295.187 61.7633 292.198Z"/>
	<path fill="#202999" transform="scale(0.117188 0.117188)" d="M223.899 72.1014C224.889 71.9583 226.576 71.9147 226.779 73.2052C227.334 76.7437 209.062 79.1284 206.131 79.2179C205.273 79.4604 204.537 79.7253 203.642 79.5863C197.525 75.0778 221.591 72.3905 223.899 72.1014Z"/>
	<path fill="#202999" transform="scale(0.117188 0.117188)" d="M76.9473 180.257C82.503 180.53 77.3959 187.562 76.0812 190.775C74.4719 194.709 73.4305 200.257 70.5916 203.481C62.9108 204.257 75.9862 181.221 76.9473 180.257Z"/>
	<path fill="#202999" transform="scale(0.117188 0.117188)" d="M146.042 418.149C148.737 418.319 153.264 422.36 155.659 423.833C158.682 425.691 169.092 428.905 164.597 433.011C163.471 432.894 139.945 423.523 146.042 418.149Z"/>
	<path fill="#202999" transform="scale(0.117188 0.117188)" d="M272.455 452.166C273.594 451.899 274.621 451.636 275.78 451.917C282.428 457.759 257.21 456.256 255.71 456.251C254.517 456.281 253.363 456.21 252.293 455.655C247.52 450.336 270.349 451.944 272.455 452.166Z"/>
	<path fill="#202999" transform="scale(0.117188 0.117188)" d="M116 393.449C118.454 393.711 124.072 400.44 126.092 402.286C129.684 405.57 136.764 408.503 132.507 412.251C130.074 411.532 114.317 398.644 114.316 395.019C114.672 394.245 115.317 393.906 116 393.449Z"/>
	<path fill="#202999" transform="scale(0.117188 0.117188)" d="M188.834 80.7853C191.576 80.8971 191.088 83.8057 189.011 84.843C184.147 87.2717 174.969 90.9637 169.845 92.8466L169.008 92.7404C163.237 88.3032 186.237 81.5655 188.834 80.7853Z"/>
	<path fill="#202999" transform="scale(0.117188 0.117188)" d="M179.185 436.525C183.025 436.517 187.695 439.366 191.298 440.641C196.079 442.333 204.205 442.602 200.677 448.055C198.593 447.792 173.648 441.701 179.185 436.525Z"/>
	<path fill="#202999" transform="scale(0.117188 0.117188)" d="M90.7246 362.642C93.6717 362.776 102.95 377.342 104.978 380.479C106.034 382.114 105.285 382.9 103.95 384.05C102.462 383.748 85.9219 366.678 90.7246 362.642Z"/>
	<path fill="#202999" transform="scale(0.117188 0.117188)" d="M73.2809 328.233C76.2385 329.372 78.2268 336.488 79.547 339.275C81.4013 343.189 86.5753 349.295 82.3987 351.687C80.9645 351.184 67.7437 331.619 73.2809 328.233Z"/>
	<path fill="#202999" transform="scale(0.117188 0.117188)" d="M97.2573 147.019C98.8617 146.913 100.191 147.144 100.439 148.887C98.3088 152.582 89.9593 165.358 87.3389 168.405C78.5013 170.725 95.0123 149.324 97.2573 147.019Z"/>
	<path fill="#202999" transform="scale(0.117188 0.117188)" d="M63.8897 215.962C69.2306 216.429 65.8121 222.607 65.1066 226.454C64.448 230.044 64.4927 237.746 61.7633 240.255C54.836 241.795 62.8178 217.077 63.8897 215.962Z"/>
	<path fill="#202999" transform="scale(0.117188 0.117188)" d="M356.54 228.866C360.87 227.216 391.077 227.403 398.313 227.888C405.487 235.291 413.241 242.173 420.28 249.702L420.298 279.435C420.303 295.17 423.251 300.774 406.065 300.731L352.518 300.716C352.637 303.728 354.09 311.703 351.694 313.756C347.538 313.653 339.114 303.569 335.485 300.716C328.448 300.46 306.681 301.762 301.583 299.765C298.882 298.557 297.407 297.561 295.822 295.026C293.24 289.723 294.335 282.297 294.321 276.566C294.262 251.378 299.816 254.965 321.19 254.961L356.54 254.969L356.566 238.498C356.57 235.302 356.728 232.055 356.54 228.866ZM402.009 237.42C396.179 239.422 399.086 242.379 398.313 237.42C398.095 241.028 398.269 244.744 398.313 248.36C403.014 248.454 407.876 248.013 412.539 248.596L412.619 248.36C411.329 246.594 409.963 245.296 408.282 243.922C406.523 241.486 404.181 239.48 402.009 237.42ZM368.922 290.589C366.833 292.617 364.762 294.752 362.847 296.945C364.464 296.926 366.078 296.92 367.696 296.945L370.158 296.64C367.21 295.929 368.536 292.856 368.922 290.589Z"/>
	<path fill="#FDCF4B" transform="scale(0.117188 0.117188)" d="M398.313 233.866C399.586 235.015 400.805 236.199 402.009 237.42C396.179 239.422 399.086 242.379 398.313 237.42C398.238 236.253 398.31 235.038 398.313 233.866Z"/>
	<path fill="#F6D860" transform="scale(0.117188 0.117188)" d="M402.009 237.42C404.181 239.48 406.523 241.486 408.282 243.922C409.963 245.296 411.329 246.594 412.619 248.36L412.539 248.596C407.876 248.013 403.014 248.454 398.313 248.36C398.269 244.744 398.095 241.028 398.313 237.42C399.086 242.379 396.179 239.422 402.009 237.42ZM408.282 243.922L407.04 248.36C408.863 248.267 410.81 248.053 412.619 248.36C411.329 246.594 409.963 245.296 408.282 243.922Z"/>
	<path fill="#4AD5E5" transform="scale(0.117188 0.117188)" d="M307.551 258.791L356.54 258.791C356.534 263.025 355.89 284.355 357.17 286.764C361.057 287.531 366.298 274.649 371.157 279.303C373.685 281.725 367.902 286.372 366.422 287.812L359.105 295.026C358.275 295.693 357.396 296.31 356.54 296.945C354.041 296.786 351.613 296.782 349.112 296.945C349.03 300.446 349.122 303.97 349.112 307.475C345.066 304.17 341.634 300.205 337.588 296.945C334.826 296.76 331.983 296.912 329.212 296.92L313.339 296.953C307.267 296.959 299.164 297.998 298.387 289.938C297.903 284.927 297.789 269.793 298.498 264.934C299.213 260.035 303.126 259.131 307.551 258.791Z"/>
	<path fill="#202999" transform="scale(0.117188 0.117188)" d="M333.656 275.773L341.593 275.773L341.593 279.709C338.904 279.903 336.351 279.902 333.656 279.709L333.656 275.773Z"/>
	<path fill="#202999" transform="scale(0.117188 0.117188)" d="M315.264 275.773C317.823 275.922 320.303 275.91 322.865 275.773C322.609 277.957 322.965 279.808 320.364 279.709C312.348 280.276 310.828 277.035 315.264 275.773Z"/>
	<path fill="#FDCF4B" transform="scale(0.117188 0.117188)" d="M360.265 231.887L383.246 231.872C386.838 231.868 390.689 231.522 394.244 231.887L394.22 243.619C394.211 246.497 393.184 251.624 397.153 252.259C401.329 252.926 411.547 252.198 416.247 252.244C415.851 261.871 416.267 271.663 416.269 281.308C416.27 286.037 418.42 296.338 411.537 296.947C399.844 297.982 379.554 297.313 367.696 296.945L370.158 296.64C367.21 295.929 368.536 292.856 368.922 290.589L369.098 290.395C371.475 287.825 375.73 285.543 375.638 281.616C375.555 278.042 371.905 274.059 368.191 274.27C364.847 274.46 362.655 277.802 360.265 279.709L360.265 231.887Z"/>
	<path fill="#202999" transform="scale(0.117188 0.117188)" d="M320.364 68.0063C317.862 62.9583 317.587 51.6424 323.733 48.7156C326.945 47.1856 339.354 47.2272 342.65 48.5224C349.651 51.2728 349.254 62.4184 346.583 68.0063C358.098 69.9409 363.252 73.321 372.408 79.2179C376.522 74.0101 381.015 68.6459 387.528 73.7413C401.325 84.5358 401.154 87.5888 389.694 98.4512C394.208 105.235 397.341 111.921 399.655 119.749C409.859 119.687 416.271 118.935 416.299 131.1C416.336 147.312 416.917 149.977 399.897 149.749L399.655 149.745C396.393 160.579 394.134 163.541 389.694 172.87C395.428 177.169 401.387 181.808 395.764 189.066C385.079 202.857 379.601 203.191 368.922 191.627C362.516 195.572 355.968 198.189 348.722 200.095C348.792 212.663 350.768 211.151 343.981 220.487C329.663 219.893 316.931 225.306 319.031 204.348C318.858 202.965 318.9 201.48 319.031 200.095C316.707 199.535 314.562 198.547 312.396 197.562C312.039 197.504 311.657 197.55 311.296 197.562C307.187 198.031 303.721 195.183 299.806 194.382C296.396 193.685 295.08 198.41 291.77 197.562C281.301 202.886 274.218 196.472 268.372 187.367C265.194 182.417 268.71 176.961 271.604 172.87C273.548 171.633 275.442 170.637 277.664 169.995C273.995 164.359 270.887 154.946 268.751 151.847L268.111 151.782C263.305 151.155 257.985 153.032 254.057 149.075C250.052 145.038 251.472 133.929 251.407 128.339C254.591 121.173 260.888 121.921 267.556 121.998C269.314 113.619 272.155 104.679 277.664 97.9612C274.881 94.8904 268.3 89.6029 268.395 85.4038C268.51 80.323 277.376 69.8444 283.231 70.0644C286.955 70.2044 292.786 76.7655 295.822 79.2179C304.198 73.6188 310.475 70.293 320.364 68.0063ZM331.993 87.8594C306.47 89.7363 285.99 111.12 287.969 137.203C289.777 161.046 311.074 181.719 335.485 180.257C360.318 180.004 380.096 158.523 379.768 133.983C379.425 108.352 357.935 87.1461 332.199 87.8522L331.993 87.8594ZM270.752 141.27C271.805 147.354 273.14 153.051 275.705 158.706C277.849 163.305 281.544 169.931 286.15 172.501C286.189 173.242 286.265 173.984 286.15 174.721L284.037 176.549C285.805 177.359 286.262 179.345 288.019 180.257C288.668 179.846 289.373 179.506 290.053 179.147C294.328 176.054 296.249 174.147 300.166 170.691C288.758 159.967 288.527 154.273 284.037 141.27L270.752 141.27ZM335.485 184.535C335.499 188.767 335.96 193.373 335.485 197.562C349.857 196.877 357.08 193.419 368.922 186.943C371.239 185.783 373.523 184.379 375.488 182.685C371.757 179.59 367.973 176.626 364.875 172.87C357.317 180.653 345.929 183.479 335.485 184.535ZM391.096 141.27C388.492 141.552 386.257 141.652 383.662 141.27C380.795 152.432 377.197 163.344 367.696 170.691C370.947 173.511 374.327 176.941 378.007 179.147L378.793 179.324C382.528 176.477 377.085 161.31 387.058 170.691C391.808 159.246 395.443 155.209 396.715 141.27C394.776 141.592 393.044 141.521 391.096 141.27ZM335.485 70.9749L335.485 84.3014C345.693 84.2094 354.612 87.8883 362.847 93.6996C364.237 92.1457 365.593 90.5053 367.111 89.0757C368.832 87.4177 370.586 85.847 372.408 84.3014C360.218 75.7278 351.646 70.4953 335.485 70.9749ZM328.3 70.9749C318.107 71.4036 302.927 76.6178 295.822 84.3014C298.083 86.6622 300.438 88.9747 302.44 91.5635L304.483 93.6996C313.083 87.86 321.754 85.1245 331.993 83.6644C331.724 79.4569 331.938 75.1906 331.993 70.9749L328.3 70.9749ZM383.662 97.9612C380.988 101.031 378.149 103.962 375.488 107.038C379.004 112.775 381.222 118.125 382.859 124.664L387.828 124.664L396.715 124.664C394.633 117.255 389.945 102.251 383.662 97.9612ZM282.603 97.9612C277.13 104.12 272.143 115 271.604 123.265L281.312 123.265L284.881 123.265C286.355 117.304 289.576 112.635 291.77 107.038C288.93 104.019 285.955 100.399 282.603 97.9612ZM293.827 182.685C298.601 185.301 302.681 188.993 307.551 191.627L308.173 191.258C307.643 189.582 297.23 183.589 300.631 178.997C302.807 176.058 309.497 181.992 311.621 182.979C315.058 184.576 327.111 186.325 328.098 187.385C332.869 192.514 325.796 193.839 323.792 195.039C320.715 194.934 311.85 190.258 309.33 191.466L309.21 191.304C309.359 191.878 309.77 192.078 310.08 192.571C316.939 195.795 324.539 196.773 331.993 197.562L331.993 184.535C321.326 183.59 310.841 180.303 302.9 172.87C300.208 176.464 296.629 179.192 293.827 182.685ZM341.593 201.26C341.937 202.929 342.151 203.48 343.531 204.621C344.404 206.926 343.857 209.707 344.816 211.875C345.271 208.514 344.839 204.676 344.816 201.26L341.593 201.26Z"/>
	<path fill="#F7B88A" transform="scale(0.117188 0.117188)" d="M400.341 138.208C400.758 138.884 402.523 144.415 403.16 146.028C398.692 146.093 399.898 143.746 400.341 138.208Z"/>
	<path fill="#FDCF4B" transform="scale(0.117188 0.117188)" d="M383.662 129.25C384.89 130.414 383.296 131.817 385.081 133.018C386.552 134.007 387.056 135.968 387.828 137.491L383.662 137.491L383.662 129.25Z"/>
	<path fill="#F5F8F9" transform="scale(0.117188 0.117188)" d="M291.77 197.562C293.804 195.145 295.891 192.622 298.264 190.528C302.481 193.53 306.795 195.207 311.296 197.562C307.187 198.031 303.721 195.183 299.806 194.382C296.396 193.685 295.08 198.41 291.77 197.562Z"/>
	<path fill="#DCF0F4" transform="scale(0.117188 0.117188)" d="M307.551 191.627L308.173 191.258C307.643 189.582 297.23 183.589 300.631 178.997C302.807 176.058 309.497 181.992 311.621 182.979C315.058 184.576 327.111 186.325 328.098 187.385C332.869 192.514 325.796 193.839 323.792 195.039C320.715 194.934 311.85 190.258 309.33 191.466L309.21 191.304C309.359 191.878 309.77 192.078 310.08 192.571L307.551 191.627Z"/>
	<path fill="#4DF2E3" transform="scale(0.117188 0.117188)" d="M384.278 173.782C387.495 176.19 391.538 178.662 394.244 181.588C393.923 187.135 389.767 190.206 385.828 193.699C378.92 199.826 374.479 190.265 368.922 186.943C371.239 185.783 373.523 184.379 375.488 182.685C382.362 185.196 383.119 179.22 384.278 173.782Z"/>
	<path fill="#F498B5" transform="scale(0.117188 0.117188)" d="M325.992 51.6677C330.114 51.6439 337.404 51.0505 341.11 51.9919C345.113 53.0086 346 65.2776 341.593 67.1589C338.207 67.2977 325.581 68.7764 323.542 65.2095C321.871 62.2856 321.414 53.8949 325.992 51.6677Z"/>
	<path fill="#F498B5" transform="scale(0.117188 0.117188)" d="M322.865 201.26C327.815 200.464 336.186 201.269 341.593 201.26C341.937 202.929 342.151 203.48 343.531 204.621C344.404 206.926 343.857 209.707 344.816 211.875C344.714 217.999 334.023 216.903 330.208 216.761C320.413 216.395 322.014 209.025 322.865 201.26Z"/>
	<path fill="#F498B5" transform="scale(0.117188 0.117188)" d="M280.365 172.87C281.703 174.054 282.474 175.585 284.037 176.549C285.805 177.359 286.262 179.345 288.019 180.257C289.543 183.293 292.471 185.432 294.302 188.291C291.189 193.206 285.814 199.221 279.987 194.146C271.389 186.658 265.534 178.503 280.365 172.87Z"/>
	<path fill="#FDCF4B" transform="scale(0.117188 0.117188)" d="M381.464 75.724C386.267 75.5521 393.081 84.0872 395.094 87.8594C393.151 90.8167 389.675 93.6336 387.058 96.0415L383.662 92.8466C381.156 94.8466 379.118 97.3812 377.097 99.8512C375.783 101.074 374.526 102.343 373.272 103.626C370.72 101.192 368.331 98.5456 365.841 96.0415C369.392 92.0322 374.097 88.6989 377.097 84.3014C376.268 83.6084 375.508 82.877 374.751 82.1066C376.852 79.9058 379.043 77.5711 381.464 75.724Z"/>
	<defs>
		<linearGradient id="gradient_0" gradientUnits="userSpaceOnUse" x1="384.78494" y1="137.65137" x2="412.56586" y2="133.61418">
			<stop offset="0" stop-color="#FFCD46"/>
			<stop offset="1" stop-color="#FFA59B"/>
		</linearGradient>
	</defs>
	<path fill="url(#gradient_0)" transform="scale(0.117188 0.117188)" d="M400.341 123.686C403.303 123.651 406.427 123.42 409.372 123.686C414.209 127.193 413.576 141.19 411.243 144.309C409.532 146.596 405.642 146.074 403.16 146.028C402.523 144.415 400.758 138.884 400.341 138.208C397.98 137.085 390.567 137.485 387.828 137.491C387.056 135.968 386.552 134.007 385.081 133.018C383.296 131.817 384.89 130.414 383.662 129.25L383.773 128.649C386.271 127.768 397.056 128.327 400.341 128.339L400.341 123.686Z"/>
	<path fill="#F6D860" transform="scale(0.117188 0.117188)" d="M280.365 75.724C282.867 72.8964 284.483 74.3281 286.898 76.6358C288.961 78.3555 291.022 80.1788 292.892 82.1066C292.238 82.8468 291.583 83.5829 290.905 84.3014C292.77 86.9806 295.667 89.0751 297.327 91.5635C298.854 92.978 300.222 94.4681 301.583 96.0415C298.918 98.3179 296.322 100.738 294.302 103.626C292.223 101.761 289.974 99.9466 288.019 97.9612C286.607 95.9995 284.994 94.3929 283.143 92.8466C282.194 93.4055 281.282 94.0128 280.365 94.6227C270.743 87.5786 269.809 82.4193 280.365 75.724Z"/>
	<path fill="#FDCF4B" transform="scale(0.117188 0.117188)" d="M280.365 75.724C282.867 72.8964 284.483 74.3281 286.898 76.6358L286.663 76.7878C283.619 77.0325 284.365 75.231 280.36 76.9998L280.108 76.7553L280.365 75.724Z"/>
	<path fill="#F6D860" transform="scale(0.117188 0.117188)" d="M265.276 125.583C265.686 125.521 266.887 126.906 267.632 127.046C271.39 127.751 279.712 126.915 284.037 127.085C284.553 128.317 284.015 134.358 284.037 136.159L284.157 137.172L283.839 137.518L283.143 137.491C277.975 137.731 272.739 137.383 267.556 137.491C267.111 141.032 267.377 144.507 267.556 148.058C261.137 148.13 255.418 149.401 254.981 141.162C254.356 129.366 253.494 125.691 265.276 125.583Z"/>
	<path fill="#FDCF4B" transform="scale(0.117188 0.117188)" d="M284.037 127.085C284.553 128.317 284.015 134.358 284.037 136.159L284.157 137.172L283.839 137.518L283.143 137.491C282.493 137.335 281.763 137.484 281.211 137.051L281.312 136.159C281.309 134.788 282.592 131.321 282.405 130.677C281.387 127.162 279.635 127.677 284.037 127.085Z"/>
	<path fill="#F498B5" transform="scale(0.117188 0.117188)" d="M286.15 174.721C286.317 177.019 288.059 178.42 290.053 179.147C289.373 179.506 288.668 179.846 288.019 180.257C286.262 179.345 285.805 177.359 284.037 176.549L286.15 174.721Z"/>
	<path fill="#F5F8F9" transform="scale(0.117188 0.117188)" d="M275.705 158.706C281.102 164.015 273.917 146.638 284.361 151.066C286.256 151.87 286.114 153.776 286.051 155.529C285.938 158.69 296.556 171.601 288.807 172.03C285.505 172.213 282.519 166.462 281.627 167.239C282.396 168.994 286.062 170.752 286.15 172.501C281.544 169.931 277.849 163.305 275.705 158.706Z"/>
	<path fill="#202999" transform="scale(0.117188 0.117188)" d="M331.183 99.8512C374.954 96.5384 382.044 164.443 336.393 168.405C293.8 171.445 284.491 105.721 331.183 99.8512ZM331.993 103.626C293.534 107.226 293.809 165.107 336.393 164.505C365.273 161.012 373.258 126.504 351.97 110.04C346.828 106.064 338.609 102.582 331.993 103.626Z"/>
	<path fill="#202999" transform="scale(0.117188 0.117188)" d="M326.604 125.583C316.54 104.244 350.936 107.057 340.809 125.583C356.72 131.229 354.52 153.495 348.722 149.745C348.134 144.307 350.031 137.712 346.134 133.116C341.238 127.341 327.877 126.971 322.521 131.871C317.94 136.061 319.232 144.091 319.031 149.745C313.188 154.038 311.035 130.666 326.604 125.583ZM331.993 114.297C326.338 117.771 328.036 125.771 335.076 124.664C336.352 123.981 336.895 123.238 337.588 121.998C339.402 117.233 337.486 113.746 331.993 114.297Z"/>
	<path fill="#F6D860" transform="scale(0.117188 0.117188)" d="M319.031 149.745C319.232 144.091 317.94 136.061 322.521 131.871C327.877 126.971 341.238 127.341 346.134 133.116C350.031 137.712 348.134 144.307 348.722 149.745C344.131 150.529 323.898 150.015 319.031 149.745Z"/>
	<path fill="#DCF0F4" transform="scale(0.117188 0.117188)" d="M155.69 163.022C158.308 159.947 165.628 155.038 169.014 152.599C196.886 132.523 217.643 128.457 249.728 123.726L249.981 123.686C250.399 125.114 250.426 126.601 250.833 128.043L251.407 128.339C251.472 133.929 250.052 145.038 254.057 149.075C257.985 153.032 263.305 151.155 268.111 151.782L268.751 151.847C270.887 154.946 273.995 164.359 277.664 169.995C275.442 170.637 273.548 171.633 271.604 172.87C268.71 176.961 265.194 182.417 268.372 187.367C274.218 196.472 281.301 202.886 291.77 197.562C295.08 198.41 296.396 193.685 299.806 194.382C303.721 195.183 307.187 198.031 311.296 197.562C311.657 197.55 312.039 197.504 312.396 197.562C314.562 198.547 316.707 199.535 319.031 200.095C318.9 201.48 318.858 202.965 319.031 204.348C316.931 225.306 329.663 219.893 343.981 220.487C343.454 220.893 342.975 220.941 342.324 221.011L342.518 220.636L342.173 221.069C348.722 221.828 352.141 225.673 356.54 228.866C356.728 232.055 356.57 235.302 356.566 238.498L356.54 254.969L321.19 254.961C299.816 254.965 294.262 251.378 294.321 276.566C294.335 282.297 293.24 289.723 295.822 295.026C297.407 297.561 298.882 298.557 301.583 299.765C306.681 301.762 328.448 300.46 335.485 300.716C339.114 303.569 347.538 313.653 351.694 313.756C352.072 315.988 352.727 316.501 354.841 315.322C353.762 316.419 352.564 317.49 351.694 318.763C346.026 327.548 349.294 329.587 349.58 337.239L349.187 337.321C348.676 338.932 347.684 343.325 346.291 344.144C344.96 344.926 339.53 347.794 343.981 348.286C340.349 350.146 336.93 352.029 333.656 354.495C333.274 351.044 326.6 350.786 324.172 348.94C322.526 347.689 321.452 344.98 320.364 343.21C320.413 341.862 320.469 341.165 319.629 340.043C327.316 328.017 321.016 312.086 306.287 311.247C295.097 310.609 287.443 319.288 286.898 330C282.949 333.575 288.549 342.45 288.232 344.7C287.894 347.094 283.17 348.894 281.648 350.575C284.076 353.096 279.258 353.26 278.916 356.108L279.408 356.228C277.594 358.786 275.788 361.324 274.222 364.046C274.984 360.485 271.725 362.676 269.662 361.835C266.803 360.67 263.688 354.048 265.733 351.393L265.276 350.995C267.094 342.883 269.582 338.367 264.403 330.111C249.828 306.881 214.127 333.942 234.973 354.495C234.004 355.784 233.51 360.23 234.973 361.446C227.752 365.028 223.08 368.992 218.194 375.31C217.027 373.647 212.979 372.72 211.042 372.554L210.773 373.027C210.936 373.45 211.044 373.843 211.092 374.292C202.29 366.926 203.874 363.523 188.834 359.427C199.348 355.277 205.08 343.176 200.203 332.643C189.594 309.727 153.396 324.807 166.068 350.995C164.297 350.531 165.672 349.321 163.681 350.995C164.789 353.069 167.12 356.525 167.552 358.695C165.759 361.506 166.818 361.285 169.076 362.642C166.683 363.462 164.74 364.414 162.679 365.918C152.031 356.88 142.398 346.996 134.91 335.142C130.938 328.854 119.292 307.223 120.756 300.716C118.918 300.689 112.139 301.25 111.065 300.716C130.377 300.716 149.774 300.317 169.076 300.716C169.776 303.376 170.378 304.721 172.72 306.335C177.724 306.855 190.486 306.654 195.304 306.201C199.171 305.838 200.159 304.592 200.677 300.716L237.462 300.716C255.647 300.726 265.372 305.215 269.192 283.879C270.257 277.933 263.371 279.67 259.475 279.709L259.462 216.336C259.468 205.944 263.276 190.725 254.202 185.318L254.263 185.197C253.384 183.729 248.857 185.47 250.841 183.594L250.741 183.129C249.805 182.2 248.395 181.675 247.221 181.091C247.05 179.989 248.432 178.432 248.467 177.051C248.535 174.385 246.693 171.99 247.204 169.292L246.861 169.113C235.955 168.719 224.876 169.107 213.951 169.107C205.132 169.107 194.067 166.886 186.675 172.87C186.02 172.093 179.366 170.603 178.592 170.844L178.28 171.582C174.859 169.625 171.79 169.277 167.935 169.113C162.885 169.528 157.394 169.124 152.302 169.113C151.386 166.195 153.557 164.703 155.69 163.022ZM312.396 197.562C312.534 197.982 312.704 198.135 312.512 198.55L311.887 198.347C312.218 199.181 313.154 199.669 313.91 200.054C317.498 201.883 317.331 208.57 319.031 204.348C318.858 202.965 318.9 201.48 319.031 200.095C316.707 199.535 314.562 198.547 312.396 197.562ZM301.583 299.765C298.882 298.557 297.407 297.561 295.822 295.026L294.927 294.654C293.775 297.747 297.955 301.043 300.931 300.429L301.583 299.765Z"/>
	<path fill="#F5F8F9" transform="scale(0.117188 0.117188)" d="M152.302 169.113C151.386 166.195 153.557 164.703 155.69 163.022C155.32 164.343 152.681 166.544 152.803 166.894C158.467 165.603 164.782 168.354 170.491 168.853L167.935 169.113C162.885 169.528 157.394 169.124 152.302 169.113Z"/>
	<path fill="#F5F8F9" transform="scale(0.117188 0.117188)" d="M335.485 300.716C339.114 303.569 347.538 313.653 351.694 313.756C352.072 315.988 352.727 316.501 354.841 315.322C353.762 316.419 352.564 317.49 351.694 318.763C351.361 318.791 351.1 318.768 350.771 318.729C350.011 314.948 344.836 313.155 342.301 310.443C338.606 306.49 341.679 306.851 333.987 301.682L334.272 301.368C334.928 301.286 334.989 301.121 335.485 300.716Z"/>
	<path fill="#F5F8F9" transform="scale(0.117188 0.117188)" d="M268.111 151.782L268.751 151.847C270.887 154.946 273.995 164.359 277.664 169.995C275.442 170.637 273.548 171.633 271.604 172.87C271.814 172.094 272.48 171.901 272.805 171.224C274.38 167.947 269.918 163.686 269.155 160.457C268.793 158.926 269.683 157.238 269.07 155.783C268.325 154.02 256.663 152.646 263.56 152.289L262.78 152.186C264.528 152.282 266.368 151.966 268.111 151.782Z"/>
	<path fill="#202999" transform="scale(0.117188 0.117188)" d="M152.302 169.113C157.394 169.124 162.885 169.528 167.935 169.113C171.79 169.277 174.859 169.625 178.28 171.582L178.592 170.844C179.366 170.603 186.02 172.093 186.675 172.87C194.067 166.886 205.132 169.107 213.951 169.107C224.876 169.107 235.955 168.719 246.861 169.113L247.204 169.292C246.693 171.99 248.535 174.385 248.467 177.051C248.432 178.432 247.05 179.989 247.221 181.091C248.395 181.675 249.805 182.2 250.741 183.129L250.841 183.594C248.857 185.47 253.384 183.729 254.263 185.197L254.202 185.318C263.276 190.725 259.468 205.944 259.462 216.336L259.475 279.709C263.371 279.67 270.257 277.933 269.192 283.879C265.372 305.215 255.647 300.726 237.462 300.716L200.677 300.716C200.159 304.592 199.171 305.838 195.304 306.201C190.486 306.654 177.724 306.855 172.72 306.335C170.378 304.721 169.776 303.376 169.076 300.716C149.774 300.317 130.377 300.716 111.065 300.716C98.7843 299.305 95.987 290.727 96.0002 279.709C100.102 279.931 104.171 279.829 108.273 279.709L108.269 224.458C108.269 214.872 107.996 205.211 108.321 195.637C108.617 186.896 112.195 184.168 120.756 184.535C121.12 180.022 119.973 174.086 121.281 169.897L121.616 169.555L121.523 169.432C122.522 169.589 131.172 169.113 133.242 169.114L152.302 169.113ZM195.801 172.87C183.995 174.714 185.466 185.105 185.471 194.089L185.476 275.126C188.11 272.228 190.319 268.922 193.565 266.66C204.328 266.46 215.127 266.664 225.896 266.66L242.997 266.66C242.648 256.88 242.997 246.979 242.997 237.182L242.997 172.87L211.399 172.858C206.235 172.856 200.953 172.627 195.801 172.87ZM152.302 172.87L124.7 172.87L124.7 266.66L163.681 266.66C167.46 266.686 171.289 266.837 175.062 266.66C177.165 269.567 179.492 272.285 181.675 275.126C181.42 253.304 181.671 231.448 181.67 209.623L181.696 192.98C181.772 169.145 174.16 172.942 152.302 172.87ZM178.28 171.582C180.208 173.036 181.812 174.711 183.369 176.549C184.391 175.224 185.489 174.05 186.675 172.87C186.02 172.093 179.366 170.603 178.592 170.844L178.28 171.582Z"/>
	<path fill="#F5F8F9" transform="scale(0.117188 0.117188)" d="M246.861 169.113L247.204 169.292C246.693 171.99 248.535 174.385 248.467 177.051C248.432 178.432 247.05 179.989 247.221 181.091C248.395 181.675 249.805 182.2 250.741 183.129L250.841 183.594C248.857 185.47 253.384 183.729 254.263 185.197L254.202 185.318C251.751 184.755 249.361 184.665 246.861 184.535C246.606 180.833 246.34 172.502 246.861 169.113Z"/>
	<path fill="#4AD5E5" transform="scale(0.117188 0.117188)" d="M194.304 270.486L255.71 270.486L255.71 279.709C253.379 279.554 251.145 279.51 248.812 279.709L186.675 279.709C189.055 276.622 191.419 273.114 194.304 270.486Z"/>
	<path fill="#4AD5E5" transform="scale(0.117188 0.117188)" d="M248.812 188.291C259.127 187.732 255.714 204.438 255.715 212.358L255.71 243.034C255.709 246.732 256.177 264.413 255.463 266.64L254.202 266.66C251.751 266.59 249.311 266.617 246.861 266.66C246.497 251.924 246.854 237.087 246.856 222.342L246.876 199.102C246.888 195.766 245.361 189.057 248.812 188.291Z"/>
	<path fill="#4AD5E5" transform="scale(0.117188 0.117188)" d="M118.193 187.385L120.756 187.385L120.756 270.486L172.72 270.486C175.548 273.42 177.965 276.707 180.721 279.709L175.062 279.709L112.067 279.709C111.927 274.67 112.058 269.59 112.059 264.547L112.063 209.754C112.062 201.615 109.381 190.251 118.193 187.385Z"/>
	<path fill="#C4C5E3" transform="scale(0.117188 0.117188)" d="M148.904 283.309L226.378 283.307C239.335 283.307 252.322 283.509 265.276 283.309C262.007 301.022 257.696 296.955 240.163 296.956L211.092 296.945L197.243 296.945C196.973 298.83 197.172 300.853 197.243 302.752C189.346 302.57 181.388 303.119 173.507 302.752C173.319 300.794 173.075 298.879 172.72 296.945L130.905 296.949C118.659 296.95 100.438 300.768 99.6 283.309L148.904 283.309Z"/>
	<path fill="#202999" transform="scale(0.117188 0.117188)" d="M135.075 228.866L156.634 228.871C160.9 228.873 168.689 228.278 172.631 229.434C175.166 230.177 174.432 232.428 172.062 232.73L144.23 232.697C141.571 232.691 134.168 234.158 132.482 231.539C132.235 229.67 133.533 229.192 135.075 228.866Z"/>
	<path fill="#202999" transform="scale(0.117188 0.117188)" d="M134.345 251.033L159.018 251.029C159.649 251.029 180.494 249.587 172.72 254.969C164.217 254.835 141.258 256.227 133.994 254.659C131.627 254.148 132.213 251.635 134.345 251.033Z"/>
	<path fill="#202999" transform="scale(0.117188 0.117188)" d="M133.305 183.745L158.748 183.728C159.459 183.727 179.73 182.084 172.72 187.385C168.386 187.811 163.134 187.395 158.699 187.391L143.73 187.396C141.789 187.406 129.121 188.971 133.305 183.745Z"/>
	<path fill="#202999" transform="scale(0.117188 0.117188)" d="M133.305 240.255C141.591 240.167 149.884 240.263 158.171 240.243C161.088 240.236 177.71 237.965 173.507 243.922C168.165 244.506 135.457 244.218 133.545 243.556C132.588 242.661 132.553 241.297 133.305 240.255Z"/>
	<path fill="#202999" transform="scale(0.117188 0.117188)" d="M133.305 194.597C136.321 194.34 172.196 194.425 173.177 194.736C174.625 195.197 173.848 197.324 173.507 198.284C171.854 198.518 169.967 198.324 168.291 198.31L142.904 198.306C139.39 198.313 130.479 200.042 133.305 194.597Z"/>
	<path fill="#202999" transform="scale(0.117188 0.117188)" d="M134.345 205.383L159.234 205.379C159.921 205.378 180.18 203.947 172.72 209.13C163.789 209.649 144.65 209.974 135.557 209.105C132.703 208.833 131.244 206.572 134.345 205.383Z"/>
	<path fill="#202999" transform="scale(0.117188 0.117188)" d="M214.364 239.507C218.342 239.273 239.656 236.477 235.581 243.922C233.463 243.576 208.027 246.195 214.364 239.507Z"/>
	<path fill="#202999" transform="scale(0.117188 0.117188)" d="M193.565 183.745L220.157 183.742C220.726 183.741 242.845 181.992 234.973 187.385C230.614 187.603 196.363 187.767 194.052 187.023C192.884 186.058 192.791 185.081 193.565 183.745Z"/>
	<path fill="#202999" transform="scale(0.117188 0.117188)" d="M193.565 205.383C197.339 205.148 233.948 205.064 235.508 205.772C236.901 206.404 236.118 208.161 235.581 209.13C233.139 209.704 230.414 209.183 227.924 209.151C217.719 209.022 205.183 210.018 195.488 209.016C193.335 208.793 193.271 207.185 193.565 205.383Z"/>
	<path fill="#202999" transform="scale(0.117188 0.117188)" d="M195.801 194.597C199.779 194.598 234.068 194.186 235.316 194.805C237.714 195.994 236.093 198.161 234.062 198.284L206.426 198.237C203.533 198.25 195.246 199.934 193.439 197.061C193.225 195.276 194.221 194.831 195.801 194.597Z"/>
	<path fill="#202999" transform="scale(0.117188 0.117188)" d="M195.801 228.866C207.742 228.872 238.459 225.825 236.259 231.562C233.435 233.763 224.375 232.724 220.859 232.726L197.243 232.73L197.243 251.033C199.08 250.904 200.865 250.854 202.7 251.033L225.821 251.032C227.978 251.013 236.073 249.486 236.693 252.467C235.637 255.917 222.231 254.274 219.382 254.27C216.038 254.266 194.762 255.214 194.008 253.551C193.624 252.704 190.971 229.795 195.801 228.866Z"/>
	<path fill="#202999" transform="scale(0.117188 0.117188)" d="M354.841 315.322C369.839 301.289 399.782 324.086 374.751 345.517C382.969 346.571 390.436 351 396.715 356.228C401.367 350.494 407.394 346.738 414.568 345C399.167 334.185 402.551 314.322 419.032 311.512C437.443 308.373 449.358 332.343 429.727 345.517C445.106 348.241 454.412 363.783 455.351 378.424C455.446 379.901 456.194 386.608 453.168 385.886C452.214 385.659 451.862 384.89 451.587 384.05C448.351 386.723 441.842 385.375 437.88 385.371L414.568 385.356C415.673 396.171 415.687 404.164 411.673 414.488C410.574 417.315 408.59 419.968 408.296 423.043C407.888 427.307 409.734 447.039 406.767 448.385C403.43 448.098 394.17 438.996 391.096 436.525C387.152 437.984 383.383 439.522 379.327 440.693C379.366 460.77 381.953 470.704 362.847 445.805C361.092 447.927 349.416 460.131 347.633 460.267C344.127 460.533 345.647 443.53 345.656 440.693C342.036 439.814 338.691 438.431 335.485 436.525C327.559 444.138 319 457.189 319.027 441.053L319.055 429.246C319.128 412.873 309.65 406.919 313.115 387.258L284.881 387.258C285.771 390.486 290.14 402.131 283.143 400.489C278.447 400.94 271.533 400.501 266.555 400.498L235.786 400.483C230.529 400.48 225.228 400.301 219.977 400.489C218.748 400.691 217.842 400.7 216.625 400.489C214.572 400.725 212.307 400.533 210.234 400.52L197.735 400.483C181.479 400.48 165.15 400.156 148.904 400.489C145.454 401.797 145.323 399.105 145.622 396.42C147.061 383.481 152.662 373.993 162.679 365.918C164.74 364.414 166.683 363.462 169.076 362.642C166.818 361.285 165.759 361.506 167.552 358.695C167.12 356.525 164.789 353.069 163.681 350.995C165.672 349.321 164.297 350.531 166.068 350.995C153.396 324.807 189.594 309.727 200.203 332.643C205.08 343.176 199.348 355.277 188.834 359.427C203.874 363.523 202.29 366.926 211.092 374.292C211.044 373.843 210.936 373.45 210.773 373.027L211.042 372.554C212.979 372.72 217.027 373.647 218.194 375.31C223.08 368.992 227.752 365.028 234.973 361.446C233.51 360.23 234.004 355.784 234.973 354.495C214.127 333.942 249.828 306.881 264.403 330.111C269.582 338.367 267.094 342.883 265.276 350.995L265.733 351.393C263.688 354.048 266.803 360.67 269.662 361.835C271.725 362.676 274.984 360.485 274.222 364.046C275.788 361.324 277.594 358.786 279.408 356.228L278.916 356.108C279.258 353.26 284.076 353.096 281.648 350.575C283.17 348.894 287.894 347.094 288.232 344.7C288.549 342.45 282.949 333.575 286.898 330C287.443 319.288 295.097 310.609 306.287 311.247C321.016 312.086 327.316 328.017 319.629 340.043C320.469 341.165 320.413 341.862 320.364 343.21C321.452 344.98 322.526 347.689 324.172 348.94C326.6 350.786 333.274 351.044 333.656 354.495C336.93 352.029 340.349 350.146 343.981 348.286C339.53 347.794 344.96 344.926 346.291 344.144C347.684 343.325 348.676 338.932 349.187 337.321L349.58 337.239C349.294 329.587 346.026 327.548 351.694 318.763C352.564 317.49 353.762 316.419 354.841 315.322ZM362.847 348.286C337.306 348.595 316.326 370.68 316.626 395.996C316.73 404.725 319.398 416.403 325.832 422.724L325.992 422.879C324.965 423.626 323.812 424.355 322.865 425.192L322.865 442.711C326.792 439.161 330.675 434.835 335.076 431.928C338.525 433.709 341.833 435.677 345.656 436.525C345.712 405.775 339.147 408.596 364.875 408.502C366.776 408.498 377.704 407.882 378.785 408.711C379.929 412.443 379.329 431.095 379.327 436.525C383.943 435.524 387.872 433.26 392.334 431.928C395.251 435.359 400.708 439.857 404.272 442.711C404.276 439.395 404.833 427.2 403.731 424.981C401.792 421.074 406.217 417.291 407.738 413.734C418.077 389.566 405.51 360.71 380.974 351.315C375.665 349.282 368.569 347.429 362.847 348.286ZM349.58 412.251L349.566 441.922C349.563 445.183 349.111 450.608 349.58 453.618C351.402 451.952 353.341 450.016 354.841 448.055C357.655 445.884 360.205 443.1 362.847 440.693C364.471 442.391 365.987 444.188 367.696 445.805C370.063 448.617 372.794 451.125 375.488 453.618L375.488 449.643C375.482 437.189 375.283 424.702 375.488 412.251L349.58 412.251ZM180.721 325.324C160.12 330.069 164.441 357.798 184.618 356.228C205.205 351.568 200.334 323.393 180.721 325.324ZM246.861 325.324C226.086 328.779 229.18 356.227 249.981 356.228C270.112 352.787 266.306 323.454 246.861 325.324ZM302.44 315.322C284.576 320.61 288.61 344.799 307.551 343.21C326.309 338.285 320.767 313.327 302.44 315.322ZM365.841 315.322C350.301 315.937 344.438 340.21 367.111 343.21C388.509 339.825 380.227 311.923 365.841 315.322ZM420.28 315.322C401.463 319.645 407.604 345.21 424.325 342.418C442.306 338.276 437.896 314.135 420.28 315.322ZM265.276 350.995C262.067 354.296 258.937 357.026 254.991 359.427C261.917 361.134 267.048 363.522 272.455 368.236L274.222 364.046C274.984 360.485 271.725 362.676 269.662 361.835C266.803 360.67 263.688 354.048 265.733 351.393L265.276 350.995ZM279.408 356.228C280.948 355.533 283.557 352.626 285.132 351.463C288.723 348.809 293.178 347.1 297.327 345.517C290.963 342.264 287.337 337.394 286.898 330C282.949 333.575 288.549 342.45 288.232 344.7C287.894 347.094 283.17 348.894 281.648 350.575C284.076 353.096 279.258 353.26 278.916 356.108L279.408 356.228ZM343.981 348.286C348.457 346.745 352.694 345.657 357.373 345C354.383 342.68 351.945 340.188 349.58 337.239L349.187 337.321C348.676 338.932 347.684 343.325 346.291 344.144C344.96 344.926 339.53 347.794 343.981 348.286ZM163.681 350.995C164.789 353.069 167.12 356.525 167.552 358.695C165.759 361.506 166.818 361.285 169.076 362.642C171.431 360.68 173.804 360.059 176.735 359.427C171.951 357.634 168.997 355.176 166.068 350.995C164.297 350.531 165.672 349.321 163.681 350.995ZM234.973 354.495C234.004 355.784 233.51 360.23 234.973 361.446C237.272 360.463 239.392 359.828 241.866 359.427C239.287 358.07 237.078 356.509 234.973 354.495Z"/>
	<path fill="#F5F8F9" transform="scale(0.117188 0.117188)" d="M211.092 374.292C211.044 373.843 210.936 373.45 210.773 373.027L211.042 372.554C212.979 372.72 217.027 373.647 218.194 375.31C216.971 377.213 216.323 378.889 215.748 381.068C214.206 378.804 212.685 376.521 211.092 374.292Z"/>
	<path fill="#F5F8F9" transform="scale(0.117188 0.117188)" d="M319.629 340.043C320.469 341.165 320.413 341.862 320.364 343.21C321.452 344.98 322.526 347.689 324.172 348.94C326.6 350.786 333.274 351.044 333.656 354.495L331.183 356.228C324.13 351.795 322.335 348.43 313.115 345.517C315.797 344.107 317.704 342.359 319.629 340.043Z"/>
	<path fill="#F6D860" transform="scale(0.117188 0.117188)" d="M349.58 412.251L375.488 412.251C375.283 424.702 375.482 437.189 375.488 449.643L375.488 453.618C372.794 451.125 370.063 448.617 367.696 445.805C365.987 444.188 364.471 442.391 362.847 440.693C360.205 443.1 357.655 445.884 354.841 448.055C353.341 450.016 351.402 451.952 349.58 453.618C349.111 450.608 349.563 445.183 349.566 441.922L349.58 412.251ZM349.58 453.618C351.402 451.952 353.341 450.016 354.841 448.055L354.684 447.634L353.931 448.226C352.841 448.018 351.148 445.42 350.271 446.487C349.234 447.75 349.92 451.878 349.58 453.618Z"/>
	<path fill="#7280EA" transform="scale(0.117188 0.117188)" d="M275.705 371.466C282.931 352.584 303.835 340.963 321.61 353.763C323.961 355.456 326.076 357.562 328.3 359.427C319.881 366.423 314.771 376.482 313.115 387.258L284.881 387.258C282.752 381.594 279.855 375.932 275.705 371.466Z"/>
	<path fill="#FDCF4B" transform="scale(0.117188 0.117188)" d="M399.655 358.669C421.316 334.308 454.149 354.547 451.587 384.05C448.351 386.723 441.842 385.375 437.88 385.371L414.568 385.356C411.111 374.256 407.455 367.351 399.655 358.669Z"/>
	<path fill="#F7B88A" transform="scale(0.117188 0.117188)" d="M148.904 400.489C149.573 397.436 149.845 394.31 150.584 391.271C160.026 352.42 209.288 351.147 216.625 400.489C214.572 400.725 212.307 400.533 210.234 400.52L197.735 400.483C181.479 400.48 165.15 400.156 148.904 400.489Z"/>
	<path fill="#4AD5E5" transform="scale(0.117188 0.117188)" d="M218.194 385.356C219.698 378.075 226.006 371.599 232.046 367.65C253.248 353.788 278.263 370.766 282.182 393.945C282.547 396.102 282.679 398.36 283.143 400.489C278.447 400.94 271.533 400.501 266.555 400.498L235.786 400.483C230.529 400.48 225.228 400.301 219.977 400.489C219.912 395.474 218.388 390.611 218.2 385.586L218.194 385.356Z"/>
	<path fill="#202999" transform="scale(0.117188 0.117188)" d="M389.694 387.999C391.337 387.921 402.962 386.728 398.313 391.256C397.09 391.307 385.229 392.516 389.694 387.999Z"/>
	<path fill="#202999" transform="scale(0.117188 0.117188)" d="M328.3 387.999C329.82 387.883 341.426 386.689 337.588 391.256C335.955 391.265 323.535 392.414 328.3 387.999Z"/>
	<path fill="#202999" transform="scale(0.117188 0.117188)" d="M391.096 398.249C392.389 398.17 404.711 397.862 398.313 401.745C395.932 401.776 390.412 402.794 388.793 400.508C388.509 398.701 389.538 398.419 391.096 398.249Z"/>
	<path fill="#202999" transform="scale(0.117188 0.117188)" d="M328.3 398.249C328.752 398.246 342.956 397.405 337.588 401.745C335.762 401.913 323.623 403.152 328.3 398.249Z"/>
	<path fill="#202999" transform="scale(0.117188 0.117188)" d="M360.265 374.292C381.974 373.388 382.511 400.105 364.875 403.702C345.179 404.897 341.026 379.569 360.265 374.292Z"/>
	<path fill="#F498B5" transform="scale(0.117188 0.117188)" d="M362.116 378.087C375.83 378.303 378.153 395.766 363.742 400.489C349.016 399.505 347.645 380 362.116 378.087Z"/>
</svg>
