<?xml version="1.0" encoding="utf-8" ?>
<svg xmlns="http://www.w3.org/2000/svg" xmlns:xlink="http://www.w3.org/1999/xlink" width="60" height="60">
	<path fill="#55CDA2" transform="scale(0.117188 0.117188)" d="M78.6033 255.242C81.91 255.095 111.946 252.804 103.78 258.5C99.6138 258.758 95.2814 258.526 91.1015 258.527C88.7729 258.528 76.063 260.419 78.6033 255.242Z"/>
	<path fill="#55CDA2" transform="scale(0.117188 0.117188)" d="M98.6155 239.647C100.836 239.587 104.735 238.728 105.514 241.556L105.245 242.023C102.618 243.765 89.0409 242.974 84.8632 242.986C83.5974 243.015 76.5715 243.675 78.4596 240.583C81.0941 238.911 94.7312 239.637 98.6155 239.647Z"/>
	<path fill="#55CDA2" transform="scale(0.117188 0.117188)" d="M80.1151 247.308C84.2456 247.294 103.082 245.859 105.606 248.731L105.567 249.322C105 249.952 104.543 250.257 103.78 250.621C100.183 250.676 80.765 251.457 78.6908 249.804C78.0315 248.417 78.9057 247.84 80.1151 247.308Z"/>
	<path fill="#55CDA2" transform="scale(0.117188 0.117188)" d="M80.1151 231.995C83.4101 231.864 111.448 229.095 103.78 235.515C96.2928 235.512 88.6664 235.888 81.2005 235.52C78.3691 235.381 77.3153 233.109 80.1151 231.995Z"/>
	<path fill="#55CDA2" transform="scale(0.117188 0.117188)" d="M408.531 246.27L423.243 246.241C424.727 246.24 438.319 245.553 431.933 250.621C428.962 250.625 401.39 253.272 408.531 246.27Z"/>
	<path fill="#55CDA2" transform="scale(0.117188 0.117188)" d="M424.514 229.746C424.993 229.789 437.22 229.473 432.324 233.571C430.84 234.813 428.005 234.185 426.241 234.178L416.217 234.204C414.502 234.226 409.405 234.86 408.097 233.646C402.553 228.504 424.298 229.745 424.514 229.746Z"/>
	<path fill="#55CDA2" transform="scale(0.117188 0.117188)" d="M414.63 238.091C418.06 238.096 435.961 235.548 432.731 241.465C431.285 242.641 427.84 242.199 425.98 242.198C424.236 242.199 403.466 244.224 407.888 238.975C409.091 237.548 412.92 238.09 414.63 238.091Z"/>
	<path fill="#55CDA2" transform="scale(0.117188 0.117188)" d="M408.531 254.577C410.289 254.489 440.845 252.433 431.933 258.5C428.755 259.236 424.879 258.519 421.614 258.51C420.169 258.505 401.785 260.295 408.531 254.577Z"/>
	<path fill="#63B6F0" transform="scale(0.117188 0.117188)" d="M293.128 189.685C300.081 190.292 287.225 200.28 285.895 201.592C278.921 208.467 271.766 215.248 265.158 222.475C263.785 222.635 262.754 221.063 263.014 219.819C263.304 218.433 290.045 192.092 293.128 189.685Z"/>
	<path fill="#63B6F0" transform="scale(0.117188 0.117188)" d="M218.396 189.685C220.622 190.17 245.369 215.164 248.012 218.184C249.588 219.983 249.626 220.764 247.963 222.475L247.182 222.415C241.367 218.277 223.886 199.772 218.492 194.075C216.806 192.294 217.16 191.721 218.396 189.685Z"/>
	<path fill="#63B6F0" transform="scale(0.117188 0.117188)" d="M265.158 242.198C269.997 246.625 299.165 275.914 299.146 277.476C298.69 278.335 298.045 278.777 297.281 279.357C294.026 277.269 290.267 272.619 287.375 269.755C280.785 263.228 267.254 251.579 262.501 244.444C263.312 243.612 264.248 242.918 265.158 242.198Z"/>
	<path fill="#63B6F0" transform="scale(0.117188 0.117188)" d="M247.122 242.198C255.089 242.518 238.424 255.866 236.758 257.492C229.439 264.636 222.11 271.837 215.179 279.357C212.143 279.25 213.004 276.064 214.332 274.6C219.309 269.113 241.75 245.709 247.122 242.198Z"/>
	<path fill="#63B6F0" transform="scale(0.117188 0.117188)" d="M148.384 239.647C153.573 239.874 151.004 254.256 151 259.253C152.422 259.288 160.887 258.246 160.642 260.516C160.388 262.872 151.576 270.344 149.437 272.176C148.053 272.669 138.479 262.304 138.072 260.899C137.174 257.796 145.657 259.225 147.242 259.253L147.187 244.269C147.189 242.506 147.058 240.968 148.384 239.647Z"/>
	<path fill="#63B6F0" transform="scale(0.117188 0.117188)" d="M363.278 242.198C364.936 244.145 365.848 255.157 368.396 259.253C371.439 259.589 374.527 259.405 377.576 259.253C373.793 264.859 367.576 270.366 363.278 276.319C361.484 274.88 350.358 261.356 349.235 259.253L359.78 259.253C360.784 253.584 361.776 247.754 363.278 242.198Z"/>
	<path fill="#6579A4" transform="scale(0.117188 0.117188)" d="M389.78 199.749C390.104 203.509 389.761 207.485 389.78 211.278L389.78 215.012C389.912 220.096 388.257 219.328 383.859 219.247C383.795 225.451 382.826 228.691 375.99 229.569C372.284 230.046 353.113 230.085 349.447 229.505C343.543 228.57 341.602 224.943 341.053 219.247L339.082 219.261C332.975 219.271 334.692 216.294 334.753 211.278L334.753 200.735C341.166 200.736 388.084 201.133 389.513 200.485L389.78 199.749Z"/>
	<path fill="#525C76" transform="scale(0.117188 0.117188)" d="M334.753 211.278C353.037 211.072 371.498 210.854 389.78 211.278L389.78 215.012C383.555 215.19 377.272 215.023 371.043 215.022L334.753 215.012C334.783 213.769 334.758 212.522 334.753 211.278Z"/>
	<path fill="#FD8481" transform="scale(0.117188 0.117188)" d="M355.812 79.236C377.178 79.0974 391.538 81.4769 407.241 98.773C431.276 125.244 425.675 162.944 400.228 186.053C402.169 185.891 405.888 185.151 407.457 186.485C413.695 191.791 394.841 189.862 393.74 189.685C393.742 186.907 391.85 178.785 394.569 177.039C397.131 176.645 398.069 179.683 398.773 181.563C428.91 152.292 422.305 101.776 382.152 87.1438C378.025 85.6397 373.762 84.8609 369.535 83.7311C315.425 80.1739 285.616 140.643 324.085 179.256C325.717 180.895 332.283 186.07 332.857 187.541C334.578 191.954 309.733 192.494 314.596 186.991C315.932 185.479 322.464 186.069 324.506 186.053C322 183.423 319.295 180.978 316.927 178.22C284.909 140.926 308.021 85.2307 355.812 79.236Z"/>
	<path fill="#6579A4" transform="scale(0.117188 0.117188)" d="M149.437 85.8133C155.755 85.7394 159.594 89.846 160.553 95.9068C168.49 96.8841 176.935 100.119 183.435 104.787C186.908 102.877 196.445 101.736 199.606 103.416C203.233 105.344 200.351 116.314 198.422 119.732C203.346 126 208.585 135.012 209.298 143.105C225.003 146.623 223.1 163.61 209.298 164.79C206.764 171.903 205.154 176.84 200.742 183.243C200.786 183.328 200.832 183.412 200.875 183.498L201.077 183.903C202.568 186.839 202.904 199.817 201.811 202.814C199.995 203.89 187.602 203.633 185.132 203.264C184.161 203.119 183.138 201.911 182.238 201.959C181.057 202.022 176.968 205.602 175.562 206.322C170.912 208.703 165.615 210.072 160.553 211.278C156.805 223.328 142.505 223.641 138.578 212.064C134.299 210.32 129.846 209.291 125.636 207.276C119.251 204.22 121.646 202.348 113.992 202.686C111.194 202.81 102.285 203.36 100.134 202.35C97.5101 201.119 97.7697 187.129 99.5604 183.907L99.7487 183.574C98.9608 180.491 87.7841 168.1 94.3351 168.321C94.9132 168.64 102.578 181.52 103.78 183.243C121.987 183.791 118.656 180.349 118.688 199.749C125.628 201.885 130.294 207.015 138.578 207.913C142.523 195.159 154.75 196.556 160.553 207.913C163.261 206.986 166.02 206.2 168.732 205.271C173.688 203.534 177.941 200.599 182.22 197.641C182.238 195.37 181.674 185.558 182.583 184.182C183.808 182.329 193.516 184.008 195.823 183.24C200.052 181.83 203.915 169.106 206.031 165.156L206.23 164.79C197.556 158.771 195.209 148.695 206.23 143.752C203.994 135.745 201.11 128.397 195.538 122.073C185.83 125.079 177.657 117.232 182.22 107.965C175.742 103.361 168.276 100.751 160.553 99.2092C155.561 110.545 144.557 109.08 139.393 99.2092C130.758 99.8549 126.369 103.774 118.688 106.266C117.833 117.567 118.27 126.146 103.169 122.073C99.1642 126.67 94.0286 136.91 93.8716 143.105C112.189 148.486 99.4772 171.674 86.0169 162.653C77.4594 156.917 80.7633 144.841 90.8787 143.105C90.9424 134.569 95.4821 126.446 100.425 119.732C98.5309 116.224 97.154 105.937 98.896 103.775C99.6803 102.801 114.944 103.189 117.346 103.178C124.477 99.9069 131.262 95.707 139.393 95.9068C141.046 90.0148 143.014 87.0041 149.437 85.8133Z"/>
	<path fill="#2FCEF9" transform="scale(0.117188 0.117188)" d="M189.742 106.266C192.313 106.196 194.91 106.264 197.484 106.266C197.46 111.493 198.465 117.544 192.539 119.732C183.145 120.691 180.598 107.884 189.742 106.266Z"/>
	<path fill="#FED35E" transform="scale(0.117188 0.117188)" d="M107.087 106.266C109.817 106.391 112.527 106.37 115.258 106.266C115.308 111.82 116.627 117.53 110.237 119.732C101.134 120.636 101.667 113.029 102.092 106.266C103.76 106.325 105.419 106.298 107.087 106.266Z"/>
	<path fill="#FED35E" transform="scale(0.117188 0.117188)" d="M149.437 89.2892C159.007 88.636 159.534 101.795 151 103.979C141.716 104.337 139.476 91.8533 149.437 89.2892Z"/>
	<path fill="#FED35E" transform="scale(0.117188 0.117188)" d="M209.298 146.551C218.711 146.685 219.86 159.007 210.357 161.239C200.361 161.434 199.359 148.273 209.298 146.551Z"/>
	<path fill="#FD8481" transform="scale(0.117188 0.117188)" d="M102.092 186.726C106.426 186.634 110.944 186.296 115.258 186.726L115.258 199.749C112.932 199.342 104.661 199.511 102.092 199.749C101.915 195.439 102.053 191.041 102.092 186.726Z"/>
	<path fill="#FED35E" transform="scale(0.117188 0.117188)" d="M90.8787 146.551C100.635 145.129 103.157 157.6 93.8716 161.239C84.018 161.588 81.0756 149.485 90.8787 146.551Z"/>
	<path fill="#FED35E" transform="scale(0.117188 0.117188)" d="M149.437 202.753C157.454 200.717 159.793 215.239 149.94 217.332C139.478 215.969 138.459 203.472 149.437 202.753Z"/>
	<path fill="#2FCEF9" transform="scale(0.117188 0.117188)" d="M185.232 186.726L198.876 186.726C198.945 191.066 198.897 195.408 198.876 199.749C194.48 200.162 189.675 199.769 185.232 199.749L185.232 186.726Z"/>
	<path fill="#B8D7F6" transform="scale(0.117188 0.117188)" d="M165.207 401.789L220.913 401.789C220.624 405.77 222.334 427.962 219.323 428.858C215.865 429.888 206.741 429.315 202.654 429.316L115.22 429.31C109.764 429.31 83.5267 430.48 80.0431 428.545C76.5752 423.974 79.6194 408.167 78.6033 401.789C86.428 401.777 94.2692 401.657 102.092 401.789C104.072 402.109 115.219 401.998 117.346 401.789L131.499 401.789C133.011 401.841 134.498 401.86 136.011 401.789C140.992 401.993 146.013 401.775 151 401.789C155.735 401.808 160.473 401.861 165.207 401.789Z"/>
	<path fill="#63B6F0" transform="scale(0.117188 0.117188)" d="M110.237 410.021L186.893 410.016C190.153 410.002 202.913 408.557 203.15 413.72C203.405 419.279 196.061 418.426 192.539 418.515L115.63 418.534C113.051 418.534 104.387 419.362 102.409 417.784C95.11 411.961 106.151 410.159 110.237 410.021Z"/>
	<path fill="#B8D7F6" transform="scale(0.117188 0.117188)" d="M410.364 401.789L434.237 401.789C433.607 406.25 436.293 427.877 432.084 428.94C428.274 429.903 421.701 429.327 417.651 429.323L329.483 429.315C324.023 429.318 296.056 430.506 292.709 428.396C290.398 425.136 291.285 406.875 291.295 401.789L320.23 401.789L337.254 401.789C341.306 401.774 345.627 401.436 349.646 401.789C353.296 401.964 363.943 402.307 367.422 401.789L379.279 401.789C385.664 401.922 404.581 402.882 410.364 401.789L410.364 401.789Z"/>
	<path fill="#63B6F0" transform="scale(0.117188 0.117188)" d="M313.207 410.021C324.048 409.66 335.034 410.016 345.892 410.016L411.622 410.021C414.843 412.763 415.44 417.403 410.364 418.515C406.114 418.789 401.69 418.526 397.42 418.525L332.754 418.498C329.278 418.497 311.051 420.109 309.72 416.224C308.76 413.422 310.562 410.883 313.207 410.021Z"/>
	<path fill="#FD8481" transform="scale(0.117188 0.117188)" d="M162.3 187.443C139.947 195.167 114.833 178.247 114.399 154.129C113.539 106.266 185.393 104.966 186.233 153.572C186.473 169.143 176.518 182.051 162.3 187.443ZM146.217 157.886C143.955 155.343 135.856 146.406 132.651 146.322C130.026 146.253 127.679 148.658 127.883 151.287C128.229 155.735 141.667 165.504 145.238 169.209C147.639 169.386 148.357 168.957 150.183 167.341C153.628 164.295 170.344 148.302 171.927 145.678C172.658 144.467 172.203 142.968 171.877 141.704C165.117 133.224 152.783 152.413 146.217 157.886Z"/>
	<path fill="#DB4B58" transform="scale(0.117188 0.117188)" d="M171.877 141.704C175.49 141.138 182.36 151.123 186.233 153.572C186.473 169.143 176.518 182.051 162.3 187.443C159.699 182.624 146.551 172.926 145.238 169.209C147.639 169.386 148.357 168.957 150.183 167.341C153.628 164.295 170.344 148.302 171.927 145.678C172.658 144.467 172.203 142.968 171.877 141.704Z"/>
	<path fill="#6579A4" transform="scale(0.117188 0.117188)" d="M78.6033 401.789C78.36 393.666 78.6032 385.471 78.6034 377.338L78.5984 304.027C78.5956 280.502 76.1872 285.537 101.314 285.548L188.056 285.544C196.841 285.539 205.717 285.249 214.486 285.648C223.699 286.067 220.933 296.635 220.925 303.905L220.913 401.789L165.207 401.789C165.333 399.625 165.533 397.506 165.207 395.352C172.106 385.464 189.55 389.479 201.291 389.496C215.454 389.517 212.052 384.543 212.048 372.031L212.039 317.71C212.034 290.355 214.334 294.592 185.008 294.552C172.659 294.535 156.949 290.236 151.582 302.58C148.025 293.846 140.206 294.551 131.969 294.551L102.567 294.512C96.2487 294.505 88.6655 292.945 88.4141 301.672C87.9491 317.816 88.3369 334.088 88.3378 350.245L88.3416 371.077C88.3474 388.296 85.1324 389.514 102.092 389.489L102.092 401.789C94.2692 401.657 86.428 401.777 78.6033 401.789Z"/>
	<path fill="#FED35E" transform="scale(0.117188 0.117188)" d="M345.486 173.149C344.869 173.066 344.299 172.846 343.745 172.568C325.357 163.355 319.355 138.245 329.209 120.587C353.569 76.9356 421.407 113.679 394.538 159.616C391.321 165.115 385.623 171.474 379.279 173.149L379.279 196.762C384.814 196.525 389.475 194.16 389.78 199.749L389.513 200.485C388.084 201.133 341.166 200.736 334.753 200.735C334.642 194.37 339.171 196.728 345.486 196.762L345.486 173.149ZM368.396 140.435C364.899 141.944 365.608 144.889 369.355 145.586C372.327 146.14 383.35 145.73 386.688 145.682C388.022 145.224 388.33 144.315 388.926 143.105C386.399 138.272 373.922 140.305 368.396 140.435ZM342.335 140.435C340.739 140.476 337.419 140.8 337.772 143.212C338.34 147.104 352.156 145.674 355.812 145.682C357.046 145.648 357.774 145.548 358.669 144.64C364.68 138.543 344.104 140.442 342.335 140.435Z"/>
	<path fill="#FDFDFE" transform="scale(0.117188 0.117188)" d="M343.989 130.521L385.957 130.521L385.957 135.756L382.471 135.756L352.932 135.746C349.653 135.725 345.398 136.175 342.252 135.671C339.345 135.205 338.269 131.218 343.989 130.521Z"/>
	<path fill="#525C76" transform="scale(0.117188 0.117188)" d="M345.486 173.149C345.487 170.703 345.112 157.94 345.863 156.553C346.867 154.699 349.097 155.779 349.241 157.599C349.569 161.755 349.255 166.155 349.248 170.344L349.235 196.762L375.317 196.762C375.316 193.292 374.895 165.398 375.687 163.57C376.039 162.757 377.295 161.602 378.209 162.322C379.46 163.307 379.186 171.187 379.279 173.149L379.279 196.762C384.814 196.525 389.475 194.16 389.78 199.749L389.513 200.485C388.084 201.133 341.166 200.736 334.753 200.735C334.642 194.37 339.171 196.728 345.486 196.762L345.486 173.149Z"/>
	<path fill="#FDFDFE" transform="scale(0.117188 0.117188)" d="M102.092 389.489C85.1324 389.514 88.3474 388.296 88.3416 371.077L88.3378 350.245C88.3369 334.088 87.9491 317.816 88.4141 301.672C88.6655 292.945 96.2487 294.505 102.567 294.512L131.969 294.551C140.206 294.551 148.025 293.846 151.582 302.58C156.949 290.236 172.659 294.535 185.008 294.552C214.334 294.592 212.034 290.355 212.039 317.71L212.048 372.031C212.052 384.543 215.454 389.517 201.291 389.496C189.55 389.479 172.106 385.464 165.207 395.352C165.533 397.506 165.333 399.625 165.207 401.789C160.473 401.861 155.735 401.808 151 401.789C146.013 401.775 140.992 401.993 136.011 401.789C134.498 401.86 133.011 401.841 131.499 401.789L117.346 401.789C115.219 401.998 104.072 402.109 102.092 401.789L102.092 389.489Z"/>
	<path fill="#B8D7F6" transform="scale(0.117188 0.117188)" d="M102.092 349.916C99.3947 349.137 98.9984 346.936 102.092 346.175L102.092 349.916Z"/>
	<path fill="#B8D7F6" transform="scale(0.117188 0.117188)" d="M102.092 362.992C98.7882 361.947 100.022 359.741 102.092 358.277L102.092 362.992Z"/>
	<path fill="#B8D7F6" transform="scale(0.117188 0.117188)" d="M170.003 370.684C177.739 370.263 193.362 370.012 200.947 370.769C203.451 371.018 203.293 372.955 202.115 374.73C198.943 374.98 172.018 375.007 170.11 374.29C168.904 373.837 169.578 371.475 170.003 370.684Z"/>
	<path fill="#B8D7F6" transform="scale(0.117188 0.117188)" d="M172.656 358.277C175.908 358.053 201.455 357.96 202.779 358.703C204.695 359.779 202.472 362.145 200.742 362.438C193.644 362.761 176.889 363.234 169.901 362.394C168.184 359.56 170.276 358.497 172.656 358.277Z"/>
	<path fill="#B8D7F6" transform="scale(0.117188 0.117188)" d="M170.769 345.741L171.134 345.699C174.227 345.367 177.686 345.753 180.827 345.734L195.3 345.714C196.687 345.723 207.632 345.252 202.115 349.916L181.593 349.926C180.537 349.927 163.784 351.407 170.769 345.741Z"/>
	<path fill="#B8D7F6" transform="scale(0.117188 0.117188)" d="M167.761 308.058L188.862 308.044C190.937 308.044 204.809 306.456 202.908 310.978C201.826 312.095 200.334 312.053 198.876 312.203C187.554 311.509 174.591 312.342 163.052 312.203C162.989 310.821 163.028 309.44 163.052 308.058C164.621 308.084 166.191 308.066 167.761 308.058Z"/>
	<path fill="#B8D7F6" transform="scale(0.117188 0.117188)" d="M162.3 335.521C162.534 330.219 195.745 333.411 202.988 332.997C202.976 334.226 203.044 335.423 202.615 336.592C200.638 338.216 170.234 337.095 165.207 337.378L165.207 335.521C164.27 335.403 163.247 335.504 162.3 335.521Z"/>
	<path fill="#B8D7F6" transform="scale(0.117188 0.117188)" d="M102.092 308.058C109.025 307.943 134.712 306.986 140.614 308.157C142.741 308.579 142.606 311.875 140.308 312.203C129.817 312.652 112.333 312.919 102.043 312.114C99.0805 311.883 99.5374 308.573 102.092 308.058Z"/>
	<path fill="#B8D7F6" transform="scale(0.117188 0.117188)" d="M163.709 320.249C173.145 320.064 191.792 319.238 200.764 320.465C203.25 320.806 203.818 323.234 202.115 324.838L177.974 324.844C177.065 324.844 156.785 326.424 163.709 320.249Z"/>
	<path fill="#B8D7F6" transform="scale(0.117188 0.117188)" d="M136.011 337.378C132.114 337.906 103.074 339.175 100.785 337.106C99.9138 336.319 99.9135 334.722 100.691 333.865C104.868 331.86 112.566 332.992 117.134 333.007L141.828 332.997L143.186 335.521C140.361 335.628 136.068 334.112 136.011 337.378Z"/>
	<path fill="#B8D7F6" transform="scale(0.117188 0.117188)" d="M103.78 320.249C109.023 319.938 135.85 319.503 140.248 320.435C143.236 321.069 142.821 324.614 139.393 324.838C134.767 325.37 102.716 325.059 102.448 324.984C98.9474 324.014 98.6899 320.619 103.78 320.249Z"/>
	<path fill="#E1C1E1" transform="scale(0.117188 0.117188)" d="M102.092 346.175C110.935 345.589 122.688 345.899 131.499 346.175L131.499 346.175L117.346 346.175L117.356 383.601C117.352 389.608 116.987 395.81 117.346 401.789C115.219 401.998 104.072 402.109 102.092 401.789L102.092 389.489C102.318 386.617 102.119 383.58 102.109 380.692L102.092 362.992L102.092 358.277C102.193 355.491 102.129 352.703 102.092 349.916L102.092 346.175Z"/>
	<path fill="#CB8AB9" transform="scale(0.117188 0.117188)" d="M131.499 346.175C133.01 346.126 134.499 346.089 136.011 346.175L136.011 349.916L136.011 401.789C134.498 401.86 133.011 401.841 131.499 401.789L117.346 401.789C116.987 395.81 117.352 389.608 117.356 383.601L117.346 346.175L131.499 346.175L131.499 346.175Z"/>
	<path fill="#B8D7F6" transform="scale(0.117188 0.117188)" d="M131.499 346.175C133.01 346.126 134.499 346.089 136.011 346.175L136.011 349.916C132.71 350.417 131.775 349.705 131.499 353.38C131.538 350.984 131.642 348.569 131.499 346.175L131.499 346.175Z"/>
	<path fill="#FDFDFE" transform="scale(0.117188 0.117188)" d="M131.499 353.38C131.775 349.705 132.71 350.417 136.011 349.916L136.011 401.789C134.498 401.86 133.011 401.841 131.499 401.789L131.499 353.38Z"/>
	<path fill="#55CDA2" transform="scale(0.117188 0.117188)" d="M162.3 335.521C163.247 335.504 164.27 335.403 165.207 335.521L165.207 337.378L165.207 395.352C165.533 397.506 165.333 399.625 165.207 401.789C160.473 401.861 155.735 401.808 151 401.789C146.013 401.775 140.992 401.993 136.011 401.789L136.011 349.916L136.011 346.175L136.011 337.378C136.068 334.112 140.361 335.628 143.186 335.521L162.3 335.521Z"/>
	<path fill="#29B78D" transform="scale(0.117188 0.117188)" d="M151 335.521C155.663 335.47 160.595 336.075 165.207 335.521L165.207 337.378L165.207 395.352C165.533 397.506 165.333 399.625 165.207 401.789C160.473 401.861 155.735 401.808 151 401.789L151 335.521Z"/>
	<path fill="#FDFDFE" transform="scale(0.117188 0.117188)" d="M291.295 401.789L291.287 304.032C291.287 298.988 289.067 287.029 295.311 286.495C301.575 285.96 308.021 286.238 314.306 286.243L403.796 286.265C412.27 286.265 420.785 286.074 429.253 286.204C433.861 286.274 434.142 288.132 434.231 292.185C434.391 299.448 434.248 306.742 434.243 314.009L434.244 386.152C434.245 391.339 434.445 396.611 434.237 401.789L410.364 401.789L410.364 401.789C404.581 402.882 385.664 401.922 379.279 401.789L367.422 401.789C363.943 402.307 353.296 401.964 349.646 401.789C345.627 401.436 341.306 401.774 337.254 401.789L320.23 401.789L291.295 401.789Z"/>
	<path fill="#B8D7F6" transform="scale(0.117188 0.117188)" d="M320.23 349.916C302.292 350.08 311.593 343.671 320.23 346.175L320.23 349.916Z"/>
	<path fill="#B8D7F6" transform="scale(0.117188 0.117188)" d="M320.23 362.438C318.38 362.336 307.312 363.76 310.628 358.837C312.284 357.618 318.072 358.14 320.23 358.277L320.23 362.438Z"/>
	<path fill="#B8D7F6" transform="scale(0.117188 0.117188)" d="M320.23 374.73C318.204 374.693 311.847 375.656 310.48 374.41C305.04 369.456 318.499 370.487 320.23 370.684L320.23 374.73Z"/>
	<path fill="#B8D7F6" transform="scale(0.117188 0.117188)" d="M386.688 345.741C390.881 345.683 411.372 345.197 413.864 346.13C415.163 348.562 413.841 349.715 411.622 349.916L396.06 349.936C392.234 349.951 387.18 350.576 383.505 349.492C381.284 346.731 384.713 345.931 386.688 345.741Z"/>
	<path fill="#B8D7F6" transform="scale(0.117188 0.117188)" d="M383.859 332.997C388.613 332.909 422.006 330.439 413.707 337.378C407.461 337.677 401.087 337.37 394.827 337.382C391.031 337.389 380.509 339.905 383.859 332.997Z"/>
	<path fill="#B8D7F6" transform="scale(0.117188 0.117188)" d="M378.807 307.486C383.064 307.303 412.253 306.69 414.158 308.311C414.904 309.576 414.775 310.78 413.707 311.792C407.685 311.763 371.582 314.898 378.807 307.486Z"/>
	<path fill="#B8D7F6" transform="scale(0.117188 0.117188)" d="M400.228 320.249C403.063 320.275 417.062 317.72 414.559 323.845C412.832 325.772 396.88 324.525 393.39 324.8L392.938 324.838C389.384 324.369 373.848 325.728 378.72 321.013C380.234 319.547 397.247 320.257 400.228 320.249Z"/>
	<path fill="#B8D7F6" transform="scale(0.117188 0.117188)" d="M310.664 332.997C315.845 333.061 350.758 329.119 343.989 338C340.481 338.395 336.553 338.013 332.992 338.015L319.815 338.02C317.666 338.02 305.835 338.984 310.664 332.997Z"/>
	<path fill="#B8D7F6" transform="scale(0.117188 0.117188)" d="M311.239 307.486L335.326 307.467C336.096 307.467 357.81 305.973 349.646 311.792L323.704 311.75C320.588 311.75 312.078 313.338 309.952 310.464C309.568 309.114 310.03 308.131 311.239 307.486Z"/>
	<path fill="#B8D7F6" transform="scale(0.117188 0.117188)" d="M310.664 320.249C320.269 320.657 342.941 318.8 350.919 320.632L351.226 321.188C351.175 322.517 350.528 323.861 349.646 324.838C347.692 325.035 345.637 324.881 343.672 324.869L332.883 324.844C329.97 324.84 311.718 325.836 310.499 323.901C309.858 322.884 310.424 321.339 310.664 320.249Z"/>
	<path fill="#FD8481" transform="scale(0.117188 0.117188)" d="M320.23 346.175L337.254 346.175L337.254 401.789L320.23 401.789C320.141 397.695 320.219 393.586 320.23 389.489L320.23 374.73L320.23 370.684L320.23 362.438L320.23 358.277L320.23 349.916L320.23 346.175Z"/>
	<path fill="#55CDA2" transform="scale(0.117188 0.117188)" d="M379.279 356.612C385.473 356.606 391.754 356.373 397.938 356.612C402.077 356.701 406.224 356.631 410.364 356.612C410.356 367.549 410.065 378.56 410.364 389.489C410.386 393.573 410.704 397.721 410.364 401.789L410.364 401.789C404.581 402.882 385.664 401.922 379.279 401.789L379.273 373.091C379.271 367.603 379.412 362.097 379.279 356.612Z"/>
	<path fill="#29B78D" transform="scale(0.117188 0.117188)" d="M397.938 356.612C402.077 356.701 406.224 356.631 410.364 356.612C410.356 367.549 410.065 378.56 410.364 389.489C410.386 393.573 410.704 397.721 410.364 401.789L410.364 401.789C406.327 401.445 402.003 401.77 397.938 401.789C397.939 386.743 397.668 371.651 397.938 356.612Z"/>
	<path fill="#FED35E" transform="scale(0.117188 0.117188)" d="M349.646 329.272C353.75 329.411 357.896 329.281 362.004 329.272L366.714 329.272L379.896 329.272L379.912 344.014C379.912 348.12 380.184 352.587 379.279 356.612C379.412 362.097 379.271 367.603 379.273 373.091L379.279 401.789L367.422 401.789C363.943 402.307 353.296 401.964 349.646 401.789C345.627 401.436 341.306 401.774 337.254 401.789L337.254 346.175L349.646 346.175C349.915 344.099 349.707 341.875 349.682 339.78L349.646 329.272Z"/>
	<path fill="#DB4B58" transform="scale(0.117188 0.117188)" d="M337.254 346.175L349.646 346.175L349.646 401.789C345.627 401.436 341.306 401.774 337.254 401.789L337.254 346.175Z"/>
	<path fill="#FE9933" transform="scale(0.117188 0.117188)" d="M366.714 329.272L379.896 329.272L379.912 344.014C379.912 348.12 380.184 352.587 379.279 356.612C379.412 362.097 379.271 367.603 379.273 373.091L379.279 401.789L367.422 401.789C366.003 401.397 366.721 395.259 366.724 393.835L366.714 329.272Z"/>
	<path fill="#6579A4" transform="scale(0.117188 0.117188)" d="M291.295 401.789L291.287 304.032C291.287 298.988 289.067 287.029 295.311 286.495C301.575 285.96 308.021 286.238 314.306 286.243L403.796 286.265C412.27 286.265 420.785 286.074 429.253 286.204C433.861 286.274 434.142 288.132 434.231 292.185C434.391 299.448 434.248 306.742 434.243 314.009L434.244 386.152C434.245 391.339 434.445 396.611 434.237 401.789L410.364 401.789C410.704 397.721 410.386 393.573 410.364 389.489C428.116 388.774 424.522 390.671 424.523 370.585L424.521 316.725C424.519 311.6 424.686 306.416 424.438 301.3C424.059 293.473 415.749 295.156 410.293 295.166L380.63 295.169C377.735 295.143 374.818 294.942 371.93 295.179C368.408 297.78 365.468 301.102 362.004 303.792L352.735 295.179L300.732 295.179L300.725 373.841C300.732 392.947 299.345 389.489 320.23 389.489C320.219 393.586 320.141 397.695 320.23 401.789L291.295 401.789Z"/>
</svg>
