<?xml version="1.0" encoding="utf-8" ?>
<svg xmlns="http://www.w3.org/2000/svg" xmlns:xlink="http://www.w3.org/1999/xlink" width="60" height="60">
	<path fill="#435063" transform="scale(0.117188 0.117188)" d="M446.776 104.106C451.249 104.119 455.909 104.418 460.36 104.106L460.36 115.149C455.868 115.177 451.255 115.426 446.776 115.149C447.054 111.454 447.215 107.793 446.776 104.106Z"/>
	<path fill="#435063" transform="scale(0.117188 0.117188)" d="M393.906 49.162C398.078 49.14 402.254 49.0836 406.425 49.162C406.293 53.766 406.315 58.3956 406.425 63.0005C402.251 62.7497 398.084 63.0345 393.906 63.0005C393.404 60.1598 393.807 52.4039 393.906 49.162Z"/>
	<path fill="#435063" transform="scale(0.117188 0.117188)" d="M338.524 104.106C343.431 104.153 348.341 103.755 353.24 104.106L353.685 104.393L353.436 105.522C352.681 108.928 353.085 112.531 353.24 115.988L338.524 115.988L338.524 104.106Z"/>
	<path fill="#435063" transform="scale(0.117188 0.117188)" d="M361.261 62.6067C364.275 66.3836 368.44 69.6593 372.151 72.7331C368.263 75.0836 365.78 77.9679 362.853 81.3893C359.428 78.2526 355.783 74.573 353.24 70.6789C355.316 67.729 358.39 64.7868 361.261 62.6067Z"/>
	<path fill="#435063" transform="scale(0.117188 0.117188)" d="M362.853 138.781C366.007 140.895 369.773 145.265 372.151 148.268C368.384 150.776 365.034 153.854 361.261 156.267C358.24 154.084 355.752 151 353.24 148.268C355.513 145.2 359.604 140.737 362.853 138.781Z"/>
	<path fill="#435063" transform="scale(0.117188 0.117188)" d="M393.252 156.267C397.7 156.515 401.982 156.332 406.425 156.267L406.425 170.172C402.074 170.414 397.622 170.12 393.252 170.172L393.252 156.267Z"/>
	<path fill="#435063" transform="scale(0.117188 0.117188)" d="M428.886 146.504C431.823 144.13 434.174 140.534 437.524 138.781C441.22 141.722 445.268 145.752 448.558 149.134C446.126 151.917 442.938 155.148 439.993 157.381C436.263 153.781 432.545 150.176 428.886 146.504Z"/>
	<path fill="#435063" transform="scale(0.117188 0.117188)" d="M428.886 72.7331C431.115 69.3059 435.718 64.8094 439.191 62.6067C442.566 64.9576 445.461 67.9793 448.558 70.6789C445.575 74.3304 441.17 79.2588 437.524 82.192C434.787 78.9944 431.298 76.1235 428.886 72.7331Z"/>
	<defs>
		<linearGradient id="gradient_0" gradientUnits="userSpaceOnUse" x1="64.97287" y1="386.65396" x2="48.595051" y2="354.6698">
			<stop offset="0" stop-color="#F1CA25"/>
			<stop offset="1" stop-color="#FDB731"/>
		</linearGradient>
	</defs>
	<path fill="url(#gradient_0)" transform="scale(0.117188 0.117188)" d="M55.7659 349.985C57.8594 350.604 59.946 351.62 61.9758 352.44C62.3966 358.705 61.9901 365.251 61.9758 371.541C68.2658 374.408 66.8046 380.888 66.7855 386.78L61.9758 386.78L50.9509 386.78C50.8811 380.718 50.1535 375.226 55.7659 371.541L55.7281 358.007C55.7072 355.358 55.5456 352.624 55.7659 349.985Z"/>
	<path fill="#F4CB2F" transform="scale(0.117188 0.117188)" d="M164.982 348.818C165.255 349.3 164.981 368.488 164.982 370.914C171.546 374.199 169.558 381.522 169.579 387.709C166.098 387.709 162.627 387.605 159.145 387.709C157.359 387.641 155.564 387.69 153.776 387.709C153.843 383.229 153.543 378.721 153.776 374.249C155.241 373.023 156.892 371.982 158.472 370.914C158.235 364.785 158.455 358.576 158.472 352.44C160.571 350.355 162.189 349.625 164.982 348.818Z"/>
	<path fill="#435063" transform="scale(0.117188 0.117188)" d="M162.917 254.147C165.502 254.898 168.794 254.37 171.451 254.147C170.237 258.578 169.452 262.205 169.579 266.843C166.213 266.357 163.289 265.979 159.961 266.843C159.64 273.155 160.558 315.524 159.718 317.344L159.145 317.258C155.822 315.757 152.53 314.186 149.231 312.63L149.222 281.078C149.219 268.679 146.585 256.674 162.917 254.147Z"/>
	<path fill="#99D9F1" transform="scale(0.117188 0.117188)" d="M222.262 361.288C231.21 360.673 228.396 369.314 226.247 374.249C230.91 374.412 244.539 372.661 247.742 376.247C250.311 379.124 248.766 382.884 246.065 384.97C239.822 385.405 233.328 384.923 227.049 384.97C227.862 386.969 228.665 388.917 228.923 391.076C227.241 403.127 216.511 392.029 212.897 388.444L203.083 378.754C208.123 374.436 216.868 363.891 222.262 361.288Z"/>
	<path fill="#99D9F1" transform="scale(0.117188 0.117188)" d="M125.323 202.986L173.041 202.988C180.191 202.986 188.782 202.499 195.775 202.986C181.481 216.001 187.186 213.206 168.448 213.194L134.063 213.183C111.673 213.188 113.869 212.543 113.865 233.245L113.874 260.062C113.997 263 113.92 265.939 113.874 268.878C115.918 266.934 117.827 265.124 120.496 264.1C122.532 264.728 123.775 265.329 125.323 266.843C127.209 272.102 122.932 274.248 119.643 277.581C116.861 280.4 111.916 287.881 107.233 286.085C105.518 285.428 92.5216 272.796 91.9177 271.023C90.6479 267.297 93.5191 265.316 96.5884 264.1C99.7293 265.429 101.418 267.481 103.571 270.023L103.562 236.402C103.538 216.987 100.999 202.86 125.323 202.986Z"/>
	<path fill="#99D9F1" transform="scale(0.117188 0.117188)" d="M302.876 90.2305C305.609 90.1701 326.763 105.845 320.574 113.234C318.509 115.7 308.841 125.539 306.593 127.142C302.172 130.293 293.665 126.777 303.794 115.988C290.57 115.814 277.321 115.99 264.094 115.988C263.112 116.823 262.322 117.65 261.505 118.641C261.265 123.71 261.489 128.898 261.494 133.978L261.505 164.454C263.931 162.206 266.329 158.008 270.032 158.072C272.624 158.118 274.64 161.103 274.468 163.511C274.261 166.416 270.428 169.147 268.415 170.995C256.153 183.286 258.829 185.532 246.53 173.684C243.961 171.21 240.771 168.703 238.781 165.718C236.537 162.35 239.144 158.165 243.189 158.26C246.438 158.337 249.044 162.319 251.123 164.454C251.32 161.846 251.189 159.216 251.161 156.603L251.095 133.998C251.032 106.407 253.065 105.715 277.94 105.727L306.477 105.739C302.752 100.806 292.807 95.3989 302.876 90.2305Z"/>
	<path fill="#435063" transform="scale(0.117188 0.117188)" d="M146.238 357.323L146.498 357.668C145.915 361.94 146.245 366.511 146.243 370.828L146.238 395.205C136.791 409.657 84.8527 408.25 73.7097 396.572C71.8026 394.573 71.734 392.647 71.7529 390.042L71.7529 357.323C79.2323 360.296 88.0305 365.043 95.3245 368.785C111.946 377.312 107.685 375.47 124.638 367.207L135.64 361.935C138.958 360.333 142.314 358.513 145.845 357.441L146.238 357.323Z"/>
	<path fill="#E26A68" transform="scale(0.117188 0.117188)" d="M107.672 309.266C112.973 308.838 120.733 314.182 125.517 316.433L147.457 326.92C153.513 329.77 160.869 332.377 166.101 336.578C163.293 338.107 160.28 339.359 157.387 340.724L136.213 350.465C127.368 354.508 118.739 359.007 109.817 362.888C105.633 364.208 90.6258 354.991 86.3604 352.962L60.6329 340.734C57.7296 339.337 54.7741 338.066 51.9144 336.578C57.7738 332.335 70.7048 327.189 77.5136 323.88L96.1569 314.802C99.9398 312.934 103.74 310.79 107.672 309.266Z"/>
	<path fill="#435063" transform="scale(0.117188 0.117188)" d="M343.682 254.147L368.809 254.132C392.349 254.131 393.941 254.727 393.92 280.561L393.906 430.683L221.407 430.683C213.758 430.683 150.621 431.22 148.418 430.266L148.18 429.07C148.167 425.483 147.571 414.209 148.671 411.557C150.598 410.201 158.732 409.789 160.73 411.866C161.623 414.239 160.932 417.473 161.005 419.998C169.135 420.229 177.328 419.99 185.466 419.989L383.323 419.998C383.586 414.407 383.327 408.754 383.324 403.154L383.323 266.843L356.602 266.853C352.342 266.855 347.925 267.124 343.682 266.843C343.68 262.612 343.631 258.377 343.682 254.147Z"/>
	<path fill="#E26A68" transform="scale(0.117188 0.117188)" d="M393.906 63.0005C398.084 63.0345 402.251 62.7497 406.425 63.0005C415.6 66.3473 419.934 67.4335 428.886 72.7331C431.298 76.1235 434.787 78.9944 437.524 82.192C444.023 92.1894 442.919 95.6202 446.776 104.106C447.215 107.793 447.054 111.454 446.776 115.149C445.18 124.449 443.266 129.055 438.117 136.932C437.828 137.374 437.345 138.267 437.524 138.781C434.174 140.534 431.823 144.13 428.886 146.504C421.721 151.337 415.008 154.766 406.425 156.267C401.982 156.332 397.7 156.515 393.252 156.267C383.425 153.993 380.054 150.957 372.151 148.268C369.773 145.265 366.007 140.895 362.853 138.781C358.349 132.558 354.963 123.357 353.24 115.988C353.085 112.531 352.681 108.928 353.436 105.522L353.685 104.393L353.24 104.106C354.32 103.714 354.207 100.01 354.509 98.8782C356.185 92.5924 359.266 86.7792 362.853 81.3893C365.78 77.9679 368.263 75.0836 372.151 72.7331C378.503 67.5365 386.161 65.2004 393.906 63.0005ZM397.403 85.092C364.33 89.2078 369.93 137.866 402.463 135.095C436.289 131.004 428.007 81.2481 397.403 85.092Z"/>
	<path fill="#6B798A" transform="scale(0.117188 0.117188)" d="M126.783 430.683C131.585 430.694 143.817 431.34 147.94 430.097L148.18 429.07L148.418 430.266C150.621 431.22 213.758 430.683 221.407 430.683L393.906 430.683C399.959 429.899 411.651 430.687 418.207 430.683C418.362 453.04 404.177 460.752 383.815 460.769L171.651 460.777C165.605 460.78 159.509 460.939 153.469 460.742C137.529 460.222 126.106 446.282 126.783 430.683ZM253.291 438.887C250.42 439.534 248.952 441.219 249.78 444.341C251.013 448.989 263.673 447.049 267.192 447.058C275.279 447.079 283.437 447.298 291.519 447.075C295.082 445.078 294.418 441.232 291.519 438.887L253.291 438.887Z"/>
	<defs>
		<linearGradient id="gradient_1" gradientUnits="userSpaceOnUse" x1="264.01752" y1="344.72223" x2="248.58952" y2="196.0591">
			<stop offset="0" stop-color="#1F5477"/>
			<stop offset="1" stop-color="#4EA1D0"/>
		</linearGradient>
	</defs>
	<path fill="url(#gradient_1)" transform="scale(0.117188 0.117188)" d="M246.853 195.741C250.841 195.756 263.671 194.926 266.499 196.629C270.946 199.306 270.934 210.872 272.193 215.539C276.972 216.474 281.188 218.919 285.752 220.488C289.463 217.417 296.13 208.239 301.851 211.965C304.973 213.999 315.129 224.022 315.818 228.4C316.453 232.434 309.088 238.732 306.745 242.197L306.477 242.598C308.575 247.456 310.43 252.157 311.929 257.233C315.631 257.672 326.388 257.633 328.963 259.55C331.707 261.592 330.765 276.413 330.317 279.251C329.221 286.196 318.1 284.349 311.929 285.046C310.261 289.977 308.824 294.748 306.477 299.43C309.243 303.655 314.611 309.649 315.593 314.415L315.501 314.728C314.129 319.529 303.614 329.896 299.576 330.252C296.018 330.565 288.502 323.46 285.752 321.181C281.164 323.837 276.137 325.474 271.123 327.102C270.423 333.019 270.793 341.714 265.351 345.468C261.583 345.938 247.847 345.939 245.304 344.082C241.931 341.62 241.649 331.25 241.107 327.102C236.223 325.69 231.48 323.675 227.049 321.181C223.784 324.538 218.033 329.494 213.579 330.832C208.017 329.631 195.845 318.003 196.533 313.058C197.001 309.696 203.275 302.813 205.867 300.694C202.723 296.275 201.412 291.511 199.921 286.372C195.804 285.6 186.839 284.433 183.876 281.674C181.558 279.514 181.018 262.413 184.245 259.64C187.556 256.796 195.838 256.817 199.921 257.233C200.677 251.568 202.815 247.367 205.867 242.598C202.484 238.496 193.62 232.111 197.057 226.19C199.256 222.4 208.683 213.329 213.579 212.117C218.541 213.679 222.175 218.71 226.247 221.812C230.859 218.902 235.909 217.093 241.107 215.539C240.847 209.199 240.227 198.734 246.853 195.741ZM253.291 240.097C211.421 244.738 216.843 305.11 258.696 303.079C287.162 299.406 298.356 264.168 274.846 246.281C269.224 242.004 260.374 239.156 253.291 240.097Z"/>
	<path fill="#435063" transform="scale(0.117188 0.117188)" d="M254.838 252.099C259.47 251.522 264.673 253.531 268.289 256.332C282.663 267.468 274.403 289.013 257.543 290.912C233.051 292.649 228.194 255.359 254.838 252.099Z"/>
</svg>
