<?xml version="1.0" encoding="utf-8" ?>
<svg xmlns="http://www.w3.org/2000/svg" xmlns:xlink="http://www.w3.org/1999/xlink" width="60" height="60">
	<path fill="#72B0F5" transform="scale(0.117188 0.117188)" d="M56.265 125.997L56.2463 107.266C56.2383 90.3317 57.6141 71.536 80.7805 71.2607C107.505 70.9432 134.265 71.2419 160.995 71.2422L422.342 71.2379C449.878 71.2419 456.019 77.5749 455.927 105.155L455.91 123.68C455.873 124.362 455.96 125.453 455.606 126.01L56.265 125.997Z"/>
	<path fill="#F9F9F9" transform="scale(0.117188 0.117188)" d="M168.937 92.793C172.824 92.8114 178.569 92.1051 181.696 94.8375C188.009 100.354 181.575 106.034 173.779 106.138C170.518 106.155 163.887 106.951 161.144 104.989C153.966 99.856 159.993 93.2901 168.937 92.793Z"/>
	<path fill="#F9F9F9" transform="scale(0.117188 0.117188)" d="M89.5863 92.793C93.874 92.6693 100.762 91.8772 104.258 94.9109C109.243 99.2374 105.071 105.66 98.1286 106.138C94.1941 106.187 86.6542 107.114 83.4682 104.671C77.4638 100.068 81.8512 93.4702 89.5863 92.793Z"/>
	<path fill="#F9F9F9" transform="scale(0.117188 0.117188)" d="M127.185 92.793C131.068 92.765 138.87 91.9447 142.133 94.0651C147.173 97.3396 145.432 105.366 137.812 106.138C133.542 106.161 124.976 107.096 121.708 104.521C116.727 100.596 120.628 93.3694 127.185 92.793Z"/>
	<path fill="#F9F9F9" transform="scale(0.117188 0.117188)" d="M56.265 125.997L455.606 126.01C455.96 125.453 455.873 124.362 455.91 123.68C456.15 125.64 455.962 127.61 455.948 129.579L455.91 140.494C456.085 142.381 455.795 144.345 455.797 146.246L455.901 387.989C455.966 400.979 458.258 420.895 448.404 430.329C440.15 438.23 427.44 436.669 416.927 436.662L159.882 436.663C134.701 436.665 109.269 437.146 84.1208 436.555C58.6653 435.958 56.2653 423.685 56.2586 401.366L56.3179 148.376C56.336 140.92 56.09 133.45 56.265 125.997L56.265 125.997Z"/>
	<path fill="#FC5868" transform="scale(0.117188 0.117188)" d="M358.799 245.764C367.732 245.392 368.856 254.831 361.166 258.156C352.819 258.713 351.463 248.967 358.799 245.764Z"/>
	<path fill="#FC5868" transform="scale(0.117188 0.117188)" d="M358.799 194.499C366.459 195.032 369.141 204.078 361.166 207.081C352.436 207.529 350.77 198.419 358.799 194.499Z"/>
	<path fill="#05D975" transform="scale(0.117188 0.117188)" d="M359.425 169.575C367.133 169.002 368.581 179.529 361.166 181.762C352.718 182.367 350.625 170.384 359.425 169.575Z"/>
	<path fill="#05D975" transform="scale(0.117188 0.117188)" d="M358.799 220.155C366.961 220.292 369.866 230.387 361.166 232.803C352.593 234.449 350.812 223.855 358.799 220.155Z"/>
	<path fill="#72B0F5" transform="scale(0.117188 0.117188)" d="M384.654 169.575C389.298 169.571 414.12 168.88 416.717 170.271C422.572 173.408 419.664 180.685 414.063 181.762L393.986 181.789C390.587 181.79 386.821 182.103 383.467 181.593C376.281 180.5 376.281 170.413 384.654 169.575Z"/>
	<path fill="#72B0F5" transform="scale(0.117188 0.117188)" d="M382.718 245.764L402.665 245.747C406.453 245.749 411.979 245.213 415.551 246.185C421.739 247.869 420.504 255.777 415.348 258.156C409.413 258.623 385.956 258.618 382.427 257.694C376.284 256.085 377.747 248.135 382.718 245.764Z"/>
	<path fill="#72B0F5" transform="scale(0.117188 0.117188)" d="M384.654 194.499L402.158 194.513C407.273 194.477 418.162 192.574 419.544 199.636C420.298 203.488 417.842 206.496 414.063 207.081C406.772 207.326 391.776 207.847 384.701 207.021C376.104 206.017 376.167 195.356 384.654 194.499Z"/>
	<path fill="#72B0F5" transform="scale(0.117188 0.117188)" d="M402.302 220.155C406.819 220.176 414.755 218.972 418.037 222.269C421.805 226.053 419.462 231.616 414.613 232.565C410.505 233.37 399.89 232.814 395.044 232.803C391.02 232.789 383.408 233.89 380.458 231.151C376.552 227.524 378.223 221.487 383.296 220.423C387.166 219.612 397.793 220.141 402.302 220.155Z"/>
	<path fill="#2A41AF" transform="scale(0.117188 0.117188)" d="M148.479 194.499C158.219 192.914 156.829 202.739 156.757 209.374C160.621 209.37 167.672 208.681 171.043 210.017C176.649 212.24 174.991 219.61 170.172 221.592C167.397 222.036 150.078 221.745 147.774 220.983C143.518 219.575 139.278 198.062 148.479 194.499Z"/>
	<path fill="#F8B24D" transform="scale(0.117188 0.117188)" d="M153.041 161.025C180.082 164.179 197.975 179.264 203.593 206.834C203.758 207.645 204.884 210.387 204.245 210.991C199.248 210.514 193.768 210.987 188.731 210.991C187.18 193.342 170.784 177.032 153.041 175.919L153.041 161.025Z"/>
	<path fill="#FEDB83" transform="scale(0.117188 0.117188)" d="M291.561 164.693C315.235 165.775 337.73 186.243 338.044 210.248L291.561 210.248C291.559 195.072 291.773 179.867 291.561 164.693Z"/>
	<path fill="#FC5868" transform="scale(0.117188 0.117188)" d="M251.386 246.884C237.721 230.46 236.35 206.732 247.55 188.543C256.732 173.631 268.518 168.551 284.835 164.693L284.835 212.429C283.235 215.428 279.892 218.004 277.463 220.392L262.21 235.6C258.705 239.054 254.09 242.781 251.386 246.884Z"/>
	<path fill="#05D975" transform="scale(0.117188 0.117188)" d="M290.731 217.434L331.068 217.434L338.044 217.434C336.561 255.913 294.846 278.155 261.192 255.9C260.185 255.234 255.946 252.62 256.115 251.306C259.103 249.156 261.806 246.089 264.434 243.509L282.776 225.278C285.39 222.689 287.888 219.758 290.731 217.434Z"/>
	<path fill="#F8B24D" transform="scale(0.117188 0.117188)" d="M204.245 217.999C202.705 263.596 149.017 285.987 113.856 257.897C75.345 227.131 94.0883 166.18 145.951 161.025L145.951 175.919C108.985 180.677 95.8337 225.434 124.483 247.131C150.629 266.933 189.809 247.298 188.731 217.999L204.245 217.999Z"/>
	<path fill="#DEE3E9" transform="scale(0.117188 0.117188)" d="M56.265 125.997L455.606 126.01C455.96 125.453 455.873 124.362 455.91 123.68C456.15 125.64 455.962 127.61 455.948 129.579L455.91 140.494C455.738 142.977 455.503 142.987 453.039 143.026C440.004 143.232 426.93 143.021 413.892 143.016L56.265 143.019C56.5188 140.259 56.9865 127.995 56.265 125.997L56.265 125.997Z"/>
	<path fill="#B3D1FB" transform="scale(0.117188 0.117188)" d="M89.5863 293.766C92.0268 293.592 94.5797 293.735 97.0308 293.742L229.073 293.747C249.067 293.663 245.761 297.43 245.752 315.084L245.747 382.753C245.756 389.705 248.999 409.55 240.058 410.768C236.196 411.251 230.129 410.784 225.984 410.777L119.381 410.766C110.336 410.767 101.266 410.962 92.2266 410.878C79.2773 410.757 83.5618 393.491 83.5623 383.968L83.5659 319.103C83.5551 310.196 80.4952 297.474 89.5863 293.766Z"/>
	<path fill="#F9F9F9" transform="scale(0.117188 0.117188)" d="M163.731 310.572C179.776 308.477 185.302 331.409 167.466 337.182C148.84 336.072 146.933 313.675 163.731 310.572Z"/>
	<path fill="#7B85FD" transform="scale(0.117188 0.117188)" d="M221.777 311.222C222.718 312.483 221.787 316.353 221.779 317.999L221.777 368.627C217.178 368.764 212.545 368.638 207.942 368.627L207.819 368.564L207.736 368.252L207.36 368.283L207.698 368.152C207.325 364.746 207.942 356.611 207.944 352.721L207.942 311.222L221.777 311.222Z"/>
	<path fill="#7B85FD" transform="scale(0.117188 0.117188)" d="M110.413 311.222L125.006 311.222L125.006 368.627L110.413 368.627L110.413 311.222Z"/>
	<path fill="#05D975" transform="scale(0.117188 0.117188)" d="M167.466 344.119C186.757 342.273 188.78 352.469 188.731 368.627C179.994 368.49 171.233 368.627 162.494 368.627L141.348 368.627C141.236 346.768 145.97 343.936 167.466 344.119Z"/>
	<path fill="#7B85FD" transform="scale(0.117188 0.117188)" d="M110.413 381.348L221.777 381.348L221.777 396.28C209.402 396.566 196.952 396.281 184.571 396.281L110.413 396.28L110.413 381.348Z"/>
	<path fill="#B3D1FB" transform="scale(0.117188 0.117188)" d="M272.619 293.766L383.509 293.77C388.818 293.77 422.196 293.243 424.856 294.143C432.484 296.722 430.276 305.698 430.272 311.86L430.269 379.17C430.27 389.233 434.436 407.059 423.109 410.768C416.91 411.263 410.369 410.772 404.132 410.77L303.92 410.765C294.256 410.765 284.428 411.149 274.778 410.783C264.206 410.382 266.083 399.951 266.083 392.541L266.081 325.79C266.083 317.362 262.426 295.57 272.619 293.766Z"/>
	<path fill="#F9F9F9" transform="scale(0.117188 0.117188)" d="M344.785 310.572C362.238 308.95 366.363 332.853 348.894 337.182C331.386 339.802 327.316 314.936 344.785 310.572Z"/>
	<path fill="#7B85FD" transform="scale(0.117188 0.117188)" d="M387.433 311.222L402.302 311.222L402.302 368.627C397.441 369.122 392.33 368.629 387.433 368.627L387.433 311.222Z"/>
	<path fill="#7B85FD" transform="scale(0.117188 0.117188)" d="M290.731 311.222L306.003 311.222L306.003 368.627C300.944 368.447 295.798 368.621 290.731 368.627L290.731 311.222Z"/>
	<path fill="#F8B24D" transform="scale(0.117188 0.117188)" d="M338.044 344.119C361.726 344.055 369.139 339.838 369.035 367.813C364.234 367.902 359.427 367.837 354.625 367.813L322.724 367.813C322.939 354.265 321.055 344.236 338.044 344.119Z"/>
	<path fill="#7B85FD" transform="scale(0.117188 0.117188)" d="M290.731 381.348L402.302 381.348L402.302 395.78C401.777 396.027 301.13 395.779 290.731 395.78L290.731 381.348Z"/>
</svg>
