<svg xmlns="http://www.w3.org/2000/svg" enable-background="new 0 0 512 512" viewBox="0 0 512 512" id="onlinewebinar">
  <path fill="#8bc7de" d="M233.985,241.862l22.012,24.449l21.981-24.414c-6.856,3.784-14.258,5.965-21.978,5.965
		C248.264,247.862,240.852,245.661,233.985,241.862z" class="color8bdec5 svgShape"></path>
  <path fill="#8bc7de" d="M455.44,29.866H188.796c2.139,4.067,3.357,8.698,3.357,13.611v54.515c0,12.57-7.935,23.311-19.031,27.418
		v10.218c0.368,10.624-13.1,17.176-21.213,10.244l-23.395-18.677H78.406c-16.007,0-29.03-13.101-29.03-29.204V43.477
		c0-4.82,1.174-9.368,3.239-13.379C35.41,32.062,22,46.704,22,64.426V338.44c0-5.522,4.477-10,10-10h17.376v-24.345
		c0-10.859,8.834-19.693,19.694-19.693h16.866v-40.238c0-9.145,3.561-17.742,10.027-24.208l20.249-20.249
		c-3.264-8.734-1.413-18.961,5.598-25.972l10.282-10.283c9.57-9.568,25.138-9.567,34.707,0c4.635,4.635,7.188,10.798,7.188,17.354
		s-2.553,12.718-7.188,17.353l-10.281,10.282c-4.785,4.785-11.069,7.177-17.354,7.177c-3.024,0-6.044-0.568-8.901-1.676
		l-20.157,20.157c-2.689,2.688-4.169,6.263-4.169,10.065v40.238h16.866c10.859,0,19.694,8.834,19.694,19.693v24.345h10.16
		l8.765-54.235c0.819-5.067,4.044-9.436,8.626-11.685l53.163-26.088c0.618-0.304,1.271-0.488,1.931-0.565
		c-14.063-11.375-24.917-29.412-30.036-47.806c-2.097-7.537-3.233-15.141-3.233-22.358c0-36.296,28.714-65.716,64.127-65.716
		c10.373,0,19.268,15.715,28.825,13.772c34.828-7.096,35.303,26.276,35.303,51.944c0,2.693-0.154,5.44-0.475,8.221
		c-2.515,22.814-15.107,47.646-32.777,61.944c0.651,0.08,1.296,0.264,1.907,0.564l53.169,26.088
		c4.582,2.249,7.807,6.617,8.625,11.685l8.766,54.235h10.383v-24.345c0-10.859,8.835-19.693,19.694-19.693h16.866v-40.238
		c0-3.802-1.48-7.377-4.17-10.065l-20.156-20.157c-2.857,1.108-5.877,1.676-8.901,1.676c-6.285,0-12.569-2.392-17.354-7.176
		l-10.282-10.282c-4.635-4.635-7.188-10.798-7.188-17.353s2.553-12.718,7.188-17.354c4.636-4.635,10.798-7.188,17.354-7.188
		s12.718,2.553,17.353,7.188l10.282,10.281c7.012,7.012,8.863,17.239,5.598,25.973l20.248,20.249
		c6.466,6.466,10.027,15.063,10.027,24.208v40.238h16.866c10.859,0,19.694,8.834,19.694,19.693v24.345H480c5.522,0,10,4.478,10,10
		V64.426C490,45.369,474.497,29.866,455.44,29.866z" class="color8bdec5 svgShape"></path>
  <path fill="#018abe" d="M197.515,398.203v79.524H159.03c-5.523,0-10,4.478-10,10s4.477,10,10,10H352.97c5.522,0,10-4.478,10-10
		s-4.478-10-10-10h-38.485v-79.524H197.515z" class="color726b93 svgShape"></path>
  <path d="M426.286,244.165c0-9.144-3.562-17.741-10.027-24.208l-20.248-20.249c-1.19,3.185-3.042,6.177-5.598,8.734
		c-2.482,2.482-5.372,4.306-8.452,5.5l20.156,20.157c2.689,2.688,4.17,6.263,4.17,10.065v40.238h20V244.165z" fill="#000000" class="color000000 svgShape"></path>
  <path fill="#d9d9d9" d="M462.847,328.44v-24.345c0-10.859-8.835-19.693-19.694-19.693h-16.866h-20H389.42
		c-10.859,0-19.694,8.834-19.694,19.693v24.345H462.847z" class="colord9d9d9 svgShape"></path>
  <path fill="#8fb5c4" d="M396.011,199.708c3.264-8.734,1.413-18.961-5.598-25.973l-10.282-10.281
		c-4.635-4.636-10.797-7.188-17.353-7.188s-12.718,2.553-17.354,7.188c-4.635,4.635-7.188,10.798-7.188,17.354
		s2.553,12.718,7.188,17.353l10.282,10.282c4.784,4.784,11.068,7.176,17.354,7.176c3.024,0,6.044-0.568,8.901-1.676
		c3.08-1.194,5.97-3.018,8.452-5.5C392.969,205.885,394.82,202.893,396.011,199.708z" class="color988fc4 svgShape"></path>
  <path d="M105.936,244.165c0-3.802,1.48-7.377,4.169-10.065l20.157-20.157c-3.08-1.194-5.97-3.018-8.453-5.5
		c-2.557-2.557-4.408-5.549-5.598-8.734l-20.249,20.249c-6.466,6.466-10.027,15.063-10.027,24.208v40.238h20V244.165z" fill="#000000" class="color000000 svgShape"></path>
  <path fill="#d9d9d9" d="M142.496,328.44v-24.345c0-10.859-8.834-19.693-19.694-19.693h-16.866h-20H69.07
		c-10.859,0-19.694,8.834-19.694,19.693v24.345H142.496z" class="colord9d9d9 svgShape"></path>
  <path fill="#8fb5c4" d="M130.262,213.942c2.857,1.108,5.877,1.676,8.901,1.676c6.285,0,12.569-2.392,17.354-7.177l10.281-10.282
		c4.635-4.635,7.188-10.798,7.188-17.353s-2.553-12.718-7.188-17.354c-9.568-9.567-25.136-9.568-34.707,0l-10.282,10.283
		c-7.011,7.011-8.862,17.238-5.598,25.972c1.19,3.185,3.041,6.177,5.598,8.734C124.292,210.924,127.182,212.748,130.262,213.942z" class="color988fc4 svgShape"></path>
  <path fill="#f5fafc" d="M49.376,43.477v54.515c0,16.103,13.023,29.204,29.03,29.204h50.109l23.395,18.677
		c8.114,6.933,21.582,0.378,21.213-10.244V125.41c11.096-4.108,19.031-14.849,19.031-27.418V43.477
		c0-4.913-1.218-9.543-3.357-13.611c-4.873-9.264-14.55-15.593-25.674-15.593H78.406c-11.216,0-20.959,6.436-25.792,15.825
		C50.55,34.109,49.376,38.656,49.376,43.477z M147.32,80.734c-5.523,0-10.005-4.477-10.005-10s4.472-10,9.995-10h0.01
		c5.523,0,10,4.477,10,10S152.843,80.734,147.32,80.734z M130.785,70.734c0,5.523-4.477,10-10,10s-10.005-4.477-10.005-10
		s4.472-10,9.995-10h0.01C126.308,60.734,130.785,65.211,130.785,70.734z M104.249,70.734c0,5.523-4.477,10-10,10
		s-10.005-4.477-10.005-10s4.472-10,9.995-10h0.01C99.772,60.734,104.249,65.211,104.249,70.734z" class="colorf5f5fc svgShape"></path>
  <path fill="#8bc7de" d="M120.774 60.734c-5.522 0-9.995 4.477-9.995 10s4.482 10 10.005 10 10-4.477 10-10-4.477-10-10-10H120.774zM94.239 60.734c-5.522 0-9.995 4.477-9.995 10s4.482 10 10.005 10 10-4.477 10-10-4.477-10-10-10H94.239zM147.32 60.734h-.01c-5.522 0-9.995 4.477-9.995 10s4.482 10 10.005 10 10-4.477 10-10S152.843 60.734 147.32 60.734z" class="colorde8bae svgShape"></path>
  <path fill="#7cb0c4" d="M359.343,328.44l-8.766-54.235c-0.818-5.067-4.043-9.436-8.625-11.685l-53.169-26.088
		c-0.611-0.3-1.256-0.484-1.907-0.564c-2.842,2.299-5.814,4.327-8.898,6.029l-21.981,24.414l-22.012-24.449
		c-3.064-1.695-6.017-3.711-8.842-5.996c-0.66,0.078-1.313,0.262-1.931,0.565l-53.163,26.088c-4.583,2.249-7.807,6.617-8.626,11.685
		l-8.765,54.235H359.343z" class="color9bc47c svgShape"></path>
  <path fill="#77d7fc" d="M272.476,152.791c17.337,18.871,33.349,28.074,47.177,21.133c0.32-2.781,0.475-5.529,0.475-8.221
		c0-25.669-0.475-59.04-35.303-51.944c-9.557,1.942-18.451-13.772-28.825-13.772c-35.413,0-64.127,29.421-64.127,65.716
		c0,7.217,1.137,14.821,3.233,22.358h0.011C231.623,195.102,255.57,173.924,272.476,152.791z" class="colorfce677 svgShape"></path>
  <path fill="#cff2ff" d="M233.985,241.862c6.867,3.799,14.279,6,22.015,6c7.721,0,15.122-2.18,21.978-5.965
		c3.084-1.702,6.056-3.73,8.898-6.029c17.67-14.298,30.262-39.13,32.777-61.944c-13.827,6.941-29.84-2.262-47.177-21.133
		c-16.906,21.133-40.853,42.31-77.359,35.269h-0.011c5.12,18.394,15.974,36.431,30.036,47.806
		C227.968,238.152,230.921,240.167,233.985,241.862z" class="colorffddcf svgShape"></path>
  <path fill="#8fb5c4" d="M480,328.44h-17.153h-93.121h-10.383H152.656h-10.16h-93.12H32c-5.523,0-10,4.478-10,10v25.202
		c0,19.057,15.503,34.561,34.56,34.561h140.956h116.969H455.44c19.057,0,34.56-15.504,34.56-34.561V338.44
		C490,332.918,485.522,328.44,480,328.44z" class="color988fc4 svgShape"></path>
</svg>
