<?xml version="1.0" encoding="utf-8" ?>
<svg xmlns="http://www.w3.org/2000/svg" xmlns:xlink="http://www.w3.org/1999/xlink" width="60" height="60">
	<path fill="#4863E3" transform="scale(0.117188 0.117188)" d="M339.09 196.381C344.258 203.281 357.384 213.245 360.536 218.751C359.979 220.98 359.367 223.073 356.734 222.963C352.798 220.548 338.323 205.627 335.746 201.579C336.461 199.322 337.498 198.079 339.09 196.381Z"/>
	<path fill="#6A75ED" transform="scale(0.117188 0.117188)" d="M130.506 204.96C132.65 205 134.816 205.104 136.957 204.96C136.782 208.083 136.894 211.212 136.957 214.338C138.726 215.619 155.383 229.912 146.31 230.793C143.304 231.086 139.023 225.702 136.957 223.813C136.691 227.876 139.362 245.612 133.508 245.839C128.896 246.018 130.528 227.882 130.506 223.813C129.562 224.563 119.119 237.302 118.879 227.151C118.827 224.96 128.44 216.432 130.506 214.338C130.314 211.184 130.339 208.111 130.506 204.96Z"/>
	<path fill="#6A75ED" transform="scale(0.117188 0.117188)" d="M177.852 180.907C182.417 186.54 197.916 202.134 203.243 206.465C203.237 204.255 202.693 195.862 204.021 194.575C212.68 186.183 210.254 213.18 209.504 215.79C208.931 217.784 184.616 221.095 188.272 212.808C189.835 209.266 194.835 210.558 197.826 210.511C192.909 205.189 178.352 189.412 173.741 186.436C175.546 184.839 176.63 182.952 177.852 180.907Z"/>
	<path fill="#6A75ED" transform="scale(0.117188 0.117188)" d="M128.177 348.744C130.185 348.895 132.142 349.047 134.145 348.744L134.117 363.833C134.096 366.763 133.883 369.852 134.145 372.766C138.416 376.645 142.415 380.799 146.544 384.824L168.297 405.993C172.236 409.863 176.041 413.896 180.154 417.581C180.591 419.744 180.146 423.124 180.154 425.458C171.397 419.422 155.949 402.428 147.937 394.583L137.133 384.056C134.174 381.201 130.336 378.186 128.177 374.678C128.145 366.035 128.294 357.385 128.177 348.744Z"/>
	<path fill="#4863E3" transform="scale(0.117188 0.117188)" d="M279.487 348.744C307.331 348.727 321.197 367.629 321.209 394.085L321.195 409.254C316.481 409.485 311.619 409.257 306.891 409.254L306.899 389.874C306.9 372.748 306.631 360.062 287.781 352.107C285.019 350.941 281.981 350.5 279.487 348.744Z"/>
	<path fill="#4863E3" transform="scale(0.117188 0.117188)" d="M311.656 90.6134C309.249 88.4322 303.355 84.3395 303.221 80.984C302.861 71.9759 314.511 85.0828 315.46 86.048C317.774 88.4017 323.032 91.5492 320.21 95.1606C319.13 96.5422 310.034 105.655 308.438 106.792C306.144 108.425 302.7 107.406 303.188 104.1C303.53 101.779 307.947 98.741 309.512 96.9524C305.271 96.794 301.019 96.9444 296.775 96.9486L272.834 96.9547C252.936 96.9548 233.014 96.7317 213.12 96.9524C203.331 106.082 190.223 121.3 180.154 128.904C179.403 126.829 178.535 125.415 177.042 123.789C181.01 118.541 186.465 114.134 191.158 109.511L201.3 99.616C210.56 90.448 208.095 90.5794 221.407 90.5944L287.3 90.6166C295.382 90.6177 303.591 90.956 311.656 90.6134Z"/>
	<path fill="#96DFCF" transform="scale(0.117188 0.117188)" d="M292.19 409.254C294.741 409.281 297.378 409.452 299.919 409.254C302.254 409.389 304.556 409.416 306.891 409.254C311.619 409.257 316.481 409.485 321.195 409.254C329.51 411.105 330.509 410.326 330.888 419.303C331.042 422.383 330.726 425.475 330.888 428.526C330.703 435.499 331.678 446.456 330.685 452.927C329.755 458.984 319.232 457.245 314.373 457.249L278.508 457.261C264.061 457.312 262.1 460.211 262.647 445.237C262.255 442.662 262.409 440.324 262.647 437.737L262.616 423.567C262.601 410.8 262.687 409.215 276.954 409.234L292.19 409.254Z"/>
	<path fill="#FEFEFE" transform="scale(0.117188 0.117188)" d="M294.746 422.238C302.374 421.537 294.762 428.377 293.509 429.765L293.324 429.972C298.16 430.094 302.928 427.913 305.579 433.02C303.025 437.587 297.38 435.73 292.19 435.75C293.624 436.997 295.147 438.117 296.559 439.404C303.456 447.141 291.673 446.848 284.752 435.501C281.824 430.702 291.357 424.158 294.746 422.238Z"/>
	<path fill="#46C797" transform="scale(0.117188 0.117188)" d="M211.986 410.332L219.178 410.332L234.498 410.325C247.341 410.333 250.034 409.059 250.026 423.946L250.007 437.737L250.007 445.237C249.878 448.042 249.943 450.831 250.007 453.635C248.592 455.693 247.096 457.166 244.417 457.24C232.089 457.583 219.66 457.264 207.323 457.262L193.253 457.258C180.627 457.253 180.091 456.795 180.131 443.032C180.148 437.179 180.274 431.309 180.154 425.458C180.146 423.124 180.591 419.744 180.154 417.581C180.113 415.892 180.158 414.24 180.569 412.594C181.115 411.784 181.807 411.065 182.453 410.332C184.581 410.125 186.752 410.271 188.886 410.332C195.643 411.089 204.911 410.193 211.986 410.332ZM214.958 420.42C212.946 421.864 204.449 429.99 204.094 432.219C203.452 436.256 212.231 443.226 214.958 445.237C219.647 443.049 218.222 440.717 214.958 437.737C214.278 437.107 213.683 436.486 213.12 435.75C217.89 435.751 222.672 435.827 227.441 435.75C228.221 434.876 228.857 434.03 229.45 433.02C226.493 426.24 218.488 432.173 213.35 429.822C213.709 427.824 223.479 421.854 214.958 420.42Z"/>
	<path fill="#4D5596" transform="scale(0.117188 0.117188)" d="M217.171 278.13C216.761 274.01 203.069 264.699 213.224 249.354C215.149 246.444 217.921 244.542 220.117 241.922C225.306 235.733 224.215 230.99 236.111 228.601C245.651 226.686 254.259 231.491 259.801 238.931C269.685 232.191 286.031 233.794 288.123 246.749C300.896 253.458 302.932 265.653 294.746 277.287L294.746 288.693C294.75 290.464 294.948 303.151 289.548 298.381C287.195 296.301 288.111 283.32 288.123 279.988C284.211 280.363 281.848 279.9 278.401 278.13C275.853 276.343 273.653 274.449 271.513 272.191C260.018 281.42 237.702 280.833 223.787 279.988C223.798 282.965 224.485 296.465 222.93 298.112C221.705 299.408 219.144 299.237 218.089 297.831C216.308 295.459 217.515 281.832 217.171 278.13Z"/>
	<path fill="#F0B8A8" transform="scale(0.117188 0.117188)" d="M223.787 279.988C237.702 280.833 260.018 281.42 271.513 272.191C273.653 274.449 275.853 276.343 278.401 278.13C281.848 279.9 284.211 280.363 288.123 279.988C288.111 283.32 287.195 296.301 289.548 298.381C294.948 303.151 294.75 290.464 294.746 288.693C306.064 289.369 306.61 306.992 292.19 308.556C286.877 319.726 284.299 327.296 273.275 333.851C272.155 334.517 270.141 335.209 269.519 336.298C265.96 336.67 262.379 338.369 258.772 337.741C250.665 339.119 249.126 336.609 243.629 336.441L243.245 338.818C243.337 334.355 241.362 335.352 237.77 333.068C229.324 327.698 223.72 318.076 221.445 308.556C204.375 307.359 205.107 291.159 217.171 287.836C217.017 284.585 216.99 281.38 217.171 278.13C217.515 281.832 216.308 295.459 218.089 297.831C219.144 299.237 221.705 299.408 222.93 298.112C224.485 296.465 223.798 282.965 223.787 279.988Z"/>
	<path fill="#F09A83" transform="scale(0.117188 0.117188)" d="M278.401 278.13C281.848 279.9 284.211 280.363 288.123 279.988C288.111 283.32 287.195 296.301 289.548 298.381C294.948 303.151 294.75 290.464 294.746 288.693C306.064 289.369 306.61 306.992 292.19 308.556C286.877 319.726 284.299 327.296 273.275 333.851C272.155 334.517 270.141 335.209 269.519 336.298C265.96 336.67 262.379 338.369 258.772 337.741C280.304 323.701 286.842 302.826 278.401 278.13Z"/>
	<path fill="#F76C6A" transform="scale(0.117188 0.117188)" d="M335.746 201.579C332.828 204.501 329.992 207.499 326.725 210.044C310.784 222.465 286.289 221.612 271.495 207.628C252.704 189.866 254.689 157.652 275.461 142.064C306.138 119.042 351.455 147.527 342.235 186.102C341.397 189.608 339.516 192.758 339.09 196.381C337.498 198.079 336.461 199.322 335.746 201.579ZM316.888 161.237C309.571 165.757 303.382 175.389 296.559 180.907C293.136 177.59 290.219 173.533 286.573 170.485C279.894 173.641 282.361 176.527 286.573 180.907C289.508 184.185 292.767 188.653 296.559 190.871C298.45 190.052 332.637 160.628 316.888 161.237Z"/>
	<path fill="#8698EF" transform="scale(0.117188 0.117188)" d="M243.245 338.818L243.629 336.441C249.126 336.609 250.665 339.119 258.772 337.741C262.379 338.369 265.96 336.67 269.519 336.298C269.542 339.325 270.119 345.626 269.519 348.245C271.071 348.381 272.736 348.423 274.254 348.744C275.985 348.742 277.762 348.653 279.487 348.744C281.981 350.5 285.019 350.941 287.781 352.107C306.631 360.062 306.9 372.748 306.899 389.874L306.891 409.254C304.556 409.416 302.254 409.389 299.919 409.254C297.378 409.452 294.741 409.281 292.19 409.254L276.954 409.234C262.687 409.215 262.601 410.8 262.616 423.567L262.647 437.737C262.409 440.324 262.255 442.662 262.647 445.237L250.007 445.237L250.007 437.737L250.026 423.946C250.034 409.059 247.341 410.333 234.498 410.325L219.178 410.332L211.986 410.332C204.911 410.193 195.643 411.089 188.886 410.332L192.107 410.332C192.386 392.768 190.04 378.721 201.976 363.652C213.911 348.585 225.152 350.349 240.556 348.245C241.771 348.564 242.423 349.356 243.245 350.254C243.178 346.446 243.241 342.627 243.245 338.818ZM211.986 410.332L219.178 410.332C219.221 407.362 220.129 400.397 218.004 398.125C211.314 390.975 211.97 408.789 211.986 410.332ZM292.19 409.254C294.741 409.281 297.378 409.452 299.919 409.254C300.234 395.747 291.879 394.635 292.19 409.254Z"/>
	<path fill="#F76C6A" transform="scale(0.117188 0.117188)" d="M250.007 437.737C254.195 437.73 258.469 437.536 262.647 437.737C262.409 440.324 262.255 442.662 262.647 445.237L250.007 445.237L250.007 437.737Z"/>
	<path fill="#4863E3" transform="scale(0.117188 0.117188)" d="M269.519 348.245C271.071 348.381 272.736 348.423 274.254 348.744C271.156 366.985 246.496 370.575 237.559 356.561C237.695 353.826 238.503 350.212 240.556 348.245C241.771 348.564 242.423 349.356 243.245 350.254C245.975 353.633 250.304 357.567 254.425 359.126C265.362 356.813 263.558 352.402 269.519 348.245Z"/>
	<path fill="#F76C6A" transform="scale(0.117188 0.117188)" d="M243.245 338.818L243.629 336.441C249.126 336.609 250.665 339.119 258.772 337.741C262.379 338.369 265.96 336.67 269.519 336.298C269.542 339.325 270.119 345.626 269.519 348.245C263.558 352.402 265.362 356.813 254.425 359.126C250.304 357.567 245.975 353.633 243.245 350.254C243.178 346.446 243.241 342.627 243.245 338.818Z"/>
	<path fill="#39C3F2" transform="scale(0.117188 0.117188)" d="M128.177 348.744C83.8206 348.764 63.1699 296.284 94.1316 265.513C112.789 246.971 144.251 246.892 162.826 265.654C192.307 295.432 174.247 343.606 134.145 348.744C132.142 349.047 130.185 348.895 128.177 348.744ZM98.1537 278.13C94.5676 278.361 94.171 279.33 93.8875 282.834C93.5259 287.303 92.7739 323.522 95.0691 325.21C97.8557 327.259 115.913 326.133 119.889 326.134L159.71 326.125C166.086 325.413 163.758 313.094 163.757 307.971L163.74 280.549C163.038 279.716 162.355 278.881 161.563 278.13C148.345 277.792 135.033 278.138 121.802 278.135L106.348 278.105C103.655 278.094 100.832 277.916 98.1537 278.13Z"/>
	<path fill="#4D5596" transform="scale(0.117188 0.117188)" d="M104.839 299.129C116.061 298.842 127.616 298.73 138.835 299.146C143.082 299.303 144.468 302.675 140.909 304.932C131.043 305.039 115.551 305.85 106.027 304.856C102.425 304.48 102.807 301.08 104.839 299.129Z"/>
	<path fill="#4D5596" transform="scale(0.117188 0.117188)" d="M130.506 310.627C132.838 310.628 160.956 307.818 154.993 315.075C153.102 317.377 145.887 316.317 143.301 316.306L128.177 316.322C124.407 316.327 103.805 317.752 103.244 314.118C102.471 309.106 111.164 310.636 114.007 310.634L130.506 310.627Z"/>
	<path fill="#4D5596" transform="scale(0.117188 0.117188)" d="M105.903 287.836C113.314 287.509 148.144 286.89 153.979 288.202C157.075 288.898 155.637 292.746 153.515 293.732C147.583 293.889 106.833 294.398 104.721 293.205C102.101 291.725 103.407 288.442 105.903 287.836Z"/>
	<path fill="#8698EF" transform="scale(0.117188 0.117188)" d="M130.506 204.96C80.4444 199.963 65.4027 135.989 105.973 109.684C128.909 94.8134 162.063 100.403 177.042 123.789C178.535 125.415 179.403 126.829 180.154 128.904C187.92 144.727 187.845 162.936 179.377 178.329C178.938 179.127 178.155 180.089 177.852 180.907C176.63 182.952 175.546 184.839 173.741 186.436C163.868 199.507 152.127 203.205 136.957 204.96C134.816 205.104 132.65 205 130.506 204.96Z"/>
	<path fill="#F9C853" transform="scale(0.117188 0.117188)" d="M130.506 107.349C141.971 106.118 154.485 110.209 163.451 117.356C194.261 141.917 179.785 194.581 138.812 198.751C75.4439 201.691 71.5498 113.69 130.506 107.349Z"/>
	<path fill="#4D5596" transform="scale(0.117188 0.117188)" d="M136.957 125.11C148.593 128.988 148.029 146.165 136.957 150.187C137.266 147.441 137.049 144.752 136.994 142.002L136.889 131.697C136.85 129.529 136.641 127.254 136.957 125.11Z"/>
	<path fill="#4D5596" transform="scale(0.117188 0.117188)" d="M142.074 153.074C158.532 158.141 155.292 170.04 155.235 184.453C152.41 184.403 149.587 184.324 146.763 184.453C146.793 173.305 149.17 162.113 142.074 153.074Z"/>
	<path fill="#4863E3" transform="scale(0.117188 0.117188)" d="M136.957 150.187C119.326 153.815 118.964 121.517 136.957 125.11C136.641 127.254 136.85 129.529 136.889 131.697L136.994 142.002C137.049 144.752 137.266 147.441 136.957 150.187Z"/>
	<path fill="#4863E3" transform="scale(0.117188 0.117188)" d="M115.492 184.453C115.472 178.874 114.688 167.796 116.351 162.764C119.603 152.928 133.265 150.097 142.074 153.074C149.17 162.113 146.793 173.305 146.763 184.453L115.492 184.453Z"/>
	<defs>
		<linearGradient id="gradient_0" gradientUnits="userSpaceOnUse" x1="322.32025" y1="338.19781" x2="440.78305" y2="325.91739">
			<stop offset="0" stop-color="#5C61E9"/>
			<stop offset="1" stop-color="#7580F0"/>
		</linearGradient>
	</defs>
	<path fill="url(#gradient_0)" transform="scale(0.117188 0.117188)" d="M379.261 333.22L351.177 333.234C344.768 333.233 330.595 335.482 329.368 326.222C328.538 319.961 329.446 306.372 329.445 299.513L329.452 266.911C329.453 246.466 326.659 246.719 350.349 246.739L409.172 246.739C414.733 246.735 420.49 246.429 426.032 246.829C436.386 247.577 433.49 258.048 433.477 264.982L433.437 318.793C433.526 334.705 432.091 333.256 416.178 333.235L395.761 333.206C392.43 333.2 388.962 332.987 385.647 333.22C385.65 338.983 386.221 370.261 385.154 373.134C384.403 375.155 382.251 377.227 380.765 378.717L330.888 428.526C330.726 425.475 331.042 422.383 330.888 419.303C337.637 413.331 343.665 406.425 350.099 400.117L370.697 379.95C373.539 377.165 376.513 374.488 379.261 371.613L379.261 333.22ZM336.443 253.222C334.545 254.114 335.773 266.284 335.757 269.511L335.745 308.939C335.739 314.955 332.591 326.73 339.744 326.959C346.801 327.185 353.916 327.008 360.981 327.008L418.308 327.015C421.057 327.035 423.994 327.587 426.706 327.005C429.283 323.221 428.013 313.727 428.008 309.286L428.003 265.233C428.004 261.859 428.304 258.141 427.746 254.811C427.244 251.823 410.994 253.219 407.741 253.219L350.412 253.216C345.778 253.209 341.07 253.016 336.443 253.222Z"/>
	<path fill="#F9C853" transform="scale(0.117188 0.117188)" d="M357.902 287.079C362.424 288.888 376.05 294.722 380.011 297.604C380.179 301.387 380.714 311.463 380.011 314.635C375.067 311.558 361.683 307.74 358.396 304.813C357.655 302.9 357.516 289.395 357.902 287.079Z"/>
	<path fill="#F5A91A" transform="scale(0.117188 0.117188)" d="M402.924 287.079C403.039 293.026 402.944 298.984 402.924 304.932C400.644 306.067 381.325 315.001 380.011 314.635C380.714 311.463 380.179 301.387 380.011 297.604C386.818 295.376 396.103 290.211 402.924 287.079Z"/>
	<path fill="#39C3F2" transform="scale(0.117188 0.117188)" d="M380.011 265.273C382.67 265.643 413.032 280.007 415.282 281.374C411.692 282.553 405.709 284.64 402.924 287.079C396.103 290.211 386.818 295.376 380.011 297.604C376.05 294.722 362.424 288.888 357.902 287.079C354.401 284.746 349.948 283.218 346.142 281.374C357.25 275.766 368.985 272.227 380.011 265.273Z"/>
	<path fill="#6A75ED" transform="scale(0.117188 0.117188)" d="M339.09 51.9995L416.51 51.9924C425.03 51.99 433.346 49.765 433.476 61.3833C433.659 77.69 433.471 94.0228 433.459 110.332L433.492 124.503C433.517 129.88 434.967 138.533 427.679 139.643C417.255 141.231 397.191 139.797 385.963 139.912L385.961 200.471C385.962 210.672 386.103 220.89 385.963 231.089C388.029 229.42 389.959 227.553 391.923 225.763C396.626 223.144 399.126 227.217 395.895 231.011C394.201 233 384.077 244.293 381.5 242.87C379.03 241.506 361.174 225.611 370.854 225.03C373.43 224.875 378.042 230.596 380.011 232.351C380.187 229.027 380.02 225.617 380.019 222.283L380.011 139.912L350.743 139.922C340.617 139.943 329.708 143.492 329.47 130.608C329.184 115.13 329.427 99.5973 329.431 84.1139L329.437 69.2982C329.443 60.7503 327.453 51.9051 339.09 51.9995ZM336.443 58.2788C335.457 59.2492 335.755 63.862 335.745 65.3636L335.746 133.683L396.158 133.684C406.332 133.684 416.536 133.876 426.706 133.683L427.123 133.351C427.41 130.355 427.242 127.262 427.242 124.249L427.243 58.2788L347.131 58.274C343.59 58.2721 339.975 58.0951 336.443 58.2788Z"/>
	<path fill="#4863E3" transform="scale(0.117188 0.117188)" d="M382.556 67.3687C386.164 69.0636 389.667 71.0844 393.174 72.9813C390.791 75.2941 387.304 76.441 384.075 76.9171C380.314 77.2696 374.499 76.0686 372.223 72.9813C375.422 70.9904 378.997 68.603 382.556 67.3687Z"/>
	<path fill="#F9C853" transform="scale(0.117188 0.117188)" d="M401.784 98.5267C404.023 99.954 411.244 103.456 412.407 104.934C414.188 107.199 413.584 120.933 412.293 123.059C411.316 124.668 407.133 123.827 405.582 123.789C406.151 121.147 405.582 110.201 405.582 106.554C401.231 106.623 395.874 106.736 391.923 104.616C394.897 102.144 398.551 100.636 401.784 98.5267Z"/>
	<path fill="#6A75ED" transform="scale(0.117188 0.117188)" d="M393.174 72.9813C394.103 73.5609 394.95 74.0925 395.738 74.8648C395.756 80.0891 395.971 85.3976 395.738 90.6134C393.121 93.8703 389.163 94.9487 385.647 96.9524C382.887 95.0328 384.059 80.5794 384.075 76.9171C387.304 76.441 390.791 75.2941 393.174 72.9813Z"/>
	<path fill="#27AB6B" transform="scale(0.117188 0.117188)" d="M362.871 98.5267C365.119 99.7404 373.442 103.287 374.042 105.491C374.602 107.548 376.18 123.627 372.223 123.789C370.333 123.605 368.388 123.74 366.49 123.789C366.502 118.047 366.369 112.295 366.49 106.554C361.751 107.019 355.819 106.831 351.512 104.616C354.992 102.359 359.09 100.244 362.871 98.5267Z"/>
	<path fill="#46C797" transform="scale(0.117188 0.117188)" d="M351.512 104.616C355.819 106.831 361.751 107.019 366.49 106.554C366.369 112.295 366.502 118.047 366.49 123.789C368.388 123.74 370.333 123.605 372.223 123.789C369.661 124.319 351.81 125.775 350.919 121.246C350.377 118.496 349.901 107.131 351.512 104.616Z"/>
	<path fill="#209DED" transform="scale(0.117188 0.117188)" d="M370.135 74.8648C370.785 74.1912 371.516 73.5941 372.223 72.9813C374.499 76.0686 380.314 77.2696 384.075 76.9171C384.059 80.5794 382.887 95.0328 385.647 96.9524C384.639 97.6004 383.656 98.067 382.556 98.5267C378.87 96.615 372.956 94.5392 370.135 91.7018C370.053 86.0929 370.088 80.4741 370.135 74.8648Z"/>
	<path fill="#F1D24F" transform="scale(0.117188 0.117188)" d="M389.512 105.296C390.32 104.979 391.067 104.761 391.923 104.616C395.874 106.736 401.231 106.623 405.582 106.554C405.582 110.201 406.151 121.147 405.582 123.789C387.413 123.726 388.468 126.092 389.512 105.296Z"/>
</svg>
