<?xml version="1.0" encoding="utf-8" ?>
<svg xmlns="http://www.w3.org/2000/svg" xmlns:xlink="http://www.w3.org/1999/xlink" width="60" height="60">
	<path fill="#343C63" transform="scale(0.117188 0.117188)" d="M215.733 151.501C219.799 149.675 226.501 154.206 231.623 155.517C247.727 159.641 269.222 158.694 285.125 153.938C287.955 153.091 294.05 149.887 296.569 150.059L296.794 152.093C292.759 165.691 218.034 166.632 215.733 151.501Z"/>
	<path fill="#42A5F2" transform="scale(0.117188 0.117188)" d="M302.042 139.247C313.753 139.552 325.557 139.246 337.278 139.239C355.121 139.227 367.007 138.91 367.005 161.604L366.915 172.586C366.9 174.861 366.48 177.599 367.331 179.757L367.331 198.46C367.058 211.798 369.029 235.788 367.331 247.859C365.85 246.394 363.272 243.519 361.221 243.057C360.861 228.226 361.221 213.299 361.221 198.46L361.221 179.757C361.414 175.334 361.829 158.47 361.014 154.79C358.3 142.549 343.243 144.949 334.219 144.947L302.042 144.955C301.929 143.052 301.996 141.151 302.042 139.247Z"/>
	<path fill="#42A5F2" transform="scale(0.117188 0.117188)" d="M148.679 179.757L148.694 179.518C149.939 157.268 142.367 139.147 172.256 139.221L202.148 139.228C204.945 139.22 207.803 139.066 210.593 139.232L210.805 139.247C210.884 141.159 210.881 143.042 210.805 144.955L180.313 144.946C170.89 144.937 157.947 142.471 155.124 154.759C154.566 157.188 154.262 176.761 154.737 179.757C155.045 182.53 155.154 196.047 154.737 198.46C154.721 199.626 154.695 200.791 154.737 201.957L154.737 280.751C152.605 281.107 150.817 281.15 148.679 280.751C148.234 278.758 148.598 276.056 148.622 273.987L148.679 201.957C148.731 200.779 148.745 199.639 148.679 198.46C148.444 196.934 148.441 181.484 148.679 179.757Z"/>
	<defs>
		<linearGradient id="gradient_0" gradientUnits="userSpaceOnUse" x1="251.49329" y1="118.71365" x2="254.10608" y2="77.006065">
			<stop offset="0" stop-color="#3B5180"/>
			<stop offset="1" stop-color="#718CB5"/>
		</linearGradient>
	</defs>
	<path fill="url(#gradient_0)" transform="scale(0.117188 0.117188)" d="M176.389 115.697C172.922 108.821 197.722 100.956 202.875 98.6805L233.315 85.1959C256.258 75.2592 250.678 73.2065 274.165 83.4409L318.149 102.46C320.969 103.658 324.257 104.713 326.829 106.346C332.571 113.41 315.342 105.131 314.607 104.864C273.257 89.8545 235.479 89.9702 194.162 106.766C189.544 108.643 179.649 112.149 176.389 115.697Z"/>
	<path fill="#BEC1CB" transform="scale(0.117188 0.117188)" d="M195.505 423.424C199.963 423.711 204.571 423.415 209.043 423.406L316.725 423.424C317.785 424.539 318.745 425.675 319.676 426.899C321.759 428.571 323.209 432.961 319.325 433.459C314.997 434.013 310.303 433.688 305.927 433.689L203.385 433.68C200.385 433.679 186.121 434.717 192.503 426.899C193.204 425.525 194.369 424.437 195.505 423.424Z"/>
	<path fill="#9EA2AE" transform="scale(0.117188 0.117188)" d="M195.505 423.424C199.963 423.711 204.571 423.415 209.043 423.406L316.725 423.424C317.785 424.539 318.745 425.675 319.676 426.899C318.387 427.347 304.404 426.896 302.044 426.897L225.54 426.896C222.442 426.896 193.263 427.23 192.503 426.899C193.204 425.525 194.369 424.437 195.505 423.424Z"/>
	<path fill="#343C63" transform="scale(0.117188 0.117188)" d="M176.389 115.697C179.649 112.149 189.544 108.643 194.162 106.766C235.479 89.9702 273.257 89.8545 314.607 104.864C315.342 105.131 332.571 113.41 326.829 106.346C330.151 107.722 339.066 110.741 336.392 115.873C333.172 122.052 309.683 128.591 302.042 130.035C302.045 124.981 302.12 119.911 302.042 114.858C300.231 114.548 298.556 115.039 296.794 114.858C296.08 112.748 293.61 111.717 291.799 110.75L289.682 109.372C286.972 106.524 281.068 103.158 277.224 103.792C262.787 101.674 221.332 99.411 215.733 112.782C213.961 114.026 212.303 115.226 210.805 116.8L210.805 130.035C201.66 127.434 182.562 122.663 176.389 115.697Z"/>
	<path fill="#BEC1CB" transform="scale(0.117188 0.117188)" d="M52.8482 416.186C56.026 415.849 70.7229 417.015 75.79 417.015L431.596 417.011C439.034 417.012 448.44 417.778 455.625 416.897C457.483 416.669 459.198 415.722 461.03 415.393L461.423 415.326C454.655 424.134 445.253 423.452 435.356 423.441L326.914 423.424C323.553 423.423 320.067 423.206 316.725 423.424L209.043 423.406C204.571 423.415 199.963 423.711 195.505 423.424L83.6866 423.439C72.5127 423.446 61.542 424.575 52.8482 416.186Z"/>
	<path fill="#5D6978" transform="scale(0.117188 0.117188)" d="M79.3175 264.343C79.0588 262.264 79.2944 259.909 79.2978 257.803L79.2849 198.996C79.4021 177.557 98.1765 179.735 113.292 179.748L148.679 179.757C148.441 181.484 148.444 196.934 148.679 198.46C148.745 199.639 148.731 200.779 148.679 201.957L112.591 201.962C110.303 201.969 98.8694 202.612 97.2465 201.957L97.2465 264.343L97.2465 264.343L97.65 264.626C97.5707 267.293 97.198 269.852 97.2465 272.56L79.3175 272.56C79.3503 271.089 78.763 265.205 79.3175 264.343L79.3175 264.343ZM148.679 198.46L114.141 198.449C108.597 198.447 102.76 198.067 97.2465 198.46L97.2465 201.957C98.8694 202.612 110.303 201.969 112.591 201.962L148.679 201.957C148.731 200.779 148.745 199.639 148.679 198.46Z"/>
	<path fill="#46464B" transform="scale(0.117188 0.117188)" d="M97.2465 264.343L97.65 264.626C97.5707 267.293 97.198 269.852 97.2465 272.56L79.3175 272.56C79.3503 271.089 78.763 265.205 79.3175 264.343L90.9279 264.371C92.9992 264.377 95.1874 264.532 97.2465 264.343Z"/>
	<defs>
		<linearGradient id="gradient_1" gradientUnits="userSpaceOnUse" x1="257.13519" y1="157.62585" x2="254.88365" y2="101.90369">
			<stop offset="0" stop-color="#344178"/>
			<stop offset="1" stop-color="#6386C3"/>
		</linearGradient>
	</defs>
	<path fill="url(#gradient_1)" transform="scale(0.117188 0.117188)" d="M215.733 112.782C221.332 99.411 262.787 101.674 277.224 103.792C281.068 103.158 286.972 106.524 289.682 109.372L291.799 110.75C293.61 111.717 296.08 112.748 296.794 114.858C296.382 124.358 298.244 144.214 296.794 152.093L296.569 150.059C294.05 149.887 287.955 153.091 285.125 153.938C269.222 158.694 247.727 159.641 231.623 155.517C226.501 154.206 219.799 149.675 215.733 151.501C215.556 138.618 216.193 125.647 215.733 112.782Z"/>
	<defs>
		<linearGradient id="gradient_2" gradientUnits="userSpaceOnUse" x1="261.97214" y1="143.39577" x2="255.4189" y2="108.15229">
			<stop offset="0" stop-color="#FF942A"/>
			<stop offset="1" stop-color="#FFCC84"/>
		</linearGradient>
	</defs>
	<path fill="url(#gradient_2)" transform="scale(0.117188 0.117188)" d="M277.224 103.792C281.068 103.158 286.972 106.524 289.682 109.372L291.799 110.75C284.067 118.615 257.683 146.356 248.902 151.501C246.804 149.914 244.765 148.059 243.073 146.04C241.417 144.986 239.563 142.725 238.202 141.272C234.752 138.201 227.68 131.859 225.679 128.082C222.622 126.28 232.711 118.691 234.067 118.308C238.134 117.16 246.212 127.635 250.399 130.035C253.299 127.735 255.735 124.619 258.377 122.021L277.224 103.792Z"/>
	<path fill="#FC9D2F" transform="scale(0.117188 0.117188)" d="M225.679 128.082C228.612 127.818 236.017 135.907 237.28 137.892C233.796 135.747 230.447 130.56 226.677 128.354L226.381 128.473C227.746 131.429 238.11 137.515 238.202 141.272C234.752 138.201 227.68 131.859 225.679 128.082Z"/>
	<defs>
		<linearGradient id="gradient_3" gradientUnits="userSpaceOnUse" x1="271.35895" y1="133.93245" x2="265.86615" y2="126.66087">
			<stop offset="0" stop-color="#FE7013"/>
			<stop offset="1" stop-color="#FF9B38"/>
		</linearGradient>
	</defs>
	<path fill="url(#gradient_3)" transform="scale(0.117188 0.117188)" d="M289.682 109.372L291.799 110.75C284.067 118.615 257.683 146.356 248.902 151.501C246.804 149.914 244.765 148.059 243.073 146.04L243.271 145.853L243.246 145.492L242.349 144.751C242.358 144.747 253.977 143.211 250.625 147.181L250.406 147.437C253.665 144.902 256.574 141.629 259.643 138.839C268.424 130.859 282.498 118.684 289.682 109.372Z"/>
	<path fill="#FABD57" transform="scale(0.117188 0.117188)" d="M97.2465 264.343L97.2465 264.343L113.739 264.31C130.212 264.257 129.001 265.64 128.988 279.888L128.973 333.964C128.978 351.818 133.689 356.489 114.452 356.474L97.9851 356.452L97.9851 361.277L97.9851 361.277C97.9173 359.665 97.9458 358.065 97.9851 356.452C94.8921 356.817 82.3549 356.822 79.3175 356.452C72.9404 356.343 66.5497 356.448 60.1713 356.469C54.1253 356.488 49.3446 357.783 45.5073 352.235L45.4991 278.483C45.4878 274.923 45.3433 271.348 45.5073 267.793C49.9299 262.136 59.3249 264.318 65.7943 264.332C70.2605 264.341 74.8705 264.048 79.3175 264.343L79.3175 264.343C78.763 265.205 79.3503 271.089 79.3175 272.56L97.2465 272.56C97.198 269.852 97.5707 267.293 97.65 264.626L97.2465 264.343Z"/>
	<path fill="#FDFDFD" transform="scale(0.117188 0.117188)" d="M103.89 300.309C115.567 299.072 96.4418 313.758 95.6081 314.475C80.2751 327.666 82.6764 327.485 68.0287 313.558C64.204 310.431 63.5575 308.963 68.0287 306.291C73.5194 309.067 76.8927 315.052 82.2465 318.142C88.0377 314.002 98.8225 302.348 103.89 300.309Z"/>
	<path fill="#5D6978" transform="scale(0.117188 0.117188)" d="M97.2465 264.343L97.2465 264.343L113.739 264.31C130.212 264.257 129.001 265.64 128.988 279.888L128.973 333.964C128.978 351.818 133.689 356.489 114.452 356.474L97.9851 356.452L97.9851 361.277L97.9851 361.277C97.9173 359.665 97.9458 358.065 97.9851 356.452C94.8921 356.817 82.3549 356.822 79.3175 356.452C72.9404 356.343 66.5497 356.448 60.1713 356.469C54.1253 356.488 49.3446 357.783 45.5073 352.235L45.4991 278.483C45.4878 274.923 45.3433 271.348 45.5073 267.793C49.9299 262.136 59.3249 264.318 65.7943 264.332C70.2605 264.341 74.8705 264.048 79.3175 264.343L79.3175 264.343C78.763 265.205 79.3503 271.089 79.3175 272.56C70.4983 272.563 61.6658 272.673 52.8482 272.56C52.6976 280.334 52.8477 288.133 52.846 295.91L52.8482 332.398C54.821 333.717 56.2752 335.722 57.8054 337.513C65.9784 337.302 110.994 338.753 116.098 336.556L116.304 335.902L116.327 336.384L116.401 335.995L116.444 336.229C119.19 327.451 117.885 313.802 121.308 301.963C121.46 298.807 121.315 295.574 121.314 292.411L121.308 272.56C113.311 272.78 105.25 272.57 97.2465 272.56C97.198 269.852 97.5707 267.293 97.65 264.626L97.2465 264.343Z"/>
	<path fill="#FC9D2F" transform="scale(0.117188 0.117188)" d="M121.308 301.963C121.73 306.471 121.315 311.312 121.311 315.86L121.308 345.515L60.3741 345.527C57.8769 345.531 55.3391 345.682 52.8482 345.515L52.8482 332.398C54.821 333.717 56.2752 335.722 57.8054 337.513C65.9784 337.302 110.994 338.753 116.098 336.556L116.304 335.902L116.327 336.384L116.401 335.995L116.444 336.229C119.19 327.451 117.885 313.802 121.308 301.963Z"/>
	<path fill="#DDDFDF" transform="scale(0.117188 0.117188)" d="M78.7205 393.258C78.822 391.905 78.9631 390.678 79.3175 389.361L79.3175 392.818L180.314 392.818C196.865 392.609 213.443 392.82 229.996 392.82L298.192 392.818C304.174 393.022 310.211 392.842 316.2 392.809L434.177 392.064C444.768 392.994 455.644 392.52 466.294 392.818C466.072 400.957 467.072 408.584 461.423 415.326L461.03 415.393C459.198 415.722 457.483 416.669 455.625 416.897C448.44 417.778 439.034 417.012 431.596 417.011L75.79 417.015C70.7229 417.015 56.026 415.849 52.8482 416.186C45.8962 410.19 47.1196 401.453 47.1534 393.258C57.6449 393.454 68.2273 393.399 78.7205 393.258Z"/>
	<path fill="#BEC1CB" transform="scale(0.117188 0.117188)" d="M180.314 392.818C196.865 392.609 213.443 392.82 229.996 392.82L298.192 392.818C303.555 398.756 303.002 405.893 293.478 406.374C288.095 406.645 282.665 406.515 277.276 406.518L232.919 406.518C221.392 406.513 210.912 409.029 215.733 392.818C212.415 392.818 180.731 393.079 180.314 392.818Z"/>
	<path fill="#51545B" transform="scale(0.117188 0.117188)" d="M382.275 179.757L404.837 179.749C410.136 179.744 417.099 179.067 422.207 180.437C437.855 184.633 434.189 204.996 434.186 217.108L434.182 348.726C434.184 363.115 434.808 377.697 434.177 392.064L316.2 392.809C310.211 392.842 304.174 393.022 298.192 392.818L229.996 392.82C213.443 392.82 196.865 392.609 180.314 392.818L79.3175 392.818L79.3175 389.361C79.1093 380.895 79.3067 372.381 79.3175 363.91C79.0502 361.364 79.1035 359.005 79.3175 356.452C82.3549 356.822 94.8921 356.817 97.9851 356.452C97.9458 358.065 97.9173 359.665 97.9851 361.277L97.9851 361.277L97.9851 371.236L97.9851 375.215L356.268 375.217C366.871 375.217 377.582 375.539 388.174 375.215L416.172 375.215L416.178 230.529C416.179 224.489 416.921 203.226 415.235 198.843C412.387 197.937 387.249 198.455 382.275 198.46L382.275 198.46L379.578 198.46L367.331 198.46L367.331 179.757C372.309 179.804 377.301 179.655 382.275 179.757Z"/>
	<path fill="#46464B" transform="scale(0.117188 0.117188)" d="M382.275 179.757C382.928 179.84 383.479 179.779 383.988 180.217C384.067 183.873 385.58 197.762 382.275 198.46L379.578 198.46C379.464 193.745 377.277 180.135 382.275 179.757Z"/>
	<path fill="#51545B" transform="scale(0.117188 0.117188)" d="M367.331 179.757C372.309 179.804 377.301 179.655 382.275 179.757L382.275 179.757C377.277 180.135 379.464 193.745 379.578 198.46L367.331 198.46L367.331 179.757Z"/>
	<path fill="#58B6B8" transform="scale(0.117188 0.117188)" d="M170.256 172.947L327.464 172.944C333.875 172.944 340.366 172.719 346.768 172.947C347.044 175.345 347.165 177.367 346.768 179.757L361.221 179.757L361.221 198.46L349.835 198.46C348.968 198.527 347.729 198.463 346.975 198.913C346.267 204.104 346.76 211.553 346.76 216.976L346.768 253.416L307.164 253.405C300.788 253.404 294.217 253.07 287.858 253.416L170.602 253.416C169.73 249.811 170.247 241.044 170.247 236.969L170.256 201.957L170.256 198.46L154.737 198.46C155.154 196.047 155.045 182.53 154.737 179.757C159.89 179.748 165.109 179.58 170.256 179.757C170.556 177.552 170.086 175.198 170.256 172.947Z"/>
	<path fill="#2985A8" transform="scale(0.117188 0.117188)" d="M268.768 229.293L273.305 229.293C273.483 229.522 273.584 229.788 273.707 230.05L273.524 230.481C272.151 231.096 269.489 230.839 268.768 229.293Z"/>
	<path fill="#2985A8" transform="scale(0.117188 0.117188)" d="M307.511 229.293C309.181 229.246 310.885 229.406 312.54 229.293C313.04 229.644 312.996 229.707 313.225 230.238L312.968 230.755C310.983 231.524 308.804 231.016 307.511 229.293Z"/>
	<path fill="#2985A8" transform="scale(0.117188 0.117188)" d="M294.7 229.293C298.385 230.358 292.534 232.336 289.959 230.196L289.682 229.293C291.316 229.264 293.124 229.718 294.7 229.293Z"/>
	<path fill="#2985A8" transform="scale(0.117188 0.117188)" d="M238.202 226.945C241.664 228.952 231.088 232.855 226.604 231.05C225.832 230.74 224.808 230.081 225.679 229.293C230.383 230.312 234.016 228.988 238.202 226.945Z"/>
	<path fill="#FDFDFD" transform="scale(0.117188 0.117188)" d="M225.679 229.293C206.505 222.076 221.185 196.472 238.202 209.158C237.321 210.405 236.544 211.67 235.793 212.999C234.535 212.408 233.232 211.703 231.905 211.286C217.567 206.789 220.447 232.779 235.793 222.205C236.865 223.643 237.507 225.304 238.202 226.945C234.016 228.988 230.383 230.312 225.679 229.293Z"/>
	<path fill="#51545B" transform="scale(0.117188 0.117188)" d="M346.768 179.757L361.221 179.757L361.221 198.46L349.835 198.46C348.965 198.469 348.136 198.43 347.271 198.323C346.309 197.234 346.839 182.322 346.768 179.757Z"/>
	<path fill="#FDFDFD" transform="scale(0.117188 0.117188)" d="M204.385 205.99C208.117 205.367 211 206.728 214.261 208.295C213.722 209.885 213.109 211.44 212.488 212.999C210.266 211.795 202.809 208.313 201.848 212.773C202.863 215.204 210.116 216.099 212.726 218.506C217.639 223.036 212.772 229.612 205.669 229.293C201.7 229.553 199.04 228.543 195.505 226.945C195.957 225.299 196.529 223.773 197.201 222.205C199.85 223.256 207.056 226.637 208.804 222.765C208.348 220.644 200.743 219.253 198.407 217.465C192.783 213.159 197.598 206.665 204.385 205.99Z"/>
	<path fill="#5D6978" transform="scale(0.117188 0.117188)" d="M154.737 179.757C159.89 179.748 165.109 179.58 170.256 179.757C170.58 180.741 170.329 196.152 170.256 198.46L154.737 198.46C155.154 196.047 155.045 182.53 154.737 179.757Z"/>
	<path fill="#FDFDFD" transform="scale(0.117188 0.117188)" d="M308.61 205.99C309.923 205.951 311.228 205.895 312.54 205.99C312.539 209.364 312.139 227.782 312.54 229.293C310.885 229.406 309.181 229.246 307.511 229.293C307.731 224.718 307.526 220.051 307.511 215.466C305 218.128 303.238 221.245 301.094 224.19C298.826 221.388 297.064 218.18 294.7 215.466L294.7 229.293C293.124 229.718 291.316 229.264 289.682 229.293C289.889 226.555 289.713 223.75 289.7 221.002L289.682 205.99C291.352 205.983 293.031 205.94 294.7 205.99C296.546 209.663 299.103 212.893 301.094 216.482C303.04 212.69 305.557 208.985 308.61 205.99Z"/>
	<path fill="#FDFDFD" transform="scale(0.117188 0.117188)" d="M267.899 205.99C272.807 205.97 280.589 205.003 284.384 208.753C288.319 212.642 286.122 218.292 281.937 220.727C283.907 223.553 285.574 226.716 287.858 229.293L281.937 229.293C278.275 224.504 270.123 214.609 273.305 229.293L268.768 229.293C267.075 227.66 267.704 209.386 267.899 205.99Z"/>
	<path fill="#58B6B8" transform="scale(0.117188 0.117188)" d="M273.305 210.794C276.714 210.473 284.78 211.356 280.142 216.482C278.032 217.667 275.638 217.488 273.305 217.475C273.259 215.251 273.301 213.019 273.305 210.794Z"/>
	<path fill="#FDFDFD" transform="scale(0.117188 0.117188)" d="M250.399 205.99C266.385 202.894 270.08 227.669 254.091 229.293C237.496 232.927 234.037 208.191 250.399 205.99Z"/>
	<path fill="#2985A8" transform="scale(0.117188 0.117188)" d="M245.23 218.337C245.55 214.677 246.87 212.338 250.399 210.794C251.127 212.686 246.68 217.6 245.23 218.337Z"/>
	<path fill="#58B6B8" transform="scale(0.117188 0.117188)" d="M250.399 210.794C256.334 208.682 261.005 215.878 258.117 221.065C254.891 226.861 245.179 225.412 245.23 218.337C246.68 217.6 251.127 212.686 250.399 210.794Z"/>
	<path fill="#DDDFDF" transform="scale(0.117188 0.117188)" d="M318.19 345.515C319.552 345.866 321.017 346.133 322.287 346.745C323.408 348.369 324.244 349.815 326.029 350.767L326.029 350.767C323.136 349.932 321.518 345.07 318.104 346.91C316.066 348.008 316.276 351.544 313.827 352.235C315.375 350.05 316.578 347.656 318.19 345.515Z"/>
	<path fill="#BEC1CB" transform="scale(0.117188 0.117188)" d="M330.661 346.745C332.842 346.441 334.668 345.797 336.653 344.858C338.303 347.079 339.757 349.255 340.957 351.75C339.141 352.076 316.887 352.492 316.219 351.889C317.469 351.163 337.779 351.765 340.957 351.75C336.25 344.75 334.873 354.364 329.877 349.379C328.49 349.6 327.472 351.51 326.029 350.767L326.029 350.767C328.093 349.746 329.227 348.499 330.661 346.745Z"/>
	<path fill="#1B6B91" transform="scale(0.117188 0.117188)" d="M312.54 344.858C313.31 344.27 314.069 343.718 314.896 343.214C316.062 343.923 317.127 344.657 318.19 345.515C316.578 347.656 315.375 350.05 313.827 352.235C311.435 355.458 308.962 358.659 306.734 361.998C306.703 360.154 306.62 358.293 306.734 356.452C308.887 353.816 311.381 348.058 312.54 344.858Z"/>
	<path fill="#2985A8" transform="scale(0.117188 0.117188)" d="M303.808 339.745C304.842 340.246 306.38 339.856 307.511 339.745C307.754 341.025 308.078 342.024 308.61 343.214C309.841 343.841 311.175 344.605 312.54 344.858C311.381 348.058 308.887 353.816 306.734 356.452L306.734 348.648C302.324 350.559 297.746 352.814 293.115 354.108C293.177 353.1 302.474 341.277 303.808 339.745Z"/>
	<path fill="#2985A8" transform="scale(0.117188 0.117188)" d="M348.738 335.416C352.907 340.188 355.87 346.523 360.563 350.767C361.34 351.895 362.088 353.059 362.97 354.108C358.271 352.761 353.472 351.946 348.738 350.767C347.171 354.192 346.288 357.637 345.399 361.277C344.099 357.972 342.934 354.724 340.957 351.75C339.757 349.255 338.303 347.079 336.653 344.858C338.098 344.022 339.529 343.167 340.957 342.301C347.816 349.488 347.517 338.202 348.738 335.416Z"/>
	<path fill="#DDDFDF" transform="scale(0.117188 0.117188)" d="M97.9851 371.236C102.793 371.018 107.553 371.232 112.359 371.219L374.427 371.837C377.103 371.823 379.899 371.674 382.564 371.897C378.692 372.623 360.033 372.165 354.884 372.07C346.762 371.919 338.648 371.254 330.517 371.232L171.091 371.564C154.19 371.413 137.274 372.411 120.377 371.826C116.825 371.702 103.963 369.878 101.312 372.001C98.6688 377.668 120.354 375.104 123.759 375.073L380.38 374.611C382.497 374.615 386.323 374.259 388.174 375.215C377.582 375.539 366.871 375.217 356.268 375.217L97.9851 375.215L97.9851 371.236Z"/>
	<path fill="#5D6978" transform="scale(0.117188 0.117188)" d="M154.737 280.751C155.944 280.931 156.615 280.869 156.738 282.205C157.105 286.16 157.128 300.842 156.651 303.998C155.928 308.776 150.369 310.954 146.764 307.307C144.438 304.953 145.488 298.199 145.511 295.23L145.507 280.751C146.564 280.684 147.62 280.727 148.679 280.751C150.817 281.15 152.605 281.107 154.737 280.751Z"/>
	<path fill="#DDDFDF" transform="scale(0.117188 0.117188)" d="M382.275 198.46L382.275 198.46L382.284 328.995C382.286 335.344 384.027 345.218 379.578 350.236C375.277 351.108 361.958 350.204 360.563 350.767C355.87 346.523 352.907 340.188 348.738 335.416C349.421 334.351 350.115 333.375 350.922 332.398C351.875 332.116 352.811 331.792 353.751 331.468C355.524 328.065 354.603 326.538 352.387 323.526C352.205 318.828 354.835 317.825 355.135 314.609C355.535 310.325 348.236 312.655 349.835 303.368C348.801 301.895 347.974 301.07 346.335 300.309C347.214 294.822 346.775 288.701 346.777 283.136L346.768 253.416L302.593 253.404C298.918 253.399 291.068 253.999 287.858 253.416C294.217 253.07 300.788 253.404 307.164 253.405L346.768 253.416L346.76 216.976C346.76 211.553 346.267 204.104 346.975 198.913C347.729 198.463 348.968 198.527 349.835 198.46L361.221 198.46C361.221 213.299 360.861 228.226 361.221 243.057C363.272 243.519 365.85 246.394 367.331 247.859C369.029 235.788 367.058 211.798 367.331 198.46L379.578 198.46L382.275 198.46Z"/>
	<path fill="#343C63" transform="scale(0.117188 0.117188)" d="M361.221 243.057C363.272 243.519 365.85 246.394 367.331 247.859L367.331 250.425C365.176 250.023 363.384 249.908 361.221 250.425C361.308 247.94 361.375 245.545 361.221 243.057Z"/>
	<path fill="#FABD57" transform="scale(0.117188 0.117188)" d="M361.221 250.425C363.384 249.908 365.176 250.023 367.331 250.425C379.566 253.221 377.568 263.943 377.566 273.667L377.55 297.4L353.751 297.4L353.735 271.666C353.732 267.361 353.176 262.223 354.078 258.023C354.948 253.965 358.928 253.213 361.221 250.425Z"/>
	<path fill="#FC9D2F" transform="scale(0.117188 0.117188)" d="M364.686 259.841C367.304 259.777 372.26 259.144 374.453 260.573L374.423 260.873C372.561 261.962 369.106 261.509 366.972 261.479C363.755 261.459 360.537 261.627 357.329 261.603L356.737 260.95L356.817 260.516C358.417 259.456 362.702 259.932 364.686 259.841Z"/>
	<path fill="#FC9D2F" transform="scale(0.117188 0.117188)" d="M358.788 274.016C362.333 273.994 372.432 272.67 374.988 274.938L374.998 275.244C374.587 275.723 374.073 275.939 373.526 276.238C369.607 276.223 359.88 277.11 356.833 275.066L356.852 274.723C357.455 274.233 358.05 274.158 358.788 274.016Z"/>
	<path fill="#FC9D2F" transform="scale(0.117188 0.117188)" d="M358.046 288.226C361.93 288.229 370.761 287.66 374.069 288.347L374.35 288.783L374.123 289.4L373.526 289.552C370.186 289.54 366.828 289.49 363.491 289.601C362.148 289.645 355.342 291.333 358.046 288.226Z"/>
	<path fill="#FC9D2F" transform="scale(0.117188 0.117188)" d="M364.686 269.186C366.972 269.176 373.421 267.974 374.661 270.249C373.482 271.335 368.962 271.12 367.331 271.224C366.064 271.228 355.336 272.277 357.264 269.362C359.599 268.932 362.298 269.191 364.686 269.186Z"/>
	<path fill="#FC9D2F" transform="scale(0.117188 0.117188)" d="M358.046 264.343C361.444 264.32 372.291 263.466 374.372 265.675L374.545 265.855C374.217 266.096 373.92 266.383 373.526 266.495C372.358 266.492 350.824 267.992 358.046 264.343Z"/>
	<path fill="#FC9D2F" transform="scale(0.117188 0.117188)" d="M361.221 283.039C363.491 283.024 372.903 282.514 374.465 283.551C374.636 285.587 372.512 285.066 371.062 285.036C368.42 285.043 359.224 285.462 357.421 284.812C355.798 282.688 360.048 283.12 361.221 283.039Z"/>
	<path fill="#FC9D2F" transform="scale(0.117188 0.117188)" d="M356.931 278.691C361.227 278.681 373.907 276.67 374.754 280.751C370.841 280.781 357.257 282.75 356.931 278.691Z"/>
	<path fill="#FDFDFD" transform="scale(0.117188 0.117188)" d="M170.602 253.416L287.858 253.416C291.068 253.999 298.918 253.399 302.593 253.404L346.768 253.416L346.777 283.136C346.775 288.701 347.214 294.822 346.335 300.309C347.974 301.07 348.801 301.895 349.835 303.368C348.236 312.655 355.535 310.325 355.135 314.609C354.835 317.825 352.205 318.828 352.387 323.526C354.603 326.538 355.524 328.065 353.751 331.468C352.811 331.792 351.875 332.116 350.922 332.398C350.115 333.375 349.421 334.351 348.738 335.416C347.517 338.202 347.816 349.488 340.957 342.301C339.529 343.167 338.098 344.022 336.653 344.858C334.668 345.797 332.842 346.441 330.661 346.745C329.227 348.499 328.093 349.746 326.029 350.767C324.244 349.815 323.408 348.369 322.287 346.745C321.017 346.133 319.552 345.866 318.19 345.515C317.127 344.657 316.062 343.923 314.896 343.214C314.069 343.718 313.31 344.27 312.54 344.858C311.175 344.605 309.841 343.841 308.61 343.214C308.078 342.024 307.754 341.025 307.511 339.745C306.38 339.856 304.842 340.246 303.808 339.745C302.474 341.277 293.177 353.1 293.115 354.108C288.872 355.625 279.521 354.725 274.72 354.659C240.013 354.179 205.3 355.225 170.602 354.108L170.614 266.007C170.638 261.811 170.811 257.608 170.602 253.416Z"/>
	<path fill="#1B6B91" transform="scale(0.117188 0.117188)" d="M306.734 335.416C307.035 336.857 307.307 338.286 307.511 339.745C306.38 339.856 304.842 340.246 303.808 339.745C304.745 338.274 305.735 336.845 306.734 335.416Z"/>
	<path fill="#BEC1CB" transform="scale(0.117188 0.117188)" d="M220.017 307.887L239.067 307.887L239.067 312.606L210.805 312.606L191.507 312.606L191.507 307.887L220.017 307.887Z"/>
	<path fill="#BEC1CB" transform="scale(0.117188 0.117188)" d="M234.444 325.402L258.486 325.402L258.486 330.305L215.733 330.305L191.507 330.305L191.507 325.402L234.444 325.402Z"/>
	<path fill="#BEC1CB" transform="scale(0.117188 0.117188)" d="M191.507 289.552L291.799 289.552L291.799 294.621L191.507 294.621L191.507 289.552Z"/>
	<path fill="#BEC1CB" transform="scale(0.117188 0.117188)" d="M191.507 271.224L309.532 271.224L309.532 276.238L191.507 276.238L191.507 271.224Z"/>
	<path fill="#FC7162" transform="scale(0.117188 0.117188)" d="M306.734 301.963C311.303 295.522 312.447 301.366 316.141 298.712C318.205 297.229 318.726 293.916 321.119 292.977C324.054 291.824 325.556 294.809 327.952 295.705C331.798 297.142 333.153 292.683 338.518 294.621C339.377 296.19 339.989 297.824 340.957 299.348C342.519 300.132 344.633 300.995 346.335 300.309C347.974 301.07 348.801 301.895 349.835 303.368C348.236 312.655 355.535 310.325 355.135 314.609C354.835 317.825 352.205 318.828 352.387 323.526C354.603 326.538 355.524 328.065 353.751 331.468C352.811 331.792 351.875 332.116 350.922 332.398C350.115 333.375 349.421 334.351 348.738 335.416C347.517 338.202 347.816 349.488 340.957 342.301C339.529 343.167 338.098 344.022 336.653 344.858C334.668 345.797 332.842 346.441 330.661 346.745C329.227 348.499 328.093 349.746 326.029 350.767C324.244 349.815 323.408 348.369 322.287 346.745C321.017 346.133 319.552 345.866 318.19 345.515C317.127 344.657 316.062 343.923 314.896 343.214C314.069 343.718 313.31 344.27 312.54 344.858C311.175 344.605 309.841 343.841 308.61 343.214C308.078 342.024 307.754 341.025 307.511 339.745C307.307 338.286 307.035 336.857 306.734 335.416C305.559 333.366 304.523 332.186 302.723 330.628C297.336 325.967 303.261 325.355 303.062 320.822C302.957 318.414 300.43 316.842 300.273 314.498C299.934 309.418 307.412 313.125 306.734 301.963Z"/>
	<path fill="#BA3838" transform="scale(0.117188 0.117188)" d="M326.829 299.348C349.927 297.342 360.821 334.63 329.152 342.301C300.712 341.328 298.262 302.365 326.829 299.348Z"/>
	<path fill="#FC7162" transform="scale(0.117188 0.117188)" d="M326.829 303.368C343.364 298.772 355.454 332.305 329.946 337.513C305.82 338.499 304.428 304.404 326.829 303.368Z"/>
	<path fill="#FDFDFD" transform="scale(0.117188 0.117188)" d="M326.829 305.065C343.355 302.453 350.787 330.547 329.152 335.416C309.803 334.927 304.689 308.964 326.829 305.065Z"/>
	<path fill="#FC7162" transform="scale(0.117188 0.117188)" d="M326.029 306.291C344.163 305.1 346.711 330.062 329.946 333.793C312.601 336.17 306.748 310.652 326.029 306.291Z"/>
	<path fill="#FDFDFD" transform="scale(0.117188 0.117188)" d="M326.829 309.079C340.416 308.531 341.929 326.216 328.5 328.547C313.004 328.889 312.848 310.74 326.829 309.079Z"/>
	<path fill="#FC7162" transform="scale(0.117188 0.117188)" d="M326.829 325.402C326.405 325.969 326.485 326.216 326.76 326.847L326.466 327.05C314.67 326.813 315.628 312.475 326.829 310.083C327.04 311.841 327.123 323.938 326.829 325.402Z"/>
	<path fill="#FC7162" transform="scale(0.117188 0.117188)" d="M326.829 310.083L328.5 310.083C343.572 314.56 334.029 330.173 327.36 326.373C327.269 325.918 327.14 325.742 326.829 325.402C327.123 323.938 327.04 311.841 326.829 310.083Z"/>
	<path fill="#FDFDFD" transform="scale(0.117188 0.117188)" d="M329.946 321.337C332.421 322.77 332.327 325.178 329.946 326.373L329.163 326.356L328.888 325.978C328.951 324.393 329.509 322.854 329.946 321.337Z"/>
	<path fill="#FE9898" transform="scale(0.117188 0.117188)" d="M326.829 310.083L328.5 310.083C328.475 315.815 328.286 320.681 327.36 326.373C327.269 325.918 327.14 325.742 326.829 325.402C327.123 323.938 327.04 311.841 326.829 310.083Z"/>
</svg>
