<?xml version="1.0" encoding="utf-8" ?>
<svg xmlns="http://www.w3.org/2000/svg" xmlns:xlink="http://www.w3.org/1999/xlink" width="60" height="60">
	<path fill="#242A48" transform="scale(0.117188 0.117188)" d="M66.8899 297.384C72.7906 296.552 76.8925 303.109 80.3795 306.774C85.6495 312.314 98.316 321.941 89.3524 329.838C85.3691 333.347 79.5127 332.343 74.6415 332.005C83.9492 350.32 101.796 364.456 120.366 372.363C124.242 374.014 127.405 374.51 130.778 375.794C133.815 376.951 135.612 381.528 131.79 382.768C127.843 384.048 113.866 377.283 109.869 375.239C91.6853 365.869 80.9491 354.235 69.8285 337.853C69.8393 342.853 72.279 362.571 66.2795 363.215C61.2231 363.758 62.7814 353.996 62.7814 351.146L62.7825 332.005C58.3656 331.775 50.3254 333.156 46.5724 330.92C42.6824 328.601 40.8103 322.737 43.3795 318.811C46.4687 314.091 60.5258 298.594 66.8899 297.384Z"/>
	<path fill="#8EC7F2" transform="scale(0.117188 0.117188)" d="M67.7488 303.915C69.0829 304.341 84.3462 320.537 85.6982 322.395C83.3946 327.478 73.4355 325.176 67.7488 325.159C64.0665 325.161 48.9653 327.2 49.6759 322.523C49.9009 321.042 65.3249 305.677 67.7488 303.915Z"/>
	<path fill="#242A48" transform="scale(0.117188 0.117188)" d="M239.66 86.8378C245.536 86.7365 251.974 95.5765 255.795 99.3696C262.014 105.543 272.361 111.963 263.786 121.082C259.895 125.22 247.403 138.295 243.332 140.695C238.442 143.578 232.418 139.655 231.134 134.552C230.159 130.68 230.851 120.077 230.795 115.441C212.591 116.731 196.81 121.914 181.803 132.464C170.345 140.921 167.423 146.051 159.463 156.267C156.133 160.541 145.923 158.179 163.583 139.442C180.937 121.03 205.332 109.258 230.795 108.478C231.177 99.7902 228.105 88.5613 239.66 86.8378Z"/>
	<path fill="#8EC7F2" transform="scale(0.117188 0.117188)" d="M239.66 93.8838C241.521 94.1475 258.942 112.251 260.789 114.244C257.345 118.208 253.219 121.853 249.518 125.592C248.011 127.135 238.284 139.708 237.869 132.173C237.55 126.397 236.643 96.2446 239.66 93.8838Z"/>
	<path fill="#242A48" transform="scale(0.117188 0.117188)" d="M212.778 167.585C240.547 166.787 270.803 188.596 284.255 211.971C287.069 216.861 286.631 220.867 292.221 220.614C292.761 211.693 291.227 199.91 292.234 191.847C292.56 189.236 295.634 187.421 297.796 189.458C300.097 191.627 298.962 197.572 298.962 200.368L298.975 220.614C304.319 220.755 311.6 219.311 315.914 223.26C321.058 227.969 318.61 234.345 314.577 238.742C311.164 242.256 307.941 246.056 304.742 249.768C293.078 263.301 290.021 261.355 278.477 248.423C273.12 242.422 261.006 232.373 269.681 223.908C272.831 220.835 277.002 220.626 281.125 220.614C271.024 198.434 245.288 178.887 221.505 175.415C218.727 175.009 213.391 175.166 211.078 173.829C208.025 172.064 209.985 168.24 212.778 167.585Z"/>
	<path fill="#6F96CC" transform="scale(0.117188 0.117188)" d="M276.489 227.345C280.965 227.342 309.204 226.67 311.055 228.014C314.865 230.78 303.436 240.522 300.698 244.201C289.566 253.532 295.21 256.476 281.618 241.441C279.466 239.06 268.826 229.404 276.489 227.345Z"/>
	<path fill="#242A48" transform="scale(0.117188 0.117188)" d="M356.48 279.754C359.692 279.731 374.774 279.168 376.576 280.27C379.002 281.754 378.232 288.608 379.464 291.263C384.354 292.863 388.721 294.947 393.231 297.384C397.756 294.257 399.634 288.387 405.2 293.142C417.662 303.787 420.608 304.469 411.713 314.804C413.447 319.235 416.372 325.26 418.385 329.799C420.773 329.899 428.163 328.443 429.152 331.436C430.029 334.092 430.27 350.704 429.049 352.897C426.896 354.778 421.245 354.387 418.385 354.736C416.665 360.278 414.584 364.999 411.713 370.033C413.081 371.879 419.688 377.177 418.43 379.602C417.288 381.804 404.131 395.24 402.305 395.434C400.389 395.637 394.784 389.88 393.231 388.407C388.733 390.836 384.234 392.967 379.464 394.803C378.625 401.012 379.096 420.187 377.443 422.226C376.054 423.939 354.839 422.959 351 422.958L205.572 422.965C200.036 422.965 157.061 424.01 155.377 422.204C153.475 420.165 154.242 404.334 154.254 400.625C154.276 397.435 153.303 391.163 155.179 388.574C157.029 386.021 160.946 387.185 161.383 390.172C161.788 392.948 161.509 396.05 161.5 398.864L161.471 416.022L371.748 416.022L371.748 405.739C360.555 405.664 353.649 408.463 353.095 394.803C347.426 392.996 342.445 391.527 337.304 388.407C334.259 391.934 330.165 395.365 325.565 392.422C322.837 390.676 313.412 382.031 312.948 379.015C312.602 376.767 318.12 372.01 319.491 370.033C317.121 365.026 315.007 360.111 313.58 354.736C310.965 354.77 305.348 355.489 303.178 353.983C300.6 352.195 302.017 332.759 303.322 331.168C305.966 330.019 310.681 330.516 313.58 330.619C315.182 324.787 317.101 319.881 320.461 314.804C319.198 313.019 314.128 308.709 314.928 306.248C315.803 303.558 326.761 293.107 330.545 291.263C333.285 292.854 335.912 295.402 338.415 297.384C343.304 295.131 347.943 292.904 353.095 291.263C353.212 287.56 352.117 281.265 356.48 279.754ZM360.225 287.032C359.922 297.376 360.56 296.12 351.622 298.965C334.303 304.478 344.311 310.273 330.545 299.655C327.986 302.09 325.473 304.579 322.978 307.08C329.523 315.406 330.205 312.062 324.848 321.095C316.514 335.147 325.891 337.191 308.974 337.853L308.974 347.767C320.21 348.017 318.449 347.976 321.8 357.83C323.246 362.081 326.038 365.776 327.349 370.033C326.159 373.612 323.775 376.103 321.307 378.852L329.298 387.085C337.7 379.362 334.845 379.455 343.302 383.701C346.857 385.486 357.462 388.079 358.836 389.732C360.373 391.581 359.885 396.749 360.225 399.16L372.792 399.16C372.076 387.057 372.618 390.315 380.936 386.628C395.689 380.089 390.056 376.943 401.723 387.085C404.596 384.427 407.587 381.785 410.185 378.852C401.071 369.056 403.042 372.844 407.76 363.013C413.547 350.956 407.564 347.585 422.671 347.767L422.671 336.825C406.176 336.882 414.184 333.892 406.593 320.52C402.798 313.835 400.778 313.605 408.436 307.549L409.04 307.08C406.848 304.345 404.459 301.853 401.723 299.655C399.476 301.328 397.275 304.295 394.729 305.309L394.41 305.074L394.385 305.263C390.87 304.286 387.933 302.179 384.606 300.757C373.784 296.128 372.053 299.732 371.748 287.032L360.225 287.032Z"/>
	<path fill="#6F96CC" transform="scale(0.117188 0.117188)" d="M360.225 287.032L371.748 287.032C372.053 299.732 373.784 296.128 384.606 300.757C387.933 302.179 390.87 304.286 394.385 305.263L394.41 305.074L394.729 305.309C397.275 304.295 399.476 301.328 401.723 299.655C404.459 301.853 406.848 304.345 409.04 307.08L408.436 307.549C400.778 313.605 402.798 313.835 406.593 320.52C414.184 333.892 406.176 336.882 422.671 336.825L422.671 347.767C407.564 347.585 413.547 350.956 407.76 363.013C403.042 372.844 401.071 369.056 410.185 378.852C407.587 381.785 404.596 384.427 401.723 387.085C390.056 376.943 395.689 380.089 380.936 386.628C372.618 390.315 372.076 387.057 372.792 399.16L360.225 399.16C359.885 396.749 360.373 391.581 358.836 389.732C357.462 388.079 346.857 385.486 343.302 383.701C334.845 379.455 337.7 379.362 329.298 387.085L321.307 378.852C323.775 376.103 326.159 373.612 327.349 370.033C326.038 365.776 323.246 362.081 321.8 357.83C318.449 347.976 320.21 348.017 308.974 347.767L308.974 337.853C325.891 337.191 316.514 335.147 324.848 321.095C330.205 312.062 329.523 315.406 322.978 307.08C325.473 304.579 327.986 302.09 330.545 299.655C344.311 310.273 334.303 304.478 351.622 298.965C360.56 296.12 359.922 297.376 360.225 287.032ZM362.647 312.094C321.445 316.847 326.966 377.812 369.312 374.226C386.243 372.956 398.167 356.817 396.857 340.362C395.57 324.195 379.252 309.365 362.647 312.094Z"/>
	<path fill="#242A48" transform="scale(0.117188 0.117188)" d="M362.647 312.094C379.252 309.365 395.57 324.195 396.857 340.362C398.167 356.817 386.243 372.956 369.312 374.226C326.966 377.812 321.445 316.847 362.647 312.094ZM363.502 319.102C332.501 322.743 334.896 368.876 368.345 367.288C381.873 366.351 390.686 353.223 389.785 340.432C388.955 328.643 375.536 316.773 363.502 319.102Z"/>
	<path fill="#242A48" transform="scale(0.117188 0.117188)" d="M345.704 105.689C351.365 105.418 357.169 105.679 362.844 105.681L431.045 105.685C436.839 105.682 455.311 104.99 459.565 106.39C472.795 110.744 469.933 125.587 469.929 136.442L469.923 209.503C469.932 224.163 474.277 240.772 458.425 246.975C449.365 246.608 440.159 246.973 431.08 246.973L357.332 246.991C330.488 247.015 334.707 238.928 334.71 216.632L334.715 136.555C334.714 124.04 330.851 110.031 345.704 105.689Z"/>
	<path fill="#6F96CC" transform="scale(0.117188 0.117188)" d="M462.869 218.017C462.912 228.451 466.54 239.923 453.142 239.983L359.982 239.993C344.631 239.993 341.814 242.966 341.71 226.261L341.712 188.464C341.704 184.652 341.564 180.803 341.715 176.996C341.966 181.458 341.727 186.031 341.722 190.505L341.715 218.017L462.869 218.017Z"/>
	<path fill="#8EC7F2" transform="scale(0.117188 0.117188)" d="M341.715 176.996L341.708 137.589C341.71 129.868 338.171 113.07 348.117 112.738C356.621 112.455 365.208 112.708 373.719 112.715L444.709 112.719C449.676 112.717 459.181 110.895 462.021 116.446C464.09 120.489 462.871 147.989 462.871 153.998L462.869 218.017L341.715 218.017L341.722 190.505C341.727 186.031 341.966 181.458 341.715 176.996Z"/>
	<path fill="#242A48" transform="scale(0.117188 0.117188)" d="M378.623 158.251C387.449 161.237 375.558 169.664 373.056 172.91L372.792 173.257L431.555 173.257C428.883 170.244 425.519 167.851 422.934 164.796C419.544 160.791 423.543 156.228 428.193 160.116C430.286 161.866 442.229 173.677 442.991 175.356C444.587 178.871 427.755 194.585 425.169 195.719C416.091 192.009 427.684 183.045 431.555 180.216L392.65 180.216C386.04 180.214 379.396 180.034 372.792 180.216C375.22 182.772 380.119 186.589 381.629 189.467C383.081 192.233 381.07 196.29 377.623 194.657C375.806 193.796 359.332 178.113 360.877 175.051C362.184 172.461 374.695 159.529 378.623 158.251Z"/>
	<path fill="#242A48" transform="scale(0.117188 0.117188)" d="M164.681 176.996L182.123 176.976C200.755 176.942 205.342 178.636 205.24 198.12C215.1 201.821 221.273 205.148 229.289 212.211C233.346 210.954 237.046 208.362 241.368 208.117C251.328 207.553 254.342 216.947 258.412 223.989C261.47 229.28 268.08 237.796 268.266 244.001C268.544 253.297 260.944 254.866 255.773 260.472L255.498 260.773C254.948 267.808 255.986 274.726 255.167 282.002C254.88 284.554 252.94 289.341 253.897 291.689C255.194 294.872 263.589 296.275 265.749 303.427C268.305 311.889 260.928 319.474 256.703 326.054C244.859 344.497 244.358 350.027 223.672 338.762C216.329 342.396 209.115 346.278 201.808 349.984C201.745 357.474 201.284 364.096 193.375 367.288C187.697 369.294 178.59 367.943 172.524 367.957C150.521 368.009 149.111 369.159 147.759 346.856C138.402 342.013 129.273 337.952 121.365 330.619C115.072 333.439 107.52 335.567 101.896 330.151C97.8924 326.296 86.102 302.615 86.1165 297.138C86.1398 288.344 92.5309 287.433 97.5046 282.443L97.7422 282.2C98.6252 270.958 97.3966 265.665 99.9073 253.262C80.2729 238.77 88.4623 232.963 99.2214 218.092C108.79 204.867 111.433 198.723 127.875 208.52C136.414 203.541 140.937 199.78 151.016 195.719C150.924 185.815 153.525 178.029 164.681 176.996ZM163.421 183.951C155.577 186.111 159.553 193.567 156.923 198.895C154.843 203.11 145.131 205.814 140.818 208.209C137.145 210.249 133.551 213.954 129.607 215.249C123.68 217.194 119.496 208.884 113.543 210.732C111.646 211.321 93.7006 235.661 94.8562 238.737C97.1329 244.798 106.917 246.503 106.589 253.642C106.268 260.627 104.177 265.938 104.45 274.123C105.228 297.515 96.2703 283.971 92.6905 297.384C93.8773 301.53 102.762 319.991 105.126 323.447C109.917 330.453 116.543 323.365 122.638 324.376C125.879 324.914 128.444 327.636 130.954 329.532C135.935 333.294 152.751 340.833 154.053 344.909C155.833 350.482 151.75 360.62 160.559 361.358C166.24 361.835 189.061 362.563 193.375 360.032C196.447 355.197 193.118 348.447 198.098 344.645C201.37 342.147 218.778 333.004 222.39 332.245C231.002 330.435 236.719 344.364 243.695 333.785C246.393 329.692 260.234 309.9 259.286 305.976C257.738 299.57 246.639 299.591 246.793 290.444C246.881 285.178 248.688 279.869 248.776 274.393C248.851 269.696 247.242 261.195 249.355 257.373C252.475 251.728 260.16 250.968 261.929 244.201C260.603 240.594 258.029 237.181 256.143 233.819C252.392 227.133 249.167 216.714 241.743 214.545L241.322 214.671C236.547 216.116 231.251 220.625 226.165 217.862C222.377 215.805 219.185 212.533 215.376 210.304C211.166 207.841 204.974 205.924 201.448 203.251C195.26 198.56 201.605 188.511 195.008 184.556C192.962 183.329 167.559 183.953 163.421 183.951Z"/>
	<path fill="#E3E1DF" transform="scale(0.117188 0.117188)" d="M163.421 183.951C167.559 183.953 192.962 183.329 195.008 184.556C201.605 188.511 195.26 198.56 201.448 203.251C204.974 205.924 211.166 207.841 215.376 210.304C219.185 212.533 222.377 215.805 226.165 217.862C231.251 220.625 236.547 216.116 241.322 214.671L241.743 214.545C249.167 216.714 252.392 227.133 256.143 233.819C258.029 237.181 260.603 240.594 261.929 244.201C260.16 250.968 252.475 251.728 249.355 257.373C247.242 261.195 248.851 269.696 248.776 274.393C248.688 279.869 246.881 285.178 246.793 290.444C246.639 299.591 257.738 299.57 259.286 305.976C260.234 309.9 246.393 329.692 243.695 333.785C236.719 344.364 231.002 330.435 222.39 332.245C218.778 333.004 201.37 342.147 198.098 344.645C193.118 348.447 196.447 355.197 193.375 360.032C189.061 362.563 166.24 361.835 160.559 361.358C151.75 360.62 155.833 350.482 154.053 344.909C152.751 340.833 135.935 333.294 130.954 329.532C128.444 327.636 125.879 324.914 122.638 324.376C116.543 323.365 109.917 330.453 105.126 323.447C102.762 319.991 93.8773 301.53 92.6905 297.384C96.2703 283.971 105.228 297.515 104.45 274.123C104.177 265.938 106.268 260.627 106.589 253.642C106.917 246.503 97.1329 244.798 94.8562 238.737C93.7006 235.661 111.646 211.321 113.543 210.732C119.496 208.884 123.68 217.194 129.607 215.249C133.551 213.954 137.145 210.249 140.818 208.209C145.131 205.814 154.843 203.11 156.923 198.895C159.553 193.567 155.577 186.111 163.421 183.951ZM175.475 226.743C150.319 227.526 130.798 249.339 131.727 274.26C132.656 299.177 154.475 319.134 179.375 317.855L180.562 317.784C220.244 315.666 238.323 264.889 207.87 238.205C201.371 232.51 184.063 224.097 175.475 226.743Z"/>
	<path fill="#242A48" transform="scale(0.117188 0.117188)" d="M175.475 226.743C184.063 224.097 201.371 232.51 207.87 238.205C238.323 264.889 220.244 315.666 180.562 317.784L179.375 317.855C154.475 319.134 132.656 299.177 131.727 274.26C130.798 249.339 150.319 227.526 175.475 226.743ZM175.475 233.359C122.233 237.563 130.211 314.272 179.491 311.173C190.623 310.044 200.56 305.549 207.78 296.761C229.242 270.637 207.749 230.793 175.475 233.359Z"/>
</svg>
