<?xml version="1.0" encoding="utf-8" ?>
<svg xmlns="http://www.w3.org/2000/svg" xmlns:xlink="http://www.w3.org/1999/xlink" width="60" height="60">
	<path fill="#284F84" transform="scale(0.117188 0.117188)" d="M93.1786 293.79C103.016 292.186 97.4085 316.668 99.1412 324.486C102.191 338.243 117.872 333.45 127.931 334.461L128.267 334.497C130.671 336.767 131.457 340.189 128.267 342.379C114.201 343.671 95.1043 343.827 91.638 326.175C90.8389 322.106 89.2518 296.367 93.1786 293.79Z"/>
	<path fill="#284F84" transform="scale(0.117188 0.117188)" d="M408.903 264.521C444.677 262.657 446.561 316.273 407.246 314.299C407.305 320.468 407.513 325.871 404.441 331.452C399.443 340.53 385.44 347.972 375.448 342.379C373.101 342.036 370.133 340.419 371.818 337.477C374.919 332.064 384.771 340.886 394.372 331.847C403.582 323.176 396.134 308.316 402.017 306.49C404.745 305.642 410.961 307.125 415.628 305.981C434.133 301.444 431.775 274.54 414.527 272.342C412.289 272.056 408.874 272.619 406.964 271.37C403.516 269.115 405.314 264.987 408.903 264.521Z"/>
	<path fill="#284F84" transform="scale(0.117188 0.117188)" d="M365.146 68.7542C441.045 65.0185 478.017 165.545 415.25 208.114C406.613 213.972 399.715 213.123 397.473 225.437C411.828 233.241 407.385 251.109 394.985 251.264C390.538 259.878 382.835 275.423 373.45 277.753C360.476 284.213 349.126 260.469 346.997 251.264C331.546 252.15 327.788 230.526 343.496 225.437C340.593 214.173 339.413 216.332 330.37 211.168C270.631 177.054 286.188 85.9372 353.173 70.5294C357.126 69.6202 361.123 69.2071 365.146 68.7542ZM342.517 208.413C339.427 203.531 335.563 199.872 331.49 195.852C328.543 194.235 321.382 184.3 319.627 181.521C282.639 122.961 350.016 49.4397 414.65 99.5012C417.341 101.586 420.448 103.889 422.585 106.544C424.497 108.559 430.419 116.282 431.876 117.252C420.068 85.103 378.656 68.9583 346.991 80.664C287.358 102.708 285.063 185.455 342.517 208.413Z"/>
	<path fill="#1992E7" transform="scale(0.117188 0.117188)" d="M360.118 262.236C366.81 262.61 372.298 262.819 379.042 262.236C372.899 274.201 367.433 273.314 360.118 262.236Z"/>
	<path fill="#3EABFB" transform="scale(0.117188 0.117188)" d="M354.75 251.264L384.377 251.264C382.898 254.969 381.354 258.97 379.042 262.236C372.298 262.819 366.81 262.61 360.118 262.236C358.267 258.605 356.482 254.953 354.75 251.264Z"/>
	<path fill="#7BE3F4" transform="scale(0.117188 0.117188)" d="M344.455 233.231C359.817 233.051 378.579 232.338 393.797 233.228C399.782 233.579 400.394 241.753 394.985 243.28L344.455 243.28C340.251 240.583 339.18 235.872 344.455 233.231Z"/>
	<path fill="#FED571" transform="scale(0.117188 0.117188)" d="M331.49 195.852C328.543 194.235 321.382 184.3 319.627 181.521C282.639 122.961 350.016 49.4397 414.65 99.5012C417.341 101.586 420.448 103.889 422.585 106.544C424.497 108.559 430.419 116.282 431.876 117.252C433.429 119.195 434.393 121.743 435.226 124.064C445.682 153.199 434.329 189.844 406.145 204.53C394.708 210.489 391.737 209.564 389.038 225.437C384.917 225.153 380.682 225.427 376.545 225.432L351.386 225.437C349.638 218.841 348.184 212.763 342.517 208.413C339.427 203.531 335.563 199.872 331.49 195.852Z"/>
	<path fill="#284F84" transform="scale(0.117188 0.117188)" d="M369.812 194.546C375.888 195.252 376.275 202.159 370.582 203.52C364.412 202.82 364.275 196.129 369.812 194.546Z"/>
	<path fill="#284F84" transform="scale(0.117188 0.117188)" d="M367.133 102.342C373.617 101.299 381.179 103.584 386.644 107.005C412.857 123.411 405.773 161.878 374.239 168.893C374.244 172.915 374.705 178.595 374.083 182.424C373.517 185.906 368.932 188.414 366.835 184.599C365.412 182.01 365.624 166.205 366.626 163.168C367.308 161.104 377.733 159.777 381.633 157.829C399.031 147.163 398.964 123.15 381.357 113.126C369.264 106.241 352.575 111.92 347.384 124.923C346.326 127.572 345.909 133.277 342.288 133.864C332.909 135.384 341.913 117.929 344.382 114.776C350.2 107.345 357.837 103.467 367.133 102.342Z"/>
	<path fill="#FEB22F" transform="scale(0.117188 0.117188)" d="M375.448 224.877C371.616 209.265 387.139 203.11 396.843 197.347C424.581 180.874 432.942 147.201 424.663 117.055C424.069 114.89 420.814 108.292 422.585 106.544C424.497 108.559 430.419 116.282 431.876 117.252C433.429 119.195 434.393 121.743 435.226 124.064C445.682 153.199 434.329 189.844 406.145 204.53C394.708 210.489 391.737 209.564 389.038 225.437C384.917 225.153 380.682 225.427 376.545 225.432L351.386 225.437C349.638 218.841 348.184 212.763 342.517 208.413C339.427 203.531 335.563 199.872 331.49 195.852C334.501 196.085 340.474 204.772 342.301 207.208C347.683 214.385 350.113 213.319 351.386 225.437C359.052 225.029 367.664 225.066 375.448 224.877Z"/>
	<path fill="#284F84" transform="scale(0.117188 0.117188)" d="M82.4036 117.252C84.6393 117.025 87.075 117.22 89.3326 117.225L240.856 117.241C252.02 117.208 266.365 116.133 269.964 130.52C271.143 135.231 270.481 148.571 270.479 154.169L270.481 245.506C270.486 257.887 272.819 266.901 266.381 277.753L335.237 277.729C366.153 277.661 362.477 294.207 362.484 317.601L362.486 402.412C362.483 417.888 365.497 432.819 346.064 437.844C342.706 438.107 339.232 437.876 335.859 437.865L167.386 437.854C136.143 437.92 138.53 428.856 138.553 403.533L138.53 301.078C138.521 295.118 137.819 289.883 141.297 284.713L102.219 284.721C89.1046 284.722 68.3649 287.468 65.3833 269.15C64.5626 264.108 65.1037 255.481 65.1041 250.011L65.0978 143.973C65.0918 130.616 66.5978 119.575 82.4036 117.252Z"/>
	<path fill="#7BE3F4" transform="scale(0.117188 0.117188)" d="M247.069 125.188C261.281 125.127 262.522 128.164 262.56 142.081L262.56 253.953C262.598 264.639 264.121 277.277 249.543 277.178L102.571 277.123C86.9595 277.131 72.5922 281.182 72.8868 260.376L72.9108 259.379C84.1731 267.672 83.106 265.314 97.6141 265.284L124.699 265.26C161.589 265.257 198.532 264.832 235.415 265.416C249.735 265.643 247.09 252.339 247.08 242.596L247.068 213.328C247.065 183.96 247.401 154.552 247.069 125.188Z"/>
	<path fill="#7BE3F4" transform="scale(0.117188 0.117188)" d="M335.95 285.624C347.996 285.351 354.7 287.522 354.775 300.937L354.76 408.381C354.773 412.455 355.177 416.906 354.565 420.914C352.628 433.616 333.912 430.207 325.104 430.201L201.41 430.187C187.481 430.187 173.528 430.378 159.602 430.192C146.677 430.02 145.109 422.961 146.363 411.166C151.826 417.712 155.873 416.543 163.602 416.526L308.111 416.485C336.704 416.501 340.043 416.965 340.022 385.735L340.01 312.689C340.017 301.096 342.241 295.548 335.95 285.624Z"/>
	<path fill="#D6EDF6" transform="scale(0.117188 0.117188)" d="M72.9108 259.379C72.651 250.254 72.9036 241.094 72.9049 231.965L72.9027 149.354C72.8994 122.593 75.4247 125.191 98.3773 125.192L247.069 125.188C247.401 154.552 247.065 183.96 247.068 213.328L247.08 242.596C247.09 252.339 249.735 265.643 235.415 265.416C198.532 264.832 161.589 265.257 124.699 265.26L97.6141 265.284C83.106 265.314 84.1731 267.672 72.9108 259.379Z"/>
	<path fill="#284F84" transform="scale(0.117188 0.117188)" d="M175.5 171.312C180.747 171.228 208.39 169.469 209.802 174.205C210.501 176.549 208.346 178.776 206.243 179.343C197.289 179.355 184.939 180.098 176.316 179.378C169.951 178.848 169.691 172.349 175.5 171.312Z"/>
	<path fill="#284F84" transform="scale(0.117188 0.117188)" d="M175.5 236.011C180.004 235.958 205.93 235.46 208.174 236.59C212.212 238.623 210.637 243.342 206.243 244.19L185.629 244.185C181.841 244.187 172.665 245.811 171.321 240.729C170.609 238.039 173.227 236.481 175.5 236.011Z"/>
	<path fill="#284F84" transform="scale(0.117188 0.117188)" d="M197.892 218.387L219.435 218.38C222.798 218.367 231.54 217.056 234.165 219.737C235.579 221.182 235.544 223.95 234.113 225.36C231.982 227.459 226.372 226.567 223.679 226.562L209.283 226.531L186.281 226.556C183.093 226.557 175.252 227.615 172.695 225.565C170.199 223.563 171.353 219.289 174.409 218.691C177.152 218.153 180.375 218.405 183.173 218.399L197.892 218.387Z"/>
	<path fill="#284F84" transform="scale(0.117188 0.117188)" d="M174.196 154.016C181.29 153.863 230.819 153.563 232.929 154.518C236.802 156.271 235.575 160.981 232.055 162.139C225.567 162.211 176.789 162.981 173.393 161.645C169.953 160.292 170.97 154.953 174.196 154.016Z"/>
	<path fill="#284F84" transform="scale(0.117188 0.117188)" d="M114.458 203.52L132.017 203.488C152.248 203.464 152.104 206.913 152.161 227.606C152.189 237.728 155.257 253.854 141.297 256.032L123.601 256.052C101.285 256.055 103.174 250.776 103.17 230.074C103.168 220.174 100.516 204.928 114.458 203.52Z"/>
	<path fill="#EB7396" transform="scale(0.117188 0.117188)" d="M110.977 238.054L144.228 238.054C144.445 252.412 140.32 248.076 126.022 248.074C120.764 248.073 113.967 249.867 110.977 245.422C110.831 242.954 110.895 240.522 110.977 238.054Z"/>
	<path fill="#F9B0AF" transform="scale(0.117188 0.117188)" d="M110.977 238.054L110.948 222.926C110.942 220.082 109.714 212.127 113.841 211.487C119.218 210.653 133.056 211.154 138.719 211.376C146.028 211.662 144.255 218.386 144.251 223.769L144.228 238.054L110.977 238.054Z"/>
	<path fill="#284F84" transform="scale(0.117188 0.117188)" d="M112.833 137.708C118.738 137.678 140.655 136.951 144.812 138.503C154.828 142.243 152.198 157.729 152.207 166.324C152.219 177.066 154.735 186.072 142.622 190.995L124.078 191.023C99.8171 191.049 103.176 184.323 103.178 164.125C103.178 154.53 100.293 140.45 112.833 137.708Z"/>
	<path fill="#EB7396" transform="scale(0.117188 0.117188)" d="M110.977 173.509L144.228 173.509C144.284 177.693 145.133 180.7 141.297 183.446L126.128 183.466C113.536 183.506 111.005 185.995 110.977 173.509Z"/>
	<path fill="#F9B0AF" transform="scale(0.117188 0.117188)" d="M110.977 173.509L110.969 158.3C110.975 142.027 111.747 145.658 126.541 145.584C131.385 145.559 136.475 145.201 141.297 145.568C145.705 148.462 144.26 152.53 144.253 157.282L144.228 173.509L110.977 173.509Z"/>
	<path fill="#D6EDF6" transform="scale(0.117188 0.117188)" d="M146.363 411.166C146.549 401.908 146.358 392.601 146.357 383.339L146.356 305.387C146.359 292.343 143.398 285.274 159.498 285.561C163.096 285.625 166.698 285.628 170.297 285.635L335.95 285.624C342.241 295.548 340.017 301.096 340.01 312.689L340.022 385.735C340.043 416.965 336.704 416.501 308.111 416.485L163.602 416.526C155.873 416.543 151.826 417.712 146.363 411.166Z"/>
	<path fill="#284F84" transform="scale(0.117188 0.117188)" d="M248.695 390.209C265.128 389.954 289.267 388.881 305.34 390.302C310.198 390.731 310.4 395.588 306.973 398.038C304.108 398.356 301.031 398.055 298.136 398.049L259.566 398.055C255.794 398.065 244.587 399.999 246.265 392.996C246.617 391.526 247.443 390.942 248.695 390.209Z"/>
	<path fill="#284F84" transform="scale(0.117188 0.117188)" d="M249.637 330.006C266.511 329.52 287.113 329.312 303.934 330.026C309.667 330.27 310.589 336.455 305.459 338.159C293.69 338.279 281.909 338.156 270.139 338.146C265.834 338.143 247.487 340.188 246.171 335.33C245.452 332.674 247.111 330.517 249.637 330.006Z"/>
	<path fill="#284F84" transform="scale(0.117188 0.117188)" d="M248.695 312.944C254.464 312.752 260.295 312.935 266.071 312.94L315.641 312.93C319.406 312.93 329.551 311.259 327.631 318.109C327.237 319.515 326.565 320.077 325.337 320.8C323.192 320.99 320.916 320.811 318.757 320.809L264.226 320.807C261.17 320.807 251.178 321.25 248.758 320.595C244.794 319.523 245.669 314.54 248.695 312.944Z"/>
	<path fill="#284F84" transform="scale(0.117188 0.117188)" d="M248.695 372.765L317.07 372.757C319.494 372.759 322.379 372.489 324.737 373.028C328.715 373.936 328.547 379.035 325.337 380.733C321.227 381.02 316.906 380.748 312.778 380.743L261.052 380.749C257.442 380.752 252.341 381.283 248.864 380.472C244.74 379.51 245.297 374.275 248.695 372.765Z"/>
	<path fill="#284F84" transform="scale(0.117188 0.117188)" d="M182.746 361.266L201.458 361.248C208.786 361.254 219.196 359.681 222.008 368.652C222.811 371.216 222.646 398.199 222.318 402.438C221.943 407.295 219.616 410.825 214.72 412.307L194.709 412.33C187.731 412.332 176.46 413.724 174.448 404.506C173.693 401.048 173.842 374.312 174.342 370.14C174.892 365.561 178.268 362.236 182.746 361.266Z"/>
	<path fill="#1BD3B1" transform="scale(0.117188 0.117188)" d="M182.171 387.81C182.166 384.839 181.68 371.52 182.304 369.637L182.845 369.872L183.008 369.417C189.159 368.325 207.724 368.747 214.72 369.052L214.72 389.536C214.701 394.555 215.124 399.835 214.72 404.823C210.851 405.002 185.488 405.276 183.19 404.161C181.323 401.447 182.123 391.423 182.171 387.81Z"/>
	<path fill="#284F84" transform="scale(0.117188 0.117188)" d="M184.212 295.272C191.083 295.027 209.517 294.544 214.628 296.214C218.216 297.387 219.992 300.05 221.63 303.229C232.607 304.23 226.813 309.03 222.415 314.299L222.446 329.351C222.452 336.456 223.034 342.455 216.714 347.28C211.955 349.775 189.987 349.465 184.478 348.794C179.579 348.198 175.383 344.632 174.472 339.632C173.875 336.354 173.892 307.073 174.478 303.624C175.278 298.919 179.753 295.908 184.212 295.272Z"/>
	<path fill="#1BD3B1" transform="scale(0.117188 0.117188)" d="M185.655 303.229C188.765 303.014 211.696 302.887 213.039 303.935C214.637 305.182 214.558 308.418 214.72 310.218C209.442 316.257 203.445 321.953 197.892 327.773C195.25 325.906 192.888 323.511 190.151 321.815C187.274 320.033 183.03 322.67 184.188 326.166C185.414 329.868 195.628 337.307 200.23 335.897C205.147 332.802 210.269 325.921 214.72 321.82C214.733 325.119 215.273 337.139 214.151 339.587C213.492 341.025 183.452 344.248 182.463 338.428C181.489 332.7 181.818 312.816 182.285 306.71C182.506 303.828 182.756 303.354 185.655 303.229Z"/>
</svg>
