<?xml version="1.0" encoding="utf-8" ?>
<svg xmlns="http://www.w3.org/2000/svg" xmlns:xlink="http://www.w3.org/1999/xlink" width="60" height="60">
	<path fill="#A0E9DE" transform="scale(0.117188 0.117188)" d="M411.939 111.553C419.854 111.2 420.554 122.027 413.479 123.904C404.432 123.651 403.608 114.044 411.939 111.553Z"/>
	<path fill="#F9C94A" transform="scale(0.117188 0.117188)" d="M134.243 265.629C138.401 265.724 142.58 265.634 146.74 265.629C146.763 269.291 146.513 273.002 146.74 276.655L134.243 276.655C134.225 272.98 134.188 269.304 134.243 265.629Z"/>
	<path fill="#57BDF7" transform="scale(0.117188 0.117188)" d="M134.243 283.264L146.74 283.264C146.625 287.023 146.57 290.718 146.74 294.475L134.243 294.475L134.243 283.264Z"/>
	<path fill="#57BDF7" transform="scale(0.117188 0.117188)" d="M134.243 247.253C138.395 247.376 142.584 247.257 146.74 247.253L146.74 258.609C142.597 258.772 138.392 258.616 134.243 258.609L134.243 247.253Z"/>
	<path fill="#84BAF9" transform="scale(0.117188 0.117188)" d="M214.685 287.253C218.101 286.662 239.364 287.205 239.377 287.213C241.986 288.782 240.48 291.588 237.688 291.902C234.538 291.901 213.773 292.453 212.336 291.345C210.771 288.867 212.22 287.374 214.685 287.253Z"/>
	<path fill="#ED5A80" transform="scale(0.117188 0.117188)" d="M134.243 301.978L146.74 301.978C146.802 305.758 146.819 309.527 146.74 313.306L134.243 313.306C134.001 309.539 134.162 305.749 134.243 301.978Z"/>
	<path fill="#3250B0" transform="scale(0.117188 0.117188)" d="M106.308 112.15C110.492 113.176 109.295 117.94 109.248 121.262C109.938 121.265 123.327 120.446 118.096 125.306C116.422 126.862 111.448 126.049 109.248 126.034C109.275 128.898 110.11 132.955 107.599 135.006C103.015 135.04 104.275 129.128 104.323 126.034C103.837 126.028 90.6078 126.549 95.7204 122.102C97.4487 120.599 102.139 121.225 104.323 121.262C104.238 118.116 103.428 114.289 106.308 112.15Z"/>
	<path fill="#84BAF9" transform="scale(0.117188 0.117188)" d="M157.386 287.253C162.375 287.242 198.038 286.811 200.143 287.513C203.105 288.502 202.896 291.392 199.957 291.902L167.912 291.85C165.996 291.853 153.236 293.837 155.33 288.964C155.731 288.032 156.504 287.637 157.386 287.253Z"/>
	<path fill="#3250B0" transform="scale(0.117188 0.117188)" d="M188.064 208.276C193.928 208.924 189.283 221.811 187.214 224.457C178.364 235.781 161.601 230.201 160.048 215.254C159.972 213.318 159.258 208.863 161.902 208.357C166.429 209.852 162.422 216.3 166.241 221.652C169.797 226.635 176.917 227.671 181.8 224.033C188.93 218.722 183.437 211.393 188.064 208.276Z"/>
	<path fill="#3250B0" transform="scale(0.117188 0.117188)" d="M323.164 208.276C328.905 207.632 325.461 215.551 327.372 219.858C329.711 225.13 336.41 227.035 341.387 224.606C349.699 220.548 345.09 209.165 348.89 208.09C351.667 207.305 351.772 212.047 351.959 213.697C351.008 217.582 350.574 221.569 347.912 224.762C333.607 241.921 316.256 216.15 323.164 208.276Z"/>
	<path fill="#7FE8A4" transform="scale(0.117188 0.117188)" d="M134.243 397.772C146.722 397.349 148.738 412.564 137.492 415.733C125.612 416.315 123.211 400.993 134.243 397.772Z"/>
	<path fill="#FEFEFE" transform="scale(0.117188 0.117188)" d="M135.089 402.244C140.944 402.33 142.312 408.344 137.492 411.123C131.875 412.279 129.332 405.885 135.089 402.244Z"/>
	<path fill="#FDADD9" transform="scale(0.117188 0.117188)" d="M372.259 91.3137C387.713 90.3879 389.643 111.223 374.651 113.711C361.322 114.729 357.077 95.0473 372.259 91.3137ZM372.894 95.5222C364.334 98.4987 364.887 110.029 374.651 109.478C383.592 107.628 381.611 94.9069 372.894 95.5222Z"/>
	<path fill="#84BAF9" transform="scale(0.117188 0.117188)" d="M157.386 268.749C162.564 268.507 167.871 268.742 173.061 268.744L226.235 268.745C228.724 268.739 238.908 267.558 240.398 269.846C241.321 271.264 240.431 272.965 239.129 273.72L179.385 273.722C175.208 273.722 159.641 274.189 156.599 273.402C153.48 272.594 155.356 269.53 157.386 268.749Z"/>
	<path fill="#84BAF9" transform="scale(0.117188 0.117188)" d="M213.326 305.652C216.821 305.667 246.193 303.147 240.117 309.685C238.513 311.411 233.767 310.662 231.674 310.651L182.813 310.638C178.05 310.645 156.544 312.525 154.842 308.38C155.302 304.681 161.823 305.643 164.389 305.645L213.326 305.652Z"/>
	<path fill="#84BAF9" transform="scale(0.117188 0.117188)" d="M156.608 250.224L227.764 250.214C230.218 250.213 246.177 248.852 239.129 255.247C236.144 255.532 233.03 255.259 230.025 255.255L178.836 255.248C177.474 255.248 146.55 257.158 156.608 250.224Z"/>
	<path fill="#3250B0" transform="scale(0.117188 0.117188)" d="M349.755 173.037C355.806 173.033 392.406 172.454 395.101 173.43C396.949 176.786 395.779 201.653 395.779 206.997L395.749 279.911C395.727 282.164 395.291 285.114 395.779 287.253C394.528 289.205 393.113 290.549 391.246 291.902L391.246 177.482C379.948 178.212 361.08 178.095 349.755 177.482C349.654 176.001 349.718 174.519 349.755 173.037Z"/>
	<path fill="#6099F2" transform="scale(0.117188 0.117188)" d="M91.2651 339.026L91.2648 179.01C91.2243 158.347 88.372 150.253 113.927 150.313L150.698 150.316C158.369 150.3 163.762 147.466 162.424 155.375C147.522 155.196 117.474 153.682 103.414 155.632C92.7938 157.105 95.9658 174.559 95.9723 181.923L95.959 339.026L91.2651 339.026Z"/>
	<path fill="#6099F2" transform="scale(0.117188 0.117188)" d="M349.755 150.998L389.069 150.989C401.863 150.99 421.364 147.832 421.244 167.154L421.146 260.481C421.146 273.974 421.407 287.528 421.147 301.013C419.269 299.185 416.626 297.146 416.078 294.475C415.798 293.166 413.726 291.302 412.787 290.235C413.773 283.64 412.781 272.001 412.781 264.844L412.794 181.323C412.8 170.452 414.98 164.49 407.246 156.039C388.157 154.605 368.888 155.66 349.755 155.375C349.738 153.916 349.711 152.457 349.755 150.998Z"/>
	<path fill="#57BDF7" transform="scale(0.117188 0.117188)" d="M407.246 156.039C418.157 158.117 416.851 169.594 416.776 177.954L416.766 274.955C416.764 281.093 417.825 288.555 416.078 294.475C415.798 293.166 413.726 291.302 412.787 290.235C413.773 283.64 412.781 272.001 412.781 264.844L412.794 181.323C412.8 170.452 414.98 164.49 407.246 156.039Z"/>
	<path fill="#3250B0" transform="scale(0.117188 0.117188)" d="M174.797 84.9532C180.73 84.6685 186.791 84.9435 192.74 84.9497L332.13 84.9189C342.065 84.9237 338.75 89.8671 338.752 99.8101L338.835 212.772C338.847 217.963 334.523 217.148 334.432 212.195C334.201 199.642 334.527 187 334.527 174.438L334.522 89.3215L177.012 89.3215L176.98 206.483C176.959 208.975 178.275 215.325 176.349 217.258C175.65 217.96 174.297 218.064 173.686 217.2C172.104 214.961 173.021 184.604 173.022 179.743L173.025 97.6497C172.995 94.2454 171.159 86.8753 174.797 84.9532Z"/>
	<path fill="#6099F2" transform="scale(0.117188 0.117188)" d="M91.2651 376.58C96.1787 376.891 101.188 376.614 106.113 376.59L274.332 376.624C276.226 376.64 278.544 376.907 280.387 376.58C282.232 377.393 281.904 379.584 281.873 381.282C279.674 381.737 270.498 381.287 267.432 381.284L226.819 381.282C225.244 395.419 221.961 406.296 213.326 417.822C216.162 417.39 219.431 417.749 222.315 417.784L300.283 417.822L301.008 417.908C300.961 417.102 298.889 415.221 298.256 414.532C297.23 411.903 295.134 409.601 293.841 407.071C289.56 398.696 287.543 389.778 286.836 380.449C289.265 375.116 290.921 379.255 291.418 382.904C293.05 394.882 297.942 409.519 307.39 417.822C312.792 418.562 319.301 417.126 324.851 418.113C327.032 418.501 327.854 421.492 325.602 422.407C324.141 423 253.875 422.58 246.87 422.58L188.753 422.55C186.878 422.555 176.31 423.37 180.14 418.629C186.92 416.025 199.655 418.578 207.402 417.822C215.592 406.488 221.332 395.636 221.808 381.282L109.176 381.297C102.822 381.3 96.2905 381.721 90.0362 380.449C92.6689 379.528 95.4368 382.076 95.364 377.218C93.9918 377.135 92.4415 377.429 91.2651 376.58Z"/>
	<path fill="#9EDDF7" transform="scale(0.117188 0.117188)" d="M286.836 380.449C287.543 389.778 289.56 398.696 293.841 407.071C295.134 409.601 297.23 411.903 298.256 414.532C298.889 415.221 300.961 417.102 301.008 417.908L300.283 417.822L222.315 417.784C219.431 417.749 216.162 417.39 213.326 417.822C221.961 406.296 225.244 395.419 226.819 381.282L267.432 381.284C270.498 381.287 279.674 381.737 281.873 381.282C282.188 381.698 285.661 381.798 286.663 381.876L286.836 380.449Z"/>
	<path fill="#9EDDF7" transform="scale(0.117188 0.117188)" d="M349.755 155.375C368.888 155.66 388.157 154.605 407.246 156.039C414.98 164.49 412.8 170.452 412.794 181.323L412.781 264.844C412.781 272.001 413.773 283.64 412.787 290.235C406.943 285.019 402.777 281.802 395.779 287.253C395.291 285.114 395.727 282.164 395.749 279.911L395.779 206.997C395.779 201.653 396.949 176.786 395.101 173.43C392.406 172.454 355.806 173.033 349.755 173.037C349.91 167.167 349.757 161.25 349.755 155.375Z"/>
	<path fill="#3250B0" transform="scale(0.117188 0.117188)" d="M117.081 173.037L147.93 173.035C152.715 173.028 157.661 172.716 162.424 173.037C163.924 180.304 153.45 177.499 147.344 177.497L121.566 177.482L121.563 321.28C121.563 327.164 121.336 333.151 121.566 339.026L267.57 339.026L267.559 250.783C267.551 246.821 267.397 242.797 267.597 238.844C267.921 232.434 272.435 233.556 271.924 240.687C284.312 244.966 300.475 255.047 312.806 260.962C324.81 266.72 326.631 266.163 315.15 271.697L300.553 278.832C291.023 283.511 281.622 288.64 271.924 292.95L271.924 339.026C275.265 339.194 278.53 339.28 281.873 339.026C281.429 340.46 281.033 341.915 280.387 343.273C277.272 343.481 274.132 343.315 271.011 343.288L124.505 343.276C110.441 343.277 96.3427 343.49 82.2834 343.273L82.2834 346.753L82.256 356.367C82.2265 368.013 82.7187 369.715 91.2651 376.58C92.4415 377.429 93.9918 377.135 95.364 377.218C95.4368 382.076 92.6689 379.528 90.0362 380.449C76.3353 372.915 78.0748 365.1 78.0398 351.501C78.0291 347.351 77.8369 343.171 78.0352 339.026L91.2651 339.026L95.959 339.026C102.995 339.039 110.048 338.875 117.081 339.026L117.079 191.267C117.078 185.203 116.884 179.096 117.081 173.037Z"/>
	<path fill="#ED5A80" transform="scale(0.117188 0.117188)" d="M271.924 245.248C286.323 251.479 300.943 260.292 315.366 267.108C310.366 269.275 305.511 272.153 300.283 273.72C295.332 277.611 278.837 285.208 271.924 288.332C271.926 273.983 271.669 259.592 271.924 245.248Z"/>
	<path fill="#9EDDF7" transform="scale(0.117188 0.117188)" d="M162.424 155.375C162.399 161.261 162.341 167.152 162.424 173.037C157.661 172.716 152.715 173.028 147.93 173.035L117.081 173.037C116.884 179.096 117.078 185.203 117.079 191.267L117.081 339.026C110.048 338.875 102.995 339.039 95.959 339.026L95.9723 181.923C95.9658 174.559 92.7938 157.105 103.414 155.632C117.474 153.682 147.522 155.196 162.424 155.375Z"/>
	<path fill="#FEFEFE" transform="scale(0.117188 0.117188)" d="M82.2834 346.753C82.5921 347.794 82.7445 350.296 82.2834 351.286C86.1108 351.114 89.989 351.371 93.8288 351.332L241.257 351.294C251.203 351.282 269.104 350.109 278.261 351.286C278.23 361.511 279.554 367.181 280.387 376.58C278.544 376.907 276.226 376.64 274.332 376.624L106.113 376.59C101.188 376.614 96.1787 376.891 91.2651 376.58C82.7187 369.715 82.2265 368.013 82.256 356.367L82.2834 346.753Z"/>
	<path fill="#3250B0" transform="scale(0.117188 0.117188)" d="M255.846 106.262C260.41 108.703 267.147 110.905 272.039 112.858L310.533 128.1C312.601 128.931 322.705 131.212 322.235 134.055C318.692 136.822 297.091 144.683 292.014 146.549C291.79 152.888 293.637 172.335 289.772 176.416C282.243 184.366 267.553 186.135 257.173 186.625C245.9 187.06 229.425 185.116 221.306 176.677C217.254 172.465 218.306 166.198 218.312 160.854L218.33 146.549C209.725 141.065 198.427 139.172 191.035 134.421C189.738 130.92 197.398 129.402 199.74 128.477L214.403 122.71C228.194 117.196 241.933 111.458 255.846 106.262ZM222.857 147.883L222.857 160.256C229.427 161.933 250.121 166.522 255.846 161.033C245.513 158.143 233.364 151.678 222.857 147.883ZM284.728 149.429L274.643 153.655C277.949 154.643 284.281 154.868 287.822 154.735L287.822 149.429C287.94 148.095 285.391 149.221 284.728 149.429Z"/>
	<path fill="#FDDB9A" transform="scale(0.117188 0.117188)" d="M284.728 149.429C285.391 149.221 287.94 148.095 287.822 149.429L287.822 154.735C284.281 154.868 277.949 154.643 274.643 153.655L284.728 149.429ZM284.728 149.429C286.991 152.815 286.763 153.03 287.822 149.429C287.94 148.095 285.391 149.221 284.728 149.429Z"/>
	<path fill="#84BAF9" transform="scale(0.117188 0.117188)" d="M255.846 111.553C259.206 112.54 262.541 114.078 265.807 115.359C261.374 118.14 255.991 119.948 251.165 121.992C243.856 125.087 218.957 134.396 213.326 138.694C208.838 137.15 204.386 135.417 199.957 133.709C210.175 128.383 226.245 122.779 237.156 118.536C243.281 116.153 249.424 112.986 255.846 111.553Z"/>
	<path fill="#F9C94A" transform="scale(0.117188 0.117188)" d="M274.643 153.655C277.949 154.643 284.281 154.868 287.822 154.735L287.822 172.161C275.613 186.626 235.728 185.71 222.857 172.161C222.697 168.26 222.612 164.153 222.857 160.256C229.427 161.933 250.121 166.522 255.846 161.033C261.199 158.53 269.051 155.77 274.643 153.655Z"/>
	<path fill="#6099F2" transform="scale(0.117188 0.117188)" d="M265.807 115.359C270.626 116.986 275.319 119.09 280.036 120.993L299.39 128.629C303.864 130.403 308.325 132.351 312.947 133.709C304.381 137.155 295.666 140.193 287.13 143.726L270.526 150.519C265.753 152.509 260.915 154.957 255.846 156.039C247.55 153.73 221.192 143.062 213.326 138.694C218.957 134.396 243.856 125.087 251.165 121.992C255.991 119.948 261.374 118.14 265.807 115.359Z"/>
	<path fill="#3250B0" transform="scale(0.117188 0.117188)" d="M351.959 286.133C377.787 286.221 376.796 280.45 376.668 301.978C381.714 303.421 386.538 306.026 391.246 308.311C394.099 304.709 398.496 299.571 402.4 297.192C405.787 299.544 416.725 310.429 419.53 313.758C423.951 319.007 414.945 322.398 410.474 328.127C413.53 331.912 414.774 337.058 416.078 341.664C419.019 341.652 431.351 341.029 433.294 342.403C434.358 345.165 434.195 364.64 433.062 367.453C431.601 368.732 419.452 368.142 416.764 368.149C415.291 372.581 413.561 376.904 411.939 381.282C414.858 385.39 419.034 388.252 421.147 392.932C419.455 395.341 406.248 409.389 403.858 410.229C401.037 409.016 395.123 403.656 392.283 401.471C387.046 403.836 382.028 406.203 376.668 408.342C376.683 412.419 377.231 419.186 374.651 422.579C370.746 426.159 352.785 424.86 350.451 423.082C348.334 421.469 348.996 411.175 349.01 408.342C343.445 406.512 338.223 404.592 333.211 401.471C328.818 403.798 324.983 407.146 320.804 409.823C317.059 407.566 306.475 396.697 304.432 392.932C306.892 388.715 310.781 384.874 314.078 381.282C311.725 377.11 310.192 372.865 309.35 368.149C307.38 368.374 296.328 368.867 294.989 368.221C293.83 367.662 292.892 346.52 294.916 342.728C298.049 341.687 306.222 342.414 309.894 342.42C311.371 337.432 313 332.78 315.366 328.127C313.518 326.259 304.753 317.714 305.078 315.003C306.469 312.305 320.216 298.975 323.164 297.192C327.456 299.375 331.942 304.83 335.42 308.311C339.964 305.504 344.659 303.54 349.755 301.978C349.724 298.11 348.194 288.557 351.959 286.133ZM358.486 290.235L354.267 290.235L354.267 305.652C347.454 306.845 339.497 309.406 334.522 314.441C329.197 318.357 324.74 322.825 320.804 328.127C316.377 333.727 315.08 340.149 312.947 346.753L298.256 346.753C297.979 352.463 298.264 358.309 298.256 364.036C303.154 364.129 308.05 364.027 312.947 364.036C314.002 370.537 315.94 376.227 319.503 381.798C316.175 385.23 312.329 388.783 309.894 392.932C312.582 396.564 316.245 399.883 319.503 403.007C332.129 386.833 330.405 394.133 347.045 398.874C363.083 403.444 382.805 396.034 394.111 384.597C403.748 374.848 407.376 362.034 407.246 348.714C410.496 353.335 413.535 358.988 416.078 364.036C419.587 364.457 425.942 363.969 429.891 364.036L429.891 345.934L412.787 345.934C410.843 338.102 409.542 334.202 405.447 327.26C407.778 323.873 411.606 320.834 414.597 317.973C413.037 316.774 411.8 314.513 412.787 312.564C410.627 310.744 408.519 308.847 406.649 306.727C402.464 308.316 398.457 313.915 394.428 316.47C392.979 315.996 374.692 306.793 374.651 306.727C373.889 306.302 373.062 305.992 372.259 305.652C372.471 300.537 372.279 295.358 372.259 290.235C367.713 289.983 363.045 290.218 358.486 290.235ZM402.4 301.978C399.426 305.483 395.036 310.848 391.246 313.306C385.502 310.684 381.239 307.171 374.651 306.727C374.692 306.793 392.979 315.996 394.428 316.47C398.457 313.915 402.464 308.316 406.649 306.727C405.136 305.202 403.73 303.665 402.4 301.978ZM309.894 315.215C310.937 316.524 312.056 317.82 312.947 319.236C316.961 315.94 320.187 311.752 324.202 308.414C327.462 305.705 324.03 307.198 323.164 303.555L322.913 303.109C321.46 303.574 312.716 313.349 309.894 315.215ZM353.151 405.197C352.834 410.075 353.128 415.11 353.151 420.004C353.611 420.129 353.813 420.162 354.267 420.004C355.549 419.704 358.013 419.778 358.993 418.972L358.486 417.822L358.486 417.822C356.992 415.083 356.236 406.244 353.151 405.197Z"/>
	<path fill="#81F399" transform="scale(0.117188 0.117188)" d="M414.597 317.973C413.037 316.774 411.8 314.513 412.787 312.564C414.346 314.431 416.753 315.845 414.597 317.973Z"/>
	<path fill="#81F399" transform="scale(0.117188 0.117188)" d="M358.486 417.822C362.724 418.492 367.052 418.251 371.19 419.405L371.487 420.004C367.528 420.567 358.541 420.219 354.267 420.004C355.549 419.704 358.013 419.778 358.993 418.972L358.486 417.822Z"/>
	<path fill="#81F399" transform="scale(0.117188 0.117188)" d="M353.151 405.197C356.236 406.244 356.992 415.083 358.486 417.822L358.486 417.822L358.993 418.972C358.013 419.778 355.549 419.704 354.267 420.004C353.813 420.162 353.611 420.129 353.151 420.004C353.128 415.11 352.834 410.075 353.151 405.197ZM353.151 420.004C353.611 420.129 353.813 420.162 354.267 420.004C355.549 419.704 358.013 419.778 358.993 418.972L358.486 417.822L358.486 417.822C354.646 417.012 353.935 415.58 353.151 420.004Z"/>
	<path fill="#7FE8A4" transform="scale(0.117188 0.117188)" d="M323.164 303.555C326.172 305.267 333.451 311.264 334.522 314.441C329.197 318.357 324.74 322.825 320.804 328.127C318.407 324.982 315.695 322.076 312.947 319.236C316.961 315.94 320.187 311.752 324.202 308.414C327.462 305.705 324.03 307.198 323.164 303.555Z"/>
	<path fill="#63D58D" transform="scale(0.117188 0.117188)" d="M319.503 403.007C332.129 386.833 330.405 394.133 347.045 398.874C363.083 403.444 382.805 396.034 394.111 384.597C403.748 374.848 407.376 362.034 407.246 348.714C410.496 353.335 413.535 358.988 416.078 364.036C411.915 363.755 412.091 368.877 410.522 373.015C409.386 376.009 407.893 378.849 406.649 381.798C409.687 385.604 413.463 388.816 416.078 392.932C411.551 396.402 407.78 401.214 403.668 405.197C400.019 402.132 396.412 398.785 392.283 396.386C389.313 397.842 386.626 399.885 383.589 401.171C379.899 402.733 375.887 403.566 372.259 405.197C371.432 409.986 373.146 415.295 371.487 420.004L371.19 419.405C367.052 418.251 362.724 418.492 358.486 417.822L358.486 417.822C356.992 415.083 356.236 406.244 353.151 405.197C346.676 403.779 338.763 399.806 333.211 396.386C328.961 398.519 324.549 401.717 321.324 405.197L319.503 403.007Z"/>
	<path fill="#7FE8A4" transform="scale(0.117188 0.117188)" d="M358.486 290.235C363.045 290.218 367.713 289.983 372.259 290.235C372.279 295.358 372.471 300.537 372.259 305.652C373.062 305.992 373.889 306.302 374.651 306.727C374.692 306.793 392.979 315.996 394.428 316.47C398.457 313.915 402.464 308.316 406.649 306.727C408.519 308.847 410.627 310.744 412.787 312.564C411.8 314.513 413.037 316.774 414.597 317.973C411.606 320.834 407.778 323.873 405.447 327.26C409.542 334.202 410.843 338.102 412.787 345.934L429.891 345.934L429.891 364.036C425.942 363.969 419.587 364.457 416.078 364.036C413.535 358.988 410.496 353.335 407.246 348.714C407.376 362.034 403.748 374.848 394.111 384.597C382.805 396.034 363.083 403.444 347.045 398.874C330.405 394.133 332.129 386.833 319.503 403.007C316.245 399.883 312.582 396.564 309.894 392.932C312.329 388.783 316.175 385.23 319.503 381.798C315.94 376.227 314.002 370.537 312.947 364.036C308.05 364.027 303.154 364.129 298.256 364.036C298.264 358.309 297.979 352.463 298.256 346.753L312.947 346.753C315.08 340.149 316.377 333.727 320.804 328.127C324.74 322.825 329.197 318.357 334.522 314.441C339.497 309.406 347.454 306.845 354.267 305.652L354.267 290.235L358.486 290.235ZM361.21 327.26C347.118 326.178 335.466 340.298 334.614 353.446C333.484 370.893 347.681 383.194 364.548 382.967C390.79 380.298 400.253 348.671 380.27 332.858C375.431 329.029 367.501 325.162 361.21 327.26ZM354.267 290.235L354.267 305.652C347.454 306.845 339.497 309.406 334.522 314.441C329.197 318.357 324.74 322.825 320.804 328.127C316.377 333.727 315.08 340.149 312.947 346.753L298.256 346.753C298.285 348.412 298.267 350.07 298.256 351.729C303.152 351.699 308.052 351.632 312.947 351.729C312.925 353.007 312.842 357.555 314.978 357.379C317.881 357.138 315.529 346.1 323.779 332.457C330.861 320.746 343.068 312.829 356.372 310.118C361.763 309.02 365.751 312.095 365.77 306.727C363.343 306.769 360.914 306.741 358.486 306.727C358.297 301.232 358.733 295.733 358.486 290.235L354.267 290.235Z"/>
	<path fill="#3250B0" transform="scale(0.117188 0.117188)" d="M361.21 327.26C367.501 325.162 375.431 329.029 380.27 332.858C400.253 348.671 390.79 380.298 364.548 382.967C347.681 383.194 333.484 370.893 334.614 353.446C335.466 340.298 347.118 326.178 361.21 327.26ZM361.21 330.826C326.865 336.268 335.697 380.76 364.548 378.823C395.861 377.375 391.915 328.636 361.21 330.826Z"/>
</svg>
