<svg xmlns="http://www.w3.org/2000/svg" enable-background="new 0 0 512 512" viewBox="0 0 512 512" id="Teacher">
  <polygon fill="#c3e9f7" points="501 461 501 501 11 501 11 461 31 461 291 461 421 461 491 461" class="colorc3e3f7 svgShape"></polygon>
  <path fill="#c3e9f7" d="M391 371c11.05 0 20 8.95 20 20s-8.95 20-20 20-20-8.95-20-20S379.95 371 391 371zM336.95 212.45c24.22 28.36 37.62 71.53 32.38 108.55H291v26l-20-6-13.16-50.79c29.47-11.16 51.56-37.35 56.91-69.21H316C324.15 221 331.55 217.74 336.95 212.45zM194.16 290.21L181 341l-80.44 24.13c-34.03-39.51-20.68-111.62 14.48-152.68 5.41 5.29 12.8 8.55 20.96 8.55h1.25C142.6 252.86 164.69 279.05 194.16 290.21zM365.48 106.8c8.85 23.54 4.87 49.99-9.71 70.48L346 191c0-16.57-13.43-30-30-30v-12.1c0-17.49-12.94-32.35-30.28-34.6C250.91 109.8 226 95.08 226 56c0 39.08-24.91 53.8-59.72 58.3-17.34 2.25-30.28 17.11-30.28 34.6V161c-16.57 0-30 13.43-30 30l-6.51-9.33c-9.17-13.12-14.09-28.79-13.83-44.79.49-30.88 12.78-61.3 36.33-83.97C148.98 26.94 185.66 10.98 226.08 11c62.62.03 116.04 38.9 138.54 93.62C364.92 105.35 365.2 106.07 365.48 106.8z" class="colorc3e3f7 svgShape"></path>
  <g fill="#000000" class="color000000 svgShape">
    <path fill="#018abe" d="M106.009 201.001c-3.158 0-6.266-1.492-8.21-4.279l-6.51-9.33c-10.517-15.046-15.922-32.571-15.628-50.675.551-34.765 14.542-67.088 39.394-91.012C145.018 16.875 184.419 1 226.004 1c.028 0 .053 0 .081 0 64.855.031 122.864 39.211 147.784 99.817.331.806.639 1.596.947 2.398 9.951 26.47 5.867 56.3-10.899 79.862l-9.771 13.723c-3.202 4.499-9.446 5.549-13.946 2.346-4.498-3.204-5.549-9.447-2.345-13.946l9.77-13.72c12.9-18.13 16.077-40.995 8.496-61.161-.227-.593-.48-1.242-.75-1.899C333.546 55.343 282.794 21.027 226.075 21c-.022 0-.048 0-.071 0-36.391 0-70.863 13.889-97.081 39.116-20.984 20.2-32.799 47.519-33.265 76.922-.226 13.871 3.934 27.322 12.028 38.902l6.515 9.337c3.16 4.529 2.05 10.763-2.479 13.923C109.979 200.417 107.984 201.001 106.009 201.001zM31 471c-5.523 0-10-4.478-10-10v-41.52c0-24.475 15.751-45.645 39.196-52.679l112.537-33.762 11.693-45.13c1.039-4.416 5.002-7.705 9.734-7.705 5.523 0 10 4.473 10 9.995 0 .847-.107 1.699-.32 2.518l-13.16 50.79c-.877 3.385-3.458 6.065-6.807 7.07l-117.929 35.38C51.257 390.364 41 404.149 41 419.48V461C41 466.522 36.523 471 31 471zM291.004 357.003c-.951 0-1.919-.137-2.877-.425l-20-6c-3.35-1.005-5.931-3.685-6.808-7.07l-13.16-50.79c-.212-.818-.32-1.661-.32-2.508 0-5.522 4.477-10.005 10-10.005 4.762 0 8.746 3.324 9.754 7.78l11.674 45.055 14.605 4.382c5.29 1.587 8.292 7.162 6.705 12.451C299.278 354.205 295.306 357.003 291.004 357.003z" class="color0096ff svgShape"></path>
    <path fill="#018abe" d="M226 372.244c-17.228 0-34.456-6.558-47.571-19.673l-4.5-4.5c-3.905-3.905-3.905-10.237 0-14.143 3.905-3.904 10.237-3.904 14.143 0l4.5 4.5c18.433 18.434 48.425 18.434 66.857 0l4.5-4.5c3.906-3.904 10.236-3.904 14.143 0 3.905 3.905 3.905 10.237 0 14.143l-4.5 4.5C260.456 365.686 243.228 372.244 226 372.244zM226 306c-12.17 0-24.071-2.165-35.374-6.435-30.67-11.614-53.704-37.707-61.618-69.172-7.865-1.384-15.135-5.097-20.959-10.792C100.283 212.028 96 201.868 96 191c0-18.605 12.767-34.283 30-38.734V148.9c0-22.494 16.763-41.632 38.993-44.517C200.747 99.761 216 85.291 216 56c0-5.523 4.477-10 10-10s10 4.477 10 10c0 29.291 15.253 43.761 51.002 48.382C309.236 107.268 326 126.406 326 148.9v3.366c17.233 4.451 30 20.13 30 38.734 0 10.889-4.291 21.054-12.082 28.623-5.795 5.676-13.059 9.386-20.926 10.77-7.914 31.466-30.946 57.557-61.61 69.169C250.071 303.835 238.17 306 226 306zM226 93.934c-2.83 4.365-6.256 8.288-10.274 11.755-11.285 9.737-27.04 15.797-48.164 18.528C155.271 125.812 146 136.423 146 148.9V161c0 5.523-4.477 10-10 10-11.028 0-20 8.972-20 20 0 5.43 2.138 10.504 6.021 14.29 3.769 3.686 8.73 5.71 13.979 5.71h1.25c4.884 0 9.053 3.528 9.862 8.344 4.685 27.901 24.07 51.472 50.59 61.515C206.73 284.27 216.253 286 226 286s19.27-1.73 28.306-5.145c26.513-10.04 45.897-33.611 50.582-61.511.81-4.816 4.979-8.344 9.862-8.344H316c5.249 0 10.204-2.022 13.952-5.693 3.911-3.799 6.048-8.87 6.048-14.307 0-11.028-8.972-20-20-20-5.522 0-10-4.477-10-10v-12.1c0-12.477-9.272-23.088-21.567-24.683-21.119-2.73-36.874-8.791-48.159-18.528C232.256 102.222 228.83 98.299 226 93.934z" class="color0096ff svgShape"></path>
    <path fill="#018abe" d="M100.564 375.13c-2.81 0-5.604-1.178-7.582-3.474-17.7-20.55-25.177-50.209-21.054-83.514 3.746-30.254 16.69-60.213 35.515-82.197 3.592-4.194 9.904-4.684 14.1-1.091 4.195 3.592 4.684 9.905 1.091 14.1-16.335 19.076-27.582 45.19-30.858 71.645-3.421 27.633 2.389 51.784 16.359 68.004 3.604 4.185 3.134 10.499-1.051 14.104C105.198 374.333 102.876 375.13 100.564 375.13zM369.343 331.001c-.467 0-.939-.032-1.414-.1-5.469-.774-9.274-5.835-8.5-11.303 4.752-33.57-7.337-74.021-30.083-100.654-3.587-4.2-3.09-10.512 1.11-14.099 4.2-3.586 10.512-3.089 14.099 1.11 26.659 31.217 40.272 76.925 34.677 116.445C378.524 327.395 374.244 331.001 369.343 331.001zM501 511H11c-5.523 0-10-4.478-10-10v-40c0-5.522 4.477-10 10-10h280c5.522 0 10 4.478 10 10s-4.478 10-10 10H21v20h470v-20c-5.522 0-10-4.478-10-10s4.478-10 10-10h10c5.522 0 10 4.478 10 10v40C511 506.522 506.522 511 501 511z" class="color0096ff svgShape"></path>
    <path fill="#018abe" d="M491,471H291c-5.522,0-10-4.478-10-10V321c0-5.522,4.478-10,10-10h200
						c5.522,0,10,4.478,10,10v140C501,466.522,496.522,471,491,471z M301,451h180V331H301V451z" class="color0096ff svgShape"></path>
    <path fill="#018abe" d="M391,421c-16.542,0-30-13.458-30-30s13.458-30,30-30s30,13.458,30,30
						S407.542,421,391,421z M391,381c-5.514,0-10,4.486-10,10s4.486,10,10,10s10-4.486,10-10S396.514,381,391,381z" class="color0096ff svgShape"></path>
  </g>
</svg>
