<svg width="240" height="60" viewBox="0 0 180 48" fill="none" xmlns="http://www.w3.org/2000/svg">
<path d="M61.7344 20.5234H55.6406V22.9688H61.2344V24.9688H55.6406V27.9297H62.0156V30H53.2891V18.4844H61.7344V20.5234ZM62.875 30L65.7812 25.6875L63 21.5H65.7266L67.1484 23.9688L68.5391 21.5H71.1875L68.3906 25.6484L71.2969 30H68.5234L67.0547 27.4453L65.5781 30H62.875ZM78.4844 25.7422C78.4844 25.0859 78.3333 24.5052 78.0312 24C77.7344 23.4948 77.25 23.2422 76.5781 23.2422C75.7708 23.2422 75.2161 23.625 74.9141 24.3906C74.7578 24.7969 74.6797 25.3125 74.6797 25.9375C74.6797 26.9271 74.9427 27.6224 75.4688 28.0234C75.7812 28.2578 76.151 28.375 76.5781 28.375C77.1979 28.375 77.6693 28.1354 77.9922 27.6562C78.3203 27.1771 78.4844 26.5391 78.4844 25.7422ZM77.2188 21.2969C78.2135 21.2969 79.0547 21.6641 79.7422 22.3984C80.4349 23.1328 80.7812 24.2109 80.7812 25.6328C80.7812 27.1328 80.4427 28.276 79.7656 29.0625C79.0938 29.849 78.2266 30.2422 77.1641 30.2422C76.487 30.2422 75.9245 30.0729 75.4766 29.7344C75.2318 29.5469 74.9922 29.2734 74.7578 28.9141V33.3516H72.5547V21.4844H74.6875V22.7422C74.9271 22.3724 75.1823 22.0807 75.4531 21.8672C75.9479 21.487 76.5365 21.2969 77.2188 21.2969ZM87.0234 21.2812C87.0651 21.2812 87.099 21.2839 87.125 21.2891C87.1562 21.2891 87.2214 21.2917 87.3203 21.2969V23.5781C87.1797 23.5625 87.0547 23.5521 86.9453 23.5469C86.8359 23.5417 86.7474 23.5391 86.6797 23.5391C85.7839 23.5391 85.1823 23.8307 84.875 24.4141C84.7031 24.7422 84.6172 25.2474 84.6172 25.9297V30H82.375V21.4844H84.5V22.9688C84.8438 22.401 85.1432 22.013 85.3984 21.8047C85.8151 21.4557 86.3568 21.2812 87.0234 21.2812ZM91.9922 23.0938C91.4766 23.0938 91.0755 23.2552 90.7891 23.5781C90.5078 23.901 90.3307 24.3385 90.2578 24.8906H93.7188C93.6823 24.3021 93.5026 23.8568 93.1797 23.5547C92.862 23.2474 92.4661 23.0938 91.9922 23.0938ZM91.9922 21.2578C92.7005 21.2578 93.3385 21.3906 93.9062 21.6562C94.474 21.9219 94.9427 22.3411 95.3125 22.9141C95.6458 23.4193 95.862 24.0052 95.9609 24.6719C96.0182 25.0625 96.0417 25.625 96.0312 26.3594H90.2031C90.2344 27.2135 90.5026 27.8125 91.0078 28.1562C91.3151 28.3698 91.6849 28.4766 92.1172 28.4766C92.5755 28.4766 92.9479 28.3464 93.2344 28.0859C93.3906 27.9453 93.5286 27.75 93.6484 27.5H95.9219C95.8646 28.0052 95.6016 28.5182 95.1328 29.0391C94.4036 29.8672 93.3828 30.2812 92.0703 30.2812C90.987 30.2812 90.0312 29.9323 89.2031 29.2344C88.375 28.5365 87.9609 27.401 87.9609 25.8281C87.9609 24.3542 88.3333 23.224 89.0781 22.4375C89.8281 21.651 90.7995 21.2578 91.9922 21.2578ZM99.2734 27.2812C99.3203 27.6771 99.4219 27.9583 99.5781 28.125C99.8542 28.4219 100.365 28.5703 101.109 28.5703C101.547 28.5703 101.893 28.5052 102.148 28.375C102.409 28.2448 102.539 28.0495 102.539 27.7891C102.539 27.5391 102.435 27.349 102.227 27.2188C102.018 27.0885 101.245 26.8646 99.9062 26.5469C98.9427 26.3073 98.263 26.0078 97.8672 25.6484C97.4714 25.2943 97.2734 24.7839 97.2734 24.1172C97.2734 23.3307 97.5807 22.6562 98.1953 22.0938C98.8151 21.526 99.6849 21.2422 100.805 21.2422C101.867 21.2422 102.732 21.4557 103.398 21.8828C104.07 22.3047 104.456 23.0365 104.555 24.0781H102.328C102.297 23.7917 102.216 23.5651 102.086 23.3984C101.841 23.0964 101.424 22.9453 100.836 22.9453C100.352 22.9453 100.005 23.0208 99.7969 23.1719C99.5938 23.3229 99.4922 23.5 99.4922 23.7031C99.4922 23.9583 99.6016 24.1432 99.8203 24.2578C100.039 24.3776 100.812 24.5833 102.141 24.875C103.026 25.0833 103.69 25.3984 104.133 25.8203C104.57 26.2474 104.789 26.7812 104.789 27.4219C104.789 28.2656 104.474 28.9557 103.844 29.4922C103.219 30.0234 102.25 30.2891 100.938 30.2891C99.599 30.2891 98.6094 30.0078 97.9688 29.4453C97.3333 28.8776 97.0156 28.1562 97.0156 27.2812H99.2734ZM108.18 27.2812C108.227 27.6771 108.328 27.9583 108.484 28.125C108.76 28.4219 109.271 28.5703 110.016 28.5703C110.453 28.5703 110.799 28.5052 111.055 28.375C111.315 28.2448 111.445 28.0495 111.445 27.7891C111.445 27.5391 111.341 27.349 111.133 27.2188C110.924 27.0885 110.151 26.8646 108.812 26.5469C107.849 26.3073 107.169 26.0078 106.773 25.6484C106.378 25.2943 106.18 24.7839 106.18 24.1172C106.18 23.3307 106.487 22.6562 107.102 22.0938C107.721 21.526 108.591 21.2422 109.711 21.2422C110.773 21.2422 111.638 21.4557 112.305 21.8828C112.977 22.3047 113.362 23.0365 113.461 24.0781H111.234C111.203 23.7917 111.122 23.5651 110.992 23.3984C110.747 23.0964 110.331 22.9453 109.742 22.9453C109.258 22.9453 108.911 23.0208 108.703 23.1719C108.5 23.3229 108.398 23.5 108.398 23.7031C108.398 23.9583 108.508 24.1432 108.727 24.2578C108.945 24.3776 109.719 24.5833 111.047 24.875C111.932 25.0833 112.596 25.3984 113.039 25.8203C113.477 26.2474 113.695 26.7812 113.695 27.4219C113.695 28.2656 113.38 28.9557 112.75 29.4922C112.125 30.0234 111.156 30.2891 109.844 30.2891C108.505 30.2891 107.516 30.0078 106.875 29.4453C106.24 28.8776 105.922 28.1562 105.922 27.2812H108.18ZM121.391 25.6328V25.8984C121.411 26.7891 121.508 27.4167 121.68 27.7812C121.857 28.1406 122.232 28.3203 122.805 28.3203C123.372 28.3203 123.747 28.1224 123.93 27.7266C124.039 27.4922 124.094 27.0964 124.094 26.5391V18.4844H126.5V26.5C126.5 27.4792 126.331 28.2552 125.992 28.8281C125.419 29.7969 124.385 30.2812 122.891 30.2812C121.396 30.2812 120.393 29.8906 119.883 29.1094C119.372 28.3229 119.117 27.2526 119.117 25.8984V25.6328H121.391ZM130.633 26.4453C130.706 26.9714 130.849 27.3646 131.062 27.625C131.453 28.099 132.122 28.3359 133.07 28.3359C133.638 28.3359 134.099 28.2734 134.453 28.1484C135.125 27.9089 135.461 27.4635 135.461 26.8125C135.461 26.4323 135.294 26.138 134.961 25.9297C134.628 25.7266 134.104 25.5469 133.391 25.3906L132.172 25.1172C130.974 24.8464 130.146 24.5521 129.688 24.2344C128.911 23.7031 128.523 22.8724 128.523 21.7422C128.523 20.7109 128.898 19.8542 129.648 19.1719C130.398 18.4896 131.5 18.1484 132.953 18.1484C134.167 18.1484 135.201 18.4714 136.055 19.1172C136.914 19.7578 137.365 20.6901 137.406 21.9141H135.094C135.052 21.2214 134.75 20.7292 134.188 20.4375C133.812 20.2448 133.346 20.1484 132.789 20.1484C132.169 20.1484 131.674 20.2734 131.305 20.5234C130.935 20.7734 130.75 21.1224 130.75 21.5703C130.75 21.9818 130.932 22.2891 131.297 22.4922C131.531 22.6276 132.031 22.7865 132.797 22.9688L134.781 23.4453C135.651 23.6536 136.307 23.9323 136.75 24.2812C137.438 24.8229 137.781 25.6068 137.781 26.6328C137.781 27.6849 137.378 28.5599 136.57 29.2578C135.768 29.9505 134.633 30.2969 133.164 30.2969C131.664 30.2969 130.484 29.9557 129.625 29.2734C128.766 28.5859 128.336 27.6432 128.336 26.4453H130.633Z" fill="#636161"/>
<g clip-path="url(#clip0_66_53)">
<path d="M28 37.9996C27.6223 37.9998 27.2512 37.9004 26.924 37.7116L23.5 35.6846C22.989 35.3986 23.238 35.2976 23.407 35.2386C23.9505 35.0707 24.4709 34.8356 24.956 34.5386C24.9966 34.5198 25.0414 34.5117 25.086 34.515C25.1306 34.5184 25.1737 34.533 25.211 34.5576L27.842 36.1206C27.891 36.1465 27.9456 36.1601 28.001 36.1601C28.0565 36.1601 28.111 36.1465 28.16 36.1206L38.42 30.1986C38.468 30.1698 38.5078 30.1291 38.5353 30.0804C38.5628 30.0316 38.5772 29.9766 38.577 29.9206V18.0746C38.5771 18.0178 38.5625 17.9618 38.5346 17.9123C38.5068 17.8627 38.4666 17.8212 38.418 17.7916L28.158 11.8746C28.1096 11.8474 28.0551 11.833 27.9995 11.833C27.944 11.833 27.8894 11.8474 27.841 11.8746L17.587 17.7936C17.5381 17.8225 17.4975 17.8636 17.4691 17.9128C17.4407 17.9621 17.4256 18.0178 17.425 18.0746V29.9156C17.4252 29.9715 17.4402 30.0263 17.4684 30.0744C17.4967 30.1225 17.5373 30.1623 17.586 30.1896L20.4 31.8136C21.925 32.5756 22.859 31.6776 22.859 30.7756V19.0846C22.859 19.0452 22.8668 19.0062 22.8819 18.9698C22.8969 18.9334 22.919 18.9003 22.9469 18.8725C22.9748 18.8446 23.0078 18.8225 23.0442 18.8074C23.0806 18.7924 23.1196 18.7846 23.159 18.7846H24.459C24.5386 18.7846 24.6149 18.8162 24.6712 18.8725C24.7274 18.9287 24.759 19.005 24.759 19.0846V30.7766C24.759 32.8116 23.651 33.9766 21.721 33.9766C20.8884 33.9911 20.0688 33.7684 19.358 33.3346L16.661 31.7876C16.3336 31.5969 16.0619 31.3237 15.8731 30.9952C15.6843 30.6668 15.585 30.2945 15.585 29.9156V18.0746C15.5841 17.6951 15.683 17.3221 15.8719 16.993C16.0607 16.6638 16.3329 16.3902 16.661 16.1996L26.922 10.2756C27.2526 10.0948 27.6233 10 28 10C28.3768 10 28.7475 10.0948 29.078 10.2756L39.338 16.1996C39.6654 16.3899 39.9371 16.6627 40.1261 16.9909C40.3151 17.319 40.4147 17.6909 40.415 18.0696V29.9156C40.4145 30.2945 40.3148 30.6666 40.1258 30.995C39.9369 31.3234 39.6653 31.5967 39.338 31.7876L29.078 37.7116C28.7503 37.9007 28.3784 38.0001 28 37.9996Z" fill="#83CD29"/>
<path d="M26.054 25.9521C26.054 25.8726 26.0856 25.7963 26.1419 25.74C26.1981 25.6837 26.2745 25.6521 26.354 25.6521H27.681C27.7519 25.6524 27.8204 25.6777 27.8745 25.7237C27.9285 25.7696 27.9644 25.8332 27.976 25.9031C28.176 27.2541 28.776 27.9351 31.489 27.9351C33.65 27.9351 34.571 27.4461 34.571 26.2991C34.571 25.6381 34.31 25.1471 30.951 24.8181C28.143 24.5401 26.407 23.9181 26.407 21.6741C26.407 19.6041 28.152 18.3691 31.077 18.3691C34.364 18.3691 35.991 19.5101 36.197 21.9581C36.2002 21.999 36.1949 22.0401 36.1816 22.0788C36.1682 22.1176 36.1471 22.1532 36.1194 22.1835C36.0918 22.2137 36.0582 22.238 36.0208 22.2548C35.9834 22.2716 35.943 22.2806 35.902 22.2811H34.566C34.499 22.2802 34.4342 22.2568 34.382 22.2148C34.3298 22.1727 34.2932 22.1144 34.278 22.0491C33.959 20.6281 33.178 20.1741 31.078 20.1741C28.718 20.1741 28.444 20.9961 28.444 21.6121C28.444 22.3581 28.768 22.5761 31.954 22.9971C35.107 23.4141 36.605 24.0041 36.605 26.2201C36.605 28.4561 34.741 29.7361 31.49 29.7361C26.995 29.7421 26.054 27.6811 26.054 25.9521Z" fill="#83CD29"/>
<g clip-path="url(#clip1_66_53)">
<path d="M12 8H44V40H12V8Z" fill="#F7DF1E"/>
<path d="M20.414 29.2223L22.8629 27.7403C23.3353 28.5779 23.7651 29.2867 24.7959 29.2867C25.784 29.2867 26.407 28.9001 26.407 27.3966V17.1719H29.4142V27.4392C29.4142 30.5538 27.5885 31.9715 24.9248 31.9715C22.5192 31.9715 21.1228 30.7256 20.4139 29.2221" fill="black"/>
<path d="M31.0476 28.9001L33.4962 27.4824C34.1407 28.5351 34.9785 29.3083 36.4605 29.3083C37.7066 29.3083 38.5011 28.6853 38.5011 27.8261C38.5011 26.795 37.6849 26.4298 36.3101 25.8286L35.5585 25.5062C33.3889 24.5827 31.9497 23.4228 31.9497 20.9739C31.9497 18.7185 33.6681 17 36.3532 17C38.265 17 39.6397 17.666 40.6277 19.4059L38.2863 20.9094C37.7708 19.9859 37.2124 19.6207 36.3533 19.6207C35.4725 19.6207 34.914 20.1792 34.914 20.9094C34.914 21.8116 35.4725 22.1769 36.7612 22.7354L37.513 23.0576C40.0692 24.1532 41.5084 25.27 41.5084 27.7831C41.5084 30.4898 39.3819 31.9718 36.525 31.9718C33.7326 31.9718 31.9282 30.6401 31.0476 28.9001Z" fill="black"/>
</g>
</g>
<defs>
<clipPath id="clip0_66_53">
<rect width="32" height="32" fill="white" transform="translate(12 8)"/>
</clipPath>
<clipPath id="clip1_66_53">
<rect width="32" height="32" fill="white" transform="translate(12 8)"/>
</clipPath>
</defs>
</svg>
