<svg width="240" height="60" viewBox="0 0 180 48" fill="none" xmlns="http://www.w3.org/2000/svg">
<path d="M51.1797 18.4844H53.7031L58.2891 26.5234V18.4844H60.5312V30H58.125L53.4219 21.8203V30H51.1797V18.4844ZM66.2578 28.1719C66.7786 28.1719 67.2188 27.9766 67.5781 27.5859C67.9375 27.1901 68.1172 26.5625 68.1172 25.7031C68.1172 24.8958 67.9453 24.2812 67.6016 23.8594C67.263 23.4375 66.8073 23.2266 66.2344 23.2266C65.4531 23.2266 64.9141 23.5938 64.6172 24.3281C64.4609 24.7188 64.3828 25.2005 64.3828 25.7734C64.3828 26.2682 64.4661 26.7083 64.6328 27.0938C64.9349 27.8125 65.4766 28.1719 66.2578 28.1719ZM65.7031 21.2812C66.1302 21.2812 66.5026 21.3464 66.8203 21.4766C67.362 21.7005 67.7995 22.112 68.1328 22.7109V21.4844H70.2969V29.5625C70.2969 30.6615 70.112 31.4896 69.7422 32.0469C69.1068 33.0052 67.888 33.4844 66.0859 33.4844C64.9974 33.4844 64.1094 33.2708 63.4219 32.8438C62.7344 32.4167 62.3542 31.7786 62.2812 30.9297H64.7031C64.7656 31.1901 64.8672 31.3776 65.0078 31.4922C65.2474 31.6953 65.651 31.7969 66.2188 31.7969C67.0208 31.7969 67.5573 31.5286 67.8281 30.9922C68.0052 30.6484 68.0938 30.0703 68.0938 29.2578V28.7109C67.8802 29.0755 67.651 29.349 67.4062 29.5312C66.9635 29.8698 66.388 30.0391 65.6797 30.0391C64.5859 30.0391 63.7109 29.6562 63.0547 28.8906C62.4036 28.1198 62.0781 27.0781 62.0781 25.7656C62.0781 24.5 62.3932 23.4375 63.0234 22.5781C63.6536 21.7135 64.5469 21.2812 65.7031 21.2812ZM74.6719 20.4688H72.4141V18.4141H74.6719V20.4688ZM72.4141 21.4844H74.6719V30H72.4141V21.4844ZM81.5547 21.2812C82.4349 21.2812 83.1536 21.513 83.7109 21.9766C84.2734 22.4349 84.5547 23.1979 84.5547 24.2656V30H82.2734V24.8203C82.2734 24.3724 82.2135 24.0286 82.0938 23.7891C81.875 23.3516 81.4583 23.1328 80.8438 23.1328C80.0885 23.1328 79.5703 23.4531 79.2891 24.0938C79.1432 24.4323 79.0703 24.8646 79.0703 25.3906V30H76.8516V21.5H79V22.7422C79.2865 22.3047 79.5573 21.9896 79.8125 21.7969C80.2708 21.4531 80.8516 21.2812 81.5547 21.2812ZM85.7812 30L88.6875 25.6875L85.9062 21.5H88.6328L90.0547 23.9688L91.4453 21.5H94.0938L91.2969 25.6484L94.2031 30H91.4297L89.9609 27.4453L88.4844 30H85.7812Z" fill="#636161"/>
<path d="M26.6667 10L12.8067 18V34L26.6667 42L40.5267 34V18L26.6667 10ZM34.6667 32.12C34.6667 33.06 33.8053 33.84 32.628 33.84C31.7867 33.84 30.8267 33.5 30.2267 32.76L22.2267 23.2387V32.1187C22.2267 33.08 21.4667 33.8387 20.528 33.8387H20.4267C19.4653 33.8387 18.7067 33.0387 18.7067 32.1187V19.88C18.7067 18.94 19.5467 18.16 20.7067 18.16C21.568 18.16 22.5467 18.5 23.1467 19.24L31.1067 28.7613V19.88C31.1067 18.9187 31.9067 18.16 32.8267 18.16H32.9267C33.8867 18.16 34.6467 18.96 34.6467 19.88V32.12H34.6667Z" fill="#269539"/>
</svg>
