<svg width="240" height="60" viewBox="0 0 180 48" fill="none" xmlns="http://www.w3.org/2000/svg">
<path d="M53.1797 18.4844H55.7031L60.2891 26.5234V18.4844H62.5312V30H60.125L55.4219 21.8203V30H53.1797V18.4844ZM68.4219 28.4297C69.0729 28.4297 69.5729 28.1979 69.9219 27.7344C70.2708 27.2708 70.4453 26.612 70.4453 25.7578C70.4453 24.9036 70.2708 24.2474 69.9219 23.7891C69.5729 23.3255 69.0729 23.0938 68.4219 23.0938C67.7708 23.0938 67.2682 23.3255 66.9141 23.7891C66.5651 24.2474 66.3906 24.9036 66.3906 25.7578C66.3906 26.612 66.5651 27.2708 66.9141 27.7344C67.2682 28.1979 67.7708 28.4297 68.4219 28.4297ZM72.7812 25.7578C72.7812 27.0078 72.4219 28.0781 71.7031 28.9688C70.9844 29.8542 69.8932 30.2969 68.4297 30.2969C66.9661 30.2969 65.875 29.8542 65.1562 28.9688C64.4375 28.0781 64.0781 27.0078 64.0781 25.7578C64.0781 24.5286 64.4375 23.4635 65.1562 22.5625C65.875 21.6615 66.9661 21.2109 68.4297 21.2109C69.8932 21.2109 70.9844 21.6615 71.7031 22.5625C72.4219 23.4635 72.7812 24.5286 72.7812 25.7578ZM77.5234 21.2812C78.0391 21.2812 78.4974 21.3958 78.8984 21.625C79.2995 21.849 79.625 22.1615 79.875 22.5625V18.5H82.1328V30H79.9688V28.8203C79.651 29.3255 79.2891 29.6927 78.8828 29.9219C78.4766 30.151 77.9714 30.2656 77.3672 30.2656C76.3724 30.2656 75.5339 29.8646 74.8516 29.0625C74.1745 28.2552 73.8359 27.2214 73.8359 25.9609C73.8359 24.5078 74.1693 23.3646 74.8359 22.5312C75.5078 21.6979 76.4036 21.2812 77.5234 21.2812ZM78.0078 28.3906C78.638 28.3906 79.1172 28.1562 79.4453 27.6875C79.7734 27.2188 79.9375 26.612 79.9375 25.8672C79.9375 24.8255 79.6745 24.0807 79.1484 23.6328C78.8255 23.362 78.4505 23.2266 78.0234 23.2266C77.3724 23.2266 76.8932 23.474 76.5859 23.9688C76.2839 24.4583 76.1328 25.0677 76.1328 25.7969C76.1328 26.5833 76.2865 27.2135 76.5938 27.6875C76.9062 28.1562 77.3776 28.3906 78.0078 28.3906ZM87.5234 23.0938C87.0078 23.0938 86.6068 23.2552 86.3203 23.5781C86.0391 23.901 85.862 24.3385 85.7891 24.8906H89.25C89.2135 24.3021 89.0339 23.8568 88.7109 23.5547C88.3932 23.2474 87.9974 23.0938 87.5234 23.0938ZM87.5234 21.2578C88.2318 21.2578 88.8698 21.3906 89.4375 21.6562C90.0052 21.9219 90.474 22.3411 90.8438 22.9141C91.1771 23.4193 91.3932 24.0052 91.4922 24.6719C91.5495 25.0625 91.5729 25.625 91.5625 26.3594H85.7344C85.7656 27.2135 86.0339 27.8125 86.5391 28.1562C86.8464 28.3698 87.2161 28.4766 87.6484 28.4766C88.1068 28.4766 88.4792 28.3464 88.7656 28.0859C88.9219 27.9453 89.0599 27.75 89.1797 27.5H91.4531C91.3958 28.0052 91.1328 28.5182 90.6641 29.0391C89.9349 29.8672 88.9141 30.2812 87.6016 30.2812C86.5182 30.2812 85.5625 29.9323 84.7344 29.2344C83.9062 28.5365 83.4922 27.401 83.4922 25.8281C83.4922 24.3542 83.8646 23.224 84.6094 22.4375C85.3594 21.651 86.3307 21.2578 87.5234 21.2578ZM99.1094 25.6328V25.8984C99.1302 26.7891 99.2266 27.4167 99.3984 27.7812C99.5755 28.1406 99.9505 28.3203 100.523 28.3203C101.091 28.3203 101.466 28.1224 101.648 27.7266C101.758 27.4922 101.812 27.0964 101.812 26.5391V18.4844H104.219V26.5C104.219 27.4792 104.049 28.2552 103.711 28.8281C103.138 29.7969 102.104 30.2812 100.609 30.2812C99.1146 30.2812 98.112 29.8906 97.6016 29.1094C97.0911 28.3229 96.8359 27.2526 96.8359 25.8984V25.6328H99.1094ZM108.164 27.2812C108.211 27.6771 108.312 27.9583 108.469 28.125C108.745 28.4219 109.255 28.5703 110 28.5703C110.438 28.5703 110.784 28.5052 111.039 28.375C111.299 28.2448 111.43 28.0495 111.43 27.7891C111.43 27.5391 111.326 27.349 111.117 27.2188C110.909 27.0885 110.135 26.8646 108.797 26.5469C107.833 26.3073 107.154 26.0078 106.758 25.6484C106.362 25.2943 106.164 24.7839 106.164 24.1172C106.164 23.3307 106.471 22.6562 107.086 22.0938C107.706 21.526 108.576 21.2422 109.695 21.2422C110.758 21.2422 111.622 21.4557 112.289 21.8828C112.961 22.3047 113.346 23.0365 113.445 24.0781H111.219C111.188 23.7917 111.107 23.5651 110.977 23.3984C110.732 23.0964 110.315 22.9453 109.727 22.9453C109.242 22.9453 108.896 23.0208 108.688 23.1719C108.484 23.3229 108.383 23.5 108.383 23.7031C108.383 23.9583 108.492 24.1432 108.711 24.2578C108.93 24.3776 109.703 24.5833 111.031 24.875C111.917 25.0833 112.581 25.3984 113.023 25.8203C113.461 26.2474 113.68 26.7812 113.68 27.4219C113.68 28.2656 113.365 28.9557 112.734 29.4922C112.109 30.0234 111.141 30.2891 109.828 30.2891C108.49 30.2891 107.5 30.0078 106.859 29.4453C106.224 28.8776 105.906 28.1562 105.906 27.2812H108.164Z" fill="#636161"/>
<path d="M28 37.9996C27.6223 37.9998 27.2512 37.9004 26.924 37.7116L23.5 35.6846C22.989 35.3986 23.238 35.2976 23.407 35.2386C23.9505 35.0707 24.4708 34.8356 24.956 34.5386C24.9966 34.5198 25.0413 34.5117 25.086 34.515C25.1306 34.5184 25.1736 34.533 25.211 34.5576L27.842 36.1206C27.891 36.1465 27.9456 36.1601 28.001 36.1601C28.0564 36.1601 28.111 36.1465 28.16 36.1206L38.42 30.1986C38.468 30.1698 38.5077 30.1291 38.5352 30.0804C38.5628 30.0316 38.5772 29.9766 38.577 29.9206V18.0746C38.577 18.0178 38.5624 17.9618 38.5346 17.9123C38.5067 17.8627 38.4666 17.8212 38.418 17.7916L28.158 11.8746C28.1096 11.8474 28.055 11.833 27.9995 11.833C27.944 11.833 27.8894 11.8474 27.841 11.8746L17.587 17.7936C17.5381 17.8225 17.4975 17.8636 17.4691 17.9128C17.4407 17.9621 17.4255 18.0178 17.425 18.0746V29.9156C17.4251 29.9715 17.4401 30.0263 17.4684 30.0744C17.4967 30.1225 17.5373 30.1623 17.586 30.1896L20.4 31.8136C21.925 32.5756 22.859 31.6776 22.859 30.7756V19.0846C22.859 19.0452 22.8668 19.0062 22.8818 18.9698C22.8969 18.9334 22.919 18.9003 22.9469 18.8725C22.9747 18.8446 23.0078 18.8225 23.0442 18.8074C23.0806 18.7924 23.1196 18.7846 23.159 18.7846H24.459C24.5386 18.7846 24.6149 18.8162 24.6711 18.8725C24.7274 18.9287 24.759 19.005 24.759 19.0846V30.7766C24.759 32.8116 23.651 33.9766 21.721 33.9766C20.8884 33.9911 20.0688 33.7684 19.358 33.3346L16.661 31.7876C16.3336 31.5969 16.0619 31.3237 15.8731 30.9952C15.6843 30.6668 15.585 30.2945 15.585 29.9156V18.0746C15.584 17.6951 15.6829 17.3221 15.8718 16.993C16.0607 16.6638 16.3329 16.3902 16.661 16.1996L26.922 10.2756C27.2525 10.0948 27.6232 10 28 10C28.3768 10 28.7475 10.0948 29.078 10.2756L39.338 16.1996C39.6654 16.3899 39.9371 16.6627 40.1261 16.9909C40.3151 17.319 40.4147 17.6909 40.415 18.0696V29.9156C40.4144 30.2945 40.3147 30.6666 40.1258 30.995C39.9369 31.3234 39.6653 31.5967 39.338 31.7876L29.078 37.7116C28.7502 37.9007 28.3784 38.0001 28 37.9996Z" fill="#83CD29"/>
<path d="M26.054 25.9521C26.054 25.8726 26.0856 25.7963 26.1419 25.74C26.1981 25.6837 26.2744 25.6521 26.354 25.6521H27.681C27.7519 25.6524 27.8204 25.6777 27.8744 25.7237C27.9284 25.7696 27.9644 25.8332 27.976 25.9031C28.176 27.2541 28.776 27.9351 31.489 27.9351C33.65 27.9351 34.571 27.4461 34.571 26.2991C34.571 25.6381 34.31 25.1471 30.951 24.8181C28.143 24.5401 26.407 23.9181 26.407 21.6741C26.407 19.6041 28.152 18.3691 31.077 18.3691C34.364 18.3691 35.991 19.5101 36.197 21.9581C36.2001 21.999 36.1949 22.0401 36.1815 22.0788C36.1682 22.1176 36.147 22.1532 36.1194 22.1835C36.0917 22.2137 36.0582 22.238 36.0208 22.2548C35.9834 22.2716 35.943 22.2806 35.902 22.2811H34.566C34.499 22.2802 34.4342 22.2568 34.382 22.2148C34.3298 22.1727 34.2932 22.1144 34.278 22.0491C33.959 20.6281 33.178 20.1741 31.078 20.1741C28.718 20.1741 28.444 20.9961 28.444 21.6121C28.444 22.3581 28.768 22.5761 31.954 22.9971C35.107 23.4141 36.605 24.0041 36.605 26.2201C36.605 28.4561 34.741 29.7361 31.49 29.7361C26.995 29.7421 26.054 27.6811 26.054 25.9521Z" fill="#83CD29"/>
</svg>
