<svg width="240" height="60" viewBox="0 0 180 48" fill="none" xmlns="http://www.w3.org/2000/svg">
<path d="M56.625 20.4844V23.5781H59.3516C59.8932 23.5781 60.2995 23.5156 60.5703 23.3906C61.0495 23.1719 61.2891 22.7396 61.2891 22.0938C61.2891 21.3958 61.0573 20.9271 60.5938 20.6875C60.3333 20.5521 59.9427 20.4844 59.4219 20.4844H56.625ZM59.9219 18.4844C60.7292 18.5 61.349 18.599 61.7812 18.7812C62.2188 18.9635 62.5885 19.2318 62.8906 19.5859C63.1406 19.8776 63.3385 20.2005 63.4844 20.5547C63.6302 20.9089 63.7031 21.3125 63.7031 21.7656C63.7031 22.3125 63.5651 22.8516 63.2891 23.3828C63.013 23.9089 62.5573 24.2812 61.9219 24.5C62.4531 24.7135 62.8281 25.0182 63.0469 25.4141C63.2708 25.8047 63.3828 26.4036 63.3828 27.2109V27.9844C63.3828 28.5104 63.4036 28.8672 63.4453 29.0547C63.5078 29.3516 63.6536 29.5703 63.8828 29.7109V30H61.2344C61.1615 29.7448 61.1094 29.5391 61.0781 29.3828C61.0156 29.0599 60.9818 28.7292 60.9766 28.3906L60.9609 27.3203C60.9505 26.5859 60.8151 26.0964 60.5547 25.8516C60.2995 25.6068 59.8177 25.4844 59.1094 25.4844H56.625V30H54.2734V18.4844H59.9219ZM68.9609 23.0938C68.4453 23.0938 68.0443 23.2552 67.7578 23.5781C67.4766 23.901 67.2995 24.3385 67.2266 24.8906H70.6875C70.651 24.3021 70.4714 23.8568 70.1484 23.5547C69.8307 23.2474 69.4349 23.0938 68.9609 23.0938ZM68.9609 21.2578C69.6693 21.2578 70.3073 21.3906 70.875 21.6562C71.4427 21.9219 71.9115 22.3411 72.2812 22.9141C72.6146 23.4193 72.8307 24.0052 72.9297 24.6719C72.987 25.0625 73.0104 25.625 73 26.3594H67.1719C67.2031 27.2135 67.4714 27.8125 67.9766 28.1562C68.2839 28.3698 68.6536 28.4766 69.0859 28.4766C69.5443 28.4766 69.9167 28.3464 70.2031 28.0859C70.3594 27.9453 70.4974 27.75 70.6172 27.5H72.8906C72.8333 28.0052 72.5703 28.5182 72.1016 29.0391C71.3724 29.8672 70.3516 30.2812 69.0391 30.2812C67.9557 30.2812 67 29.9323 66.1719 29.2344C65.3438 28.5365 64.9297 27.401 64.9297 25.8281C64.9297 24.3542 65.3021 23.224 66.0469 22.4375C66.7969 21.651 67.7682 21.2578 68.9609 21.2578ZM79.2031 25.8594C79.0625 25.9479 78.9193 26.0208 78.7734 26.0781C78.6328 26.1302 78.4375 26.1797 78.1875 26.2266L77.6875 26.3203C77.2188 26.4036 76.8828 26.5052 76.6797 26.625C76.3359 26.8281 76.1641 27.1432 76.1641 27.5703C76.1641 27.9505 76.2682 28.2266 76.4766 28.3984C76.6901 28.5651 76.9479 28.6484 77.25 28.6484C77.7292 28.6484 78.1693 28.5078 78.5703 28.2266C78.9766 27.9453 79.1875 27.4323 79.2031 26.6875V25.8594ZM77.8516 24.8203C78.263 24.7682 78.5573 24.7031 78.7344 24.625C79.0521 24.4896 79.2109 24.2786 79.2109 23.9922C79.2109 23.6432 79.0885 23.4036 78.8438 23.2734C78.6042 23.138 78.25 23.0703 77.7812 23.0703C77.2552 23.0703 76.8828 23.2005 76.6641 23.4609C76.5078 23.6536 76.4036 23.9141 76.3516 24.2422H74.2031C74.25 23.4974 74.4583 22.8854 74.8281 22.4062C75.4167 21.6562 76.4271 21.2812 77.8594 21.2812C78.7917 21.2812 79.6198 21.4661 80.3438 21.8359C81.0677 22.2057 81.4297 22.9036 81.4297 23.9297V27.8359C81.4297 28.1068 81.4349 28.4349 81.4453 28.8203C81.4609 29.112 81.5052 29.3099 81.5781 29.4141C81.651 29.5182 81.7604 29.6042 81.9062 29.6719V30H79.4844C79.4167 29.8281 79.3698 29.6667 79.3438 29.5156C79.3177 29.3646 79.2969 29.1927 79.2812 29C78.974 29.3333 78.6198 29.6172 78.2188 29.8516C77.7396 30.1276 77.1979 30.2656 76.5938 30.2656C75.8229 30.2656 75.1849 30.0469 74.6797 29.6094C74.1797 29.1667 73.9297 28.5417 73.9297 27.7344C73.9297 26.6875 74.3333 25.9297 75.1406 25.4609C75.5833 25.2057 76.2344 25.0234 77.0938 24.9141L77.8516 24.8203ZM88.5 24.5391C88.4583 24.2214 88.3516 23.9349 88.1797 23.6797C87.9297 23.3359 87.5417 23.1641 87.0156 23.1641C86.2656 23.1641 85.7526 23.5365 85.4766 24.2812C85.3307 24.6771 85.2578 25.2031 85.2578 25.8594C85.2578 26.4844 85.3307 26.987 85.4766 27.3672C85.7422 28.0755 86.2422 28.4297 86.9766 28.4297C87.4974 28.4297 87.8672 28.2891 88.0859 28.0078C88.3047 27.7266 88.4375 27.362 88.4844 26.9141H90.7578C90.7057 27.5911 90.4609 28.2318 90.0234 28.8359C89.3255 29.8099 88.2917 30.2969 86.9219 30.2969C85.5521 30.2969 84.5443 29.8906 83.8984 29.0781C83.2526 28.2656 82.9297 27.2109 82.9297 25.9141C82.9297 24.4505 83.2865 23.3125 84 22.5C84.7135 21.6875 85.6979 21.2812 86.9531 21.2812C88.0208 21.2812 88.8932 21.5208 89.5703 22C90.2526 22.4792 90.6562 23.3255 90.7812 24.5391H88.5ZM91.4453 23.1484V21.5625H92.6328V19.1875H94.8359V21.5625H96.2188V23.1484H94.8359V27.6484C94.8359 27.9974 94.8802 28.2161 94.9688 28.3047C95.0573 28.388 95.3281 28.4297 95.7812 28.4297C95.849 28.4297 95.9193 28.4297 95.9922 28.4297C96.0703 28.4245 96.1458 28.4193 96.2188 28.4141V30.0781L95.1641 30.1172C94.112 30.1536 93.3932 29.9714 93.0078 29.5703C92.7578 29.3151 92.6328 28.9219 92.6328 28.3906V23.1484H91.4453ZM103.688 25.6328V25.8984C103.708 26.7891 103.805 27.4167 103.977 27.7812C104.154 28.1406 104.529 28.3203 105.102 28.3203C105.669 28.3203 106.044 28.1224 106.227 27.7266C106.336 27.4922 106.391 27.0964 106.391 26.5391V18.4844H108.797V26.5C108.797 27.4792 108.628 28.2552 108.289 28.8281C107.716 29.7969 106.682 30.2812 105.188 30.2812C103.693 30.2812 102.69 29.8906 102.18 29.1094C101.669 28.3229 101.414 27.2526 101.414 25.8984V25.6328H103.688ZM112.742 27.2812C112.789 27.6771 112.891 27.9583 113.047 28.125C113.323 28.4219 113.833 28.5703 114.578 28.5703C115.016 28.5703 115.362 28.5052 115.617 28.375C115.878 28.2448 116.008 28.0495 116.008 27.7891C116.008 27.5391 115.904 27.349 115.695 27.2188C115.487 27.0885 114.714 26.8646 113.375 26.5469C112.411 26.3073 111.732 26.0078 111.336 25.6484C110.94 25.2943 110.742 24.7839 110.742 24.1172C110.742 23.3307 111.049 22.6562 111.664 22.0938C112.284 21.526 113.154 21.2422 114.273 21.2422C115.336 21.2422 116.201 21.4557 116.867 21.8828C117.539 22.3047 117.924 23.0365 118.023 24.0781H115.797C115.766 23.7917 115.685 23.5651 115.555 23.3984C115.31 23.0964 114.893 22.9453 114.305 22.9453C113.82 22.9453 113.474 23.0208 113.266 23.1719C113.062 23.3229 112.961 23.5 112.961 23.7031C112.961 23.9583 113.07 24.1432 113.289 24.2578C113.508 24.3776 114.281 24.5833 115.609 24.875C116.495 25.0833 117.159 25.3984 117.602 25.8203C118.039 26.2474 118.258 26.7812 118.258 27.4219C118.258 28.2656 117.943 28.9557 117.312 29.4922C116.688 30.0234 115.719 30.2891 114.406 30.2891C113.068 30.2891 112.078 30.0078 111.438 29.4453C110.802 28.8776 110.484 28.1562 110.484 27.2812H112.742Z" fill="#636161"/>
<g clip-path="url(#clip0_66_46)">
<path d="M38.6151 19.3348C38.2793 19.2192 37.9313 19.1099 37.573 19.0064C37.6319 18.7661 37.686 18.5289 37.734 18.2957C38.5228 14.4667 38.0071 11.3821 36.2459 10.3665C34.5572 9.39269 31.7955 10.4081 29.0063 12.8354C28.7381 13.0688 28.4691 13.316 28.2002 13.575C28.0211 13.4036 27.8423 13.238 27.6639 13.0796C24.7407 10.4841 21.8106 9.39032 20.0512 10.4089C18.3641 11.3855 17.8645 14.2854 18.5746 17.9141C18.6431 18.2646 18.7233 18.6225 18.8139 18.9864C18.3992 19.1042 17.9989 19.2297 17.6158 19.3632C14.1887 20.558 12 22.4306 12 24.373C12 26.3791 14.3496 28.3913 17.9192 29.6114C18.2009 29.7077 18.4932 29.7987 18.7944 29.8852C18.6967 30.2787 18.6116 30.6645 18.5402 31.0406C17.8632 34.6064 18.3919 37.4377 20.0745 38.4082C21.8125 39.4105 24.7293 38.3803 27.5695 35.8976C27.794 35.7013 28.0193 35.4932 28.245 35.2751C28.5375 35.5568 28.8296 35.8234 29.1201 36.0734C31.8712 38.4408 34.5883 39.3968 36.2693 38.4236C38.0056 37.4185 38.5698 34.377 37.8373 30.6764C37.7813 30.3938 37.7162 30.1051 37.6431 29.8112C37.8479 29.7507 38.049 29.6882 38.2451 29.6232C41.9561 28.3936 44.3705 26.4059 44.3705 24.373C44.3705 22.4236 42.1112 20.5384 38.6151 19.3348ZM37.8102 28.3105C37.6332 28.3691 37.4516 28.4258 37.2665 28.4807C36.8568 27.1837 36.3039 25.8046 35.6273 24.3798C36.273 22.9888 36.8045 21.6274 37.2027 20.3388C37.5338 20.4346 37.8552 20.5357 38.1649 20.6424C41.1604 21.6736 42.9877 23.1982 42.9877 24.373C42.9877 25.6244 41.0143 27.2488 37.8102 28.3105ZM36.4807 30.945C36.8046 32.5813 36.8509 34.0608 36.6363 35.2173C36.4435 36.2565 36.0558 36.9494 35.5764 37.2269C34.5563 37.8173 32.3747 37.0498 30.0219 35.0252C29.7522 34.7931 29.4805 34.5453 29.208 34.283C30.1201 33.2854 31.0317 32.1257 31.9214 30.8378C33.4863 30.6989 34.9647 30.4719 36.3055 30.162C36.3715 30.4283 36.4302 30.6896 36.4807 30.945ZM23.0358 37.1248C22.0391 37.4768 21.2453 37.4869 20.7655 37.2102C19.7444 36.6213 19.3199 34.348 19.8989 31.2985C19.9653 30.9493 20.0442 30.5906 20.1352 30.2239C21.4612 30.5171 22.9288 30.7281 24.4975 30.8553C25.3932 32.1156 26.3311 33.274 27.2763 34.2883C27.0698 34.4877 26.8641 34.6775 26.6595 34.8564C25.4036 35.9542 24.145 36.7331 23.0358 37.1248ZM18.3664 28.3029C16.788 27.7634 15.4845 27.0622 14.591 26.2971C13.7882 25.6095 13.3828 24.9269 13.3828 24.373C13.3828 23.1943 15.1401 21.6909 18.071 20.669C18.4267 20.545 18.7989 20.4281 19.1853 20.3184C19.5903 21.636 20.1217 23.0136 20.7629 24.4067C20.1134 25.8204 19.5745 27.22 19.1655 28.5531C18.89 28.4739 18.6232 28.3906 18.3664 28.3029ZM19.9317 17.6485C19.3233 14.5395 19.7274 12.1942 20.744 11.6057C21.827 10.9787 24.2217 11.8726 26.7456 14.1137C26.907 14.2569 27.069 14.4069 27.2314 14.562C26.2909 15.5719 25.3615 16.7216 24.4738 17.9745C22.9514 18.1156 21.4941 18.3423 20.1542 18.6458C20.07 18.3069 19.9953 17.974 19.9317 17.6485ZM33.8949 21.0964C33.5745 20.5431 33.2457 20.003 32.9105 19.4775C33.9433 19.6081 34.9329 19.7814 35.8621 19.9935C35.5832 20.8876 35.2354 21.8225 34.8261 22.7809C34.5325 22.2234 34.2219 21.6613 33.8949 21.0964ZM28.2007 15.5503C28.8385 16.2413 29.4773 17.0128 30.1056 17.8499C29.4725 17.82 28.8315 17.8044 28.1853 17.8044C27.5451 17.8044 26.9089 17.8197 26.2797 17.849C26.9086 17.0197 27.5529 16.2492 28.2007 15.5503ZM22.4701 21.106C22.1501 21.6608 21.8453 22.2198 21.5563 22.7799C21.1536 21.8248 20.8091 20.8857 20.5277 19.9789C21.4513 19.7722 22.4361 19.6032 23.4624 19.4751C23.1224 20.0054 22.7909 20.5496 22.4701 21.106ZM23.492 29.3696C22.4317 29.2513 21.432 29.091 20.5086 28.89C20.7945 27.967 21.1466 27.0078 21.5579 26.0322C21.8476 26.5919 22.1536 27.1511 22.4756 27.7071C22.8035 28.2736 23.1432 28.8285 23.492 29.3696ZM28.239 33.2933C27.5835 32.5861 26.9298 31.8039 26.2913 30.9625C26.9111 30.9868 27.543 30.9992 28.1853 30.9992C28.8451 30.9992 29.4973 30.9844 30.1393 30.9558C29.5089 31.8123 28.8725 32.5958 28.239 33.2933ZM34.8393 25.9825C35.272 26.9686 35.6367 27.9228 35.9263 28.8301C34.9877 29.0442 33.9744 29.2167 32.9067 29.3448C33.2427 28.8123 33.5744 28.2628 33.9004 27.6976C34.2301 27.1258 34.5432 26.5532 34.8393 25.9825ZM32.7025 27.0068C32.1965 27.8842 31.677 28.7217 31.1497 29.5123C30.1891 29.581 29.1967 29.6164 28.1853 29.6164C27.1779 29.6164 26.198 29.5851 25.2545 29.5238C24.7058 28.7229 24.175 27.8828 23.6722 27.0143C23.1708 26.1482 22.7094 25.2748 22.2912 24.4062C22.7093 23.5356 23.1696 22.6612 23.6682 21.7966L23.668 21.7968C24.1679 20.9299 24.6941 20.094 25.2376 19.298C26.2003 19.2253 27.1875 19.1873 28.1852 19.1873C29.1874 19.1873 30.1759 19.2256 31.1383 19.299C31.6736 20.0891 32.1961 20.9223 32.698 21.7893C33.2056 22.6661 33.6718 23.5347 34.0935 24.3866C33.6731 25.2531 33.2079 26.1305 32.7025 27.0068ZM35.5552 11.5645C36.6392 12.1896 37.0607 14.7107 36.3797 18.0166C36.3362 18.2275 36.2873 18.4424 36.2342 18.6601C34.8912 18.3503 33.4329 18.1197 31.906 17.9764C31.0165 16.7098 30.0948 15.5583 29.1696 14.5614C29.4184 14.3221 29.6668 14.0939 29.9141 13.8786C32.3039 11.7988 34.5375 10.9777 35.5552 11.5645ZM28.1853 21.4824C29.7817 21.4824 31.0758 22.7766 31.0758 24.373C31.0758 25.9694 29.7817 27.2636 28.1853 27.2636C26.5889 27.2636 25.2947 25.9694 25.2947 24.373C25.2947 22.7766 26.5889 21.4824 28.1853 21.4824Z" fill="#00D8FF"/>
</g>
<defs>
<clipPath id="clip0_66_46">
<rect width="32.3705" height="28.83" fill="white" transform="translate(12 10)"/>
</clipPath>
</defs>
</svg>
