<svg width="240" height="60" viewBox="0 0 110 48" fill="none" xmlns="http://www.w3.org/2000/svg">
<path d="M54.9609 26.4453C55.0339 26.9714 55.1771 27.3646 55.3906 27.625C55.7812 28.099 56.4505 28.3359 57.3984 28.3359C57.9661 28.3359 58.4271 28.2734 58.7812 28.1484C59.4531 27.9089 59.7891 27.4635 59.7891 26.8125C59.7891 26.4323 59.6224 26.138 59.2891 25.9297C58.9557 25.7266 58.4323 25.5469 57.7188 25.3906L56.5 25.1172C55.3021 24.8464 54.474 24.5521 54.0156 24.2344C53.2396 23.7031 52.8516 22.8724 52.8516 21.7422C52.8516 20.7109 53.2266 19.8542 53.9766 19.1719C54.7266 18.4896 55.8281 18.1484 57.2812 18.1484C58.4948 18.1484 59.5286 18.4714 60.3828 19.1172C61.2422 19.7578 61.6927 20.6901 61.7344 21.9141H59.4219C59.3802 21.2214 59.0781 20.7292 58.5156 20.4375C58.1406 20.2448 57.6745 20.1484 57.1172 20.1484C56.4974 20.1484 56.0026 20.2734 55.6328 20.5234C55.263 20.7734 55.0781 21.1224 55.0781 21.5703C55.0781 21.9818 55.2604 22.2891 55.625 22.4922C55.8594 22.6276 56.3594 22.7865 57.125 22.9688L59.1094 23.4453C59.9792 23.6536 60.6354 23.9323 61.0781 24.2812C61.7656 24.8229 62.1094 25.6068 62.1094 26.6328C62.1094 27.6849 61.7057 28.5599 60.8984 29.2578C60.0964 29.9505 58.9609 30.2969 57.4922 30.2969C55.9922 30.2969 54.8125 29.9557 53.9531 29.2734C53.0938 28.5859 52.6641 27.6432 52.6641 26.4453H54.9609ZM68.9609 28.2812C69.237 28.2812 69.5026 28.2474 69.7578 28.1797C69.8984 28.1432 70.0781 28.0781 70.2969 27.9844L69.1328 26.875L70.375 25.5781L71.5391 26.6875C71.7214 26.3125 71.849 25.9844 71.9219 25.7031C72.0365 25.2812 72.0938 24.7891 72.0938 24.2266C72.0938 22.9349 71.8281 21.9375 71.2969 21.2344C70.7708 20.526 70 20.1719 68.9844 20.1719C68.0312 20.1719 67.2708 20.5104 66.7031 21.1875C66.1354 21.8646 65.8516 22.8776 65.8516 24.2266C65.8516 25.8047 66.2578 26.9349 67.0703 27.6172C67.5964 28.0599 68.2266 28.2812 68.9609 28.2812ZM74.5 24.0547C74.5 25.0807 74.375 25.9401 74.125 26.6328C73.9219 27.2943 73.6224 27.8438 73.2266 28.2812L74.5547 29.5234L73.2969 30.8359L71.9062 29.5234C71.4844 29.7786 71.1198 29.9583 70.8125 30.0625C70.2969 30.2344 69.6797 30.3203 68.9609 30.3203C67.4609 30.3203 66.2214 29.8724 65.2422 28.9766C64.0547 27.8984 63.4609 26.3151 63.4609 24.2266C63.4609 22.1224 64.0703 20.5312 65.2891 19.4531C66.2839 18.5729 67.5208 18.1328 69 18.1328C70.4896 18.1328 71.7396 18.599 72.75 19.5312C73.9167 20.6094 74.5 22.1172 74.5 24.0547ZM76.3438 18.4844H78.75V27.9297H84.4531V30H76.3438V18.4844Z" fill="#636161"/>
<path d="M20.562 23.2552C22.95 24.0946 25.4693 24.4987 28 24.4482C30.5308 24.4983 33.05 24.0939 35.438 23.2542C37.302 22.5272 37.963 21.7192 37.963 21.2542V17.6992C37.3113 18.1356 36.6122 18.4966 35.879 18.7752C33.3524 19.6799 30.6833 20.121 28 20.0772C25.3169 20.1202 22.648 19.6798 20.121 18.7772C19.3875 18.4986 18.6882 18.1369 18.037 17.6992V21.2492C18.037 21.7232 18.7 22.5272 20.562 23.2552Z" fill="#FFDA44"/>
<path d="M20.562 29.9604C21.4056 30.2821 22.2755 30.5301 23.162 30.7014C24.756 31.0098 26.3764 31.1615 28 31.1544C29.6235 31.1618 31.2439 31.0104 32.838 30.7024C33.7244 30.531 34.5944 30.2831 35.438 29.9614C37.302 29.2344 37.963 28.4264 37.963 27.9614V24.5714C37.4243 24.8956 36.8581 25.1716 36.271 25.3964C33.6168 26.3362 30.8152 26.7911 28 26.7394C25.1845 26.7895 22.3829 26.3329 19.729 25.3914C19.1421 25.166 18.576 24.89 18.037 24.5664V27.9594C18.037 28.4254 18.7 29.2304 20.562 29.9604Z" fill="#FFDA44"/>
<path d="M28 38.0005C33.5 38.0005 37.963 36.2565 37.963 34.1065V31.2695C37.4729 31.5649 36.9596 31.8198 36.428 32.0315L36.271 32.0945C33.6173 33.0371 30.8157 33.4947 28 33.4455C25.1842 33.4961 22.3823 33.0385 19.729 32.0945C19.675 32.0745 19.623 32.0515 19.572 32.0315C19.0404 31.8198 18.527 31.5649 18.037 31.2695V34.1065C18.037 36.2565 22.5 38.0005 28 38.0005Z" fill="#FFDA44"/>
<path d="M28 17.788C33.5024 17.788 37.963 16.0446 37.963 13.894C37.963 11.7434 33.5024 10 28 10C22.4976 10 18.037 11.7434 18.037 13.894C18.037 16.0446 22.4976 17.788 28 17.788Z" fill="#FFDA44"/>
</svg>
