<?xml version="1.0" encoding="utf-8" ?>
<svg xmlns="http://www.w3.org/2000/svg" xmlns:xlink="http://www.w3.org/1999/xlink" width="100" height="100">
	<defs>
		<linearGradient id="gradient_0" gradientUnits="userSpaceOnUse" x1="170.89757" y1="381.28381" x2="306.20096" y2="379.92712">
			<stop offset="0" stop-color="#FBA564"/>
			<stop offset="1" stop-color="#DA6BAD"/>
		</linearGradient>
	</defs>
	<path fill="url(#gradient_0)" transform="scale(0.195312 0.195312)" d="M185.409 396.283C156.794 396.491 176.446 382.215 183.913 367.973C185.633 364.691 186.189 360.525 187.298 356.974C199.347 318.382 242.016 290.006 280.107 311.523C282.292 312.757 284.801 314.207 286.548 316.024C300.595 325.236 314.818 345.66 318.114 361.749C321.399 377.784 317.608 396.031 308.224 409.477C307.098 411.801 304.699 413.274 304.036 415.963C301.364 426.809 308.181 448.662 301.308 456.202C286.171 457.699 263.732 456.192 247.768 456.205L228.243 456.217C214.616 456.221 213.462 458.577 213.472 443.648L213.499 429.254C205.713 429.21 195.746 431.032 189.736 424.905C183.822 418.876 185.238 404.632 185.409 396.283ZM223.283 446.514L294.116 446.514L294.098 426.5C294.096 419.256 292.212 412.956 298.144 407.758C319.251 374.733 310.253 348.289 281.274 323.665C248.345 300.273 205.973 322.916 196.642 360.104C192.673 375.922 191.17 373.681 183.163 387.136C185.913 387.128 191.566 386.486 193.685 388.591C197.008 391.891 192.759 413.25 196.273 417.937C198.667 421.131 215.127 418.471 219.791 419.379C224.893 420.372 223.308 427.67 223.296 431.497L223.283 446.514Z"/>
	<defs>
		<linearGradient id="gradient_1" gradientUnits="userSpaceOnUse" x1="222.89305" y1="375.06992" x2="280.1532" y2="383.87949">
			<stop offset="0" stop-color="#F4905F"/>
			<stop offset="1" stop-color="#EA7887"/>
		</linearGradient>
	</defs>
	<path fill="url(#gradient_1)" transform="scale(0.195312 0.195312)" d="M241.19 351.278C246.022 351.205 261.21 350.1 264.46 353.041C266.725 355.09 265.867 361.935 265.959 364.794C272.735 364.776 279.412 362.776 279.845 371.56C280.192 378.615 281.843 389.683 277.011 394.978C273.352 395.175 269.625 395.011 265.959 394.978C265.9 400.185 267.49 404.992 262 407.758C259.108 408.069 244.06 408.101 241.564 407.648C235.399 406.529 236.587 399.741 236.688 394.978C229.343 394.602 223.599 397.13 223.283 387.462C222.693 369.453 219.06 364.591 236.688 364.794C236.785 361.484 236.508 358.18 236.688 354.868C237.862 352.941 239.043 351.971 241.19 351.278ZM246.333 360.869C246.269 374.262 245.615 374.534 232.987 374.464L232.987 385.15C244.073 385.152 246.535 386.104 246.333 397.757L253.921 397.757C262.455 397.819 246.078 384.093 270.084 385.15L270.084 374.464C257.729 374.52 256.048 373.338 256.214 360.869L249.184 360.869L246.333 360.869Z"/>
	<path fill="#C26ACC" transform="scale(0.195312 0.195312)" d="M286.548 316.024C300.595 325.236 314.818 345.66 318.114 361.749C321.399 377.784 317.608 396.031 308.224 409.477C307.952 409.251 308.122 409.332 307.689 409.3L307.212 410.007C304.303 410.152 301 407.118 298.144 407.758C319.251 374.733 310.253 348.289 281.274 323.665C282.799 323.458 283.409 325.24 284.789 325.633C287.044 324.714 286.347 320.185 288.784 318.668C288.359 317.63 287.063 317.164 286.548 316.024Z"/>
	<defs>
		<linearGradient id="gradient_2" gradientUnits="userSpaceOnUse" x1="52.35207" y1="114.61694" x2="269.0545" y2="224.07817">
			<stop offset="0" stop-color="#FCB847"/>
			<stop offset="1" stop-color="#EB9881"/>
		</linearGradient>
	</defs>
	<path fill="url(#gradient_2)" transform="scale(0.195312 0.195312)" d="M192.754 296.508C192.786 293.741 192.758 290.978 192.601 288.215C191.875 275.403 192.156 275.642 205.228 275.772C223.019 275.949 240.808 273.374 243.217 251.028C243.593 247.54 243.444 243.953 243.438 240.448L243.422 98.8258C243.424 94.4851 243.533 90.1142 243.012 85.7971C241.818 75.9082 232.094 65.7324 222.048 64.3278C214.208 63.2316 205.023 63.8469 197.041 63.8459L117.552 63.846C112.276 63.8451 106.141 63.301 100.963 63.992C80.7645 66.6878 77.8805 83.6308 77.8801 99.838L77.8916 157.357C77.8905 160.724 78.6547 168.366 76.5319 170.959C72.922 175.371 68.2862 170.983 68.2294 165.157L68.2331 100.471C68.2242 94.1485 67.8563 87.7445 69.4349 81.5642C75.5596 57.5858 94.5684 53.9768 115.183 54.0054L204.317 53.9927C240.337 53.983 252.943 64.6292 252.925 101.088L252.915 199.28L252.915 208.855C252.648 229.731 257.866 258.965 242.337 274.321C230.054 286.467 218.148 285.657 202.105 285.618C202.104 289.23 202.744 306.234 201.479 308.185C197.018 315.065 186.278 303.971 182.599 301.088C176.026 295.938 169.234 290.411 162.418 285.618C157.632 285.367 152.718 285.605 147.915 285.606L118.629 285.62C112.164 285.628 105.331 286.211 98.9814 284.851C81.4341 281.093 69.3954 265.734 68.3452 248C68.0695 243.345 68.233 238.613 68.2333 233.95L68.2278 198.498C68.2 195.005 67.275 185.437 72.7611 185.399C80.2114 185.347 77.9089 196.701 77.9036 201.308L77.8812 229.976C77.865 247.926 76.85 269.238 99.5579 274.906C111.02 277.767 151.545 275.574 165.325 275.794C174.591 281.171 183.071 292.115 192.754 296.508Z"/>
	<path fill="#7276ED" transform="scale(0.195312 0.195312)" d="M307.107 83.4815C311.464 80.8844 318.923 82.193 323.928 82.1993L387.631 82.2134C396.062 82.2057 408.601 81.3482 416.395 83.3614C437.83 88.8981 442.815 106.141 442.8 125.186L442.802 164.794C442.831 167.984 443.119 171.208 442.997 174.392C442.344 191.303 428.428 206.568 411.569 208.572C405.707 209.269 399.435 208.863 393.523 208.862L252.915 208.855L252.915 199.28L391.638 199.281C407.841 199.306 427.149 200.017 432.343 179.364C433.986 172.829 433.274 165.195 433.276 158.478L433.271 131.078C433.247 95.2535 424.545 91.9853 390.214 92.0245L319.85 92.0434C316.011 92.0499 312.003 92.2922 308.224 91.539C305.391 89.0473 304.956 86.6238 307.107 83.4815Z"/>
	<defs>
		<linearGradient id="gradient_3" gradientUnits="userSpaceOnUse" x1="127.18172" y1="108.57334" x2="189.6283" y2="128.78336">
			<stop offset="0" stop-color="#FAB54C"/>
			<stop offset="1" stop-color="#F19F68"/>
		</linearGradient>
	</defs>
	<path fill="url(#gradient_3)" transform="scale(0.195312 0.195312)" d="M157.817 82.2194C179.075 80.8023 195.603 99.8954 192.635 120.555C191.136 130.983 183.507 138.547 175.435 144.55C174.963 146.156 174.524 147.826 173.851 149.36C168.107 162.456 150.544 159.167 145.662 145.982C141.968 125.565 169.858 119.652 161.998 112.804C157.492 108.877 152.812 117.212 149.864 119.598C141.56 126.319 127.918 120.276 127.417 109.46C126.757 95.2308 144.293 82.7275 157.817 82.2194ZM159.849 133.083C152.813 139.165 152.129 148.333 162.418 147.737C166.613 144.965 165.223 142.219 167.791 139.027C173.105 132.421 181.151 129.122 183.026 119.802C186.057 104.734 171.667 88.2964 156.134 92.0309C138.672 93.8767 131.388 114.772 142.309 112.707C147.474 111.73 149.068 101.607 159.161 101.644C165.917 101.668 171.808 106.66 173.105 113.279C174.478 120.29 165.202 128.583 159.849 133.083Z"/>
	<path fill="#7276ED" transform="scale(0.195312 0.195312)" d="M291.672 231.655Q292.326 231.611 292.982 231.6Q293.638 231.588 294.294 231.608Q294.949 231.629 295.603 231.681Q296.257 231.734 296.907 231.818Q297.558 231.903 298.203 232.019Q298.849 232.135 299.488 232.283Q300.127 232.431 300.758 232.61Q301.389 232.789 302.011 232.998Q302.632 233.208 303.243 233.448Q303.853 233.687 304.451 233.957Q305.049 234.226 305.633 234.525Q306.218 234.823 306.786 235.15Q307.355 235.476 307.907 235.83Q308.459 236.185 308.994 236.565Q309.528 236.946 310.042 237.352Q310.557 237.759 311.052 238.19Q311.546 238.621 312.018 239.076Q312.491 239.531 312.941 240.008Q313.39 240.486 313.816 240.985Q314.242 241.484 314.643 242.003Q315.044 242.522 315.419 243.06Q315.794 243.599 316.142 244.155Q316.49 244.71 316.81 245.283Q317.131 245.855 317.423 246.442Q317.715 247.03 317.978 247.631Q318.24 248.232 318.474 248.845Q318.707 249.458 318.91 250.082Q319.112 250.705 319.284 251.338Q319.456 251.971 319.597 252.612Q319.738 253.252 319.847 253.899Q319.957 254.546 320.034 255.197Q320.112 255.849 320.157 256.503Q320.202 257.157 320.216 257.813Q320.229 258.469 320.21 259.125Q320.191 259.78 320.141 260.434Q320.09 261.088 320.007 261.739Q319.924 262.389 319.809 263.035Q319.695 263.681 319.548 264.32Q319.402 264.96 319.225 265.591Q319.048 266.223 318.84 266.845Q318.632 267.467 318.393 268.078Q318.155 268.689 317.887 269.288Q317.619 269.886 317.322 270.471Q317.026 271.056 316.7 271.626Q316.375 272.195 316.022 272.748Q315.67 273.301 315.29 273.836Q314.911 274.372 314.506 274.887Q314.101 275.403 313.671 275.899Q313.241 276.394 312.787 276.868Q312.333 277.341 311.857 277.792Q311.381 278.243 310.883 278.67Q310.385 279.097 309.867 279.499Q309.349 279.901 308.811 280.278Q308.274 280.654 307.719 281.003Q307.164 281.353 306.593 281.675Q306.021 281.997 305.435 282.29Q304.848 282.584 304.248 282.848Q303.647 283.113 303.035 283.347Q302.422 283.582 301.799 283.786Q301.176 283.991 300.543 284.164Q299.911 284.338 299.271 284.48Q298.63 284.623 297.984 284.734Q297.337 284.845 296.686 284.924Q296.035 285.003 295.381 285.05Q294.725 285.097 294.067 285.112Q293.409 285.127 292.751 285.11Q292.093 285.092 291.437 285.043Q290.781 284.993 290.128 284.911Q289.475 284.829 288.827 284.715Q288.179 284.601 287.537 284.456Q286.896 284.31 286.262 284.133Q285.628 283.956 285.004 283.748Q284.379 283.54 283.766 283.302Q283.153 283.064 282.552 282.796Q281.951 282.527 281.364 282.23Q280.777 281.933 280.205 281.607Q279.634 281.281 279.079 280.927Q278.524 280.574 277.987 280.193Q277.45 279.813 276.932 279.407Q276.415 279 275.918 278.569Q275.421 278.138 274.946 277.682Q274.47 277.227 274.018 276.749Q273.566 276.271 273.138 275.772Q272.71 275.272 272.306 274.752Q271.903 274.232 271.526 273.692Q271.149 273.153 270.799 272.596Q270.449 272.039 270.127 271.465Q269.804 270.891 269.511 270.303Q269.217 269.714 268.952 269.111Q268.688 268.509 268.454 267.894Q268.219 267.279 268.015 266.653Q267.811 266.028 267.638 265.393Q267.465 264.758 267.323 264.115Q267.182 263.473 267.072 262.824Q266.962 262.175 266.884 261.522Q266.807 260.868 266.761 260.212Q266.715 259.556 266.702 258.898Q266.689 258.24 266.708 257.582Q266.727 256.924 266.778 256.268Q266.83 255.612 266.913 254.959Q266.997 254.307 267.112 253.659Q267.228 253.011 267.375 252.37Q267.522 251.728 267.701 251.095Q267.879 250.462 268.089 249.838Q268.298 249.214 268.538 248.601Q268.778 247.989 269.048 247.388Q269.318 246.788 269.617 246.202Q269.915 245.616 270.243 245.045Q270.57 244.474 270.925 243.92Q271.28 243.366 271.662 242.83Q272.044 242.294 272.451 241.777Q272.859 241.261 273.292 240.765Q273.724 240.269 274.181 239.795Q274.637 239.321 275.116 238.87Q275.595 238.419 276.096 237.992Q276.597 237.565 277.118 237.163Q277.639 236.762 278.179 236.386Q278.72 236.01 279.278 235.662Q279.836 235.313 280.41 234.992Q280.985 234.671 281.574 234.379Q282.164 234.087 282.767 233.824Q283.37 233.561 283.986 233.328Q284.601 233.095 285.227 232.893Q285.853 232.69 286.489 232.519Q287.124 232.348 287.767 232.208Q288.41 232.068 289.059 231.959Q289.708 231.851 290.362 231.775Q291.015 231.699 291.672 231.655ZM296.373 274.853Q296.781 274.782 297.185 274.692Q297.589 274.601 297.988 274.491Q298.387 274.381 298.78 274.251Q299.174 274.121 299.56 273.972Q299.946 273.823 300.325 273.655Q300.703 273.487 301.073 273.301Q301.443 273.115 301.803 272.911Q302.164 272.707 302.513 272.485Q302.863 272.263 303.202 272.025Q303.54 271.786 303.866 271.531Q304.193 271.276 304.506 271.006Q304.819 270.735 305.119 270.449Q305.419 270.164 305.704 269.864Q305.989 269.563 306.259 269.25Q306.53 268.936 306.784 268.609Q307.039 268.283 307.277 267.944Q307.515 267.605 307.736 267.255Q307.957 266.905 308.161 266.544Q308.364 266.184 308.55 265.814Q308.736 265.444 308.903 265.065Q309.07 264.686 309.219 264.299Q309.367 263.913 309.496 263.52Q309.625 263.126 309.735 262.727Q309.845 262.328 309.935 261.923Q310.025 261.519 310.095 261.111Q310.165 260.703 310.215 260.292Q310.265 259.881 310.294 259.468Q310.324 259.055 310.333 258.641Q310.342 258.227 310.331 257.813Q310.32 257.399 310.289 256.986Q310.257 256.573 310.206 256.163Q310.154 255.752 310.082 255.344Q310.01 254.936 309.918 254.532Q309.827 254.129 309.715 253.73Q309.604 253.331 309.473 252.938Q309.341 252.545 309.191 252.16Q309.041 251.774 308.872 251.396Q308.703 251.018 308.516 250.648Q308.329 250.279 308.123 249.919Q307.918 249.56 307.695 249.211Q307.473 248.862 307.233 248.524Q306.994 248.186 306.738 247.861Q306.482 247.535 306.21 247.222Q305.938 246.91 305.652 246.611Q305.365 246.312 305.064 246.028Q304.763 245.743 304.449 245.474Q304.134 245.205 303.807 244.952Q303.479 244.698 303.14 244.461Q302.8 244.224 302.449 244.004Q302.099 243.784 301.737 243.581Q301.376 243.379 301.006 243.194Q300.635 243.01 300.256 242.844Q299.876 242.677 299.489 242.53Q299.102 242.383 298.708 242.255Q298.315 242.127 297.915 242.018Q297.516 241.91 297.111 241.821Q296.707 241.732 296.298 241.663Q295.89 241.595 295.479 241.546Q295.068 241.497 294.654 241.469Q294.241 241.441 293.827 241.433Q293.413 241.425 292.999 241.437Q292.586 241.45 292.173 241.482Q291.76 241.515 291.349 241.568Q290.939 241.621 290.531 241.694Q290.125 241.767 289.723 241.859Q289.321 241.952 288.924 242.064Q288.527 242.176 288.136 242.308Q287.745 242.439 287.361 242.59Q286.977 242.74 286.601 242.909Q286.225 243.078 285.857 243.266Q285.49 243.453 285.132 243.658Q284.774 243.863 284.427 244.086Q284.079 244.308 283.743 244.547Q283.407 244.786 283.083 245.042Q282.759 245.297 282.448 245.568Q282.137 245.839 281.839 246.124Q281.542 246.41 281.259 246.71Q280.976 247.01 280.708 247.323Q280.44 247.637 280.187 247.963Q279.935 248.289 279.699 248.628Q279.463 248.966 279.243 249.315Q279.024 249.665 278.822 250.024Q278.62 250.384 278.436 250.753Q278.252 251.122 278.086 251.5Q277.921 251.878 277.774 252.263Q277.627 252.648 277.499 253.041Q277.371 253.433 277.262 253.831Q277.153 254.229 277.064 254.631Q276.975 255.034 276.906 255.441Q276.837 255.847 276.788 256.257Q276.738 256.666 276.709 257.078Q276.68 257.489 276.671 257.902Q276.663 258.314 276.674 258.726Q276.685 259.139 276.717 259.55Q276.748 259.961 276.8 260.371Q276.851 260.78 276.923 261.186Q276.995 261.592 277.086 261.994Q277.177 262.397 277.288 262.794Q277.399 263.191 277.53 263.583Q277.66 263.974 277.809 264.358Q277.958 264.743 278.126 265.12Q278.294 265.496 278.481 265.864Q278.667 266.232 278.871 266.591Q279.075 266.949 279.296 267.297Q279.517 267.646 279.755 267.982Q279.994 268.319 280.248 268.644Q280.502 268.969 280.772 269.281Q281.042 269.592 281.327 269.891Q281.612 270.189 281.911 270.473Q282.21 270.757 282.523 271.026Q282.835 271.295 283.161 271.548Q283.486 271.802 283.824 272.039Q284.161 272.276 284.51 272.496Q284.858 272.717 285.218 272.92Q285.577 273.123 285.945 273.308Q286.314 273.493 286.691 273.66Q287.068 273.827 287.453 273.975Q287.838 274.123 288.23 274.253Q288.621 274.382 289.019 274.492Q289.417 274.601 289.819 274.692Q290.221 274.782 290.628 274.852Q291.034 274.923 291.444 274.973Q291.853 275.024 292.264 275.054Q292.676 275.084 293.088 275.094Q293.5 275.105 293.913 275.095Q294.325 275.085 294.736 275.054Q295.148 275.024 295.557 274.974Q295.967 274.923 296.373 274.853Z"/>
	<path fill="#7276ED" transform="scale(0.195312 0.195312)" d="M437.057 234.528C441.781 234.51 442.804 237.81 442.812 241.974L442.781 269.348C442.805 284.763 444.394 297.549 432.471 309.404C422.261 319.556 412.345 320.212 398.747 320.222L381.693 320.213C379.253 321.863 377.092 324.197 374.841 326.113L357.505 341.147C347.14 350.276 341.717 357.252 341.742 336.203L341.765 320.213C337.129 320.305 332.48 320.223 327.843 320.213C324.656 320.176 321.418 320.538 318.245 320.213C315.223 318.191 313.771 314.85 316.557 311.891C319.336 308.938 332.094 310.231 335.979 310.231C355.406 310.236 351.538 312.294 351.478 332.777C354.62 330.75 357.378 328.117 360.177 325.652L371.268 315.892C373.489 313.944 375.714 311.87 378.193 310.253L398.702 310.273C428.936 310.285 433.276 299.903 433.274 270.097L433.3 246.784C433.294 241.677 431.204 236.763 437.057 234.528Z"/>
	<path fill="#7276ED" transform="scale(0.195312 0.195312)" d="M291.176 116.014Q291.817 115.948 292.461 115.913Q293.105 115.878 293.75 115.875Q294.395 115.872 295.039 115.9Q295.684 115.928 296.326 115.988Q296.968 116.048 297.606 116.14Q298.245 116.231 298.878 116.354Q299.511 116.476 300.137 116.63Q300.763 116.783 301.382 116.967Q302 117.151 302.608 117.365Q303.216 117.58 303.813 117.823Q304.41 118.067 304.995 118.34Q305.579 118.612 306.149 118.913Q306.72 119.214 307.275 119.543Q307.83 119.872 308.368 120.227Q308.906 120.582 309.426 120.964Q309.946 121.345 310.446 121.752Q310.947 122.158 311.427 122.589Q311.907 123.019 312.366 123.473Q312.824 123.926 313.26 124.402Q313.696 124.877 314.108 125.373Q314.519 125.87 314.906 126.385Q315.293 126.901 315.655 127.436Q316.016 127.97 316.35 128.521Q316.685 129.072 316.992 129.639Q317.299 130.206 317.578 130.788Q317.857 131.369 318.107 131.964Q318.357 132.558 318.578 133.164Q318.799 133.77 318.99 134.386Q319.18 135.002 319.34 135.627Q319.501 136.251 319.63 136.883Q319.76 137.515 319.858 138.152Q319.956 138.79 320.023 139.431Q320.09 140.072 320.125 140.716Q320.161 141.36 320.164 142.005Q320.168 142.65 320.14 143.294Q320.112 143.939 320.053 144.581Q319.994 145.223 319.903 145.861Q319.812 146.5 319.69 147.133Q319.568 147.766 319.415 148.393Q319.262 149.019 319.078 149.638Q318.895 150.256 318.681 150.864Q318.468 151.473 318.224 152.07Q317.981 152.667 317.709 153.252Q317.437 153.837 317.136 154.407Q316.836 154.978 316.508 155.533Q316.18 156.088 315.825 156.626Q315.47 157.165 315.089 157.685Q314.708 158.206 314.302 158.707Q313.896 159.208 313.465 159.688Q313.035 160.169 312.582 160.628Q312.129 161.086 311.654 161.522Q311.179 161.958 310.683 162.371Q310.187 162.783 309.671 163.17Q309.156 163.558 308.622 163.92Q308.088 164.281 307.537 164.616Q306.986 164.951 306.419 165.259Q305.852 165.567 305.271 165.846Q304.69 166.125 304.096 166.376Q303.502 166.627 302.896 166.848Q302.29 167.069 301.674 167.26Q301.058 167.452 300.434 167.612Q299.809 167.773 299.178 167.903Q298.546 168.033 297.909 168.132Q297.271 168.231 296.63 168.298Q295.988 168.366 295.343 168.401Q294.699 168.437 294.053 168.442Q293.408 168.446 292.763 168.418Q292.118 168.391 291.475 168.332Q290.832 168.273 290.193 168.182Q289.554 168.092 288.92 167.97Q288.286 167.848 287.658 167.695Q287.031 167.542 286.412 167.359Q285.793 167.175 285.184 166.962Q284.575 166.748 283.977 166.505Q283.379 166.262 282.793 165.989Q282.208 165.717 281.637 165.416Q281.066 165.115 280.51 164.787Q279.954 164.458 279.415 164.103Q278.876 163.748 278.355 163.367Q277.834 162.985 277.333 162.579Q276.831 162.172 276.35 161.742Q275.869 161.311 275.41 160.857Q274.95 160.404 274.514 159.928Q274.078 159.452 273.665 158.956Q273.252 158.459 272.865 157.943Q272.477 157.427 272.115 156.892Q271.753 156.358 271.418 155.806Q271.083 155.254 270.775 154.687Q270.467 154.119 270.188 153.537Q269.908 152.955 269.658 152.36Q269.407 151.765 269.186 151.159Q268.965 150.552 268.774 149.935Q268.583 149.319 268.423 148.693Q268.262 148.068 268.132 147.436Q268.003 146.803 267.904 146.165Q267.806 145.527 267.739 144.885Q267.672 144.243 267.637 143.598Q267.601 142.954 267.598 142.308Q267.594 141.663 267.622 141.018Q267.65 140.373 267.71 139.73Q267.769 139.087 267.86 138.448Q267.951 137.809 268.074 137.175Q268.196 136.541 268.35 135.914Q268.503 135.287 268.687 134.668Q268.871 134.049 269.085 133.44Q269.299 132.831 269.543 132.233Q269.787 131.636 270.06 131.051Q270.332 130.465 270.634 129.894Q270.935 129.323 271.264 128.768Q271.593 128.212 271.948 127.674Q272.304 127.135 272.686 126.614Q273.068 126.094 273.475 125.593Q273.881 125.091 274.312 124.611Q274.743 124.13 275.197 123.671Q275.652 123.212 276.128 122.776Q276.604 122.34 277.101 121.928Q277.597 121.516 278.114 121.129Q278.63 120.741 279.165 120.38Q279.7 120.019 280.252 119.684Q280.804 119.349 281.372 119.042Q281.94 118.735 282.522 118.456Q283.104 118.177 283.699 117.927Q284.294 117.676 284.901 117.456Q285.508 117.235 286.125 117.045Q286.742 116.854 287.367 116.694Q287.993 116.534 288.625 116.405Q289.258 116.276 289.896 116.178Q290.534 116.08 291.176 116.014ZM296.128 158.269Q296.526 158.213 296.921 158.138Q297.316 158.063 297.707 157.968Q298.098 157.873 298.483 157.76Q298.869 157.646 299.249 157.514Q299.628 157.381 300.001 157.23Q300.374 157.079 300.738 156.91Q301.103 156.741 301.459 156.554Q301.815 156.367 302.162 156.163Q302.508 155.959 302.844 155.739Q303.18 155.518 303.505 155.281Q303.83 155.044 304.143 154.791Q304.455 154.538 304.755 154.27Q305.055 154.003 305.342 153.72Q305.628 153.438 305.9 153.142Q306.172 152.846 306.43 152.537Q306.687 152.228 306.929 151.907Q307.171 151.586 307.397 151.253Q307.622 150.921 307.832 150.577Q308.041 150.234 308.233 149.881Q308.425 149.527 308.599 149.165Q308.774 148.803 308.93 148.433Q309.087 148.062 309.225 147.685Q309.363 147.307 309.483 146.923Q309.602 146.539 309.702 146.15Q309.803 145.76 309.884 145.367Q309.965 144.973 310.027 144.575Q310.089 144.178 310.131 143.778Q310.173 143.378 310.195 142.977Q310.218 142.575 310.22 142.173Q310.223 141.771 310.206 141.37Q310.189 140.968 310.152 140.567Q310.115 140.167 310.059 139.769Q310.003 139.371 309.927 138.976Q309.851 138.581 309.756 138.191Q309.66 137.8 309.546 137.414Q309.432 137.029 309.299 136.65Q309.166 136.27 309.014 135.898Q308.863 135.525 308.693 135.161Q308.524 134.796 308.336 134.441Q308.149 134.085 307.944 133.739Q307.74 133.393 307.518 133.057Q307.297 132.721 307.06 132.397Q306.822 132.072 306.569 131.76Q306.316 131.448 306.048 131.148Q305.779 130.849 305.497 130.563Q305.214 130.277 304.918 130.005Q304.621 129.733 304.312 129.476Q304.003 129.219 303.681 128.978Q303.36 128.737 303.027 128.511Q302.694 128.286 302.35 128.077Q302.006 127.869 301.653 127.677Q301.299 127.486 300.937 127.312Q300.574 127.138 300.204 126.982Q299.833 126.826 299.455 126.688Q299.078 126.551 298.694 126.432Q298.309 126.313 297.92 126.213Q297.53 126.113 297.137 126.033Q296.743 125.952 296.345 125.891Q295.948 125.83 295.548 125.789Q295.148 125.747 294.747 125.725Q294.345 125.703 293.943 125.701Q293.541 125.699 293.139 125.717Q292.738 125.734 292.337 125.772Q291.937 125.809 291.539 125.866Q291.142 125.923 290.748 125.999Q290.354 126.075 289.964 126.171Q289.574 126.266 289.189 126.381Q288.805 126.495 288.426 126.628Q288.048 126.762 287.676 126.913Q287.304 127.065 286.941 127.234Q286.577 127.404 286.222 127.591Q285.867 127.779 285.522 127.983Q285.176 128.187 284.841 128.409Q284.506 128.63 284.183 128.867Q283.859 129.104 283.547 129.357Q283.236 129.61 282.937 129.878Q282.638 130.146 282.352 130.428Q282.067 130.71 281.796 131.006Q281.525 131.301 281.268 131.61Q281.012 131.919 280.771 132.24Q280.53 132.561 280.305 132.893Q280.08 133.226 279.872 133.569Q279.663 133.912 279.472 134.264Q279.281 134.617 279.107 134.979Q278.933 135.341 278.777 135.711Q278.621 136.08 278.484 136.457Q278.346 136.835 278.228 137.218Q278.109 137.601 278.009 137.99Q277.909 138.379 277.828 138.772Q277.747 139.165 277.686 139.561Q277.625 139.958 277.583 140.357Q277.541 140.756 277.518 141.157Q277.496 141.558 277.494 141.959Q277.491 142.36 277.508 142.761Q277.525 143.162 277.562 143.562Q277.599 143.962 277.655 144.359Q277.711 144.756 277.787 145.15Q277.863 145.545 277.958 145.935Q278.053 146.324 278.166 146.709Q278.28 147.094 278.413 147.473Q278.546 147.852 278.697 148.223Q278.848 148.595 279.017 148.959Q279.186 149.323 279.373 149.678Q279.56 150.034 279.763 150.379Q279.967 150.725 280.188 151.06Q280.409 151.395 280.646 151.719Q280.882 152.043 281.135 152.355Q281.387 152.667 281.655 152.967Q281.922 153.266 282.204 153.552Q282.485 153.838 282.781 154.109Q283.076 154.381 283.385 154.638Q283.693 154.895 284.014 155.136Q284.334 155.377 284.666 155.603Q284.998 155.828 285.341 156.037Q285.684 156.246 286.036 156.438Q286.389 156.629 286.75 156.804Q287.112 156.978 287.481 157.134Q287.851 157.291 288.228 157.429Q288.605 157.567 288.988 157.686Q289.371 157.806 289.759 157.906Q290.148 158.007 290.541 158.088Q290.934 158.169 291.331 158.231Q291.727 158.293 292.126 158.336Q292.525 158.378 292.926 158.401Q293.327 158.424 293.728 158.427Q294.129 158.43 294.53 158.414Q294.931 158.397 295.331 158.361Q295.731 158.325 296.128 158.269Z"/>
	<path fill="#F3A26A" transform="scale(0.195312 0.195312)" d="M117.475 210.382Q117.973 210.347 118.471 210.336Q118.97 210.325 119.469 210.339Q119.967 210.353 120.465 210.391Q120.962 210.429 121.457 210.492Q121.952 210.554 122.443 210.641Q122.934 210.727 123.421 210.838Q123.907 210.949 124.387 211.083Q124.868 211.218 125.341 211.375Q125.814 211.533 126.279 211.714Q126.744 211.895 127.2 212.098Q127.655 212.302 128.1 212.527Q128.545 212.753 128.978 213Q129.412 213.247 129.832 213.515Q130.253 213.783 130.66 214.071Q131.067 214.359 131.46 214.667Q131.852 214.975 132.229 215.302Q132.606 215.629 132.966 215.974Q133.327 216.319 133.67 216.681Q134.013 217.043 134.337 217.422Q134.662 217.8 134.968 218.194Q135.274 218.588 135.56 218.997Q135.847 219.405 136.112 219.827Q136.378 220.249 136.623 220.684Q136.868 221.119 137.091 221.565Q137.314 222.011 137.515 222.467Q137.716 222.924 137.895 223.39Q138.073 223.856 138.229 224.33Q138.384 224.804 138.516 225.285Q138.648 225.766 138.756 226.253Q138.864 226.74 138.948 227.231Q139.033 227.723 139.092 228.218Q139.152 228.713 139.188 229.211Q139.224 229.709 139.235 230.207Q139.246 230.706 139.233 231.205Q139.219 231.703 139.181 232.201Q139.144 232.698 139.082 233.193Q139.02 233.688 138.933 234.179Q138.847 234.67 138.737 235.157Q138.626 235.643 138.492 236.124Q138.358 236.604 138.201 237.078Q138.043 237.551 137.863 238.016Q137.683 238.481 137.48 238.937Q137.277 239.392 137.051 239.837Q136.826 240.283 136.58 240.716Q136.333 241.15 136.065 241.571Q135.798 241.992 135.51 242.399Q135.222 242.806 134.914 243.199Q134.606 243.591 134.28 243.969Q133.953 244.346 133.609 244.706Q133.264 245.067 132.902 245.41Q132.54 245.754 132.162 246.079Q131.784 246.404 131.39 246.71Q130.996 247.016 130.588 247.303Q130.18 247.59 129.758 247.856Q129.336 248.122 128.902 248.367Q128.467 248.612 128.021 248.836Q127.575 249.059 127.119 249.261Q126.663 249.462 126.197 249.641Q125.731 249.82 125.257 249.976Q124.784 250.131 124.303 250.264Q123.822 250.396 123.335 250.505Q122.848 250.613 122.356 250.698Q121.865 250.782 121.37 250.843Q120.875 250.903 120.377 250.939Q119.879 250.975 119.38 250.987Q118.881 250.998 118.381 250.985Q117.882 250.972 117.384 250.935Q116.886 250.897 116.391 250.835Q115.895 250.774 115.403 250.688Q114.912 250.601 114.425 250.491Q113.938 250.381 113.456 250.247Q112.975 250.113 112.502 249.956Q112.028 249.799 111.562 249.618Q111.096 249.438 110.64 249.234Q110.184 249.031 109.738 248.806Q109.293 248.581 108.859 248.334Q108.425 248.087 108.003 247.819Q107.582 247.552 107.174 247.263Q106.766 246.975 106.373 246.667Q105.98 246.359 105.603 246.032Q105.225 245.706 104.864 245.361Q104.503 245.016 104.159 244.653Q103.816 244.291 103.49 243.912Q103.165 243.534 102.858 243.139Q102.552 242.745 102.265 242.336Q101.978 241.928 101.712 241.505Q101.446 241.083 101.2 240.648Q100.955 240.213 100.732 239.766Q100.508 239.32 100.306 238.863Q100.105 238.406 99.9263 237.94Q99.7475 237.474 99.5919 236.999Q99.4362 236.525 99.304 236.043Q99.1718 235.562 99.0635 235.074Q98.9551 234.587 98.8708 234.095Q98.7865 233.603 98.7264 233.107Q98.6664 232.611 98.6307 232.113Q98.5951 231.615 98.5839 231.116Q98.5727 230.616 98.5861 230.117Q98.5995 229.618 98.6373 229.12Q98.6752 228.622 98.7375 228.127Q98.7997 227.631 98.8862 227.14Q98.9727 226.648 99.0833 226.161Q99.1938 225.674 99.3282 225.193Q99.4625 224.712 99.6203 224.238Q99.778 223.764 99.9589 223.299Q100.14 222.833 100.343 222.377Q100.547 221.921 100.772 221.476Q100.998 221.031 101.245 220.597Q101.492 220.163 101.761 219.742Q102.029 219.32 102.317 218.913Q102.606 218.505 102.914 218.112Q103.222 217.72 103.55 217.342Q103.877 216.965 104.222 216.604Q104.567 216.244 104.93 215.9Q105.292 215.557 105.671 215.232Q106.05 214.907 106.445 214.6Q106.839 214.294 107.248 214.008Q107.657 213.721 108.08 213.455Q108.503 213.189 108.938 212.945Q109.373 212.7 109.82 212.476Q110.266 212.253 110.723 212.052Q111.18 211.851 111.647 211.673Q112.113 211.494 112.588 211.339Q113.062 211.184 113.544 211.052Q114.026 210.92 114.513 210.812Q115.001 210.704 115.493 210.62Q115.985 210.536 116.481 210.477Q116.977 210.417 117.475 210.382ZM120.876 241.197Q121.22 241.132 121.56 241.045Q121.899 240.958 122.232 240.849Q122.565 240.74 122.889 240.609Q123.214 240.478 123.53 240.326Q123.845 240.173 124.15 240.001Q124.455 239.828 124.748 239.636Q125.041 239.443 125.32 239.232Q125.6 239.021 125.864 238.792Q126.129 238.563 126.379 238.316Q126.628 238.07 126.86 237.808Q127.093 237.546 127.307 237.269Q127.522 236.992 127.718 236.702Q127.914 236.412 128.09 236.109Q128.267 235.806 128.423 235.493Q128.579 235.179 128.714 234.856Q128.849 234.532 128.962 234.201Q129.075 233.87 129.167 233.531Q129.258 233.193 129.327 232.85Q129.395 232.506 129.441 232.159Q129.487 231.811 129.51 231.462Q129.533 231.112 129.533 230.762Q129.533 230.412 129.51 230.062Q129.486 229.713 129.44 229.365Q129.394 229.018 129.325 228.675Q129.256 228.331 129.164 227.993Q129.073 227.655 128.959 227.324Q128.845 226.992 128.71 226.669Q128.575 226.346 128.418 226.032Q128.262 225.719 128.086 225.416Q127.909 225.114 127.713 224.823Q127.516 224.533 127.302 224.257Q127.087 223.98 126.854 223.718Q126.621 223.456 126.372 223.21Q126.122 222.964 125.857 222.735Q125.592 222.506 125.313 222.295Q125.033 222.084 124.74 221.892Q124.447 221.7 124.142 221.528Q123.837 221.355 123.521 221.203Q123.206 221.052 122.881 220.921Q122.556 220.79 122.223 220.681Q121.89 220.572 121.55 220.485Q121.211 220.399 120.867 220.334Q120.522 220.27 120.174 220.229Q119.826 220.187 119.477 220.169Q119.127 220.151 118.776 220.155Q118.426 220.16 118.077 220.188Q117.728 220.216 117.381 220.267Q117.035 220.317 116.692 220.391Q116.439 220.445 116.19 220.512Q115.94 220.578 115.694 220.657Q115.448 220.735 115.206 220.826Q114.964 220.916 114.727 221.018Q114.489 221.12 114.257 221.234Q114.025 221.348 113.799 221.472Q113.573 221.597 113.353 221.732Q113.133 221.868 112.92 222.014Q112.707 222.16 112.501 222.316Q112.295 222.473 112.098 222.639Q111.9 222.805 111.71 222.98Q111.521 223.156 111.34 223.341Q111.159 223.525 110.988 223.718Q110.816 223.911 110.654 224.113Q110.492 224.314 110.34 224.523Q110.188 224.732 110.046 224.948Q109.905 225.164 109.774 225.386Q109.643 225.609 109.523 225.838Q109.403 226.067 109.294 226.301Q109.185 226.535 109.088 226.775Q108.991 227.014 108.906 227.258Q108.82 227.502 108.747 227.749Q108.673 227.997 108.612 228.248Q108.551 228.499 108.502 228.753Q108.453 229.006 108.416 229.262Q108.379 229.518 108.355 229.775Q108.331 230.032 108.319 230.29Q108.308 230.548 108.309 230.807Q108.31 231.065 108.323 231.323Q108.337 231.581 108.363 231.838Q108.389 232.095 108.428 232.35Q108.466 232.606 108.517 232.859Q108.568 233.112 108.631 233.363Q108.694 233.613 108.77 233.86Q108.845 234.107 108.932 234.351Q109.019 234.594 109.118 234.832Q109.217 235.071 109.328 235.304Q109.438 235.538 109.56 235.766Q109.682 235.994 109.814 236.215Q109.947 236.437 110.09 236.652Q110.234 236.867 110.387 237.075Q110.541 237.282 110.704 237.482Q110.868 237.682 111.041 237.874Q111.214 238.066 111.396 238.249Q111.578 238.432 111.769 238.606Q111.96 238.781 112.159 238.945Q112.358 239.11 112.565 239.265Q112.772 239.419 112.986 239.564Q113.2 239.708 113.421 239.842Q113.642 239.976 113.869 240.099Q114.096 240.222 114.329 240.334Q114.562 240.445 114.8 240.546Q115.038 240.646 115.281 240.735Q115.523 240.823 115.77 240.9Q116.017 240.977 116.267 241.041Q116.517 241.106 116.77 241.158Q117.023 241.211 117.278 241.251Q117.533 241.291 117.79 241.318Q118.047 241.346 118.305 241.361Q118.563 241.376 118.821 241.378Q119.079 241.381 119.337 241.37Q119.596 241.36 119.853 241.338Q120.11 241.315 120.366 241.28Q120.622 241.245 120.876 241.197Z"/>
	<path fill="#F3A26A" transform="scale(0.195312 0.195312)" d="M159.28 204.284C165.765 204.202 221.763 203.172 224.257 205.459C228.683 209.517 225.642 214.305 219.01 214.287L163.306 214.303C159.575 214.303 156.549 214.888 153.316 212.827C149.835 207.201 154.107 204.637 159.28 204.284Z"/>
	<path fill="#7276ED" transform="scale(0.195312 0.195312)" d="M339.591 117.262C360.742 116.714 384.181 116.757 405.335 117.262C408.543 120.679 409.46 125.14 404.654 127.313C402.242 127.643 399.635 127.346 397.197 127.328L353.613 127.327C348.874 127.334 333.795 129.959 336.567 120.708C337.08 118.997 338.079 118.112 339.591 117.262Z"/>
	<path fill="#7276ED" transform="scale(0.195312 0.195312)" d="M340.968 231.762C344.512 231.576 348.146 231.75 351.697 231.757L392.051 231.738C395.167 231.734 403.53 230.788 406.113 232.555C410.453 235.524 408.035 240.928 403.428 241.489C401.063 241.733 398.479 241.501 396.092 241.499L356.321 241.494C352.883 241.493 340.812 242.346 338.019 240.573C334.258 238.186 335.712 232.848 340.968 231.762Z"/>
	<path fill="#F3A26A" transform="scale(0.195312 0.195312)" d="M209.061 223.428C215.667 223.478 224.1 220.625 226.323 227.84C224.306 236.003 213.049 232.827 205.328 232.828L169.187 232.819C166.039 232.833 155.526 233.606 153.462 231.674C150.156 228.578 153.119 224.011 157.086 223.551C162.485 222.926 168.465 223.438 173.918 223.437L209.061 223.428Z"/>
	<path fill="#7276ED" transform="scale(0.195312 0.195312)" d="M340.968 251.061L397.582 251.061C400.305 251.057 403.84 250.372 406.293 251.89C411.077 254.85 407.774 259.922 403.428 260.678L363.827 260.678C359.077 260.676 341.348 261.981 337.785 259.607C334.429 257.371 335.439 251.481 340.968 251.061Z"/>
	<path fill="#7276ED" transform="scale(0.195312 0.195312)" d="M340.132 136.507C343.204 136.341 346.357 136.491 349.436 136.496L367.442 136.51C373.378 136.513 401.704 135.329 405.477 137.105C409.513 139.007 408.667 144.754 404.654 145.982C396.715 146.115 342.161 146.84 338.393 145.244C334.67 143.666 335.588 137.809 340.132 136.507Z"/>
	<path fill="#F3A26A" transform="scale(0.195312 0.195312)" d="M157.348 158.536Q157.691 158.464 158.038 158.41Q158.384 158.355 158.733 158.317Q159.081 158.28 159.431 158.259Q159.781 158.238 160.132 158.235Q160.483 158.231 160.833 158.245Q161.183 158.259 161.533 158.289Q161.882 158.32 162.229 158.368Q162.577 158.416 162.921 158.48Q163.266 158.545 163.607 158.626Q163.948 158.708 164.285 158.806Q164.622 158.904 164.953 159.018Q165.285 159.133 165.61 159.263Q165.936 159.393 166.254 159.54Q166.573 159.686 166.884 159.847Q167.195 160.009 167.498 160.185Q167.801 160.362 168.095 160.553Q168.389 160.744 168.674 160.95Q168.958 161.155 169.232 161.374Q169.506 161.593 169.769 161.825Q170.031 162.057 170.283 162.301Q170.534 162.546 170.773 162.803Q171.012 163.059 171.238 163.327Q171.464 163.595 171.677 163.874Q171.89 164.152 172.089 164.441Q172.288 164.73 172.472 165.028Q172.657 165.326 172.827 165.633Q172.997 165.94 173.151 166.255Q173.306 166.569 173.445 166.891Q173.584 167.213 173.707 167.541Q173.83 167.87 173.937 168.204Q174.044 168.538 174.135 168.876Q174.225 169.215 174.299 169.558Q174.373 169.901 174.43 170.247Q174.487 170.593 174.527 170.941Q174.567 171.289 174.59 171.639Q174.613 171.989 174.619 172.34Q174.625 172.69 174.614 173.041Q174.602 173.391 174.574 173.741Q174.546 174.09 174.5 174.438Q174.455 174.786 174.392 175.131Q174.33 175.476 174.251 175.818Q174.172 176.159 174.076 176.496Q173.98 176.834 173.868 177.166Q173.756 177.498 173.628 177.825Q173.5 178.151 173.356 178.471Q173.212 178.79 173.052 179.103Q172.893 179.415 172.718 179.719Q172.544 180.023 172.355 180.319Q172.165 180.614 171.962 180.9Q171.759 181.185 171.542 181.461Q171.325 181.736 171.094 182Q170.864 182.265 170.621 182.518Q170.378 182.771 170.123 183.011Q169.868 183.252 169.602 183.48Q169.336 183.708 169.058 183.923Q168.781 184.137 168.494 184.338Q168.206 184.539 167.909 184.726Q167.612 184.912 167.307 185.084Q167.001 185.256 166.687 185.413Q166.374 185.57 166.053 185.711Q165.732 185.852 165.404 185.977Q165.077 186.103 164.744 186.212Q164.411 186.321 164.072 186.414Q163.734 186.507 163.392 186.583Q163.047 186.66 162.698 186.72Q162.35 186.779 161.998 186.822Q161.647 186.864 161.294 186.889Q160.942 186.915 160.588 186.922Q160.234 186.93 159.881 186.92Q159.527 186.911 159.175 186.884Q158.822 186.856 158.471 186.812Q158.12 186.767 157.772 186.706Q157.424 186.644 157.079 186.565Q156.734 186.486 156.394 186.391Q156.053 186.295 155.718 186.183Q155.382 186.07 155.053 185.942Q154.724 185.813 154.401 185.668Q154.078 185.523 153.763 185.363Q153.448 185.202 153.141 185.026Q152.834 184.85 152.536 184.66Q152.239 184.469 151.95 184.264Q151.662 184.058 151.385 183.839Q151.107 183.62 150.841 183.387Q150.574 183.155 150.32 182.909Q150.065 182.664 149.823 182.406Q149.58 182.148 149.351 181.879Q149.122 181.61 148.906 181.33Q148.69 181.049 148.489 180.759Q148.287 180.468 148.1 180.168Q147.913 179.868 147.741 179.559Q147.569 179.25 147.412 178.933Q147.256 178.615 147.115 178.291Q146.974 177.967 146.849 177.636Q146.725 177.305 146.617 176.968Q146.508 176.631 146.417 176.289Q146.326 175.948 146.251 175.602Q146.176 175.256 146.119 174.907Q146.062 174.558 146.022 174.207Q145.982 173.855 145.959 173.502Q145.936 173.15 145.931 172.796Q145.925 172.442 145.938 172.089Q145.95 171.735 145.979 171.383Q146.009 171.03 146.055 170.68Q146.102 170.329 146.166 169.981Q146.23 169.634 146.312 169.289Q146.393 168.945 146.491 168.605Q146.589 168.265 146.703 167.931Q146.818 167.596 146.949 167.268Q147.08 166.939 147.227 166.617Q147.374 166.296 147.537 165.982Q147.699 165.668 147.877 165.362Q148.055 165.056 148.248 164.76Q148.441 164.463 148.648 164.177Q148.855 163.89 149.076 163.614Q149.297 163.338 149.532 163.073Q149.766 162.808 150.013 162.555Q150.26 162.302 150.52 162.061Q150.779 161.821 151.05 161.593Q151.321 161.366 151.603 161.152Q151.884 160.938 152.176 160.739Q152.468 160.539 152.77 160.354Q153.071 160.169 153.381 159.999Q153.691 159.829 154.01 159.675Q154.328 159.52 154.653 159.382Q154.979 159.243 155.31 159.121Q155.642 158.998 155.98 158.892Q156.317 158.786 156.659 158.697Q157.002 158.608 157.348 158.536ZM160.826 177.272C161.932 176.714 162.821 176.177 163.766 175.359C165.087 171.237 164.29 168.051 159.28 168.234C154.113 170.903 154.961 176.794 160.826 177.272Z"/>
	<path fill="#F3A26A" transform="scale(0.195312 0.195312)" d="M192.754 242.221C196.762 242.13 220.721 241.814 222.527 242.506C227.096 244.258 226.6 250.257 222.144 251.996L202.308 252.025C199.278 252.026 195.439 252.456 192.506 251.801C188.087 250.813 187.265 244.807 192.754 242.221Z"/>
	<path fill="#7276ED" transform="scale(0.195312 0.195312)" d="M396.532 269.8C399.519 269.889 404.212 268.986 406.621 271.138C408.436 272.76 408.991 276.092 407.157 277.912C404.498 280.551 399.596 279.814 396.227 279.809L383.437 279.773C378.632 280.002 372.438 281.145 372.134 274.554C371.796 267.22 392.089 269.788 396.532 269.8Z"/>
	<path fill="#7276ED" transform="scale(0.195312 0.195312)" d="M375.752 155.221C380.594 155.172 401.93 154.657 405.196 155.52C409.865 156.755 408.625 162.631 404.654 164.744C401.149 165.225 396.937 164.751 393.362 164.741C389.314 164.73 374.533 166.608 372.581 162.158C371.288 159.212 373 156.347 375.752 155.221Z"/>
	<path fill="#7276ED" transform="scale(0.195312 0.195312)" d="M339.591 269.8C344.51 269.521 360.618 268.541 362.989 271.886C365.082 274.841 363.32 278.034 360.569 279.773C355.727 279.753 344.061 280.382 339.997 279.573C334.279 278.436 335.629 272.129 339.591 269.8Z"/>
	<path fill="#F3A26A" transform="scale(0.195312 0.195312)" d="M156.134 242.221C161.041 242.594 173.956 241.142 177.559 243.532C180.867 245.727 179.152 251.362 175.435 251.996C171.117 252.782 154.26 253.504 152.416 249.063C151.111 245.919 153.24 243.312 156.134 242.221Z"/>
	<path fill="#7276ED" transform="scale(0.195312 0.195312)" d="M339.591 155.221C343.488 155.038 356.676 154.798 359.92 155.466C364.581 156.426 364.154 162.762 360.569 164.744C357.63 165.063 342.803 164.997 340.131 164.483C335.102 163.515 334.929 157.882 339.591 155.221Z"/>
	<path fill="#7276ED" transform="scale(0.195312 0.195312)" d="M282.559 82.2194C285.607 81.9538 290.877 81.3954 293.594 82.7641C297.963 84.9654 296.202 91.1478 291.812 92.0309C288.429 92.0991 282.9 92.9662 280.081 90.8588C276.265 88.0066 278.115 82.7016 282.559 82.2194Z"/>
</svg>
