<?xml version="1.0" encoding="utf-8" ?>
<svg xmlns="http://www.w3.org/2000/svg" xmlns:xlink="http://www.w3.org/1999/xlink" width="100" height="100">
	<path fill="#3C6395" transform="scale(0.195312 0.195312)" d="M127.819 269.752L99.8449 269.759C78.8292 269.754 62.2757 269.485 62.2825 243.318L62.2923 111.162C62.2815 105.919 61.77 100.093 62.6302 94.9359C65.9225 75.1991 82.8985 75.4626 97.6631 75.4607L238.129 75.471C258.795 75.5548 263.986 88.3038 264 106.692L264.006 240.491C264.063 270.205 250.308 269.797 227.207 269.764L199.948 269.752L210.933 291.439C213.137 295.7 221.077 306.003 213.912 309.714C211.521 310.952 174.071 310.294 169.048 310.294L158.012 310.294L129.289 310.303C109.229 310.327 107.997 310.872 118.411 289.45L127.819 269.752ZM126.355 299.251L188.125 299.251L202.147 299.251C197.334 289.315 192.31 279.51 187.147 269.752L140.426 269.752C135.76 279.457 130.148 289.166 126.355 299.251Z"/>
	<path fill="#FDFDFD" transform="scale(0.195312 0.195312)" d="M94.153 226.157C86.0688 225.52 74.0344 226.972 73.8283 215.247C73.6661 206.017 73.8301 196.76 73.8351 187.527L73.8309 109.859C73.8304 87.3192 75.9992 86.8891 98.4907 87.0067L227.025 86.9998C250.184 86.993 252.79 85.5216 252.764 112.064L252.762 190.487C252.763 199.671 252.962 208.904 252.703 218.083C252.586 222.229 252.617 225.552 247.657 225.96C241.52 226.464 235.159 226.163 228.997 226.163L94.153 226.157Z"/>
	<path fill="#D9EAF5" transform="scale(0.195312 0.195312)" d="M94.153 226.157C86.0688 225.52 74.0344 226.972 73.8283 215.247C73.6661 206.017 73.8301 196.76 73.8351 187.527L73.8309 109.859C73.8304 87.3192 75.9992 86.8891 98.4907 87.0067L98.3091 87.4349C91.7597 102.521 94.1353 107.429 94.1491 124.123L94.1242 220.191C94.1031 222.145 93.9293 224.216 94.153 226.157Z"/>
	<path fill="#3C6395" transform="scale(0.195312 0.195312)" d="M142.438 105.315C145.579 105.428 147.115 106.654 148.387 109.566C153.8 121.948 158.211 134.86 163.207 147.421L169.104 161.946C170.31 164.86 171.784 167.841 172.648 170.869C174.292 176.636 165.903 180.375 162.499 175.393C160.305 172.181 157.206 162.828 155.721 158.768L142.438 158.768L129.134 158.768C127.743 163.062 123.233 176.452 119.518 177.762C115.176 179.291 111.13 174.999 112.371 170.66C113.568 166.478 115.709 162.23 117.345 158.182L134.86 114.943C136.633 110.574 137.231 106.408 142.438 105.315Z"/>
	<path fill="#FDFDFD" transform="scale(0.195312 0.195312)" d="M142.438 126.175C145.163 130.385 149.485 142.663 151.227 147.479L142.438 147.479C139.691 147.512 136.945 147.563 134.199 147.479C136.136 140.299 139.763 133.145 142.438 126.175Z"/>
	<path fill="#5FBBF6" transform="scale(0.195312 0.195312)" d="M182.975 191.369L214.843 191.347C220.056 191.346 225.785 190.881 230.941 191.544C235.641 192.149 237.507 198.02 234.216 201.465C231.277 204.541 218.873 203.086 214.795 203.085L182.975 203.072L150.069 203.049C145.771 203.048 134.912 204.635 131.559 201.586C128.539 198.839 129.987 192.539 134.1 191.775C139.42 190.786 145.692 191.363 151.135 191.361L182.975 191.369Z"/>
	<path fill="#F88A8C" transform="scale(0.195312 0.195312)" d="M189.365 132.253C194.971 132.051 228.299 131.668 231.515 132.643C238.168 134.66 236.62 142.081 231.254 144.412C224.824 144.971 189.635 144.867 187.429 143.668C182.135 140.791 184.067 133.584 189.365 132.253Z"/>
	<path fill="#5FBBF6" transform="scale(0.195312 0.195312)" d="M194.395 156.055L218.583 156.033C222.551 156.03 226.934 155.662 230.857 156.192C236.693 156.98 240.098 168.099 226.348 167.969L201.371 167.978C197.368 167.979 192.805 168.44 188.88 167.783C183.61 166.9 179.607 156.403 194.395 156.055Z"/>
	<path fill="#3C6395" transform="scale(0.195312 0.195312)" d="M189.365 108.234C194.777 108.115 230.333 107.522 232.815 108.904C237.393 111.451 236.298 118.864 231.254 119.937C224.597 120.208 190.386 120.719 187.082 118.938C181.806 116.096 184.359 109.419 189.365 108.234Z"/>
	<path fill="#3C6395" transform="scale(0.195312 0.195312)" d="M108.496 191.369C115.335 191.228 121.002 190.801 120.733 199.184C118.921 202.11 117.159 202.818 113.667 203.072C96.776 203.989 100.198 191.944 108.496 191.369Z"/>
	<path fill="#D9EAF5" transform="scale(0.195312 0.195312)" d="M73.8381 234.207C81.4332 238.109 85.9396 237.53 94.153 237.505L228.442 237.513C235.007 237.517 246.835 238.317 252.757 236.499C252.919 259.582 250.242 258.307 228.825 258.308L100.107 258.296C75.2551 258.366 73.7793 259.618 73.8381 234.207Z"/>
	<path fill="#BDDDF3" transform="scale(0.195312 0.195312)" d="M73.8381 234.207C81.4332 238.109 85.9396 237.53 94.153 237.505C94.1602 251.817 92.6246 248.025 100.107 258.296C75.2551 258.366 73.7793 259.618 73.8381 234.207Z"/>
	<path fill="#3C6395" transform="scale(0.195312 0.195312)" d="M374.673 277.882L387.493 277.882L411.053 277.87C432.839 277.799 440.291 277.61 440.248 303.941L440.226 396.564C451.202 395.52 450.252 401.302 449.934 410.451C449.12 433.914 429.384 432.745 412.109 432.747L282.544 432.753C278.447 432.759 274.305 432.899 270.214 432.728C255.007 432.092 246.621 417.571 247.515 403.479C247.978 396.19 254.295 396.409 260.05 397.025C260.05 363.61 260.467 330.136 259.941 296.728C259.661 278.957 272.181 277.87 286.291 277.874L374.673 277.882Z"/>
	<path fill="#FDFDFD" transform="scale(0.195312 0.195312)" d="M321.242 289.256L411.914 289.25C425.455 289.251 428.578 286.384 428.646 302.121L428.641 396.564L277.908 396.564L271.49 396.564L271.476 305.985C271.443 285.756 271.417 289.245 290.204 289.244L321.242 289.256Z"/>
	<path fill="#F59B55" transform="scale(0.195312 0.195312)" d="M305.97 299.251C318.994 299.257 340.314 294.922 340.538 314.235C340.594 318.997 340.508 323.769 340.521 328.532C340.564 344.594 339.73 352.534 321.242 352.214C310.205 352.246 291.92 355.481 288.088 341.398C286.933 337.155 287.19 319.381 287.487 314.213C288.148 302.711 295.249 298.606 305.97 299.251Z"/>
	<path fill="#FDFDFD" transform="scale(0.195312 0.195312)" d="M305.97 310.294C309.577 310.764 312.748 314.539 315.007 317.094C317.498 314.22 320.347 311.768 323.872 310.294C326.979 311.895 328.363 313.576 329.175 317.094C328.095 320.579 325.409 322.499 323.216 325.246C325.464 327.899 327.952 329.811 329.175 333.18C328.192 336.149 326.992 338.069 323.872 339.248C319.851 339.857 317.258 335.93 315.007 333.18C312.766 335.311 309.995 339.467 306.624 339.465C303.507 339.463 300.453 336.118 300.563 333.048C300.673 329.998 304.616 327.176 306.732 325.246C301.046 319.622 296.742 314.897 305.97 310.294Z"/>
	<path fill="#5FBBF6" transform="scale(0.195312 0.195312)" d="M323.872 366.878C327.778 366.581 331.915 366.87 335.842 366.871L390.352 366.878C395.542 366.878 400.837 366.641 406.015 366.917C414.711 367.381 415.114 377.332 407.466 379.04L353.317 379.035C347.666 379.035 324.158 380.358 320.266 377.893C315.81 375.071 316.389 367.481 323.872 366.878Z"/>
	<path fill="#0FBCB7" transform="scale(0.195312 0.195312)" d="M357.598 333.994C372.538 333.613 391.795 333.196 406.611 334.014C414.871 334.47 414.765 343.705 407.466 345.816L374.936 345.819C369.466 345.825 363.801 346.191 358.36 345.794C350.635 345.231 350.474 335.54 357.598 333.994Z"/>
	<path fill="#3C6395" transform="scale(0.195312 0.195312)" d="M359.733 309.899L392.423 309.901C397.072 309.9 402.937 309.408 407.429 309.971C416.191 311.07 414.428 320.95 406.312 321.577L374.092 321.585C368.717 321.593 362.804 322.073 357.487 321.404C350.727 320.554 349.413 310.395 359.733 309.899Z"/>
	<path fill="#5FBBF6" transform="scale(0.195312 0.195312)" d="M294.296 366.878C306.536 363.199 310.354 377.577 298.476 379.04C295.404 378.874 291.929 379.118 289.025 378.058L288.827 377.848C283.721 372.312 287.315 366.46 294.296 366.878Z"/>
	<path fill="#5FBBF6" transform="scale(0.195312 0.195312)" d="M260.05 408.547L438.541 408.547C438.435 412.37 437.787 415.35 435.18 418.28L434.952 418.477C430.843 421.983 424.805 421.004 419.757 421.004L281.548 420.992C273.474 420.992 258.509 421.773 259.641 408.837L260.05 408.547Z"/>
	<path fill="#3C6395" transform="scale(0.195312 0.195312)" d="M311.859 167.228Q311.949 165.598 312.117 163.974Q312.284 162.351 312.529 160.737Q312.773 159.123 313.094 157.522Q313.414 155.922 313.811 154.338Q314.207 152.755 314.678 151.192Q315.149 149.629 315.693 148.09Q316.237 146.551 316.854 145.04Q317.471 143.529 318.159 142.048Q318.847 140.568 319.604 139.122Q320.361 137.676 321.186 136.268Q322.012 134.859 322.902 133.491Q323.793 132.124 324.748 130.8Q325.703 129.476 326.719 128.199Q327.736 126.921 328.812 125.694Q329.888 124.466 331.021 123.291Q332.154 122.116 333.341 120.996Q334.529 119.876 335.768 118.814Q337.007 117.751 338.295 116.749Q339.583 115.746 340.918 114.806Q342.252 113.866 343.63 112.99Q345.007 112.114 346.424 111.305Q347.842 110.495 349.296 109.754Q350.75 109.012 352.238 108.341Q353.726 107.669 355.244 107.069Q356.762 106.468 358.306 105.941Q359.851 105.413 361.419 104.959Q362.987 104.506 364.575 104.127Q366.163 103.748 367.766 103.445Q369.37 103.142 370.987 102.915Q372.603 102.688 374.229 102.539Q375.854 102.389 377.485 102.317Q379.116 102.244 380.748 102.249Q382.38 102.254 384.011 102.336Q385.641 102.419 387.265 102.578Q388.89 102.738 390.505 102.974Q392.12 103.211 393.722 103.524Q395.324 103.837 396.91 104.225Q398.495 104.614 400.06 105.077Q401.625 105.54 403.167 106.077Q404.708 106.614 406.223 107.224Q407.737 107.833 409.221 108.514Q410.704 109.194 412.154 109.945Q413.604 110.695 415.016 111.513Q416.429 112.331 417.801 113.215Q419.173 114.1 420.501 115.048Q421.83 115.996 423.112 117.007Q424.394 118.017 425.627 119.087Q426.86 120.157 428.04 121.284Q429.221 122.411 430.347 123.593Q431.473 124.775 432.541 126.009Q433.61 127.243 434.618 128.527Q435.627 129.81 436.574 131.14Q437.52 132.47 438.403 133.843Q439.286 135.216 440.102 136.629Q440.919 138.043 441.667 139.493Q442.415 140.944 443.094 142.428Q443.773 143.913 444.381 145.428Q444.988 146.943 445.524 148.485Q446.059 150.027 446.52 151.593Q446.981 153.159 447.368 154.745Q447.754 156.331 448.065 157.933Q448.376 159.535 448.611 161.151Q448.845 162.766 449.003 164.391Q449.161 166.016 449.241 167.646Q449.321 169.276 449.324 170.909Q449.327 172.541 449.253 174.172Q449.178 175.802 449.027 177.427Q448.875 179.053 448.646 180.669Q448.418 182.285 448.113 183.889Q447.808 185.492 447.427 187.08Q447.046 188.667 446.591 190.234Q446.135 191.802 445.605 193.346Q445.076 194.89 444.474 196.407Q443.872 197.924 443.198 199.411Q442.525 200.898 441.782 202.351Q441.039 203.805 440.227 205.221Q439.416 206.638 438.539 208.014Q437.661 209.39 436.719 210.724Q435.777 212.057 434.773 213.344Q433.769 214.631 432.705 215.869Q431.641 217.107 430.52 218.293Q429.398 219.479 428.222 220.61Q427.045 221.742 425.817 222.816Q424.588 223.891 423.309 224.906Q422.031 225.921 420.706 226.874Q419.381 227.827 418.012 228.716Q416.643 229.606 415.234 230.429Q413.824 231.252 412.377 232.008Q410.93 232.763 409.449 233.449Q407.968 234.135 406.456 234.75Q404.944 235.365 403.405 235.908Q401.865 236.451 400.302 236.92Q398.738 237.389 397.154 237.783Q395.57 238.177 393.969 238.496Q392.368 238.815 390.754 239.057Q389.14 239.299 387.516 239.465Q381.113 240.118 374.699 239.572Q373.251 239.449 371.809 239.264Q370.368 239.08 368.935 238.835Q367.503 238.589 366.082 238.284Q364.661 237.978 363.254 237.613Q361.847 237.248 360.457 236.824Q359.067 236.399 357.697 235.917Q356.326 235.434 354.976 234.894Q353.627 234.354 352.302 233.757Q350.977 233.161 349.678 232.509Q348.379 231.857 347.109 231.15Q345.839 230.444 344.599 229.685Q343.36 228.925 342.154 228.114Q340.948 227.303 339.778 226.442Q338.607 225.581 337.474 224.671Q336.34 223.761 335.247 222.804Q334.153 221.847 333.1 220.845Q332.048 219.842 331.039 218.796Q330.03 217.751 329.066 216.663Q328.102 215.575 327.184 214.448Q326.267 213.321 325.398 212.156Q324.529 210.991 323.71 209.79Q322.892 208.589 322.124 207.355Q321.357 206.121 320.642 204.855Q319.928 203.59 319.267 202.295Q318.607 201 318.002 199.679Q317.396 198.358 316.847 197.012Q316.299 195.666 315.807 194.299Q315.315 192.931 314.882 191.544Q314.449 190.156 314.075 188.752Q313.7 187.348 313.385 185.929Q313.071 184.51 312.816 183.079Q312.562 181.648 312.368 180.208Q311.498 173.742 311.859 167.228ZM385.128 228.338Q386.535 228.224 387.934 228.042Q389.334 227.859 390.723 227.608Q392.111 227.357 393.486 227.037Q394.861 226.718 396.218 226.332Q397.576 225.946 398.913 225.493Q400.25 225.041 401.563 224.523Q402.876 224.006 404.162 223.424Q405.448 222.843 406.703 222.199Q407.959 221.555 409.182 220.85Q410.405 220.145 411.592 219.381Q412.778 218.617 413.926 217.796Q415.074 216.974 416.18 216.097Q417.286 215.221 418.347 214.291Q419.409 213.361 420.423 212.379Q421.438 211.398 422.403 210.369Q423.368 209.339 424.282 208.263Q425.195 207.187 426.055 206.068Q426.914 204.948 427.717 203.788Q428.521 202.628 429.266 201.429Q430.012 200.231 430.698 198.997Q431.383 197.764 432.008 196.498Q432.632 195.232 433.193 193.937Q433.755 192.642 434.252 191.321Q434.749 190 435.181 188.657Q435.612 187.313 435.977 185.95Q436.343 184.586 436.64 183.207Q436.938 181.827 437.168 180.435Q437.397 179.042 437.558 177.64Q437.719 176.238 437.811 174.829Q437.903 173.421 437.925 172.01Q437.948 170.599 437.901 169.188Q437.854 167.778 437.738 166.371Q437.622 164.964 437.437 163.565Q437.252 162.166 436.999 160.778Q436.745 159.389 436.424 158.015Q436.102 156.641 435.714 155.284Q435.326 153.927 434.871 152.591Q434.416 151.255 433.897 149.943Q433.377 148.631 432.793 147.346Q432.21 146.061 431.564 144.806Q430.918 143.551 430.211 142.329Q429.504 141.108 428.738 139.923Q427.972 138.737 427.149 137.591Q426.326 136.444 425.447 135.34Q424.569 134.235 423.637 133.175Q422.705 132.115 421.722 131.102Q420.74 130.089 419.708 129.126Q418.677 128.162 417.6 127.251Q416.523 126.339 415.402 125.481Q414.281 124.624 413.119 123.822Q411.958 123.021 410.758 122.277Q409.559 121.533 408.324 120.85Q407.089 120.166 405.823 119.544Q404.556 118.921 403.26 118.362Q401.964 117.803 400.643 117.308Q399.321 116.813 397.976 116.383Q396.632 115.954 395.268 115.591Q393.904 115.228 392.524 114.933Q391.144 114.637 389.751 114.41Q388.358 114.183 386.956 114.024Q385.554 113.865 384.145 113.776Q382.737 113.686 381.326 113.666Q379.914 113.646 378.504 113.695Q377.093 113.744 375.687 113.862Q374.284 113.98 372.888 114.167Q371.492 114.353 370.106 114.608Q368.721 114.863 367.35 115.186Q365.979 115.508 364.626 115.897Q363.272 116.287 361.939 116.742Q360.606 117.197 359.297 117.717Q357.988 118.237 356.707 118.82Q355.425 119.404 354.173 120.05Q352.921 120.695 351.703 121.401Q350.484 122.108 349.301 122.873Q348.119 123.638 346.975 124.46Q345.832 125.282 344.73 126.159Q343.628 127.037 342.57 127.967Q341.513 128.897 340.502 129.878Q339.491 130.859 338.53 131.888Q337.569 132.917 336.659 133.992Q335.749 135.067 334.893 136.186Q334.037 137.304 333.237 138.463Q332.436 139.622 331.694 140.819Q330.952 142.016 330.269 143.248Q329.586 144.48 328.964 145.744Q328.343 147.008 327.784 148.3Q327.225 149.593 326.73 150.912Q326.235 152.23 325.805 153.572Q325.376 154.913 325.012 156.274Q324.649 157.634 324.353 159.011Q324.056 160.388 323.828 161.778Q323.6 163.168 323.44 164.567Q323.28 165.967 323.188 167.372Q323.097 168.777 323.075 170.186Q323.053 171.594 323.099 173.002Q323.146 174.409 323.262 175.813Q323.378 177.217 323.562 178.613Q323.747 180.009 323.999 181.395Q324.252 182.78 324.572 184.152Q324.892 185.524 325.28 186.878Q325.667 188.232 326.12 189.566Q326.573 190.899 327.091 192.209Q327.608 193.519 328.19 194.801Q328.771 196.084 329.415 197.337Q330.058 198.59 330.763 199.81Q331.467 201.029 332.23 202.213Q332.993 203.397 333.814 204.542Q334.634 205.687 335.509 206.79Q336.385 207.893 337.313 208.952Q338.242 210.011 339.221 211.024Q340.2 212.036 341.228 212.999Q342.255 213.962 343.329 214.874Q344.403 215.785 345.52 216.643Q346.637 217.501 347.795 218.303Q348.952 219.105 350.148 219.849Q351.344 220.594 352.575 221.279Q353.805 221.963 355.068 222.587Q356.331 223.211 357.623 223.772Q358.915 224.333 360.232 224.83Q361.55 225.327 362.891 225.759Q364.231 226.191 365.592 226.556Q366.952 226.922 368.328 227.22Q369.705 227.519 371.094 227.749Q372.484 227.98 373.883 228.142Q375.282 228.305 376.687 228.398Q378.092 228.492 379.5 228.516Q380.909 228.541 382.316 228.496Q383.724 228.452 385.128 228.338Z"/>
	<path fill="#18E5C8" transform="scale(0.195312 0.195312)" d="M375.687 113.862Q377.093 113.744 378.504 113.695Q379.914 113.646 381.326 113.666Q382.737 113.686 384.145 113.776Q385.554 113.865 386.956 114.024Q388.358 114.183 389.751 114.41Q391.144 114.637 392.524 114.933Q393.904 115.228 395.268 115.591Q396.632 115.954 397.976 116.383Q399.321 116.813 400.643 117.308Q401.964 117.803 403.26 118.362Q404.556 118.921 405.823 119.544Q407.089 120.166 408.324 120.85Q409.559 121.533 410.758 122.277Q411.958 123.021 413.119 123.822Q414.281 124.624 415.402 125.481Q416.523 126.339 417.6 127.251Q418.677 128.162 419.708 129.126Q420.74 130.089 421.722 131.102Q422.705 132.115 423.637 133.175Q424.569 134.235 425.447 135.34Q426.326 136.444 427.149 137.591Q427.972 138.737 428.738 139.923Q429.504 141.108 430.211 142.329Q430.918 143.551 431.564 144.806Q432.21 146.061 432.793 147.346Q433.377 148.631 433.897 149.943Q434.416 151.255 434.871 152.591Q435.326 153.927 435.714 155.284Q436.102 156.641 436.424 158.015Q436.745 159.389 436.999 160.778Q437.252 162.166 437.437 163.565Q437.622 164.964 437.738 166.371Q437.854 167.778 437.901 169.188Q437.948 170.599 437.925 172.01Q437.903 173.421 437.811 174.829Q437.719 176.238 437.558 177.64Q437.397 179.042 437.168 180.435Q436.938 181.827 436.64 183.207Q436.343 184.586 435.977 185.95Q435.612 187.313 435.181 188.657Q434.749 190.001 434.252 191.321Q433.755 192.642 433.193 193.937Q432.632 195.232 432.008 196.498Q431.383 197.764 430.698 198.997Q430.012 200.231 429.266 201.429Q428.521 202.628 427.717 203.788Q426.914 204.948 426.055 206.068Q425.195 207.187 424.282 208.263Q423.368 209.339 422.403 210.369Q421.438 211.398 420.423 212.379Q419.409 213.361 418.347 214.291Q417.286 215.221 416.18 216.097Q415.074 216.974 413.926 217.796Q412.778 218.617 411.592 219.381Q410.405 220.145 409.182 220.85Q407.959 221.555 406.703 222.199Q405.448 222.843 404.162 223.424Q402.876 224.006 401.563 224.523Q400.25 225.041 398.913 225.493Q397.576 225.946 396.218 226.332Q394.861 226.718 393.486 227.037Q392.111 227.356 390.723 227.608Q389.334 227.859 387.934 228.042Q386.535 228.224 385.128 228.338Q383.724 228.452 382.316 228.496Q380.909 228.541 379.5 228.516Q378.092 228.492 376.687 228.398Q375.282 228.305 373.883 228.142Q372.484 227.98 371.094 227.749Q369.705 227.519 368.328 227.22Q366.952 226.922 365.592 226.556Q364.231 226.19 362.891 225.759Q361.55 225.327 360.232 224.83Q358.915 224.333 357.623 223.772Q356.331 223.211 355.068 222.587Q353.805 221.963 352.575 221.279Q351.344 220.594 350.148 219.849Q348.952 219.105 347.795 218.303Q346.637 217.501 345.52 216.643Q344.403 215.785 343.329 214.874Q342.255 213.962 341.228 212.999Q340.2 212.036 339.221 211.024Q338.242 210.011 337.313 208.952Q336.385 207.893 335.509 206.79Q334.634 205.687 333.814 204.542Q332.993 203.397 332.23 202.213Q331.467 201.029 330.763 199.81Q330.058 198.59 329.415 197.337Q328.771 196.084 328.19 194.801Q327.608 193.519 327.091 192.209Q326.573 190.899 326.12 189.566Q325.667 188.232 325.28 186.878Q324.892 185.524 324.572 184.152Q324.252 182.78 323.999 181.395Q323.747 180.009 323.562 178.613Q323.378 177.217 323.262 175.813Q323.146 174.409 323.099 173.002Q323.053 171.594 323.075 170.186Q323.097 168.777 323.188 167.372Q323.28 165.967 323.44 164.567Q323.6 163.168 323.828 161.778Q324.056 160.388 324.353 159.011Q324.649 157.634 325.012 156.274Q325.376 154.913 325.805 153.572Q326.235 152.23 326.73 150.912Q327.225 149.593 327.784 148.3Q328.343 147.008 328.964 145.744Q329.586 144.48 330.269 143.248Q330.952 142.016 331.694 140.819Q332.436 139.622 333.237 138.463Q334.037 137.304 334.893 136.186Q335.749 135.067 336.659 133.992Q337.569 132.917 338.53 131.888Q339.491 130.859 340.502 129.878Q341.513 128.897 342.57 127.967Q343.628 127.037 344.73 126.159Q345.832 125.282 346.975 124.46Q348.119 123.638 349.301 122.873Q350.484 122.108 351.703 121.401Q352.921 120.695 354.173 120.05Q355.425 119.404 356.706 118.82Q357.988 118.237 359.297 117.717Q360.606 117.197 361.939 116.742Q363.272 116.287 364.626 115.897Q365.979 115.508 367.35 115.186Q368.721 114.863 370.106 114.608Q371.492 114.353 372.888 114.167Q374.284 113.98 375.687 113.862ZM367.321 167.969C366.058 166.995 363.772 164.757 362.156 164.988C359.704 165.338 356.278 169.618 356.805 172.232C357.265 174.516 360.989 177.375 362.675 178.948L362.941 178.341C364.935 177.201 363.677 174.418 364.3 172.454C364.833 170.773 366.44 169.504 367.321 167.969Z"/>
	<path fill="#3C6395" transform="scale(0.195312 0.195312)" d="M396.048 145.294C408.345 144.352 419.63 156.302 414.853 167.22C412.413 172.796 386.896 198.507 382.465 200.868C375.704 204.472 368.598 201.461 363.438 196.56C356.857 189.944 344.648 181.277 345.422 170.903C346.673 154.144 363.604 146.254 376.407 161.642C382.442 156.392 388.001 147.169 396.048 145.294ZM367.321 167.969C366.058 166.995 363.772 164.757 362.156 164.988C359.704 165.338 356.278 169.618 356.805 172.232C357.265 174.516 360.989 177.375 362.675 178.948L362.941 178.341C364.935 177.201 363.677 174.418 364.3 172.454C364.833 170.773 366.44 169.504 367.321 167.969Z"/>
	<path fill="#FDFDFD" transform="scale(0.195312 0.195312)" d="M376.407 177.643C379.732 174.022 395.011 156.768 398.837 156.718C401.925 156.678 405.722 161.538 403.37 164.242C398.85 169.44 392.242 175.437 387.292 180.521C372.803 195.401 378.351 193.277 362.675 178.948L362.941 178.341C364.935 177.201 363.677 174.418 364.3 172.454C364.833 170.773 366.44 169.504 367.321 167.969C369.755 171.443 373.153 174.911 376.407 177.643Z"/>
	<path fill="#F88A8C" transform="scale(0.195312 0.195312)" d="M158.012 310.294L169.048 310.294C169.342 323.578 169.051 336.936 169.048 350.229C175.81 350.553 182.75 350.239 189.53 350.236L231.254 350.229C231.264 348.361 229.232 331.053 235.422 336.261C237.437 337.956 253.306 353.931 253.799 355.142C255.374 359.014 234.472 377.036 233.881 377.269C229.758 378.894 231.245 364.177 231.254 362.134L186.96 362.127C179.493 362.129 170.769 362.775 163.447 361.722C155.336 360.555 158.001 347.896 158.001 341.598L158.012 310.294Z"/>
	<path fill="#F88A8C" transform="scale(0.195312 0.195312)" d="M264.763 174.371C269.565 169.154 281.209 157.423 286.529 153.162C286.807 157.821 286.566 162.586 286.529 167.253L311.859 167.228Q311.498 173.742 312.368 180.208C309.183 180.424 305.915 180.269 302.721 180.26L286.529 180.274L286.529 194.833C281.865 191.639 269.274 179.047 264.763 174.371Z"/>
	<path fill="#F88A8C" transform="scale(0.195312 0.195312)" d="M374.699 239.572Q381.113 240.118 387.516 239.465C387.515 252.236 387.084 265.129 387.493 277.882L374.673 277.882L374.699 239.572Z"/>
</svg>
