<?xml version="1.0" encoding="utf-8" ?>
<svg xmlns="http://www.w3.org/2000/svg" xmlns:xlink="http://www.w3.org/1999/xlink" width="100" height="100">
	<defs>
		<linearGradient id="gradient_0" gradientUnits="userSpaceOnUse" x1="290.61096" y1="347.52267" x2="220.94821" y2="160.29247">
			<stop offset="0" stop-color="#3E72F4"/>
			<stop offset="1" stop-color="#56CDF9"/>
		</linearGradient>
	</defs>
	<path fill="url(#gradient_0)" transform="scale(0.195312 0.195312)" d="M250.734 153.627Q256.625 153.322 262.512 153.709Q264.602 153.846 266.685 154.07Q268.768 154.295 270.839 154.605Q272.911 154.916 274.968 155.313Q277.025 155.71 279.063 156.192Q281.102 156.674 283.118 157.24Q285.135 157.807 287.126 158.457Q289.118 159.107 291.08 159.84Q293.043 160.572 294.973 161.386Q296.903 162.2 298.798 163.093Q300.693 163.986 302.549 164.958Q304.404 165.929 306.218 166.977Q308.032 168.025 309.801 169.148Q311.569 170.27 313.289 171.466Q315.01 172.661 316.679 173.927Q318.348 175.193 319.962 176.527Q321.577 177.862 323.135 179.262Q327.776 183.435 331.866 188.15Q333.22 189.711 334.509 191.326Q335.797 192.941 337.019 194.608Q338.24 196.275 339.391 197.991Q340.543 199.706 341.623 201.468Q342.704 203.229 343.711 205.033Q344.717 206.838 345.649 208.682Q346.581 210.526 347.437 212.407Q348.292 214.288 349.069 216.203Q349.847 218.117 350.545 220.062Q351.243 222.007 351.86 223.979Q352.478 225.951 353.014 227.946Q353.55 229.942 354.003 231.958Q354.457 233.974 354.827 236.007Q355.197 238.039 355.484 240.086Q355.77 242.132 355.972 244.189Q356.174 246.245 356.292 248.308Q356.674 255.019 356.159 261.721Q356.002 263.759 355.763 265.789Q355.524 267.818 355.202 269.837Q354.881 271.855 354.477 273.859Q354.074 275.862 353.59 277.848Q353.105 279.834 352.54 281.798Q351.976 283.762 351.332 285.702Q350.687 287.642 349.965 289.553Q349.243 291.465 348.443 293.346Q347.644 295.227 346.768 297.074Q345.893 298.921 344.943 300.731Q343.994 302.541 342.971 304.31Q341.949 306.08 340.855 307.807Q339.762 309.534 338.599 311.214Q337.436 312.895 336.206 314.527Q334.976 316.159 333.68 317.74Q332.385 319.321 331.026 320.848Q327.166 325.186 322.832 329.05Q321.302 330.414 319.718 331.715Q318.133 333.016 316.497 334.251Q314.861 335.486 313.176 336.654Q311.491 337.821 309.76 338.919Q308.028 340.017 306.254 341.043Q304.479 342.069 302.664 343.022Q300.849 343.975 298.997 344.853Q297.145 345.732 295.258 346.534Q293.372 347.336 291.454 348.06Q289.536 348.785 287.591 349.43Q285.645 350.076 283.675 350.642Q281.705 351.208 279.713 351.693Q277.721 352.178 275.711 352.581Q273.701 352.985 271.677 353.306Q269.652 353.627 267.616 353.865Q265.58 354.104 263.536 354.259Q257.034 354.753 250.523 354.402Q248.428 354.289 246.339 354.089Q244.25 353.889 242.171 353.602Q240.092 353.315 238.027 352.941Q235.962 352.567 233.914 352.108Q231.867 351.648 229.84 351.104Q227.814 350.559 225.811 349.93Q223.809 349.302 221.835 348.59Q219.861 347.878 217.918 347.085Q215.975 346.292 214.067 345.418Q212.16 344.544 210.29 343.591Q208.42 342.639 206.592 341.609Q204.763 340.579 202.979 339.474Q201.195 338.368 199.459 337.189Q197.723 336.011 196.037 334.76Q194.352 333.51 192.72 332.191Q191.088 330.871 189.513 329.485Q187.453 327.672 185.495 325.75Q183.546 323.836 181.703 321.819Q180.703 320.724 179.735 319.6Q178.425 318.078 177.178 316.506Q175.93 314.933 174.746 313.312Q173.562 311.691 172.444 310.024Q171.325 308.357 170.274 306.646Q169.223 304.936 168.242 303.185Q167.26 301.434 166.349 299.645Q165.438 297.856 164.599 296.033Q163.76 294.209 162.994 292.353Q162.229 290.497 161.538 288.612Q160.847 286.727 160.232 284.816Q159.617 282.905 159.079 280.971Q158.541 279.037 158.081 277.084Q157.62 275.13 157.238 273.159Q156.856 271.188 156.553 269.204Q156.249 267.219 156.026 265.224Q155.802 263.229 155.658 261.227Q155.182 254.604 155.581 247.976Q155.705 245.92 155.913 243.871Q156.121 241.822 156.412 239.783Q156.704 237.744 157.079 235.719Q157.454 233.694 157.912 231.686Q158.369 229.677 158.909 227.69Q159.448 225.702 160.069 223.738Q160.689 221.774 161.389 219.837Q162.09 217.9 162.869 215.994Q163.648 214.087 164.505 212.214Q165.361 210.341 166.294 208.504Q167.226 206.668 168.233 204.871Q169.24 203.075 170.32 201.321Q171.4 199.567 172.55 197.859Q173.701 196.15 174.921 194.491Q176.14 192.831 177.427 191.223Q178.714 189.614 180.065 188.06Q184.178 183.33 188.846 179.147Q190.395 177.76 191.999 176.438Q193.604 175.115 195.262 173.861Q196.92 172.606 198.628 171.421Q200.336 170.236 202.092 169.122Q203.848 168.009 205.648 166.969Q207.449 165.929 209.291 164.965Q211.133 164 213.013 163.113Q214.893 162.225 216.808 161.416Q218.724 160.607 220.671 159.878Q222.618 159.149 224.593 158.501Q226.569 157.853 228.57 157.287Q230.57 156.721 232.593 156.239Q234.615 155.756 236.656 155.357Q238.696 154.959 240.751 154.645Q242.807 154.331 244.873 154.103Q246.94 153.874 249.014 153.731Q249.874 153.672 250.734 153.627ZM259.134 330.921Q261.019 330.838 262.897 330.663Q264.776 330.488 266.643 330.22Q268.511 329.953 270.363 329.595Q272.215 329.236 274.048 328.787Q275.88 328.338 277.688 327.8Q279.496 327.262 281.276 326.635Q283.056 326.009 284.802 325.296Q286.549 324.583 288.259 323.785Q289.968 322.987 291.637 322.107Q293.305 321.226 294.928 320.265Q296.551 319.303 298.126 318.263Q299.7 317.223 301.221 316.107Q302.742 314.991 304.206 313.802Q305.671 312.613 307.076 311.353Q308.48 310.094 309.821 308.767Q311.162 307.439 312.436 306.048Q313.71 304.657 314.915 303.205Q316.119 301.753 317.251 300.243Q318.383 298.734 319.439 297.171Q320.496 295.608 321.474 293.995Q322.452 292.382 323.351 290.722Q324.249 289.063 325.064 287.362Q325.88 285.661 326.611 283.922Q327.342 282.183 327.987 280.41Q328.632 278.637 329.189 276.834Q329.746 275.032 330.214 273.204Q330.682 271.377 331.06 269.528Q331.438 267.68 331.725 265.815Q332.012 263.951 332.206 262.074Q332.401 260.198 332.504 258.314Q332.606 256.43 332.617 254.543Q332.627 252.657 332.544 250.772Q332.461 248.887 332.286 247.009Q332.112 245.13 331.845 243.263Q331.578 241.395 331.22 239.543Q330.861 237.69 330.413 235.858Q329.964 234.025 329.426 232.217Q328.888 230.409 328.262 228.629Q327.636 226.849 326.923 225.103Q326.211 223.356 325.413 221.646Q324.616 219.936 323.735 218.268Q322.855 216.599 321.894 214.976Q320.933 213.352 319.893 211.778Q318.853 210.204 317.737 208.682Q316.622 207.161 315.433 205.696Q314.244 204.231 312.984 202.827Q311.725 201.422 310.398 200.081Q309.071 198.74 307.68 197.465Q306.289 196.191 304.837 194.986Q303.385 193.781 301.876 192.649Q300.367 191.517 298.804 190.46Q297.241 189.404 295.628 188.425Q294.015 187.446 292.356 186.548Q290.697 185.65 288.996 184.834Q287.295 184.018 285.556 183.287Q283.817 182.555 282.044 181.91Q280.271 181.265 278.469 180.707Q276.667 180.15 274.839 179.681Q273.012 179.213 271.163 178.835Q269.315 178.457 267.45 178.17Q265.586 177.883 263.709 177.687Q261.833 177.492 259.949 177.389Q258.065 177.286 256.178 177.276Q254.292 177.266 252.407 177.348Q250.522 177.43 248.643 177.605Q246.764 177.78 244.896 178.046Q243.028 178.313 241.175 178.671Q239.322 179.029 237.489 179.478Q235.657 179.926 233.848 180.464Q232.039 181.002 230.259 181.628Q228.479 182.254 226.732 182.967Q224.984 183.679 223.274 184.477Q221.564 185.274 219.895 186.155Q218.226 187.035 216.602 187.996Q214.978 188.958 213.404 189.998Q211.829 191.037 210.307 192.153Q208.786 193.269 207.32 194.458Q205.855 195.647 204.45 196.907Q203.045 198.167 201.704 199.494Q200.362 200.821 199.088 202.212Q197.813 203.604 196.608 205.056Q195.403 206.508 194.271 208.018Q193.138 209.527 192.082 211.09Q191.025 212.654 190.046 214.267Q189.067 215.88 188.169 217.54Q187.27 219.199 186.454 220.901Q185.638 222.602 184.907 224.341Q184.175 226.081 183.53 227.854Q182.885 229.627 182.328 231.43Q181.77 233.233 181.302 235.061Q180.834 236.889 180.455 238.738Q180.077 240.586 179.791 242.452Q179.504 244.317 179.309 246.194Q179.114 248.07 179.011 249.955Q178.909 251.839 178.898 253.726Q178.888 255.613 178.971 257.498Q179.054 259.383 179.229 261.262Q179.404 263.141 179.671 265.009Q179.937 266.877 180.296 268.73Q180.654 270.582 181.103 272.415Q181.552 274.248 182.09 276.057Q182.628 277.865 183.255 279.646Q183.881 281.426 184.594 283.173Q185.307 284.92 186.104 286.63Q186.902 288.34 187.783 290.009Q188.664 291.678 189.625 293.301Q190.587 294.925 191.627 296.5Q192.667 298.074 193.783 299.596Q194.899 301.117 196.089 302.582Q197.278 304.047 198.538 305.452Q199.798 306.857 201.125 308.198Q202.453 309.539 203.844 310.814Q205.236 312.088 206.688 313.293Q208.141 314.498 209.65 315.63Q211.16 316.762 212.724 317.818Q214.287 318.875 215.901 319.853Q217.514 320.832 219.174 321.73Q220.833 322.628 222.535 323.444Q224.237 324.26 225.976 324.991Q227.716 325.722 229.489 326.367Q231.263 327.012 233.065 327.569Q234.868 328.126 236.696 328.594Q238.524 329.062 240.373 329.44Q242.222 329.817 244.087 330.104Q245.952 330.391 247.829 330.585Q249.706 330.78 251.591 330.882Q253.475 330.984 255.362 330.994Q257.249 331.004 259.134 330.921Z"/>
	<defs>
		<linearGradient id="gradient_1" gradientUnits="userSpaceOnUse" x1="286.8306" y1="323.72015" x2="224.50739" y2="184.35851">
			<stop offset="0" stop-color="#3F5ACD"/>
			<stop offset="1" stop-color="#4C76F6"/>
		</linearGradient>
	</defs>
	<path fill="url(#gradient_1)" transform="scale(0.195312 0.195312)" d="M252.407 177.348Q254.292 177.266 256.178 177.276Q258.065 177.286 259.949 177.389Q261.833 177.492 263.709 177.687Q265.586 177.883 267.45 178.17Q269.315 178.457 271.163 178.835Q273.012 179.213 274.839 179.681Q276.667 180.15 278.469 180.707Q280.271 181.265 282.044 181.91Q283.817 182.555 285.556 183.287Q287.295 184.018 288.996 184.834Q290.697 185.65 292.356 186.548Q294.015 187.446 295.628 188.425Q297.241 189.404 298.804 190.46Q300.367 191.517 301.876 192.649Q303.385 193.781 304.837 194.986Q306.289 196.191 307.68 197.465Q309.071 198.74 310.398 200.081Q311.725 201.422 312.984 202.827Q314.244 204.231 315.433 205.696Q316.622 207.161 317.737 208.682Q318.853 210.204 319.893 211.778Q320.933 213.352 321.894 214.976Q322.855 216.599 323.735 218.268Q324.616 219.936 325.413 221.646Q326.211 223.356 326.923 225.103Q327.636 226.849 328.262 228.629Q328.888 230.409 329.426 232.217Q329.964 234.025 330.413 235.858Q330.861 237.69 331.22 239.543Q331.578 241.395 331.845 243.263Q332.112 245.13 332.286 247.009Q332.461 248.887 332.544 250.772Q332.627 252.657 332.617 254.543Q332.606 256.43 332.504 258.314Q332.401 260.198 332.206 262.074Q332.012 263.951 331.725 265.815Q331.438 267.68 331.06 269.528Q330.682 271.377 330.214 273.204Q329.746 275.032 329.189 276.834Q328.632 278.637 327.987 280.41Q327.342 282.183 326.611 283.922Q325.88 285.661 325.064 287.362Q324.249 289.063 323.351 290.722Q322.452 292.382 321.474 293.995Q320.496 295.608 319.439 297.171Q318.383 298.734 317.251 300.243Q316.119 301.753 314.915 303.205Q313.71 304.657 312.436 306.048Q311.162 307.439 309.821 308.767Q308.48 310.094 307.076 311.353Q305.671 312.613 304.207 313.802Q302.742 314.991 301.221 316.107Q299.7 317.223 298.126 318.263Q296.551 319.303 294.928 320.265Q293.305 321.226 291.637 322.107Q289.968 322.987 288.259 323.785Q286.549 324.583 284.802 325.296Q283.056 326.009 281.276 326.635Q279.496 327.262 277.688 327.8Q275.88 328.338 274.048 328.787Q272.215 329.236 270.363 329.595Q268.511 329.953 266.643 330.22Q264.776 330.488 262.897 330.663Q261.019 330.838 259.134 330.921Q257.249 331.004 255.362 330.994Q253.475 330.984 251.591 330.882Q249.706 330.78 247.829 330.585Q245.952 330.391 244.087 330.104Q242.222 329.817 240.373 329.44Q238.524 329.062 236.696 328.594Q234.868 328.126 233.065 327.569Q231.263 327.012 229.489 326.367Q227.716 325.722 225.976 324.991Q224.237 324.26 222.535 323.444Q220.833 322.628 219.174 321.73Q217.514 320.832 215.901 319.853Q214.287 318.875 212.724 317.818Q211.16 316.762 209.65 315.63Q208.141 314.498 206.688 313.293Q205.236 312.088 203.844 310.814Q202.453 309.539 201.125 308.198Q199.798 306.857 198.538 305.452Q197.278 304.047 196.089 302.582Q194.899 301.117 193.783 299.596Q192.667 298.074 191.627 296.5Q190.587 294.925 189.625 293.301Q188.664 291.678 187.783 290.009Q186.902 288.34 186.104 286.63Q185.307 284.92 184.594 283.173Q183.881 281.426 183.255 279.646Q182.628 277.865 182.09 276.057Q181.552 274.248 181.103 272.415Q180.654 270.582 180.296 268.73Q179.937 266.877 179.671 265.009Q179.404 263.141 179.229 261.262Q179.054 259.383 178.971 257.498Q178.888 255.613 178.898 253.726Q178.909 251.839 179.011 249.955Q179.114 248.07 179.309 246.194Q179.504 244.317 179.791 242.452Q180.077 240.586 180.456 238.738Q180.834 236.889 181.302 235.061Q181.77 233.233 182.328 231.43Q182.885 229.627 183.53 227.854Q184.175 226.081 184.907 224.341Q185.638 222.602 186.454 220.901Q187.27 219.199 188.169 217.54Q189.067 215.88 190.046 214.267Q191.025 212.654 192.082 211.09Q193.138 209.527 194.271 208.018Q195.403 206.508 196.608 205.056Q197.813 203.604 199.088 202.212Q200.362 200.821 201.704 199.494Q203.045 198.167 204.45 196.907Q205.855 195.647 207.32 194.458Q208.786 193.269 210.307 192.153Q211.829 191.037 213.404 189.998Q214.978 188.958 216.602 187.996Q218.226 187.035 219.895 186.155Q221.564 185.274 223.274 184.477Q224.984 183.679 226.732 182.966Q228.479 182.254 230.259 181.628Q232.039 181.002 233.848 180.464Q235.657 179.926 237.489 179.478Q239.322 179.029 241.175 178.671Q243.028 178.313 244.896 178.046Q246.764 177.78 248.643 177.605Q250.522 177.43 252.407 177.348ZM256.577 255.15C244.387 256.034 247.145 267.094 247.087 276.025C247.056 280.851 245.634 288.056 250.059 291.436C253.909 294.376 259.791 293.372 262.48 289.336C264.727 285.962 263.732 275.005 263.789 270.483C297.649 263.854 306.879 220.435 277.116 201.162C270.626 196.959 260.841 193.992 253.087 195.535C234.114 196.635 215.783 213.256 217.022 233.184C217.488 240.681 227.179 243.021 231.539 236.955C233.388 234.383 233.221 230.62 233.994 227.645C239.707 205.674 273.576 206.273 277.909 229.548C280.606 244.034 270.174 253.688 256.577 255.15ZM257.556 319.034Q257.764 318.988 257.969 318.931Q258.174 318.875 258.376 318.809Q258.578 318.742 258.776 318.666Q258.975 318.59 259.169 318.504Q259.364 318.418 259.554 318.323Q259.744 318.228 259.929 318.123Q260.114 318.019 260.294 317.905Q260.474 317.792 260.648 317.67Q260.822 317.548 260.99 317.417Q261.158 317.287 261.319 317.148Q261.48 317.009 261.634 316.863Q261.789 316.717 261.935 316.563Q262.082 316.409 262.221 316.248Q262.361 316.088 262.492 315.92Q262.623 315.753 262.745 315.579Q262.868 315.405 262.982 315.226Q263.096 315.046 263.201 314.862Q263.306 314.677 263.402 314.487Q263.498 314.297 263.584 314.103Q263.671 313.909 263.748 313.71Q263.824 313.512 263.891 313.31Q263.958 313.108 264.015 312.904Q264.072 312.699 264.119 312.491Q264.166 312.284 264.203 312.075Q264.239 311.865 264.266 311.654Q264.292 311.443 264.308 311.231Q264.324 311.019 264.329 310.807Q264.335 310.594 264.33 310.381Q264.325 310.169 264.31 309.957Q264.294 309.745 264.268 309.534Q264.243 309.323 264.206 309.113Q264.17 308.904 264.124 308.696Q264.078 308.489 264.021 308.284Q263.965 308.079 263.898 307.877Q263.832 307.675 263.756 307.476Q263.679 307.278 263.593 307.083Q263.507 306.889 263.412 306.699Q263.317 306.509 263.212 306.324Q263.107 306.139 262.994 305.959Q262.88 305.779 262.758 305.605Q262.636 305.431 262.505 305.263Q262.375 305.096 262.236 304.934Q262.097 304.773 261.951 304.619Q261.804 304.465 261.651 304.318Q261.497 304.172 261.336 304.033Q261.175 303.893 261.007 303.763Q260.84 303.632 260.666 303.509Q260.493 303.386 260.313 303.272Q260.134 303.159 259.949 303.054Q259.764 302.949 259.574 302.853Q259.384 302.757 259.19 302.671Q258.995 302.584 258.797 302.508Q258.599 302.431 258.397 302.364Q258.195 302.297 257.99 302.24Q257.786 302.184 257.578 302.137Q257.371 302.09 257.161 302.054Q256.952 302.017 256.741 301.991Q256.53 301.965 256.318 301.949Q256.106 301.933 255.893 301.928Q255.681 301.922 255.468 301.927Q255.256 301.932 255.044 301.948Q254.832 301.963 254.621 301.989Q254.409 302.015 254.2 302.051Q253.99 302.088 253.783 302.134Q253.576 302.18 253.371 302.237Q253.166 302.294 252.964 302.36Q252.763 302.427 252.564 302.503Q252.366 302.579 252.172 302.665Q251.977 302.751 251.788 302.846Q251.598 302.942 251.413 303.046Q251.228 303.151 251.048 303.264Q250.869 303.378 250.695 303.5Q250.521 303.622 250.354 303.753Q250.186 303.884 250.025 304.022Q249.864 304.161 249.71 304.307Q249.556 304.454 249.409 304.607Q249.263 304.761 249.124 304.922Q248.985 305.083 248.854 305.25Q248.723 305.417 248.601 305.591Q248.478 305.764 248.365 305.944Q248.251 306.123 248.146 306.308Q248.041 306.493 247.945 306.682Q247.849 306.872 247.763 307.066Q247.677 307.26 247.6 307.458Q247.524 307.657 247.457 307.858Q247.39 308.06 247.333 308.265Q247.276 308.469 247.229 308.677Q247.183 308.884 247.146 309.093Q247.109 309.302 247.083 309.513Q247.057 309.724 247.041 309.936Q247.025 310.148 247.02 310.36Q247.014 310.573 247.019 310.785Q247.024 310.997 247.04 311.209Q247.055 311.421 247.081 311.632Q247.107 311.843 247.143 312.052Q247.179 312.262 247.225 312.469Q247.271 312.676 247.328 312.881Q247.384 313.086 247.45 313.288Q247.517 313.49 247.593 313.688Q247.669 313.886 247.755 314.081Q247.841 314.275 247.936 314.465Q248.031 314.655 248.136 314.84Q248.24 315.025 248.354 315.205Q248.467 315.384 248.589 315.558Q248.711 315.732 248.842 315.9Q248.972 316.067 249.111 316.228Q249.249 316.39 249.396 316.544Q249.542 316.698 249.696 316.844Q249.849 316.991 250.01 317.13Q250.17 317.269 250.338 317.4Q250.505 317.531 250.679 317.654Q250.852 317.776 251.031 317.89Q251.211 318.004 251.395 318.109Q251.58 318.214 251.77 318.31Q251.959 318.406 252.153 318.492Q252.348 318.579 252.546 318.656Q252.744 318.732 252.945 318.799Q253.147 318.866 253.352 318.923Q253.556 318.98 253.764 319.027Q253.971 319.074 254.18 319.111Q254.389 319.148 254.6 319.174Q254.811 319.2 255.023 319.216Q255.235 319.232 255.447 319.238Q255.659 319.243 255.872 319.239Q256.084 319.234 256.296 319.219Q256.508 319.203 256.719 319.178Q256.93 319.152 257.139 319.116Q257.349 319.08 257.556 319.034Z"/>
	<path fill="#4C6AE3" transform="scale(0.195312 0.195312)" d="M249.261 113.256Q248.528 113.1 247.803 112.911Q247.078 112.722 246.362 112.5Q245.646 112.278 244.941 112.023Q244.237 111.769 243.544 111.482Q242.852 111.195 242.173 110.877Q241.495 110.559 240.832 110.209Q240.169 109.86 239.522 109.481Q238.876 109.102 238.248 108.694Q237.619 108.285 237.01 107.849Q236.401 107.412 235.813 106.947Q235.225 106.483 234.659 105.992Q234.092 105.502 233.549 104.985Q233.006 104.469 232.487 103.928Q231.968 103.388 231.474 102.824Q230.981 102.26 230.513 101.674Q230.046 101.088 229.606 100.481Q229.167 99.8746 228.755 99.2483Q228.344 98.622 227.961 97.9775Q227.579 97.3329 227.227 96.6715Q226.874 96.0101 226.553 95.3333Q226.231 94.6564 225.941 93.9655Q225.651 93.2746 225.392 92.5711Q225.134 91.8675 224.908 91.1529Q224.683 90.4383 224.49 89.7141Q224.298 88.9899 224.138 88.2576Q223.979 87.5253 223.854 86.7865Q223.728 86.0476 223.637 85.3038Q223.546 84.56 223.488 83.8128Q223.431 83.0656 223.408 82.3165Q223.386 81.5675 223.397 80.8182Q223.409 80.0689 223.455 79.3209Q223.501 78.5729 223.581 77.8278Q223.661 77.0827 223.776 76.3421Q223.89 75.6015 224.038 74.8669Q224.186 74.1323 224.368 73.4053Q224.55 72.6782 224.765 71.9603Q224.98 71.2424 225.227 70.5351Q225.475 69.8278 225.755 69.1327Q226.035 68.4375 226.346 67.7559Q226.658 67.0742 227 66.4077Q227.342 65.7411 227.715 65.0909Q228.088 64.4407 228.49 63.8083Q228.892 63.1759 229.323 62.5626Q229.753 61.9493 230.212 61.3565Q230.67 60.7636 231.155 60.1924Q231.64 59.6212 232.151 59.0728Q232.662 58.5245 233.197 58.0001Q233.732 57.4758 234.291 56.9766Q234.85 56.4774 235.432 56.0043Q236.013 55.5313 236.615 55.0854Q237.217 54.6395 237.84 54.2218Q238.462 53.804 239.102 53.4152Q239.743 53.0265 240.401 52.6675Q241.059 52.3086 241.732 51.9802Q242.406 51.6518 243.094 51.3546Q243.782 51.0575 244.483 50.7922Q245.184 50.527 245.896 50.2942Q246.608 50.0614 247.331 49.8615Q248.053 49.6616 248.783 49.4951Q249.514 49.3286 250.252 49.1957Q250.989 49.0629 251.732 48.9641Q252.475 48.8652 253.221 48.8006Q253.968 48.736 254.717 48.7056Q255.466 48.6753 256.215 48.6794Q256.964 48.6835 257.713 48.7219Q258.461 48.7604 259.207 48.8331Q259.953 48.9059 260.694 49.0128Q261.436 49.1197 262.172 49.2605Q262.908 49.4013 263.637 49.5758Q264.366 49.7502 265.086 49.9579Q265.806 50.1656 266.516 50.4062Q267.225 50.6467 267.923 50.9195Q268.621 51.1924 269.306 51.497Q269.991 51.8015 270.661 52.1372Q271.331 52.4729 271.984 52.839Q272.638 53.2051 273.275 53.6007Q273.911 53.9964 274.529 54.4209Q275.146 54.8454 275.744 55.2978Q276.341 55.7501 276.917 56.2294Q277.493 56.7087 278.047 57.214Q278.6 57.7192 279.13 58.2493Q279.659 58.7794 280.164 59.3332Q280.669 59.8871 281.148 60.4635Q281.627 61.0399 282.079 61.6377Q282.53 62.2355 282.954 62.8534Q283.378 63.4713 283.774 64.108Q284.169 64.7447 284.534 65.3989Q284.9 66.053 285.235 66.7233Q285.57 67.3935 285.874 68.0785Q286.178 68.7634 286.451 69.4616Q286.723 70.1597 286.963 70.8696Q287.203 71.5795 287.41 72.2997Q287.617 73.0199 287.791 73.7488Q287.965 74.4777 288.105 75.2139Q288.245 75.95 288.352 76.6918Q288.458 77.4336 288.53 78.1795Q288.602 78.9254 288.64 79.6738Q288.678 80.4222 288.681 81.1716Q288.685 81.921 288.654 82.6697Q288.623 83.4184 288.558 84.165Q288.492 84.9115 288.393 85.6542Q288.294 86.397 288.16 87.1344Q288.027 87.8718 287.86 88.6023Q287.693 89.3328 287.492 90.0549Q287.292 90.7769 287.058 91.4891Q286.825 92.2012 286.559 92.9018Q286.293 93.6025 285.996 94.2902Q285.698 94.9779 285.369 95.6512Q285.04 96.3245 284.681 96.9821Q284.321 97.6396 283.932 98.2799Q283.543 98.9203 283.124 99.5421Q282.706 100.164 282.26 100.766Q281.813 101.368 281.34 101.949Q280.866 102.529 280.367 103.088Q279.867 103.646 279.342 104.181Q278.818 104.716 278.269 105.227Q277.72 105.737 277.149 106.222Q276.577 106.706 275.984 107.164Q275.391 107.622 274.777 108.052Q274.163 108.482 273.531 108.884Q272.898 109.286 272.248 109.658Q271.597 110.03 270.93 110.372Q270.263 110.714 269.582 111.025Q268.9 111.335 268.204 111.615Q267.509 111.894 266.802 112.141Q266.094 112.388 265.376 112.603Q264.658 112.817 263.931 112.998Q263.204 113.179 262.469 113.327Q260.838 113.655 259.181 113.815Q257.525 113.975 255.861 113.966Q254.197 113.958 252.543 113.779Q250.889 113.601 249.261 113.256Z"/>
	<defs>
		<linearGradient id="gradient_2" gradientUnits="userSpaceOnUse" x1="240.93024" y1="92.018433" x2="270.86459" y2="70.065369">
			<stop offset="0" stop-color="#5DBCE3"/>
			<stop offset="1" stop-color="#8EF1FF"/>
		</linearGradient>
	</defs>
	<path fill="url(#gradient_2)" transform="scale(0.195312 0.195312)" d="M252.72 62.3418Q253.183 62.2607 253.649 62.2026Q254.116 62.1444 254.585 62.1092Q255.053 62.0741 255.523 62.0621Q255.993 62.05 256.463 62.0611Q256.933 62.0722 257.402 62.1064Q257.871 62.1406 258.337 62.1979Q258.804 62.2551 259.267 62.3353Q259.73 62.4154 260.189 62.5182Q260.647 62.6211 261.1 62.7463Q261.553 62.8716 262 63.019Q262.446 63.1665 262.884 63.3357Q263.323 63.5049 263.753 63.6955Q264.182 63.886 264.602 64.0975Q265.022 64.309 265.431 64.5409Q265.84 64.7728 266.237 65.0246Q266.633 65.2763 267.018 65.5473Q267.402 65.8183 267.772 66.1078Q268.142 66.3974 268.498 66.7048Q268.853 67.0122 269.193 67.3367Q269.533 67.6613 269.857 68.0022Q270.181 68.343 270.487 68.6994Q270.794 69.0558 271.082 69.4269Q271.371 69.7979 271.641 70.1827Q271.911 70.5675 272.161 70.9651Q272.412 71.3627 272.643 71.7722Q272.874 72.1817 273.084 72.602Q273.294 73.0224 273.484 73.4525Q273.673 73.8827 273.841 74.3217Q274.009 74.7607 274.155 75.2074Q274.302 75.6541 274.426 76.1075Q274.55 76.5609 274.651 77.0198Q274.753 77.4787 274.832 77.9421Q274.911 78.4055 274.967 78.8722Q275.023 79.3389 275.056 79.8077Q275.089 80.2766 275.099 80.7466Q275.109 81.2165 275.095 81.6863Q275.082 82.1562 275.046 82.6248Q275.009 83.0934 274.95 83.5597Q274.89 84.026 274.808 84.4887Q274.726 84.9515 274.621 85.4097Q274.516 85.8679 274.388 86.3203Q274.261 86.7728 274.112 87.2184Q273.962 87.664 273.791 88.1017Q273.62 88.5395 273.427 88.9683Q273.234 89.397 273.021 89.8158Q272.807 90.2346 272.574 90.6423Q272.34 91.0501 272.086 91.4459Q271.833 91.8416 271.56 92.2244Q271.287 92.6073 270.996 92.9762Q270.705 93.3451 270.396 93.6992Q270.087 94.0534 269.76 94.3919Q269.434 94.7304 269.092 95.0524Q268.75 95.3745 268.392 95.6793Q268.034 95.9841 267.661 96.2709Q267.289 96.5577 266.903 96.8258Q266.517 97.094 266.118 97.3428Q265.719 97.5916 265.309 97.8205Q264.898 98.0494 264.477 98.2579Q264.056 98.4663 263.625 98.6537Q263.194 98.8411 262.754 99.0071Q262.314 99.1731 261.867 99.3173Q261.419 99.4614 260.965 99.5834Q260.512 99.7053 260.052 99.8048Q259.593 99.9043 259.129 99.981Q258.668 100.057 258.204 100.111Q257.74 100.165 257.273 100.195Q256.807 100.226 256.34 100.234Q255.873 100.242 255.406 100.228Q254.939 100.213 254.473 100.175Q254.007 100.137 253.544 100.077Q253.081 100.017 252.621 99.9336Q252.161 99.8506 251.706 99.7452Q251.25 99.6398 250.801 99.5123Q250.351 99.3847 249.909 99.2353Q249.466 99.0859 249.031 98.9151Q248.596 98.7442 248.17 98.5523Q247.744 98.3603 247.328 98.1478Q246.912 97.9352 246.507 97.7026Q246.101 97.4699 245.708 97.2177Q245.315 96.9655 244.934 96.6944Q244.553 96.4232 244.187 96.1338Q243.82 95.8444 243.468 95.5373Q243.115 95.2303 242.779 94.9064Q242.442 94.5825 242.121 94.2425Q241.801 93.9025 241.497 93.5472Q241.194 93.192 240.908 92.8223Q240.622 92.4526 240.355 92.0694Q240.087 91.6861 239.839 91.2903Q239.591 90.8944 239.362 90.4869Q239.134 90.0794 238.925 89.6612Q238.717 89.243 238.529 88.8151Q238.341 88.3872 238.175 87.9506Q238.008 87.514 237.863 87.0698Q237.718 86.6256 237.595 86.1748Q237.472 85.724 237.371 85.2678Q237.27 84.8115 237.192 84.3509Q237.114 83.8903 237.058 83.4264Q237.002 82.9624 236.969 82.4963Q236.936 82.0302 236.926 81.5631Q236.915 81.0959 236.928 80.6288Q236.941 80.1618 236.976 79.6959Q237.012 79.2299 237.07 78.7663Q237.128 78.3027 237.209 77.8425Q237.29 77.3823 237.393 76.9266Q237.497 76.4709 237.622 76.0208Q237.748 75.5707 237.895 75.1272Q238.042 74.6838 238.211 74.2481Q238.38 73.8124 238.57 73.3855Q238.76 72.9586 238.97 72.5415Q239.181 72.1244 239.412 71.7181Q239.643 71.3118 239.893 70.9173Q240.143 70.5228 240.413 70.141Q240.682 69.7592 240.97 69.391Q241.258 69.0228 241.563 68.6692Q241.868 68.3155 242.191 67.9772Q242.513 67.639 242.852 67.3168Q243.19 66.9947 243.544 66.6896Q243.898 66.3844 244.266 66.0969Q244.634 65.8094 245.016 65.5403Q245.398 65.2712 245.793 65.0211Q246.188 64.771 246.594 64.5404Q247.001 64.3099 247.418 64.0996Q247.835 63.8892 248.262 63.6996Q248.689 63.5099 249.125 63.3413Q249.561 63.1728 250.004 63.0257Q250.448 62.8787 250.898 62.7535Q251.348 62.6284 251.804 62.5254Q252.26 62.4224 252.72 62.3418Z"/>
	<path fill="#4C6AE3" transform="scale(0.195312 0.195312)" d="M114.734 261.24Q114.562 261.968 114.358 262.688Q114.153 263.408 113.915 264.117Q113.677 264.827 113.408 265.525Q113.138 266.223 112.836 266.908Q112.534 267.593 112.202 268.263Q111.869 268.933 111.506 269.588Q111.143 270.242 110.75 270.879Q110.358 271.516 109.936 272.135Q109.515 272.753 109.065 273.351Q108.616 273.95 108.14 274.527Q107.663 275.104 107.161 275.659Q106.659 276.214 106.132 276.745Q105.605 277.276 105.054 277.783Q104.503 278.289 103.929 278.77Q103.356 279.25 102.761 279.704Q102.166 280.158 101.551 280.584Q100.935 281.01 100.301 281.408Q99.6672 281.805 99.0156 282.173Q98.364 282.541 97.6962 282.879Q97.0284 283.217 96.3459 283.523Q95.6633 283.83 94.9674 284.105Q94.2715 284.381 93.5637 284.624Q92.8559 284.867 92.1377 285.077Q91.4195 285.287 90.6925 285.464Q89.9654 285.641 89.231 285.785Q88.4965 285.929 87.7563 286.039Q87.0161 286.148 86.2716 286.224Q85.5271 286.3 84.7799 286.342Q84.0327 286.383 83.2844 286.391Q82.5361 286.398 81.7883 286.371Q81.0404 286.344 80.2946 286.283Q79.5487 286.221 78.8065 286.126Q78.0643 286.031 77.3272 285.901Q76.5901 285.772 75.8597 285.609Q75.1293 285.446 74.4072 285.25Q73.685 285.054 72.9726 284.825Q72.2603 284.596 71.5591 284.334Q70.858 284.073 70.1695 283.779Q69.4811 283.486 68.8069 283.161Q68.1326 282.837 67.4739 282.481Q66.8153 282.126 66.1736 281.741Q65.5319 281.356 64.9085 280.942Q64.2851 280.528 63.6814 280.086Q63.0776 279.644 62.4948 279.175Q61.9119 278.705 61.3512 278.21Q60.7905 277.714 60.253 277.193Q59.7156 276.673 59.2026 276.128Q58.6896 275.583 58.2021 275.015Q57.7147 274.447 57.2537 273.858Q56.7928 273.268 56.3593 272.658Q55.9259 272.048 55.5209 271.419Q55.1158 270.79 54.7401 270.143Q54.3643 269.496 54.0186 268.832Q53.6729 268.168 53.3579 267.489Q53.043 266.81 52.7595 266.118Q52.476 265.425 52.2246 264.721Q51.9731 264.016 51.7543 263.3Q51.5354 262.585 51.3495 261.86Q51.1637 261.135 51.0112 260.402Q50.8588 259.669 50.7401 258.931Q50.6214 258.192 50.5367 257.448Q50.452 256.705 50.4014 255.958Q50.3509 255.211 50.3346 254.463Q50.3184 253.715 50.3364 252.967Q50.3544 252.219 50.4068 251.472Q50.4591 250.726 50.5455 249.983Q50.632 249.239 50.7525 248.501Q50.8729 247.762 51.0271 247.03Q51.1813 246.298 51.3688 245.573Q51.5564 244.849 51.777 244.134Q51.9975 243.419 52.2506 242.714Q52.5038 242.01 52.7889 241.318Q53.074 240.626 53.3905 239.948Q53.7071 239.27 54.0544 238.607Q54.4016 237.945 54.7789 237.298Q55.1562 236.652 55.5627 236.024Q55.9692 235.396 56.4041 234.787Q56.839 234.178 57.3013 233.589Q57.7637 233.001 58.2525 232.434Q58.7413 231.868 59.2556 231.324Q59.7699 230.78 60.3085 230.261Q60.8471 229.741 61.409 229.247Q61.9709 228.753 62.5549 228.285Q63.1388 227.817 63.7436 227.376Q64.3484 226.936 64.9727 226.523Q65.5971 226.11 66.2397 225.727Q66.8822 225.344 67.5417 224.99Q68.2012 224.636 68.8763 224.313Q69.5513 223.99 70.2404 223.698Q70.9295 223.407 71.6312 223.147Q72.333 222.887 73.0459 222.66Q73.7588 222.432 74.4814 222.238Q75.204 222.043 75.9348 221.882Q76.6655 221.721 77.4029 221.593Q78.1403 221.466 78.8827 221.372Q79.6251 221.278 80.3711 221.219Q81.1171 221.16 81.865 221.134Q82.6129 221.109 83.3611 221.118Q84.1094 221.127 84.8565 221.171Q85.6035 221.214 86.3478 221.292Q87.0921 221.369 87.8321 221.481Q88.572 221.592 89.3061 221.738Q90.0402 221.883 90.7668 222.062Q91.4934 222.241 92.2111 222.453Q92.9288 222.665 93.636 222.909Q94.3432 223.154 95.0384 223.431Q95.7336 223.708 96.4155 224.016Q97.0973 224.325 97.7643 224.664Q98.4312 225.003 99.082 225.373Q99.7327 225.742 100.366 226.141Q100.999 226.54 101.613 226.968Q102.227 227.395 102.821 227.85Q103.415 228.306 103.987 228.788Q104.56 229.27 105.11 229.777Q105.659 230.285 106.185 230.818Q106.711 231.35 107.212 231.906Q107.713 232.462 108.188 233.04Q108.663 233.618 109.111 234.218Q109.559 234.817 109.979 235.437Q110.399 236.056 110.79 236.694Q111.181 237.332 111.542 237.987Q111.904 238.642 112.235 239.314Q112.566 239.985 112.866 240.67Q113.166 241.356 113.434 242.054Q113.703 242.753 113.939 243.463Q114.174 244.173 114.378 244.893Q114.581 245.614 114.751 246.342Q114.921 247.071 115.057 247.807Q115.366 249.472 115.5 251.16Q115.635 252.848 115.594 254.54Q115.554 256.233 115.338 257.912Q115.122 259.592 114.734 261.24Z"/>
	<path fill="#F5B281" transform="scale(0.195312 0.195312)" d="M80.4466 235.758Q80.888 235.695 81.3319 235.653Q81.7758 235.612 82.2212 235.592Q82.6667 235.573 83.1125 235.575Q83.5584 235.578 84.0036 235.602Q84.4487 235.627 84.8922 235.673Q85.3356 235.719 85.7762 235.788Q86.2169 235.856 86.6536 235.945Q87.0903 236.035 87.5221 236.146Q87.9539 236.257 88.3797 236.39Q88.8055 236.522 89.2242 236.675Q89.643 236.828 90.0536 237.002Q90.4644 237.175 90.866 237.369Q91.2677 237.562 91.6593 237.775Q92.0509 237.989 92.4316 238.221Q92.8122 238.453 93.181 238.703Q93.5497 238.954 93.9057 239.222Q94.2617 239.491 94.604 239.777Q94.9463 240.062 95.2741 240.365Q95.6019 240.667 95.9145 240.985Q96.227 241.303 96.5235 241.636Q96.82 241.969 97.0997 242.316Q97.3795 242.663 97.6418 243.024Q97.9041 243.384 98.1483 243.757Q98.3925 244.13 98.618 244.515Q98.8436 244.899 99.0499 245.295Q99.2562 245.69 99.4428 246.095Q99.6294 246.5 99.7958 246.913Q99.9622 247.327 100.108 247.748Q100.254 248.17 100.379 248.598Q100.504 249.026 100.607 249.459Q100.711 249.893 100.793 250.331Q100.875 250.769 100.936 251.211Q100.996 251.653 101.035 252.097Q101.074 252.541 101.091 252.987Q101.107 253.432 101.102 253.878Q101.097 254.324 101.07 254.769Q101.042 255.214 100.993 255.657Q100.944 256.1 100.873 256.54Q100.803 256.98 100.71 257.417Q100.618 257.853 100.504 258.284Q100.39 258.715 100.255 259.14Q100.12 259.565 99.9645 259.983Q99.8088 260.4 99.6327 260.81Q99.4567 261.22 99.2606 261.62Q99.0646 262.021 98.8491 262.411Q98.6335 262.801 98.399 263.18Q98.1645 263.56 97.9116 263.927Q97.6588 264.294 97.3881 264.648Q97.1174 265.003 96.8296 265.343Q96.5418 265.684 96.2376 266.01Q95.9334 266.335 95.6135 266.646Q95.2936 266.957 94.9588 267.251Q94.624 267.545 94.2751 267.823Q93.9261 268.101 93.564 268.361Q93.2018 268.621 92.8273 268.863Q92.4528 269.104 92.0668 269.328Q91.6808 269.551 91.2843 269.755Q90.8877 269.958 90.4817 270.143Q90.0756 270.327 89.6609 270.49Q89.2463 270.654 88.8241 270.798Q88.4019 270.941 87.9731 271.063Q87.5443 271.185 87.1101 271.286Q86.6758 271.387 86.2371 271.467Q85.7984 271.546 85.3563 271.604Q84.9177 271.661 84.4768 271.697Q84.0359 271.733 83.5937 271.747Q83.1516 271.761 82.7093 271.754Q82.267 271.747 81.8256 271.718Q81.3842 271.689 80.9448 271.638Q80.5053 271.587 80.0689 271.516Q79.6324 271.444 79.2 271.35Q78.7676 271.257 78.3402 271.143Q77.9129 271.029 77.4916 270.894Q77.0703 270.759 76.6562 270.603Q76.242 270.448 75.836 270.272Q75.4299 270.097 75.0329 269.902Q74.6359 269.707 74.2489 269.492Q73.8619 269.278 73.4858 269.045Q73.1098 268.812 72.7456 268.561Q72.3813 268.31 72.0298 268.042Q71.6783 267.773 71.3403 267.488Q71.0023 267.202 70.6787 266.901Q70.3551 266.599 70.0466 266.282Q69.7381 265.965 69.4455 265.633Q69.1528 265.302 68.8768 264.956Q68.6007 264.61 68.3418 264.252Q68.083 263.893 67.842 263.522Q67.601 263.151 67.3784 262.769Q67.1558 262.387 66.9521 261.994Q66.7485 261.601 66.5643 261.199Q66.3801 260.797 66.2157 260.386Q66.0514 259.975 65.9074 259.557Q65.7633 259.139 65.6398 258.714Q65.5164 258.289 65.4139 257.859Q65.3113 257.429 65.2299 256.994Q65.1485 256.559 65.0885 256.121Q65.0285 255.683 64.9899 255.242Q64.9514 254.801 64.9344 254.359Q64.9175 253.917 64.9222 253.475Q64.9268 253.033 64.9531 252.591Q64.9794 252.149 65.0273 251.71Q65.0751 251.27 65.1444 250.833Q65.2137 250.396 65.3042 249.963Q65.3947 249.53 65.5064 249.102Q65.618 248.674 65.7503 248.252Q65.8827 247.83 66.0356 247.415Q66.1884 247 66.3614 246.592Q66.5344 246.185 66.727 245.787Q66.9197 245.389 67.1316 245.001Q67.3435 244.612 67.5741 244.235Q67.8047 243.857 68.0535 243.492Q68.3023 243.126 68.5687 242.773Q68.835 242.419 69.1183 242.08Q69.4016 241.74 69.7012 241.414Q70.0008 241.089 70.3159 240.779Q70.631 240.468 70.961 240.173Q71.2909 239.879 71.6348 239.601Q71.9788 239.322 72.3359 239.061Q72.693 238.8 73.0624 238.557Q73.4319 238.314 73.8128 238.089Q74.1937 237.864 74.5851 237.658Q74.9766 237.452 75.3776 237.265Q75.7786 237.078 76.1883 236.911Q76.598 236.745 77.0154 236.598Q77.4327 236.451 77.8567 236.325Q78.2807 236.199 78.7104 236.094Q79.1401 235.989 79.5744 235.905Q80.0087 235.821 80.4466 235.758Z"/>
	<defs>
		<linearGradient id="gradient_3" gradientUnits="userSpaceOnUse" x1="415.48993" y1="282.7244" x2="442.22467" y2="224.35289">
			<stop offset="0" stop-color="#445ACC"/>
			<stop offset="1" stop-color="#577BF1"/>
		</linearGradient>
	</defs>
	<path fill="url(#gradient_3)" transform="scale(0.195312 0.195312)" d="M396.765 248.492Q396.886 247.753 397.04 247.02Q397.195 246.288 397.383 245.563Q397.571 244.838 397.792 244.123Q398.013 243.407 398.266 242.703Q398.52 241.999 398.806 241.306Q399.092 240.614 399.409 239.936Q399.726 239.258 400.074 238.595Q400.422 237.932 400.8 237.286Q401.179 236.64 401.586 236.011Q401.993 235.383 402.429 234.774Q402.865 234.165 403.328 233.577Q403.792 232.989 404.282 232.423Q404.772 231.857 405.287 231.313Q405.802 230.77 406.342 230.251Q406.882 229.732 407.445 229.239Q408.008 228.745 408.593 228.278Q409.178 227.811 409.784 227.371Q410.39 226.931 411.015 226.52Q411.641 226.108 412.285 225.726Q412.928 225.343 413.589 224.991Q414.25 224.638 414.926 224.317Q415.602 223.995 416.292 223.705Q416.982 223.414 417.685 223.156Q418.388 222.898 419.102 222.672Q419.816 222.446 420.539 222.253Q421.263 222.061 421.994 221.901Q422.726 221.742 423.464 221.616Q424.202 221.491 424.945 221.399Q425.688 221.308 426.435 221.25Q427.182 221.193 427.93 221.17Q428.678 221.147 429.427 221.159Q430.176 221.17 430.923 221.216Q431.67 221.262 432.415 221.342Q433.159 221.422 433.899 221.536Q434.639 221.65 435.373 221.798Q436.107 221.947 436.833 222.128Q437.56 222.31 438.277 222.525Q438.994 222.739 439.701 222.987Q440.408 223.234 441.102 223.514Q441.797 223.794 442.478 224.105Q443.159 224.416 443.825 224.759Q444.491 225.101 445.14 225.473Q445.79 225.846 446.422 226.248Q447.053 226.649 447.666 227.08Q448.278 227.51 448.871 227.969Q449.463 228.427 450.033 228.912Q450.604 229.397 451.152 229.907Q451.699 230.418 452.223 230.953Q452.747 231.488 453.245 232.047Q453.744 232.605 454.216 233.186Q454.688 233.767 455.133 234.369Q455.578 234.971 455.996 235.593Q456.413 236.215 456.801 236.855Q457.189 237.496 457.547 238.153Q457.905 238.811 458.233 239.484Q458.56 240.157 458.857 240.845Q459.153 241.533 459.418 242.233Q459.682 242.934 459.914 243.645Q460.146 244.357 460.345 245.079Q460.544 245.801 460.71 246.531Q460.876 247.261 461.008 247.998Q461.14 248.735 461.238 249.477Q461.336 250.22 461.4 250.966Q461.464 251.712 461.493 252.46Q461.523 253.208 461.518 253.957Q461.513 254.706 461.474 255.453Q461.434 256.201 461.361 256.946Q461.287 257.691 461.179 258.432Q461.072 259.173 460.93 259.909Q460.789 260.644 460.613 261.372Q460.438 262.1 460.23 262.819Q460.021 263.538 459.78 264.247Q459.538 264.956 459.265 265.653Q458.991 266.35 458.686 267.033Q458.381 267.717 458.044 268.386Q457.708 269.055 457.341 269.708Q456.974 270.361 456.578 270.996Q456.182 271.631 455.756 272.247Q455.331 272.864 454.878 273.46Q454.425 274.056 453.946 274.631Q453.466 275.206 452.96 275.758Q452.454 276.31 451.924 276.838Q451.393 277.367 450.839 277.87Q450.284 278.373 449.708 278.851Q449.131 279.328 448.533 279.779Q447.934 280.229 447.316 280.651Q446.698 281.074 446.061 281.468Q445.424 281.861 444.77 282.225Q444.115 282.589 443.445 282.923Q442.775 283.256 442.09 283.559Q441.405 283.861 440.706 284.131Q440.008 284.402 439.298 284.64Q438.589 284.879 437.869 285.084Q437.149 285.289 436.42 285.461Q435.691 285.634 434.955 285.772Q434.219 285.91 433.478 286.015Q432.737 286.12 431.991 286.19Q431.246 286.26 430.498 286.296Q429.75 286.332 429.001 286.334Q428.252 286.336 427.504 286.303Q426.756 286.27 426.011 286.203Q425.265 286.136 424.523 286.035Q423.781 285.934 423.045 285.799Q422.308 285.664 421.579 285.495Q420.849 285.326 420.128 285.124Q419.407 284.922 418.697 284.686Q417.986 284.451 417.286 284.184Q416.587 283.917 415.901 283.617Q415.214 283.318 414.542 282.987Q413.871 282.657 413.215 282.296Q412.559 281.935 411.92 281.544Q411.281 281.153 410.661 280.734Q410.041 280.314 409.441 279.866Q408.841 279.418 408.262 278.944Q407.683 278.469 407.126 277.968Q406.57 277.467 406.037 276.941Q405.504 276.415 404.996 275.865Q404.487 275.316 404.005 274.743Q403.523 274.17 403.067 273.576Q402.611 272.982 402.184 272.368Q401.756 271.753 401.356 271.12Q400.957 270.486 400.588 269.835Q400.218 269.184 399.878 268.517Q399.539 267.849 399.231 267.167Q398.922 266.484 398.646 265.789Q398.369 265.093 398.124 264.385Q397.88 263.678 397.668 262.959Q397.457 262.241 397.278 261.514Q396.887 259.92 396.658 258.294Q396.429 256.669 396.364 255.029Q396.299 253.389 396.4 251.75Q396.5 250.112 396.765 248.492Z"/>
	<defs>
		<linearGradient id="gradient_4" gradientUnits="userSpaceOnUse" x1="413.00464" y1="261.04428" x2="444.43796" y2="245.85428">
			<stop offset="0" stop-color="#F4BC4C"/>
			<stop offset="1" stop-color="#F9E995"/>
		</linearGradient>
	</defs>
	<path fill="url(#gradient_4)" transform="scale(0.195312 0.195312)" d="M426.248 235.88Q426.683 235.815 427.121 235.771Q427.559 235.728 427.999 235.706Q428.438 235.684 428.878 235.684Q429.318 235.683 429.758 235.705Q430.198 235.726 430.636 235.769Q431.074 235.812 431.509 235.876Q431.944 235.941 432.376 236.027Q432.808 236.112 433.235 236.219Q433.662 236.326 434.083 236.454Q434.504 236.582 434.918 236.73Q435.333 236.879 435.739 237.047Q436.146 237.216 436.543 237.404Q436.941 237.593 437.329 237.8Q437.717 238.008 438.094 238.235Q438.472 238.461 438.837 238.706Q439.203 238.951 439.556 239.214Q439.909 239.476 440.249 239.756Q440.589 240.035 440.915 240.331Q441.241 240.627 441.551 240.939Q441.862 241.251 442.157 241.577Q442.452 241.904 442.731 242.245Q443.009 242.585 443.271 242.939Q443.532 243.293 443.776 243.66Q444.02 244.026 444.245 244.404Q444.47 244.782 444.677 245.171Q444.884 245.56 445.071 245.958Q445.258 246.356 445.425 246.763Q445.593 247.17 445.74 247.585Q445.887 248 446.013 248.422Q446.14 248.843 446.245 249.27Q446.351 249.698 446.435 250.13Q446.52 250.561 446.583 250.997Q446.646 251.433 446.688 251.871Q446.729 252.309 446.749 252.748Q446.769 253.188 446.768 253.628Q446.766 254.068 446.743 254.508Q446.719 254.947 446.674 255.385Q446.63 255.823 446.563 256.258Q446.497 256.693 446.409 257.124Q446.321 257.556 446.212 257.982Q446.104 258.409 445.974 258.829Q445.844 259.25 445.694 259.663Q445.544 260.077 445.373 260.483Q445.203 260.889 445.013 261.285Q444.822 261.682 444.613 262.069Q444.404 262.456 444.175 262.833Q443.947 263.209 443.7 263.574Q443.454 263.938 443.19 264.29Q442.926 264.642 442.645 264.981Q442.363 265.319 442.066 265.644Q441.768 265.968 441.455 266.277Q441.142 266.587 440.814 266.88Q440.486 267.174 440.144 267.451Q439.803 267.728 439.447 267.988Q439.092 268.248 438.725 268.49Q438.357 268.732 437.978 268.956Q437.599 269.179 437.209 269.384Q436.82 269.589 436.421 269.774Q436.022 269.96 435.614 270.125Q435.206 270.291 434.791 270.436Q434.375 270.581 433.953 270.706Q433.531 270.83 433.103 270.934Q432.675 271.038 432.243 271.12Q431.811 271.203 431.375 271.264Q430.942 271.325 430.506 271.364Q430.07 271.404 429.633 271.422Q429.196 271.44 428.758 271.437Q428.32 271.434 427.883 271.409Q427.446 271.385 427.011 271.339Q426.576 271.293 426.144 271.225Q425.711 271.158 425.283 271.07Q424.854 270.982 424.43 270.872Q424.006 270.763 423.589 270.633Q423.171 270.504 422.76 270.353Q422.348 270.203 421.945 270.033Q421.542 269.863 421.148 269.674Q420.753 269.484 420.368 269.276Q419.984 269.067 419.61 268.84Q419.236 268.613 418.873 268.368Q418.511 268.122 418.161 267.86Q417.811 267.597 417.474 267.318Q417.137 267.038 416.814 266.743Q416.492 266.447 416.184 266.136Q415.876 265.825 415.584 265.499Q415.292 265.173 415.016 264.834Q414.74 264.494 414.481 264.141Q414.222 263.789 413.98 263.424Q413.739 263.059 413.516 262.682Q413.292 262.306 413.088 261.919Q412.883 261.532 412.698 261.136Q412.512 260.74 412.346 260.335Q412.181 259.93 412.035 259.517Q411.889 259.104 411.763 258.685Q411.638 258.266 411.533 257.841Q411.428 257.416 411.345 256.987Q411.261 256.557 411.198 256.124Q411.135 255.691 411.094 255.255Q411.052 254.82 411.032 254.382Q411.012 253.945 411.013 253.508Q411.015 253.07 411.037 252.633Q411.06 252.196 411.104 251.761Q411.148 251.325 411.213 250.893Q411.279 250.46 411.365 250.031Q411.452 249.602 411.559 249.178Q411.666 248.753 411.794 248.335Q411.922 247.916 412.07 247.505Q412.219 247.093 412.387 246.689Q412.555 246.285 412.743 245.89Q412.93 245.494 413.137 245.109Q413.344 244.723 413.57 244.348Q413.795 243.973 414.039 243.61Q414.282 243.246 414.544 242.895Q414.805 242.544 415.083 242.206Q415.361 241.868 415.655 241.544Q415.949 241.22 416.258 240.91Q416.568 240.601 416.893 240.308Q417.217 240.014 417.555 239.736Q417.894 239.459 418.245 239.198Q418.597 238.938 418.961 238.695Q419.325 238.452 419.7 238.227Q420.076 238.002 420.461 237.795Q420.847 237.589 421.243 237.402Q421.638 237.215 422.043 237.047Q422.447 236.879 422.859 236.732Q423.271 236.584 423.689 236.457Q424.108 236.33 424.533 236.223Q424.957 236.116 425.386 236.03Q425.815 235.945 426.248 235.88Z"/>
	<path fill="#4C6AE3" transform="scale(0.195312 0.195312)" d="M250.515 394.934Q252.001 394.67 253.505 394.546Q255.009 394.421 256.519 394.438Q258.028 394.454 259.529 394.611Q261.03 394.767 262.51 395.063Q263.243 395.209 263.968 395.389Q264.693 395.569 265.409 395.783Q266.124 395.996 266.83 396.242Q267.535 396.488 268.228 396.767Q268.921 397.045 269.601 397.355Q270.281 397.665 270.945 398.006Q271.61 398.348 272.258 398.719Q272.906 399.091 273.536 399.492Q274.167 399.892 274.778 400.322Q275.389 400.752 275.98 401.209Q276.57 401.667 277.139 402.151Q277.708 402.635 278.254 403.145Q278.8 403.655 279.322 404.189Q279.843 404.724 280.34 405.282Q280.836 405.84 281.307 406.42Q281.777 407.001 282.22 407.602Q282.663 408.204 283.078 408.825Q283.493 409.446 283.878 410.086Q284.264 410.726 284.62 411.383Q284.975 412.04 285.3 412.712Q285.625 413.385 285.919 414.072Q286.213 414.759 286.474 415.459Q286.736 416.158 286.965 416.869Q287.194 417.58 287.39 418.301Q287.586 419.022 287.748 419.751Q287.911 420.48 288.039 421.216Q288.168 421.952 288.263 422.693Q288.357 423.434 288.417 424.179Q288.478 424.923 288.503 425.67Q288.529 426.417 288.521 427.163Q288.512 427.91 288.469 428.656Q288.426 429.402 288.348 430.145Q288.27 430.888 288.159 431.627Q288.047 432.365 287.901 433.098Q287.755 433.831 287.576 434.556Q287.397 435.281 287.184 435.997Q286.971 436.713 286.726 437.419Q286.48 438.124 286.203 438.818Q285.925 439.511 285.615 440.191Q285.306 440.871 284.965 441.536Q284.625 442.201 284.254 442.849Q283.883 443.498 283.482 444.128Q283.082 444.759 282.653 445.371Q282.224 445.982 281.767 446.573Q281.31 447.164 280.826 447.733Q280.343 448.303 279.833 448.849Q279.324 449.396 278.79 449.918Q278.255 450.44 277.698 450.937Q277.14 451.434 276.56 451.905Q275.98 452.376 275.379 452.819Q274.778 453.263 274.157 453.678Q273.536 454.094 272.897 454.48Q272.257 454.866 271.6 455.222Q270.944 455.579 270.272 455.904Q269.599 456.23 268.913 456.524Q268.226 456.818 267.526 457.081Q266.827 457.343 266.116 457.572Q265.405 457.802 264.684 457.999Q263.964 458.195 263.235 458.358Q262.506 458.521 261.77 458.651Q261.034 458.78 260.293 458.875Q259.552 458.97 258.808 459.031Q258.063 459.092 257.317 459.119Q256.57 459.145 255.823 459.137Q255.076 459.129 254.33 459.086Q253.584 459.044 252.841 458.967Q252.098 458.89 251.36 458.779Q250.621 458.668 249.888 458.523Q249.155 458.378 248.43 458.199Q247.705 458.02 246.988 457.808Q246.272 457.596 245.566 457.351Q244.86 457.107 244.167 456.829Q243.473 456.552 242.793 456.243Q242.113 455.934 241.448 455.595Q240.782 455.255 240.134 454.884Q239.485 454.514 238.854 454.114Q238.223 453.714 237.611 453.286Q236.999 452.857 236.408 452.401Q235.816 451.944 235.246 451.461Q234.677 450.978 234.13 450.469Q233.583 449.96 233.06 449.426Q232.537 448.893 232.04 448.336Q231.542 447.778 231.071 447.199Q230.6 446.619 230.156 446.019Q229.712 445.418 229.296 444.797Q228.88 444.177 228.493 443.538Q228.106 442.899 227.749 442.242Q227.392 441.586 227.066 440.914Q226.74 440.242 226.445 439.556Q226.15 438.869 225.888 438.17Q225.625 437.471 225.394 436.76Q225.164 436.049 224.967 435.329Q224.77 434.608 224.606 433.879Q224.442 433.151 224.312 432.415Q224.182 431.679 224.086 430.938Q223.991 430.198 223.929 429.453Q223.867 428.708 223.84 427.962Q223.813 427.215 223.821 426.468Q223.828 425.721 223.87 424.976Q223.912 424.23 223.988 423.487Q224.064 422.743 224.174 422.005Q224.285 421.266 224.429 420.533Q224.574 419.8 224.752 419.074Q224.93 418.349 225.141 417.632Q225.353 416.916 225.597 416.21Q225.841 415.504 226.118 414.81Q226.394 414.116 226.703 413.436Q227.011 412.755 227.35 412.09Q227.69 411.424 228.06 410.775Q228.429 410.126 228.829 409.495Q229.228 408.863 229.656 408.251Q230.084 407.639 230.54 407.047Q230.996 406.455 231.478 405.885Q231.961 405.315 232.469 404.767Q232.978 404.22 233.511 403.697Q234.044 403.174 234.601 402.676Q235.158 402.178 235.737 401.706Q236.316 401.234 236.916 400.789Q237.517 400.345 238.137 399.928Q238.757 399.512 239.396 399.125Q240.035 398.737 240.691 398.38Q241.347 398.022 242.018 397.695Q242.69 397.369 243.376 397.073Q244.062 396.778 244.761 396.514Q245.46 396.251 246.171 396.02Q246.881 395.789 247.602 395.591Q248.322 395.393 249.051 395.229Q249.779 395.065 250.515 394.934Z"/>
	<defs>
		<linearGradient id="gradient_5" gradientUnits="userSpaceOnUse" x1="242.68494" y1="440.47696" x2="267.68768" y2="414.44672">
			<stop offset="0" stop-color="#E77D62"/>
			<stop offset="1" stop-color="#F5B3A8"/>
		</linearGradient>
	</defs>
	<path fill="url(#gradient_5)" transform="scale(0.195312 0.195312)" d="M275.062 421.741C280.679 440.018 255.06 456.494 240.882 439.402C229.298 425.438 241.118 405.635 259.215 407.425C266.54 408.704 273.903 413.941 275.062 421.741Z"/>
	<path fill="#F5B1AA" transform="scale(0.195312 0.195312)" d="M259.215 407.425C266.54 408.704 273.903 413.941 275.062 421.741C274.762 421.664 274.827 421.709 274.511 421.391C270.712 417.572 260.824 415.052 259.215 407.425Z"/>
	<path fill="#FCBA44" transform="scale(0.195312 0.195312)" d="M145.394 151.634Q145.038 151.807 144.674 151.964Q144.31 152.122 143.94 152.263Q143.57 152.404 143.194 152.529Q142.818 152.654 142.436 152.762Q142.055 152.87 141.67 152.961Q141.284 153.052 140.895 153.126Q140.506 153.201 140.114 153.258Q139.721 153.315 139.327 153.354Q138.933 153.394 138.537 153.416Q138.142 153.439 137.746 153.444Q137.349 153.449 136.953 153.436Q136.557 153.424 136.162 153.394Q135.767 153.364 135.374 153.317Q134.98 153.27 134.589 153.205Q134.198 153.141 133.811 153.059Q133.423 152.977 133.039 152.879Q132.655 152.78 132.276 152.665Q131.897 152.55 131.524 152.418Q131.15 152.286 130.783 152.138Q130.415 151.99 130.054 151.825Q129.694 151.661 129.341 151.481Q128.988 151.301 128.643 151.106Q128.298 150.911 127.962 150.701Q127.626 150.491 127.3 150.266Q126.974 150.041 126.658 149.802Q126.342 149.563 126.036 149.311Q125.731 149.058 125.437 148.792Q125.143 148.527 124.861 148.248Q124.579 147.97 124.31 147.679Q124.04 147.389 123.784 147.087Q123.528 146.785 123.285 146.472Q123.042 146.158 122.813 145.835Q122.584 145.512 122.37 145.178Q122.155 144.845 121.956 144.503Q121.756 144.161 121.572 143.81Q121.387 143.459 121.219 143.101Q121.05 142.742 120.897 142.376Q120.744 142.011 120.607 141.639Q120.471 141.267 120.351 140.889Q120.231 140.512 120.127 140.129Q120.024 139.747 119.937 139.36Q119.851 138.973 119.781 138.583Q119.712 138.193 119.66 137.8Q119.608 137.407 119.573 137.013Q119.538 136.618 119.52 136.222Q119.503 135.826 119.503 135.43Q119.503 135.034 119.52 134.638Q119.537 134.242 119.572 133.847Q119.607 133.453 119.659 133.06Q119.711 132.667 119.78 132.277Q119.85 131.887 119.936 131.5Q120.022 131.113 120.126 130.731Q120.229 130.348 120.349 129.97Q120.469 129.593 120.605 129.221Q120.742 128.849 120.895 128.483Q121.047 128.118 121.216 127.759Q121.385 127.4 121.569 127.05Q121.753 126.699 121.952 126.356Q122.152 126.014 122.366 125.681Q122.581 125.347 122.809 125.024Q123.038 124.7 123.281 124.387Q123.524 124.074 123.78 123.772Q124.036 123.47 124.306 123.179Q124.575 122.888 124.857 122.61Q125.139 122.331 125.433 122.066Q125.727 121.8 126.032 121.547Q126.337 121.294 126.653 121.055Q126.969 120.817 127.295 120.592Q127.622 120.367 127.958 120.156Q128.293 119.946 128.638 119.751Q128.983 119.555 129.336 119.375Q129.689 119.195 130.049 119.031Q130.41 118.867 130.778 118.719Q131.145 118.57 131.519 118.438Q131.892 118.306 132.271 118.191Q132.65 118.075 133.034 117.977Q133.418 117.878 133.806 117.796Q134.193 117.715 134.584 117.65Q134.975 117.586 135.369 117.538Q135.762 117.491 136.157 117.461Q136.552 117.431 136.948 117.418Q137.344 117.406 137.741 117.411Q138.137 117.415 138.533 117.438Q138.928 117.46 139.322 117.5Q139.717 117.539 140.109 117.596Q140.501 117.653 140.89 117.727Q141.279 117.801 141.665 117.892Q142.051 117.984 142.432 118.092Q142.813 118.2 143.189 118.324Q143.565 118.449 143.936 118.59Q144.306 118.731 144.67 118.888Q145.033 119.046 145.39 119.219Q145.746 119.392 146.095 119.58Q146.443 119.769 146.783 119.973Q147.123 120.176 147.454 120.395Q147.784 120.613 148.105 120.846Q148.426 121.079 148.736 121.325Q149.046 121.572 149.345 121.832Q149.644 122.092 149.931 122.365Q150.218 122.638 150.493 122.923Q150.768 123.209 151.031 123.506Q151.293 123.803 151.542 124.111Q151.79 124.42 152.026 124.739Q152.261 125.058 152.481 125.387Q152.702 125.716 152.908 126.054Q153.115 126.393 153.306 126.74Q153.497 127.087 153.672 127.442Q153.848 127.797 154.008 128.16Q154.168 128.522 154.311 128.892Q154.455 129.261 154.582 129.636Q154.71 130.011 154.82 130.392Q154.931 130.772 155.025 131.157Q155.119 131.542 155.196 131.931Q155.273 132.32 155.332 132.712Q155.392 133.103 155.435 133.497Q155.477 133.891 155.502 134.287Q155.527 134.682 155.535 135.078Q155.543 135.474 155.533 135.871Q155.523 136.267 155.496 136.662Q155.469 137.057 155.424 137.451Q155.38 137.845 155.318 138.236Q155.256 138.628 155.177 139.016Q155.098 139.404 155.002 139.789Q154.906 140.173 154.794 140.553Q154.681 140.933 154.552 141.308Q154.422 141.682 154.277 142.051Q154.131 142.419 153.969 142.781Q153.807 143.143 153.63 143.497Q153.3 144.156 152.917 144.786Q152.534 145.416 152.101 146.012Q151.668 146.609 151.188 147.168Q150.708 147.727 150.183 148.245Q149.659 148.763 149.094 149.237Q148.529 149.71 147.928 150.136Q147.326 150.562 146.691 150.937Q146.057 151.312 145.394 151.634Z"/>
	<defs>
		<linearGradient id="gradient_6" gradientUnits="userSpaceOnUse" x1="359.43195" y1="144.21031" x2="389.34341" y2="126.58275">
			<stop offset="0" stop-color="#F6A430"/>
			<stop offset="1" stop-color="#FFC962"/>
		</linearGradient>
	</defs>
	<path fill="url(#gradient_6)" transform="scale(0.195312 0.195312)" d="M358.652 143.702Q358.473 143.355 358.309 143Q358.145 142.645 357.997 142.283Q357.848 141.921 357.716 141.554Q357.584 141.186 357.467 140.813Q357.351 140.439 357.251 140.061Q357.152 139.683 357.068 139.301Q356.985 138.919 356.918 138.534Q356.852 138.149 356.802 137.761Q356.752 137.374 356.72 136.984Q356.687 136.595 356.671 136.204Q356.655 135.813 356.657 135.422Q356.658 135.032 356.676 134.641Q356.695 134.251 356.73 133.861Q356.765 133.472 356.817 133.085Q356.87 132.697 356.939 132.312Q357.008 131.928 357.094 131.546Q357.179 131.165 357.282 130.788Q357.384 130.41 357.503 130.038Q357.621 129.665 357.756 129.298Q357.891 128.931 358.041 128.571Q358.192 128.21 358.358 127.856Q358.524 127.502 358.706 127.156Q358.887 126.81 359.084 126.472Q359.28 126.134 359.491 125.805Q359.702 125.476 359.927 125.156Q360.152 124.836 360.391 124.527Q360.63 124.217 360.882 123.919Q361.134 123.62 361.398 123.332Q361.663 123.045 361.94 122.769Q362.217 122.493 362.506 122.23Q362.795 121.966 363.095 121.716Q363.395 121.465 363.706 121.228Q364.017 120.991 364.337 120.767Q364.658 120.544 364.988 120.334Q365.318 120.125 365.657 119.93Q365.996 119.736 366.344 119.556Q366.691 119.376 367.045 119.212Q367.4 119.047 367.761 118.898Q368.123 118.75 368.49 118.617Q368.858 118.484 369.231 118.367Q369.604 118.25 369.982 118.15Q370.36 118.049 370.742 117.965Q371.123 117.881 371.508 117.814Q371.894 117.747 372.281 117.697Q372.669 117.646 373.058 117.613Q373.448 117.579 373.838 117.563Q374.229 117.547 374.62 117.547Q375.011 117.548 375.401 117.566Q375.792 117.583 376.181 117.618Q376.571 117.653 376.958 117.704Q377.346 117.756 377.731 117.824Q378.115 117.893 378.497 117.978Q378.878 118.063 379.256 118.165Q379.633 118.267 380.006 118.385Q380.379 118.503 380.746 118.637Q381.113 118.771 381.474 118.921Q381.835 119.071 382.189 119.237Q382.543 119.402 382.89 119.583Q383.236 119.764 383.575 119.96Q383.913 120.156 384.242 120.366Q384.572 120.577 384.892 120.801Q385.212 121.026 385.522 121.264Q385.832 121.503 386.131 121.754Q386.43 122.006 386.718 122.27Q387.006 122.534 387.282 122.811Q387.558 123.088 387.822 123.376Q388.086 123.665 388.337 123.964Q388.588 124.264 388.826 124.574Q389.063 124.885 389.287 125.205Q389.511 125.525 389.721 125.855Q389.931 126.185 390.126 126.524Q390.322 126.862 390.502 127.209Q390.682 127.556 390.847 127.91Q391.012 128.265 391.162 128.626Q391.311 128.987 391.444 129.355Q391.578 129.722 391.695 130.095Q391.813 130.468 391.914 130.845Q392.015 131.223 392.099 131.605Q392.184 131.986 392.252 132.371Q392.319 132.756 392.37 133.144Q392.421 133.532 392.455 133.921Q392.489 134.31 392.506 134.701Q392.523 135.091 392.523 135.482Q392.523 135.873 392.506 136.264Q392.489 136.654 392.455 137.044Q392.421 137.433 392.37 137.821Q392.319 138.208 392.251 138.593Q392.183 138.978 392.098 139.36Q392.014 139.742 391.913 140.119Q391.812 140.497 391.694 140.87Q391.577 141.243 391.443 141.61Q391.309 141.977 391.16 142.338Q391.01 142.7 390.845 143.054Q390.68 143.408 390.5 143.755Q390.319 144.102 390.124 144.441Q389.929 144.779 389.719 145.109Q389.509 145.439 389.285 145.759Q389.061 146.079 388.823 146.39Q388.585 146.7 388.334 147Q388.083 147.299 387.819 147.588Q387.555 147.876 387.279 148.153Q387.003 148.429 386.715 148.694Q386.427 148.958 386.128 149.209Q385.828 149.461 385.519 149.699Q385.209 149.937 384.889 150.162Q384.569 150.386 384.239 150.597Q383.91 150.807 383.571 151.003Q383.233 151.199 382.886 151.379Q382.54 151.56 382.186 151.726Q381.832 151.892 381.471 152.041Q381.11 152.191 380.742 152.326Q380.375 152.46 380.002 152.578Q379.63 152.696 379.252 152.797Q378.875 152.899 378.493 152.984Q378.112 153.069 377.727 153.138Q377.342 153.206 376.954 153.258Q376.567 153.309 376.178 153.344Q375.788 153.378 375.398 153.396Q375.007 153.414 374.616 153.414Q374.225 153.415 373.835 153.398Q373.444 153.382 373.055 153.348Q372.665 153.315 372.278 153.265Q371.89 153.214 371.505 153.147Q371.12 153.08 370.738 152.996Q370.356 152.912 369.978 152.811Q369.601 152.711 369.228 152.594Q368.855 152.477 368.487 152.344Q368.119 152.211 367.758 152.062Q367.028 151.761 366.328 151.398Q365.627 151.034 364.961 150.61Q364.295 150.186 363.669 149.706Q363.043 149.225 362.462 148.691Q361.88 148.158 361.348 147.575Q360.816 146.992 360.337 146.365Q359.858 145.737 359.436 145.07Q359.014 144.403 358.652 143.702Z"/>
	<defs>
		<linearGradient id="gradient_7" gradientUnits="userSpaceOnUse" x1="123.34868" y1="362.3588" x2="151.43411" y2="381.98654">
			<stop offset="0" stop-color="#F7A342"/>
			<stop offset="1" stop-color="#FFCB47"/>
		</linearGradient>
	</defs>
	<path fill="url(#gradient_7)" transform="scale(0.195312 0.195312)" d="M153.841 366.011Q153.976 366.367 154.096 366.728Q154.215 367.089 154.319 367.455Q154.423 367.82 154.511 368.191Q154.599 368.561 154.672 368.934Q154.744 369.308 154.799 369.684Q154.855 370.06 154.895 370.439Q154.934 370.817 154.957 371.197Q154.98 371.576 154.987 371.957Q154.994 372.337 154.984 372.717Q154.974 373.097 154.948 373.477Q154.922 373.856 154.88 374.234Q154.837 374.612 154.779 374.988Q154.72 375.364 154.645 375.737Q154.57 376.11 154.479 376.479Q154.388 376.849 154.281 377.214Q154.174 377.579 154.052 377.939Q153.929 378.299 153.791 378.654Q153.654 379.008 153.5 379.356Q153.347 379.705 153.179 380.046Q153.011 380.387 152.829 380.721Q152.646 381.055 152.449 381.38Q152.253 381.706 152.042 382.022Q151.831 382.339 151.607 382.646Q151.383 382.954 151.146 383.251Q150.908 383.549 150.659 383.835Q150.409 384.122 150.147 384.398Q149.885 384.674 149.611 384.938Q149.337 385.202 149.053 385.454Q148.768 385.707 148.472 385.946Q148.177 386.186 147.871 386.412Q147.566 386.639 147.251 386.852Q146.936 387.066 146.612 387.265Q146.288 387.464 145.956 387.65Q145.624 387.835 145.284 388.006Q144.944 388.176 144.597 388.332Q144.25 388.488 143.896 388.629Q143.543 388.77 143.184 388.895Q142.825 389.021 142.461 389.13Q142.096 389.24 141.728 389.334Q141.359 389.428 140.987 389.506Q140.614 389.584 140.239 389.646Q139.864 389.708 139.486 389.753Q139.108 389.799 138.729 389.828Q138.35 389.857 137.97 389.87Q137.59 389.883 137.209 389.879Q136.829 389.875 136.449 389.855Q136.069 389.835 135.69 389.799Q135.312 389.762 134.935 389.71Q134.558 389.657 134.184 389.588Q133.81 389.519 133.439 389.434Q133.069 389.349 132.702 389.248Q132.335 389.147 131.973 389.03Q131.611 388.913 131.254 388.781Q130.898 388.649 130.547 388.501Q130.196 388.354 129.853 388.191Q129.509 388.029 129.172 387.851Q128.835 387.674 128.507 387.482Q128.178 387.291 127.858 387.085Q127.538 386.88 127.227 386.66Q126.916 386.441 126.615 386.209Q126.314 385.976 126.023 385.731Q125.733 385.486 125.453 385.228Q125.173 384.971 124.904 384.701Q124.636 384.432 124.379 384.151Q124.122 383.87 123.878 383.579Q123.634 383.287 123.402 382.985Q123.171 382.683 122.953 382.372Q122.734 382.06 122.53 381.739Q122.325 381.419 122.135 381.09Q121.944 380.76 121.768 380.423Q121.592 380.086 121.43 379.741Q121.269 379.397 121.123 379.046Q120.976 378.695 120.845 378.338Q120.714 377.981 120.598 377.618Q120.483 377.256 120.383 376.889Q120.283 376.522 120.199 376.151Q120.115 375.779 120.048 375.405Q119.98 375.031 119.928 374.654Q119.877 374.277 119.842 373.898Q119.806 373.519 119.788 373.139Q119.769 372.76 119.766 372.379Q119.764 371.999 119.778 371.619Q119.792 371.238 119.822 370.859Q119.853 370.48 119.9 370.103Q119.946 369.725 120.009 369.35Q120.073 368.975 120.152 368.603Q120.231 368.231 120.326 367.862Q120.421 367.494 120.532 367.13Q120.643 366.766 120.77 366.407Q120.896 366.049 121.038 365.696Q121.18 365.343 121.337 364.996Q121.494 364.65 121.666 364.311Q121.838 363.971 122.024 363.64Q122.211 363.308 122.411 362.985Q122.612 362.661 122.826 362.347Q123.04 362.033 123.268 361.728Q123.496 361.423 123.736 361.129Q123.977 360.834 124.23 360.55Q124.483 360.266 124.748 359.993Q125.013 359.72 125.29 359.459Q125.567 359.198 125.854 358.949Q126.142 358.7 126.44 358.464Q126.738 358.228 127.046 358.005Q127.354 357.782 127.672 357.572Q127.989 357.362 128.315 357.167Q128.641 356.971 128.976 356.789Q129.31 356.608 129.652 356.441Q129.994 356.274 130.342 356.122Q130.691 355.97 131.046 355.833Q131.401 355.697 131.762 355.575Q132.122 355.454 132.488 355.348Q132.853 355.243 133.223 355.153Q133.592 355.063 133.965 354.99Q134.339 354.916 134.715 354.858Q135.091 354.801 135.469 354.76Q135.847 354.718 136.227 354.693Q136.606 354.669 136.986 354.66Q137.367 354.652 137.747 354.66Q138.127 354.668 138.507 354.692Q138.887 354.716 139.265 354.757Q139.643 354.798 140.019 354.855Q140.395 354.912 140.769 354.985Q141.142 355.058 141.512 355.148Q141.881 355.237 142.247 355.342Q142.612 355.447 142.973 355.568Q143.334 355.689 143.689 355.825Q144.044 355.962 144.393 356.113Q144.742 356.265 145.084 356.431Q145.832 356.795 146.542 357.227Q147.252 357.66 147.918 358.158Q148.584 358.655 149.2 359.213Q149.816 359.771 150.377 360.385Q150.938 360.999 151.439 361.662Q151.939 362.326 152.375 363.034Q152.811 363.742 153.178 364.488Q153.546 365.234 153.841 366.011Z"/>
	<path fill="#FCBA44" transform="scale(0.195312 0.195312)" d="M366.704 356.384Q367.046 356.231 367.394 356.092Q367.742 355.953 368.096 355.83Q368.45 355.707 368.809 355.599Q369.168 355.491 369.531 355.399Q369.895 355.306 370.262 355.23Q370.628 355.153 370.998 355.093Q371.368 355.032 371.74 354.988Q372.112 354.943 372.486 354.915Q372.86 354.887 373.235 354.875Q373.609 354.863 373.984 354.867Q374.359 354.871 374.733 354.891Q375.107 354.912 375.48 354.948Q375.853 354.985 376.224 355.038Q376.595 355.09 376.964 355.159Q377.332 355.228 377.697 355.312Q378.062 355.397 378.424 355.497Q378.785 355.597 379.141 355.713Q379.498 355.829 379.849 355.96Q380.2 356.091 380.545 356.238Q380.89 356.384 381.228 356.545Q381.567 356.706 381.898 356.882Q382.229 357.057 382.552 357.247Q382.876 357.437 383.19 357.64Q383.505 357.844 383.811 358.061Q384.116 358.278 384.412 358.508Q384.708 358.738 384.994 358.98Q385.279 359.223 385.554 359.477Q385.829 359.732 386.093 359.999Q386.357 360.265 386.608 360.543Q386.86 360.82 387.1 361.108Q387.339 361.397 387.566 361.695Q387.793 361.993 388.007 362.301Q388.221 362.609 388.421 362.926Q388.621 363.243 388.808 363.568Q388.994 363.893 389.166 364.226Q389.338 364.559 389.496 364.899Q389.653 365.239 389.796 365.586Q389.938 365.932 390.066 366.285Q390.193 366.637 390.305 366.995Q390.418 367.352 390.514 367.715Q390.611 368.077 390.691 368.443Q390.772 368.809 390.837 369.178Q390.902 369.547 390.951 369.919Q390.999 370.29 391.032 370.664Q391.065 371.037 391.081 371.411Q391.098 371.786 391.098 372.161Q391.098 372.536 391.082 372.91Q391.066 373.284 391.034 373.658Q391.002 374.031 390.953 374.403Q390.905 374.775 390.841 375.144Q390.776 375.513 390.696 375.879Q390.616 376.245 390.52 376.607Q390.424 376.97 390.312 377.328Q390.2 377.685 390.073 378.038Q389.946 378.391 389.804 378.737Q389.662 379.084 389.505 379.424Q389.348 379.765 389.176 380.098Q389.004 380.431 388.818 380.756Q388.632 381.082 388.432 381.399Q388.233 381.716 388.019 382.024Q387.806 382.332 387.579 382.631Q387.353 382.93 387.114 383.218Q386.874 383.507 386.623 383.784Q386.371 384.062 386.108 384.329Q385.845 384.596 385.57 384.851Q385.295 385.106 385.01 385.349Q384.725 385.592 384.429 385.822Q384.133 386.053 383.828 386.27Q383.523 386.487 383.208 386.691Q382.894 386.895 382.571 387.085Q382.248 387.276 381.917 387.452Q381.586 387.628 381.248 387.789Q380.909 387.95 380.565 388.097Q380.22 388.244 379.869 388.375Q379.518 388.507 379.161 388.623Q378.805 388.74 378.444 388.84Q378.083 388.941 377.718 389.026Q377.353 389.111 376.985 389.18Q376.616 389.25 376.245 389.303Q375.874 389.356 375.501 389.393Q375.128 389.43 374.754 389.451Q374.38 389.471 374.005 389.476Q373.63 389.481 373.256 389.469Q372.881 389.458 372.507 389.43Q372.133 389.402 371.761 389.358Q371.389 389.314 371.019 389.254Q370.649 389.194 370.282 389.118Q369.915 389.042 369.552 388.95Q369.188 388.858 368.829 388.751Q368.47 388.643 368.116 388.52Q367.762 388.397 367.414 388.259Q367.065 388.121 366.723 387.968Q366.381 387.815 366.046 387.647Q365.711 387.479 365.383 387.297Q365.055 387.115 364.736 386.919Q364.417 386.723 364.106 386.513Q363.795 386.303 363.494 386.08Q363.193 385.857 362.902 385.621Q362.61 385.385 362.33 385.137Q362.049 384.889 361.779 384.629Q361.509 384.369 361.251 384.097Q360.993 383.826 360.746 383.543Q360.5 383.26 360.266 382.967Q360.033 382.675 359.812 382.372Q359.591 382.069 359.383 381.757Q359.176 381.445 358.982 381.124Q358.788 380.803 358.608 380.475Q358.428 380.146 358.263 379.809Q358.097 379.473 357.947 379.13Q357.796 378.787 357.66 378.437Q357.524 378.088 357.404 377.733Q357.284 377.378 357.179 377.018Q357.074 376.658 356.984 376.294Q356.895 375.93 356.822 375.563Q356.748 375.195 356.691 374.825Q356.633 374.455 356.592 374.082Q356.551 373.71 356.525 373.336Q356.5 372.962 356.491 372.587Q356.482 372.212 356.489 371.838Q356.497 371.463 356.52 371.089Q356.543 370.715 356.583 370.342Q356.623 369.969 356.678 369.599Q356.734 369.228 356.806 368.86Q356.878 368.492 356.965 368.128Q357.053 367.763 357.156 367.403Q357.259 367.043 357.378 366.687Q357.497 366.332 357.631 365.982Q357.765 365.632 357.914 365.288Q358.232 364.553 358.617 363.851Q359.002 363.149 359.451 362.486Q359.899 361.822 360.406 361.203Q360.914 360.584 361.476 360.014Q362.039 359.444 362.651 358.929Q363.264 358.413 363.922 357.957Q364.579 357.5 365.276 357.106Q365.974 356.712 366.704 356.384Z"/>
	<path fill="#CDDEF8" transform="scale(0.195312 0.195312)" d="M358.652 143.702Q359.014 144.403 359.436 145.07Q359.858 145.737 360.337 146.365Q360.816 146.992 361.348 147.575Q361.88 148.158 362.462 148.691Q363.043 149.225 363.669 149.706Q364.295 150.186 364.961 150.61Q365.627 151.034 366.328 151.398Q367.028 151.761 367.758 152.062C366.8 155.094 360.171 160.034 357.747 162.479C352.563 167.709 337.116 185.872 331.866 188.15Q327.776 183.435 323.135 179.262C323.915 176.29 354.324 145.409 358.652 143.702Z"/>
	<path fill="#CDDEF8" transform="scale(0.195312 0.195312)" d="M177.934 321.265C179.031 321.927 180.111 322.068 181.382 322.055L181.703 321.819Q183.546 323.836 185.495 325.75C185.583 327.405 187.489 329.71 188.746 330.737C183.787 335.407 179.092 340.376 174.177 345.099L163.165 355.86C159.77 359.2 156.573 362.089 153.841 366.011Q153.546 365.234 153.178 364.488Q152.811 363.742 152.375 363.034Q151.939 362.326 151.439 361.662Q150.938 360.999 150.377 360.385Q149.816 359.771 149.2 359.213Q148.584 358.655 147.918 358.158Q147.252 357.66 146.542 357.227Q145.832 356.795 145.084 356.431C145.275 352.908 149.969 349.992 152.277 347.657L168.292 331.479C171.569 328.177 175.183 325.032 177.934 321.265Z"/>
	<path fill="#CDDEF8" transform="scale(0.195312 0.195312)" d="M322.832 329.05Q327.166 325.186 331.026 320.848L331.4 321.059L332.089 320.999C340.555 328.644 360.311 347.582 366.704 356.384Q365.974 356.712 365.276 357.106Q364.579 357.5 363.922 357.957Q363.264 358.413 362.651 358.929Q362.039 359.444 361.476 360.014Q360.914 360.584 360.406 361.203Q359.899 361.822 359.451 362.486Q359.002 363.149 358.617 363.851Q358.232 364.553 357.914 365.288C354.766 364.012 351.736 359.271 349.355 356.824L330.499 337.698C328.414 335.543 323.379 331.86 322.832 329.05Z"/>
	<path fill="#CDDEF8" transform="scale(0.195312 0.195312)" d="M153.63 143.497C155.513 143.983 162.796 152.815 164.48 154.576L184.059 174.707C185.589 176.262 187.272 177.642 188.846 179.147Q184.178 183.33 180.065 188.06C177.164 186.056 175.02 183.239 172.603 180.716L159.329 166.858C156.61 164.011 145.914 154.917 145.394 151.634Q146.057 151.312 146.691 150.937Q147.326 150.562 147.928 150.136Q148.529 149.71 149.094 149.237Q149.659 148.763 150.183 148.245Q150.708 147.727 151.188 147.168Q151.668 146.609 152.101 146.012Q152.534 145.416 152.917 144.786Q153.3 144.156 153.63 143.497Z"/>
	<path fill="#CDDEF8" transform="scale(0.195312 0.195312)" d="M115.057 247.807C117.805 247.073 151.616 247.804 155.581 247.976Q155.182 254.604 155.658 261.227C142.119 262.075 128.29 261.583 114.734 261.24Q115.122 259.592 115.338 257.912Q115.554 256.233 115.594 254.54Q115.635 252.848 115.5 251.16Q115.366 249.472 115.057 247.807Z"/>
	<path fill="#CDDEF8" transform="scale(0.195312 0.195312)" d="M249.261 113.256Q250.889 113.601 252.543 113.779Q254.197 113.958 255.861 113.966Q257.525 113.975 259.181 113.815Q260.838 113.655 262.469 113.327C263.124 117.706 262.492 124.79 262.493 129.418L262.504 145.7C262.509 148.341 262.708 151.082 262.512 153.709Q256.625 153.322 250.734 153.627Q249.874 153.672 249.014 153.731L249.012 145.866C249.046 135.006 249.356 124.11 249.261 113.256Z"/>
	<path fill="#DCDFFC" transform="scale(0.195312 0.195312)" d="M249.012 145.866C249.571 147.316 249.419 150.196 250.83 150.963C251.799 151.489 255.113 151.078 253.719 152.988C252.748 153.456 251.735 153.345 250.734 153.627Q249.874 153.672 249.014 153.731L249.012 145.866Z"/>
	<path fill="#CDDEF8" transform="scale(0.195312 0.195312)" d="M356.292 248.308C362.186 247.171 389.839 247.22 396.765 248.492Q396.5 250.112 396.4 251.75Q396.299 253.389 396.364 255.029Q396.429 256.669 396.658 258.294Q396.887 259.92 397.278 261.514C393.571 261.975 389.575 261.644 385.836 261.62L366.555 261.635C363.124 261.645 359.574 261.472 356.159 261.721Q356.674 255.019 356.292 248.308Z"/>
	<path fill="#CDDEF8" transform="scale(0.195312 0.195312)" d="M250.523 354.402Q257.034 354.753 263.536 354.259L262.543 354.69C261.27 363.143 262.288 386.056 262.51 395.063Q261.03 394.767 259.529 394.611Q258.028 394.454 256.519 394.438Q255.009 394.421 253.505 394.546Q252.001 394.67 250.515 394.934C249.758 383.471 250.05 365.923 250.523 354.402Z"/>
</svg>
