<?xml version="1.0" encoding="utf-8" ?>
<svg xmlns="http://www.w3.org/2000/svg" xmlns:xlink="http://www.w3.org/1999/xlink" width="100" height="100">
	<path fill="#4D82F0" transform="scale(0.195312 0.195312)" d="M231.232 88.2898C230.825 72.5012 230.47 65.8425 248.421 65.7937C272.13 65.7293 281.714 60.4341 281.492 88.2898C291.714 90.354 301.905 95.767 310.427 101.69C323.871 83.7344 330.578 92.3212 342.458 104.661C355.675 118.389 360.689 120.821 343.303 137.083C348.288 145.995 351.112 154.831 353.219 164.78C374.461 164.878 373.903 166.762 374.155 186.209L397.688 186.195C422.578 186.193 433.762 189.75 433.75 217.324L433.729 367.68C433.748 382.644 434.968 399.917 415.301 404.379C409.557 405.682 396.316 404.987 389.72 404.985L343.691 404.987C336.145 404.987 328.452 404.63 320.926 404.99L320.23 405.284C319.478 407.756 319.981 411.598 320.021 414.25L191.834 414.25C191.963 411.931 192.573 407.009 191.834 404.99L109.375 405.001C105.172 405.003 100.632 405.298 96.4966 404.502C76.1772 400.592 78.2457 379.421 78.2669 364.429L78.2803 248.648C78.2797 235.484 78.1115 222.302 78.2638 209.141C78.525 186.573 98.1508 186.755 114.958 186.752C122.669 186.751 130.412 186.562 138.119 186.769C138.035 164.135 139.087 164.268 159.889 163.353C160.922 155.866 164.919 142.426 170.424 137.083C152.469 120.608 156.462 118.345 171.933 102.635C183.278 91.1145 190.195 84.8696 202.402 101.69C208.796 96.2923 222.951 89.6059 231.232 88.2898ZM174.449 374.007C174.419 376.995 174.225 380.106 174.449 383.08C176.836 388.921 197.814 386.243 204.147 386.243L303.357 386.246C311.337 386.252 319.398 386.488 327.368 386.229C330.743 386.119 331.932 384.456 334.759 383.08C336.688 380.215 338.226 377.093 339.762 374.007C344.472 373.293 352.535 374.013 357.613 374.015L402.138 374.007L402.138 357.252L376.678 357.259C361.374 357.271 350.33 359.1 350.038 340.13C349.899 331.153 348.79 300.279 350.57 292.683C353.307 281.006 365.879 283.289 374.876 283.293L402.138 283.312L402.138 217.916L350.016 217.916C347.193 223.255 345.037 228.935 342.007 234.582C346.68 237.495 353.712 243.932 353.667 249.581C353.615 256.065 349.406 258.708 345.282 262.883C329.244 279.123 326.041 289.2 306.41 268.214C303.112 270.687 299.496 272.461 295.775 274.185C297.963 275.571 300.989 276.271 303.374 277.456C315.832 283.65 330.369 297.387 334.759 310.646L228.863 310.649C211.293 310.648 193.697 310.427 176.132 310.646C180.668 295.744 200.554 280.066 213.883 274.185C210.998 272.476 208.001 270.884 205.271 268.933C197.224 276.715 189.745 286.839 179.399 276.055C174.984 271.453 163.126 259.862 160.865 255.777C155.957 246.907 164.484 240.078 170.424 234.582C167.737 229.019 165.035 223.732 162.873 217.916C146.487 217.414 125.975 217.182 109.626 217.916L109.622 322.054C109.622 339.346 109.26 356.725 109.626 374.007L174.449 374.007ZM364.924 293.943C363.49 293.919 362.045 293.853 360.613 293.943L360.608 328.686C360.616 351.125 357.078 346.287 380.348 346.279L413.562 346.279C416.836 346.086 417.02 345.455 417.209 342.255C418.131 326.654 416.749 309.849 417.247 293.943C399.845 293.359 382.349 294.274 364.924 293.943ZM273.989 117.573C276.444 127.01 266.062 124.112 261.654 123.596C238.991 120.942 216.561 133.422 204.614 152.415C172.27 203.832 228.888 263.643 280.074 241.003C283.861 239.327 286.928 237.227 291.129 236.759C292.707 237.587 294.096 238.622 294.723 240.368C295.709 237.987 298.79 236.18 300.758 234.536C314.17 223.326 323.426 206.832 325.002 189.321C315.117 196.366 316.284 178.808 315.585 174.834C314.405 168.123 312.615 161.986 309.35 155.978C306.503 150.738 301.126 145.29 309.18 141.449C305.868 138.917 302.399 135.688 300.581 131.903L300.479 133.021C292.585 143.898 278.91 127.476 288.508 123.501C283.258 122.175 278.921 119.394 273.989 117.573ZM185.17 103.4C185.806 104.247 191.704 105.548 192.539 105.433C191.114 103.751 189.378 102.334 187.724 100.885C186.864 101.714 186.021 102.562 185.17 103.4Z"/>
	<path fill="#F4B351" transform="scale(0.195312 0.195312)" d="M142.52 299.852Q143.219 299.791 143.921 299.765Q144.622 299.739 145.324 299.747Q146.026 299.755 146.727 299.797Q147.427 299.84 148.125 299.917Q148.823 299.993 149.516 300.104Q150.209 300.215 150.896 300.36Q151.583 300.504 152.262 300.683Q152.94 300.861 153.61 301.072Q154.279 301.283 154.938 301.527Q155.596 301.771 156.241 302.046Q156.887 302.322 157.518 302.629Q158.149 302.936 158.765 303.274Q159.38 303.611 159.978 303.979Q160.576 304.346 161.156 304.742Q161.735 305.138 162.295 305.562Q162.854 305.986 163.392 306.437Q163.93 306.888 164.445 307.365Q164.96 307.842 165.451 308.343Q165.942 308.845 166.408 309.37Q166.874 309.895 167.314 310.442Q167.754 310.989 168.166 311.557Q168.578 312.125 168.962 312.713Q169.347 313.3 169.701 313.906Q170.056 314.511 170.381 315.134Q170.706 315.756 170.999 316.394Q171.293 317.031 171.555 317.682Q171.818 318.333 172.048 318.996Q172.278 319.66 172.475 320.333Q172.672 321.007 172.836 321.689Q173 322.372 173.131 323.062Q173.261 323.751 173.357 324.447Q173.454 325.142 173.516 325.841Q173.578 326.54 173.606 327.242Q173.634 327.943 173.628 328.645Q173.621 329.347 173.58 330.048Q173.539 330.748 173.464 331.446Q173.389 332.144 173.28 332.838Q173.17 333.531 173.027 334.218Q172.884 334.905 172.707 335.585Q172.531 336.264 172.321 336.934Q172.111 337.604 171.869 338.263Q171.627 338.921 171.353 339.568Q171.078 340.214 170.773 340.846Q170.467 341.478 170.131 342.094Q169.795 342.71 169.429 343.309Q169.063 343.908 168.668 344.488Q168.273 345.069 167.85 345.629Q167.427 346.189 166.978 346.728Q166.528 347.267 166.052 347.783Q165.576 348.3 165.076 348.792Q164.576 349.284 164.052 349.751Q163.528 350.219 162.982 350.659Q162.436 351.1 161.868 351.514Q161.301 351.928 160.715 352.313Q160.128 352.698 159.523 353.055Q158.918 353.411 158.297 353.737Q157.675 354.063 157.038 354.358Q156.401 354.654 155.751 354.917Q155.1 355.181 154.438 355.412Q153.775 355.644 153.102 355.843Q152.428 356.041 151.746 356.207Q151.064 356.372 150.375 356.504Q149.685 356.636 148.99 356.734Q148.295 356.832 147.596 356.896Q146.895 356.96 146.192 356.989Q145.488 357.019 144.784 357.014Q144.08 357.009 143.378 356.969Q142.675 356.929 141.975 356.855Q141.275 356.781 140.579 356.672Q139.884 356.564 139.194 356.421Q138.505 356.279 137.823 356.102Q137.142 355.926 136.47 355.716Q135.798 355.507 135.137 355.265Q134.476 355.022 133.828 354.748Q133.179 354.473 132.545 354.167Q131.911 353.861 131.293 353.524Q130.675 353.188 130.074 352.821Q129.473 352.454 128.891 352.058Q128.309 351.663 127.747 351.239Q127.185 350.815 126.645 350.363Q126.104 349.912 125.587 349.435Q125.069 348.958 124.575 348.456Q124.082 347.954 123.614 347.429Q123.145 346.903 122.703 346.355Q122.261 345.807 121.847 345.238Q121.433 344.669 121.047 344.08Q120.661 343.492 120.304 342.885Q119.947 342.278 119.621 341.654Q119.295 341.03 118.999 340.391Q118.704 339.752 118.441 339.099Q118.177 338.447 117.946 337.782Q117.715 337.117 117.517 336.441Q117.318 335.766 117.154 335.081Q116.989 334.397 116.858 333.705Q116.727 333.014 116.63 332.316Q116.533 331.619 116.471 330.918Q116.409 330.217 116.381 329.513Q116.353 328.81 116.36 328.106Q116.366 327.402 116.408 326.699Q116.449 325.997 116.525 325.297Q116.601 324.597 116.711 323.902Q116.821 323.206 116.965 322.517Q117.109 321.828 117.287 321.147Q117.465 320.466 117.676 319.794Q117.887 319.123 118.131 318.462Q118.374 317.802 118.65 317.154Q118.926 316.507 119.234 315.873Q119.541 315.24 119.88 314.623Q120.218 314.005 120.586 313.405Q120.954 312.805 121.351 312.224Q121.748 311.643 122.174 311.082Q122.599 310.521 123.051 309.981Q123.504 309.442 123.982 308.925Q124.46 308.409 124.963 307.917Q125.466 307.424 125.993 306.957Q126.52 306.49 127.069 306.049Q127.618 305.609 128.188 305.195Q128.757 304.782 129.347 304.398Q129.937 304.013 130.544 303.658Q131.152 303.302 131.777 302.978Q132.401 302.653 133.041 302.359Q133.681 302.065 134.334 301.803Q134.987 301.541 135.653 301.311Q136.318 301.082 136.994 300.885Q137.67 300.688 138.355 300.525Q139.04 300.362 139.732 300.233Q140.424 300.103 141.121 300.008Q141.819 299.913 142.52 299.852Z"/>
	<path fill="#FAD657" transform="scale(0.195312 0.195312)" d="M141.769 309.602Q142.231 309.526 142.696 309.473Q143.162 309.42 143.629 309.389Q144.097 309.359 144.565 309.352Q145.033 309.344 145.501 309.36Q145.969 309.375 146.436 309.414Q146.903 309.452 147.367 309.513Q147.831 309.575 148.292 309.658Q148.753 309.742 149.209 309.849Q149.665 309.955 150.116 310.084Q150.566 310.212 151.009 310.363Q151.453 310.513 151.889 310.685Q152.324 310.857 152.751 311.05Q153.178 311.243 153.594 311.457Q154.011 311.671 154.417 311.905Q154.823 312.139 155.216 312.392Q155.61 312.646 155.991 312.918Q156.372 313.191 156.739 313.482Q157.106 313.772 157.459 314.081Q157.811 314.389 158.148 314.715Q158.485 315.04 158.805 315.381Q159.126 315.723 159.43 316.08Q159.733 316.436 160.019 316.807Q160.304 317.179 160.571 317.563Q160.839 317.948 161.087 318.345Q161.335 318.743 161.563 319.152Q161.791 319.561 161.999 319.98Q162.207 320.4 162.394 320.829Q162.581 321.259 162.747 321.697Q162.913 322.135 163.057 322.58Q163.201 323.026 163.323 323.478Q163.446 323.93 163.546 324.388Q163.646 324.845 163.723 325.307Q163.8 325.769 163.855 326.234Q163.91 326.699 163.942 327.166Q163.974 327.634 163.983 328.102Q163.992 328.57 163.978 329.038Q163.964 329.507 163.927 329.973Q163.89 330.44 163.83 330.905Q163.77 331.369 163.688 331.831Q163.606 332.292 163.501 332.748Q163.396 333.204 163.269 333.655Q163.142 334.106 162.993 334.55Q162.844 334.994 162.673 335.43Q162.503 335.867 162.311 336.294Q162.119 336.721 161.907 337.139Q161.694 337.556 161.462 337.963Q161.229 338.369 160.977 338.764Q160.725 339.158 160.454 339.54Q160.182 339.922 159.893 340.29Q159.603 340.658 159.296 341.012Q158.989 341.365 158.664 341.703Q158.34 342.041 158 342.363Q157.659 342.684 157.304 342.989Q156.948 343.294 156.578 343.581Q156.207 343.868 155.824 344.136Q155.44 344.404 155.043 344.654Q154.647 344.903 154.238 345.132Q153.83 345.362 153.411 345.571Q152.992 345.781 152.563 345.969Q152.135 346.158 151.697 346.325Q151.26 346.492 150.815 346.638Q150.37 346.784 149.918 346.907Q149.466 347.031 149.009 347.133Q148.552 347.234 148.09 347.313Q147.626 347.392 147.159 347.449Q146.693 347.505 146.223 347.538Q145.754 347.572 145.284 347.582Q144.814 347.592 144.344 347.579Q143.874 347.566 143.405 347.53Q142.936 347.494 142.469 347.435Q142.002 347.376 141.539 347.295Q141.076 347.213 140.618 347.108Q140.159 347.004 139.706 346.877Q139.253 346.75 138.807 346.601Q138.361 346.451 137.923 346.281Q137.485 346.11 137.055 345.918Q136.626 345.725 136.207 345.512Q135.788 345.299 135.379 345.066Q134.971 344.832 134.575 344.579Q134.178 344.326 133.795 344.054Q133.411 343.781 133.042 343.49Q132.672 343.199 132.318 342.891Q131.963 342.582 131.624 342.256Q131.284 341.93 130.962 341.588Q130.639 341.246 130.333 340.889Q130.028 340.531 129.74 340.159Q129.453 339.787 129.184 339.401Q128.915 339.015 128.665 338.617Q128.415 338.218 128.186 337.808Q127.956 337.397 127.746 336.976Q127.537 336.555 127.349 336.124Q127.161 335.693 126.994 335.253Q126.827 334.814 126.682 334.366Q126.536 333.919 126.414 333.465Q126.291 333.011 126.19 332.551Q126.09 332.092 126.012 331.628Q125.934 331.164 125.879 330.697Q125.825 330.23 125.793 329.761Q125.761 329.291 125.752 328.821Q125.744 328.351 125.758 327.881Q125.772 327.411 125.81 326.942Q125.848 326.473 125.908 326.007Q125.969 325.54 126.052 325.078Q126.135 324.615 126.241 324.157Q126.348 323.698 126.476 323.246Q126.604 322.793 126.755 322.348Q126.906 321.902 127.078 321.465Q127.25 321.027 127.444 320.598Q127.637 320.17 127.852 319.751Q128.066 319.333 128.301 318.925Q128.536 318.518 128.79 318.122Q129.045 317.727 129.318 317.344Q129.592 316.962 129.884 316.593Q130.176 316.224 130.486 315.871Q130.796 315.517 131.123 315.179Q131.45 314.841 131.793 314.519Q132.136 314.197 132.495 313.893Q132.853 313.589 133.226 313.302Q133.599 313.016 133.986 312.748Q134.373 312.48 134.772 312.232Q135.171 311.984 135.582 311.755Q135.994 311.527 136.415 311.319Q136.837 311.111 137.269 310.924Q137.7 310.737 138.141 310.572Q138.581 310.406 139.029 310.263Q139.477 310.119 139.931 309.998Q140.385 309.876 140.845 309.777Q141.305 309.678 141.769 309.602Z"/>
	<path fill="#F4B351" transform="scale(0.195312 0.195312)" d="M144.758 322.189Q144.913 322.184 145.068 322.187Q145.223 322.189 145.378 322.199Q145.533 322.209 145.687 322.227Q145.841 322.244 145.994 322.269Q146.147 322.294 146.299 322.327Q146.451 322.359 146.601 322.399Q146.75 322.439 146.898 322.486Q147.046 322.533 147.191 322.587Q147.337 322.641 147.479 322.702Q147.622 322.763 147.761 322.831Q147.901 322.899 148.037 322.974Q148.173 323.049 148.305 323.13Q148.437 323.211 148.565 323.299Q148.693 323.386 148.817 323.48Q148.941 323.573 149.06 323.673Q149.179 323.772 149.293 323.878Q149.407 323.983 149.515 324.093Q149.624 324.204 149.727 324.32Q149.831 324.436 149.928 324.556Q150.026 324.677 150.117 324.802Q150.209 324.927 150.294 325.057Q150.379 325.186 150.458 325.32Q150.537 325.453 150.61 325.591Q150.682 325.728 150.748 325.868Q150.813 326.009 150.872 326.152Q150.931 326.296 150.983 326.442Q151.034 326.589 151.079 326.737Q151.123 326.886 151.161 327.036Q151.198 327.187 151.228 327.339Q151.258 327.491 151.28 327.645Q151.303 327.798 151.318 327.953Q151.333 328.107 151.34 328.262Q151.347 328.417 151.347 328.572Q151.347 328.727 151.34 328.882Q151.332 329.037 151.317 329.191Q151.302 329.346 151.279 329.499Q151.257 329.653 151.227 329.805Q151.197 329.957 151.159 330.108Q151.122 330.258 151.077 330.407Q151.033 330.556 150.981 330.702Q150.929 330.848 150.87 330.991Q150.811 331.135 150.745 331.276Q150.68 331.416 150.607 331.553Q150.535 331.69 150.456 331.824Q150.377 331.957 150.291 332.087Q150.206 332.216 150.114 332.341Q150.022 332.466 149.925 332.587Q149.827 332.708 149.724 332.823Q149.62 332.939 149.511 333.049Q149.403 333.16 149.288 333.265Q149.174 333.37 149.055 333.47Q148.936 333.569 148.812 333.662Q148.689 333.756 148.56 333.843Q148.432 333.931 148.3 334.012Q148.168 334.093 148.032 334.168Q147.896 334.242 147.756 334.31Q147.617 334.378 147.474 334.439Q147.331 334.5 147.186 334.554Q147.041 334.608 146.893 334.655Q146.745 334.702 146.595 334.741Q146.445 334.781 146.293 334.813Q146.141 334.845 145.988 334.87Q145.835 334.895 145.681 334.913Q145.527 334.93 145.372 334.94Q145.161 334.954 144.95 334.953Q144.739 334.953 144.529 334.938Q144.318 334.924 144.109 334.896Q143.899 334.867 143.693 334.825Q143.486 334.783 143.282 334.728Q143.078 334.672 142.879 334.603Q142.679 334.534 142.485 334.452Q142.29 334.37 142.101 334.276Q141.913 334.181 141.731 334.074Q141.549 333.967 141.374 333.849Q141.199 333.73 141.033 333.6Q140.867 333.47 140.709 333.329Q140.552 333.189 140.404 333.038Q140.256 332.887 140.119 332.727Q139.981 332.567 139.855 332.398Q139.728 332.229 139.613 332.052Q139.498 331.875 139.395 331.691Q139.291 331.507 139.201 331.316Q139.11 331.126 139.032 330.929Q138.954 330.733 138.889 330.532Q138.824 330.332 138.773 330.127Q138.721 329.922 138.683 329.714Q138.645 329.507 138.621 329.297Q138.597 329.087 138.587 328.876Q138.577 328.665 138.581 328.454Q138.585 328.243 138.602 328.033Q138.62 327.823 138.652 327.614Q138.684 327.405 138.729 327.199Q138.774 326.993 138.833 326.79Q138.892 326.587 138.964 326.389Q139.036 326.191 139.121 325.997Q139.206 325.804 139.304 325.617Q139.402 325.43 139.511 325.25Q139.621 325.069 139.743 324.897Q139.864 324.724 139.997 324.56Q140.129 324.395 140.272 324.24Q140.416 324.085 140.569 323.94Q140.722 323.794 140.884 323.66Q141.046 323.525 141.217 323.401Q141.388 323.277 141.567 323.165Q141.746 323.052 141.931 322.952Q142.117 322.852 142.309 322.764Q142.501 322.676 142.698 322.601Q142.896 322.526 143.098 322.465Q143.299 322.403 143.505 322.355Q143.71 322.306 143.919 322.272Q144.127 322.237 144.337 322.217Q144.547 322.196 144.758 322.189Z"/>
	<path fill="#4D82F0" transform="scale(0.195312 0.195312)" d="M228.239 326.261C237.761 325.848 249.284 325.552 253.05 336.386C255.793 344.276 252.028 352.323 244.077 354.977C246.754 357.871 261.816 372.346 248.877 372.759C247.493 372.803 246.555 371.637 245.66 370.749C242.292 366.856 237.507 360.264 233.754 357.252C233.77 361.481 233.81 365.711 233.754 369.94C231.577 373.086 225.826 374.782 224.539 369.875C223.838 367.202 224.072 335.221 224.307 330.866C224.455 328.113 225.461 326.915 228.239 326.261ZM233.754 346.279C236.694 346.323 240.358 346.824 242.909 345.122C243.933 343.76 244.46 342.508 244.861 340.862C243.138 335.156 238.836 335.803 233.754 335.515C233.182 336.461 233.774 344.578 233.754 346.279Z"/>
	<path fill="#4D82F0" transform="scale(0.195312 0.195312)" d="M277.343 326.261C290.278 326.199 286.214 334.409 282.832 335.212C279.538 335.994 272.905 335.517 269.249 335.515C269.19 338.715 269.24 341.922 269.249 345.122C272.654 345.341 281.173 344.069 283.572 346.432C285.163 348 285.081 351.204 283.44 352.704C281.013 354.924 272.553 354.028 269.249 354L269.249 363.395C273.029 363.672 276.987 363.418 280.781 363.395C288.316 363.58 287.584 371.408 283.916 372.22C281.271 372.806 263.188 372.999 261.51 371.624C258.295 368.989 259.844 349.027 259.848 344.595C259.863 325.238 256.198 326.192 277.343 326.261Z"/>
	<path fill="#4D82F0" transform="scale(0.195312 0.195312)" d="M294.723 326.261C298.514 326.009 317.343 323.889 317.397 330.354C317.459 337.732 304.994 335.543 300.479 335.515L300.479 345.122C303.545 345.09 321.509 343.99 313.297 352.779C311.186 355.038 303.618 354 300.479 354L300.479 362.313L300.577 363.076C302.043 364.042 311.333 363.113 314.093 363.705C318.847 364.725 318.004 372.051 313.288 372.626C310.221 373 299.414 372.781 296.024 372.61C292.656 372.441 291.339 371.45 291.14 367.856C290.923 363.929 290.814 329.73 291.559 328.292C292.222 327.012 293.449 326.693 294.723 326.261Z"/>
	<path fill="#4D82F0" transform="scale(0.195312 0.195312)" d="M196.522 326.261C200.416 326.092 215.263 325.309 217.544 327.494C219.08 328.966 219.429 332.765 217.839 334.31C215.577 336.507 205.753 335.527 202.402 335.515L202.402 346.279C206.156 345.72 209.121 345.58 212.865 346.279C217.7 349.126 215.747 354.34 210.812 354.977L202.402 354.977C202.412 359.421 202.942 365.511 202.179 369.738C201.452 373.764 195.394 374.674 193.615 371.112C192.911 369.703 193.136 328.593 193.648 327.74C194.176 326.859 195.62 326.531 196.522 326.261Z"/>
	<path fill="#71CFF2" transform="scale(0.195312 0.195312)" d="M191.834 395.506L109.766 395.526C92.6516 395.545 88.0254 392.657 87.9818 374.541L87.9766 225.444C87.9756 198.23 86.341 196.488 112.101 196.483L138.119 196.492C137.624 201.322 137.804 204.164 140.111 208.509L117.096 208.497C108.934 208.495 100.226 205.701 100.016 215.715C99.7473 228.488 100.022 241.33 100.022 254.108L100.011 363.536C100.012 368.386 99.4008 377.369 100.547 381.763C101.431 385.152 111.134 383.038 113.739 383.057L160 383.081C162.419 383.082 172.883 383.63 174.449 383.08C176.836 388.921 197.814 386.243 204.147 386.243L303.357 386.246C311.337 386.252 319.398 386.488 327.368 386.229C330.743 386.119 331.932 384.456 334.759 383.08C336.688 380.215 338.226 377.093 339.762 374.007C344.472 373.293 352.535 374.013 357.613 374.015L402.138 374.007L402.138 357.252L411.964 357.252C416.942 357.27 420.314 355.944 424.246 352.94L424.259 370.332C424.268 391.625 422.939 395.546 401.118 395.521L320.021 395.506C319.939 397.234 318.855 404.666 320.926 404.99L320.23 405.284C319.478 407.756 319.981 411.598 320.021 414.25L191.834 414.25C191.963 411.931 192.573 407.009 191.834 404.99C192.228 403.463 191.807 397.597 191.834 395.506Z"/>
	<path fill="#4D82F0" transform="scale(0.195312 0.195312)" d="M402.138 357.252L411.964 357.252C411.762 363.952 412.567 372.897 411.936 379.09C411.366 384.69 402.325 383.095 398.44 383.095L381.8 383.084C366.924 383.072 349.279 384.124 334.759 383.08C336.688 380.215 338.226 377.093 339.762 374.007C344.472 373.293 352.535 374.013 357.613 374.015L402.138 374.007L402.138 357.252Z"/>
	<path fill="#F4B351" transform="scale(0.195312 0.195312)" d="M402.138 283.312C404.153 283.439 406.105 283.423 408.12 283.312C414.322 283.487 419.261 283.077 424.246 287.37C427.94 293.477 427.963 296.693 427.975 303.626L427.975 334.047C427.97 337.834 428.437 342.712 427.466 346.353C426.822 348.766 424.931 350.675 424.246 352.94C420.314 355.944 416.942 357.27 411.964 357.252L402.138 357.252L376.678 357.259C361.374 357.271 350.33 359.1 350.038 340.13C349.899 331.153 348.79 300.279 350.57 292.683C353.307 281.006 365.879 283.289 374.876 283.293L402.138 283.312ZM360.613 293.943L360.608 328.686C360.616 351.125 357.078 346.287 380.348 346.279L413.562 346.279C416.836 346.086 417.02 345.455 417.209 342.255C418.131 326.654 416.749 309.849 417.247 293.943C399.845 293.359 382.349 294.274 364.924 293.943C363.49 293.919 362.045 293.853 360.613 293.943Z"/>
	<path fill="#F4B351" transform="scale(0.195312 0.195312)" d="M377.423 299.805C382.335 299.1 388.357 304.65 392.445 307.042C415.495 320.533 416.461 317.656 397.11 330.536C389.853 334.958 380.42 344.397 374.155 337.437C373.81 333.13 373.64 306.104 374.295 303.226C374.684 301.516 376 300.64 377.423 299.805ZM384.474 326.261C386.412 324.875 388.332 323.458 390.358 322.205C391.504 321.573 392.643 320.917 393.801 320.31C390.823 318.235 387.667 316.292 384.474 314.563L384.474 326.261Z"/>
	<path fill="#61E2EC" transform="scale(0.195312 0.195312)" d="M213.883 274.185C219.837 276.818 225.694 278.925 231.98 280.625C231.9 300.941 227.562 303.408 248.616 303.435C256.374 303.446 264.141 303.523 271.898 303.432C284.468 303.284 280.817 288.946 280.781 279.646C286.05 278.484 290.656 275.384 295.775 274.185C297.963 275.571 300.989 276.271 303.374 277.456C315.832 283.65 330.369 297.387 334.759 310.646L228.863 310.649C211.293 310.648 193.697 310.427 176.132 310.646C180.668 295.744 200.554 280.066 213.883 274.185Z"/>
	<path fill="#71CFF2" transform="scale(0.195312 0.195312)" d="M374.155 195.489L396.32 195.476C417.772 195.474 424.299 194.863 424.263 218.318L424.246 287.37C419.261 283.077 414.322 283.487 408.12 283.312C409.424 283.228 410.66 283.233 411.964 283.312L411.99 222.756C412.097 206.371 408.253 208.482 392.876 208.488L372.64 208.509C374.445 203.733 374.724 200.538 374.155 195.489Z"/>
	<defs>
		<linearGradient id="gradient_0" gradientUnits="userSpaceOnUse" x1="149.20073" y1="205.33247" x2="361.88083" y2="165.00533">
			<stop offset="0" stop-color="#A9EBB8"/>
			<stop offset="1" stop-color="#CBF8FA"/>
		</linearGradient>
	</defs>
	<path fill="url(#gradient_0)" transform="scale(0.195312 0.195312)" d="M240.908 75.8228C251.111 75.8188 261.497 76.2593 271.681 75.8228C271.645 78.9024 270.948 93.7164 272.705 95.5592C273.184 96.0616 295.295 103.658 300.915 107.235C304.044 109.226 306.929 111.658 310.427 112.978C313.962 111.529 315.629 109.072 318.538 106.892C320.559 104.615 322.552 102.702 325.002 100.885C325.484 101.709 325.967 102.489 326.267 103.4C330.015 105.587 342.102 117.688 344.705 121.239C341.752 125.736 334.439 130.464 332.506 134.707C331.043 137.92 335.802 143.341 337.126 146.002C339.43 150.632 345.029 173.142 345.761 173.7C349.103 176.243 363.21 171.38 364.586 176.639C365.208 179.014 365.247 201.612 364.277 203.01C361.336 207.25 347.442 201.94 344.239 205.629C341.894 208.33 341.026 214.166 339.536 217.616C329.429 241.014 324.117 229.329 344.705 250.494C338.056 255.989 332.586 262.424 326.267 268.214C323.943 270.514 323.229 270.59 320.926 268.214C308.3 258.888 312.14 253.97 298.952 261.316C293.776 264.2 273.131 272.311 272.042 273.714C270.265 276.002 270.798 290.656 270.954 293.943C261.259 293.691 251.473 293.939 241.771 293.943C241.643 290.737 242.302 275.117 241.513 273.458C240.677 271.7 234.595 271.077 232.945 270.688C219.308 267.473 213.776 260.79 204.261 257.535C199.861 259.5 197.357 263.926 193.251 266.325C191.931 268.374 190.481 269.789 188.646 271.371C186.82 270.295 185.43 268.91 184.025 267.342C181.748 265.525 177.919 261.103 176.132 258.727C173.446 256.101 171.054 253.15 168.379 250.494C172.282 245.606 177.23 241.507 181.344 236.759C182.189 234.18 179.189 230.633 177.969 228.458C175.166 223.463 169.467 206.648 168.698 205.83C167.453 204.504 164.542 204.637 162.873 204.509C157.786 204.446 152.794 205.369 147.798 204.044C147.372 198.76 147.182 175.635 149.189 173.001C151.38 171.954 155.106 172.447 157.529 172.477C161.425 172.225 166.929 174.208 168.367 169.383C169.468 165.692 169.846 161.75 170.906 158.005C173.602 148.477 176.973 143.862 181.344 135.795C179.272 131.533 173.826 126.957 170.424 123.501L168.379 121.239C170.444 117.299 173.924 114.461 177.157 111.491C178.615 109.334 183.103 105.294 185.17 103.4C185.806 104.247 191.704 105.548 192.539 105.433C194.941 107.54 199.499 114.527 203.226 112.388C213.559 106.46 218.266 101.637 231.245 98.2459C233.474 97.6637 238.636 97.1387 240.098 95.1021C241.521 93.1211 240.92 79.3756 240.908 75.8228ZM291.129 236.759C292.707 237.587 294.096 238.622 294.723 240.368C295.709 237.987 298.79 236.18 300.758 234.536C314.17 223.326 323.426 206.832 325.002 189.321C315.117 196.366 316.284 178.808 315.585 174.834C314.405 168.123 312.615 161.986 309.35 155.978C306.503 150.738 301.126 145.29 309.18 141.449C305.868 138.917 302.399 135.688 300.581 131.903L300.479 133.021C292.585 143.898 278.91 127.476 288.508 123.501C283.258 122.175 278.921 119.394 273.989 117.573C276.444 127.01 266.062 124.112 261.654 123.596C238.991 120.942 216.561 133.422 204.614 152.415C172.27 203.832 228.888 263.643 280.074 241.003C283.861 239.327 286.928 237.227 291.129 236.759Z"/>
	<path fill="#B9EBBC" transform="scale(0.195312 0.195312)" d="M147.798 204.044C147.372 198.76 147.182 175.635 149.189 173.001C151.38 171.954 155.106 172.447 157.529 172.477C155.35 173.101 153.179 172.718 150.967 172.477C149.445 179.038 146.135 192.28 148.193 198.946C150.614 200.049 150.77 201.747 152.464 204.509C156.38 204.249 160.308 204.45 164.227 204.272L164.321 204.386C163.815 204.404 163.37 204.411 162.873 204.509C157.786 204.446 152.794 205.369 147.798 204.044Z"/>
	<path fill="#B9EBBC" transform="scale(0.195312 0.195312)" d="M168.379 250.494C172.282 245.606 177.23 241.507 181.344 236.759C181.354 244.047 172.339 244.751 172.363 250.568C172.376 253.797 175.753 255.841 176.132 258.727C173.446 256.101 171.054 253.15 168.379 250.494Z"/>
	<path fill="#B9EBBC" transform="scale(0.195312 0.195312)" d="M168.379 121.239C170.444 117.299 173.924 114.461 177.157 111.491C176.488 114.458 172.008 116.561 171.918 117.898L172.145 117.86L172.336 118.424L172.564 118.036C172.356 119.112 171.251 123.063 170.424 123.501L168.379 121.239Z"/>
	<path fill="#B9EBBC" transform="scale(0.195312 0.195312)" d="M184.025 267.342C190.36 267.545 189.904 270.236 192.956 266.254L193.251 266.325C191.931 268.374 190.481 269.789 188.646 271.371C186.82 270.295 185.43 268.91 184.025 267.342Z"/>
	<path fill="#D4F7F0" transform="scale(0.195312 0.195312)" d="M325.002 100.885C325.484 101.709 325.967 102.489 326.267 103.4L326.722 104.381L326.492 104.52L326.203 104.349C322.522 102.2 321.542 106.197 318.538 106.892C320.559 104.615 322.552 102.702 325.002 100.885Z"/>
	<path fill="#D4F7F0" transform="scale(0.195312 0.195312)" d="M320.926 268.214C322.968 266.877 324.186 268.443 326.267 268.214C323.943 270.514 323.229 270.59 320.926 268.214Z"/>
	<path fill="#4D82F0" transform="scale(0.195312 0.195312)" d="M241.771 153.548C249.86 153.011 260.462 161.016 267.495 164.797C272.811 167.654 279.311 170.453 284.197 173.892C290.523 178.344 292.157 187.876 285.922 193.327C282.433 196.379 272.884 200.78 268.319 203.232C263.026 205.986 251.117 213.248 246.184 214.628C239.854 216.399 233.039 212.098 231.604 205.753C230.716 201.825 230.809 169.79 231.393 164.995C232.122 159.012 235.81 154.904 241.771 153.548Z"/>
	<path fill="#E8B6CF" transform="scale(0.195312 0.195312)" d="M242.909 163.353C246.43 163.825 279.193 181.925 279.528 182.336C283.343 187.011 269.597 191.753 266.404 193.394L251.539 201.393C248.712 202.923 245.906 204.71 242.909 205.875C242.182 205.323 241.555 204.686 240.908 204.044L240.896 176.444C240.893 171.966 239.182 165.787 242.909 163.353Z"/>
	<path fill="#4D82F0" transform="scale(0.195312 0.195312)" d="M294.723 243.791C292.725 246.309 289.842 247.486 286.965 248.735C240.193 269.036 186.323 236.986 185.776 185.494C185.366 146.914 216.883 113.53 255.836 113.589C261.728 113.598 269.539 113.091 273.989 117.573C276.444 127.01 266.062 124.112 261.654 123.596C238.991 120.942 216.561 133.422 204.614 152.415C172.27 203.832 228.888 263.643 280.074 241.003C283.861 239.327 286.928 237.227 291.129 236.759C292.707 237.587 294.096 238.622 294.723 240.368C294.776 241.506 294.736 242.651 294.723 243.791Z"/>
	<path fill="#4D82F0" transform="scale(0.195312 0.195312)" d="M309.18 141.449C318.918 142.914 330.364 180.806 325.002 189.321C315.117 196.366 316.284 178.808 315.585 174.834C314.405 168.123 312.615 161.986 309.35 155.978C306.503 150.738 301.126 145.29 309.18 141.449Z"/>
	<path fill="#4D82F0" transform="scale(0.195312 0.195312)" d="M288.508 123.501C293.715 123.923 299.463 127.737 300.479 133.021C292.585 143.898 278.91 127.476 288.508 123.501Z"/>
	<path fill="#4D82F0" transform="scale(0.195312 0.195312)" d="M185.982 431.871L319.63 431.867C324.139 431.866 337.929 430.476 341.296 433.487C343.294 435.275 343.263 438.536 341.338 440.368C338.911 442.677 329.786 441.746 326.267 441.744L189 441.734C185.36 441.729 172.58 442.945 169.967 440.614C167.983 438.845 167.258 435.312 169.344 433.328C171.856 430.94 182.548 431.856 185.982 431.871Z"/>
</svg>
