<?xml version="1.0" encoding="utf-8" ?>
<svg xmlns="http://www.w3.org/2000/svg" xmlns:xlink="http://www.w3.org/1999/xlink" width="100" height="100">
	<path fill="#D3E1EE" transform="scale(0.195312 0.195312)" d="M267.994 120.75C278.329 120.356 288.784 120.757 299.136 120.761L403.248 120.713C423.231 120.516 435.306 127.948 435.898 149.293C436.393 167.132 436.012 185.088 436.006 202.941L435.996 220.114C435.991 224.601 436.191 229.66 435.362 234.072C429.467 265.459 391.234 250.178 373.644 255.974C362.047 259.796 350.072 291.235 335.727 277.502C328.556 270.637 322.677 262.216 315.208 255.73C299.482 255.722 283.715 255.48 267.994 255.73C246.241 250.06 244.131 239.58 244.235 218.995C242.368 219.058 240.5 219.158 238.635 218.995C240.47 218.816 242.39 218.959 244.235 218.995C244.106 216.629 244.08 214.329 244.235 211.962C244.388 206.393 244.251 200.789 244.247 195.214L244.223 163.363C244.213 143.953 243.044 124.035 267.994 120.75Z"/>
	<path fill="#3F6182" transform="scale(0.195312 0.195312)" d="M299.995 159.712L373.189 159.705C377.837 159.705 383.623 158.801 387.585 161.793C395.844 168.03 391.492 179.512 380.938 179.885L308.077 179.894C304.955 179.903 301.563 180.166 298.475 179.74C286.601 178.101 287.456 160.115 299.995 159.712Z"/>
	<path fill="#3F6182" transform="scale(0.195312 0.195312)" d="M338.358 196.467C355.092 195.298 356.324 213.926 344.732 216.375C339.973 217.38 334.473 216.862 329.598 216.863L303.886 216.852C284.104 216.943 288.217 198.986 297.452 196.876C301.788 195.886 307.555 196.447 312.084 196.448L338.358 196.467Z"/>
	<path fill="#3F6182" transform="scale(0.195312 0.195312)" d="M379.103 196.405Q379.353 196.353 379.606 196.313Q379.859 196.274 380.113 196.246Q380.367 196.219 380.623 196.204Q380.878 196.19 381.134 196.187Q381.389 196.185 381.645 196.196Q381.9 196.206 382.155 196.229Q382.41 196.252 382.663 196.287Q382.917 196.322 383.168 196.37Q383.419 196.417 383.668 196.477Q383.916 196.537 384.162 196.609Q384.407 196.681 384.649 196.765Q384.89 196.849 385.127 196.945Q385.365 197.041 385.597 197.148Q385.829 197.255 386.056 197.374Q386.282 197.492 386.503 197.621Q386.723 197.751 386.937 197.891Q387.151 198.031 387.358 198.181Q387.565 198.332 387.764 198.492Q387.964 198.652 388.155 198.822Q388.346 198.992 388.528 199.171Q388.711 199.351 388.885 199.538Q389.058 199.726 389.222 199.922Q389.386 200.118 389.541 200.322Q389.695 200.526 389.839 200.737Q389.984 200.949 390.117 201.167Q390.251 201.385 390.374 201.609Q390.497 201.833 390.608 202.063Q390.72 202.294 390.82 202.529Q390.92 202.764 391.009 203.004Q391.098 203.244 391.174 203.488Q391.251 203.732 391.316 203.979Q391.381 204.227 391.433 204.477Q391.485 204.727 391.526 204.98Q391.566 205.232 391.594 205.487Q391.621 205.741 391.637 205.996Q391.652 206.251 391.655 206.507Q391.657 206.763 391.647 207.018Q391.638 207.274 391.615 207.529Q391.593 207.784 391.558 208.037Q391.523 208.29 391.476 208.542Q391.429 208.793 391.37 209.042Q391.31 209.29 391.239 209.536Q391.167 209.782 391.084 210.023Q391 210.265 390.905 210.502Q390.81 210.74 390.703 210.972Q390.596 211.204 390.478 211.431Q390.36 211.658 390.231 211.879Q390.102 212.1 389.963 212.314Q389.823 212.528 389.673 212.736Q389.523 212.943 389.363 213.142Q389.203 213.342 389.034 213.533Q388.864 213.725 388.686 213.908Q388.507 214.091 388.319 214.265Q388.132 214.439 387.936 214.603Q387.74 214.768 387.537 214.922Q387.333 215.077 387.122 215.222Q386.911 215.366 386.694 215.501Q386.476 215.635 386.252 215.758Q386.028 215.881 385.798 215.993Q385.568 216.105 385.333 216.206Q385.098 216.307 384.858 216.396Q384.618 216.485 384.375 216.562Q384.131 216.64 383.883 216.705Q383.636 216.77 383.386 216.823Q383.135 216.876 382.882 216.917Q382.629 216.958 382.374 216.986Q382.119 217.014 381.863 217.03Q381.607 217.046 381.351 217.049Q381.095 217.052 380.838 217.042Q380.582 217.033 380.327 217.011Q380.071 216.989 379.817 216.954Q379.563 216.92 379.311 216.873Q379.059 216.826 378.81 216.766Q378.56 216.707 378.314 216.635Q378.068 216.564 377.825 216.48Q377.583 216.397 377.345 216.301Q377.107 216.206 376.874 216.099Q376.641 215.992 376.413 215.874Q376.186 215.756 375.964 215.627Q375.743 215.497 375.528 215.357Q375.313 215.217 375.106 215.067Q374.898 214.916 374.698 214.756Q374.498 214.596 374.306 214.426Q374.114 214.256 373.931 214.076Q373.748 213.897 373.573 213.709Q373.399 213.521 373.234 213.325Q373.069 213.128 372.914 212.924Q372.759 212.72 372.615 212.508Q372.47 212.296 372.336 212.078Q372.201 211.86 372.078 211.635Q371.955 211.41 371.843 211.179Q371.731 210.949 371.63 210.713Q371.529 210.477 371.44 210.237Q371.351 209.996 371.274 209.752Q371.197 209.507 371.133 209.259Q371.068 209.011 371.015 208.76Q370.962 208.509 370.922 208.256Q370.882 208.003 370.854 207.748Q370.826 207.493 370.811 207.237Q370.796 206.981 370.793 206.725Q370.791 206.468 370.801 206.212Q370.811 205.956 370.833 205.7Q370.856 205.445 370.891 205.191Q370.926 204.937 370.973 204.685Q371.021 204.433 371.081 204.184Q371.141 203.934 371.213 203.688Q371.285 203.442 371.369 203.2Q371.453 202.958 371.549 202.72Q371.644 202.482 371.752 202.249Q371.859 202.016 371.978 201.789Q372.097 201.562 372.226 201.341Q372.356 201.12 372.496 200.905Q372.637 200.69 372.788 200.483Q372.938 200.276 373.099 200.076Q373.26 199.876 373.431 199.685Q373.601 199.493 373.781 199.31Q373.96 199.127 374.149 198.953Q374.337 198.779 374.534 198.615Q374.73 198.451 374.935 198.296Q375.14 198.141 375.352 197.997Q375.563 197.853 375.782 197.719Q376.001 197.585 376.226 197.462Q376.451 197.339 376.682 197.228Q376.913 197.116 377.149 197.016Q377.385 196.916 377.625 196.827Q377.866 196.739 378.111 196.662Q378.356 196.586 378.604 196.522Q378.852 196.457 379.103 196.405Z"/>
	<path fill="#3994EE" transform="scale(0.195312 0.195312)" d="M269.199 294C279.828 293.74 290.526 293.998 301.162 293.999L394.857 294.001C400.622 293.99 406.894 293.452 412.564 294.394C424.544 296.385 435.766 307.792 436.143 320.157C436.285 324.831 435.964 329.604 435.978 334.297L435.987 379.322C435.985 393.376 438.924 409.864 428.811 420.409C416.02 433.746 392.022 429.5 374.345 429.502L283.293 429.497C271.53 429.493 262.647 430.218 253.412 421.176C241.204 409.223 245.541 392.387 244.516 377.252L244.51 340.987C244.5 322.349 242.07 302.91 264.282 295.264C265.887 294.712 267.573 294.473 269.199 294Z"/>
	<path fill="#FEFDFC" transform="scale(0.195312 0.195312)" d="M300.791 333.743L372.354 333.727C376.547 333.728 382.457 332.858 386.228 335.105C394.492 340.028 391.523 351.583 382.734 353.401C376.975 353.567 371.18 353.405 365.417 353.402L311.523 353.426C308.16 353.431 304.564 353.686 301.231 353.355C289.153 352.152 289.086 336.057 300.791 333.743Z"/>
	<path fill="#FEFDFC" transform="scale(0.195312 0.195312)" d="M302.148 372.309L331.366 372.323C335.778 372.325 340.736 371.806 345.071 372.461C356.655 374.209 357.176 390.52 343.811 391.987L314.408 391.985C308.805 391.984 300.283 393.635 295.522 389.85C288.631 384.37 291.647 373.231 302.148 372.309Z"/>
	<path fill="#FEFDFC" transform="scale(0.195312 0.195312)" d="M379.81 371.748Q380.058 371.725 380.307 371.715Q380.556 371.704 380.806 371.706Q381.055 371.708 381.304 371.722Q381.553 371.736 381.801 371.762Q382.049 371.788 382.295 371.826Q382.542 371.864 382.786 371.914Q383.03 371.964 383.272 372.025Q383.514 372.087 383.752 372.161Q383.99 372.234 384.224 372.319Q384.459 372.404 384.689 372.501Q384.919 372.597 385.144 372.704Q385.369 372.812 385.588 372.93Q385.808 373.049 386.021 373.177Q386.235 373.306 386.442 373.445Q386.648 373.584 386.848 373.733Q387.048 373.882 387.241 374.041Q387.433 374.2 387.618 374.367Q387.802 374.535 387.978 374.712Q388.154 374.888 388.321 375.073Q388.489 375.258 388.647 375.451Q388.805 375.644 388.953 375.844Q389.102 376.044 389.24 376.252Q389.379 376.459 389.507 376.673Q389.635 376.887 389.753 377.107Q389.871 377.326 389.977 377.552Q390.084 377.777 390.18 378.007Q390.276 378.237 390.36 378.472Q390.444 378.707 390.517 378.945Q390.59 379.184 390.651 379.425Q390.712 379.667 390.762 379.911Q390.811 380.156 390.848 380.402Q390.886 380.649 390.911 380.897Q390.936 381.145 390.949 381.394Q390.963 381.643 390.964 381.892Q390.965 382.142 390.953 382.391Q390.942 382.64 390.919 382.888Q390.896 383.136 390.86 383.383Q390.825 383.63 390.778 383.875Q390.73 384.12 390.671 384.362Q390.612 384.604 390.541 384.843Q390.47 385.082 390.388 385.318Q390.305 385.553 390.211 385.784Q390.117 386.015 390.013 386.241Q389.908 386.467 389.792 386.688Q389.676 386.909 389.549 387.124Q389.423 387.338 389.286 387.547Q389.149 387.755 389.002 387.957Q388.855 388.158 388.699 388.352Q388.542 388.547 388.377 388.733Q388.211 388.919 388.036 389.097Q387.862 389.275 387.678 389.444Q387.495 389.614 387.304 389.774Q387.113 389.934 386.914 390.084Q386.716 390.235 386.51 390.376Q386.304 390.517 386.092 390.647Q385.879 390.778 385.661 390.898Q385.442 391.018 385.218 391.127Q384.994 391.236 384.765 391.335Q384.536 391.433 384.302 391.52Q384.068 391.607 383.83 391.682Q383.593 391.758 383.352 391.821Q383.111 391.885 382.867 391.937Q382.623 391.989 382.377 392.029Q382.131 392.069 381.883 392.097Q381.548 392.135 381.211 392.15Q380.874 392.166 380.537 392.159Q380.2 392.153 379.865 392.124Q379.529 392.095 379.195 392.045Q378.862 391.994 378.533 391.921Q378.204 391.848 377.88 391.754Q377.556 391.66 377.24 391.545Q376.923 391.43 376.614 391.294Q376.306 391.158 376.007 391.002Q375.708 390.846 375.42 390.671Q375.132 390.496 374.856 390.302Q374.58 390.108 374.318 389.896Q374.055 389.685 373.808 389.456Q373.56 389.228 373.327 388.984Q373.095 388.74 372.879 388.481Q372.663 388.222 372.465 387.949Q372.267 387.676 372.087 387.391Q371.907 387.106 371.746 386.81Q371.585 386.513 371.445 386.207Q371.304 385.901 371.183 385.586Q371.063 385.271 370.964 384.949Q370.864 384.627 370.786 384.299Q370.708 383.971 370.652 383.639Q370.596 383.306 370.562 382.971Q370.527 382.636 370.515 382.299Q370.503 381.962 370.513 381.625Q370.524 381.288 370.556 380.952Q370.588 380.617 370.643 380.284Q370.697 379.951 370.773 379.623Q370.849 379.294 370.947 378.972Q371.044 378.649 371.163 378.334Q371.282 378.018 371.421 377.711Q371.56 377.404 371.719 377.107Q371.878 376.809 372.057 376.523Q372.235 376.237 372.432 375.963Q372.629 375.69 372.843 375.429Q373.058 375.169 373.289 374.924Q373.52 374.678 373.766 374.448Q374.013 374.219 374.275 374.006Q374.536 373.793 374.811 373.597Q375.086 373.402 375.373 373.225Q375.66 373.048 375.958 372.891Q376.256 372.733 376.564 372.596Q376.872 372.458 377.188 372.341Q377.504 372.224 377.827 372.128Q378.15 372.032 378.479 371.958Q378.808 371.884 379.141 371.831Q379.474 371.779 379.81 371.748Z"/>
	<path fill="#3994EE" transform="scale(0.195312 0.195312)" d="M128.031 211.962C112.468 210.84 97.0061 215.697 84.3829 203.273C77.5301 196.528 75.8647 188.164 75.7965 178.896L75.7874 129.625C75.7864 114.471 72.662 97.6362 84.3342 85.8921C91.1605 79.0237 97.1948 77.4851 106.615 77.4711L229.154 77.476C262.829 77.4824 268.058 89.1723 267.994 120.75C243.044 124.035 244.213 143.953 244.223 163.363L244.247 195.214C244.251 200.789 244.388 206.393 244.235 211.962C244.08 214.329 244.106 216.629 244.235 218.995C242.39 218.959 240.47 218.816 238.635 218.995C223.587 220.101 205.85 218.623 190.345 218.995C185.032 223.705 177.404 234.379 170.079 234.542C163.091 234.697 154.846 223.917 149.458 218.995C148.091 219.336 146.31 218.904 144.875 218.912L126.326 218.995C127.258 218.196 128.879 219.024 129.91 218.127C128.898 214.305 131.609 214.647 134.004 212.453L133.89 212.248C131.906 212.437 129.995 212.213 128.031 211.962ZM162.996 138.357C158.738 143.419 157.814 159.3 163.348 163.676C171.879 170.42 179.596 162.025 179.64 152.31C216.831 137.866 200.754 90.9037 166.42 94.5986C158.167 95.4316 150.921 99.2583 145.662 105.713C127.367 128.169 147.05 145.317 156.088 132.906C160.634 126.664 155.242 116.022 167.373 114.025C173.306 113.048 179.809 116.289 180.715 122.621C182.549 135.43 169.644 132.877 162.996 138.357Z"/>
	<path fill="#FEFDFC" transform="scale(0.195312 0.195312)" d="M190.345 218.995C199.71 209.149 201.374 211.959 214.996 211.956L244.235 211.962C244.08 214.329 244.106 216.629 244.235 218.995C242.39 218.959 240.47 218.816 238.635 218.995C223.587 220.101 205.85 218.623 190.345 218.995Z"/>
	<path fill="#FEFDFC" transform="scale(0.195312 0.195312)" d="M128.031 211.962C138.278 211.836 142.735 210.626 149.458 218.995C148.091 219.336 146.31 218.904 144.875 218.912L126.326 218.995C127.258 218.196 128.879 219.024 129.91 218.127C128.898 214.305 131.609 214.647 134.004 212.453L133.89 212.248C131.906 212.437 129.995 212.213 128.031 211.962Z"/>
	<path fill="#FEFDFC" transform="scale(0.195312 0.195312)" d="M167.86 173.663Q168.108 173.622 168.357 173.593Q168.606 173.563 168.857 173.546Q169.107 173.529 169.358 173.525Q169.609 173.52 169.86 173.527Q170.111 173.534 170.362 173.554Q170.612 173.573 170.861 173.605Q171.11 173.636 171.357 173.68Q171.605 173.724 171.85 173.779Q172.094 173.835 172.336 173.902Q172.578 173.969 172.816 174.048Q173.055 174.127 173.289 174.218Q173.523 174.308 173.753 174.41Q173.982 174.512 174.207 174.624Q174.431 174.737 174.65 174.861Q174.868 174.984 175.081 175.118Q175.293 175.252 175.499 175.396Q175.704 175.54 175.903 175.694Q176.101 175.848 176.292 176.011Q176.483 176.174 176.665 176.347Q176.848 176.519 177.022 176.7Q177.196 176.881 177.361 177.07Q177.526 177.259 177.681 177.456Q177.837 177.653 177.983 177.858Q178.129 178.062 178.265 178.273Q178.401 178.484 178.526 178.702Q178.652 178.919 178.766 179.143Q178.881 179.366 178.985 179.594Q179.089 179.823 179.181 180.056Q179.274 180.29 179.355 180.527Q179.436 180.765 179.506 181.006Q179.576 181.247 179.633 181.492Q179.691 181.736 179.737 181.983Q179.783 182.23 179.817 182.479Q179.851 182.727 179.872 182.977Q179.894 183.228 179.904 183.478Q179.913 183.729 179.911 183.98Q179.908 184.231 179.894 184.482Q179.879 184.733 179.852 184.982Q179.825 185.232 179.786 185.48Q179.747 185.728 179.696 185.974Q179.645 186.22 179.583 186.463Q179.52 186.706 179.445 186.946Q179.371 187.185 179.285 187.421Q179.199 187.657 179.102 187.889Q179.004 188.12 178.896 188.346Q178.787 188.573 178.668 188.794Q178.549 189.015 178.419 189.229Q178.289 189.444 178.149 189.653Q178.009 189.861 177.859 190.062Q177.709 190.264 177.549 190.457Q177.39 190.651 177.221 190.837Q177.052 191.023 176.874 191.2Q176.697 191.378 176.511 191.546Q176.324 191.715 176.13 191.874Q175.936 192.033 175.735 192.183Q175.534 192.333 175.325 192.473Q175.117 192.613 174.901 192.742Q174.686 192.872 174.465 192.991Q174.244 193.11 174.018 193.218Q173.791 193.326 173.56 193.423Q173.328 193.52 173.092 193.606Q172.856 193.691 172.616 193.765Q172.376 193.84 172.133 193.902Q171.89 193.964 171.644 194.015Q171.308 194.084 170.968 194.131Q170.628 194.177 170.286 194.202Q169.944 194.226 169.601 194.227Q169.258 194.228 168.916 194.207Q168.574 194.186 168.233 194.142Q167.893 194.098 167.557 194.031Q167.22 193.965 166.889 193.877Q166.558 193.788 166.233 193.678Q165.908 193.568 165.591 193.436Q165.274 193.305 164.967 193.153Q164.66 193 164.363 192.828Q164.066 192.656 163.782 192.465Q163.497 192.273 163.226 192.063Q162.955 191.854 162.698 191.626Q162.441 191.399 162.2 191.155Q161.959 190.911 161.734 190.652Q161.509 190.393 161.303 190.119Q161.096 189.846 160.907 189.559Q160.719 189.272 160.55 188.974Q160.381 188.675 160.232 188.366Q160.083 188.057 159.955 187.739Q159.827 187.421 159.721 187.095Q159.614 186.769 159.529 186.437Q159.444 186.104 159.382 185.767Q159.319 185.43 159.279 185.089Q159.238 184.749 159.221 184.406Q159.203 184.064 159.208 183.721Q159.213 183.378 159.241 183.036Q159.269 182.694 159.319 182.355Q159.37 182.015 159.442 181.68Q159.515 181.345 159.61 181.015Q159.705 180.686 159.821 180.363Q159.937 180.04 160.075 179.726Q160.212 179.412 160.37 179.107Q160.528 178.803 160.706 178.51Q160.884 178.216 161.08 177.935Q161.277 177.655 161.492 177.387Q161.707 177.12 161.939 176.868Q162.171 176.615 162.42 176.379Q162.668 176.142 162.932 175.922Q163.195 175.703 163.472 175.501Q163.75 175.299 164.04 175.117Q164.33 174.934 164.632 174.771Q164.933 174.607 165.245 174.464Q165.557 174.321 165.878 174.199Q166.198 174.077 166.526 173.977Q166.854 173.876 167.188 173.798Q167.522 173.719 167.86 173.663Z"/>
	<path fill="#57B4CB" transform="scale(0.195312 0.195312)" d="M149.458 218.995C154.846 223.917 163.091 234.697 170.079 234.542C177.404 234.379 185.032 223.705 190.345 218.995C205.85 218.623 223.587 220.101 238.635 218.995C240.5 219.158 242.368 219.058 244.235 218.995C244.131 239.58 246.241 250.06 267.994 255.73C267.993 261.083 266.966 291.713 268.509 293.953L269.199 294C267.573 294.473 265.887 294.712 264.282 295.264C242.07 302.91 244.5 322.349 244.51 340.987L244.516 377.252C240.583 377.297 235.395 377.437 232.006 375.072C228.191 372.411 215.725 358.485 213.311 354.982C211.318 354.861 209.298 354.95 207.302 354.964L116.264 354.988C104.121 354.981 93.9084 355.213 84.6435 345.976C77.8465 339.199 75.8051 331.762 75.7855 322.361L75.7615 255.65C75.7482 229.992 85.6615 218.983 111.531 218.984L126.326 218.995L144.875 218.912C146.31 218.904 148.091 219.336 149.458 218.995Z"/>
	<path fill="#3F6182" transform="scale(0.195312 0.195312)" d="M129.874 257.987L203.451 257.992C208.371 257.995 214.886 257.015 219.104 260.158C226.85 265.931 223.194 276.471 213.311 277.468L138.265 277.475C133.696 277.49 127.756 278.465 123.822 275.567C115.77 269.636 120.317 258.91 129.874 257.987Z"/>
	<path fill="#3F6182" transform="scale(0.195312 0.195312)" d="M128.031 294C131.785 294.291 135.756 294.017 139.531 294.01L162.769 293.988C167.941 293.99 174.963 293.006 179.64 295.78C187.85 300.651 184.865 312.309 176.061 314.011C173.744 314.181 171.338 314.027 169.011 314.024L139.186 314.021C131.957 314.018 122.418 315.282 120.032 306.285C118.568 300.766 122.829 295.368 128.031 294Z"/>
	<path fill="#3F6182" transform="scale(0.195312 0.195312)" d="M210.027 294.271Q210.272 294.215 210.52 294.171Q210.768 294.127 211.018 294.096Q211.267 294.064 211.518 294.045Q211.769 294.026 212.021 294.019Q212.272 294.012 212.524 294.017Q212.776 294.023 213.027 294.041Q213.278 294.059 213.528 294.089Q213.778 294.119 214.026 294.162Q214.274 294.204 214.519 294.259Q214.765 294.314 215.008 294.38Q215.25 294.447 215.489 294.526Q215.729 294.604 215.963 294.695Q216.198 294.785 216.429 294.887Q216.659 294.988 216.884 295.101Q217.109 295.214 217.328 295.338Q217.547 295.462 217.759 295.597Q217.972 295.731 218.178 295.876Q218.384 296.021 218.582 296.176Q218.781 296.331 218.971 296.495Q219.162 296.659 219.344 296.833Q219.526 297.006 219.7 297.189Q219.873 297.371 220.038 297.562Q220.202 297.753 220.357 297.951Q220.511 298.15 220.656 298.355Q220.801 298.561 220.935 298.774Q221.07 298.987 221.193 299.206Q221.317 299.425 221.43 299.65Q221.543 299.875 221.644 300.105Q221.746 300.336 221.836 300.571Q221.926 300.806 222.005 301.045Q222.083 301.284 222.15 301.527Q222.216 301.769 222.271 302.015Q222.326 302.261 222.368 302.509Q222.41 302.757 222.44 303.007Q222.471 303.257 222.488 303.508Q222.506 303.759 222.511 304.01Q222.517 304.262 222.51 304.514Q222.503 304.765 222.483 305.016Q222.464 305.267 222.432 305.517Q222.4 305.766 222.357 306.014Q222.313 306.262 222.256 306.507Q222.2 306.753 222.132 306.995Q222.064 307.237 221.984 307.476Q221.904 307.714 221.812 307.949Q221.721 308.183 221.617 308.413Q221.514 308.642 221.4 308.867Q221.286 309.091 221.161 309.309Q221.035 309.528 220.9 309.739Q220.764 309.951 220.618 310.156Q220.472 310.361 220.316 310.559Q220.16 310.756 219.994 310.946Q219.829 311.136 219.654 311.317Q219.48 311.498 219.296 311.67Q219.113 311.843 218.921 312.006Q218.73 312.169 218.53 312.323Q218.331 312.476 218.124 312.62Q217.917 312.763 217.704 312.896Q217.49 313.029 217.27 313.152Q217.05 313.274 216.825 313.386Q216.599 313.497 216.368 313.598Q216.137 313.698 215.902 313.787Q215.666 313.875 215.427 313.952Q215.187 314.03 214.944 314.095Q214.701 314.16 214.455 314.213Q214.211 314.266 213.964 314.306Q213.718 314.347 213.47 314.376Q213.222 314.404 212.972 314.421Q212.723 314.437 212.473 314.442Q212.223 314.446 211.974 314.438Q211.724 314.43 211.475 314.41Q211.226 314.39 210.978 314.357Q210.731 314.325 210.485 314.281Q210.239 314.236 209.996 314.18Q209.752 314.123 209.512 314.055Q209.272 313.987 209.035 313.907Q208.798 313.827 208.566 313.736Q208.333 313.645 208.105 313.542Q207.878 313.44 207.655 313.326Q207.433 313.213 207.216 313.088Q206.999 312.964 206.789 312.829Q206.579 312.694 206.375 312.549Q206.172 312.405 205.975 312.25Q205.779 312.095 205.591 311.931Q205.402 311.767 205.222 311.594Q205.042 311.421 204.871 311.239Q204.699 311.058 204.537 310.868Q204.375 310.678 204.222 310.48Q204.069 310.283 203.926 310.078Q203.783 309.873 203.65 309.662Q203.517 309.45 203.395 309.232Q203.272 309.015 203.161 308.791Q203.049 308.568 202.949 308.339Q202.848 308.11 202.759 307.877Q202.67 307.643 202.592 307.406Q202.514 307.169 202.448 306.928Q202.382 306.687 202.328 306.443Q202.274 306.199 202.232 305.953Q202.19 305.707 202.159 305.459Q202.129 305.211 202.111 304.962Q202.094 304.712 202.088 304.463Q202.082 304.213 202.089 303.963Q202.095 303.713 202.114 303.464Q202.133 303.215 202.163 302.967Q202.194 302.719 202.237 302.473Q202.28 302.227 202.335 301.984Q202.39 301.74 202.457 301.499Q202.524 301.258 202.602 301.021Q202.68 300.784 202.77 300.551Q202.86 300.318 202.962 300.09Q203.063 299.861 203.175 299.638Q203.287 299.415 203.411 299.198Q203.534 298.98 203.667 298.769Q203.801 298.558 203.944 298.354Q204.088 298.149 204.242 297.952Q204.395 297.755 204.558 297.566Q204.721 297.377 204.893 297.195Q205.065 297.014 205.246 296.842Q205.426 296.669 205.615 296.506Q205.804 296.342 206.001 296.188Q206.197 296.034 206.401 295.89Q206.605 295.746 206.816 295.612Q207.027 295.478 207.244 295.354Q207.461 295.23 207.684 295.117Q207.907 295.004 208.135 294.903Q208.363 294.801 208.596 294.71Q208.828 294.62 209.065 294.541Q209.302 294.461 209.543 294.394Q209.783 294.327 210.027 294.271Z"/>
</svg>
