<?xml version="1.0" encoding="utf-8" ?>
<svg xmlns="http://www.w3.org/2000/svg" xmlns:xlink="http://www.w3.org/1999/xlink" width="100" height="100">
	<defs>
		<linearGradient id="gradient_0" gradientUnits="userSpaceOnUse" x1="215.58949" y1="327.13303" x2="205.66273" y2="183.28085">
			<stop offset="0" stop-color="#FBB86C"/>
			<stop offset="1" stop-color="#FFD265"/>
		</linearGradient>
	</defs>
	<path fill="url(#gradient_0)" transform="scale(0.195312 0.195312)" d="M249.638 325.758C243.727 325.304 237.485 325.749 231.532 325.753L193.265 325.767C183.958 325.767 174.569 326.166 165.443 323.976C143.95 318.818 124.852 299.524 121.917 277.382C119.089 256.053 120.979 226.097 134.22 209.02C152.537 185.397 171.567 184.548 198.027 184.544L229.879 184.558C234.962 184.584 240.355 185.697 245.367 185.043L245.688 185C247.244 184.604 249.041 185.244 250.685 185.205C268.386 184.783 286.118 184.997 303.826 184.999C314.575 185 327.999 184.237 338.428 185.851C362.498 189.577 383.383 210.149 389.138 233.442C390.825 240.267 391.433 248.107 392.249 255.128L392.234 255.369C391.936 260.588 392.453 265.769 391.957 271.01C389.49 297.1 368.942 318.225 343.873 323.975C331.654 326.778 318.145 325.765 305.668 325.763C287.005 325.761 268.293 325.455 249.638 325.758ZM296.978 287.756L329.394 288.028C347.296 288.29 365.865 272.643 366.052 254.208C363.472 238.117 347.367 224.694 331.351 223.872C327.098 223.654 322.696 223.962 318.425 223.966L294.666 223.97C301.093 239.969 302.969 258.07 300.15 275.131C299.437 279.449 297.884 283.5 296.978 287.756ZM219.923 287.756C212.684 279.12 211.173 264.111 211.282 253.191C210.401 246.895 215.992 228.381 219.923 223.97C216.093 224.163 212.248 224.006 208.414 223.981L191.286 223.95C169.285 223.94 151.535 227.497 146.822 252.035C146.099 260.647 148.731 267.81 154.36 274.529C165.788 288.166 178.804 287.763 194.718 287.762L219.923 287.756ZM237.761 249.531C237.621 265.461 241.692 273.089 255.203 283.181C267.291 277.615 275.528 262.604 273.852 249.531C271.932 239.598 265.105 232.461 257.035 226.799C247.728 232.206 240.103 238.436 237.761 249.531Z"/>
	<path fill="#B6E1F4" transform="scale(0.195312 0.195312)" d="M245.688 185C247.244 184.604 249.041 185.244 250.685 185.205C268.386 184.783 286.118 184.997 303.826 184.999C314.575 185 327.999 184.237 338.428 185.851C362.498 189.577 383.383 210.149 389.138 233.442C390.825 240.267 391.433 248.107 392.249 255.128L392.234 255.369C391.936 260.588 392.453 265.769 391.957 271.01C389.49 297.1 368.942 318.225 343.873 323.975C331.654 326.778 318.145 325.765 305.668 325.763C287.005 325.761 268.293 325.455 249.638 325.758C251.215 323.451 256.696 323.341 259.258 322.507C267.208 319.921 274.158 315.08 280.716 310.036C288.499 303.258 291.804 296.205 296.978 287.756L329.394 288.028C347.296 288.29 365.865 272.643 366.052 254.208C363.472 238.117 347.367 224.694 331.351 223.872C327.098 223.654 322.696 223.962 318.425 223.966L294.666 223.97C292.051 218.058 288.281 213.06 284.794 207.677C282.981 207.358 279.018 202.678 277.553 201.376C264.291 189.588 258.356 191.521 245.688 185Z"/>
	<path fill="#7BC3F0" transform="scale(0.195312 0.195312)" d="M280.716 310.036C294.566 310.267 310.6 309.043 324.015 309.868C325.877 309.983 325.442 310.844 326.304 311.878C354.068 313.369 379.935 294.023 388.507 267.859C389.75 264.064 390.261 255.725 391.61 253.583L391.94 253.73C391.956 254.226 392.095 254.664 392.249 255.128L392.234 255.369C391.936 260.588 392.453 265.769 391.957 271.01C389.49 297.1 368.942 318.225 343.873 323.975C331.654 326.778 318.145 325.765 305.668 325.763C287.005 325.761 268.293 325.455 249.638 325.758C251.215 323.451 256.696 323.341 259.258 322.507C267.208 319.921 274.158 315.08 280.716 310.036Z"/>
	<path fill="#7BC3F0" transform="scale(0.195312 0.195312)" d="M284.794 207.677C307.377 207.289 337.693 204.194 354.457 220.427C361.753 227.494 369.417 243.694 366.557 253.889L366.052 254.208C363.472 238.117 347.367 224.694 331.351 223.872C327.098 223.654 322.696 223.962 318.425 223.966L294.666 223.97C292.051 218.058 288.281 213.06 284.794 207.677Z"/>
	<path fill="#B6E1F4" transform="scale(0.195312 0.195312)" d="M245.688 223.97C250.661 223.879 252.783 223.7 257.035 226.799C247.728 232.206 240.103 238.436 237.761 249.531C237.621 265.461 241.692 273.089 255.203 283.181C252.186 284.916 249.074 286.089 245.688 286.884C240.107 288.206 226.365 288.244 219.923 287.756C212.684 279.12 211.173 264.111 211.282 253.191C210.401 246.895 215.992 228.381 219.923 223.97C228.505 223.836 237.104 223.957 245.688 223.97Z"/>
	<path fill="#7BC3F0" transform="scale(0.195312 0.195312)" d="M211.282 253.191C212.72 254.508 213.146 258.386 213.762 260.344C217.803 273.194 227.516 283.216 240.833 285.756C242.359 286.047 244.312 286.181 245.688 286.884C240.107 288.206 226.365 288.244 219.923 287.756C212.684 279.12 211.173 264.111 211.282 253.191Z"/>
	<path fill="#7BC3F0" transform="scale(0.195312 0.195312)" d="M245.688 223.97C250.661 223.879 252.783 223.7 257.035 226.799C247.728 232.206 240.103 238.436 237.761 249.531C234.21 244.781 243.167 228.103 245.688 223.97Z"/>
	<path fill="#F5AC6D" transform="scale(0.195312 0.195312)" d="M146.822 252.035C141.155 248.561 150.04 226.878 153.879 222.168C167.915 204.946 186.713 207.703 206.334 207.683L224.026 207.643C229.202 207.643 234.381 207.446 239.48 208.496C256.803 212.062 273.055 226.095 274.785 244.443C274.954 246.238 275.06 248.085 273.852 249.531C271.932 239.598 265.105 232.461 257.035 226.799C252.783 223.7 250.661 223.879 245.688 223.97C237.104 223.957 228.505 223.836 219.923 223.97C216.093 224.163 212.248 224.006 208.414 223.981L191.286 223.95C169.285 223.94 151.535 227.497 146.822 252.035Z"/>
	<path fill="#4A5568" transform="scale(0.195312 0.195312)" d="M236.067 102.415C243.742 101.635 248.078 108.219 252.909 113.05C258.036 118.179 266.065 124.821 262.017 133.158C260.192 136.916 245.251 152.794 240.028 154.518C232.12 157.129 223.554 148.123 228.966 138.498C217.1 138.128 205.116 138.497 193.233 138.496L175.259 138.492C167.538 138.488 159.92 138.425 152.303 139.934C122.631 145.811 98.8079 172.592 96.6075 202.837C96.006 211.105 96.2261 219.443 96.2269 227.729L96.2281 293.843C96.229 300.596 95.9343 307.477 96.874 314.176C101.168 344.786 128.599 368.89 158.81 372.361C163.708 372.924 168.736 372.641 173.663 372.638L198.887 372.625C205.234 372.62 212.923 371.44 219.018 373.401C226.835 378.009 226.634 389.928 217.639 391.576C212.697 392.481 205.519 391.719 200.321 391.712L161.412 391.851C118.823 392.145 79.8332 353.545 76.7699 311.397C76.3708 305.906 76.5097 300.362 76.5089 294.86L76.3925 210.44C76.3846 161.675 113.348 121.555 162.045 118.392C169.445 117.912 177.065 118.273 184.489 118.272L228.966 118.274L228.842 118.013C225.674 111.287 227.836 103.835 236.067 102.415Z"/>
	<path fill="#4A5568" transform="scale(0.195312 0.195312)" d="M296.978 118.274C328.494 120.092 356.971 112.877 387.275 129.179C417.064 145.204 435.683 176.292 435.879 210.26L435.898 293.678C435.945 314.628 435.126 328.564 424.085 347.242C400.96 386.363 366.97 391.715 324.948 391.722L283.578 391.714C285.266 399.245 283.884 407.793 274.059 407.676C268.014 407.604 262.476 400.065 258.585 395.99C252.169 389.535 245.411 383.63 251.848 374.573C253.898 371.689 265.885 359.673 268.732 357.893C277.04 352.7 287.058 361.341 283.578 372.623C306.191 373.476 352.578 374.466 371 367.566C394.259 358.853 412.416 337.633 415.493 312.777C416.425 305.256 416.113 297.48 416.109 289.918L416.11 224.665C416.115 217.333 416.42 209.878 415.665 202.578C412.444 171.437 387.733 144.333 356.519 139.464C349.252 138.331 341.955 138.484 334.627 138.487L311.37 138.507C307.113 138.512 298.112 139.232 294.436 137.495C285.22 133.143 288.183 120.83 296.978 118.274Z"/>
	<path fill="#E3E2E2" transform="scale(0.195312 0.195312)" d="M335.898 87.5936C398.515 84.7842 455.47 131.219 464.557 193.462C465.763 201.722 469.904 219.824 458.485 220.89C449.754 220.755 451.257 212.159 450.917 205.972C447.696 147.52 402.159 104.909 343.341 102.486C339.455 102.326 333.987 102.932 330.719 100.363C325.041 95.9003 329.232 88.0761 335.898 87.5936Z"/>
	<path fill="#E3E2E2" transform="scale(0.195312 0.195312)" d="M52.67 298.335C62.2381 298.138 60.8654 309.086 61.4221 315.508C65.6037 363.751 112.651 406.163 160.83 407.498C165.392 407.625 176.121 406.548 179.5 408.985C184.813 412.815 181.747 420.944 175.738 421.772C172.198 422.277 168.35 421.922 164.786 421.815C111.173 420.203 64.7009 385.154 49.8497 333.006C47.5776 325.028 41.0697 301.145 52.67 298.335Z"/>
</svg>
