<?xml version="1.0" encoding="utf-8" ?>
<svg xmlns="http://www.w3.org/2000/svg" xmlns:xlink="http://www.w3.org/1999/xlink" width="100" height="100">
	<path fill="#B6CEFA" transform="scale(0.195312 0.195312)" d="M122.063 117.773C126.679 117.69 131.3 117.752 135.917 117.773L135.917 117.773L135.926 305.709C135.907 318.473 132.464 324.142 144.053 333.047C152.44 335.053 161.614 334.298 170.162 334.298L367.157 334.303C391.537 334.378 389.498 328.956 389.488 307.021L389.481 173.366L389.481 156.719L405.034 156.7C409.719 156.693 414.926 156.212 419.47 157.446C437.189 162.261 434.713 179.55 434.707 193.395L434.701 354.268L434.725 367.437C434.753 385.782 430.798 394.005 411.29 394.029L312.701 394.02C312.706 395.424 312.769 396.86 312.701 398.261L312.701 422.705L330.163 422.689C345.067 422.655 342.639 421.972 342.131 439.255L182.42 439.255C179.269 439.237 172.976 440.223 170.663 437.841C168.425 435.538 168.439 426.224 170.885 423.969C173.224 421.814 179.336 422.681 182.42 422.705L200.508 422.705L200.508 412.966L200.508 407.605L200.508 394.02C197.484 393.711 194.241 393.991 191.191 394.001L109.57 394.02C99.3645 393.637 89.9552 395.955 82.4182 387.08C77.1057 380.824 77.9784 372.864 77.9948 365.222L77.9727 333.897C77.9535 330.951 77.7793 327.93 77.9961 324.995C77.822 321.933 77.9872 318.764 77.9884 315.693L77.9903 196.119C77.9914 179.175 74.6053 159.982 97.7038 157.267C100.169 156.953 102.939 157.237 105.441 157.243L122.063 157.267C122.581 152.82 122.083 148.458 122.059 144.008L122.063 117.773Z"/>
	<path fill="#C2C2D1" transform="scale(0.195312 0.195312)" d="M77.9961 324.995C78.2222 328.432 78.024 331.956 78.0093 335.404L77.9961 354.268L88.0044 354.318C90.2278 354.349 92.5659 354.608 94.767 354.268L94.767 354.268C97.2751 354.686 100.164 354.332 102.735 354.302L410.087 354.249C413.032 354.244 416.062 354.091 418.997 354.268C421.56 354.523 432.387 354.538 434.701 354.268L434.725 367.437C434.753 385.782 430.798 394.005 411.29 394.029L312.701 394.02C312.706 395.424 312.769 396.86 312.701 398.261L312.701 422.705L330.163 422.689C345.067 422.655 342.639 421.972 342.131 439.255L182.42 439.255C179.269 439.237 172.976 440.223 170.663 437.841C168.425 435.538 168.439 426.224 170.885 423.969C173.224 421.814 179.336 422.681 182.42 422.705L200.508 422.705L200.508 412.966L200.508 407.605L200.508 394.02C197.484 393.711 194.241 393.991 191.191 394.001L109.57 394.02C99.3645 393.637 89.9552 395.955 82.4182 387.08C77.1057 380.824 77.9784 372.864 77.9948 365.222L77.9727 333.897C77.9535 330.951 77.7793 327.93 77.9961 324.995Z"/>
	<path fill="#6D66AA" transform="scale(0.195312 0.195312)" d="M200.508 394.02L270.801 394.02C284.763 394.02 298.74 394.165 312.701 394.02C312.71 395.424 312.775 396.86 312.701 398.261L312.701 398.261L312.701 422.705L330.163 422.689C345.067 422.655 342.639 421.972 342.131 439.255L182.42 439.255C179.269 439.237 172.976 440.223 170.663 437.841C168.425 435.538 168.439 426.224 170.885 423.969C173.224 421.814 179.336 422.681 182.42 422.705L200.508 422.705L200.508 412.966L200.508 407.605L200.508 394.02Z"/>
	<path fill="#7C7CCC" transform="scale(0.195312 0.195312)" d="M200.508 412.966C200.775 416.223 200.752 419.446 200.508 422.705L275.221 422.712C287.697 422.71 300.233 422.423 312.701 422.705L330.163 422.689C345.067 422.655 342.639 421.972 342.131 439.255L182.42 439.255C179.269 439.237 172.976 440.223 170.663 437.841C168.425 435.538 168.439 426.224 170.885 423.969C173.224 421.814 179.336 422.681 182.42 422.705L200.508 422.705L200.508 412.966Z"/>
	<path fill="#585391" transform="scale(0.195312 0.195312)" d="M182.42 439.255C179.269 439.237 172.976 440.223 170.663 437.841C168.425 435.538 168.439 426.224 170.885 423.969C173.224 421.814 179.336 422.681 182.42 422.705L182.42 439.255Z"/>
	<path fill="#585391" transform="scale(0.195312 0.195312)" d="M200.508 394.02L270.801 394.02C284.763 394.02 298.74 394.165 312.701 394.02C312.71 395.424 312.775 396.86 312.701 398.261C312.367 401.311 312.73 404.528 312.701 407.605L244.005 407.6C239.766 407.6 200.846 407.892 200.508 407.605L200.508 394.02Z"/>
	<path fill="#817FA1" transform="scale(0.195312 0.195312)" d="M77.9961 324.995C78.2222 328.432 78.024 331.956 78.0093 335.404L77.9961 354.268L88.0044 354.318C90.2278 354.349 92.5659 354.608 94.767 354.268L94.7603 365.413C94.7405 375.347 97.083 392.584 110.221 393.503L110.352 393.726L109.57 394.02C99.3645 393.637 89.9552 395.955 82.4182 387.08C77.1057 380.824 77.9784 372.864 77.9948 365.222L77.9727 333.897C77.9535 330.951 77.7793 327.93 77.9961 324.995Z"/>
	<path fill="#7C7CCC" transform="scale(0.195312 0.195312)" d="M239.119 367.687C248.691 367.483 263.798 366.841 273.184 367.668C281.438 368.395 282.549 378.667 274.941 381.029C266.548 381.695 249.907 381.514 241.391 381.001C232.488 380.465 231.066 370.341 239.119 367.687Z"/>
	<path fill="#585391" transform="scale(0.195312 0.195312)" d="M97.7038 157.267C100.169 156.953 102.939 157.237 105.441 157.243L122.063 157.267C122.061 162.624 121.936 168.013 122.063 173.366L121.782 174.197C119.145 175.327 103.456 174.94 99.9414 174.789C91.7273 174.913 94.8039 188.471 94.7746 194.884L94.767 354.268L94.767 354.268C92.5659 354.608 90.2278 354.349 88.0044 354.318L77.9961 354.268L78.0093 335.404C78.024 331.956 78.2222 328.432 77.9961 324.995C77.822 321.933 77.9872 318.764 77.9884 315.693L77.9903 196.119C77.9914 179.175 74.6053 159.982 97.7038 157.267Z"/>
	<path fill="#6D66AA" transform="scale(0.195312 0.195312)" d="M97.7038 157.267C100.169 156.953 102.939 157.237 105.441 157.243L122.063 157.267C122.061 162.624 121.936 168.013 122.063 173.366L121.782 174.197C119.145 175.327 103.456 174.94 99.9414 174.789C100.77 166.075 100.034 166.081 104.61 157.267C102.294 157.415 100.014 157.561 97.7038 157.267Z"/>
	<path fill="#6D66AA" transform="scale(0.195312 0.195312)" d="M389.481 156.719L405.034 156.7C409.719 156.693 414.926 156.212 419.47 157.446C437.189 162.261 434.713 179.55 434.707 193.395L434.701 354.268C432.387 354.538 421.56 354.523 418.997 354.268L418.998 195.638C419 189.126 419.237 182.546 418.997 176.044C413.68 170.983 397.288 173.358 389.481 173.366L389.481 156.719Z"/>
	<path fill="#C2C2D1" transform="scale(0.195312 0.195312)" d="M122.063 117.773C126.679 117.69 131.3 117.752 135.917 117.773L135.917 117.773L135.926 305.709C135.907 318.473 132.464 324.142 144.053 333.047C123.171 333.133 122.052 325.361 122.055 306.635L122.073 186.223C122.089 181.948 122.236 177.636 122.063 173.366C121.936 168.013 122.061 162.624 122.063 157.267C122.581 152.82 122.083 148.458 122.059 144.008L122.063 117.773Z"/>
	<path fill="#FEB755" transform="scale(0.195312 0.195312)" d="M142.033 67.7727L228.277 67.7688C241.555 67.7727 252.84 67.5048 256.979 83.4927C266.297 83.3575 275.634 83.4952 284.954 83.498L367.094 83.4844C388.221 83.4463 389.443 82.4375 389.49 106.326C389.496 109.519 389.982 114.904 389.481 117.773L144.41 117.751C141.626 117.745 138.686 117.548 135.917 117.773L135.917 117.773C131.3 117.752 126.679 117.69 122.063 117.773L122.064 87.5631C122.18 73.7413 128.107 67.571 142.033 67.7727ZM135.917 97.8995C140.573 101.922 150.905 102.2 153.282 93.4343C150.936 86.2184 139.727 86.662 136.259 89.5279C134.879 92.4813 135.193 94.8355 135.917 97.8995ZM172.389 99.7604C176.976 98.3538 177.659 90.9113 173.275 88.7902C170.738 87.5631 166.034 88.2342 163.23 88.2574C158.318 89.2389 157.662 97.2622 161.859 99.395C163.618 100.289 170.123 99.7707 172.389 99.7604Z"/>
	<path fill="#F98B48" transform="scale(0.195312 0.195312)" d="M122.063 117.773L122.064 87.5631C122.18 73.7413 128.107 67.571 142.033 67.7727C141.336 69.6769 139.72 70.7508 138.575 72.341C135.814 76.1788 134.847 84.7819 136.259 89.5279C134.879 92.4813 135.193 94.8355 135.917 97.8995C134.922 103.846 136.893 112.957 135.917 117.773C131.3 117.752 126.679 117.69 122.063 117.773Z"/>
	<path fill="#FBFAFC" transform="scale(0.195312 0.195312)" d="M320.466 94.5015C324.549 94.4807 337.36 93.7113 340.234 95.5218C343.445 97.5447 341.887 103.237 338.375 103.952C334.687 103.953 321.161 104.589 318.63 103.394C313.839 101.133 316.182 95.4976 320.466 94.5015Z"/>
	<path fill="#FBFAFC" transform="scale(0.195312 0.195312)" d="M355.353 94.5015C363.814 94.0741 375.151 91.2282 377.055 99.7604C376.65 101.27 376.028 103.285 374.509 103.952C370.439 104.231 361.214 104.232 357.249 103.837C352.02 103.316 351.203 97.4745 355.353 94.5015Z"/>
	<path fill="#FBFAFC" transform="scale(0.195312 0.195312)" d="M185.96 88.2574C188.867 88.1764 193.805 87.4617 196.411 88.8273C200.281 90.856 200.404 98.3687 195.944 99.7604C192.892 99.8376 188.378 100.515 185.523 99.3842C180.768 97.5012 181.292 89.9805 185.96 88.2574Z"/>
	<path fill="#58D8F8" transform="scale(0.195312 0.195312)" d="M213.091 143.781C213.046 136.241 210.26 129.425 218.7 129.225C233.947 128.864 232.106 129.256 232.011 143.781C236.688 144.694 243.31 146.625 246.921 149.879C255.451 142.739 260.915 139.479 267.232 153.164C266.43 157.522 262.736 159.606 259.793 162.548C264.599 169.782 264.567 172.736 266.72 180.061C271.672 179.221 277.671 177.914 278.274 184.676C279.294 196.093 277.604 197.337 266.72 197.252C263.677 202.349 261.755 207.195 258.331 212.562C260.271 213.945 265.767 218.875 265.857 221.313C265.932 223.342 257.336 233.269 254.16 232.661C251.396 232.132 248.378 229.787 245.965 228.324C241.185 230.593 235.998 231.671 231.274 233.871C231.291 243.389 233.034 245.835 222.405 245.497C209.184 245.862 214.893 243.041 212.36 233.871C206.137 231.403 203.021 230.714 197.005 229.174C193.158 232.645 190.111 236.319 185.175 233.167C173.823 225.917 175.54 223.945 183.063 214.18C179.026 209.478 175.684 202.602 174.871 196.435C172.55 196.423 166.58 197.042 164.716 195.892C161.924 194.171 162.859 182.435 164.47 180.76C165.865 179.31 172.761 180.075 174.871 180.061C175.155 172.81 177.884 166.166 182.42 160.514C179.242 158.225 174.597 155.293 177.515 151.087C184.686 140.749 188.601 141.311 197.005 149.879C202.463 147.327 206.647 144.058 213.091 143.781Z"/>
	<defs>
		<linearGradient id="gradient_0" gradientUnits="userSpaceOnUse" x1="198.18526" y1="163.14221" x2="175.95988" y2="161.01837">
			<stop offset="0" stop-color="#61F9FA"/>
			<stop offset="1" stop-color="#499EFD"/>
		</linearGradient>
	</defs>
	<path fill="url(#gradient_0)" transform="scale(0.195312 0.195312)" d="M182.42 160.514C179.242 158.225 174.597 155.293 177.515 151.087C184.686 140.749 188.601 141.311 197.005 149.879L196.695 150.28C197.136 151.32 198.598 151.682 199.588 152.042C197.711 153.875 196.019 155.571 194.635 157.811L195.76 156.697C190.329 163.825 184.905 170.602 184.353 180.061C181.203 180.063 178.018 180.165 174.871 180.061C175.155 172.81 177.884 166.166 182.42 160.514Z"/>
	<defs>
		<linearGradient id="gradient_1" gradientUnits="userSpaceOnUse" x1="266.00455" y1="187.50388" x2="278.11996" y2="189.51471">
			<stop offset="0" stop-color="#33BFF3"/>
			<stop offset="1" stop-color="#56EBFD"/>
		</linearGradient>
	</defs>
	<path fill="url(#gradient_1)" transform="scale(0.195312 0.195312)" d="M266.72 180.061C271.672 179.221 277.671 177.914 278.274 184.676C279.294 196.093 277.604 197.337 266.72 197.252C266.999 191.29 267.917 186.018 266.72 180.061Z"/>
	<defs>
		<linearGradient id="gradient_2" gradientUnits="userSpaceOnUse" x1="212.8246" y1="239.30724" x2="218.9171" y2="239.50858">
			<stop offset="0" stop-color="#3870F8"/>
			<stop offset="1" stop-color="#5098FF"/>
		</linearGradient>
	</defs>
	<path fill="url(#gradient_2)" transform="scale(0.195312 0.195312)" d="M212.36 233.871C215.653 233.179 220.027 235.406 223.621 234.916L223.26 235.202L223.888 235.077C216.462 237.242 222.1 235.435 220.27 242.653C219.681 244.972 219.51 245.223 222.103 245.173L222.405 245.497C209.184 245.862 214.893 243.041 212.36 233.871Z"/>
	<path fill="#FBFAFC" transform="scale(0.195312 0.195312)" d="M221.518 165.093C248.921 163.312 253.917 204.529 225.04 208.272C196.047 209.978 193.249 168.515 221.518 165.093Z"/>
	<path fill="#F75D54" transform="scale(0.195312 0.195312)" d="M144.839 277.146C150.75 276.66 163.922 276.726 169.677 277.251C177.865 277.999 175.53 286.177 175.532 292.123C175.535 300.767 179.043 313.725 169.277 315.108C165.229 315.19 144.456 315.684 142.254 314.32C138.049 311.718 139.74 303.911 139.739 299.798C139.739 293.378 136.899 278.377 144.839 277.146Z"/>
	<path fill="#FEB755" transform="scale(0.195312 0.195312)" d="M156.841 283.506C161.725 283.457 161.839 287.372 162.041 291.281C173.753 292.558 172.601 300.128 162.041 300.559C161.904 304.089 162.349 308.152 158.188 309.2C153.055 308.597 153.206 304.93 153.282 300.559C141.83 299.998 141.444 291.966 153.282 291.281C153.2 287.72 152.994 284.866 156.841 283.506Z"/>
	<path fill="#FCA1A1" transform="scale(0.195312 0.195312)" d="M313.463 178.041C316.66 178.118 317.775 179.42 318.922 182.374C317.217 187.174 312.014 190.854 308.803 194.752L348.621 194.741C354.567 194.741 374.573 191.743 374.613 200.438C374.642 206.714 364.276 205.123 360.509 205.123L338.375 205.136L308.803 205.136C311.19 207.721 318.897 212.803 318.478 216.681C317.977 221.311 313.395 220.92 310.605 218.79C308.187 216.944 291.333 201.288 291.979 199.268C292.705 196.998 310.578 179.513 313.463 178.041Z"/>
	<path fill="#FCA1A1" transform="scale(0.195312 0.195312)" d="M188.808 301.352C191.755 301.107 194.89 301.344 197.857 301.344L217.398 301.346C225.461 301.346 268.916 300.1 273.533 301.939C278.777 304.026 277.242 310.89 272.562 312.484L200.878 312.49C196.272 312.52 185.353 314.222 183.849 308.123C183.052 304.896 185.908 302.153 188.808 301.352Z"/>
	<path fill="#FCA1A1" transform="scale(0.195312 0.195312)" d="M188.808 280.32C191.968 280.103 195.274 280.311 198.45 280.311L218.824 280.313C226.341 280.314 269.9 279.105 274.102 280.992C278.829 283.115 276.849 289.896 272.562 291.281L202.093 291.27C198.147 291.3 194.148 291.472 190.207 291.317C182.592 291.018 181.488 282.589 188.808 280.32Z"/>
	<path fill="#B6CEFA" transform="scale(0.195312 0.195312)" d="M299.172 301.352C302.259 301.144 305.474 301.342 308.577 301.343L353.054 301.346C360.621 301.347 372.038 298.683 374.509 306.733C373.79 309.5 372.873 311.42 369.975 312.484C364.35 312.314 358.682 312.475 353.051 312.477L320.763 312.485C313.82 312.493 306.5 312.961 299.599 312.208C292.641 311.449 291.748 302.67 299.172 301.352Z"/>
	<path fill="#B6CEFA" transform="scale(0.195312 0.195312)" d="M298.277 281.002C300.474 280.705 303.025 280.989 305.257 280.991L349.984 281C353.512 280.998 369.763 280.081 372.183 281.902C375.618 284.489 374.528 290.819 369.975 291.281C367.543 291.775 364.727 291.321 362.236 291.294L300.81 291.614C299.961 291.622 299.107 291.445 298.277 291.281C292.637 289.469 292.645 282.355 298.277 281.002Z"/>
	<path fill="#B6CEFA" transform="scale(0.195312 0.195312)" d="M300.253 149.879L360.938 149.854C364.963 149.839 374.26 148.396 374.122 154.689C374.068 157.131 372.803 158.91 371.086 160.514C370.06 160.551 369.035 160.528 368.008 160.514L321.749 160.517C317.169 160.517 298.386 161.827 295.228 159.434C291.285 156.446 292.742 150.053 300.253 149.879Z"/>
	<path fill="#B6CEFA" transform="scale(0.195312 0.195312)" d="M342.131 261.005C349.795 260.841 361.286 260.369 368.84 260.923C375.484 261.409 376.183 270.291 369.975 271.789L351.056 271.784C347.245 271.786 339.137 273.333 337.723 268.355C336.686 264.706 338.48 261.695 342.131 261.005Z"/>
	<path fill="#B6CEFA" transform="scale(0.195312 0.195312)" d="M343.968 129.259C353.007 129.269 362.049 129.165 371.086 129.259C376.348 133.206 374.386 139.662 368.008 139.801C362.185 140.068 347.657 140.461 342.181 139.722C336.851 139.003 334.26 129.166 343.968 129.259Z"/>
	<path fill="#F75D54" transform="scale(0.195312 0.195312)" d="M300.253 129.259C308.545 129.262 316.9 129.017 325.185 129.259C329.871 133.697 329.027 139.668 322.171 139.801L306.366 139.789C302.572 139.798 293.857 141.072 293.152 135.548C292.594 131.172 296.639 129.466 300.253 129.259Z"/>
	<path fill="#F75D54" transform="scale(0.195312 0.195312)" d="M315.646 261.005C318.892 261.289 321.945 261.083 325.185 261.005C332.735 270.645 323.943 271.883 316.664 271.829L305.875 271.789C302.827 271.828 298.109 272.631 295.747 270.337C293.902 268.545 293.378 265.042 295.318 263.143C298.508 260.02 310.988 260.983 315.646 261.005Z"/>
</svg>
