<?xml version="1.0" encoding="utf-8" ?>
<svg xmlns="http://www.w3.org/2000/svg" xmlns:xlink="http://www.w3.org/1999/xlink" width="100" height="100">
	<path fill="#D0E7F4" transform="scale(0.195312 0.195312)" d="M230.452 275.834C230.461 281.395 232.029 308.505 228.746 311.579C224.274 315.765 216.545 307.569 213.105 305.196L185.137 286.091C165.774 272.683 172.895 275.843 149.056 275.843L110.145 275.827C98.0726 275.824 77.0638 279.212 75.0364 262.139C74.2328 255.373 74.7685 245.076 74.7745 237.994L74.7675 100.951C74.7591 96.9929 74.5702 92.949 74.7909 88.9994C75.9004 69.1366 95.0599 71.9979 108.791 72.0032L372.487 71.9977C385.114 71.977 402.852 69.8773 405.083 87.7391C405.849 93.8658 405.38 100.526 405.381 106.719L405.381 179.55C405.382 184.818 405.815 191.989 405.38 196.952C403.984 206.277 406.876 217.048 404.487 227.82C405.5 227.34 406.711 226.637 407.86 227.12C409.601 227.853 425.461 241.573 426.02 244.081C426.748 247.345 421.273 251.355 419.729 253.929C422.503 258.533 424.349 262.739 425.467 268.027C427.675 268.02 435.301 267.508 436.537 268.795C438 270.319 439.383 293.209 436.735 295.434C434.481 297.328 429.225 296.353 426.393 296.262C423.722 300.292 421.074 306.89 418.367 311.612C420.345 313.071 425.313 316.579 425.721 319.108C426.215 322.167 412.365 333.517 409.972 335.047C409.311 334.24 408.672 333.383 407.955 332.626C408.558 336.386 408.023 356.357 407.371 359.317C401.717 384.966 363.232 382.012 359.543 354.728C358.709 348.561 358.842 338.941 359.209 332.626C354.266 332.302 349.785 330.052 345.401 327.922C343.927 329.884 341.224 333.85 339.034 334.861C336.449 336.055 321.741 319.986 321.011 318.506C322.022 315.679 325.189 314 326.913 311.612C323.595 306.591 320.678 301.565 319.383 295.626C317.361 295.64 311.402 296.155 310.075 294.59C308.12 292.282 309.118 274.478 308.968 270.267C305.988 270.519 302.9 270.327 299.907 270.298L285.832 270.267C285.923 271.87 286.134 273.552 285.832 275.138C285.514 276.494 281.285 275.834 280.128 275.833L230.452 275.834Z"/>
	<path fill="#FCBA60" transform="scale(0.195312 0.195312)" d="M355.966 228.906C356.491 226.92 357.707 218.063 359.072 217.273C361.266 216.005 381.052 216.065 383.335 217.13C384.582 217.712 385.51 225.689 386.021 227.436L386.136 227.82C390.277 229.828 394.744 231.124 398.908 233.187C400.51 231.036 402.168 229.197 404.487 227.82C405.5 227.34 406.711 226.637 407.86 227.12C409.601 227.853 425.461 241.573 426.02 244.081C426.748 247.345 421.273 251.355 419.729 253.929C422.503 258.533 424.349 262.739 425.467 268.027C427.675 268.02 435.301 267.508 436.537 268.795C438 270.319 439.383 293.209 436.735 295.434C434.481 297.328 429.225 296.353 426.393 296.262C423.722 300.292 421.074 306.89 418.367 311.612C420.345 313.071 425.313 316.579 425.721 319.108C426.215 322.167 412.365 333.517 409.972 335.047C409.311 334.24 408.672 333.383 407.955 332.626C408.558 336.386 408.023 356.357 407.371 359.317C401.717 384.966 363.232 382.012 359.543 354.728C358.709 348.561 358.842 338.941 359.209 332.626C354.266 332.302 349.785 330.052 345.401 327.922C343.927 329.884 341.224 333.85 339.034 334.861C336.449 336.055 321.741 319.986 321.011 318.506C322.022 315.679 325.189 314 326.913 311.612C323.595 306.591 320.678 301.565 319.383 295.626C317.361 295.64 311.402 296.155 310.075 294.59C308.12 292.282 309.118 274.478 308.968 270.267C310.641 266.939 316.221 267.492 319.383 267.174C321.051 262.202 323.266 257.698 325.579 253.016C323.888 251.329 317.744 246.278 319.189 243.463C320.676 240.565 333.622 228.05 336.531 227.203C338.991 226.487 343.17 231.19 345.401 232.287C348.993 231.501 352.337 229.746 355.966 228.906Z"/>
	<path fill="#30AEEB" transform="scale(0.195312 0.195312)" d="M359.209 332.626C368.328 306.483 398.689 307.526 407.955 332.626C408.558 336.386 408.023 356.357 407.371 359.317C401.717 384.966 363.232 382.012 359.543 354.728C358.709 348.561 358.842 338.941 359.209 332.626Z"/>
	<path fill="#D0E7F4" transform="scale(0.195312 0.195312)" d="M371.631 257.611C398.994 257.712 403.904 300.218 371.631 303.718C341.46 303.041 339.649 258.982 371.631 257.611Z"/>
	<path fill="#3B5FA6" transform="scale(0.195312 0.195312)" d="M230.452 275.834C230.461 281.395 232.029 308.505 228.746 311.579C224.274 315.765 216.545 307.569 213.105 305.196L185.137 286.091C165.774 272.683 172.895 275.843 149.056 275.843L110.145 275.827C98.0726 275.824 77.0638 279.212 75.0364 262.139C74.2328 255.373 74.7685 245.076 74.7745 237.994L74.7675 100.951C74.7591 96.9929 74.5702 92.949 74.7909 88.9994C75.9004 69.1366 95.0599 71.9979 108.791 72.0032L372.487 71.9977C385.114 71.977 402.852 69.8773 405.083 87.7391C405.849 93.8658 405.38 100.526 405.381 106.719L405.381 179.55C405.382 184.818 405.815 191.989 405.38 196.952C401.558 196.977 397.643 197.164 393.832 196.952C393.501 188.288 393.833 179.503 393.833 170.823L393.84 99.1671C393.847 92.9912 395.761 84.1882 386.975 83.805C380.152 83.5075 373.226 83.7402 366.393 83.7403L106.295 83.7466C83.5788 83.753 86.1787 83.5684 86.1996 104.328L86.2148 241.602C86.2051 248.32 84.0704 260.226 88.8027 264.83C95.0527 265.452 103.952 264.828 110.448 264.825L157.995 264.817C176.855 264.818 171.747 263.304 187.111 273.83C197.935 281.246 208.809 288.574 219.444 296.262L219.444 264.83L285.832 264.83C285.812 268.191 285.517 271.803 285.832 275.138C285.514 276.494 281.285 275.834 280.128 275.833L230.452 275.834Z"/>
	<path fill="#3B75BF" transform="scale(0.195312 0.195312)" d="M248.049 199.342C246.93 186.348 248.038 169.133 248.039 155.668L248.04 137.795C248.042 126.48 245.376 121.317 258.653 121.087C280.132 120.714 301.688 121.08 323.173 121.076L344.163 121.072C358.535 121.067 360.734 118.568 360.731 134.463L360.72 192.95C360.938 211.659 356.422 208.122 340.045 208.13L275.503 208.133C268.739 208.136 261.87 208.393 255.118 208.068C249.212 207.784 248.2 204.897 248.049 199.342Z"/>
	<path fill="#30AEEB" transform="scale(0.195312 0.195312)" d="M248.049 199.342C246.93 186.348 248.038 169.133 248.039 155.668L248.04 137.795C248.042 126.48 245.376 121.317 258.653 121.087C280.132 120.714 301.688 121.08 323.173 121.076L344.163 121.072C358.535 121.067 360.734 118.568 360.731 134.463L360.72 192.95C360.39 192.07 360.72 165.958 360.72 162.707L336.162 162.698C332.064 162.69 327.796 162.391 323.717 162.707L323.717 162.707C313.271 162.852 297.602 161.792 288.017 162.707L288.017 162.707C275.216 162.411 260.826 162.314 248.049 162.707L248.066 188.718C248.07 192.09 248.542 196.047 248.049 199.342Z"/>
	<path fill="#EA9292" transform="scale(0.195312 0.195312)" d="M288.017 162.707L287.982 150.709C287.973 146.569 287 139.367 293.45 139.967C296.41 140.242 321.698 159.206 323.717 162.707C313.271 162.852 297.602 161.792 288.017 162.707L288.017 162.707Z"/>
	<path fill="#E27576" transform="scale(0.195312 0.195312)" d="M323.717 162.707L323.717 162.707L323.717 166.673C321.715 170.043 296.739 188.85 294.699 189.45C286.886 191.745 288.002 181.413 288.004 177.362L288.017 162.707C297.602 161.792 313.271 162.852 323.717 162.707Z"/>
	<path fill="#3B5FA6" transform="scale(0.195312 0.195312)" d="M157.437 134.525C148.434 159.49 113.497 158.4 107.273 132.684C99.3194 99.816 149.818 85.2066 158.436 122.991C158.598 126.923 158.698 130.735 157.437 134.525Z"/>
	<path fill="#FCBA60" transform="scale(0.195312 0.195312)" d="M131.006 111.568C148.799 108.583 155.349 136.651 135.052 141.846C114.833 144.175 110.564 114.854 131.006 111.568Z"/>
	<path fill="#3B5FA6" transform="scale(0.195312 0.195312)" d="M193.771 194.978C194.196 195.778 193.774 205.511 193.771 207.153L106.621 207.153L106.407 207.069C105.818 205.467 106.62 197.372 106.621 194.978L193.771 194.978Z"/>
	<path fill="#3B5FA6" transform="scale(0.195312 0.195312)" d="M139.129 171.939L207.04 171.939L207.04 184.1L200.125 184.1L132.685 184.1L132.685 171.939L139.129 171.939Z"/>
	<path fill="#E27576" transform="scale(0.195312 0.195312)" d="M132.685 217.843C135.271 218.009 137.907 217.86 140.499 217.855L207.04 217.843C206.749 221.829 207.02 226.005 207.04 230.006C204.47 230.215 201.733 230.03 199.145 230.024L132.685 230.006L132.685 217.843Z"/>
	<path fill="#3B5FA6" transform="scale(0.195312 0.195312)" d="M143.111 241.098L207.04 241.098L207.04 253.016L196.633 253.016L132.685 253.016L132.685 241.098L143.111 241.098Z"/>
	<path fill="#3B5FA6" transform="scale(0.195312 0.195312)" d="M172.043 112.817C174.432 109.717 177.365 107.041 180.534 104.749C187.965 113.131 196.169 120.888 203.494 129.323C196.91 135.245 185.964 145.496 180.534 152.478C177.542 149.571 174.62 146.702 172.043 143.41C174.711 140.282 177.837 137.611 180.534 134.525C182.815 133.019 184.781 130.971 186.986 129.323C185.034 126.882 182.968 124.953 180.534 122.991C177.873 119.432 174.459 116.597 172.043 112.817Z"/>
	<path fill="#E27576" transform="scale(0.195312 0.195312)" d="M158.436 122.991C165.708 123.004 173.301 122.442 180.534 122.991C182.968 124.953 185.034 126.882 186.986 129.323C184.781 130.971 182.815 133.019 180.534 134.525C172.87 134.784 165.112 134.532 157.437 134.525C158.698 130.735 158.598 126.923 158.436 122.991Z"/>
	<path fill="#3B5FA6" transform="scale(0.195312 0.195312)" d="M106.621 171.939C110.632 171.762 114.72 171.932 118.739 171.939L118.739 184.1L106.621 184.1C106.648 180.082 106.315 175.938 106.621 171.939Z"/>
	<path fill="#3B5FA6" transform="scale(0.195312 0.195312)" d="M106.621 217.843L118.739 217.843L118.739 230.006L106.621 230.006L106.621 217.843Z"/>
	<path fill="#3B5FA6" transform="scale(0.195312 0.195312)" d="M106.621 241.098C110.635 241.257 114.717 241.1 118.739 241.098L118.739 253.016C115.158 253.442 110.3 253.068 106.621 253.016L106.621 241.098Z"/>
	<path fill="#3B75BF" transform="scale(0.195312 0.195312)" d="M351.809 383.754C373.714 383.78 395.697 383.315 417.593 383.772C439.754 384.234 437.937 401.794 437.924 417.955C437.919 423.8 438.107 429.67 437.918 435.51C430.836 435.801 423.627 435.522 416.532 435.51L330.111 435.51L330.094 417.787C330.085 401.546 330.4 383.76 351.809 383.754Z"/>
	<path fill="#3B5FA6" transform="scale(0.195312 0.195312)" d="M417.371 409.244L426.393 409.244C426.362 417.993 426.589 426.765 426.393 435.51C423.367 435.339 420.397 435.395 417.371 435.51C417.384 426.756 417.271 417.997 417.371 409.244Z"/>
	<path fill="#3B5FA6" transform="scale(0.195312 0.195312)" d="M343.493 409.244C354.266 407.992 351.018 412.773 351 422.434C350.993 426.748 351.156 431.009 351.247 435.308L350.987 435.51C348.158 435.461 345.336 435.462 342.507 435.51C342.499 431.615 341.21 410.301 343.493 409.244Z"/>
	<path fill="#3B75BF" transform="scale(0.195312 0.195312)" d="M72.4939 435.51L72.4749 416.007C72.4667 411.685 72.0081 407.036 72.941 402.795C77.4555 382.276 95.9503 385.163 111.463 385.161L157.879 385.172C180.501 385.209 183.274 395.904 183.272 415.81L183.249 435.51L94.9796 435.51L85.0323 435.51L72.4939 435.51Z"/>
	<path fill="#3B5FA6" transform="scale(0.195312 0.195312)" d="M85.0323 404.997C88.4004 405.241 91.607 405.347 94.9796 404.997L94.95 429.765C94.9344 431.499 95.3471 433.899 94.9796 435.51L85.0323 435.51L85.0323 404.997Z"/>
	<path fill="#3B5FA6" transform="scale(0.195312 0.195312)" d="M163.048 404.997L172.043 404.997C172.023 415.163 172.221 425.347 172.043 435.51L163.048 435.51C163.356 425.396 163.192 415.116 163.048 404.997Z"/>
	<path fill="#4CC6EC" transform="scale(0.195312 0.195312)" d="M247.04 389.779L262.389 389.779C268.016 389.781 273.805 390.072 279.414 389.779C299.304 391.08 303.99 404.217 303.983 422.157L303.967 435.51C293.34 435.795 282.64 435.51 272.006 435.509L207.994 435.51L207.994 424.238L207.988 417.031C208.052 391.426 226.739 389.709 247.04 389.779Z"/>
	<path fill="#30AEEB" transform="scale(0.195312 0.195312)" d="M279.414 389.779C299.304 391.08 303.99 404.217 303.983 422.157L303.967 435.51C293.34 435.795 282.64 435.51 272.006 435.509L207.994 435.51L207.994 424.238L250.002 424.237C263.763 424.262 285.766 427.721 288.526 408.754C290.347 396.238 283.329 395.629 279.414 389.779Z"/>
	<path fill="#7A6C8E" transform="scale(0.195312 0.195312)" d="M216.809 363.004C235.211 353.569 215.662 319.273 242.659 314.539C247.405 313.707 267.526 313.689 271.931 314.915C278.553 316.758 287.202 325.492 285.636 333.113C284.066 340.753 282.808 348.915 287.236 356.355C289.173 359.61 291.69 360.196 295.104 361.078C293.717 373.745 290.199 378.633 276.643 378.175C275.019 378.12 273.482 377.923 271.871 378.244C268.4 378.215 265.5 379.793 262.389 381.171C262.43 382.219 262.625 383.496 262.389 384.515L262.389 389.779L247.04 389.779L247.04 385.167C246.968 383.834 247.008 382.505 247.04 381.171C245.865 379.995 244.579 378.988 243.09 378.244L225.432 378.244C220.012 375.292 217.788 368.728 216.809 363.004Z"/>
	<path fill="#EFD5CE" transform="scale(0.195312 0.195312)" d="M251.757 337.071C259.366 345.068 267.617 346.293 278.189 342.997C278.106 351.845 280.269 366.977 274.218 374.129C273.373 375.127 270.896 376.607 270.878 378L271.871 378.244C268.4 378.215 265.5 379.793 262.389 381.171C262.43 382.219 262.625 383.496 262.389 384.515L262.389 389.779L247.04 389.779L247.04 385.167C246.968 383.834 247.008 382.505 247.04 381.171C245.865 379.995 244.579 378.988 243.09 378.244L242.42 377.579C232.148 367.262 233.073 358.156 233.106 344.773C240.92 345.163 246.482 343.33 251.757 337.071Z"/>
	<path fill="#EA9292" transform="scale(0.195312 0.195312)" d="M247.04 381.171C252.666 381.857 256.839 382.845 262.389 381.171C262.36 382.269 262.254 383.425 262.389 384.515L262.389 389.779L247.04 389.779L247.04 385.167C246.968 383.834 247.008 382.505 247.04 381.171Z"/>
	<path fill="#EFD5CE" transform="scale(0.195312 0.195312)" d="M262.389 384.515L262.389 389.779L247.04 389.779L247.04 385.167L247.38 385.667C253.075 387.688 257.059 386.913 262.389 384.515Z"/>
	<path fill="#30AEEB" transform="scale(0.195312 0.195312)" d="M126.292 313.093C151.529 309.974 154.591 340.583 151.363 358.323C149.396 369.133 141.448 375.626 131.006 378.244C118.387 379.1 106.666 370.92 105.227 357.936C103.241 340.021 103.538 315.455 126.292 313.093Z"/>
</svg>
