<?xml version="1.0" encoding="utf-8" ?>
<svg xmlns="http://www.w3.org/2000/svg" xmlns:xlink="http://www.w3.org/1999/xlink" width="100" height="100">
	<path fill="#F9F9FB" transform="scale(0.195312 0.195312)" d="M127.582 239.165L127.569 157.701C127.57 132.364 133.386 135.366 154.489 136.532L312.15 145.002C317.238 145.326 322.42 146.249 327.513 145.55C342.738 156.461 360.788 162.987 376.542 173.058C377.028 173.076 391.638 165.438 393.52 164.544C394.851 163.748 396.164 163.03 397.578 162.391C401.716 159.273 413.79 153.166 418.458 151.111C424.379 153.308 428.405 155.763 428.707 162.479C429.147 172.247 428.759 182.213 428.755 191.999L428.75 308.766C428.751 318.431 429.157 328.268 428.749 337.914C430.143 341.373 433.595 343.87 435.088 347.295C433.048 349.338 430.552 351.187 428.749 353.423C432.457 358.437 434.866 363.651 436.187 369.768L436.373 370.376C437.963 371.104 440.638 370.829 442.355 370.569C447.069 372.114 445.558 382.51 444.453 385.44C442.092 386.448 438.733 386.017 436.187 385.991C434.416 390.782 431.538 396.238 430.11 400.66C431.625 403.805 433.228 406.853 435.088 409.813C431.502 412.347 427.103 416.501 423.952 418.47C421.793 417.171 419.858 415.783 418.051 414.019C417.337 413.717 416.623 413.413 415.904 413.12C412.161 414.871 408.449 416.368 404.468 417.492C403.15 420.34 402.382 426.686 399.15 427.987C396.932 428.88 389.112 428.569 386.995 427.514C383.307 425.677 384.621 420.237 381.901 417.492C379.222 416.259 375.395 415.457 373.444 413.12C370.041 415.012 366.617 417.068 362.979 418.47C360.96 417.334 359.35 416.095 358.192 414.019C356.566 413.175 354.436 410.264 353.426 408.712C354.494 405.414 355.892 403.227 358.192 400.66C356.617 398.1 352.857 387.637 352.567 387.461C350.459 386.653 348.015 386.377 345.793 385.991C338.857 385.047 331.057 385.081 323.99 384.663L243.26 379.952C235.724 379.517 228.125 378.716 220.577 378.787C219.668 380.904 207.249 387.445 204.48 389.116L169.401 409.329C163.496 412.663 157.662 416.064 151.608 419.13C151.247 419.73 150.01 420.239 149.34 420.532C136.645 426.091 126.668 417.725 116.386 411.404L74.2961 385.625C53.8907 373.372 49.1875 368.202 49.2485 344.826L49.2408 309.493C49.2317 285.892 51.902 279.155 73.1977 267.189L111.225 246.164C114.328 244.408 124.064 237.708 127.582 239.165Z"/>
	<path fill="#475090" transform="scale(0.195312 0.195312)" d="M127.582 239.165L127.569 157.701C127.57 132.364 133.386 135.366 154.489 136.532L312.15 145.002C317.238 145.326 322.42 146.249 327.513 145.55C342.738 156.461 360.788 162.987 376.542 173.058C377.028 173.076 391.638 165.438 393.52 164.544L393.529 195.147C393.521 198.264 393.032 204.308 393.52 207.059C385.116 207.501 376.44 206.562 368.036 206.101L228.231 199.235C205.994 197.981 183.695 196.522 161.438 195.758L161.439 313.478C161.437 318.664 161.726 324.054 161.258 329.219L161.379 329.207C161.3 330.126 161.079 331.218 161.358 332.107L161.438 332.191C172.157 332.017 182.996 333.137 193.705 333.671L332.536 341.159C339.174 341.497 345.962 341.437 352.567 341.943C352.317 345.304 354.041 346.364 356.213 348.475C357.289 349.637 358.204 350.738 359.067 352.067C355.948 357.982 353.047 363.048 351.846 369.768C349.306 370.023 346.763 370.259 344.229 370.569C343.248 371.871 342.571 372.63 342.989 374.274C343.224 376.414 341.757 382.157 344.229 383.127C344.87 384.052 345.502 384.884 345.793 385.991C338.857 385.047 331.057 385.081 323.99 384.663L243.26 379.952C235.724 379.517 228.125 378.716 220.577 378.787C219.668 380.904 207.249 387.445 204.48 389.116L169.401 409.329C163.496 412.663 157.662 416.064 151.608 419.13C151.247 419.73 150.01 420.239 149.34 420.532C136.645 426.091 126.668 417.725 116.386 411.404L74.2961 385.625C53.8907 373.372 49.1875 368.202 49.2485 344.826L49.2408 309.493C49.2317 285.892 51.902 279.155 73.1977 267.189L111.225 246.164C114.328 244.408 124.064 237.708 127.582 239.165Z"/>
	<path fill="#F9F9FB" transform="scale(0.195312 0.195312)" d="M151.608 419.13C151.247 419.73 150.01 420.239 149.34 420.532C136.645 426.091 126.668 417.725 116.386 411.404L74.2961 385.625C53.8907 373.372 49.1875 368.202 49.2485 344.826L49.2408 309.493C49.2317 285.892 51.902 279.155 73.1977 267.189L111.225 246.164C114.328 244.408 124.064 237.708 127.582 239.165L127.582 244.962C127.866 251.528 127.858 259.768 127.582 266.34L127.582 282.668L127.582 296.304L127.582 352.067C127.509 352.881 127.581 353.534 127.11 354.213L119.703 357.507C119.978 363.019 119.829 368.753 119.703 374.274C122.396 373.837 127.917 370.196 130.589 368.709C138.229 376.854 148.578 372.884 158.243 375.187L158.26 393.381C158.263 406.072 160.163 409.167 151.608 419.13Z"/>
	<path fill="#6BE98A" transform="scale(0.195312 0.195312)" d="M69.861 328.499C83.5996 320.124 98.1525 312.819 112.231 305.016C117.192 302.266 123.111 299.624 127.582 296.304L127.582 352.067C127.509 352.881 127.581 353.534 127.11 354.213L119.703 357.507C117.16 356.245 114.691 354.561 112.229 353.129C98.1836 344.963 82.8949 338.184 69.861 328.499Z"/>
	<path fill="#4EDE80" transform="scale(0.195312 0.195312)" d="M69.861 328.499C82.8949 338.184 98.1836 344.963 112.229 353.129C114.691 354.561 117.16 356.245 119.703 357.507C119.978 363.019 119.829 368.753 119.703 374.274C112.047 370.847 74.2184 349.125 71.024 345.431C68.9056 342.982 67.3965 330.63 69.861 328.499Z"/>
	<path fill="#D7DBF1" transform="scale(0.195312 0.195312)" d="M127.582 244.962C127.866 251.528 127.858 259.768 127.582 266.34L127.582 282.668C122.686 283.939 109.612 294.101 106.127 292.412C98.3014 288.618 126.075 276.36 127.582 276.111L127.582 266.34C124.251 265.75 100.738 283.276 105.544 271.694C106.068 270.43 125.216 259.951 127.582 258.971C127.619 254.357 127.187 249.546 127.582 244.962Z"/>
	<path fill="#D7DBF1" transform="scale(0.195312 0.195312)" d="M94.9224 293.279C98.7468 293.267 98.9938 297.019 96.4453 298.94C90.9198 303.106 78.8539 308.492 72.3164 312.231C69.9167 312.353 67.6513 311.547 69.0034 308.636C70.1803 306.102 91.0806 295.195 94.9224 293.279Z"/>
	<path fill="#D7DBF1" transform="scale(0.195312 0.195312)" d="M94.9224 277.43C97.237 277.324 99.2299 279.359 97.6354 281.664C96.4489 283.379 76.4927 294.272 72.3164 295.238C68.9505 296.445 67.8892 293.926 69.419 291.558C70.8655 289.318 91.6082 278.56 94.9224 277.43Z"/>
	<path fill="#80C3F8" transform="scale(0.195312 0.195312)" d="M138.178 363.018L138.175 177.215C138.176 138.429 131.933 149.186 161.438 147.79L161.438 195.758L161.439 313.478C161.437 318.664 161.726 324.054 161.258 329.219L161.379 329.207C161.3 330.126 161.079 331.218 161.358 332.107L161.438 332.191C172.157 332.017 182.996 333.137 193.705 333.671L332.536 341.159C339.174 341.497 345.962 341.437 352.567 341.943C352.317 345.304 354.041 346.364 356.213 348.475C357.289 349.637 358.204 350.738 359.067 352.067C355.948 357.982 353.047 363.048 351.846 369.768C349.306 370.023 346.763 370.259 344.229 370.569C343.248 371.871 342.571 372.63 342.989 374.274C336.518 374.39 330.003 373.819 323.54 373.488L201.606 366.671C180.468 365.427 159.331 363.966 138.178 363.018Z"/>
	<path fill="#6784DE" transform="scale(0.195312 0.195312)" d="M161.438 332.191C172.157 332.017 182.996 333.137 193.705 333.671L332.536 341.159C339.174 341.497 345.962 341.437 352.567 341.943C352.317 345.304 354.041 346.364 356.213 348.475C350.863 349.302 340.579 348.282 334.896 347.996L237.595 343.058C212.215 341.674 186.834 339.941 161.438 338.911C161.467 337.674 160.901 332.849 161.438 332.191Z"/>
	<defs>
		<linearGradient id="gradient_0" gradientUnits="userSpaceOnUse" x1="156.52905" y1="395.30203" x2="204.98294" y2="399.36859">
			<stop offset="0" stop-color="#93A3D0"/>
			<stop offset="1" stop-color="#D0D6EE"/>
		</linearGradient>
	</defs>
	<path fill="url(#gradient_0)" transform="scale(0.195312 0.195312)" d="M158.243 375.187C173.325 375.162 189.939 378.028 204.48 377.321L204.505 377.536C204.67 378.879 205.345 385.589 205.656 386.362C206.602 388.72 205.618 386.906 204.484 388.677L204.48 389.116L169.401 409.329C163.496 412.663 157.662 416.064 151.608 419.13C160.163 409.167 158.263 406.072 158.26 393.381L158.243 375.187Z"/>
	<path fill="#2CC76E" transform="scale(0.195312 0.195312)" d="M119.703 357.507L127.11 354.213C127.581 353.534 127.509 352.881 127.582 352.067C127.71 358.388 126.999 363.042 130.589 368.709C127.917 370.196 122.396 373.837 119.703 374.274C119.829 368.753 119.978 363.019 119.703 357.507Z"/>
	<path fill="#D7DBF1" transform="scale(0.195312 0.195312)" d="M204.48 377.321C209.497 378.005 216.12 377.905 220.577 378.787C219.668 380.904 207.249 387.445 204.48 389.116L204.484 388.677C205.618 386.906 206.602 388.72 205.656 386.362C205.345 385.589 204.67 378.879 204.505 377.536L204.48 377.321Z"/>
	<path fill="#6784DE" transform="scale(0.195312 0.195312)" d="M255.472 171.496C260.204 171.245 265.079 171.815 269.812 172.063L296.173 173.436C317.883 174.606 339.873 175.216 361.481 176.58C368.261 177.008 369.625 183.321 364.314 185.24C354.785 185.439 345.083 184.722 335.569 184.162L274.641 180.909C268.626 180.646 262.492 180.672 256.499 180.135C251.609 179.696 250.298 172.592 255.472 171.496Z"/>
	<path fill="#F64768" transform="scale(0.195312 0.195312)" d="M172.703 163.79C181.633 162.983 183.918 172.46 176.26 176.308C167.938 176.742 165.252 167.09 172.703 163.79Z"/>
	<path fill="#5661FC" transform="scale(0.195312 0.195312)" d="M231.943 166.819C240.525 168.649 240.041 177.504 231.943 179.477C225.736 179.277 220.929 168.56 231.943 166.819Z"/>
	<path fill="#FDD866" transform="scale(0.195312 0.195312)" d="M212.992 165.739C221.177 165.135 221.915 176.29 214.404 178.194C206.529 177.229 204.162 166.636 212.992 165.739Z"/>
	<path fill="#FDD866" transform="scale(0.195312 0.195312)" d="M191.547 164.544C199.979 163.86 202.19 173.718 194.663 176.731C186.833 178.355 183.73 167.642 191.547 164.544Z"/>
	<path fill="#FC97B1" transform="scale(0.195312 0.195312)" d="M393.52 323.604C394.873 323.598 396.226 323.578 397.578 323.604C404.462 325.255 402.506 329.65 402.826 335.334C403.631 337.155 410.612 339.926 412.704 341.278C414.466 340.299 416.219 339.261 418.051 338.42C419.516 337.553 421.733 335.634 423.437 335.825C425.584 336.122 426.943 336.676 428.749 337.914C430.143 341.373 433.595 343.87 435.088 347.295C433.048 349.338 430.552 351.187 428.749 353.423C432.457 358.437 434.866 363.651 436.187 369.768L436.373 370.376C437.963 371.104 440.638 370.829 442.355 370.569C447.069 372.114 445.558 382.51 444.453 385.44C442.092 386.448 438.733 386.017 436.187 385.991C434.416 390.782 431.538 396.238 430.11 400.66C431.625 403.805 433.228 406.853 435.088 409.813C431.502 412.347 427.103 416.501 423.952 418.47C421.793 417.171 419.858 415.783 418.051 414.019C417.337 413.717 416.623 413.413 415.904 413.12C412.161 414.871 408.449 416.368 404.468 417.492C403.15 420.34 402.382 426.686 399.15 427.987C396.932 428.88 389.112 428.569 386.995 427.514C383.307 425.677 384.621 420.237 381.901 417.492C379.222 416.259 375.395 415.457 373.444 413.12C370.041 415.012 366.617 417.068 362.979 418.47C360.96 417.334 359.35 416.095 358.192 414.019C356.566 413.175 354.436 410.264 353.426 408.712C354.494 405.414 355.892 403.227 358.192 400.66C356.617 398.1 352.857 387.637 352.567 387.461C350.459 386.653 348.015 386.377 345.793 385.991C345.502 384.884 344.87 384.052 344.229 383.127C341.757 382.157 343.224 376.414 342.989 374.274C342.571 372.63 343.248 371.871 344.229 370.569C346.763 370.259 349.306 370.023 351.846 369.768C353.047 363.048 355.948 357.982 359.067 352.067C358.204 350.738 357.289 349.637 356.213 348.475C354.041 346.364 352.317 345.304 352.567 341.943C357.544 340.936 356.462 332.582 364.314 335.334C366.924 336.375 369.865 338.643 372.036 340.469L372.226 340.6C373.862 340.711 381.128 337.317 383.214 336.417C383.619 332.151 383.723 327.613 385.334 323.604L393.52 323.604Z"/>
	<defs>
		<linearGradient id="gradient_1" gradientUnits="userSpaceOnUse" x1="395.02707" y1="427.76166" x2="395.96515" y2="385.34076">
			<stop offset="0" stop-color="#F75174"/>
			<stop offset="1" stop-color="#FF8193"/>
		</linearGradient>
	</defs>
	<path fill="url(#gradient_1)" transform="scale(0.195312 0.195312)" d="M369.827 370.569C374.396 359.384 389.602 350.024 399.829 357.507C405.629 359.882 410.296 363.896 412.704 369.768C413.25 370.609 413.919 371.477 414.254 372.425L414.596 372.428C415.789 377.485 414.383 384.178 411.737 388.463C410.506 390.455 404.615 394.173 408.216 394.065C409.939 394.014 423.348 397.225 423.952 397.644C426.323 393.541 428.716 389.64 429.596 384.916C430.193 381.708 437.986 382.781 440.728 383.127L441.126 382.942C443.104 380.377 440.062 372.483 442.355 370.569C447.069 372.114 445.558 382.51 444.453 385.44C442.092 386.448 438.733 386.017 436.187 385.991C434.416 390.782 431.538 396.238 430.11 400.66C431.625 403.805 433.228 406.853 435.088 409.813C431.502 412.347 427.103 416.501 423.952 418.47C421.793 417.171 419.858 415.783 418.051 414.019C417.337 413.717 416.623 413.413 415.904 413.12C412.161 414.871 408.449 416.368 404.468 417.492C403.15 420.34 402.382 426.686 399.15 427.987C396.932 428.88 389.112 428.569 386.995 427.514C383.307 425.677 384.621 420.237 381.901 417.492C379.222 416.259 375.395 415.457 373.444 413.12C370.041 415.012 366.617 417.068 362.979 418.47C360.96 417.334 359.35 416.095 358.192 414.019C359.248 414.034 359.885 414.451 360.977 414.019C361.999 412.318 366.387 410.203 368.124 408.712C366.256 407.844 365.001 407.6 362.979 407.608C363.785 402.646 364.514 397.4 365.848 392.56C366.489 390.235 368.848 386.06 369.002 384.148C369.342 379.952 366.54 374.312 369.827 370.569Z"/>
	<path fill="#F9F9FB" transform="scale(0.195312 0.195312)" d="M369.827 370.569C374.396 359.384 389.602 350.024 399.829 357.507C405.629 359.882 410.296 363.896 412.704 369.768C413.25 370.609 413.919 371.477 414.254 372.425L414.254 372.425C415.143 376.44 414.36 382.252 412.704 385.991L411.902 387.461C407.098 394.016 400.891 397.79 392.787 397.644L394.528 398.079C398.526 402.989 388.938 401.085 387.567 400.841C372.804 398.209 367.411 384.2 369.827 370.569Z"/>
	<path fill="#F64768" transform="scale(0.195312 0.195312)" d="M369.827 370.569C374.396 359.384 389.602 350.024 399.829 357.507C397.692 357.125 395.666 357.328 393.52 357.507C371.019 357.744 368.568 395.378 392.787 397.644L394.528 398.079C398.526 402.989 388.938 401.085 387.567 400.841C372.804 398.209 367.411 384.2 369.827 370.569Z"/>
	<path fill="#80C3F8" transform="scale(0.195312 0.195312)" d="M393.52 357.507C395.666 357.328 397.692 357.125 399.829 357.507C405.629 359.882 410.296 363.896 412.704 369.768C406.367 370.092 399.872 369.771 393.52 369.768L393.52 357.507Z"/>
	<path fill="#C92364" transform="scale(0.195312 0.195312)" d="M414.254 372.425C415.143 376.44 414.36 382.252 412.704 385.991C410.379 384.444 408.277 382.7 406.254 380.778C408.833 377.938 411.356 374.941 414.254 372.425Z"/>
	<path fill="#F64768" transform="scale(0.195312 0.195312)" d="M406.254 380.778C408.277 382.7 410.379 384.444 412.704 385.991L411.902 387.461C409.802 386.58 404.525 383.488 406.254 380.778Z"/>
	<path fill="#F64768" transform="scale(0.195312 0.195312)" d="M442.355 370.569C447.069 372.114 445.558 382.51 444.453 385.44C442.092 386.448 438.733 386.017 436.187 385.991C434.416 390.782 431.538 396.238 430.11 400.66C431.625 403.805 433.228 406.853 435.088 409.813C431.502 412.347 427.103 416.501 423.952 418.47C421.793 417.171 419.858 415.783 418.051 414.019C421.144 411.955 424.418 414.265 428.749 405.904L428.718 405.744C428.118 402.73 426.567 399.383 423.952 397.644C427.324 393.246 429.429 389.063 430.11 383.514C433.238 383.897 437.745 384.137 440.728 383.127L441.126 382.942C443.104 380.377 440.062 372.483 442.355 370.569Z"/>
	<path fill="#F64768" transform="scale(0.195312 0.195312)" d="M360.977 414.019C363.63 413.078 366.842 410.544 368.982 408.712C369.559 410.762 372.159 411.595 373.444 413.12C370.041 415.012 366.617 417.068 362.979 418.47C360.96 417.334 359.35 416.095 358.192 414.019C359.248 414.034 359.885 414.451 360.977 414.019Z"/>
	<path fill="#F64768" transform="scale(0.195312 0.195312)" d="M368.982 408.712C370.346 409.019 371.749 410.476 372.92 411.257C375.608 413.051 381.409 414.193 381.901 417.492C379.222 416.259 375.395 415.457 373.444 413.12C372.159 411.595 369.559 410.762 368.982 408.712Z"/>
	<path fill="#F64768" transform="scale(0.195312 0.195312)" d="M423.437 335.825C425.584 336.122 426.943 336.676 428.749 337.914C430.143 341.373 433.595 343.87 435.088 347.295C433.048 349.338 430.552 351.187 428.749 353.423C432.457 358.437 434.866 363.651 436.187 369.768L435.834 370.213C434.33 370.54 432.794 370.524 431.261 370.569C429.192 362.277 427.002 359.191 423.437 352.067C425.426 349.511 427.979 347.394 430.11 344.94C427.218 342.111 425.106 339.525 423.437 335.825Z"/>
	<path fill="#FE52A0" transform="scale(0.195312 0.195312)" d="M397.578 335.334C397.61 331.492 397.444 327.77 397.149 323.942L397.578 323.604C404.462 325.255 402.506 329.65 402.826 335.334L402.726 335.555C401.691 336.28 398.814 335.527 397.578 335.334Z"/>
	<path fill="#F64768" transform="scale(0.195312 0.195312)" d="M344.229 383.127C347.056 383.344 349.813 383.814 352.567 384.476C352.645 385.345 352.996 386.723 352.567 387.461C350.459 386.653 348.015 386.377 345.793 385.991C345.502 384.884 344.87 384.052 344.229 383.127Z"/>
	<path fill="#FE52A0" transform="scale(0.195312 0.195312)" d="M364.314 335.334C366.924 336.375 369.865 338.643 372.036 340.469C371.475 341.102 370.56 341.518 369.827 341.943C368.179 340.452 364.374 337.67 364.314 335.334Z"/>
	<path fill="#80C3F8" transform="scale(0.195312 0.195312)" d="M397.578 162.391C401.716 159.273 413.79 153.166 418.458 151.111C424.379 153.308 428.405 155.763 428.707 162.479C429.147 172.247 428.759 182.213 428.755 191.999L428.75 308.766C428.751 318.431 429.157 328.268 428.749 337.914C426.943 336.676 425.584 336.122 423.437 335.825C421.733 335.634 419.516 337.553 418.051 338.42C416.219 339.261 414.466 340.299 412.704 341.278C410.612 339.926 403.631 337.155 402.826 335.334C402.506 329.65 404.462 325.255 397.578 323.604C396.226 323.578 394.873 323.598 393.52 323.604L393.531 221.183C393.541 216.484 393.682 211.755 393.52 207.059C393.032 204.308 393.521 198.264 393.529 195.147L393.52 164.544C394.851 163.748 396.164 163.03 397.578 162.391Z"/>
	<path fill="#475090" transform="scale(0.195312 0.195312)" d="M397.578 162.391C401.716 159.273 413.79 153.166 418.458 151.111C424.379 153.308 428.405 155.763 428.707 162.479C429.147 172.247 428.759 182.213 428.755 191.999L428.75 308.766C428.751 318.431 429.157 328.268 428.749 337.914C426.943 336.676 425.584 336.122 423.437 335.825C421.733 335.634 419.516 337.553 418.051 338.42C417.859 332.08 418.048 325.676 418.048 319.33L418.051 163.79C411.334 162.391 404.313 163.494 397.578 162.391Z"/>
	<path fill="#FDD866" transform="scale(0.195312 0.195312)" d="M185.658 279.367C185.824 277.542 210.895 265.529 214.404 265.076C220.348 267.492 237.599 276.131 241.841 279.367C242.114 288.647 241.825 297.997 241.841 307.286C239.42 309.021 215.481 320.754 213.786 320.942C204.517 317.315 194.856 311.561 185.658 307.286C185.524 298.049 186.27 288.567 185.658 279.367Z"/>
	<path fill="#FC975A" transform="scale(0.195312 0.195312)" d="M241.841 279.367C242.114 288.647 241.825 297.997 241.841 307.286C239.42 309.021 215.481 320.754 213.786 320.942L213.804 304.652C213.832 300.895 214.072 297.024 213.786 293.279C223.146 288.64 232.383 283.811 241.841 279.367Z"/>
	<path fill="#FDB65D" transform="scale(0.195312 0.195312)" d="M185.658 279.367C194.953 284.18 204.463 288.545 213.786 293.279C214.072 297.024 213.832 300.895 213.804 304.652L213.786 320.942C204.517 317.315 194.856 311.561 185.658 307.286C185.524 298.049 186.27 288.567 185.658 279.367Z"/>
	<path fill="#6BE98A" transform="scale(0.195312 0.195312)" d="M189.334 224.489C196.083 222.821 205.361 215.14 211.271 214.091C213.908 213.624 229.023 222.272 232.203 224.036L234.389 225.267C235.05 232.52 234.271 240.177 234.389 247.478C231.205 249.409 215.761 257.527 212.992 258.167C204.98 254.723 197.169 250.575 189.334 246.729C189.209 245.116 188.831 225.416 189.334 224.489Z"/>
	<path fill="#4EDE80" transform="scale(0.195312 0.195312)" d="M189.334 224.489C195.548 227.039 207.267 232.703 212.992 236.015C212.891 242.282 212.415 252.078 212.992 258.167C204.98 254.723 197.169 250.575 189.334 246.729C189.209 245.116 188.831 225.416 189.334 224.489Z"/>
	<path fill="#2CC76E" transform="scale(0.195312 0.195312)" d="M234.389 225.267C235.05 232.52 234.271 240.177 234.389 247.478C231.205 249.409 215.761 257.527 212.992 258.167C212.415 252.078 212.891 242.282 212.992 236.015C217.635 233.311 229.434 226.995 234.389 225.267Z"/>
	<path fill="#D7DBF1" transform="scale(0.195312 0.195312)" d="M265.323 268.044C282.226 267.441 302.44 269.227 319.439 270.042C336.522 270.861 353.76 270.894 370.804 272.221C374.606 272.517 378.178 273.774 374.914 278.001C370.124 278.282 365.242 277.893 360.448 277.701L286.633 274.545C283.409 274.379 257.749 276.232 265.323 268.044Z"/>
	<path fill="#D7DBF1" transform="scale(0.195312 0.195312)" d="M265.323 223.96C268.172 223.832 271.108 224.118 273.959 224.254L308.751 225.733C314.317 225.962 324.514 224.1 320.234 232.237C306.025 232.598 284.106 231.404 269.714 230.084C265.555 229.703 261.847 228.247 265.323 223.96Z"/>
	<path fill="#D7DBF1" transform="scale(0.195312 0.195312)" d="M266.367 295.238C278.28 294.412 291.767 296.074 303.721 296.71C308.523 296.965 314.62 296.534 319.179 297.483C321.986 298.067 322.061 302.306 319.48 303.234C315.328 303.533 311.152 303.099 307.002 302.908L273.616 301.25C271.074 301.14 267.872 301.607 265.645 300.109C263.273 298.513 263.434 295.643 266.367 295.238Z"/>
	<path fill="#D7DBF1" transform="scale(0.195312 0.195312)" d="M333.298 227.249C337.52 227.015 373.557 228.361 375.007 229.401C376.533 230.496 375.97 233.3 374.914 234.498C370.631 234.801 334.242 234.108 332.74 232.681C331.281 231.295 332.115 228.515 333.298 227.249Z"/>
	<path fill="#D7DBF1" transform="scale(0.195312 0.195312)" d="M334.573 298.472C342.33 297.695 362.841 299.119 371.441 299.876C376.057 300.282 378.694 304.694 373.444 305.508C369.053 305.909 334.89 304.738 332.98 303.758C331.759 303.131 330.763 299.158 334.573 298.472Z"/>
	<path fill="#D7DBF1" transform="scale(0.195312 0.195312)" d="M266.367 240.527C270.145 240.154 296.544 240.833 299.766 241.964C302.983 243.094 302.96 246.318 299.94 247.478C292.926 248.06 285.481 247.142 278.441 246.836C276.303 246.743 261.038 247.961 263.962 242.064C264.422 241.136 265.454 240.811 266.367 240.527Z"/>
	<path fill="#D7DBF1" transform="scale(0.195312 0.195312)" d="M265.323 311.008C271.184 310.921 294.364 311.244 300.071 312.523C302.543 313.077 304.057 316.944 301.267 318.011C297.307 318.492 267.293 317.374 265.44 316.42C263.273 315.303 264.131 312.499 265.323 311.008Z"/>
	<path fill="#D7DBF1" transform="scale(0.195312 0.195312)" d="M313.932 313.547C317.282 313.219 350.548 310.646 344.229 320.055C341.695 320.204 304.832 321.95 313.932 313.547Z"/>
	<path fill="#D7DBF1" transform="scale(0.195312 0.195312)" d="M315.004 242.701C319.209 242.446 343.901 242.767 345.528 245.52C346.397 246.99 345.646 248.579 344.229 249.234C336.235 249.439 322.656 249.626 315.705 248.127C312.769 247.493 312.68 244.092 315.004 242.701Z"/>
	<path fill="#475090" transform="scale(0.195312 0.195312)" d="M377.47 78.0151C385.316 83.2644 393.627 87.2499 401.88 91.7922L449.93 118.238C451.713 119.204 458.299 121.553 458.877 123.18L458.796 123.422C458.793 126.592 459.717 130.514 455.851 131.437C455.42 137.241 455.863 143.326 455.865 149.163L455.851 186.483C453.498 186.801 450.608 186.616 448.224 186.483L448.216 152.278C448.223 146.897 448.391 141.49 448.224 136.114C440.033 138.378 426.651 147.103 418.458 151.111C413.79 153.166 401.716 159.273 397.578 162.391C396.164 163.03 394.851 163.748 393.52 164.544C391.638 165.438 377.028 173.076 376.542 173.058C360.788 162.987 342.738 156.461 327.513 145.55C317.499 139.708 306.842 135.284 296.552 128.854C296.635 127.418 296.02 124.652 296.552 123.422C310.428 115.213 324.589 107.656 338.658 99.7773C351.596 92.532 364.381 84.9906 377.47 78.0151Z"/>
	<path fill="#F64768" transform="scale(0.195312 0.195312)" d="M385.334 105.12C383.705 103.75 374.448 100.682 379.604 97.4726C381.721 96.1554 385.605 97.4911 387.885 98.0028C394.795 102.089 402.702 104.936 409.934 108.501L433.797 120.115C438.738 122.54 443.727 125.373 448.874 127.316C451.293 128.565 453.714 129.725 455.851 131.437C455.42 137.241 455.863 143.326 455.865 149.163L455.851 186.483C453.498 186.801 450.608 186.616 448.224 186.483L448.216 152.278C448.223 146.897 448.391 141.49 448.224 136.114C445.572 134.021 442.56 132.782 439.492 131.437C436.533 129.686 433.215 128.285 430.118 126.777L411.573 117.831C403.267 113.836 393.672 108.545 385.334 105.12Z"/>
	<path fill="#212A60" transform="scale(0.195312 0.195312)" d="M439.492 131.437C442.56 132.782 445.572 134.021 448.224 136.114C440.033 138.378 426.651 147.103 418.458 151.111C413.79 153.166 401.716 159.273 397.578 162.391C396.164 163.03 394.851 163.748 393.52 164.544C391.638 165.438 377.028 173.076 376.542 173.058C376.284 170.654 376.763 168.183 376.542 165.739C382.344 161.548 390.649 157.574 396.986 154.132L439.492 131.437Z"/>
	<path fill="#212A60" transform="scale(0.195312 0.195312)" d="M296.552 128.854C296.635 127.418 296.02 124.652 296.552 123.422C305.197 125.625 341.559 146.506 351.36 151.857C359.757 156.442 367.922 161.569 376.542 165.739C376.763 168.183 376.284 170.654 376.542 173.058C360.788 162.987 342.738 156.461 327.513 145.55C317.499 139.708 306.842 135.284 296.552 128.854Z"/>
	<path fill="#F9F9FB" transform="scale(0.195312 0.195312)" d="M385.334 105.12C382.293 106.06 378.385 106.542 375.462 105.058C362.175 98.3097 383.631 81.3754 387.885 98.0028C385.605 97.4911 381.721 96.1554 379.604 97.4726C374.448 100.682 383.705 103.75 385.334 105.12Z"/>
	<path fill="#212A60" transform="scale(0.195312 0.195312)" d="M448.874 127.316C451.679 125.885 455.321 123.245 458.49 123.097L458.796 123.422C458.793 126.592 459.717 130.514 455.851 131.437C453.714 129.725 451.293 128.565 448.874 127.316Z"/>
	<path fill="#FCF65B" transform="scale(0.195312 0.195312)" d="M442.355 199.679C449.503 199.501 457.134 199.198 464.269 199.679L464.299 219.614C464.308 222.135 464.742 225.336 464.269 227.772C459.757 240.312 443.613 239.74 442.355 225.758C442.435 217.087 442.036 208.335 442.355 199.679Z"/>
	<path fill="#FDD866" transform="scale(0.195312 0.195312)" d="M442.355 225.758C444.426 225.648 463.035 225.411 464.074 225.849C464.153 226.49 464.225 227.127 464.269 227.772C459.757 240.312 443.613 239.74 442.355 225.758Z"/>
	<path fill="#FDD866" transform="scale(0.195312 0.195312)" d="M448.224 186.483C450.608 186.616 453.498 186.801 455.851 186.483C460.122 186.124 463.614 187.541 464.269 192.122C464.275 193.333 464.293 194.546 464.269 195.758C456.721 195.756 449.165 195.674 441.618 195.758C441.562 194.539 441.472 193.337 441.618 192.122C442.769 188.611 444.329 186.647 448.224 186.483Z"/>
	<path fill="#FDB65D" transform="scale(0.195312 0.195312)" d="M464.269 192.122C464.275 193.333 464.293 194.546 464.269 195.758C456.721 195.756 449.165 195.674 441.618 195.758C441.562 194.539 441.472 193.337 441.618 192.122C444.159 191.951 446.781 192.096 449.33 192.1L464.269 192.122Z"/>
</svg>
