<?xml version="1.0" encoding="utf-8" ?>
<svg xmlns="http://www.w3.org/2000/svg" xmlns:xlink="http://www.w3.org/1999/xlink" width="100" height="100">
	<path fill="#294E7B" transform="scale(0.195312 0.195312)" d="M197.17 251.645L197.16 222.614C197.16 216.801 194.483 203.504 201.726 203.264C209.428 203.008 217.215 203.241 224.928 203.24L296.907 203.221C316.713 203.161 314.635 200.708 314.625 222.119L314.612 250.568C324.208 254.512 344.778 266.674 353.286 272.211L353.308 240.198C353.319 219.394 350.397 221.236 374.275 221.265L419.975 221.268C425.311 221.259 435.677 219.302 436.444 226.812C437.045 232.686 436.647 238.892 436.645 244.811L436.637 387.375C439.881 387.341 446.018 386.666 448.892 387.91C448.965 388.032 452.753 405.106 445.422 405.142L346.271 404.875C346.258 402.796 346.196 400.705 346.271 398.628L167.724 398.628C164.731 405.439 157.095 403.754 151.044 403.758L91.1153 403.763C87.7919 403.763 67.7545 404.649 65.711 403.11C62.8498 400.955 62.5205 391.17 64.6414 388.93C66.6652 386.792 72.8679 387.444 75.7384 387.375L75.7359 241.451C75.7272 219.782 71.9604 221.27 96.6143 221.269L140.866 221.27C162.302 221.243 158.796 221.276 158.791 240.596L158.776 272.211C170.752 267.061 185.03 257.807 197.17 251.645Z"/>
	<path fill="#FEFEFE" transform="scale(0.195312 0.195312)" d="M87.5187 249.461C88.1889 248.21 96.6033 248.688 98.2224 248.818L111.721 248.818L111.721 248.818C113.296 248.298 121.173 248.802 123.233 248.818L123.233 248.818L123.233 258.712C127.53 258.69 131.955 258.458 136.238 258.712C136.498 255.442 136.218 252.1 136.238 248.818C139.778 248.822 143.342 248.915 146.88 248.818L146.865 274.696C146.861 277.951 146.386 282.145 146.88 285.27L146.88 305.736C147.158 314.643 146.878 323.635 146.877 332.553L146.88 387.375C151.935 387.362 160.904 386.238 164.736 389.892C168.714 393.686 166.497 396.274 167.724 398.628C164.731 405.439 157.095 403.754 151.044 403.758L91.1153 403.763C87.7919 403.763 67.7545 404.649 65.711 403.11C62.8498 400.955 62.5205 391.17 64.6414 388.93C66.6652 386.792 72.8679 387.444 75.7384 387.375C76.8475 387.529 86.9954 387.712 87.5187 387.375C87.2595 378.249 87.4705 369.004 87.5187 359.87L87.5187 249.461Z"/>
	<path fill="#69CA99" transform="scale(0.195312 0.195312)" d="M87.5187 387.375C88.5242 388.08 97.5232 387.375 99.5077 387.372L131.587 387.367C136.477 387.375 142.107 387.812 146.88 387.375C151.935 387.362 160.904 386.238 164.736 389.892C168.714 393.686 166.497 396.274 167.724 398.628C164.731 405.439 157.095 403.754 151.044 403.758L91.1153 403.763C87.7919 403.763 67.7545 404.649 65.711 403.11C62.8498 400.955 62.5205 391.17 64.6414 388.93C66.6652 386.792 72.8679 387.444 75.7384 387.375C76.8475 387.529 86.9954 387.712 87.5187 387.375Z"/>
	<path fill="#DCDCDC" transform="scale(0.195312 0.195312)" d="M146.88 305.736C147.158 314.643 146.878 323.635 146.877 332.553L146.88 387.375C142.107 387.812 136.477 387.375 131.587 387.367L99.5077 387.372C97.5232 387.375 88.5242 388.08 87.5187 387.375C87.2595 378.249 87.4705 369.004 87.5187 359.87C88.0538 363.018 87.5329 367.72 87.5187 371.054C93.9491 371.363 100.546 371.061 106.992 371.059L146.88 371.054L146.846 313.689C146.816 311.064 146.622 308.344 146.88 305.736Z"/>
	<path fill="#33A9F1" transform="scale(0.195312 0.195312)" d="M111.721 248.818L111.721 248.818L111.721 258.712L98.2224 258.712L98.2224 248.818L111.721 248.818Z"/>
	<path fill="#33A9F1" transform="scale(0.195312 0.195312)" d="M98.2224 321.734L111.721 321.734L111.721 335.782L98.2224 335.782C98.0791 331.112 98.2087 326.408 98.2224 321.734Z"/>
	<path fill="#33A9F1" transform="scale(0.195312 0.195312)" d="M98.2224 295.927L111.721 295.927C111.736 300.551 111.785 305.179 111.721 309.803C107.229 309.928 102.717 309.824 98.2224 309.803C98.2048 305.178 98.1723 300.552 98.2224 295.927Z"/>
	<path fill="#33A9F1" transform="scale(0.195312 0.195312)" d="M98.2224 270.171C102.721 270.172 107.223 270.07 111.721 270.171L111.721 283.933L98.2224 283.933L98.2224 270.171Z"/>
	<path fill="#33A9F1" transform="scale(0.195312 0.195312)" d="M123.233 270.171C127.565 270.149 131.906 270.075 136.238 270.171L136.238 283.933C132.059 284.378 127.447 283.95 123.233 283.933L123.233 270.171Z"/>
	<path fill="#33A9F1" transform="scale(0.195312 0.195312)" d="M123.233 321.734L136.238 321.734L136.238 335.782L123.233 335.782L123.233 321.734Z"/>
	<path fill="#33A9F1" transform="scale(0.195312 0.195312)" d="M98.2224 347.017C102.547 347.457 107.343 347.036 111.721 347.017L111.721 360.892L98.2224 360.892L98.2224 347.017Z"/>
	<path fill="#33A9F1" transform="scale(0.195312 0.195312)" d="M123.233 295.927L136.238 295.927L136.238 309.803L123.233 309.803L123.233 295.927Z"/>
	<path fill="#33A9F1" transform="scale(0.195312 0.195312)" d="M123.233 347.017L136.238 347.017L136.238 360.892L123.233 360.892L123.233 347.017Z"/>
	<path fill="#FEFEFE" transform="scale(0.195312 0.195312)" d="M364.768 247.142C364.952 246.189 364.833 245.233 364.768 244.272C368.413 244.374 372.286 244.478 375.899 244.947C380.19 245.92 385.182 245.472 389.589 245.45C393.051 245.121 396.304 245.768 399.783 244.947C405.294 244.935 413.999 242.5 413.716 248.153C417.363 248.159 421.048 248.293 424.69 248.153L424.69 373.757L364.768 373.757L364.75 339.364C364.752 333.719 365.112 327.932 364.768 322.31L364.768 247.142Z"/>
	<path fill="#33A9F1" transform="scale(0.195312 0.195312)" d="M399.783 244.947C405.294 244.935 413.999 242.5 413.716 248.153C413.347 251.551 413.696 255.277 413.716 258.712L399.783 258.712L399.783 244.947Z"/>
	<path fill="#33A9F1" transform="scale(0.195312 0.195312)" d="M375.899 244.947C380.19 245.92 385.182 245.472 389.589 245.45L389.589 258.712L375.899 258.712L375.899 244.947Z"/>
	<path fill="#33A9F1" transform="scale(0.195312 0.195312)" d="M405.593 295.927L413.716 295.927L413.716 309.803C411.937 309.775 410.155 309.8 408.375 309.803L399.783 309.803L399.783 295.927L405.593 295.927Z"/>
	<path fill="#33A9F1" transform="scale(0.195312 0.195312)" d="M399.783 270.171C404.426 270.224 409.073 270.18 413.716 270.171L413.716 283.933L399.783 283.933L399.783 270.171Z"/>
	<path fill="#33A9F1" transform="scale(0.195312 0.195312)" d="M380.038 295.927L389.589 295.927C389.669 300.547 389.59 305.182 389.589 309.803L385.672 309.803L375.899 309.803L375.899 295.927L380.038 295.927Z"/>
	<path fill="#33A9F1" transform="scale(0.195312 0.195312)" d="M375.899 270.171C380.446 270.314 385.037 270.176 389.589 270.171L389.589 283.933L375.899 283.933L375.899 270.171Z"/>
	<path fill="#33A9F1" transform="scale(0.195312 0.195312)" d="M399.783 322.31L413.716 322.31L413.716 335.782L399.783 335.782L399.783 322.31Z"/>
	<path fill="#33A9F1" transform="scale(0.195312 0.195312)" d="M389.589 347.886C390.06 348.861 389.596 358.855 389.589 360.892C385.135 361.301 380.381 360.905 375.899 360.892L375.764 360.834C375.46 360.326 375.902 349.133 375.899 347.886L389.589 347.886Z"/>
	<path fill="#33A9F1" transform="scale(0.195312 0.195312)" d="M399.783 347.886L413.716 347.886L413.716 360.892L399.783 360.892C399.646 356.572 399.776 352.211 399.783 347.886Z"/>
	<path fill="#33A9F1" transform="scale(0.195312 0.195312)" d="M375.899 322.31C380.36 322.659 385.098 322.321 389.589 322.31L389.589 335.782L375.899 335.782L375.899 322.31Z"/>
	<path fill="#EC8684" transform="scale(0.195312 0.195312)" d="M314.612 273.655C325.76 278.256 342.77 288.715 353.286 294.854L353.286 373.757C345.879 374.769 332.11 373.607 323.949 373.782C320.799 373.849 317.75 374.224 314.612 373.757L314.63 354.746C314.644 351.573 314.931 348.257 314.612 345.108L314.612 273.655Z"/>
	<path fill="#294E7B" transform="scale(0.195312 0.195312)" d="M327.966 352.023L340.5 352.023L340.5 363.763L327.966 363.763L327.966 352.023Z"/>
	<path fill="#294E7B" transform="scale(0.195312 0.195312)" d="M327.966 302.975L340.5 302.975L340.5 314.991L327.966 314.991L327.966 302.975Z"/>
	<path fill="#294E7B" transform="scale(0.195312 0.195312)" d="M327.966 327.512C332.132 327.387 336.331 327.504 340.5 327.512L340.5 338.923L327.966 338.923L327.966 327.512Z"/>
	<path fill="#69CA99" transform="scale(0.195312 0.195312)" d="M364.768 322.31C365.112 327.932 364.752 333.719 364.75 339.364L364.768 373.757L424.69 373.757L424.69 387.375L436.637 387.375C439.881 387.341 446.018 386.666 448.892 387.91C448.965 388.032 452.753 405.106 445.422 405.142L346.271 404.875C346.258 402.796 346.196 400.705 346.271 398.628L346.271 387.375C348.625 387.485 350.932 387.482 353.286 387.375L364.768 387.375C364.783 365.796 364.361 343.837 364.768 322.31Z"/>
	<path fill="#DCDCDC" transform="scale(0.195312 0.195312)" d="M364.768 373.757L424.69 373.757L424.69 387.375L364.768 387.375L364.768 373.757Z"/>
	<path fill="#DCDCDC" transform="scale(0.195312 0.195312)" d="M87.5187 233.283L146.88 233.283L146.899 279.818C146.905 281.585 147.073 283.521 146.88 285.27C146.386 282.145 146.861 277.951 146.865 274.696L146.88 248.818C143.342 248.915 139.778 248.822 136.238 248.818C136.218 252.1 136.498 255.442 136.238 258.712C131.955 258.458 127.53 258.69 123.233 258.712L123.233 248.818L123.233 248.818C121.173 248.802 113.296 248.298 111.721 248.818L111.721 248.818L98.2224 248.818C96.6033 248.688 88.1889 248.21 87.5187 249.461L87.5187 233.283Z"/>
	<path fill="#33A9F1" transform="scale(0.195312 0.195312)" d="M136.238 248.818C136.213 251.93 135.77 255.669 136.238 258.712C131.955 258.458 127.53 258.69 123.233 258.712L123.233 248.818C127.554 248.955 131.911 248.793 136.238 248.818Z"/>
	<path fill="#33A9F1" transform="scale(0.195312 0.195312)" d="M98.2224 244.947L111.721 244.947L111.721 248.818L98.2224 248.818L98.2224 244.947Z"/>
	<path fill="#33A9F1" transform="scale(0.195312 0.195312)" d="M123.233 244.947C127.56 244.936 131.913 244.823 136.238 244.947L136.238 248.818C131.911 248.793 127.554 248.955 123.233 248.818L123.233 248.818L123.233 244.947Z"/>
	<path fill="#DCDCDC" transform="scale(0.195312 0.195312)" d="M364.768 233.283L424.69 233.283L424.69 248.153C421.048 248.293 417.363 248.159 413.716 248.153C413.999 242.5 405.294 244.935 399.783 244.947C396.304 245.768 393.051 245.121 389.589 245.45C385.182 245.472 380.19 245.92 375.899 244.947C372.286 244.478 368.413 244.374 364.768 244.272C364.833 245.233 364.952 246.189 364.768 247.142C364.742 242.517 364.97 237.907 364.768 233.283Z"/>
	<path fill="#CD585C" transform="scale(0.195312 0.195312)" d="M314.612 345.108C314.931 348.257 314.644 351.573 314.63 354.746L314.612 373.757C317.75 374.224 320.799 373.849 323.949 373.782C332.11 373.607 345.879 374.769 353.286 373.757L353.286 387.375C350.932 387.482 348.625 387.485 346.271 387.375L314.612 387.375C314.447 373.294 314.58 359.191 314.612 345.108Z"/>
	<path fill="#F4BAB8" transform="scale(0.195312 0.195312)" d="M314.612 263.986C319.513 266.168 324.089 269.329 328.761 271.968L342.095 279.37C345.898 281.474 350.079 283.435 353.286 286.397L353.286 294.854C342.77 288.715 325.76 278.256 314.612 273.655L314.612 263.986Z"/>
	<path fill="#FEFEFE" transform="scale(0.195312 0.195312)" d="M209.062 214.951L292.953 214.943C296.257 214.941 299.635 214.755 302.928 214.951C302.791 218.53 302.842 222.067 302.928 225.646L302.928 386.716L289.989 386.716C290.325 381.955 290.006 376.949 289.998 372.16L290.114 344.379C290.471 305.231 232.854 298.953 222.371 335.129C220.089 343.005 220.944 352.343 220.941 360.494L220.954 386.716L209.062 386.716L209.062 223.991L209.062 214.951Z"/>
	<path fill="#DCDCDC" transform="scale(0.195312 0.195312)" d="M209.062 214.951L292.953 214.943C296.257 214.941 299.635 214.755 302.928 214.951C302.791 218.53 302.842 222.067 302.928 225.646C302.217 222.359 287.511 223.997 284.04 223.996L221.84 223.975C217.605 223.958 213.282 223.742 209.062 223.991L209.062 214.951Z"/>
	<path fill="#33A9F1" transform="scale(0.195312 0.195312)" d="M249.166 262.378C253.764 262.362 258.365 262.317 262.963 262.378L262.963 276.278L249.166 276.278L249.166 262.378Z"/>
	<path fill="#33A9F1" transform="scale(0.195312 0.195312)" d="M276.175 262.378C280.772 262.504 285.39 262.397 289.989 262.378L289.989 276.278C285.402 276.422 280.767 276.28 276.175 276.278L276.175 262.378Z"/>
	<path fill="#33A9F1" transform="scale(0.195312 0.195312)" d="M249.166 235.945L262.963 235.945L262.963 249.461L249.166 249.461C249.182 244.956 249.216 240.45 249.166 235.945Z"/>
	<path fill="#33A9F1" transform="scale(0.195312 0.195312)" d="M222.288 235.945L235.774 235.945C235.967 240.415 235.823 244.985 235.774 249.461C231.359 249.775 226.726 249.473 222.288 249.461L222.288 235.945Z"/>
	<path fill="#33A9F1" transform="scale(0.195312 0.195312)" d="M229.685 262.378C231.712 262.325 233.746 262.369 235.774 262.378L235.774 276.278C233.319 276.197 230.855 276.259 228.399 276.278C226.341 276.123 224.348 276.171 222.288 276.278C221.98 271.721 222.234 266.951 222.288 262.378C224.751 262.435 227.222 262.385 229.685 262.378Z"/>
	<path fill="#33A9F1" transform="scale(0.195312 0.195312)" d="M276.175 235.945L289.989 235.945L289.989 249.461L276.175 249.461L276.175 235.945Z"/>
	<path fill="#EC8684" transform="scale(0.195312 0.195312)" d="M158.776 286.397C166.269 281.125 188.734 268.859 197.17 265.55L197.17 274.574L197.17 373.757C197.254 378.294 197.191 382.837 197.17 387.375L158.776 387.375L158.776 377.002L158.776 294.854L158.776 286.397Z"/>
	<path fill="#CD585C" transform="scale(0.195312 0.195312)" d="M197.17 373.757C197.254 378.294 197.191 382.837 197.17 387.375L158.776 387.375L158.776 377.002C171.564 377.189 184.379 377.01 197.17 377.002L197.17 373.757Z"/>
	<path fill="#F4BAB8" transform="scale(0.195312 0.195312)" d="M158.776 286.397C166.269 281.125 188.734 268.859 197.17 265.55L197.17 274.574C193.069 276.02 188.943 278.749 185.114 280.842C176.836 285.367 167.282 290.857 158.776 294.854L158.776 286.397Z"/>
	<path fill="#294E7B" transform="scale(0.195312 0.195312)" d="M171.767 327.512C176.226 327.7 180.762 327.519 185.229 327.512L185.229 340.068L171.767 340.068L171.767 327.512Z"/>
	<path fill="#294E7B" transform="scale(0.195312 0.195312)" d="M171.767 352.023L185.229 352.023L185.229 364.507L171.767 364.507L171.767 352.023Z"/>
	<path fill="#294E7B" transform="scale(0.195312 0.195312)" d="M171.767 302.975L185.229 302.975L185.229 314.991C181.464 315.47 175.707 315.004 171.767 314.991L171.767 302.975Z"/>
	<path fill="#FEFEFE" transform="scale(0.195312 0.195312)" d="M232.877 345.108C234.693 319.893 271.424 311.87 278.237 343.913C278.056 358.172 278.239 372.455 278.237 386.716L232.877 386.716C232.871 372.871 232.549 358.944 232.877 345.108Z"/>
	<path fill="#AACAE0" transform="scale(0.195312 0.195312)" d="M232.877 345.108C234.693 319.893 271.424 311.87 278.237 343.913C273.025 342.382 263.633 323.622 243.2 334.765C240.677 336.14 233.476 341.959 232.877 345.108Z"/>
	<path fill="#294E7B" transform="scale(0.195312 0.195312)" d="M246.334 348.771C253.837 348.523 254.93 362.093 248.205 364.507C238.923 365.591 240.974 350.812 246.334 348.771Z"/>
	<path fill="#294E7B" transform="scale(0.195312 0.195312)" d="M256.139 78.4567C259.189 79.3893 262.108 81.7533 264.854 83.3813L320.422 116.617C327.013 120.472 336.767 125.316 342.508 129.989C344.484 134.301 343.012 137.602 338.798 139.736C334.824 141.797 330.671 143.777 326.875 146.149C319.735 150.018 307.576 155.874 301.564 160.207L301.593 177.47C301.598 194.123 300.376 191.681 285.462 191.638L230.448 191.617C224.865 191.62 219.217 191.848 213.643 191.618C208.96 188.162 210.295 182.375 210.298 177.198L210.325 160.207C201.326 154.231 190.252 148.891 180.725 143.503C176.859 141.491 173.013 139.452 169.192 137.358C166.95 128.694 177.821 125.388 184.641 121.298L236.254 89.7699C241.705 86.3989 249.497 79.9127 255.586 78.577L255.931 78.4993C256 78.4843 256.069 78.4709 256.139 78.4567Z"/>
	<path fill="#AACAE0" transform="scale(0.195312 0.195312)" d="M256.139 92.1973C256.596 92.2792 264.392 97.325 265.774 98.1492L301.988 119.734C309.734 124.308 317.678 128.677 325.221 133.58C317.237 137.542 309.616 142.408 301.564 146.149C301.862 143.367 302.598 139.657 300.361 137.468C295.436 132.65 265.986 130.374 257.96 130.455C248.286 130.09 216.035 132.523 210.992 138.147C209.353 139.975 210.146 143.883 210.325 146.149C203.133 141.514 195.254 137.873 187.848 133.58L227.998 108.991C236.894 103.458 246.855 96.7951 256.139 92.1973Z"/>
	<path fill="#EC8684" transform="scale(0.195312 0.195312)" d="M222.288 146.889L222.391 146.485C232.975 140.962 269.656 142.745 281.234 144.356L289.989 146.149L289.968 168.807C289.965 172.382 289.706 176.145 289.989 179.699L222.288 179.699C222.293 168.766 222.171 157.82 222.288 146.889Z"/>
	<path fill="#CD585C" transform="scale(0.195312 0.195312)" d="M281.234 144.356L289.989 146.149L289.968 168.807C289.965 172.382 289.706 176.145 289.989 179.699L222.288 179.699C222.293 168.766 222.171 157.82 222.288 146.889C222.753 149.236 222.336 152.184 222.316 154.617L222.288 169.523C225.061 169.741 227.932 169.555 230.718 169.545L266.102 169.536C271.099 169.537 276.289 169.734 281.234 168.918C280.803 160.807 281.232 152.487 281.234 144.356Z"/>
	<path fill="#294E7B" transform="scale(0.195312 0.195312)" d="M357.545 155.975C349.824 149.138 361.403 144.817 365.873 142.678L396.851 127.512C401.426 125.267 407.974 119.956 413.149 122.371C420.75 125.919 428.178 129.889 435.757 133.502L452.112 141.477C459.021 144.852 475.612 152.459 459.001 157.76C459.555 165.002 458.982 172.597 458.994 179.881L459.016 194.632C459.018 197.491 459.237 200.545 458.82 203.371C458.154 207.879 452.643 210.331 449.204 206.81C445.647 203.166 447.233 194.26 447.235 189.674L447.248 162.377C444.408 163.61 441.716 165.074 438.99 166.535C439.165 170.914 439.77 192.791 437.734 194.887C431.104 201.71 388.809 202.324 381.532 194.748C378.834 191.939 380.195 171.364 380.038 166.535C376.78 164.639 373.432 163.031 369.695 162.377C366.611 159.385 361.442 157.75 357.545 155.975Z"/>
	<path fill="#33A9F1" transform="scale(0.195312 0.195312)" d="M410.12 134.988C411.343 135.026 440.155 149.363 443.621 151.147C432.371 156.093 421.35 161.54 410.12 166.535C408.7 166.76 380.032 152.66 375.899 151.147C383.277 146.73 402.108 137.806 410.12 134.988Z"/>
	<path fill="#405A7C" transform="scale(0.195312 0.195312)" d="M391.897 172.294C397.804 173.735 403.018 178.57 409.084 179.051C414.644 179.492 421.742 174.284 426.994 172.451L427.451 172.294C427.412 175.57 427.447 178.849 427.451 182.125L427.451 186.729C423.707 186.608 419.701 188.015 415.96 188.442C407.759 189.379 399.925 188.243 391.897 186.729C391.977 181.92 391.759 177.107 391.897 172.294Z"/>
	<path fill="#294E7B" transform="scale(0.195312 0.195312)" d="M86.1723 417.035L413.076 417.051C416.557 417.048 420.068 416.867 423.543 416.974C432.494 417.248 432.802 427.24 424.69 428.721L98.2484 428.725C93.967 428.729 86.6526 430.049 82.9444 427.417C78.072 423.958 81.0489 417.796 86.1723 417.035Z"/>
	<path fill="#F5B050" transform="scale(0.195312 0.195312)" d="M169.192 137.358C173.013 139.452 176.859 141.491 180.725 143.503C180.769 146.183 180.392 166.321 181.206 166.99C181.824 167.497 182.94 167.913 183.671 168.299C205.742 179.937 179.786 212.349 173.912 210.553C170.117 209.393 162.586 198.362 160.714 194.974C154.167 183.116 157.315 172.937 169.192 166.535C169.349 156.813 169.075 147.082 169.192 137.358ZM169.192 183.446C169.466 187.817 171.667 191.614 174.95 194.52C178.345 190.001 185.663 177.74 174.151 178.521C171.428 179.421 169.882 180.695 169.192 183.446Z"/>
	<path fill="#F5B050" transform="scale(0.195312 0.195312)" d="M357.545 155.975C361.442 157.75 366.611 159.385 369.695 162.377L369.708 189.301C369.708 194.014 370.147 199.237 369.38 203.878C368.283 210.511 358.559 210.445 357.654 203.59C357.084 199.269 357.532 192.976 357.532 188.476L357.545 155.975Z"/>
	<path fill="#F5B050" transform="scale(0.195312 0.195312)" d="M326.875 146.149C330.671 143.777 334.824 141.797 338.798 139.736L338.813 160.955C338.818 163.98 339.202 167.394 338.799 170.374C338.114 175.433 332.099 177.385 328.629 173.351C326.182 170.505 326.204 151.155 326.875 146.149Z"/>
	<path fill="#294E7B" transform="scale(0.195312 0.195312)" d="M47.9558 417.035C54.6151 416.646 65.1573 414.795 68.7448 421.241C68.8438 424.827 68.191 427.243 64.5811 428.721C60.6117 428.605 49.939 429.391 46.9376 428.021C42.0896 425.808 43.0864 418.484 47.9558 417.035Z"/>
	<path fill="#294E7B" transform="scale(0.195312 0.195312)" d="M447.248 417.035C450.638 416.749 461.134 416.634 464.152 417.505C470.03 419.201 468.511 426.63 463.802 428.721C459.113 428.746 452.436 429.319 448.012 428.292C442.006 426.897 442.51 419.601 447.248 417.035Z"/>
</svg>
