<?xml version="1.0" encoding="utf-8" ?>
<svg xmlns="http://www.w3.org/2000/svg" xmlns:xlink="http://www.w3.org/1999/xlink" width="100" height="100">
	<path fill="#EF5960" transform="scale(0.195312 0.195312)" d="M169.943 158.741L184.385 137.246L250.182 137.246C254.277 137.272 258.683 137.632 262.747 137.246C284.962 136.942 307.224 137.246 329.444 137.246C330.59 139.617 342.214 158.332 342.987 158.741C351.989 158.733 361.003 158.619 370.003 158.741L370.003 184.013C365.39 183.99 360.772 183.927 356.159 184.013C355.846 187.658 356.014 191.293 356.159 194.942C355.957 197.722 355.618 217.125 356.159 217.97C362.694 217.779 369.227 217.956 375.761 217.969L423.251 217.985C425.35 217.987 427.515 218.121 429.605 217.97L429.605 233.439C427.293 233.43 424.979 233.403 422.667 233.439C422.319 238.825 422.617 244.117 422.655 249.499L422.672 360.384C422.673 363.875 422.314 387.989 422.958 389.057C423.648 389.591 424.526 389.473 425.359 389.488C427.133 389.461 428.917 389.398 430.69 389.488L430.69 409.263C435.097 408.734 443.365 409.273 448.244 409.263L448.244 428.642C433.538 428.831 418.805 428.643 404.096 428.642L64.2592 428.642L64.2592 409.263C70.0697 409.428 75.9021 409.254 81.7159 409.263L81.7159 388.073C84.3952 387.845 87.2981 388.065 89.9997 388.073L89.9997 242.477L89.9997 232.757C87.3526 232.47 84.394 232.729 81.7159 232.757C81.6904 228.132 82.4378 222.327 81.7159 217.97L131.908 217.975C139.479 217.972 147.278 217.557 154.827 217.97C155.303 215.806 155.075 197.386 154.827 194.942C155.019 191.278 155.054 187.674 154.827 184.013C150.263 183.898 145.668 184.012 141.1 184.013C140.938 175.602 141.109 167.156 141.1 158.741L169.943 158.741Z"/>
	<path fill="#E1ECF3" transform="scale(0.195312 0.195312)" d="M169.943 158.741L184.385 137.246L250.182 137.246C254.277 137.272 258.683 137.632 262.747 137.246C284.962 136.942 307.224 137.246 329.444 137.246C330.59 139.617 342.214 158.332 342.987 158.741C351.989 158.733 361.003 158.619 370.003 158.741L370.003 184.013C365.39 183.99 360.772 183.927 356.159 184.013C355.846 187.658 356.014 191.293 356.159 194.942C355.957 197.722 355.618 217.125 356.159 217.97L356.159 217.97L356.159 233.439L356.159 242.477L356.186 323.324C356.194 325.872 356.489 328.775 356.159 331.285L154.827 331.285C154.683 328.089 154.817 324.839 154.818 321.637L154.827 242.477L154.827 233.439C154.858 228.318 154.475 223.069 154.827 217.97C155.303 215.806 155.075 197.386 154.827 194.942C155.019 191.278 155.054 187.674 154.827 184.013C150.263 183.898 145.668 184.012 141.1 184.013C140.938 175.602 141.109 167.156 141.1 158.741L169.943 158.741Z"/>
	<path fill="#6FA4BF" transform="scale(0.195312 0.195312)" d="M169.943 158.741L184.385 137.246L250.182 137.246C254.277 137.272 258.683 137.632 262.747 137.246C284.962 136.942 307.224 137.246 329.444 137.246C330.59 139.617 342.214 158.332 342.987 158.741C351.989 158.733 361.003 158.619 370.003 158.741L370.003 184.013C365.39 183.99 360.772 183.927 356.159 184.013L176.919 184.015C169.573 184.016 162.167 184.223 154.827 184.013C150.263 183.898 145.668 184.012 141.1 184.013C140.938 175.602 141.109 167.156 141.1 158.741L169.943 158.741Z"/>
	<path fill="#8AC2CA" transform="scale(0.195312 0.195312)" d="M169.943 158.741L184.385 137.246L250.182 137.246C254.277 137.272 258.683 137.632 262.747 137.246C284.962 136.942 307.224 137.246 329.444 137.246C330.59 139.617 342.214 158.332 342.987 158.741L185.963 158.716C180.844 158.71 174.964 159.258 169.943 158.741Z"/>
	<path fill="#C4D3DA" transform="scale(0.195312 0.195312)" d="M154.827 184.013C162.167 184.223 169.573 184.016 176.919 184.015L356.159 184.013C355.846 187.658 356.014 191.293 356.159 194.942L176.036 194.94C169.008 194.944 161.837 194.613 154.827 194.942C155.019 191.278 155.054 187.674 154.827 184.013Z"/>
	<path fill="#6FA4BF" transform="scale(0.195312 0.195312)" d="M306.78 203.183C307.131 199.924 313.216 201.484 316.848 201.494L334.994 201.499L334.994 204.844L334.994 237.388L315.502 237.388C312.591 237.25 309.692 237.323 306.78 237.388C306.777 225.993 306.964 214.573 306.78 203.183Z"/>
	<path fill="#5093C1" transform="scale(0.195312 0.195312)" d="M306.78 203.183C307.389 206.456 311.702 204.785 315.502 204.844L315.502 237.388C312.591 237.25 309.692 237.323 306.78 237.388C306.777 225.993 306.964 214.573 306.78 203.183Z"/>
	<path fill="#345C73" transform="scale(0.195312 0.195312)" d="M306.78 203.183C307.131 199.924 313.216 201.484 316.848 201.494L334.994 201.499L334.994 204.844L315.502 204.844C311.702 204.785 307.389 206.456 306.78 203.183Z"/>
	<path fill="#6FA4BF" transform="scale(0.195312 0.195312)" d="M306.78 265.352L334.994 265.352L334.994 268.765L334.994 300.301L315.502 300.301L306.78 300.301L306.771 276.68C306.764 272.976 306.41 269.021 306.78 265.352Z"/>
	<path fill="#5093C1" transform="scale(0.195312 0.195312)" d="M306.78 300.301L306.771 276.68C306.764 272.976 306.41 269.021 306.78 265.352L306.78 268.765L315.502 268.765L315.502 300.301L306.78 300.301Z"/>
	<path fill="#345C73" transform="scale(0.195312 0.195312)" d="M306.78 265.352L334.994 265.352L334.994 268.765C328.652 268.898 321.812 269.105 315.502 268.765L306.78 268.765L306.78 265.352Z"/>
	<path fill="#6FA4BF" transform="scale(0.195312 0.195312)" d="M220.804 203.183C220.676 199.482 242.869 201.492 247.519 201.499C248.101 205.589 247.566 210.195 247.533 214.336L247.519 237.388L229.301 237.409C226.608 237.422 223.421 237.813 220.804 237.388L220.804 203.183Z"/>
	<path fill="#5093C1" transform="scale(0.195312 0.195312)" d="M220.804 203.183C221.37 206.36 225.512 204.679 229.508 204.844L229.508 237.388C226.661 237.238 223.627 236.941 220.804 237.388L220.804 203.183Z"/>
	<path fill="#345C73" transform="scale(0.195312 0.195312)" d="M220.804 203.183C220.676 199.482 242.869 201.492 247.519 201.499C247.469 202.624 247.453 203.72 247.519 204.844L229.508 204.844C225.512 204.679 221.37 206.36 220.804 203.183Z"/>
	<path fill="#6FA4BF" transform="scale(0.195312 0.195312)" d="M264.006 201.499L290.755 201.499L290.755 204.844L290.755 237.388L272.509 237.388L264.006 237.388L264.006 204.844C263.985 203.731 264.005 202.613 264.006 201.499Z"/>
	<path fill="#5093C1" transform="scale(0.195312 0.195312)" d="M264.006 201.499L290.755 201.499L290.755 204.844L290.755 204.844C288.965 205.333 275.583 204.842 272.509 204.844L272.524 226.518C272.526 230.107 272.725 233.811 272.509 237.388L264.006 237.388L264.006 204.844C263.985 203.731 264.005 202.613 264.006 201.499Z"/>
	<path fill="#345C73" transform="scale(0.195312 0.195312)" d="M264.006 201.499L290.755 201.499L290.755 204.844L290.755 204.844C281.891 204.851 272.847 205.252 264.006 204.844C263.985 203.731 264.005 202.613 264.006 201.499Z"/>
	<path fill="#6FA4BF" transform="scale(0.195312 0.195312)" d="M178.165 201.499C181.514 201.32 184.876 201.47 188.229 201.49L204.023 201.499L204.023 204.844L204.023 237.388L186.152 237.413C183.693 237.428 180.51 237.873 178.165 237.388L178.152 213.027C178.133 209.381 177.577 205.063 178.165 201.499Z"/>
	<path fill="#5093C1" transform="scale(0.195312 0.195312)" d="M178.165 201.499C181.514 201.32 184.876 201.47 188.229 201.49L204.023 201.499L204.023 204.844L192.803 204.844C190.759 204.977 188.725 204.902 186.68 204.844C186.512 208.857 186.665 212.869 186.677 216.884L186.68 237.388C183.929 237.244 180.88 236.895 178.165 237.388L178.152 213.027C178.133 209.381 177.577 205.063 178.165 201.499Z"/>
	<path fill="#345C73" transform="scale(0.195312 0.195312)" d="M178.165 201.499C181.514 201.32 184.876 201.47 188.229 201.49L204.023 201.499L204.023 204.844L192.803 204.844C187.959 204.621 183.016 204.794 178.165 204.844C178.196 203.727 178.187 202.617 178.165 201.499Z"/>
	<path fill="#6FA4BF" transform="scale(0.195312 0.195312)" d="M264.006 265.352L290.755 265.352L290.755 268.765L290.755 268.765C290.99 279.255 290.752 289.806 290.755 300.301L272.509 300.301L264.006 300.301L264.006 268.765L264.006 265.352Z"/>
	<path fill="#5093C1" transform="scale(0.195312 0.195312)" d="M264.006 265.352L290.755 265.352L290.755 268.765L290.755 268.765C284.719 269.096 278.562 268.736 272.509 268.765L272.357 293.001C272.342 295.427 272.579 297.886 272.509 300.301L264.006 300.301L264.006 268.765L264.006 265.352Z"/>
	<path fill="#345C73" transform="scale(0.195312 0.195312)" d="M264.006 265.352L290.755 265.352L290.755 268.765C281.862 268.76 272.888 269.07 264.006 268.765L264.006 265.352Z"/>
	<path fill="#6FA4BF" transform="scale(0.195312 0.195312)" d="M220.804 265.352L247.519 265.352C247.759 269.071 247.524 272.939 247.523 276.672L247.519 300.301C242.004 300.511 227.364 301.038 222.139 300.301C219.465 300.477 220.789 283.54 220.804 268.765L220.804 265.352Z"/>
	<path fill="#5093C1" transform="scale(0.195312 0.195312)" d="M220.804 268.765L229.508 268.765L229.508 300.301C227.059 300.213 224.582 300.044 222.139 300.301C219.465 300.477 220.789 283.54 220.804 268.765Z"/>
	<path fill="#345C73" transform="scale(0.195312 0.195312)" d="M220.804 265.352L247.519 265.352C247.472 266.5 247.461 267.617 247.519 268.765L229.508 268.765L220.804 268.765L220.804 265.352Z"/>
	<path fill="#6FA4BF" transform="scale(0.195312 0.195312)" d="M178.165 265.352L204.023 265.352L204.023 268.765L204.023 300.301C196.118 300.313 187.982 300.737 180.104 300.301C179.503 300.378 179.059 300.377 178.463 300.267C177.675 298.435 178.162 272.849 178.165 268.765L178.165 265.352Z"/>
	<path fill="#5093C1" transform="scale(0.195312 0.195312)" d="M178.165 268.765L186.68 268.765C186.68 279.235 186.313 289.85 186.68 300.301C184.579 300.204 182.161 299.854 180.104 300.301C179.503 300.378 179.059 300.377 178.463 300.267C177.675 298.435 178.162 272.849 178.165 268.765Z"/>
	<path fill="#345C73" transform="scale(0.195312 0.195312)" d="M178.165 265.352L204.023 265.352L204.023 268.765L186.68 268.765L178.165 268.765L178.165 265.352Z"/>
	<path fill="#75E1F5" transform="scale(0.195312 0.195312)" d="M81.7159 217.97L131.908 217.975C139.479 217.972 147.278 217.557 154.827 217.97C154.475 223.069 154.858 228.318 154.827 233.439L154.827 242.477L154.818 321.637C154.817 324.839 154.683 328.089 154.827 331.285L154.827 343.807L167.804 343.807C169.058 344.313 171.381 343.897 172.75 343.807L172.75 349.235L185.09 349.235C184.84 355.854 185.1 362.554 185.103 369.182L185.09 409.263L172.75 409.263C166.817 409.251 160.742 409.592 154.827 409.263C148.697 409.083 142.51 409.257 136.376 409.258L99.2978 409.263L81.7159 409.263L81.7159 388.073C84.3952 387.845 87.2981 388.065 89.9997 388.073L89.9997 242.477L89.9997 232.757C87.3526 232.47 84.394 232.729 81.7159 232.757C81.6904 228.132 82.4378 222.327 81.7159 217.97Z"/>
	<path fill="#E1ECF3" transform="scale(0.195312 0.195312)" d="M154.827 343.807L167.804 343.807C169.058 344.313 171.381 343.897 172.75 343.807L172.75 349.235L185.09 349.235C184.84 355.854 185.1 362.554 185.103 369.182L185.09 409.263L172.75 409.263C166.817 409.251 160.742 409.592 154.827 409.263L154.827 388.073L154.827 349.235C154.941 347.427 154.87 345.617 154.827 343.807Z"/>
	<path fill="#C4D3DA" transform="scale(0.195312 0.195312)" d="M172.75 349.235L185.09 349.235C184.84 355.854 185.1 362.554 185.103 369.182L185.09 409.263L172.75 409.263L172.75 361.069C172.959 357.149 172.784 353.162 172.75 349.235Z"/>
	<path fill="#C7CCD7" transform="scale(0.195312 0.195312)" d="M154.827 343.807L167.804 343.807C169.058 344.313 171.381 343.897 172.75 343.807L172.75 349.235C172.784 353.162 172.959 357.149 172.75 361.069C172.231 357.567 172.7 352.839 172.75 349.235C166.834 349.27 160.71 348.767 154.827 349.235C154.941 347.427 154.87 345.617 154.827 343.807Z"/>
	<path fill="#75E1F5" transform="scale(0.195312 0.195312)" d="M81.7159 217.97L131.908 217.975C139.479 217.972 147.278 217.557 154.827 217.97C154.475 223.069 154.858 228.318 154.827 233.439L154.827 242.477L111.488 242.485C104.36 242.484 97.1092 242.146 89.9997 242.477L89.9997 232.757C87.3526 232.47 84.394 232.729 81.7159 232.757C81.6904 228.132 82.4378 222.327 81.7159 217.97Z"/>
	<path fill="#39C9E4" transform="scale(0.195312 0.195312)" d="M89.9997 232.757C93.7709 234.081 111.206 233.453 115.956 233.452L154.827 233.439L154.827 242.477L111.488 242.485C104.36 242.484 97.1092 242.146 89.9997 242.477L89.9997 232.757Z"/>
	<path fill="#6FA4BF" transform="scale(0.195312 0.195312)" d="M93.9325 388.073C100.764 387.878 107.636 388.078 114.473 388.082L154.827 388.073L154.827 409.263C148.697 409.083 142.51 409.257 136.376 409.258L99.2978 409.263L81.7159 409.263L81.7159 388.073C85.7861 388.333 89.8601 388.203 93.9325 388.073Z"/>
	<path fill="#5093C1" transform="scale(0.195312 0.195312)" d="M81.7159 388.073C85.7861 388.333 89.8601 388.203 93.9325 388.073C95.7278 388.233 97.4999 388.146 99.2978 388.073L99.2978 409.263L81.7159 409.263L81.7159 388.073Z"/>
	<path fill="#39C9E4" transform="scale(0.195312 0.195312)" d="M111.997 256.002L133.985 256.002C133.886 258.821 133.957 261.649 133.985 264.469C129.646 264.523 125.305 264.484 120.966 264.469L120.966 366.217C118.075 365.922 114.917 366.188 111.997 366.217L111.997 256.002Z"/>
	<path fill="#75E1F5" transform="scale(0.195312 0.195312)" d="M356.159 217.97C362.694 217.779 369.227 217.956 375.761 217.969L423.251 217.985C425.35 217.987 427.515 218.121 429.605 217.97L429.605 233.439C427.293 233.43 424.979 233.403 422.667 233.439C422.319 238.825 422.617 244.117 422.655 249.499L422.672 360.384C422.673 363.875 422.314 387.989 422.958 389.057C423.648 389.591 424.526 389.473 425.359 389.488L375.249 389.488C373.002 389.398 370.777 389.281 368.533 389.488C364.413 389.659 360.28 389.388 356.159 389.488L356.159 350.368C356.07 348.173 356.088 346.003 356.159 343.807C356.144 339.634 356.097 335.458 356.159 331.285C356.489 328.775 356.194 325.872 356.186 323.324L356.159 242.477L356.159 233.439L356.159 217.97L356.159 217.97Z"/>
	<path fill="#39C9E4" transform="scale(0.195312 0.195312)" d="M356.159 217.97C360.282 217.902 364.41 217.954 368.533 217.97L368.533 233.439C386.552 233.44 404.659 233.052 422.667 233.439L422.667 242.477C416.804 242.867 410.762 242.479 404.871 242.475L368.533 242.477L368.533 389.488C364.413 389.659 360.28 389.388 356.159 389.488L356.159 350.368C356.07 348.173 356.088 346.003 356.159 343.807C356.144 339.634 356.097 335.458 356.159 331.285C356.489 328.775 356.194 325.872 356.186 323.324L356.159 242.477L356.159 233.439L356.159 217.97Z"/>
	<path fill="#39C9E4" transform="scale(0.195312 0.195312)" d="M378 255.373L398.003 255.373L398.003 259.222C397.985 260.972 397.977 262.719 398.003 264.469C394.071 264.178 390.234 264.217 386.3 264.469L386.323 355.73C386.331 358.454 386.689 361.618 386.3 364.287C383.547 364.144 380.757 364.262 378 364.287L378 255.373Z"/>
	<path fill="#345C73" transform="scale(0.195312 0.195312)" d="M368.533 389.488C370.777 389.281 373.002 389.398 375.249 389.488L425.359 389.488C427.133 389.461 428.917 389.398 430.69 389.488L430.69 409.263C435.097 408.734 443.365 409.273 448.244 409.263L448.244 428.642C433.538 428.831 418.805 428.643 404.096 428.642L64.2592 428.642L64.2592 409.263C70.0697 409.428 75.9021 409.254 81.7159 409.263L99.2978 409.263L136.376 409.258C142.51 409.257 148.697 409.083 154.827 409.263C160.742 409.592 166.817 409.251 172.75 409.263L185.09 409.263L214.91 409.263L218.657 409.263C220.968 409.493 223.457 409.293 225.792 409.289L240.73 409.263C250.701 409.19 260.777 408.982 270.74 409.263C272.753 409.274 274.801 409.366 276.811 409.263C283.362 409.472 289.928 409.277 296.481 409.263L318.481 409.244C321.628 409.24 325.155 408.877 328.248 409.263L332.108 409.263C340.115 409.404 348.149 409.264 356.159 409.263L356.159 389.488C360.28 389.388 364.413 389.659 368.533 389.488Z"/>
	<path fill="#8AC2CA" transform="scale(0.195312 0.195312)" d="M368.533 389.488C370.777 389.281 373.002 389.398 375.249 389.488L425.359 389.488C427.133 389.461 428.917 389.398 430.69 389.488L430.69 409.263L375.249 409.263L356.159 409.263L356.159 389.488C360.28 389.388 364.413 389.659 368.533 389.488Z"/>
	<path fill="#5093C1" transform="scale(0.195312 0.195312)" d="M185.09 343.807C193.71 344.142 206.337 344.345 214.91 343.807L214.91 349.235L214.91 350.973C219.761 350.97 224.661 350.835 229.508 350.973L229.508 350.973C233.206 350.987 237.058 350.716 240.73 350.973L240.73 359.848L240.73 409.263L225.792 409.289C223.457 409.293 220.968 409.493 218.657 409.263L214.91 409.263L185.09 409.263L185.103 369.182C185.1 362.554 184.84 355.854 185.09 349.235C184.924 347.46 185.062 345.593 185.09 343.807Z"/>
	<path fill="#E1ECF3" transform="scale(0.195312 0.195312)" d="M229.508 350.973C233.206 350.987 237.058 350.716 240.73 350.973L240.73 359.848L240.73 409.263L225.792 409.289C223.457 409.293 220.968 409.493 218.657 409.263L214.91 409.263L214.91 350.973C219.761 350.97 224.661 350.835 229.508 350.973L229.508 350.973Z"/>
	<path fill="#C4D3DA" transform="scale(0.195312 0.195312)" d="M229.508 350.973C233.206 350.987 237.058 350.716 240.73 350.973L240.73 359.848L240.73 409.263L225.792 409.289C223.457 409.293 220.968 409.493 218.657 409.263C222.259 409.112 225.901 409.239 229.508 409.263L229.495 365.309C229.477 361.367 230.125 354.534 229.508 350.973L229.508 350.973Z"/>
	<path fill="#3D7EB2" transform="scale(0.195312 0.195312)" d="M185.09 343.807C193.71 344.142 206.337 344.345 214.91 343.807L214.91 349.235C214.211 352.419 214.952 356.548 214.91 359.848C204.995 360.104 195.014 359.846 185.09 359.848C185.104 357.225 185.645 351.447 185.09 349.235C184.924 347.46 185.062 345.593 185.09 343.807Z"/>
	<path fill="#E1ECF3" transform="scale(0.195312 0.195312)" d="M328.248 350.368C332.763 350.353 338.662 349.899 342.987 350.368L342.987 350.368L356.159 350.368L356.159 389.488L356.159 409.263C348.149 409.264 340.115 409.404 332.108 409.263L328.248 409.263C325.155 408.877 321.628 409.24 318.481 409.244L296.481 409.263L296.481 359.848C302.828 359.546 326.676 360.679 328.248 359.239L328.248 350.368Z"/>
	<path fill="#5093C1" transform="scale(0.195312 0.195312)" d="M296.481 359.848C302.828 359.546 326.676 360.679 328.248 359.239L328.241 400.703C328.237 402.932 327.228 407.376 328.248 409.263C325.155 408.877 321.628 409.24 318.481 409.244L296.481 409.263L296.481 359.848Z"/>
	<path fill="#C4D3DA" transform="scale(0.195312 0.195312)" d="M342.987 350.368L356.159 350.368L356.159 389.488L356.159 409.263C348.149 409.264 340.115 409.404 332.108 409.263C334.361 408.655 340.272 409.258 342.987 409.263L342.987 350.368L342.987 350.368Z"/>
	<path fill="#E1ECF3" transform="scale(0.195312 0.195312)" d="M285.75 350.368C289.283 350.339 292.964 350.095 296.481 350.368L296.481 359.848L296.481 409.263C289.928 409.277 283.362 409.472 276.811 409.263C274.801 409.366 272.753 409.274 270.74 409.263C260.777 408.982 250.701 409.19 240.73 409.263L240.73 359.848C250.731 359.954 260.738 359.82 270.74 359.848L270.74 350.368L285.75 350.368Z"/>
	<path fill="#5093C1" transform="scale(0.195312 0.195312)" d="M240.73 359.848C250.731 359.954 260.738 359.82 270.74 359.848L270.747 398.423C270.747 399.656 270.415 408.791 270.588 409.162L270.74 409.263C260.777 408.982 250.701 409.19 240.73 409.263L240.73 359.848Z"/>
	<path fill="#C4D3DA" transform="scale(0.195312 0.195312)" d="M285.75 350.368C289.283 350.339 292.964 350.095 296.481 350.368L296.481 359.848L296.481 409.263C289.928 409.277 283.362 409.472 276.811 409.263C277.942 408.79 284.067 409.254 285.75 409.263L285.75 350.368Z"/>
	<path fill="#3D7EB2" transform="scale(0.195312 0.195312)" d="M296.481 343.807L328.248 343.807L328.248 350.368L328.248 359.239C326.676 360.679 302.828 359.546 296.481 359.848L296.481 350.368L296.481 343.807Z"/>
	<path fill="#3D7EB2" transform="scale(0.195312 0.195312)" d="M240.73 343.807C244.061 343.978 247.479 343.82 250.818 343.818L270.74 343.807C270.713 345.987 270.618 348.191 270.74 350.368L270.74 359.848C260.738 359.82 250.731 359.954 240.73 359.848L240.73 350.973L240.73 343.807Z"/>
	<path fill="#B6BECA" transform="scale(0.195312 0.195312)" d="M270.74 343.807L287.35 343.786C290.379 343.776 293.464 343.526 296.481 343.807L296.481 350.368C292.964 350.095 289.283 350.339 285.75 350.368L270.74 350.368C270.618 348.191 270.713 345.987 270.74 343.807Z"/>
	<path fill="#C7CCD7" transform="scale(0.195312 0.195312)" d="M214.91 343.807C219.529 343.519 224.328 343.798 228.966 343.807C230.015 344.939 229.533 349.309 229.508 350.973L229.508 350.973C224.661 350.835 219.761 350.97 214.91 350.973L214.91 349.235L214.91 343.807Z"/>
	<path fill="#C7CCD7" transform="scale(0.195312 0.195312)" d="M328.248 343.807L342.987 343.807C342.972 345.919 342.727 348.286 342.987 350.368L342.987 350.368C338.662 349.899 332.763 350.353 328.248 350.368L328.248 343.807Z"/>
	<path fill="#B6BECA" transform="scale(0.195312 0.195312)" d="M342.987 343.807C347.372 343.819 351.776 343.917 356.159 343.807C356.088 346.003 356.07 348.173 356.159 350.368L342.987 350.368C342.727 348.286 342.972 345.919 342.987 343.807Z"/>
	<path fill="#B6BECA" transform="scale(0.195312 0.195312)" d="M228.966 343.807C232.863 343.799 236.843 343.615 240.73 343.807L240.73 350.973C237.058 350.716 233.206 350.987 229.508 350.973C229.533 349.309 230.015 344.939 228.966 343.807Z"/>
	<path fill="#B6BECA" transform="scale(0.195312 0.195312)" d="M167.804 343.807C173.519 343.794 179.392 343.492 185.09 343.807C185.062 345.593 184.924 347.46 185.09 349.235L172.75 349.235L172.75 343.807C171.381 343.897 169.058 344.313 167.804 343.807Z"/>
	<path fill="#EF5960" transform="scale(0.195312 0.195312)" d="M250.182 137.246L250.171 101.554C250.172 95.8317 249.711 88.7296 250.319 83.1595C250.891 77.9171 262.122 72.5658 262.747 87.136C264.038 87.1024 265.33 87.126 266.622 87.136L291.616 87.126C300.283 87.1266 312.459 85.2486 315.477 96.2697C316.925 101.557 316.203 118.22 316.189 124.652L262.747 124.652C262.76 128.81 263.003 133.103 262.747 137.246C258.683 137.632 254.277 137.272 250.182 137.246Z"/>
	<path fill="#FEC061" transform="scale(0.195312 0.195312)" d="M250.182 137.246L250.171 101.554C250.172 95.8317 249.711 88.7296 250.319 83.1595C250.891 77.9171 262.122 72.5658 262.747 87.136C264.038 87.1024 265.33 87.126 266.622 87.136L262.747 87.136L262.747 124.652C262.76 128.81 263.003 133.103 262.747 137.246C258.683 137.632 254.277 137.272 250.182 137.246Z"/>
</svg>
