<?xml version="1.0" encoding="utf-8" ?>
<svg xmlns="http://www.w3.org/2000/svg" xmlns:xlink="http://www.w3.org/1999/xlink" width="100" height="100">
	<path fill="#5AE1C7" transform="scale(0.195312 0.195312)" d="M181.472 122.245L181.455 98.6989C181.455 81.7033 180.414 75.7959 201.06 75.7854L358.909 75.8C374.257 75.8006 389.699 75.4344 405.039 75.8104C423.165 76.2547 419.382 93.423 419.38 106.047L419.395 212.168C419.562 232.752 417.071 236.425 396.627 236.269L347.888 236.266C343.313 236.27 338.621 236.751 334.065 236.254C334.049 243.748 334.233 251.261 334.065 258.751C338.125 258.757 354.313 257.777 356.727 259.749C358.945 261.561 359.742 265.569 357.547 267.714C354.305 270.881 346.681 269.363 342.626 269.347L245.002 269.366C241.612 267.714 238.523 263.768 242.119 260.361C244.604 258.006 249.361 258.7 252.447 258.709L264.758 258.751L264.758 236.254L219.693 236.254C220.026 254.257 210.312 249.429 195.092 249.43L183.985 249.455C182.057 249.472 179.949 249.819 178.052 249.425C172.028 250.1 142.337 249.867 138.984 248.725C136.556 250.159 108.046 249.294 103.214 249.425C102.735 252.138 101.808 254.845 98.8108 255.567C91.3846 257.354 88.2355 234.003 98.2828 232.651C99.6915 210.791 98.2892 183.63 98.2871 161.17L98.2661 140.039C98.2499 124.001 95.7169 122.228 113.417 122.235L181.472 122.245ZM191.954 122.245C196.8 122.197 203.862 121.57 208.36 122.245C214.192 120.358 240.116 119.552 248.042 120.509C249.09 122.478 250.527 126.652 247.619 127.909C246.182 128.53 221.64 128.874 219.693 128.446C219.699 131.084 219.723 133.723 219.693 136.361L220.153 138.66C226.336 140.055 240.249 138.568 248.042 139.417C249.969 142.43 249.989 143.655 248.042 146.517L229.496 146.54C226.277 146.556 222.879 146.886 219.693 146.517L219.693 225.627L386.114 225.629C392.329 225.63 398.603 225.841 404.809 225.683C411.631 225.508 409.074 208.606 409.075 203.429L409.071 122.193C409.073 116.995 411.121 88.3021 406.532 86.8914C403.114 85.8405 391.356 86.4379 387.153 86.4379L191.954 86.4336L191.954 122.245ZM157.581 155.843C148.994 156.915 151.818 167.771 151.762 173.989C146.879 173.972 141.574 173.502 136.751 173.989C133.684 176.949 131.672 181.165 135.129 184.775C138.454 188.248 147.254 186.865 151.762 186.512C151.741 191.733 149.062 208.517 158.689 207.11C160.888 206.223 162.652 205.07 164.238 203.285C164.304 197.695 164.251 192.102 164.238 186.512C168.401 186.542 178.571 187.599 181.614 184.765C183.895 182.64 184.314 178.207 181.982 175.962C178.836 172.933 168.7 173.963 164.238 173.989C164.244 167.652 167.032 155.745 157.581 155.843ZM275.276 236.254L275.276 258.751L322.763 258.751L322.763 238.438C322.68 234.188 311.203 236.252 306.534 236.253L275.276 236.254Z"/>
	<path fill="#F9717A" transform="scale(0.195312 0.195312)" d="M296.488 99.1099C337.888 95.6979 345.763 161.066 301.772 166.66C261.299 171.259 251.584 103.616 296.488 99.1099ZM292.742 127.222C289.167 127.197 280.667 126.356 278.135 128.77C275.854 130.944 276.131 134.775 278.355 136.875C281.412 139.761 288.788 138.182 292.742 138.374C292.698 143.348 290.914 156.376 299.54 154.909C305.998 151.98 304.168 144.202 304.136 138.374C308.196 138.408 315.64 139.578 318.646 136.54C320.812 134.351 320.387 130.349 318.148 128.366C315.259 125.808 307.757 127.196 304.136 127.222C304.169 121.346 306.213 110.697 297.345 111.289C290.484 113.536 292.796 121.54 292.742 127.222Z"/>
	<path fill="#5AA3F9" transform="scale(0.195312 0.195312)" d="M245.002 197.008L295.61 197.004C302.807 197.004 319.12 195.667 325.315 197.954C329.687 202.337 328.31 208.773 322.062 209.584C317.345 209.815 312.516 209.591 307.784 209.59L257.363 209.587C251.336 209.587 239.615 211.87 239.279 203.756C239.084 199.03 240.197 197.13 245.002 197.008Z"/>
	<path fill="#5AA3F9" transform="scale(0.195312 0.195312)" d="M243.55 176.933L281.528 176.93C286.401 176.929 306.114 175.905 309.723 177.652C314.592 180.007 313.433 187.661 308.512 189.255C305.135 189.432 301.678 189.275 298.292 189.271L255.375 189.261C250.974 189.27 246.542 189.415 242.145 189.255L240.235 187.977C237.906 183.795 238.272 177.957 243.55 176.933Z"/>
	<path fill="#5AA3F9" transform="scale(0.195312 0.195312)" d="M328.134 176.933C330.736 176.753 333.446 176.922 336.06 176.923L371.037 176.926C374.119 176.926 383.184 176.05 385.771 177.739C389.833 180.391 388.798 188.712 382.646 189.255L346.985 189.265C342.768 189.269 327.758 190.518 324.552 188.122C320.806 185.321 320.799 177.724 328.134 176.933Z"/>
	<path fill="#5AA3F9" transform="scale(0.195312 0.195312)" d="M344.436 197.008C350.703 196.243 384.17 196.588 386.109 198.187C389.566 201.035 389.749 209.369 380.695 209.584L354.182 209.547C350.618 209.547 346.793 210.021 343.278 209.644C335.239 208.781 335.215 197.464 344.436 197.008Z"/>
	<path fill="#E5E9F3" transform="scale(0.195312 0.195312)" d="M350.71 139.417C359.267 138.862 376.153 138.805 384.497 139.553C392.098 140.234 390.823 146.807 385.754 147.483L360.25 147.48C356.825 147.483 353.111 147.899 349.723 147.655C342.941 147.166 344.604 140.047 350.71 139.417Z"/>
	<path fill="#E5E9F3" transform="scale(0.195312 0.195312)" d="M350.71 122.245C355.415 121.807 386.475 121.757 387.966 122.727C391.213 124.84 389.056 129.007 384.5 129.707C379.474 129.715 349.576 130.301 347.31 129.073C346.338 128.546 345.969 127.238 345.605 126.282C346.425 123.006 347.226 122.341 350.71 122.245Z"/>
	<path fill="#E5E9F3" transform="scale(0.195312 0.195312)" d="M208.36 122.245C214.192 120.358 240.116 119.552 248.042 120.509C249.09 122.478 250.527 126.652 247.619 127.909C246.182 128.53 221.64 128.874 219.693 128.446C219.482 123.957 215.465 121.385 211.213 121.906L208.36 122.245Z"/>
	<path fill="#E5E9F3" transform="scale(0.195312 0.195312)" d="M219.693 136.361L220.153 138.66C226.336 140.055 240.249 138.568 248.042 139.417C249.969 142.43 249.989 143.655 248.042 146.517L229.496 146.54C226.277 146.556 222.879 146.886 219.693 146.517C219.769 143.128 219.748 139.75 219.693 136.361Z"/>
	<path fill="#4F67B8" transform="scale(0.195312 0.195312)" d="M181.472 122.245L181.455 98.6989C181.455 81.7033 180.414 75.7959 201.06 75.7854L358.909 75.8C374.257 75.8006 389.699 75.4344 405.039 75.8104C423.165 76.2547 419.382 93.423 419.38 106.047L419.395 212.168C419.562 232.752 417.071 236.425 396.627 236.269L347.888 236.266C343.313 236.27 338.621 236.751 334.065 236.254C334.049 243.748 334.233 251.261 334.065 258.751C338.125 258.757 354.313 257.777 356.727 259.749C358.945 261.561 359.742 265.569 357.547 267.714C354.305 270.881 346.681 269.363 342.626 269.347L245.002 269.366C241.612 267.714 238.523 263.768 242.119 260.361C244.604 258.006 249.361 258.7 252.447 258.709L264.758 258.751L264.758 236.254L219.693 236.254C219.339 232.818 219.519 229.075 219.693 225.627L386.114 225.629C392.329 225.63 398.603 225.841 404.809 225.683C411.631 225.508 409.074 208.606 409.075 203.429L409.071 122.193C409.073 116.995 411.121 88.3021 406.532 86.8914C403.114 85.8405 391.356 86.4379 387.153 86.4379L191.954 86.4336L191.954 122.245C188.553 122.669 184.885 122.495 181.472 122.245ZM275.276 258.751L322.763 258.751L322.763 238.438C322.68 234.188 311.203 236.252 306.534 236.253L275.276 236.254L275.276 258.751Z"/>
	<path fill="#3C4B92" transform="scale(0.195312 0.195312)" d="M264.758 236.254C267.083 236.093 273.317 235.507 275.276 236.254L275.276 258.751L322.763 258.751L322.763 238.438C323.074 238.013 323.059 236.939 323.13 236.396C325.637 235.837 331.237 236.308 334.065 236.254C334.049 243.748 334.233 251.261 334.065 258.751C338.125 258.757 354.313 257.777 356.727 259.749C358.945 261.561 359.742 265.569 357.547 267.714C354.305 270.881 346.681 269.363 342.626 269.347L245.002 269.366C241.612 267.714 238.523 263.768 242.119 260.361C244.604 258.006 249.361 258.7 252.447 258.709L264.758 258.751L264.758 236.254Z"/>
	<path fill="#4F67B8" transform="scale(0.195312 0.195312)" d="M138.984 248.725C137.545 246.018 134.197 222.121 142.288 221.333C147.405 220.835 177.358 218.998 179.249 223.785C180.174 226.127 181.06 245.812 178.052 249.425C172.028 250.1 142.337 249.867 138.984 248.725Z"/>
	<path fill="#92CAF6" transform="scale(0.195312 0.195312)" d="M103.214 249.425C102.735 252.138 101.808 254.845 98.8108 255.567C91.3846 257.354 88.2355 234.003 98.2828 232.651C100.425 233.497 101.916 234.26 103.214 236.254C103.297 240.542 102.759 245.194 103.214 249.425Z"/>
	<path fill="#FECA51" transform="scale(0.195312 0.195312)" d="M138.984 362.543C149.984 361.897 162.92 361.55 171.655 369.128C183.049 379.407 181.479 389.938 181.481 403.66L181.472 431.246L165.832 431.246L155.15 431.246C149.767 431.487 144.268 431.255 138.875 431.253L106.23 431.246L95.6345 431.246C75.1676 431.264 78.4237 427.942 78.486 410.115C78.5359 395.855 75.9703 380.683 87.7288 369.966C97.3455 361.201 112.129 362.043 124.416 362.543C126.215 362.802 137.676 362.804 138.984 362.543Z"/>
	<path fill="#FFA046" transform="scale(0.195312 0.195312)" d="M155.15 431.246L155.118 415.441C155.1 412.069 154.078 406.988 156.815 404.362C158.942 402.322 162.418 402.241 164.36 404.574C166.758 407.457 165.856 413.052 165.851 416.495L165.832 431.246L155.15 431.246Z"/>
	<path fill="#FFA046" transform="scale(0.195312 0.195312)" d="M95.6345 431.246L95.6523 430.967C96.0204 424.535 91.6994 401.293 102.18 402.77C107.294 403.49 106.249 413.133 106.242 416.66L106.23 431.246L95.6345 431.246Z"/>
	<path fill="#F291AB" transform="scale(0.195312 0.195312)" d="M385.754 362.543C399.663 364.595 415.743 358.241 427.425 373.028C436.065 383.966 433.575 398.822 433.587 411.839C433.602 429.262 435.279 433.606 413.677 431.246C411.356 431.109 409.106 431.129 406.783 431.246L371.74 431.245C366.292 431.242 360.691 431.553 355.263 431.246L351.273 431.246C345.377 430.723 337.47 431.052 331.482 431.246L331.482 384.629C335.534 365.973 350.086 362.268 367.46 362.536C370.579 362.584 373.729 362.934 376.837 362.543C379.811 362.27 382.779 362.361 385.754 362.543Z"/>
	<path fill="#F9717A" transform="scale(0.195312 0.195312)" d="M406.783 431.246L406.761 416.506C406.753 412.929 405.604 402.205 411.717 402.741C414.349 402.972 416.064 404.585 417.259 406.771L417.259 431.246C416.077 431.222 414.853 431.129 413.677 431.246C411.356 431.109 409.106 431.129 406.783 431.246Z"/>
	<path fill="#F9717A" transform="scale(0.195312 0.195312)" d="M347.995 406.331C351.422 402.808 355.66 401.183 358.47 406.331L358.47 431.246C357.416 431.222 356.31 431.128 355.263 431.246L351.273 431.246C350.155 431.155 349.113 431.15 347.995 431.246L347.995 406.331Z"/>
	<path fill="#5AA3F9" transform="scale(0.195312 0.195312)" d="M277.003 362.543C280.005 362.492 284.698 362.006 287.53 362.543C289.514 363.271 291.869 362.565 293.929 362.526C313.758 362.15 326.264 363.408 331.482 384.629L331.482 431.246L317 431.246C313.648 431.246 310.295 431.14 306.944 431.246L258.99 431.246L249.006 431.246L232.711 431.246C232.293 425.499 232.697 418.615 232.698 412.704L232.704 397.742C232.714 385.944 233.087 375.86 243.55 368.051C255.6 357.894 269.181 365.07 277.003 362.543Z"/>
	<path fill="#4F67B8" transform="scale(0.195312 0.195312)" d="M249.006 431.246L248.978 414.844C248.973 410.824 247.677 402.166 254.245 402.549C260.333 402.904 259.019 411.496 259.014 415.546L258.99 431.246L249.006 431.246Z"/>
	<path fill="#4F67B8" transform="scale(0.195312 0.195312)" d="M306.944 431.246L306.923 415.488C306.918 411.564 305.636 402.282 312.111 402.623C318.274 402.948 317.036 412.125 317.031 416.158L317 431.246C313.648 431.246 310.295 431.14 306.944 431.246Z"/>
	<path fill="#F9717A" transform="scale(0.195312 0.195312)" d="M171.655 369.128C176.383 364.666 182.614 359.645 189.311 359.014C195.417 363.709 201.92 368.701 207.443 374.077C213.446 368.994 219.925 364.3 225.729 359.014C231.392 359.705 239.378 364.149 243.55 368.051C233.087 375.86 232.714 385.944 232.704 397.742L232.698 412.704C232.697 418.615 232.293 425.499 232.711 431.246L181.472 431.246L181.481 403.66C181.479 389.938 183.049 379.407 171.655 369.128Z"/>
	<path fill="#E5E9F3" transform="scale(0.195312 0.195312)" d="M179.753 329.691C180.224 328.773 180.272 317.851 180.885 314.968C182.518 307.289 192.875 293.003 201.534 294.886C201.317 304.235 211.695 306.62 212.237 294.886C215.663 294.129 220.461 296.848 223.274 298.645C231.549 303.933 234.608 313.31 234.757 322.632C234.785 324.387 234.234 328.21 234.737 329.691C241.868 330.016 242.22 337.512 234.737 338.276C233.468 339.903 233.684 342.631 232.711 344.492C231.407 349.92 228.821 354.423 225.729 359.014C219.925 364.3 213.446 368.994 207.443 374.077C201.92 368.701 195.417 363.709 189.311 359.014C185.15 352.563 183.451 347.92 181.472 340.574C180.98 339.419 181.221 338.321 179.753 338.276C175.525 336.635 175.738 331.256 179.753 329.691Z"/>
	<path fill="#92CAF6" transform="scale(0.195312 0.195312)" d="M181.472 340.574C182.946 341.168 185.704 346.792 187.042 348.408C197.532 361.074 215.759 360.959 227.215 350.137C228.368 349.047 231.53 344.789 232.711 344.492C231.407 349.92 228.821 354.423 225.729 359.014C219.925 364.3 213.446 368.994 207.443 374.077C201.92 368.701 195.417 363.709 189.311 359.014C185.15 352.563 183.451 347.92 181.472 340.574Z"/>
	<path fill="#92CAF6" transform="scale(0.195312 0.195312)" d="M234.737 329.691C241.868 330.016 242.22 337.512 234.737 338.276C234.786 335.376 235.05 332.593 234.737 329.691Z"/>
	<path fill="#92CAF6" transform="scale(0.195312 0.195312)" d="M179.753 338.276C175.525 336.635 175.738 331.256 179.753 329.691C180.107 331.585 181.759 337.088 179.753 338.276Z"/>
	<path fill="#FECEA6" transform="scale(0.195312 0.195312)" d="M110.737 352.623C96.3416 332.58 112.251 305.774 137.173 310.251C157.745 313.947 162.602 337.038 151.762 353.571C147.126 357.462 143.079 359.331 138.984 362.543C137.676 362.804 126.215 362.802 124.416 362.543C120.542 358.914 115.983 359.426 110.737 352.623Z"/>
	<path fill="#FFA046" transform="scale(0.195312 0.195312)" d="M110.737 352.623C116.876 351.863 149.957 352.416 151.762 353.571C147.126 357.462 143.079 359.331 138.984 362.543C137.676 362.804 126.215 362.802 124.416 362.543C120.542 358.914 115.983 359.426 110.737 352.623Z"/>
	<path fill="#5AA3F9" transform="scale(0.195312 0.195312)" d="M362.026 354.095C352.156 346.023 353.809 328.902 361.223 319.908C382.377 294.245 422.406 327.731 401.378 352.567C401.013 352.999 400.289 353.887 399.757 354.095C396.085 358.56 391.289 361.01 385.754 362.543C382.779 362.361 379.811 362.27 376.837 362.543C371.022 361.062 366.046 358.577 362.026 354.095Z"/>
	<path fill="#4F67B8" transform="scale(0.195312 0.195312)" d="M362.026 354.095C365.399 353.892 399.163 353.913 399.757 354.095C396.085 358.56 391.289 361.01 385.754 362.543C382.779 362.361 379.811 362.27 376.837 362.543C371.022 361.062 366.046 358.577 362.026 354.095Z"/>
	<path fill="#5AA3F9" transform="scale(0.195312 0.195312)" d="M263.026 353.571C253.331 342.671 255.09 326.063 265.756 316.583C283.163 301.113 309.373 316.948 307.761 338.902C307.476 342.78 304.974 352.43 300.951 354.095C297.421 358.273 292.639 360.721 287.53 362.543C284.698 362.006 280.005 362.492 277.003 362.543C271.57 360.926 266.573 358.013 263.026 353.571Z"/>
	<path fill="#4F67B8" transform="scale(0.195312 0.195312)" d="M263.026 353.571C267.793 353.196 299.152 353.131 300.951 354.095C297.421 358.273 292.639 360.721 287.53 362.543C284.698 362.006 280.005 362.492 277.003 362.543C271.57 360.926 266.573 358.013 263.026 353.571Z"/>
	<path fill="#F9717A" transform="scale(0.195312 0.195312)" d="M125.599 267.083C128.81 266.74 132.132 267.035 135.363 267.064L176.891 267.066C181.742 267.053 186.931 266.638 191.715 267.396C206.348 269.714 212.399 281.371 212.237 294.886C211.695 306.62 201.317 304.235 201.534 294.886C202.621 275.178 186.623 277.734 172.074 277.734L142.998 277.746C138.383 277.749 131.763 278.358 127.365 277.723C120.998 276.805 121.872 270.435 125.599 267.083Z"/>
	<path fill="#5AA3F9" transform="scale(0.195312 0.195312)" d="M95.6345 261.77C100.165 261.339 101.849 262.841 103.214 267.083C111.829 267.588 116.619 273.19 108.788 277.75C105.887 278.18 101.248 278.076 98.3277 277.615C91.7892 276.582 90.3104 265.107 95.6345 261.77Z"/>
</svg>
