<?xml version="1.0" encoding="utf-8" ?>
<svg xmlns="http://www.w3.org/2000/svg" xmlns:xlink="http://www.w3.org/1999/xlink" width="100" height="100">
	<path fill="#1D5BAC" transform="scale(0.195312 0.195312)" d="M326.113 107.74C326.418 105.721 329.308 92.6097 329.312 92.4951C325.254 88.468 329.352 88.09 333.977 91.8408C353.86 91.8063 352.428 88.173 354.863 108.526C360.578 110.188 366.293 112.155 370.859 116.106C374.266 112.643 378.584 107.904 383.341 106.585C387.597 107.978 397.996 117.643 399.575 120.814C402.074 125.833 393.8 131.814 390.964 135.066C393.165 140.263 395.957 145.601 396.618 151.248C414.446 151.143 414.534 149.921 414.444 168.218C414.381 181.043 408.406 178.309 396.618 178.288C394.476 185.26 392.621 190.202 388.64 196.377C390.888 197.801 397.987 204.294 398.622 206.74C399.457 209.955 387.969 220.271 385.209 223.457C387.667 227.404 389.485 225.963 392.661 223.457C394.463 240.675 399.048 264.826 391.791 280.751C402.882 291.102 414.204 301.213 425.204 311.661C441.184 326.839 436.479 320.237 436.475 344.682L436.473 414.407C436.482 425.392 437.375 437.118 422.24 437.495C412.039 437.75 401.771 437.498 391.564 437.499L296.448 437.516C277.88 437.517 267.435 440.425 267.428 417.862L267.442 408.739L107.769 408.745C93.4061 408.745 75.8024 410.979 75.7595 390.771L75.7873 237.967C75.7782 209.433 76.4684 206.226 103.5 206.224L130.616 206.239C134.214 205.646 136.177 191.531 139.251 185.964C125.583 186.233 111.858 185.967 98.1848 185.964C97.8674 188.23 97.3112 195.102 94.1419 195.207L93.6506 194.712C92.6788 191.754 93.9048 188.813 94.7475 185.964C84.9868 185.312 76.7892 188.094 75.991 175.428C75.4167 166.318 74.7918 141.064 76.2339 132.356C77.6359 123.89 89.1401 125.422 95.3924 125.419L114.376 125.423C136.889 125.433 159.437 125.695 181.946 125.427C202.492 108.402 265.488 102.039 286.096 113.689C297.134 103.459 297.12 101.065 309.121 114.872C314.281 111.093 320.078 109.56 326.113 107.74ZM352.774 221.906C352.867 243.356 355.862 238.687 331.471 238.645C331.747 240.12 331.867 242.229 333.144 243.193C335.72 243.948 353.86 244.345 355.732 243.104C358.729 241.118 357.629 230.315 357.749 226.947C363.942 224.454 369.665 221.365 375.733 218.67C374.152 217.245 372.542 215.898 370.859 214.595C365.268 218.007 359.129 220.38 352.774 221.906ZM285.172 184.408L283.404 179.244L269.753 179.244C270.209 188.352 276.007 183.798 285.172 184.408ZM94.7475 185.964C93.9048 188.813 92.6788 191.754 93.6506 194.712L94.1419 195.207C97.3112 195.102 97.8674 188.23 98.1848 185.964C111.858 185.967 125.583 186.233 139.251 185.964C141.807 185.695 144.589 185.931 147.171 185.939L216.385 185.959C222.514 185.96 233.69 186.562 239.298 185.64C246.501 184.457 244.735 175.093 244.732 169.844L244.712 151.248C241.692 146.565 223.62 128.92 219.466 125.427C208.286 125.782 193.081 126.075 181.946 125.427C159.437 125.695 136.889 125.433 114.376 125.423L95.3924 125.419C89.1401 125.422 77.6359 123.89 76.2339 132.356C74.7918 141.064 75.4167 166.318 75.991 175.428C76.7892 188.094 84.9868 185.312 94.7475 185.964ZM326.807 225.223C326.794 224.12 326.749 223.008 326.807 221.906C322.598 220.42 318.407 219.127 314.325 217.285C313.871 223.258 321.971 223.77 326.807 225.223ZM120.34 392.958L188.96 392.958C191.488 392.63 193.912 393.013 189.817 392.674L189.859 392.402C194.402 390.502 188.368 390.407 187.777 389.021C190.185 387.51 190.024 387.319 189.909 384.615C188.4 386.579 142.296 386.615 137.939 385.654C137.225 385.188 137.096 384.539 136.838 383.774L136.342 383.875C135.321 384.888 132.776 388.874 133.528 390.394L134.034 390.42C134.848 390.47 135.674 390.529 136.235 391.178L136.143 391.618C133.352 393.924 128.115 394.07 127.244 388.454L127.2 388.151L126.786 388.15L127.076 388.206L127.152 387.968C126.924 387.307 126.562 386.727 126.214 386.124L125.771 386.452C125.711 385.078 125.621 383.73 125.458 382.363L124.975 381.984C123.331 381.776 123.125 381.338 123.201 379.67L123.215 379.419C119.769 379.425 116.823 378.532 113.167 378.671L113.818 378.55L113.111 378.634C113.662 378.247 114.069 377.85 114.474 377.322C129.37 369.171 131.871 369.941 147.558 369.634C161.107 369.37 172.915 369.43 186.586 369.678C202.119 369.96 219.505 368.953 235.41 368.852C232.798 367.796 230.126 368.435 227.4 368.419L211.509 368.253C195.126 368.23 177.549 366.875 161.58 367.692C157.436 367.905 139.437 369.457 136.838 367.619C130.533 366.863 100.743 368.657 97.5621 366.783C95.0082 362.812 103.459 363.832 105.022 363.855C120.966 364.087 136.916 363.556 152.86 363.869L153.094 363.567C157.588 362.383 169.796 363.349 175.149 363.369L211.58 363.246C218.96 363.224 226.325 363.458 233.704 363.132L188.345 362.606C181.203 362.472 173.957 361.656 166.816 362.194C163.424 362.45 157.837 364.264 154.799 361.796L154.907 361.594L154.935 361.83C158.363 357.129 189.251 352.893 192.093 349.132C185.248 348.713 177.153 349.13 170.166 349.13L121.18 349.127C117.324 349.127 97.5823 350.828 96.7863 347.645C97.8 344.644 103.417 345.529 105.797 345.53L188.459 345.53C193.325 345.528 198.348 345.046 203.187 345.523C204.313 342.282 209.45 340.907 212.215 339.425C220.573 334.944 221.496 332.39 230.684 331.537C228.184 331.317 225.83 331.279 223.354 330.757L111.696 330.716C108.765 330.718 100.597 331.702 98.1594 330.41C96.7417 329.658 96.9421 328.055 98.3558 327.573C100.687 326.777 128.245 327.258 132.559 327.258L230.127 327.253C230.616 327.203 231.045 327.229 231.536 327.253C232.175 325.329 233.845 324.511 235.609 323.785C237.398 320.955 240.613 318.924 243.041 316.635C249.216 310.816 253.639 304.432 256.879 296.669C264.296 278.904 269.459 241.719 264.728 221.906C263.93 218.856 264.229 212.997 264.728 209.861L107.602 209.864C97.7715 209.854 81.0512 206.928 79.5683 221.088C78.7831 228.585 79.2479 236.519 79.2481 244.061L79.253 357.902C79.2523 369.782 78.579 381.873 79.2522 393.727C88.6626 391.654 110.153 392.955 120.34 392.958ZM111.56 382.012C114.291 382.053 122.871 381.196 124.691 382.713C130.698 387.722 106.061 385.413 101.995 385.85C100.087 385.75 95.2527 386.44 97.6658 382.613C99.1302 381.628 109.143 382.031 111.56 382.012ZM351.34 111.874C351.551 113.958 351.072 118.866 352.774 119.469C360.189 119.281 367.431 124.154 372.743 128.871C376.996 124.622 382.363 120.99 385.873 116.106C386.742 115.55 387.678 115.23 388.64 114.872L383.341 109.934C379.312 113.601 374.995 116.961 370.859 120.511C365.088 116.262 358.541 112.751 351.34 111.874ZM296.98 277.2C296.818 275.583 296.928 273.895 296.98 272.273L296.644 272.243C296.319 273.057 293.002 275.799 291.764 277.2C293.492 277.128 295.25 277.197 296.98 277.2ZM329.857 110.752C322.622 112.376 314.822 114.507 309.121 119.469C311.351 121.179 312.26 123.703 314.325 125.427C315.81 123.592 317.845 122.357 319.947 121.344C324.55 118.822 331.004 117.806 336.15 116.941L336.15 102.654C340.743 102.686 345.42 102.401 349.999 102.654C350.196 100.218 350.088 97.7921 349.999 95.3534C343.827 95.3206 337.642 95.2537 331.471 95.3534C330.497 100.313 329.962 105.695 329.857 110.752ZM278.122 433.918C278.78 431.258 278.207 427.283 278.122 424.497L278.121 347.769C278.121 335.18 277.791 322.495 278.117 309.915C278.263 304.278 283.307 303.264 288.018 303.521C288.175 301.154 288.223 298.833 288.018 296.467C270.892 296.251 270.978 299.646 270.973 315.954L270.973 412.559C270.97 421.232 269.382 428.911 278.122 433.918ZM388.64 320.216L429.026 320.216C426.813 317.693 424.058 315.551 421.57 313.291L407.872 300.742C403.799 296.966 392.755 285.101 388.64 282.648C388.258 295.125 388.643 307.726 388.64 320.216ZM313.479 211.866C318.732 215.298 324.287 217.478 330.439 218.67L330.439 235.034L336.15 235.034C335.388 229.014 337.484 216.4 336.328 212.198L335.16 211.866C328.632 211.762 322.173 208.595 316.237 206.239C315.483 208.118 314.603 210.187 313.479 211.866ZM288.018 288.231C286.776 289.784 285.949 291.312 285.172 293.128L288.018 293.128C287.755 291.572 287.962 289.811 288.018 288.231ZM396.618 155.354C397.272 157.53 397.525 159.714 397.792 161.962C401.728 161.942 406.947 161.499 410.712 161.962C410.664 159.916 410.879 157.352 410.225 155.406C409.491 154.945 398.012 155.085 396.618 155.354ZM289.895 125.427C294.461 121.688 297.892 116.612 303.099 113.689C300.99 112.031 298.908 110.397 296.98 108.526C293.077 112.095 288.059 116.037 285.172 120.511C286.588 122.482 287.964 123.957 289.895 125.427ZM291.764 280.751L291.756 390.669C291.757 394.656 290.743 406.49 292.583 409.887C296.028 412.114 317.588 411.007 322.428 411.007L397.639 410.996C402.527 410.998 407.638 411.353 412.493 410.998L412.514 333.025C412.523 329.991 412.756 326.799 412.493 323.785C408.124 323.751 388.228 324.368 385.688 323.375C384.167 321.481 385.201 311.417 385.204 308.795L385.209 280.751L291.764 280.751ZM140.053 382.012L172.027 382.001C175.795 382.01 182.608 382.46 185.877 382.012C186.352 381.953 186.814 381.878 187.283 381.782L185.961 381.864L185.678 381.6L186.39 380.594L186.249 380.138C182.916 378.157 159.093 379.203 154.449 379.213C152.247 379.217 137.657 377.53 138.915 381.548L140.053 382.012Z"/>
	<defs>
		<linearGradient id="gradient_0" gradientUnits="userSpaceOnUse" x1="173.92432" y1="206.57986" x2="141.27289" y2="106.98228">
			<stop offset="0" stop-color="#124BA9"/>
			<stop offset="1" stop-color="#2A65B3"/>
		</linearGradient>
	</defs>
	<path fill="url(#gradient_0)" transform="scale(0.195312 0.195312)" d="M181.946 125.427C193.081 126.075 208.286 125.782 219.466 125.427C223.62 128.92 241.692 146.565 244.712 151.248L244.732 169.844C244.735 175.093 246.501 184.457 239.298 185.64C233.69 186.562 222.514 185.96 216.385 185.959L147.171 185.939C144.589 185.931 141.807 185.695 139.251 185.964C125.583 186.233 111.858 185.967 98.1848 185.964C97.8674 188.23 97.3112 195.102 94.1419 195.207L93.6506 194.712C92.6788 191.754 93.9048 188.813 94.7475 185.964C84.9868 185.312 76.7892 188.094 75.991 175.428C75.4167 166.318 74.7918 141.064 76.2339 132.356C77.6359 123.89 89.1401 125.422 95.3924 125.419L114.376 125.423C136.889 125.433 159.437 125.695 181.946 125.427ZM241.234 153.794C235.472 153.603 222.322 154.824 217.794 152.745C215.38 147.874 216.6 134.82 216.459 128.871L90.2641 128.871C87.2814 128.855 82.9233 128.322 80.7162 130.768C78.3652 133.373 79.0858 171.783 79.6777 177.017C80.1451 181.151 81.6678 182.048 85.7141 182.257L186.37 182.263C193.178 182.263 237.721 182.803 240.275 181.748C242.079 178.831 241.249 173.391 241.244 170.144L241.234 153.794ZM238.834 150.031C236.142 147.171 223.042 132.826 220.015 132.084L219.988 142.123C219.964 144.822 218.987 149.462 222.707 150.055C226.055 150.589 235.113 150.129 238.834 150.031Z"/>
	<path fill="#FEA17D" transform="scale(0.195312 0.195312)" d="M90.2641 128.871L216.459 128.871C216.6 134.82 215.38 147.874 217.794 152.745C222.322 154.824 235.472 153.603 241.234 153.794L241.244 170.144C241.249 173.391 242.079 178.831 240.275 181.748C237.721 182.803 193.178 182.263 186.37 182.263L85.7141 182.257L85.7141 169.811L85.6976 146.62C85.6938 138.827 83.3519 133.252 90.2641 128.871ZM143.51 157.729C147.222 157.052 147.915 154.709 147.715 151.248C146.548 149.145 145.311 147.682 142.759 147.778C135.942 149.291 136.834 157.545 143.51 157.729ZM117.216 157.729C123.214 155.273 121.157 147.204 114.474 147.778C108.5 150.8 109.895 158.381 117.216 157.729ZM124.773 151.248C124.571 155.508 125.942 158.088 130.616 157.729C135.871 154.734 135.126 147.658 128.277 147.778C126.45 148.59 125.718 149.523 124.773 151.248Z"/>
	<path fill="#FC8A5C" transform="scale(0.195312 0.195312)" d="M217.794 152.745C222.322 154.824 235.472 153.603 241.234 153.794L241.244 170.144C241.249 173.391 242.079 178.831 240.275 181.748C237.721 182.803 193.178 182.263 186.37 182.263L85.7141 182.257L85.7141 169.811L198.546 169.819C216.224 169.818 218.002 172.657 217.794 152.745Z"/>
	<path fill="#FEFEFE" transform="scale(0.195312 0.195312)" d="M100.936 147.778C104.415 147.928 106.117 149.572 107.508 152.745C106.695 154.977 105.678 156.301 103.779 157.729C97.0767 159.147 95.6387 150.471 100.936 147.778Z"/>
	<path fill="#6FD3F8" transform="scale(0.195312 0.195312)" d="M181.946 125.427C202.492 108.402 265.488 102.039 286.096 113.689C277.169 122.413 283.984 125.339 291.764 132.776C287.955 138.838 284.44 144.586 283.404 151.8C279.762 151.789 268.563 151.073 266.038 152.658C263.625 156.317 264.209 172.739 264.918 176.57C265.353 178.919 267.768 179.255 269.753 179.244C270.209 188.352 276.007 183.798 285.172 184.408C287.41 188.893 290.036 192.899 292.92 196.99C290.105 200.066 287.361 203.632 284.11 206.239L147.711 206.236C142.026 206.236 136.296 206.08 130.616 206.239C134.214 205.646 136.177 191.531 139.251 185.964C141.807 185.695 144.589 185.931 147.171 185.939L216.385 185.959C222.514 185.96 233.69 186.562 239.298 185.64C246.501 184.457 244.735 175.093 244.732 169.844L244.712 151.248C241.692 146.565 223.62 128.92 219.466 125.427C208.286 125.782 193.081 126.075 181.946 125.427Z"/>
	<path fill="#6FD3F8" transform="scale(0.195312 0.195312)" d="M300.262 226.947C304.998 225.924 311.718 215.945 314.325 217.285C313.871 223.258 321.971 223.77 326.807 225.223C326.794 224.12 326.749 223.008 326.807 221.906C326.74 227.621 324.081 239.047 331.217 238.661L331.471 238.645C331.747 240.12 331.867 242.229 333.144 243.193C335.72 243.948 353.86 244.345 355.732 243.104C358.729 241.118 357.629 230.315 357.749 226.947C363.942 224.454 369.665 221.365 375.733 218.67C379.047 220.579 380.782 224.435 385.209 223.457C387.667 227.404 389.485 225.963 392.661 223.457C394.463 240.675 399.048 264.826 391.791 280.751C390.802 279.477 389.794 278.326 388.64 277.2C378.905 276.952 369.104 277.201 359.36 277.201L300.262 277.2L300.262 226.947Z"/>
	<path fill="#4D8EDB" transform="scale(0.195312 0.195312)" d="M179.85 231.747L194.498 231.747L194.498 287.433L183.756 287.433L183.756 255.875C183.751 253.066 183.848 250.264 183.756 247.454C179.494 260.431 175.178 274.323 171.232 287.433C168.17 287.298 165.129 287.36 162.066 287.433C159.252 273.719 153.383 259.248 150.032 245.138C149.71 249.799 150.018 254.567 150.024 259.243L150.032 287.433L139.251 287.433L139.251 231.747L155.044 231.747C158.632 245.376 163.357 258.714 167.204 272.273C170.662 258.645 175.342 245.051 179.85 231.747Z"/>
	<path fill="#4D8EDB" transform="scale(0.195312 0.195312)" d="M220.764 231.747C232.004 228.952 241.527 236.05 243.044 247.454L232.485 247.454C225.745 231.356 206.243 244.655 216.998 250.93C223.534 254.743 231.718 253.452 239.286 260.974C251.265 272.881 238.21 288.366 221.626 288.231C211.014 287.659 201.615 282.094 200.365 270.766L211.43 270.766C213.856 281.858 233.141 281.604 232.662 271.348C232.3 263.575 213.893 263.118 206.4 255.752C196.347 245.87 206.356 231.614 220.764 231.747Z"/>
	<path fill="#4D8EDB" transform="scale(0.195312 0.195312)" d="M98.1848 231.747L109.372 231.747L109.372 277.2C112.204 277.775 115.691 277.256 118.618 277.225L134.386 277.2C134.475 280.603 134.39 284.028 134.386 287.433C131.464 287.951 127.287 287.454 124.207 287.449L98.1848 287.433L98.1848 231.747Z"/>
	<path fill="#1D5BAC" transform="scale(0.195312 0.195312)" d="M99.8717 309.472L171.42 309.473C175.074 309.471 193.446 309.015 195.696 309.672C198.658 310.537 196.277 312.67 194.498 312.99C185.841 312.99 100.025 313.407 98.3132 312.699C96.3712 311.895 97.622 309.659 99.8717 309.472Z"/>
	<path fill="#1D5BAC" transform="scale(0.195312 0.195312)" d="M235.609 309.472C236.893 309.336 237.903 309.519 238.522 310.705C238.527 314.549 232.046 313.004 229.721 312.997L211.43 312.99C208.964 313.066 207.612 311.315 209.095 310.144C210.617 308.943 232.292 309.474 235.609 309.472Z"/>
	<path fill="#1D5BAC" transform="scale(0.195312 0.195312)" d="M333.977 312.99C335.981 313.267 340.562 313.07 342.081 314.011C344.766 315.674 342.476 322.295 346.841 321.619C347.236 321.557 350.693 318.053 352.166 317.247C367.501 324.431 356.249 325.563 358.603 329.011C361.077 332.635 366.374 323.246 370.831 334.724C372.541 339.127 365.474 340.691 367.384 344.322C368.88 347.167 373.367 343.643 375.047 347.036C375.96 348.879 376.224 355.047 375.507 356.981C374.246 360.378 368.879 357.583 367.728 361.578C366.54 365.696 370.227 364.798 371.403 367.397C372.604 370.051 368.464 375.923 366.327 376.901C364.979 377.518 362.295 375.676 360.933 375.147C354.959 377.643 360.388 379.781 360.244 383.644C359.573 385.289 352.891 388.511 351.871 388.138C350.047 387.471 348.493 383.706 347.583 382.012C346.295 382.644 344.989 383.212 343.669 383.774C343.795 385.757 343.936 387.681 343.669 389.661C341.744 391.949 332.89 391.419 330.692 390.234C329.613 388.626 330.304 385.238 330.439 383.352C329.235 382.809 328.073 382.387 326.807 382.012C325.242 384.07 323.974 386.326 322.012 388.048C315.509 385.083 312.866 384.735 315.481 377.322L313.479 375.147C304.866 376.591 305.425 375.509 301.921 367.619C303.217 365.989 304.851 364.706 306.44 363.377C305.877 361.858 305.476 360.386 305.268 358.779C297.08 358.664 298.556 348.995 299.982 347.392C301.27 345.945 303.467 345.767 305.268 345.523L306.44 341.625C305.214 340.408 302.712 338.351 303.066 336.395C304.492 328.507 307.686 328.483 313.479 330.757C318.956 326.054 308.837 320.822 322.283 317.301C324.318 317.774 325.517 319.843 326.807 321.362L329.857 321.362C330.713 317.797 329.878 314.581 333.977 312.99ZM325.445 378.304C323.569 377.438 321.871 375.699 319.947 375.147C319.542 377.331 318.398 379.279 317.722 381.377C318.85 382.053 319.968 382.752 321.139 383.352C322.469 381.533 323.727 379.781 325.445 378.304ZM308.393 371.981C310.439 371.416 312.182 371.137 314.325 371.19C312.08 369.396 309.651 369.91 310.133 363.869C309.165 365.773 308.114 366.938 306.44 368.25C307.007 369.568 307.637 370.762 308.393 371.981ZM336.15 325.88L336.592 325.787C337.167 324.708 336.734 321.569 336.75 320.216C336.662 319.211 336.689 318.253 336.75 317.247C332.024 317.273 335.236 321.069 332.967 323.785C334.072 324.205 335.45 323.329 336.214 324.528C336.565 325.079 336.493 325.72 335.717 325.68L335.375 326.051L335.563 325.678L335.317 325.791L336.15 325.88ZM368.431 349.132C369.604 349.995 370.761 350.827 372.065 351.49C372.091 348.609 370.975 348.984 368.431 349.132ZM309.121 333.032C308.27 334.18 307.631 335.223 307.08 336.554C307.732 337.272 308.37 338.072 309.121 338.685C309.551 338.404 312.014 335.609 313.479 334.511C311.968 334.127 310.514 333.758 309.121 333.032ZM333.977 380.266L333.977 385.85C334.883 386.325 335.742 386.834 336.75 387.055C336.966 385.364 336.844 383.707 336.75 382.012C336.705 379.871 335.852 380.202 333.977 380.266ZM319.947 328.122C320.134 327.458 319.947 326.919 319.793 326.268L319.718 325.956C320.913 324.03 324.295 326.427 326.113 325.88C324.651 324.451 323.337 322.914 322.012 321.362C318.302 323.069 318.095 324.461 319.947 328.122Z"/>
	<path fill="#F98BA5" transform="scale(0.195312 0.195312)" d="M336.75 317.247C339.547 317.131 339.645 317.546 340.05 320.216C340.513 321.498 341.211 322.622 341.908 323.785C344.214 324.884 346.482 325.381 348.977 325.88C349.998 324.385 350.896 322.652 352.166 321.362C353.54 322.096 354.806 322.891 356.081 323.785C355.371 325.822 354.594 327.859 354.055 329.949C355.713 331.396 357.575 333.452 359.475 334.511C361.253 333.966 363.047 333.338 364.883 333.032C365.898 334.172 366.842 335.289 367.699 336.554C366.761 337.258 365.786 337.938 364.883 338.685C364.009 339.648 363.096 340.593 362.303 341.625C363.214 343.751 364.099 345.98 364.361 348.297C365.697 348.786 367.187 348.637 368.431 349.132C369.604 349.995 370.761 350.827 372.065 351.49C372.064 352.794 372.04 354.103 372.065 355.407C369.914 355.736 367.764 356.076 365.607 356.354C364.562 359.056 363.806 361.729 363.268 364.575C364.568 366.365 365.879 367.619 367.699 368.877C366.905 370.47 366.034 371.821 364.883 373.189C363.097 372.761 361.291 372.252 359.475 371.981C353.758 376.324 353.035 376.764 356.081 383.352L352.774 383.774C351.58 381.879 350.402 380.04 348.977 378.304L346.405 379.127C344.378 379.626 342.131 380.074 340.05 380.266C339.476 382.05 340.117 385.105 340.05 387.055L336.75 387.055C336.966 385.364 336.844 383.707 336.75 382.012C336.705 379.871 335.852 380.202 333.977 380.266C331.28 379.865 327.986 378.338 325.445 378.304C323.569 377.438 321.871 375.699 319.947 375.147C318.343 374.396 316.7 372.48 315.481 371.19L314.325 371.19C312.08 369.396 309.651 369.91 310.133 363.869C309.51 361.329 308.716 358.97 308.393 356.354C306.653 355.468 305.015 354.966 303.099 354.651L303.099 350.161C309.418 348.78 309.195 346.207 311.373 340.498C310.731 339.748 309.927 339.24 309.121 338.685C309.551 338.404 312.014 335.609 313.479 334.511C315.678 334.541 319.844 330.032 319.947 328.122C320.134 327.458 319.947 326.919 319.793 326.268L319.718 325.956C320.913 324.03 324.295 326.427 326.113 325.88C328.368 325.753 330.538 323.925 332.967 323.785C334.072 324.205 335.45 323.329 336.214 324.528C336.565 325.079 336.493 325.72 335.717 325.68L335.375 326.051L335.563 325.678L335.317 325.791L336.15 325.88L336.592 325.787C337.167 324.708 336.734 321.569 336.75 320.216C336.662 319.211 336.689 318.253 336.75 317.247Z"/>
	<path fill="#FDB8CE" transform="scale(0.195312 0.195312)" d="M326.113 325.88C328.368 325.753 330.538 323.925 332.967 323.785C334.072 324.205 335.45 323.329 336.214 324.528C336.565 325.079 336.493 325.72 335.717 325.68L335.375 326.051L335.563 325.678L335.317 325.791L336.15 325.88C331.66 327.68 329.97 326.952 325.21 329.877C312.578 337.64 309.678 350.625 313.89 364.468C314.492 366.449 315.649 369.137 315.481 371.19L314.325 371.19C312.08 369.396 309.651 369.91 310.133 363.869C309.51 361.329 308.716 358.97 308.393 356.354C306.653 355.468 305.015 354.966 303.099 354.651L303.099 350.161C309.418 348.78 309.195 346.207 311.373 340.498C310.731 339.748 309.927 339.24 309.121 338.685C309.551 338.404 312.014 335.609 313.479 334.511C315.678 334.541 319.844 330.032 319.947 328.122C320.134 327.458 319.947 326.919 319.793 326.268L319.718 325.956C320.913 324.03 324.295 326.427 326.113 325.88Z"/>
	<path fill="#FF728B" transform="scale(0.195312 0.195312)" d="M364.361 348.297C365.697 348.786 367.187 348.637 368.431 349.132C369.604 349.995 370.761 350.827 372.065 351.49C372.064 352.794 372.04 354.103 372.065 355.407C369.914 355.736 367.764 356.076 365.607 356.354C364.562 359.056 363.806 361.729 363.268 364.575C364.568 366.365 365.879 367.619 367.699 368.877C366.905 370.47 366.034 371.821 364.883 373.189C363.097 372.761 361.291 372.252 359.475 371.981C353.758 376.324 353.035 376.764 356.081 383.352L352.774 383.774C351.58 381.879 350.402 380.04 348.977 378.304L346.405 379.127L346.387 378.938C348.937 374.85 352.707 382.337 352.854 382.423C354.704 380.991 353.436 378.804 353.566 377.01C359.026 366.71 363.875 376.909 366.86 369.411C365.86 365.902 361.306 367.637 363.719 360.029C365.645 353.96 373.692 355.078 369.838 350.719C368.222 348.891 366.152 349.705 364.363 348.785L364.361 348.297Z"/>
	<path fill="#FF728B" transform="scale(0.195312 0.195312)" d="M359.475 334.511C361.253 333.966 363.047 333.338 364.883 333.032C365.898 334.172 366.842 335.289 367.699 336.554C366.761 337.258 365.786 337.938 364.883 338.685C363.214 337.141 361.199 336.004 359.475 334.511Z"/>
	<path fill="#1D5BAC" transform="scale(0.195312 0.195312)" d="M335.16 369.627C313.828 367.362 316.783 335.545 338.01 334.964C344.771 334.779 347.539 337.276 352.166 341.625C364.296 344.441 359.699 378.705 338.034 372.642C336.969 372.344 334.21 371.06 335.16 369.627Z"/>
	<path fill="#FDB8CE" transform="scale(0.195312 0.195312)" d="M352.166 341.625C364.296 344.441 359.699 378.705 338.034 372.642C336.969 372.344 334.21 371.06 335.16 369.627C351.758 371.6 359.174 355.902 352.166 341.625Z"/>
	<path fill="#F98BA5" transform="scale(0.195312 0.195312)" d="M328.867 362.623C318.06 354.82 325.583 336.875 341.908 338.685C360.468 345.221 349.63 372.273 332.07 365.121C330.926 364.655 329.344 363.844 328.867 362.623Z"/>
	<path fill="#FDB8CE" transform="scale(0.195312 0.195312)" d="M328.867 362.623C318.06 354.82 325.583 336.875 341.908 338.685C342.288 339.133 342.613 339.449 343.168 339.691L343.334 340.082L342.982 339.534L342.93 340.455C337.53 342.482 332.464 341.781 329.447 348.104C326.006 355.315 329.43 360.749 328.867 362.623Z"/>
	<path fill="#FEAC1D" transform="scale(0.195312 0.195312)" d="M336.15 102.654C340.743 102.686 345.42 102.401 349.999 102.654C350.481 105.723 350.927 108.794 351.34 111.874C351.551 113.958 351.072 118.866 352.774 119.469C360.189 119.281 367.431 124.154 372.743 128.871C376.996 124.622 382.363 120.99 385.873 116.106C386.742 115.55 387.678 115.23 388.64 114.872C391.049 117.676 393.918 120.147 396.618 122.671C396.321 123.398 396.068 124.145 395.594 124.779C392.227 127.842 388.565 131.388 385.873 135.066C391.299 141.254 392.159 153.102 396.618 155.354C397.272 157.53 397.525 159.714 397.792 161.962C401.728 161.942 406.947 161.499 410.712 161.962C410.865 178.709 411.111 174.715 393.466 174.762C391.39 183.458 388.861 188.782 384.224 196.377C387.782 200.054 391.51 203.674 394.832 207.567C392.143 211.699 387.957 214.542 385.209 218.67L383.341 220.536C379.848 217.296 376.394 213.984 372.743 210.924C369.502 209.216 368.302 211.691 365.509 213.314C360.507 216.221 354.686 217.912 348.977 218.67L348.977 235.034L336.15 235.034C335.388 229.014 337.484 216.4 336.328 212.198L335.16 211.866C328.632 211.762 322.173 208.595 316.237 206.239C315.483 208.118 314.603 210.187 313.479 211.866C310.571 214.949 307.136 217.464 304.241 220.536C303.006 221.601 301.592 222.512 300.262 223.457C295.774 220.656 289.544 213.603 286.096 209.349C290.106 205.238 293.803 200.506 298.349 196.99C292.724 191.665 289.472 185.539 287.016 178.288L286.096 175.745L275.042 175.745C272.776 175.685 270.502 175.733 268.235 175.745C268.118 168.954 268.222 162.147 268.235 155.354C272.67 155.34 280.044 155.887 284.069 155.363C287.116 154.966 286.954 150.508 287.82 148.128C290.011 142.105 293.058 137.103 296.98 132.084C294.156 130.656 291.899 127.795 289.895 125.427C294.461 121.688 297.892 116.612 303.099 113.689C304.864 115.648 306.985 117.917 309.121 119.469C311.351 121.179 312.26 123.703 314.325 125.427C315.81 123.592 317.845 122.357 319.947 121.344C324.55 118.822 331.004 117.806 336.15 116.941L336.15 102.654Z"/>
	<path fill="#FEC134" transform="scale(0.195312 0.195312)" d="M336.15 102.654C340.743 102.686 345.42 102.401 349.999 102.654C350.481 105.723 350.927 108.794 351.34 111.874C351.551 113.958 351.072 118.866 352.774 119.469C360.189 119.281 367.431 124.154 372.743 128.871C376.996 124.622 382.363 120.99 385.873 116.106C386.742 115.55 387.678 115.23 388.64 114.872C391.049 117.676 393.918 120.147 396.618 122.671C396.321 123.398 396.068 124.145 395.594 124.779C392.227 127.842 388.565 131.388 385.873 135.066C391.299 141.254 392.159 153.102 396.618 155.354C397.272 157.53 397.525 159.714 397.792 161.962C401.728 161.942 406.947 161.499 410.712 161.962C410.865 178.709 411.111 174.715 393.466 174.762C391.39 183.458 388.861 188.782 384.224 196.377C387.782 200.054 391.51 203.674 394.832 207.567C392.143 211.699 387.957 214.542 385.209 218.67L383.341 220.536C379.848 217.296 376.394 213.984 372.743 210.924C369.502 209.216 368.302 211.691 365.509 213.314C360.507 216.221 354.686 217.912 348.977 218.67L348.977 235.034L336.15 235.034C335.388 229.014 337.484 216.4 336.328 212.198L335.16 211.866C384.329 214.834 406.576 146.571 360.616 123.21C357.876 121.817 353.614 121.419 351.34 119.469C344.226 119.074 337.202 117.919 330.104 119.36C326.613 120.068 323.4 121.584 319.835 122.102L319.824 121.979L320.175 121.653L319.947 121.344C324.55 118.822 331.004 117.806 336.15 116.941L336.15 102.654Z"/>
	<path fill="#FEFEFE" transform="scale(0.195312 0.195312)" d="M372.743 210.924C373.827 210.716 374.738 210.32 375.733 209.861C378.889 212.755 381.843 216.04 385.209 218.67L383.341 220.536C379.848 217.296 376.394 213.984 372.743 210.924Z"/>
	<path fill="#FEFEFE" transform="scale(0.195312 0.195312)" d="M296.98 132.084C298.661 132.073 301.507 134.305 303.099 135.066C301.712 137.619 299.768 139.79 298.349 142.307C294.99 147.645 293.028 153.552 292.92 159.882C292.598 165.865 293.319 172.487 294.723 178.288L287.016 178.288L286.096 175.745L275.042 175.745C272.776 175.685 270.502 175.733 268.235 175.745C268.118 168.954 268.222 162.147 268.235 155.354C272.67 155.34 280.044 155.887 284.069 155.363C287.116 154.966 286.954 150.508 287.82 148.128C290.011 142.105 293.058 137.103 296.98 132.084Z"/>
	<path fill="#FEC134" transform="scale(0.195312 0.195312)" d="M275.042 161.962C279.82 161.952 291.966 164.169 292.92 159.882C292.598 165.865 293.319 172.487 294.723 178.288L287.016 178.288L286.096 175.745L275.042 175.745L275.042 161.962Z"/>
	<path fill="#FEFEFE" transform="scale(0.195312 0.195312)" d="M287.016 178.288L294.723 178.288C296.497 185.295 300.663 193.29 306.44 197.805C309.404 201.074 313.105 203.216 316.237 206.239C315.483 208.118 314.603 210.187 313.479 211.866C310.571 214.949 307.136 217.464 304.241 220.536C303.006 221.601 301.592 222.512 300.262 223.457C295.774 220.656 289.544 213.603 286.096 209.349C290.106 205.238 293.803 200.506 298.349 196.99C292.724 191.665 289.472 185.539 287.016 178.288Z"/>
	<path fill="#FEC134" transform="scale(0.195312 0.195312)" d="M294.723 210.924C296.778 206.467 302.674 201.003 306.44 197.805C309.404 201.074 313.105 203.216 316.237 206.239C315.483 208.118 314.603 210.187 313.479 211.866C310.571 214.949 307.136 217.464 304.241 220.536C300.788 217.751 297.254 214.592 294.723 210.924Z"/>
	<path fill="#FEC134" transform="scale(0.195312 0.195312)" d="M303.099 113.689C304.864 115.648 306.985 117.917 309.121 119.469C311.351 121.179 312.26 123.703 314.325 125.427C312.127 128.337 303.388 137.99 300.974 140.104L301.055 139.93C300.171 140.717 299.3 141.61 298.349 142.307C299.768 139.79 301.712 137.619 303.099 135.066C301.507 134.305 298.661 132.073 296.98 132.084C294.156 130.656 291.899 127.795 289.895 125.427C294.461 121.688 297.892 116.612 303.099 113.689Z"/>
	<path fill="#1D5BAC" transform="scale(0.195312 0.195312)" d="M337.81 128.871C357.715 126.514 374.941 143.629 376.536 162.743C378.128 181.831 362.675 199.321 343.669 200.73C325.076 202.556 306.253 188.421 304.267 169.48C302.04 148.243 316.709 130.971 337.81 128.871Z"/>
	<path fill="#1D5BAC" transform="scale(0.195312 0.195312)" d="M333.977 132.776C345.234 132.11 353.57 133.219 362.328 141.062C375.226 152.613 376.54 173.468 364.847 186.331C356.3 195.734 345.864 197.374 333.977 196.99C323.991 194.495 313.712 186.917 310.133 177.157C309.446 175.984 309.001 174.491 308.661 173.174C303.827 154.464 315.727 137.444 333.977 132.776Z"/>
	<path fill="#C8E4F0" transform="scale(0.195312 0.195312)" d="M333.977 132.776C345.234 132.11 353.57 133.219 362.328 141.062C375.226 152.613 376.54 173.468 364.847 186.331C356.3 195.734 345.864 197.374 333.977 196.99L334.255 196.849C334.34 196.689 334.361 184.154 333.977 183.645C337.181 182.658 354.292 172.499 356.83 170.397C366.96 162.006 353.157 155.822 346.871 151.748C342.071 148.637 337.443 144 331.471 143.695C332.525 141.043 336.062 135.162 333.977 132.776Z"/>
	<path fill="#FEFEFE" transform="scale(0.195312 0.195312)" d="M310.133 177.157C309.446 175.984 309.001 174.491 308.661 173.174C303.827 154.464 315.727 137.444 333.977 132.776C336.062 135.162 332.525 141.043 331.471 143.695C328.941 144.555 327.636 145.631 326.113 147.778C324.771 152.532 324.82 177.835 326.153 180.096C327.781 182.858 330.933 183.902 333.977 183.645C334.361 184.154 334.34 196.689 334.255 196.849L333.977 196.99C323.991 194.495 313.712 186.917 310.133 177.157Z"/>
	<path fill="#F5DE5E" transform="scale(0.195312 0.195312)" d="M332.967 147.778C335.422 147.5 354.332 160.244 355.655 161.797C359.612 166.44 349.247 170.674 346.716 172.752L346.405 173.011C341.049 175.496 329.78 185.94 328.951 175.162C328.703 171.924 328.423 151.439 329.344 149.639C329.978 148.4 331.735 148.103 332.967 147.778Z"/>
	<path fill="#E5EBF0" transform="scale(0.195312 0.195312)" d="M264.728 209.861C270.748 210.047 276.915 209.375 282.898 209.795C283.21 210.494 283.305 211.119 283.404 211.866C286.294 216.615 293.043 221.816 296.98 226.116L296.969 257.757C296.974 262.282 297.421 267.93 296.98 272.273L296.644 272.243C296.319 273.057 293.002 275.799 291.764 277.2C284.703 277.316 289.231 286.982 288.018 293.128C287.755 291.572 287.962 289.811 288.018 288.231C286.776 289.784 285.949 291.312 285.172 293.128C268.641 293.153 267.441 300.021 267.437 314.914L267.442 391.813C267.134 392.359 267.33 393.659 266.781 393.827C266.08 394.04 255.465 393.73 253.766 393.729L214.524 393.728C208.4 393.726 194.76 394.174 188.96 392.958C191.488 392.63 193.912 393.013 189.817 392.674L189.859 392.402C194.402 390.502 188.368 390.407 187.777 389.021C190.185 387.51 190.024 387.319 189.909 384.615C188.4 386.579 142.296 386.615 137.939 385.654C137.225 385.188 137.096 384.539 136.838 383.774L136.342 383.875C135.321 384.888 132.776 388.874 133.528 390.394L134.034 390.42C134.848 390.47 135.674 390.529 136.235 391.178L136.143 391.618C133.352 393.924 128.115 394.07 127.244 388.454L127.2 388.151L126.786 388.15L127.076 388.206L127.152 387.968C126.924 387.307 126.562 386.727 126.214 386.124L125.771 386.452C125.711 385.078 125.621 383.73 125.458 382.363L124.975 381.984C123.331 381.776 123.125 381.338 123.201 379.67L123.215 379.419C119.769 379.425 116.823 378.532 113.167 378.671L113.818 378.55L113.111 378.634C113.662 378.247 114.069 377.85 114.474 377.322C129.37 369.171 131.871 369.941 147.558 369.634C161.107 369.37 172.915 369.43 186.586 369.678C202.119 369.96 219.505 368.953 235.41 368.852C232.798 367.796 230.126 368.435 227.4 368.419L211.509 368.253C195.126 368.23 177.549 366.875 161.58 367.692C157.436 367.905 139.437 369.457 136.838 367.619C130.533 366.863 100.743 368.657 97.5621 366.783C95.0082 362.812 103.459 363.832 105.022 363.855C120.966 364.087 136.916 363.556 152.86 363.869L153.094 363.567C157.588 362.383 169.796 363.349 175.149 363.369L211.58 363.246C218.96 363.224 226.325 363.458 233.704 363.132L188.345 362.606C181.203 362.472 173.957 361.656 166.816 362.194C163.424 362.45 157.837 364.264 154.799 361.796L154.907 361.594L154.935 361.83C158.363 357.129 189.251 352.893 192.093 349.132C185.248 348.713 177.153 349.13 170.166 349.13L121.18 349.127C117.324 349.127 97.5823 350.828 96.7863 347.645C97.8 344.644 103.417 345.529 105.797 345.53L188.459 345.53C193.325 345.528 198.348 345.046 203.187 345.523C204.313 342.282 209.45 340.907 212.215 339.425C220.573 334.944 221.496 332.39 230.684 331.537C228.184 331.317 225.83 331.279 223.354 330.757C226.537 330.857 241.964 332.391 240.223 328.189C238.192 326.362 232.746 327.186 230.127 327.253C230.616 327.203 231.045 327.229 231.536 327.253C232.175 325.329 233.845 324.511 235.609 323.785C237.398 320.955 240.613 318.924 243.041 316.635C249.216 310.816 253.639 304.432 256.879 296.669C264.296 278.904 269.459 241.719 264.728 221.906C263.93 218.856 264.229 212.997 264.728 209.861ZM185.877 382.012C186.352 381.953 186.814 381.878 187.283 381.782L185.961 381.864L185.678 381.6L186.39 380.594L186.249 380.138C182.916 378.157 159.093 379.203 154.449 379.213C152.247 379.217 137.657 377.53 138.915 381.548L140.053 382.012L172.027 382.001C175.795 382.01 182.608 382.46 185.877 382.012Z"/>
	<path fill="#1D5BAC" transform="scale(0.195312 0.195312)" d="M152.86 363.869L206.176 363.862C210.388 363.862 237.538 362.961 240.142 364.579C243.849 369.637 230.341 367.566 228.497 367.586C207.072 367.82 185.62 367.641 164.192 367.625L145.541 367.595C142.717 367.589 139.626 367.318 136.838 367.619C130.533 366.863 100.743 368.657 97.5621 366.783C95.0082 362.812 103.459 363.832 105.022 363.855C120.966 364.087 136.916 363.556 152.86 363.869Z"/>
	<path fill="#1D5BAC" transform="scale(0.195312 0.195312)" d="M203.187 345.523L226.414 345.503C228.701 345.5 238.411 344.676 239.915 346.164C241.724 350.858 231.805 349.13 229.5 349.136L203.827 349.141C200.16 349.129 195.672 348.668 192.093 349.132C185.248 348.713 177.153 349.13 170.166 349.13L121.18 349.127C117.324 349.127 97.5823 350.828 96.7863 347.645C97.8 344.644 103.417 345.529 105.797 345.53L188.459 345.53C193.325 345.528 198.348 345.046 203.187 345.523Z"/>
	<path fill="#1D5BAC" transform="scale(0.195312 0.195312)" d="M140.053 382.012L172.027 382.001C175.795 382.01 182.608 382.46 185.877 382.012C188.155 382.213 189.676 382.007 189.909 384.615C188.4 386.579 142.296 386.615 137.939 385.654C137.225 385.188 137.096 384.539 136.838 383.774C137.274 381.981 138.401 382.137 140.053 382.012Z"/>
	<path fill="#FEFEFE" transform="scale(0.195312 0.195312)" d="M264.728 209.861C270.748 210.047 276.915 209.375 282.898 209.795C283.21 210.494 283.305 211.119 283.404 211.866C282.118 212.315 280.638 211.781 279.31 211.762C257.201 211.457 267.157 213.43 264.728 221.906C263.93 218.856 264.229 212.997 264.728 209.861Z"/>
	<path fill="#6AE8B0" transform="scale(0.195312 0.195312)" d="M278.122 424.497L278.121 347.769C278.121 335.18 277.791 322.495 278.117 309.915C278.263 304.278 283.307 303.264 288.018 303.521L288.013 394.982C288.018 416.655 287.809 414.753 307.282 414.696L330.921 414.685C339.682 414.684 411.85 415.901 414.628 413.716C416.895 411.933 415.968 403.286 415.966 400.757L415.955 329.949L415.955 323.785C421.585 323.801 427.536 324.229 433.132 323.785L433.136 413.407C433.13 435.074 430.658 433.945 411.746 433.932L290.72 433.91C286.565 433.89 282.257 433.599 278.122 433.918C278.78 431.258 278.207 427.283 278.122 424.497Z"/>
	<path fill="#50C887" transform="scale(0.195312 0.195312)" d="M415.955 323.785C421.585 323.801 427.536 324.229 433.132 323.785L433.136 413.407C433.13 435.074 430.658 433.945 411.746 433.932L290.72 433.91C286.565 433.89 282.257 433.599 278.122 433.918C278.78 431.258 278.207 427.283 278.122 424.497L399.779 424.502C405.403 424.502 411.083 424.66 416.701 424.433C426.608 424.031 424.112 418.582 424.114 409.781L424.098 351.124C424.098 348.105 424.909 332.922 423.743 331.066C421.699 329.543 418.404 329.937 415.955 329.949L415.955 323.785Z"/>
	<path fill="#C8E4F0" transform="scale(0.195312 0.195312)" d="M188.96 392.958C194.76 394.174 208.4 393.726 214.524 393.728L253.766 393.729C255.465 393.73 266.08 394.04 266.781 393.827C267.33 393.659 267.134 392.359 267.442 391.813L267.442 405.263C262.704 404.979 257.855 405.257 253.1 405.26L104.099 405.277C92.9638 405.289 82.3191 407.053 79.2522 393.727C88.6626 391.654 110.153 392.955 120.34 392.958L188.96 392.958Z"/>
	<path fill="#1D5BAC" transform="scale(0.195312 0.195312)" d="M230.127 327.253C232.746 327.186 238.192 326.362 240.223 328.189C241.964 332.391 226.537 330.857 223.354 330.757L111.696 330.716C108.765 330.718 100.597 331.702 98.1594 330.41C96.7417 329.658 96.9421 328.055 98.3558 327.573C100.687 326.777 128.245 327.258 132.559 327.258L230.127 327.253Z"/>
	<path fill="#1D5BAC" transform="scale(0.195312 0.195312)" d="M111.56 382.012C114.291 382.053 122.871 381.196 124.691 382.713C130.698 387.722 106.061 385.413 101.995 385.85C100.087 385.75 95.2527 386.44 97.6658 382.613C99.1302 381.628 109.143 382.031 111.56 382.012Z"/>
	<path fill="#1D5BAC" transform="scale(0.195312 0.195312)" d="M435.149 250.43C439.296 251.417 437.543 262.726 436.008 264.294C431.319 263.646 432.924 252.179 435.149 250.43Z"/>
	<path fill="#1D5BAC" transform="scale(0.195312 0.195312)" d="M427.895 201.732C432.965 201.568 434.018 212.552 432.394 214.595C429.287 215.082 426.021 204.526 427.895 201.732Z"/>
	<path fill="#1D5BAC" transform="scale(0.195312 0.195312)" d="M283.404 71.773C285.959 71.4416 297.254 71.9557 294.723 76.9999C292.72 77.0489 279.639 76.2138 283.404 71.773Z"/>
	<path fill="#1D5BAC" transform="scale(0.195312 0.195312)" d="M177.01 82.9948C178.091 82.9858 179.677 83.5585 179.209 84.9496C178.531 86.9628 171.755 89.4616 169.742 90.5283C166.309 90.9019 165.208 86.7516 177.01 82.9948Z"/>
	<path fill="#1D5BAC" transform="scale(0.195312 0.195312)" d="M156.164 94.2038C163.718 94.3007 151.065 101.85 149.206 102.654L148.358 102.907C142.572 101.64 155.392 94.6205 156.164 94.2038Z"/>
	<path fill="#1D5BAC" transform="scale(0.195312 0.195312)" d="M136.838 109.18C142.633 110.803 132.216 118.281 130.616 119.469C124.08 118.748 135.396 110.086 136.838 109.18Z"/>
	<path fill="#1D5BAC" transform="scale(0.195312 0.195312)" d="M306.44 77.9427C309.29 78.2024 319.979 80.6637 317.722 85.0453C315.766 85.5748 304.945 83.4654 306.44 77.9427Z"/>
	<path fill="#1D5BAC" transform="scale(0.195312 0.195312)" d="M199.412 74.9175C200.121 74.7757 207.117 76.1817 192.093 80.8372C191.659 80.8736 191.223 80.8777 190.789 80.8912C185.065 77.9321 198.172 75.1974 199.412 74.9175Z"/>
	<path fill="#1D5BAC" transform="scale(0.195312 0.195312)" d="M433.589 226.116C437.333 226.64 438.821 236.119 436.008 238.645C432.018 238.169 432.276 227.781 433.589 226.116Z"/>
	<path fill="#1D5BAC" transform="scale(0.195312 0.195312)" d="M241.234 68.147C249.726 67.526 250.391 71.8942 241.234 71.773C233.678 72.3482 233.352 68.2776 241.234 68.147Z"/>
	<path fill="#1D5BAC" transform="scale(0.195312 0.195312)" d="M420.237 179.244C423.079 179.417 427.922 188.104 424.101 190.828C422.1 190.622 417.157 181.529 420.237 179.244Z"/>
	<path fill="#1D5BAC" transform="scale(0.195312 0.195312)" d="M431.739 275.649C436.967 275.766 432.804 286.377 431.739 288.231C426.106 287.731 430.401 278.531 431.739 275.649Z"/>
	<path fill="#1D5BAC" transform="scale(0.195312 0.195312)" d="M222.389 69.8301C223.567 69.7028 224.892 70.6862 224.534 71.9191C222.597 74.0756 216.585 74.4273 213.814 74.9175C212.488 75.1084 211.758 74.1212 211.926 72.8013C213.556 70.6183 219.787 70.2801 222.389 69.8301Z"/>
	<path fill="#1D5BAC" transform="scale(0.195312 0.195312)" d="M224.24 436.291L225.26 436.273C227.242 436.244 240.676 436.818 233.533 440.795C230.283 439.754 225.722 440.33 222.961 438.48C222.212 437.257 223.039 436.628 224.24 436.291Z"/>
	<path fill="#1D5BAC" transform="scale(0.195312 0.195312)" d="M178.455 425.214C180.998 425.178 191.523 426.842 188.96 431.137C187.113 431.47 176.118 429.948 178.455 425.214Z"/>
	<path fill="#1D5BAC" transform="scale(0.195312 0.195312)" d="M157.402 415.618C159.906 415.944 169.759 419.225 167.204 422.844C164.688 422.722 154.514 420.037 157.402 415.618Z"/>
	<path fill="#1D5BAC" transform="scale(0.195312 0.195312)" d="M259.723 68.147C261.791 68.1308 273.644 67.9652 270.985 72.4456C268.589 72.5725 256.52 73.3425 259.723 68.147Z"/>
	<path fill="#1D5BAC" transform="scale(0.195312 0.195312)" d="M200.365 432.035C204.312 432.056 213.643 432.109 211.43 437.506C208.976 437.374 198.13 436.254 200.365 432.035Z"/>
	<path fill="#1D5BAC" transform="scale(0.195312 0.195312)" d="M247.837 437.506C248.32 437.501 263.82 436.789 257 440.795C246.778 441.03 243.108 439.175 247.837 437.506Z"/>
</svg>
