<?xml version="1.0" encoding="utf-8" ?>
<svg xmlns="http://www.w3.org/2000/svg" xmlns:xlink="http://www.w3.org/1999/xlink" width="100" height="100">
	<path fill="#3264B9" transform="scale(0.195312 0.195312)" d="M124.307 75.9886C132.03 75.7319 139.85 75.9799 147.581 75.9833L225.04 75.9764C237.889 75.9567 253.516 73.4461 257.808 89.6829C259.137 94.7091 258.462 109.518 258.457 115.341L258.46 194.317C258.462 211.093 260.657 224.817 240.95 229.741C233.418 230.128 225.682 229.747 218.128 229.745L139.187 229.756C127.348 229.764 109.99 232.077 107.454 215.568C106.539 209.614 107.1 202.001 107.101 195.876L107.082 101.07C107.051 88.6691 109.19 78.2703 124.307 75.9886Z"/>
	<path fill="#EDEFF7" transform="scale(0.195312 0.195312)" d="M116.439 176.56L116.415 101.82C116.351 83.4344 120.86 85.4443 137.763 85.5213L211.321 85.5139C219.815 85.5148 228.345 85.3398 236.835 85.5303C250.722 85.842 249.269 93.2152 249.264 104.763L249.248 162.096C249.249 167.994 249.47 173.981 249.246 179.871C249.348 183.417 249.234 187.003 249.246 190.554L138.058 190.541C129.369 190.538 124.289 189.332 116.439 193.344L116.439 176.56Z"/>
	<path fill="#D4DCEC" transform="scale(0.195312 0.195312)" d="M116.439 176.56C120.795 180.883 123.637 182.129 129.79 182.134L246.964 182.16C248.791 182.163 249.134 181.534 249.246 179.871C249.348 183.417 249.234 187.003 249.246 190.554L138.058 190.541C129.369 190.538 124.289 189.332 116.439 193.344L116.439 176.56Z"/>
	<path fill="#3264B9" transform="scale(0.195312 0.195312)" d="M164.504 133.263L173.735 133.263C175.313 137.063 179.764 144.087 182.359 147.384C185.617 142.898 188.626 137.936 191.621 133.263C194.677 133.404 197.691 133.372 200.747 133.263L200.747 170.554L191.621 170.554L191.621 159.142L191.621 146.4C189.437 148.869 184.957 158.736 182.358 159.148C179.334 157.969 175.753 150.243 173.735 147.384L173.735 170.554L164.504 170.554L164.504 133.263Z"/>
	<path fill="#3264B9" transform="scale(0.195312 0.195312)" d="M217.774 133.263C221.141 130.776 231.071 134.744 233.636 137.073C232.314 139.418 231.083 141.793 229.873 144.196C226.133 142.322 219.034 138.076 215.487 142.337C211.755 146.82 226.711 149.336 229.238 151.067C237.603 156.796 233.306 169.322 221.662 170.554C215.692 171.035 209.372 170.171 204.972 165.718C205.727 163.244 206.961 161.305 208.35 159.142C211.043 161.667 224.202 165.852 224.064 159.854C223.976 156.042 212.858 155.643 208.744 151.858C202.074 145.722 205.502 133.697 217.774 133.263Z"/>
	<path fill="#3264B9" transform="scale(0.195312 0.195312)" d="M135.273 133.263L144.747 133.263L144.747 163.069L160.548 163.069L160.548 170.554L135.273 170.554L135.273 133.263Z"/>
	<path fill="#EAADC5" transform="scale(0.195312 0.195312)" d="M116.439 211.319C115.888 203.371 120.583 200.271 128.051 200.02C141.659 199.564 155.421 199.978 169.043 199.978L249.246 199.979C249.26 203.723 249.768 208.997 249.246 212.56C244.533 221.192 238.554 220.041 229.646 220.045L133.863 220.047C126.623 220.044 115.951 221.707 116.439 211.319Z"/>
	<path fill="#DD89A8" transform="scale(0.195312 0.195312)" d="M116.439 211.319C122.566 213.418 135.046 212.571 141.911 212.568L249.246 212.56C244.533 221.192 238.554 220.041 229.646 220.045L133.863 220.047C126.623 220.044 115.951 221.707 116.439 211.319Z"/>
	<path fill="#3264B9" transform="scale(0.195312 0.195312)" d="M319.746 284.842L398.171 284.847C411.266 284.847 424.38 284.67 437.472 284.847C454.614 285.079 454.264 296.462 454.257 310.243L454.245 371.816C454.247 378.637 454.406 385.476 454.249 392.292C458.4 392.79 463.974 391.368 467.701 393.595C469.858 396.632 469.032 419.116 468.155 421.85C465.211 431.024 456.065 431.581 447.823 431.587L437.625 431.574L316.217 431.585C293.442 431.595 289.376 429.826 289.466 408.066L289.49 391.834C294.741 391.742 299.999 391.817 305.251 391.834L305.241 306.72C305.242 293.771 304.102 285.652 319.746 284.842ZM314.595 296.836L314.585 381.279C314.584 384.779 314.434 388.342 314.595 391.834C319.238 391.954 366.511 391.003 367.938 392.629C369.479 394.385 368.753 399.462 368.774 401.747C376.095 401.304 383.415 401.77 390.749 401.747C389.103 388.566 396.432 392.261 408.226 392.273L433.063 392.292L445.242 392.292L445.248 311.997C445.242 291.966 445.338 294.219 427.999 294.216L345.308 294.218C335.998 294.218 326.663 294.056 317.357 294.221C315.969 294.794 315.375 295.59 314.595 296.836Z"/>
	<path fill="#3264B9" transform="scale(0.195312 0.195312)" d="M427.369 305.455C429.185 305.39 432.408 304.894 433.78 306.277C434.5 308.754 434.758 335.015 433.722 337.486C431.605 338.774 403.002 337.849 398.4 337.848L332.125 337.844L330.686 337.879C329.435 337.91 326.968 338.256 326.012 337.348C325.271 335.018 325.162 308.652 325.885 306.067C327.676 304.449 357.997 305.451 362.491 305.451L427.369 305.455Z"/>
	<path fill="#46BBF8" transform="scale(0.195312 0.195312)" d="M325.522 349.145C341.534 348.125 362.109 348.862 378.34 349.006C379.364 350.83 379.458 357.523 378.797 359.453C373.423 359.886 366.605 359.465 361.046 359.46L325.522 359.453C325.409 357.399 324.634 350.619 325.522 349.145Z"/>
	<path fill="#46BBF8" transform="scale(0.195312 0.195312)" d="M390.749 349.145C401.597 348.611 423.498 348.147 434.24 349.145C434.047 352.62 434.068 355.98 434.24 359.453C431.39 360.081 425.642 359.462 422.444 359.458L404.275 359.457C390.298 359.462 390.636 362.283 390.749 349.145Z"/>
	<path fill="#F5B347" transform="scale(0.195312 0.195312)" d="M367.803 370.265L397.984 370.265C397.943 373.673 399.542 381.107 396.273 381.564L376.514 381.579C374.971 381.584 366.958 382.394 366.312 381.11C365.472 379.438 364.482 371.42 367.803 370.265Z"/>
	<path fill="#46BBF8" transform="scale(0.195312 0.195312)" d="M325.522 370.265C334.367 370.277 343.223 370.146 352.067 370.265C352.201 374.011 352.113 377.815 352.067 381.564L325.522 381.564C325.752 377.757 325.742 374.067 325.522 370.265Z"/>
	<path fill="#46BBF8" transform="scale(0.195312 0.195312)" d="M409.116 370.265C417.457 370.011 425.89 370.277 434.24 370.265C434.088 372.641 435.131 380.197 433.063 381.564C425.096 381.562 417.075 381.767 409.116 381.564C409.05 380.186 408.784 370.841 409.116 370.265Z"/>
	<path fill="#46BBF8" transform="scale(0.195312 0.195312)" d="M298.99 401.747L359.269 401.747C359.246 404.426 358.77 408.133 360.305 410.421C362.265 411.374 395.532 412.602 397.508 410.449C399.293 408.502 398.75 404.626 398.717 402.161L459.336 402.161L459.336 412.312C459.3 416.089 460.088 421.349 455.115 421.66C449.334 422.021 443.416 421.782 437.623 421.783L312.024 421.773C295.327 421.708 298.911 419.439 298.99 401.747Z"/>
	<path fill="#3264B9" transform="scale(0.195312 0.195312)" d="M56.1094 275.338C68.5193 275.208 80.943 275.35 93.3546 275.333C125.452 275.287 122.912 276.44 122.868 305.455L156.041 305.454C159.639 305.445 163.561 304.672 167.096 305.257C178.998 307.224 175.731 325.769 175.733 334.075L175.741 404.281C175.742 415.203 178.421 430.265 163.154 431.574L66.3814 431.588C47.5571 431.617 43.2572 430.586 43.2499 410.044L43.2496 307.956C43.2469 295.683 39.1 276.713 56.1094 275.338Z"/>
	<path fill="#EDEFF7" transform="scale(0.195312 0.195312)" d="M52.8453 409.481L52.8481 300.864C52.8475 298.103 51.7581 287.639 53.7086 285.766C55.3909 284.15 104.764 284.839 109.825 285.201C117.859 285.775 109.619 307.805 114.596 313.253C117.07 315.961 128.469 314.541 132.077 314.538L165.955 314.523C166.128 317.91 165.968 321.368 165.966 324.763L165.955 407.602C165.966 410.15 166.653 420.07 164.64 421.412C163.409 422.232 142.984 421.775 139.643 421.775L82.3926 421.787C78.1272 421.787 57.4824 422.28 55.3633 421.481C51.6567 420.082 52.9518 412.409 52.8453 409.481Z"/>
	<path fill="#D4DCEC" transform="scale(0.195312 0.195312)" d="M52.8453 409.481L120.795 409.475C133.652 409.476 146.543 409.287 159.397 409.581C162.469 409.652 165.295 411.546 165.955 407.602C165.966 410.15 166.653 420.07 164.64 421.412C163.409 422.232 142.984 421.775 139.643 421.775L82.3926 421.787C78.1272 421.787 57.4824 422.28 55.3633 421.481C51.6567 420.082 52.9518 412.409 52.8453 409.481Z"/>
	<path fill="#6C88C1" transform="scale(0.195312 0.195312)" d="M76.9451 332.324L135.614 332.312C138.273 332.31 144.039 331.485 146.245 333.31C149.851 336.293 148.42 341.686 141.792 341.816L97.5481 341.817C90.1373 341.82 82.4045 342.3 75.0356 341.714C69.5302 341.277 69.1849 332.778 76.9451 332.324Z"/>
	<path fill="#6C88C1" transform="scale(0.195312 0.195312)" d="M74.5116 357.165L135.362 357.163C139.285 357.165 149.432 355.923 147.775 362.843C147.343 364.645 146.299 365.681 144.747 366.6C134.838 367.023 76.2938 366.978 74.2046 366.226C69.5738 364.557 70.404 358.784 74.5116 357.165Z"/>
	<path fill="#6C88C1" transform="scale(0.195312 0.195312)" d="M115.337 381.564C120.361 381.659 142.366 380.665 145.728 382.544C149.916 384.885 147.444 390.305 143.572 391.241C138.648 391.249 116.838 391.915 113.699 390.658C108.677 388.649 111.327 383.141 115.337 381.564Z"/>
	<path fill="#6C88C1" transform="scale(0.195312 0.195312)" d="M74.5116 381.564C83.169 381.702 98.8374 377.919 101.333 386.694C100.709 388.875 100.08 390.202 97.8778 391.241C96.0635 391.453 77.1673 391.71 75.2034 391.306C69.7758 390.19 70.4009 383.844 74.5116 381.564Z"/>
	<path fill="#3264B9" transform="scale(0.195312 0.195312)" d="M357.176 165.718C361.157 165.703 371.762 165.01 374.992 166.246C378.58 167.62 378.082 175.867 379.395 178.848C381.938 184.619 390.885 173.425 395.418 175.292C398.504 176.563 409.352 186.357 408.51 190.399C407.863 193.502 403.563 198.633 402.034 202.123C405.327 202.054 413.132 201.896 414.542 205.776C415.652 208.83 415.852 222.122 414.408 225.004C413.254 227.307 403.506 229.453 400.654 230.412C402.224 232.916 407.622 239.791 406.484 242.949C405.574 245.474 395.983 254.267 393.444 255.22C390.724 256.24 383.092 251.006 380.215 249.717C378.539 255.351 380.653 264.356 372.535 264.494C369.341 264.482 358.004 265.052 355.842 264.058C351.939 262.265 351.88 253.403 350.585 249.717C346.041 250.914 341.165 256.942 336.331 254.202C333.412 252.547 324.89 244.373 324.132 241.086C323.4 237.915 328.192 232.409 329.891 229.741C325.799 228.454 319.303 229.251 316.174 226.291C313.156 223.436 314.3 205.941 316.393 203.9C318.518 201.829 326.806 202.106 329.891 202.123C327.574 198.659 321.103 193.174 322.825 188.524C324.041 185.237 331.494 176.913 334.715 175.503C338.056 174.04 345.133 179.472 348.932 180.963C349.982 180.615 351.023 180.237 352.067 179.871C352.344 174.553 350.951 167.791 357.176 165.718ZM367.803 229.741C383.558 224.855 378.993 204.121 363.645 205.546C348.589 208.429 350.255 230.586 367.803 229.741Z"/>
	<path fill="#F5B347" transform="scale(0.195312 0.195312)" d="M361.2 174.483L369.72 174.483C369.584 178.301 370.093 182.64 372.535 185.681C375.124 187.475 380.74 189.543 383.8 190.554C387.167 189.504 389.841 187.22 392.982 185.681C395.047 187.06 396.42 188.644 397.984 190.554C395.081 196.349 389.323 201.119 395.418 208.761C397.078 210.842 403.484 210.967 406.002 211.319C406.194 213.891 406.02 216.572 406.002 219.157C396.1 220.934 394.817 220.991 391.491 231.279C392.412 234.559 394.447 237.476 396.273 240.309C394.831 242.145 393.099 243.805 391.491 245.498C388.142 243.717 384.814 241.79 381.321 240.309C371.34 243.216 371.501 245.574 369.72 255.469L364.522 255.469C363.426 255.538 362.299 255.476 361.2 255.469C359.754 245.545 359.672 242.673 348.932 240.309C345.315 241.131 342.541 243.307 339.135 244.613C337.353 243.377 335.797 241.785 334.213 240.309C336.249 237.082 338.36 233.876 339.975 230.412C336.109 219.772 335.648 220.048 323.951 220.045C323.889 217.131 323.875 214.233 323.951 211.319C336.394 208.747 333.634 212.853 339.135 199.979C337.527 196.519 334.957 193.101 332.125 190.554C333.611 188.421 335.677 186.736 336.964 184.471C344.829 189.943 349.317 194.118 358.873 185.783C361.279 183.685 361.001 177.53 361.2 174.483ZM367.803 229.741C383.558 224.855 378.993 204.121 363.645 205.546C348.589 208.429 350.255 230.586 367.803 229.741Z"/>
	<path fill="#3264B9" transform="scale(0.195312 0.195312)" d="M212.146 240.309C214.998 240.134 216.258 240.883 217.774 243.392C218.095 254.057 217.78 264.833 217.778 275.512L217.774 339.995L254.388 339.995C260.3 339.997 266.414 340.385 272.295 339.995C269.626 337.494 264.13 334.655 263.839 330.845C263.558 327.181 267.241 324.364 270.605 326.398C273.782 328.318 282.582 336.845 285.546 339.831C290.11 344.426 288.237 347.139 284.008 351.165C281.854 353.283 265.209 372.806 263.242 361.122C262.624 357.446 269.874 352.364 272.295 349.145C269.955 349.413 267.483 349.18 265.128 349.168L250.638 349.146C242.171 349.139 233.698 349.063 225.232 349.152C220.123 349.206 211.781 351.392 209.042 345.624C207.413 342.193 208.349 325.564 208.354 321.318L208.376 257.194C208.395 251.664 206.154 243.156 212.146 240.309Z"/>
	<path fill="#3264B9" transform="scale(0.195312 0.195312)" d="M271.063 134.745L341.067 134.752C345.425 134.751 364.635 134.244 367.282 134.991C371.294 136.122 374.163 153.017 366.914 156.729C359.696 157.259 361.16 148.923 361.2 144.196C353.575 144.003 345.895 144.189 338.266 144.191L292.846 144.198C289.168 144.2 273.748 144.689 271.119 143.966C265.909 142.534 266.907 136.675 271.063 134.745Z"/>
</svg>
