<?xml version="1.0" encoding="utf-8" ?>
<svg xmlns="http://www.w3.org/2000/svg" xmlns:xlink="http://www.w3.org/1999/xlink" width="100" height="100">
	<path fill="#FEFEFE" transform="scale(0.195312 0.195312)" d="M152.988 107.391C158.47 102.619 165.524 98.7808 171.87 95.2851C209.763 74.4113 255.27 68.6185 297.366 78.1924C391.598 99.6233 449.935 194.05 434.158 287.542C433.591 290.902 432.132 295.627 432.163 298.885L432.488 299.191L446.564 299.178C457.262 299.181 465.121 299.611 473.119 307.62C484.603 319.12 482.155 332.575 482.157 347.503L482.142 387.357C482.003 413.346 468.761 422.587 443.966 422.412L428.148 422.393C407.207 422.415 386.225 422.685 365.288 422.402C353.83 422.247 349.981 419.8 341.923 412.121C338.348 414.364 334.361 416.062 330.524 417.8C209.846 472.477 70.776 380.688 75.3339 248.446C75.5787 241.344 76.4056 234.107 76.0462 227.014C51.0036 227.086 30.8014 224.348 30.686 193.88L30.6921 155.695C30.689 147.977 29.8917 135.074 31.6289 128.172C36.4455 109.035 52.7087 107.379 68.5029 107.378L152.988 107.391Z"/>
	<path fill="#FEFEFE" transform="scale(0.195312 0.195312)" d="M87.0531 227.014C98.2977 226.882 117.661 225.828 128.453 227.014C131.154 227.005 133.748 226.94 136.402 227.505L138.012 229.045C137.705 231.394 138.041 233.868 138.012 236.241L138.001 301.42C138.004 307.457 136.745 315.661 145.045 316.552C150.946 317.186 157.268 316.745 163.211 316.739L309.542 316.732C314.477 316.736 336.729 316.081 339.702 316.739C346.643 304.285 356.21 299.246 370.665 299.191C373.932 298.976 377.881 299.745 381.011 298.744L381.242 298.054L381.505 298.777C383.855 299.722 387.938 299.218 390.491 299.191L392.237 299.191C396.033 299.397 399.902 299.22 403.705 299.205L423.473 299.189C426.439 299.185 429.534 298.999 432.488 299.191L446.564 299.178C457.262 299.181 465.121 299.611 473.119 307.62C484.603 319.12 482.155 332.575 482.157 347.503L482.142 387.357C482.003 413.346 468.761 422.587 443.966 422.412L428.148 422.393C407.207 422.415 386.225 422.685 365.288 422.402C353.83 422.247 349.981 419.8 341.923 412.121C338.348 414.364 334.361 416.062 330.524 417.8C209.846 472.477 70.776 380.688 75.3339 248.446C75.5787 241.344 76.4056 234.107 76.0462 227.014C79.7003 227.112 83.4023 227.281 87.0531 227.014Z"/>
	<path fill="#64B8F8" transform="scale(0.195312 0.195312)" d="M381.242 298.054L381.505 298.777C383.855 299.722 387.938 299.218 390.491 299.191L392.237 299.191C396.033 299.397 399.902 299.22 403.705 299.205L423.473 299.189C426.439 299.185 429.534 298.999 432.488 299.191L446.564 299.178C457.262 299.181 465.121 299.611 473.119 307.62C484.603 319.12 482.155 332.575 482.157 347.503L482.142 387.357C482.003 413.346 468.761 422.587 443.966 422.412L428.148 422.393C407.207 422.415 386.225 422.685 365.288 422.402C353.83 422.247 349.981 419.8 341.923 412.121C339.774 409.046 338.3 406.123 337.084 402.571C335.286 396.687 336.166 378.306 336.107 371.002C329.19 363.826 312.114 349.913 307.908 342.412C317.119 341.782 326.533 342.994 335.751 342.39C336.219 341.88 336.08 341.335 336.107 340.661C336.489 335.88 335.494 330.893 336.107 326.156C337.267 324.834 338.594 318.953 339.702 316.739C346.643 304.285 356.21 299.246 370.665 299.191C373.932 298.976 377.881 299.745 381.011 298.744L381.242 298.054Z"/>
	<path fill="#316FD7" transform="scale(0.195312 0.195312)" d="M389.19 325.028C396.976 324.748 450.282 324.58 452.491 325.364C454.053 325.919 458.007 337.344 451.29 338.805C443.93 338.806 388.727 339.409 386.067 338.11C385.434 337.801 380.802 326.073 389.19 325.028Z"/>
	<path fill="#349BF9" transform="scale(0.195312 0.195312)" d="M365.852 348.964L452.458 348.964C455.622 351.521 456.413 356.548 452.458 358.947C448.647 359.178 444.734 358.956 440.909 358.955L385.515 358.95C381.168 358.949 367.571 359.887 364.023 358.296C361.737 355.736 362.327 350.164 365.852 348.964Z"/>
	<path fill="#349BF9" transform="scale(0.195312 0.195312)" d="M389.19 368.903C395.87 368.706 450.487 367.998 453.088 369.924C454.976 371.322 456.172 375.894 454.388 377.779C452.446 379.831 446.706 378.918 444.186 378.911L428.938 378.889L382.13 378.723C375.879 378.657 369.961 379.242 363.735 378.087C363.241 375.818 362.368 371.259 364.012 369.511C365.03 368.428 386.139 368.899 389.19 368.903Z"/>
	<path fill="#349BF9" transform="scale(0.195312 0.195312)" d="M392.237 388.002L428.115 387.997C435.123 388 442.216 387.768 449.213 388.103C457.211 388.486 457.303 394.433 452.458 398.019C450.371 398.291 448.005 398.071 445.894 398.058L405.101 398.001C401.494 397.995 393.894 398.927 390.668 397.484C386.713 395.716 388.42 389.117 392.237 388.002Z"/>
	<path fill="#316FD7" transform="scale(0.195312 0.195312)" d="M365.852 388.002C370.417 388.004 375.913 387.458 380.344 388.492C383.727 389.281 383.008 395.965 380.155 397.48C376.761 398.079 368.497 398.527 365.125 397.658C362.602 397.007 361.686 389.312 365.852 388.002Z"/>
	<path fill="#A7D6FC" transform="scale(0.195312 0.195312)" d="M76.0462 227.014C79.7003 227.112 83.4023 227.281 87.0531 227.014C86.8528 230.219 86.6041 233.13 85.7505 236.241C86.2046 240.362 85.8173 244.546 85.7639 248.685C85.3037 284.368 93.426 315.164 112.824 344.981C144.141 393.118 197.953 422.648 255.525 423.234C278.85 423.472 302.028 417.959 323.48 409.063C328.064 407.162 332.405 404.083 337.084 402.571C338.3 406.123 339.774 409.046 341.923 412.121C338.348 414.364 334.361 416.062 330.524 417.8C209.846 472.477 70.776 380.688 75.3339 248.446C75.5787 241.344 76.4056 234.107 76.0462 227.014Z"/>
	<path fill="#1C52BE" transform="scale(0.195312 0.195312)" d="M128.453 227.014C131.154 227.005 133.748 226.94 136.402 227.505L138.012 229.045C137.705 231.394 138.041 233.868 138.012 236.241L138.001 301.42C138.004 307.457 136.745 315.661 145.045 316.552C150.946 317.186 157.268 316.745 163.211 316.739L309.542 316.732C314.477 316.736 336.729 316.081 339.702 316.739C338.594 318.953 337.267 324.834 336.107 326.156L164.494 326.166C155.932 326.167 146.336 326.99 138.012 325.028C124.462 315.975 128.446 303.061 128.444 288.063L128.453 236.241L128.453 234.103C128.119 231.789 128.329 229.341 128.453 227.014Z"/>
	<path fill="#1C52BE" transform="scale(0.195312 0.195312)" d="M128.453 227.014C131.154 227.005 133.748 226.94 136.402 227.505L138.012 229.045C137.705 231.394 138.041 233.868 138.012 236.241C134.913 235.573 131.977 235.594 128.816 235.608L128.453 234.103C128.119 231.789 128.329 229.341 128.453 227.014Z"/>
	<path fill="#8DCC5B" transform="scale(0.195312 0.195312)" d="M247.206 340.661C246.75 338.775 242.409 326.76 250.267 330.302C252.514 331.316 253.727 336.527 254.569 338.805C256.309 338.63 258.128 338.767 259.877 338.805C261.309 334.817 261.859 326.48 267.805 331.885C273.696 334.516 272.73 336.837 271.332 342.412C276.226 344.664 277.778 330.976 283.047 338.805L283.742 338.805C285.238 339.989 286.795 341.139 288.215 342.412C287.375 345.357 283.864 350.205 283.742 352.598C286.335 351.477 288.877 349.86 291.534 348.964C292.186 350.36 292.793 351.81 293.514 353.17C294.862 353.204 295.681 353.477 296.642 354.455C302.027 359.938 284.958 364.857 290.394 366.523C292.008 366.606 294.605 367.087 295.076 368.903L295.294 369.1C304.31 377.146 298.909 378.278 288.876 378.087C288.582 379.721 288.399 381.361 288.215 383.01L288.876 385.155C290.739 386.188 292.362 388.006 293.514 389.782C292.579 391.269 291.54 392.574 290.394 393.904C273.052 387.812 283.949 400.207 279.419 403.307C277.257 404.787 274.186 402.147 273.191 400.33C272.152 399.645 271.256 398.841 270.328 398.019C267.633 399.59 263.068 414.071 259.877 404.651C253.864 405.237 254.091 399.601 254.569 394.983C252.558 394.81 250.645 394.368 248.684 393.904C245.741 398.814 243.076 403.816 238.204 397.48C239.162 394.775 240.611 392.269 242.023 389.782C240.762 388.567 239.488 387.368 238.204 386.177C235.734 387.102 231.783 390.518 229.753 390.197C222.12 388.991 229.517 381.659 233.437 379.623C232.49 377.765 231.989 376.379 231.914 374.249C228.43 374.232 221.262 376.052 220.762 370.981C220.36 366.898 227.524 366.581 230.16 366.523C230.095 364.507 230.082 362.517 230.16 360.502C225.364 357.938 219.056 356.617 224.346 350.326C227.356 351.214 230.372 351.93 233.437 352.598C234.239 351.127 235.344 349.856 236.388 348.554C234.623 345.744 232.352 343.148 230.16 340.661C230.834 339.372 231.546 338.224 232.422 337.062C236.716 335.769 239.855 341.027 242.617 343.679C244.003 342.305 245.468 341.488 247.206 340.661Z"/>
	<path fill="#DDDCDC" transform="scale(0.195312 0.195312)" d="M288.876 385.155C290.739 386.188 292.362 388.006 293.514 389.782C292.579 391.269 291.54 392.574 290.394 393.904C273.052 387.812 283.949 400.207 279.419 403.307C277.257 404.787 274.186 402.147 273.191 400.33C277.62 398.129 275.852 394.157 274.27 390.529C275.574 388.976 277.196 387.664 278.59 386.177C280.914 387.561 283.539 388.681 286.013 389.782C287.866 388.428 288.663 387.603 288.876 385.155Z"/>
	<path fill="#DDDCDC" transform="scale(0.195312 0.195312)" d="M295.076 368.903L295.294 369.1C304.31 377.146 298.909 378.278 288.876 378.087C288.582 379.721 288.399 381.361 288.215 383.01C286.536 381.788 284.832 380.683 283.047 379.623C283.667 377.806 284.374 376.03 285.091 374.249C288.418 373.524 290.801 373.693 294.16 374.249C294.61 372.511 294.808 370.679 295.076 368.903Z"/>
	<path fill="#DDDCDC" transform="scale(0.195312 0.195312)" d="M293.514 353.17C294.862 353.204 295.681 353.477 296.642 354.455C302.027 359.938 284.958 364.857 290.394 366.523C288.943 366.417 287.467 366.499 286.013 366.523C285.797 364.472 285.606 362.505 285.091 360.502C287.94 358.611 293.337 357.125 293.514 353.17Z"/>
	<path fill="#DDDCDC" transform="scale(0.195312 0.195312)" d="M262.546 394.983C263.764 394.497 264.989 394.202 266.261 393.904C267.688 395.177 268.992 396.648 270.328 398.019C267.633 399.59 263.068 414.071 259.877 404.651C260.212 401.73 261.729 397.945 262.546 394.983Z"/>
	<path fill="#DDDCDC" transform="scale(0.195312 0.195312)" d="M283.742 338.805C285.238 339.989 286.795 341.139 288.215 342.412C287.375 345.357 283.864 350.205 283.742 352.598L282.651 352.686C280.657 351.931 279.526 349.229 278.59 347.448C280.735 344.63 282.556 342.17 283.742 338.805Z"/>
	<path fill="#DDDCDC" transform="scale(0.195312 0.195312)" d="M267.805 331.885C273.696 334.516 272.73 336.837 271.332 342.412C270.213 341.743 268.942 341.372 267.805 340.661C267.779 337.71 268.054 334.841 267.805 331.885Z"/>
	<path fill="#FEFEFE" transform="scale(0.195312 0.195312)" d="M255.266 346.091C276.605 343.444 291.62 377.107 259.877 388.002C227.575 386.856 231.61 349.114 255.266 346.091Z"/>
	<path fill="#F78E25" transform="scale(0.195312 0.195312)" d="M245.787 369.966C243.879 355.266 261.446 347.231 270.328 364.885C270.854 381.606 250.213 385.151 245.787 369.966Z"/>
	<path fill="#F55C08" transform="scale(0.195312 0.195312)" d="M245.787 369.966L246.018 369.534C247.204 368.838 249.595 370.583 250.78 371.087C261.875 375.805 264.939 365.257 270.328 364.885C270.854 381.606 250.213 385.151 245.787 369.966Z"/>
	<path fill="#316FD7" transform="scale(0.195312 0.195312)" d="M181.479 212.584C187.229 212.956 192.848 212.728 198.598 212.67L349.226 212.571C355.796 212.564 368.538 210.297 370.261 219.544C371.244 224.816 370.67 235.23 370.669 240.936L370.665 279.871C370.662 286.262 370.337 292.821 370.665 299.191C356.21 299.246 346.643 304.285 339.702 316.739C336.729 316.081 314.477 316.736 309.542 316.732L163.211 316.739C157.268 316.745 150.946 317.186 145.045 316.552C136.745 315.661 138.004 307.457 138.001 301.42L138.012 236.241C138.041 233.868 137.705 231.394 138.012 229.045C145.974 235.231 153.985 242.735 161.549 249.457C163.175 250.749 164.553 251.814 166.552 252.48C173.885 252.171 170.15 233.747 170.648 227.225L170.666 227.014C172.126 226.905 173.495 226.714 174.914 226.348C179.745 222.366 181.56 219.149 181.479 212.584Z"/>
	<path fill="#FEFEFE" transform="scale(0.195312 0.195312)" d="M161.549 249.457C163.175 250.749 164.553 251.814 166.552 252.48C170.456 252.758 170.049 256.4 174.914 256.111C174.895 259.447 174.471 263.242 174.914 266.52L174.914 283.721C177.102 283.726 179.291 283.746 181.479 283.721L208.486 283.721C208.477 285.303 208.395 286.923 208.486 288.501L208.486 295.51L165.256 295.51L161.549 295.51L161.552 264.767C161.555 259.685 161.781 254.529 161.549 249.457Z"/>
	<path fill="#1C52BE" transform="scale(0.195312 0.195312)" d="M174.914 226.348C174.931 228.158 174.955 229.968 174.914 231.779C177.103 231.771 179.291 231.753 181.479 231.779L181.479 283.721C179.291 283.746 177.102 283.726 174.914 283.721L174.914 266.52C174.471 263.242 174.895 259.447 174.914 256.111C170.049 256.4 170.456 252.758 166.552 252.48C173.885 252.171 170.15 233.747 170.648 227.225L170.666 227.014C172.126 226.905 173.495 226.714 174.914 226.348Z"/>
	<path fill="#DDDCDC" transform="scale(0.195312 0.195312)" d="M174.914 226.348C174.931 228.158 174.955 229.968 174.914 231.779L174.931 255.056C174.933 258.839 175.135 262.748 174.914 266.52C174.471 263.242 174.895 259.447 174.914 256.111C170.049 256.4 170.456 252.758 166.552 252.48C173.885 252.171 170.15 233.747 170.648 227.225L170.666 227.014C172.126 226.905 173.495 226.714 174.914 226.348Z"/>
	<path fill="#1C52BE" transform="scale(0.195312 0.195312)" d="M208.486 288.501L214.58 288.501C214.603 293.247 214.811 298.054 214.58 302.794L165.256 302.794C165.229 301.147 164.699 296.833 165.256 295.51L208.486 295.51L208.486 288.501Z"/>
	<path fill="#FEFEFE" transform="scale(0.195312 0.195312)" d="M217.034 227.505C224.089 227.492 231.149 227.426 238.204 227.505C240.485 245.134 249.095 262.556 251.455 278.962C253.364 273.927 254.678 268.453 256.091 263.254L261.572 243.579C263.06 238.182 264.404 232.792 266.261 227.505L286.013 227.505L286.013 257.14C286.555 254.676 286.059 251.566 286.036 249.007L286.013 232.98C287.836 232.995 289.718 233.105 291.534 232.98L291.534 302.794C286.612 303.041 281.662 302.758 276.734 302.794C276.718 300.393 276.576 297.9 276.734 295.51L273.191 295.51L273.191 273.154C270.1 274.7 264.825 297.758 263.005 302.794L250.515 302.794C249.864 300.387 249.117 297.967 248.684 295.51C251.63 295.553 254.845 295.868 257.764 295.51C254.526 295.036 249.224 295.491 245.787 295.51C242.538 286.614 240.354 274.305 236.388 266.52C235.884 267.584 236.389 299.749 236.388 302.794C231.458 302.825 226.441 303.072 221.519 302.794L221.519 295.51C220.021 295.568 218.532 295.542 217.034 295.51L217.034 227.505Z"/>
	<path fill="#1C52BE" transform="scale(0.195312 0.195312)" d="M286.013 232.98C287.836 232.995 289.718 233.105 291.534 232.98L291.534 302.794C286.612 303.041 281.662 302.758 276.734 302.794C276.718 300.393 276.576 297.9 276.734 295.51L286.013 295.51L286.013 257.14C286.555 254.676 286.059 251.566 286.036 249.007L286.013 232.98Z"/>
	<path fill="#1C52BE" transform="scale(0.195312 0.195312)" d="M273.191 240.746C273.474 244.489 273.216 248.259 273.205 252.011L273.191 273.154C270.1 274.7 264.825 297.758 263.005 302.794L250.515 302.794C249.864 300.387 249.117 297.967 248.684 295.51C251.63 295.553 254.845 295.868 257.764 295.51C258.912 294.53 271.947 246.852 273.191 240.746Z"/>
	<path fill="#1C52BE" transform="scale(0.195312 0.195312)" d="M230.16 295.51L230.16 241.693C231.283 248.585 236.368 260.7 236.388 266.52C235.884 267.584 236.389 299.749 236.388 302.794C231.458 302.825 226.441 303.072 221.519 302.794L221.519 295.51C224.369 295.657 227.301 295.513 230.16 295.51Z"/>
	<path fill="#FEFEFE" transform="scale(0.195312 0.195312)" d="M307.024 260.815C287.102 246.757 304.112 220.957 332.631 227.722C341.089 229.728 344.462 233.659 348.83 240.746C352.864 240.581 355.21 249.564 356.057 252.48C351.929 253.922 347.763 255.034 343.528 256.111C342.512 253.834 341.562 251.574 340.234 249.457C339.479 249.346 338.535 249.454 337.761 249.457C337.258 248.087 337.002 246.688 336.107 245.507C333.621 246.583 326.571 243.182 320.667 247.339C319.019 248.498 318.876 250.59 317.54 251.7C327.007 255.931 337.61 255.196 345.999 262.733C347.83 264.378 348.812 266.565 350.489 268.252C356.693 270.003 357.438 283.599 356.083 288.323C348.54 314.612 303.24 301.309 307.908 292.588C301.535 288.205 299.255 284.507 296.812 277.17C300.658 276.173 304.241 274.659 307.908 273.154C310.351 275.938 311.664 279.568 314.427 282.105C321.74 288.82 338.941 287.068 337.761 274.751C335.828 275.779 302.806 267.551 307.024 260.815Z"/>
	<path fill="#1C52BE" transform="scale(0.195312 0.195312)" d="M350.489 268.252C356.693 270.003 357.438 283.599 356.083 288.323C348.54 314.612 303.24 301.309 307.908 292.588C319.057 299.283 338.368 299.41 347.035 288.431C351.672 282.558 351.268 275.265 350.489 268.252Z"/>
	<path fill="#1C52BE" transform="scale(0.195312 0.195312)" d="M317.54 251.7C299.467 244.346 326.635 228.111 336.107 245.507C333.621 246.583 326.571 243.182 320.667 247.339C319.019 248.498 318.876 250.59 317.54 251.7Z"/>
	<path fill="#1C52BE" transform="scale(0.195312 0.195312)" d="M337.761 274.751C335.828 275.779 302.806 267.551 307.024 260.815C315.731 265.322 334.837 266.984 337.761 274.751Z"/>
	<path fill="#1C52BE" transform="scale(0.195312 0.195312)" d="M348.83 240.746C352.864 240.581 355.21 249.564 356.057 252.48C351.929 253.922 347.763 255.034 343.528 256.111C342.512 253.834 341.562 251.574 340.234 249.457C343.59 248.044 346.953 247.249 350.489 246.447C350.033 244.507 349.457 242.637 348.83 240.746Z"/>
	<path fill="#FEB45E" transform="scale(0.195312 0.195312)" d="M152.988 107.391C157.748 107.95 161.232 108.813 165.256 111.523C167.35 113.449 169.058 115.266 170.666 117.606C176.164 125.148 174.958 130.953 175.722 139.615C177.762 142.492 179.943 144.804 182.891 146.759C187.747 153.498 196.228 159.947 201.913 166.634C194.994 173.459 181.238 186.504 175.722 193.524C175.707 196.886 175.461 200.415 175.722 203.757L180.313 203.757C180.856 204.07 181.393 204.071 182.008 204.098C182.04 206.876 181.76 209.817 181.479 212.584C181.56 219.149 179.745 222.366 174.914 226.348C173.495 226.714 172.126 226.905 170.666 227.014L170.648 227.225C170.15 233.747 173.885 252.171 166.552 252.48C164.553 251.814 163.175 250.749 161.549 249.457C153.985 242.735 145.974 235.231 138.012 229.045L136.402 227.505C133.748 226.94 131.154 227.005 128.453 227.014C117.661 225.828 98.2977 226.882 87.0531 227.014C83.4023 227.281 79.7003 227.112 76.0462 227.014C51.0036 227.086 30.8014 224.348 30.686 193.88L30.6921 155.695C30.689 147.977 29.8917 135.074 31.6289 128.172C36.4455 109.035 52.7087 107.379 68.5029 107.378L152.988 107.391Z"/>
	<path fill="#1C52BE" transform="scale(0.195312 0.195312)" d="M175.722 203.757L180.313 203.757C180.856 204.07 181.393 204.071 182.008 204.098C182.04 206.876 181.76 209.817 181.479 212.584C181.56 219.149 179.745 222.366 174.914 226.348C173.495 226.714 172.126 226.905 170.666 227.014C170.923 225.391 170.747 223.72 170.666 222.086C175.792 215.932 176.281 211.659 175.722 203.757Z"/>
	<path fill="#F78E25" transform="scale(0.195312 0.195312)" d="M75.4829 130.207L120.821 130.2C124.561 130.2 145.959 128.964 147.734 131.407C148.784 132.852 149.255 145.159 146.73 146.759L93.9471 146.742C90.7498 146.735 75.0191 148.462 73.6684 144.954C73.0444 143.333 71.9787 131.486 75.4829 130.207Z"/>
	<path fill="#F78E25" transform="scale(0.195312 0.195312)" d="M60.1363 175.531L132.213 175.522C135.707 175.523 144.443 174.708 147.408 176.752C151.125 179.314 148.208 184.159 144.312 184.834L71.5368 184.849C67.7733 184.87 55.6681 186.702 55.0364 181.264C54.4689 176.378 55.9148 175.757 60.1363 175.531Z"/>
	<path fill="#F78E25" transform="scale(0.195312 0.195312)" d="M57.9448 156.781L133.869 156.784C137.234 156.787 140.674 156.65 144.032 156.831C149.569 157.129 150.686 164.571 145.32 165.917C128.194 166.254 110.983 165.907 93.8489 165.906L69.8932 165.911C66.1461 165.914 56.1095 167.652 54.7224 162.785C54.0453 160.409 55.5719 157.462 57.9448 156.781Z"/>
	<path fill="#F78E25" transform="scale(0.195312 0.195312)" d="M59.3612 194.217L101.172 194.215C108.102 194.216 115.199 193.901 122.113 194.253C125.542 194.428 124.391 202.265 123.415 203.493C122.162 203.908 120.767 203.769 119.459 203.757C116.806 204.017 114.008 203.772 111.336 203.767L71.2367 203.76C66.7287 203.769 59.9291 204.966 55.7915 202.775C55.155 201.603 54.7744 200.511 54.4119 199.236C54.8782 197.457 55.4399 196.32 56.6771 194.951C57.5537 194.602 58.4409 194.417 59.3612 194.217Z"/>
	<path fill="#F78E25" transform="scale(0.195312 0.195312)" d="M132.05 194.217C137.07 194.181 156.498 192.381 146.73 203.757C144.764 204.196 132.566 204.171 131.34 202.818C129.711 201.021 129.963 195.741 132.05 194.217Z"/>
	<path fill="#A7D6FC" transform="scale(0.195312 0.195312)" d="M152.988 107.391C158.47 102.619 165.524 98.7808 171.87 95.2851C209.763 74.4113 255.27 68.6185 297.366 78.1924C391.598 99.6233 449.935 194.05 434.158 287.542C433.591 290.902 432.132 295.627 432.163 298.885L432.488 299.191C429.534 298.999 426.439 299.185 423.473 299.189L403.705 299.205C399.902 299.22 396.033 299.397 392.237 299.191C395.155 298.848 398.428 299.168 401.386 299.172L421.192 299.191C421.559 295.385 422.578 291.536 423.29 287.775C441.741 190.422 372.948 94.7931 273.863 84.7054C241.823 81.4434 191.082 90.4452 165.256 111.523C161.232 108.813 157.748 107.95 152.988 107.391Z"/>
	<defs>
		<linearGradient id="gradient_0" gradientUnits="userSpaceOnUse" x1="341.13754" y1="320.30588" x2="254.20992" y2="164.18336">
			<stop offset="0" stop-color="#194FB8"/>
			<stop offset="1" stop-color="#306CD3"/>
		</linearGradient>
	</defs>
	<path fill="url(#gradient_0)" transform="scale(0.195312 0.195312)" d="M301.744 203.757C302.891 203.853 303.928 203.95 305.074 203.757L349.895 203.745C360.612 203.743 374.532 200.476 380.155 211.639C381.931 217.214 381.25 224.112 381.249 229.927L381.242 298.054L381.011 298.744C377.881 299.745 373.932 298.976 370.665 299.191C370.337 292.821 370.662 286.262 370.665 279.871L370.669 240.936C370.67 235.23 371.244 224.816 370.261 219.544C368.538 210.297 355.796 212.564 349.226 212.571L198.598 212.67C192.848 212.728 187.229 212.956 181.479 212.584C181.76 209.817 182.04 206.876 182.008 204.098C181.393 204.071 180.856 204.07 180.313 203.757L182.891 203.757L208.486 203.757C209.774 203.98 211.028 203.851 212.321 203.757C222.088 204.145 232.016 203.748 241.799 203.747L301.744 203.757Z"/>
	<path fill="#E96262" transform="scale(0.195312 0.195312)" d="M300.175 200.226C301.054 198.73 313.281 185.91 315.031 184.357C317.835 181.868 321.775 185.152 319.577 188.277C316.796 192.229 308.808 199.892 305.074 203.757C303.928 203.95 302.891 203.853 301.744 203.757C301.08 202.589 300.607 201.499 300.175 200.226Z"/>
	<path fill="#E96262" transform="scale(0.195312 0.195312)" d="M195.071 189.98C192.103 186.411 195.389 181.584 198.798 186.221C202.921 189.436 214.395 198.367 212.321 203.757C211.028 203.851 209.774 203.98 208.486 203.757C203.837 199.403 199.599 194.483 195.071 189.98Z"/>
	<path fill="#F98783" transform="scale(0.195312 0.195312)" d="M250.515 107.391L261.327 107.391C261.81 108.736 262.155 110.148 262.546 111.523C262.72 112.627 262.942 113.744 263.005 114.859C265.597 115.672 268.065 116.603 270.328 118.141L271.332 117.606C273.042 116.011 274.642 114.941 276.734 113.908C278.961 117.236 282.248 119.715 284.634 122.95C283.264 124.901 281.605 126.621 280.242 128.579C282.25 130.994 281.418 134.602 285.091 134.966L288.876 134.966C291.196 136.371 289.887 146.265 289.859 148.915C288.128 149.235 286.393 149.378 284.634 149.44L284.303 149.537C281.548 150.321 282.423 153.076 280.242 155.646C282.088 156.96 283.646 158.211 285.091 159.981C282.296 163.854 278.123 168.046 274.27 170.927C272.628 169.45 271.013 167.932 269.223 166.634C267.527 167.668 263.07 168.686 263.005 170.927C263.066 172.47 263.066 173.988 263.005 175.531C258.939 176.611 254.688 176.343 250.515 176.31L250.515 176.31C249.556 174.982 248.852 173.93 248.684 172.276C248.547 171.531 248.578 170.967 248.684 170.22C246.697 169.177 244.313 168.103 242.617 166.634C241.187 168.121 239.747 169.557 238.204 170.927C235.676 169.867 229.453 162.385 227.521 159.981C228.79 158.328 230.358 157.013 231.914 155.646C230.669 153.756 230.42 151.371 229.042 149.44C227.04 149.375 225.023 149.433 223.019 149.44C222.917 144.623 223.015 139.785 223.019 134.966C225.038 135.09 227.022 135.042 229.042 134.966C229.864 133.659 232.193 130.093 231.914 128.579C230.366 126.795 228.86 124.894 227.521 122.95C230.048 119.693 233.295 116.63 236.388 113.908C238.362 115.181 240.194 116.672 242.023 118.141C244.18 117.458 246.596 115.874 248.684 114.859C249.23 112.349 249.756 109.847 250.515 107.391Z"/>
	<path fill="#E96262" transform="scale(0.195312 0.195312)" d="M269.223 166.634C271.287 164.628 273.727 163.146 275.709 160.96C277.223 159.291 278.365 156.924 280.242 155.646C282.088 156.96 283.646 158.211 285.091 159.981C282.296 163.854 278.123 168.046 274.27 170.927C272.628 169.45 271.013 167.932 269.223 166.634Z"/>
	<path fill="#E96262" transform="scale(0.195312 0.195312)" d="M285.091 134.966L288.876 134.966C291.196 136.371 289.887 146.265 289.859 148.915C288.128 149.235 286.393 149.378 284.634 149.44C283.982 149.484 283.552 149.501 282.914 149.308C282.767 148.685 282.893 135.26 282.979 135.091L285.091 134.966Z"/>
	<path fill="#E96262" transform="scale(0.195312 0.195312)" d="M271.332 117.606C273.042 116.011 274.642 114.941 276.734 113.908C278.961 117.236 282.248 119.715 284.634 122.95C283.264 124.901 281.605 126.621 280.242 128.579C279.07 128.275 273.091 120.191 270.328 118.141L271.332 117.606Z"/>
	<path fill="#E96262" transform="scale(0.195312 0.195312)" d="M231.914 155.646C236.51 160.282 236.96 161.825 242.617 166.634C241.187 168.121 239.747 169.557 238.204 170.927C235.676 169.867 229.453 162.385 227.521 159.981C228.79 158.328 230.358 157.013 231.914 155.646Z"/>
	<path fill="#E96262" transform="scale(0.195312 0.195312)" d="M236.388 113.908C238.362 115.181 240.194 116.672 242.023 118.141C236.264 122.15 234.993 126.089 231.914 128.579C230.366 126.795 228.86 124.894 227.521 122.95C230.048 119.693 233.295 116.63 236.388 113.908Z"/>
	<path fill="#E96262" transform="scale(0.195312 0.195312)" d="M223.019 134.966C225.038 135.09 227.022 135.042 229.042 134.966C228.993 139.739 228.761 144.68 229.042 149.44C227.04 149.375 225.023 149.433 223.019 149.44C222.917 144.623 223.015 139.785 223.019 134.966Z"/>
	<path fill="#E96262" transform="scale(0.195312 0.195312)" d="M248.684 172.276C248.695 171.515 248.737 170.784 248.816 170.028L249.221 169.889C254.042 170.986 260.923 169.573 262.7 170.056L263.005 170.927C263.066 172.47 263.066 173.988 263.005 175.531C258.939 176.611 254.688 176.343 250.515 176.31L250.515 176.31C249.556 174.982 248.852 173.93 248.684 172.276Z"/>
	<path fill="#FEFEFE" transform="scale(0.195312 0.195312)" d="M255.266 126.089C275.438 126.382 276.143 154.802 257.764 156.781C237.106 157.991 234.292 128.533 255.266 126.089Z"/>
	<path fill="#8DCC5B" transform="scale(0.195312 0.195312)" d="M218.815 187.806C223.446 187.66 228.121 187.803 232.757 187.804L282.782 187.792C285.365 187.79 294.99 186.895 296.856 188.471C298.995 190.279 297.828 193.968 295.076 194.217C286.36 194.216 218.871 194.828 216.786 193.703C213.68 192.026 215.152 188.348 218.815 187.806Z"/>
	<path fill="#E2306D" transform="scale(0.195312 0.195312)" d="M329.525 158.745C329.482 155.922 329.072 152.459 329.804 149.729C330.946 145.468 336.27 145.616 337.761 149.44C337.772 152.514 337.565 155.683 337.761 158.745C341.079 158.73 348.851 157.696 348.588 162.934C348.304 168.579 341.571 166.982 337.761 167.078C337.811 170.783 338.6 175.614 336.107 178.633C328.305 182.268 329.546 171.492 329.525 167.078C325.854 167.235 312.877 166.161 319.64 159.952C321.735 158.028 326.779 158.728 329.525 158.745Z"/>
</svg>
