<?xml version="1.0" encoding="utf-8" ?>
<svg xmlns="http://www.w3.org/2000/svg" xmlns:xlink="http://www.w3.org/1999/xlink" width="100" height="100">
	<path fill="#364596" transform="scale(0.195312 0.195312)" d="M172.68 76.2301C210.382 54.5958 269.832 54.4272 310.194 65.3304C318.708 67.6303 331.603 71.6794 339.106 76.2301C347.879 76.4017 352.204 80.7085 358.222 86.3385C480.153 158.148 487.586 330.185 373.932 414.349C369.637 417.53 365.182 421.672 359.86 422.951C354.727 430.906 344.95 436.356 335.356 435.056C296.986 456.459 238.331 456.332 197.513 443.003C191.769 441.127 184.639 438.882 179.943 435.056C164.441 435.84 161.713 433.21 151.488 421.524C142.181 419.632 116.009 395.109 108.788 387.429C62.5759 338.282 46.2654 263.193 65.3285 198.841C77.5098 157.72 103.72 122.174 138.024 96.6637C142.043 93.6753 148.153 88.7294 152.835 87.1634C158.23 81.3146 164.229 76.2436 172.68 76.2301Z"/>
	<path fill="#7AC9F8" transform="scale(0.195312 0.195312)" d="M358.222 86.3385C480.153 158.148 487.586 330.185 373.932 414.349C369.637 417.53 365.182 421.672 359.86 422.951C364.394 412.884 363.256 403.642 363.255 392.826L363.265 355.989C372.882 354.295 386.721 359.209 395.633 351.971C399.137 349.125 402.754 343.61 403.255 339.078C409.08 333.499 408.227 327.06 408.157 319.645L408.152 242.741C408.131 221.307 393.886 224.956 378.042 225.009C375.398 222.626 366.834 219.053 363.265 218.378L363.281 111.755C363.29 95.8068 363.468 100.243 358.222 86.3385Z"/>
	<path fill="#7AC9F8" transform="scale(0.195312 0.195312)" d="M151.488 421.524C142.181 419.632 116.009 395.109 108.788 387.429C62.5759 338.282 46.2654 263.193 65.3285 198.841C77.5098 157.72 103.72 122.174 138.024 96.6637C142.043 93.6753 148.153 88.7294 152.835 87.1634C147.235 99.0939 149.6 105.697 149.164 118.409C148.978 123.85 146.876 120.453 145.714 123.139C145.22 124.281 145.314 142.248 145.831 143.214C146.388 144.255 151.836 144.508 148.862 150.394C148.335 151.438 147.198 150.844 146.295 151.376C144.573 154.171 145.042 168.8 145.755 171.535C146.16 173.091 147.82 173.628 149.13 174.264C149.487 181.899 149.196 189.651 149.193 197.3L149.199 240.588L132.862 240.561C111.889 240.541 105.117 242.622 105.053 266.822L105.056 346.635C105.198 376.481 127.198 370.647 149.199 370.683L149.187 397.937C149.187 407.069 148.89 412.725 151.488 421.524Z"/>
	<path fill="#FEFEFE" transform="scale(0.195312 0.195312)" d="M128.357 188.992C131.826 189.007 135.874 188.542 139.273 189.037C142.532 189.511 144.883 195.035 134.148 194.938C118.304 194.795 106.481 199.017 102.344 215.808C102.072 217.665 102.005 220.503 101.24 222.173C99.9917 224.898 95.965 223.385 95.66 220.663C93.66 202.807 111.904 190.313 128.357 188.992Z"/>
	<path fill="#FEFEFE" transform="scale(0.195312 0.195312)" d="M128.357 203.851C130.273 203.76 139.005 203.445 137.138 207.715C134.806 213.049 121.399 204.615 116.237 220.196C115.097 224.043 110.613 224.31 110.243 221.007C109.211 211.808 119.927 204.574 128.357 203.851Z"/>
	<path fill="#7AC9F8" transform="scale(0.195312 0.195312)" d="M172.68 76.2301C210.382 54.5958 269.832 54.4272 310.194 65.3304C318.708 67.6303 331.603 71.6794 339.106 76.2301C337.179 76.5201 335.003 76.2863 333.047 76.2672L184.196 76.2299C180.383 76.2306 176.479 76.4362 172.68 76.2301Z"/>
	<path fill="#7AC9F8" transform="scale(0.195312 0.195312)" d="M179.943 435.056C183.079 434.824 186.314 435.018 189.46 435.041L326.988 435.036C329.742 435.031 332.617 434.852 335.356 435.056C296.986 456.459 238.331 456.332 197.513 443.003C191.769 441.127 184.639 438.882 179.943 435.056Z"/>
	<path fill="#49A9F9" transform="scale(0.195312 0.195312)" d="M363.265 341.932L385.098 341.943C391.899 341.969 397.379 343.041 403.255 339.078C402.754 343.61 399.137 349.125 395.633 351.971C386.721 359.209 372.882 354.295 363.265 355.989C362.823 351.473 363.246 346.499 363.265 341.932Z"/>
	<path fill="#49A9F9" transform="scale(0.195312 0.195312)" d="M363.265 218.378C366.834 219.053 375.398 222.626 378.042 225.009L363.265 225.009C363.375 222.796 363.315 220.592 363.265 218.378Z"/>
	<path fill="#FEFEFE" transform="scale(0.195312 0.195312)" d="M203.395 118.252L341.044 118.252L341.044 217.002L341.044 225.009C326.143 225.015 311.222 225.194 296.324 225.009C291.923 227.096 288.403 230.201 287.277 235.079L287.277 290.929L218.882 290.935C216.57 290.933 208.738 289.604 209.938 294.156C210.704 297.063 218.854 295.952 221.072 295.944L287.277 295.977L287.256 319.605C287.243 342.896 289.558 341.949 314.281 341.946L341.044 341.932L341.044 355.989L341.044 383.079L215.65 383.094C211.776 383.098 206.355 383.507 202.641 383.079C197.702 383.357 174.14 383.7 171.456 382.139C170.543 379.896 171.266 373.448 171.268 370.683C189.315 366.992 186.713 351.735 186.717 337.722L186.713 272.707C186.708 258.05 189.32 244.035 171.268 240.588L171.268 118.252L203.395 118.252Z"/>
	<path fill="#CFD8ED" transform="scale(0.195312 0.195312)" d="M171.268 118.252L203.395 118.252C202.387 118.407 201.519 118.368 200.508 118.252C200.291 131.241 200.511 144.27 200.511 157.263L200.515 267.004C200.521 272.024 200.857 277.193 200.508 282.19L271.769 282.19L271.759 257.435C271.764 252.682 271.29 247.073 272.363 242.439C273.625 236.984 282.078 233.259 287.277 235.079L287.277 290.929L218.882 290.935C216.57 290.933 208.738 289.604 209.938 294.156C210.704 297.063 218.854 295.952 221.072 295.944L287.277 295.977L287.256 319.605C287.243 342.896 289.558 341.949 314.281 341.946L341.044 341.932L341.044 355.989L341.044 383.079L215.65 383.094C211.776 383.098 206.355 383.507 202.641 383.079C197.702 383.357 174.14 383.7 171.456 382.139C170.543 379.896 171.266 373.448 171.268 370.683C189.315 366.992 186.713 351.735 186.717 337.722L186.713 272.707C186.708 258.05 189.32 244.035 171.268 240.588L171.268 118.252Z"/>
	<path fill="#FEFEFE" transform="scale(0.195312 0.195312)" d="M198.304 305.089C206.447 305.453 214.738 305.095 222.9 305.092L271.769 305.089L271.755 331.546C271.754 350.454 268.54 356.111 291.468 355.993L329.853 356.01C333.581 356.029 337.326 356.329 341.044 355.989L341.044 383.079L215.65 383.094C211.776 383.098 206.355 383.507 202.641 383.079C201.232 382.811 199.73 383.005 198.304 383.079L198.304 305.089Z"/>
	<path fill="#364596" transform="scale(0.195312 0.195312)" d="M200.508 290.22C204.841 290.393 204.287 294.953 201.459 296.804C196.417 296.791 197.038 292.12 200.508 290.22Z"/>
	<path fill="#CFD8ED" transform="scale(0.195312 0.195312)" d="M296.324 225.009C293.116 215.286 313.687 216.995 317.835 216.995L341.044 217.002L341.044 225.009C326.143 225.015 311.222 225.194 296.324 225.009Z"/>
	<path fill="#364596" transform="scale(0.195312 0.195312)" d="M255.268 152.223C256.566 152.196 282.707 167.7 285.278 169.152C287.574 170.449 302.277 177.336 301.403 180.021C300.683 182.234 294.891 185.018 292.924 186.22C292.895 191.179 294.829 213.05 291.079 214.784C286.775 214.784 288.004 207.596 288.008 204.981L288.014 188.992L282.197 192.188C282.166 197.472 283.432 210.218 280.642 214.303C272.361 226.424 232.896 225.736 230.22 211.063L230.22 193.573C227.089 191.126 223.369 189.148 219.967 187.078L219.967 205.692C229.715 209.627 227.786 222.347 226.966 231.367C226.455 237 220.124 231.232 217.863 229.972C216.169 231.053 210.936 235.907 209.272 232.573C207.285 228.591 206.467 209.62 214.755 205.692C214.488 198.549 214.722 191.307 214.755 184.154C212.297 183.074 209.033 181.747 209.491 178.549C212.646 175.625 251.674 153.494 255.268 152.223Z"/>
	<path fill="#FCAD50" transform="scale(0.195312 0.195312)" d="M255.268 157.957C265.313 163.036 283.773 173.435 292.924 179.845C286.644 185.025 264.199 197.171 255.268 201.628C254.049 201.853 222.168 183.284 217.863 179.845C223.309 175.31 249.115 160.695 255.268 157.957Z"/>
	<path fill="#ED7A82" transform="scale(0.195312 0.195312)" d="M277.297 194.922C277.699 195.731 277.301 207.87 277.297 210.007C270.789 220.701 237.271 220.796 234.997 208.698L234.997 196.368C259.327 209.735 250.553 210.327 277.297 194.922Z"/>
	<path fill="#49A9F9" transform="scale(0.195312 0.195312)" d="M216.768 211.063C224.512 209.969 222.307 222.147 222.263 226.838C221.024 225.596 219.857 224.379 218.358 223.447C216.758 224.337 215.215 225.733 213.749 226.838C213.476 222.731 211.965 212.88 216.768 211.063Z"/>
	<path fill="#FEFEFE" transform="scale(0.195312 0.195312)" d="M299.37 229.972C305.142 229.766 310.997 229.961 316.776 229.962L379.059 229.961C386.792 229.952 402.816 227.083 403.23 238.582C403.426 244.019 403.262 249.52 403.259 254.962L403.264 313.651C403.262 322.814 406.159 333.184 396.289 336.773C392.003 337.115 387.426 336.785 383.107 336.783L319.027 336.78C312.539 336.788 305.95 337.036 299.471 336.748C290.366 336.344 292.184 328.548 292.198 322.141L292.208 260.001C292.199 250.649 288.347 232.213 299.37 229.972Z"/>
	<defs>
		<linearGradient id="gradient_0" gradientUnits="userSpaceOnUse" x1="305.422" y1="262.35886" x2="349.31927" y2="262.13992">
			<stop offset="0" stop-color="#29A66B"/>
			<stop offset="1" stop-color="#41D49D"/>
		</linearGradient>
	</defs>
	<path fill="url(#gradient_0)" transform="scale(0.195312 0.195312)" d="M310.789 241.835L331.787 241.816C336.964 241.818 347.939 239.82 349.534 246.717C350.178 249.505 350.183 272.644 349.78 276.423C349.403 279.948 347.928 282.314 344.262 282.953C336.954 283.072 329.633 282.944 322.324 282.933C317.883 282.927 306.603 284.906 305.338 278.763C304.573 275.045 304.777 250.866 305.303 246.906C305.704 243.886 307.851 242.28 310.789 241.835Z"/>
	<path fill="#C3D762" transform="scale(0.195312 0.195312)" d="M318.479 249.534C325.498 254.04 333.541 256.433 340.651 260.638L340.642 261.022L341.022 261.159L341.204 261.011L341.441 261.192L341.431 261.645C339.966 264.109 335.902 265.594 333.375 266.821C331.034 268.039 319.085 275.658 317.967 272.673C316.868 269.737 316.869 253.221 318.479 249.534Z"/>
	<path fill="#364596" transform="scale(0.195312 0.195312)" d="M372.996 304.197C375.427 304.201 388.246 303.517 389.559 304.721C396.805 311.368 366.932 308.957 364.831 308.957L321.863 308.966C318.877 308.949 302.253 311.234 305.172 305.354C307.582 303.283 312.752 304.173 315.673 304.194L372.996 304.197Z"/>
	<path fill="#364596" transform="scale(0.195312 0.195312)" d="M306.57 319.07C311.95 318.863 348.686 318.046 350.745 320.354C351.103 321.727 351.001 323.126 349.815 324.009C341.34 324.139 314.306 325.227 306.876 323.824C303.985 323.278 304.242 320.096 306.57 319.07Z"/>
	<path fill="#364596" transform="scale(0.195312 0.195312)" d="M363.265 244.508C367.139 244.472 386.387 244.073 388.621 244.987C391.706 246.25 390.213 249.12 387.619 249.534C383.719 249.593 364.111 249.992 361.883 249.039C359.164 247.876 361.109 245.049 363.265 244.508Z"/>
	<path fill="#364596" transform="scale(0.195312 0.195312)" d="M362.082 319.07C368.987 318.71 380.051 318.628 387.068 319.013C390.3 319.191 391.839 322.516 388.759 324.009C384.701 323.965 361.694 325.352 360.163 322.133C359.474 320.684 360.784 319.483 362.082 319.07Z"/>
	<path fill="#364596" transform="scale(0.195312 0.195312)" d="M361.468 272.999C363.77 272.972 398.435 270.086 388.759 277.916C385.785 277.953 354.148 280.862 361.468 272.999Z"/>
	<path fill="#364596" transform="scale(0.195312 0.195312)" d="M361.468 258.71C366.337 258.466 371.348 258.707 376.228 258.692C378.734 258.685 394.814 256.719 388.759 263.5C383.452 263.882 365.186 264.019 361.257 263.19C359.672 261.943 360.415 260.092 361.468 258.71Z"/>
	<path fill="#CFD8ED" transform="scale(0.195312 0.195312)" d="M154.214 240.588L154.213 153.914C154.213 136.537 154.352 119.147 154.1 101.772C153.89 87.2897 165.515 81.3693 178.499 81.2913L322.649 81.2826C328.211 81.2641 334.714 80.7211 340.118 81.4845C357.894 83.9959 358.233 100.114 358.232 113.607L358.222 213.869C358.242 217.581 358.273 221.297 358.222 225.009L346.113 225.009L346.113 217.002L346.115 151.976C346.114 140.784 346.425 129.504 346.07 118.323C345.846 111.277 342.307 113.211 336.034 113.211L206.523 113.205C194.173 113.205 181.782 112.99 169.436 113.232C164.095 113.337 166.264 127.584 166.264 132.076L166.272 240.588L154.214 240.588Z"/>
	<path fill="#A39CCC" transform="scale(0.195312 0.195312)" d="M358.222 217.002C358.145 215.941 358.153 214.93 358.222 213.869C358.242 217.581 358.273 221.297 358.222 225.009L346.113 225.009L346.113 217.002C350.111 217.199 354.214 217.004 358.222 217.002Z"/>
	<path fill="#364596" transform="scale(0.195312 0.195312)" d="M259.172 94.5652L273.043 94.5458C276.081 94.5136 279.17 94.3015 282.197 94.5652C284.331 96.2081 286.071 99.0801 283.705 101.388C281.251 103.782 271.915 102.919 268.375 102.895C267.541 102.894 234.829 105.32 243.312 96.4145C245.863 93.7359 255.372 94.5524 259.172 94.5652Z"/>
	<path fill="#364596" transform="scale(0.195312 0.195312)" d="M231.816 95.4993C236.851 95.7601 235.977 100.858 232.704 102.895C227.864 102.311 227.936 97.3015 231.816 95.4993Z"/>
	<path fill="#CFD8ED" transform="scale(0.195312 0.195312)" d="M345.263 341.932L358.222 341.932C358.077 353.472 358.352 365.022 358.222 376.563L358.239 398.047C358.24 403.64 358.871 409.945 357.468 415.372C353.076 432.351 335.735 430.024 322.63 430.014L212.523 430.004C200.229 430.003 187.919 430.159 175.628 430.016C156.468 429.795 154.175 414.761 154.194 399.176L154.229 380.408C154.236 377.189 154.389 373.894 154.214 370.683L166.272 370.683C166.399 375.38 164.129 382.623 167.776 386.017C171.397 389.387 193.771 387.979 199.891 387.98L333.277 387.963C336.052 387.97 342.71 389.101 344.85 386.899L345.263 385.784C345.026 380.91 345.248 375.912 345.251 371.024L345.263 341.932Z"/>
	<path fill="#A39CCC" transform="scale(0.195312 0.195312)" d="M345.263 341.932L358.222 341.932C358.077 353.472 358.352 365.022 358.222 376.563C357.906 369.743 358.25 362.825 358.222 355.989L345.263 355.989L345.284 377.092C345.295 379.785 345.819 383.191 345.263 385.784C345.026 380.91 345.248 375.912 345.251 371.024L345.263 341.932Z"/>
	<path fill="#364596" transform="scale(0.195312 0.195312)" d="M253.908 393.566C273.133 392.114 277.665 417.507 259.172 422.951C239.335 426.022 234.233 396.894 253.908 393.566Z"/>
	<path fill="#FEFEFE" transform="scale(0.195312 0.195312)" d="M255.268 398.578C268.634 398.741 269.874 415.111 257.722 417.988C244.932 419.527 241.977 400.784 255.268 398.578Z"/>
	<path fill="#49A9F9" transform="scale(0.195312 0.195312)" d="M110.337 332.774L110.327 285.891C110.327 277.305 110.156 268.682 110.389 260.102C110.737 247.282 118.719 245.095 130.197 245.763L157.016 245.755C176.428 245.736 181.546 244.064 181.51 267.357L181.485 283.187C181.474 299.695 182.014 316.276 181.491 332.774C181.493 337.894 182.123 351.785 181.012 355.988C178.128 366.897 167.142 365.347 158.539 365.33L135.527 365.322C105.676 365.454 110.29 357.753 110.337 332.774Z"/>
	<path fill="#ED7A82" transform="scale(0.195312 0.195312)" d="M126.529 332.774L126.529 332.774C129.551 332.941 132.504 333.017 135.527 332.774C135.644 336.432 135.41 340.488 138.274 343.251C141.586 346.447 150.199 346.826 153.511 343.291C156.098 340.531 156.067 336.318 156.415 332.774C159.727 333.023 162.959 333.045 166.272 332.774C168.875 333.351 178.311 332.765 181.491 332.774C181.493 337.894 182.123 351.785 181.012 355.988C178.128 366.897 167.142 365.347 158.539 365.33L135.527 365.322C105.676 365.454 110.29 357.753 110.337 332.774C114.147 332.757 123.304 333.347 126.529 332.774Z"/>
	<path fill="#C4728D" transform="scale(0.195312 0.195312)" d="M126.529 332.774L126.529 332.774C126.311 340.319 125.348 355.56 130.84 361.175C132.202 362.568 134.508 363.725 135.527 365.322C105.676 365.454 110.29 357.753 110.337 332.774C114.147 332.757 123.304 333.347 126.529 332.774Z"/>
	<path fill="#364596" transform="scale(0.195312 0.195312)" d="M135.527 312.698C135.501 309.361 134.965 304.422 137.406 301.807C140.82 298.149 151.016 298.327 154.483 301.817C157.044 304.394 156.456 309.329 156.415 312.698C160.492 312.527 164.854 311.982 168.155 314.954C173.138 319.44 171.348 329.12 166.272 332.774C162.959 333.045 159.727 333.023 156.415 332.774C156.067 336.318 156.098 340.531 153.511 343.291C150.199 346.826 141.586 346.447 138.274 343.251C135.41 340.488 135.644 336.432 135.527 332.774C132.504 333.017 129.551 332.941 126.529 332.774L126.529 332.774C120.352 326.864 119.219 318.106 126.529 312.698C129.472 312.361 132.559 312.727 135.527 312.698Z"/>
	<path fill="#F1D173" transform="scale(0.195312 0.195312)" d="M145.506 304.197C153.825 303.915 151.514 311.175 151.488 317.265C154.967 317.288 161.745 316.211 164.476 318.64C166.515 320.453 166.556 325.008 164.625 326.903C162.37 329.117 154.7 328.253 151.488 328.23C151.419 332.399 153.366 339.672 147.63 340.485C138.018 340.656 140.597 336.05 140.258 328.23C137.031 328.12 130.211 329.323 127.86 327.001C126.111 325.274 125.78 320.455 127.645 318.676C129.993 316.435 137.016 317.256 140.258 317.265C140.229 309.421 137.414 304.339 145.506 304.197Z"/>
	<path fill="#2884F3" transform="scale(0.195312 0.195312)" d="M110.337 332.774L110.327 285.891C110.327 277.305 110.156 268.682 110.389 260.102C110.737 247.282 118.719 245.095 130.197 245.763C124.142 251.325 126.538 264.619 126.533 272.736L126.529 312.698C119.219 318.106 120.352 326.864 126.529 332.774C123.304 333.347 114.147 332.757 110.337 332.774Z"/>
	<path fill="#364596" transform="scale(0.195312 0.195312)" d="M145.506 263.5C160.597 261.251 164.28 285.268 147.63 288.047C131.13 288.315 129.605 266.01 145.506 263.5Z"/>
	<path fill="#F1D173" transform="scale(0.195312 0.195312)" d="M145.506 268.289C155.289 267.872 156.601 280.395 147.63 282.953C138.406 284.243 136.274 270.467 145.506 268.289Z"/>
</svg>
