<?xml version="1.0" encoding="utf-8" ?>
<svg xmlns="http://www.w3.org/2000/svg" xmlns:xlink="http://www.w3.org/1999/xlink" width="100" height="100">
	<defs>
		<linearGradient id="gradient_0" gradientUnits="userSpaceOnUse" x1="179.97768" y1="157.76527" x2="332.05261" y2="143.30316">
			<stop offset="0" stop-color="#4673E2"/>
			<stop offset="1" stop-color="#75A5F8"/>
		</linearGradient>
	</defs>
	<path fill="url(#gradient_0)" transform="scale(0.195312 0.195312)" d="M250.128 74.958Q251.995 74.813 253.867 74.7597Q255.738 74.7064 257.61 74.745Q259.483 74.7837 261.35 74.9141Q263.218 75.0445 265.078 75.2664Q266.937 75.4884 268.783 75.8012Q270.629 76.1141 272.458 76.5172Q274.286 76.9203 276.093 77.4126Q277.9 77.9049 279.68 78.4853Q281.46 79.0656 283.21 79.7326Q284.96 80.3996 286.674 81.1517Q288.389 81.9037 290.065 82.739Q291.741 83.5743 293.374 84.4908Q295.007 85.4072 296.593 86.4028Q298.179 87.3983 299.714 88.4704Q301.249 89.5425 302.73 90.6886Q304.21 91.8348 305.633 93.0522Q307.056 94.2696 308.417 95.5554Q309.778 96.8411 311.075 98.1921Q312.371 99.5431 313.6 100.956Q314.829 102.369 315.987 103.841Q317.145 105.312 318.229 106.839Q319.313 108.365 320.321 109.943Q321.329 111.521 322.259 113.147Q323.188 114.772 324.037 116.442Q324.885 118.111 325.651 119.819Q326.417 121.528 327.098 123.273Q327.779 125.017 328.373 126.792Q328.968 128.568 329.474 130.371Q329.981 132.173 330.399 133.999Q330.816 135.824 331.144 137.668Q331.471 139.511 331.708 141.369Q331.945 143.226 332.09 145.093Q332.235 146.96 332.289 148.832Q332.342 150.703 332.304 152.575Q332.266 154.447 332.135 156.315Q332.005 158.183 331.783 160.043Q331.562 161.902 331.249 163.748Q330.937 165.594 330.534 167.423Q330.131 169.252 329.639 171.058Q329.147 172.865 328.567 174.645Q327.986 176.426 327.32 178.175Q326.653 179.925 325.901 181.64Q325.149 183.355 324.314 185.031Q323.479 186.707 322.563 188.34Q321.647 189.973 320.651 191.559Q319.656 193.145 318.584 194.68Q317.512 196.216 316.366 197.696Q315.22 199.177 314.003 200.6Q312.786 202.023 311.5 203.385Q310.215 204.746 308.864 206.043Q307.513 207.339 306.1 208.568Q304.687 209.797 303.216 210.955Q301.745 212.113 300.218 213.198Q298.692 214.282 297.114 215.291Q295.536 216.299 293.911 217.229Q292.285 218.158 290.616 219.007Q288.947 219.856 287.239 220.622Q285.53 221.388 283.786 222.069Q282.042 222.75 280.266 223.345Q278.49 223.939 276.688 224.446Q274.885 224.953 273.06 225.371Q271.235 225.789 269.391 226.117Q267.548 226.445 265.69 226.681Q263.833 226.918 261.966 227.064Q260.099 227.21 258.227 227.263Q256.355 227.317 254.482 227.279Q252.61 227.241 250.742 227.111Q248.873 226.981 247.014 226.759Q245.154 226.538 243.308 226.225Q241.461 225.913 239.632 225.51Q237.803 225.107 235.996 224.615Q234.189 224.123 232.408 223.543Q230.628 222.963 228.878 222.296Q227.128 221.629 225.412 220.878Q223.697 220.126 222.021 219.291Q220.345 218.455 218.711 217.539Q217.078 216.623 215.492 215.627Q213.905 214.632 212.37 213.56Q210.834 212.488 209.353 211.342Q207.872 210.195 206.449 208.978Q205.026 207.761 203.664 206.475Q202.302 205.189 201.005 203.838Q199.708 202.487 198.479 201.074Q197.25 199.661 196.092 198.189Q194.934 196.717 193.849 195.191Q192.765 193.664 191.756 192.086Q190.748 190.508 189.818 188.882Q188.888 187.256 188.04 185.587Q187.191 183.917 186.425 182.208Q185.659 180.499 184.978 178.755Q184.297 177.01 183.702 175.234Q183.107 173.459 182.6 171.656Q182.094 169.853 181.676 168.027Q181.258 166.202 180.931 164.358Q180.603 162.514 180.366 160.656Q180.129 158.798 179.984 156.931Q179.839 155.064 179.785 153.192Q179.732 151.32 179.77 149.447Q179.808 147.575 179.939 145.707Q180.069 143.838 180.291 141.979Q180.512 140.119 180.825 138.273Q181.138 136.426 181.541 134.597Q181.944 132.768 182.436 130.961Q182.928 129.154 183.509 127.374Q184.089 125.593 184.756 123.843Q185.423 122.093 186.175 120.378Q186.927 118.663 187.763 116.987Q188.598 115.311 189.515 113.677Q190.431 112.044 191.427 110.458Q192.422 108.872 193.495 107.336Q194.567 105.801 195.713 104.32Q196.86 102.839 198.077 101.416Q199.295 99.9929 200.581 98.6314Q201.867 97.2699 203.218 95.9732Q204.569 94.6764 205.983 93.4476Q207.396 92.2187 208.868 91.0606Q210.339 89.9026 211.866 88.8182Q213.393 87.7338 214.972 86.7256Q216.55 85.7174 218.176 84.7879Q219.801 83.8583 221.471 83.0097Q223.141 82.1611 224.85 81.3954Q226.559 80.6297 228.303 79.9489Q230.048 79.268 231.824 78.6735Q233.6 78.0791 235.403 77.5725Q237.206 77.0659 239.032 76.6484Q240.857 76.2309 242.701 75.9035Q244.545 75.5761 246.403 75.3396Q248.261 75.1031 250.128 74.958ZM213.323 101.72C216.722 104.92 220.516 105.972 221.856 110.973C221.036 114.196 219.23 116.077 215.877 116.768C216.32 120.981 209.461 134.23 210.368 145.151C214.448 145.407 218.685 145.313 222.768 145.151C222.749 141.696 222.014 135.727 224.634 133.162C226.761 131.079 230.519 131.042 232.566 133.263C234.996 135.899 234.24 141.797 234.216 145.151L278.279 145.151C278.759 138.614 278.345 131.19 277.246 124.722C269.619 126.547 253.475 128.26 246.053 125.372C239.788 122.935 241.305 116.577 247.377 114.393C256.588 115.334 265.999 116.716 274.998 113.553C272.59 105.736 265.145 89.7776 257.053 87.6338C246.508 84.8399 239.977 108.719 235.616 111.253C232.787 112.896 229.204 111.455 227.783 108.613C224.997 103.036 232.569 95.2998 234.216 90.1315C226.285 93.6501 220.368 96.7451 213.323 101.72ZM287.706 180.784C294.675 183.805 300.227 188.16 306.114 192.823C308.255 190.571 310.032 188.089 311.73 185.493C317.578 176.698 320.207 167.096 321.477 156.73L290.053 156.73L289.558 156.888C289.764 164.966 287.768 172.814 287.706 180.784ZM288.654 121.108C289.598 129.134 290.178 137.061 290.053 145.151L304.375 145.151C310.073 145.168 315.78 145.248 321.477 145.151C318.854 132.641 317.023 124.868 309.034 114.276C308.102 113.04 307.451 111.002 306.114 110.188C300.89 114.189 294.952 119.005 288.654 121.108ZM236.064 176.382C252.827 172.836 260.375 173.304 276.324 176.382C277.383 174.985 278.299 159.391 278.279 156.73L234.216 156.73C234.682 163.286 235.693 169.847 236.064 176.382ZM275.85 212.442C278.99 210.982 282.081 209.469 285.259 208.085C289.491 205.977 293.632 203.669 297.334 200.701C293.474 197.457 289.28 194.848 285.259 191.842C282.472 198.552 278.092 206.583 275.85 212.442ZM225.366 180.784C224.133 172.726 223.218 164.897 223.288 156.73C218.992 156.59 214.667 156.703 210.368 156.73C210.929 164.93 213.472 171.726 215.003 179.498C215.611 181 216.154 182.589 217.038 183.953C219.83 182.479 222.245 181.363 225.366 180.784ZM286.142 110.188C288.405 108.454 290.836 106.97 293.096 105.25C294.524 104.121 296.061 103.021 297.334 101.72C292.317 98.2804 283.09 91.727 277.246 90.85C280.731 97.2504 283.417 103.441 286.142 110.188ZM226.882 191.842C222.664 194.12 217.855 196.779 215.003 200.701C219.646 203.556 224.009 206.594 228.924 209.003C231.506 210.197 234.084 211.504 236.772 212.442C235.413 209.311 227.788 192.343 227.197 191.82L226.882 191.842ZM191.083 145.151C192.852 145.14 194.652 145.06 196.417 145.151C199.129 143.781 203.362 144.36 206.349 144.396C202.472 143.474 193.82 144.325 194.647 138.03C195.29 133.131 201.397 118.388 205.235 115.506C207.488 115.097 211.236 116.078 212.259 115.506C209.803 113.844 207.389 112.243 205.235 110.188C195.562 124.919 195.081 129.687 191.083 145.151ZM273.682 188.087C266.98 185.756 259.399 185.051 252.312 185.493C247.606 186.053 242.903 186.83 238.331 188.087C240.433 198.072 246.635 209.769 255.758 214.965L257.753 213.564C266.904 206.093 270.936 199.693 273.682 188.087Z"/>
	<path fill="#DBE5F4" transform="scale(0.195312 0.195312)" d="M194.6 156.73L210.368 156.73C210.929 164.93 213.472 171.726 215.003 179.498C215.611 181 216.154 182.589 217.038 183.953C214.056 185.761 211.074 187.627 208.241 189.662C207.398 190.502 206.218 191.162 205.235 191.842C198.645 177.983 193.435 175.344 191.083 156.73L194.6 156.73Z"/>
	<path fill="#EAE9F1" transform="scale(0.195312 0.195312)" d="M191.083 156.73L194.6 156.73C195.788 158.591 195.161 161.657 195.621 163.813C196.806 169.361 201.516 183.478 206.108 186.251C209.232 189.158 210.81 184.237 208.241 189.662C207.398 190.502 206.218 191.162 205.235 191.842C198.645 177.983 193.435 175.344 191.083 156.73Z"/>
	<path fill="#DBE5F4" transform="scale(0.195312 0.195312)" d="M205.235 115.506C207.488 115.097 211.236 116.078 212.259 115.506C213.453 115.998 214.607 116.5 215.877 116.768C216.32 120.981 209.461 134.23 210.368 145.151C205.831 144.78 200.984 145.132 196.417 145.151C199.129 143.781 203.362 144.36 206.349 144.396C202.472 143.474 193.82 144.325 194.647 138.03C195.29 133.131 201.397 118.388 205.235 115.506Z"/>
	<path fill="#F98989" transform="scale(0.195312 0.195312)" d="M257.753 254.523C293.317 216.814 334.635 264.769 306.333 294.156C296.126 304.754 285.716 315.18 275.85 326.104C277.754 328.895 279.521 331.604 280.947 334.68C282.541 339.806 283.405 345.172 282.41 350.524C280.756 356.569 277.668 360.209 276.324 364.611C270.785 367.442 270.849 370.651 261.562 374.233C254.608 375.197 246.417 373.911 240.972 369.25C239.243 367.772 238.085 365.757 236.064 364.611C234.166 359.728 231.745 356.452 229.853 350.524C229.019 344.666 229.417 339.415 231.491 333.884C233.064 331.013 234.485 328.49 236.772 326.104C232.821 321.014 228.207 316.593 223.698 312.015L209.213 297.135C199.638 287.338 193.757 281.882 197.336 265.903C201.245 248.452 219.606 238.221 236.772 242.134C248.255 245.048 249.184 248.095 257.753 254.523Z"/>
	<path fill="#29D2AB" transform="scale(0.195312 0.195312)" d="M247.377 318.557C254.388 316.75 261.597 317.291 268.069 320.517C271.009 321.99 273.35 324.005 275.85 326.104C277.754 328.895 279.521 331.604 280.947 334.68C282.541 339.806 283.405 345.172 282.41 350.524C280.756 356.569 277.668 360.209 276.324 364.611C270.785 367.442 270.849 370.651 261.562 374.233C254.608 375.197 246.417 373.911 240.972 369.25C239.243 367.772 238.085 365.757 236.064 364.611C234.166 359.728 231.745 356.452 229.853 350.524C229.019 344.666 229.417 339.415 231.491 333.884C233.064 331.013 234.485 328.49 236.772 326.104C239.837 322.54 243.157 320.525 247.377 318.557Z"/>
	<path fill="#E75A7C" transform="scale(0.195312 0.195312)" d="M236.772 326.104C232.821 321.014 228.207 316.593 223.698 312.015L209.213 297.135C199.638 287.338 193.757 281.882 197.336 265.903C201.245 248.452 219.606 238.221 236.772 242.134C236.106 243.98 231.27 244.815 229.57 245.625C212.486 253.768 210.089 277.801 221.233 292.025C224.125 295.715 243.661 316.474 247.377 318.557C243.157 320.525 239.837 322.54 236.772 326.104Z"/>
	<path fill="#29D2AB" transform="scale(0.195312 0.195312)" d="M225.366 436.512C201.227 436.585 204.983 427.387 205.238 407.406C205.549 383.035 225.6 376.357 245.602 376.536L257.679 376.56C272.57 376.564 286.596 374.12 298.093 386.309C308.744 397.6 308.217 409.688 307.764 424.219C307.425 435.085 299.272 436.938 290.053 436.512C287.015 436.756 283.985 436.694 280.947 436.512L228.924 436.512L225.366 436.512Z"/>
	<path fill="#00A685" transform="scale(0.195312 0.195312)" d="M280.947 436.512C278.337 431.307 278.438 415.229 279.99 410.882C281.819 405.761 289.275 406.232 291.281 411.068C293.061 415.359 292.027 431.117 290.053 436.512C287.015 436.756 283.985 436.694 280.947 436.512Z"/>
	<path fill="#00A685" transform="scale(0.195312 0.195312)" d="M225.366 436.512C218.018 435.511 219.977 417.307 220.764 412.541C221.861 405.902 229.647 405.705 232.805 411.283C234.439 414.17 233.892 432.292 231.491 436.512C230.613 436.413 229.804 436.449 228.924 436.512L225.366 436.512Z"/>
	<path fill="#29D2AB" transform="scale(0.195312 0.195312)" d="M88.5836 436.512C73.6225 436.204 70.6018 432.912 70.5797 417.608C70.5621 405.36 71.7709 393.854 81.5619 385.035C93.7377 374.069 111.436 376.487 126.558 376.603C141.006 376.714 154.61 375.669 165.296 387.705C172.813 396.17 173.722 405.626 173.74 416.458C173.765 431.429 172.878 436.493 156.735 436.512L149.678 436.512C130.415 436.324 109.399 437.49 90.4019 436.512L88.5836 436.512Z"/>
	<path fill="#00A685" transform="scale(0.195312 0.195312)" d="M90.4019 407.695C94.7677 406.661 99.0842 407.181 100.047 412.298C100.918 416.928 100.922 431.386 98.8901 436.512C95.9689 436.211 93.317 436.202 90.4019 436.512L88.5836 436.512C87.1198 430.664 85.447 412.23 90.4019 407.695Z"/>
	<path fill="#00A685" transform="scale(0.195312 0.195312)" d="M149.678 436.512C144.328 434.75 145.775 413.573 146.68 410.988C148.658 405.34 156.885 406.405 158.57 411.959C159.415 414.745 160.462 434.907 156.735 436.512L149.678 436.512Z"/>
	<path fill="#69BFFA" transform="scale(0.195312 0.195312)" d="M381.122 376.556L398.717 376.532C432.337 376.459 440.921 390.526 440.768 422.377C440.726 431.17 434.901 438.436 425.661 436.512C421.796 436.515 417.965 436.637 414.097 436.512L380.963 436.513C375.589 436.518 370.097 436.901 364.746 436.512L361.509 436.512C337.213 439.284 339.929 427.291 340 409.375C340.037 400.101 343.53 391.901 350.177 385.394C359.485 376.282 368.952 376.478 381.122 376.556Z"/>
	<path fill="#4C98F9" transform="scale(0.195312 0.195312)" d="M414.097 436.512C412.856 431.926 411.921 413.963 414.187 410.028C417.156 404.872 424.643 406.646 425.539 412.497C426.634 419.653 425.161 428.921 425.661 436.512C421.796 436.515 417.965 436.637 414.097 436.512Z"/>
	<path fill="#4C98F9" transform="scale(0.195312 0.195312)" d="M355.897 436.512C353.79 432.229 350.305 407.611 360.606 407.695C364.355 408.028 366.059 409.298 366.64 413.052C367.863 420.966 368.03 429.366 364.746 436.512L361.509 436.512C359.693 436.315 357.73 436.483 355.897 436.512Z"/>
	<path fill="#69BFFA" transform="scale(0.195312 0.195312)" d="M354.279 267.01C358.48 266.943 362.701 266.941 366.901 267.01C365.697 285.207 359.837 297.652 347.97 310.246L321.413 338.789C319.708 340.609 317.823 343.238 315.728 344.571C301.738 361.071 296.182 360.616 276.324 364.611C277.668 360.209 280.756 356.569 282.41 350.524C283.405 345.172 282.541 339.806 280.947 334.68C291.007 324.007 301.426 313.641 311.58 303.052L323.439 290.656C331.738 281.984 337.246 275.478 349.283 283.791C351.192 278.258 352.763 272.659 354.279 267.01Z"/>
	<path fill="#4C98F9" transform="scale(0.195312 0.195312)" d="M282.41 350.524C287.41 349.59 292.499 349.201 297.504 348.271C300.181 347.774 314.344 344.071 315.728 344.571C301.738 361.071 296.182 360.616 276.324 364.611C277.668 360.209 280.756 356.569 282.41 350.524Z"/>
	<path fill="#69BFFA" transform="scale(0.195312 0.195312)" d="M145.121 268.52L151.959 268.52L158.014 268.52C159.048 275.006 160.537 282.089 163.891 287.808C173.748 267.897 185.622 286.484 194.287 295.383L222.458 324.32C225.527 327.456 228.352 330.813 231.491 333.884C229.417 339.415 229.019 344.666 229.853 350.524C231.745 356.452 234.166 359.728 236.064 364.611C218.042 362.845 208.54 355.996 196.333 343.413L179.492 325.735C163.634 309.105 153.178 302.266 147.524 278.888C146.691 275.445 146.39 271.848 145.121 268.52Z"/>
	<path fill="#4C98F9" transform="scale(0.195312 0.195312)" d="M145.121 268.52L151.959 268.52L158.014 268.52C159.048 275.006 160.537 282.089 163.891 287.808C168.432 299.224 178.15 306.524 186.464 315.16C198.679 327.85 212.007 346.84 229.853 350.524C231.745 356.452 234.166 359.728 236.064 364.611C218.042 362.845 208.54 355.996 196.333 343.413L179.492 325.735C163.634 309.105 153.178 302.266 147.524 278.888C146.691 275.445 146.39 271.848 145.121 268.52Z"/>
	<path fill="#FDD081" transform="scale(0.195312 0.195312)" d="M353.561 267.01C336.372 269.086 347.518 245.913 342.498 233.47C339.384 225.749 327.776 232.975 325.291 225.882C323.22 219.973 329.636 215.41 333.111 211.37L346.068 196.381C355.792 185.249 356.58 177.623 369.668 190.592L369.831 190.898C374.683 199.854 391.227 212.898 394.288 221.115C395.267 223.742 393.819 227.369 391.392 228.657C382.147 233.564 372.182 221.579 372.234 240.622L372.294 255.386C372.324 261.043 374.077 266.089 366.901 267.01C362.701 266.941 358.48 266.943 354.279 267.01L353.561 267.01Z"/>
	<path fill="#FEB051" transform="scale(0.195312 0.195312)" d="M353.561 267.01C336.372 269.086 347.518 245.913 342.498 233.47C339.384 225.749 327.776 232.975 325.291 225.882C323.22 219.973 329.636 215.41 333.111 211.37L346.068 196.381C355.792 185.249 356.58 177.623 369.668 190.592C365.005 194.753 353.464 207.724 349.673 213.251C344.183 221.253 355.71 224.956 357.686 232.252C358.589 235.583 358.026 241.922 358.017 245.682L358.001 267.01C356.528 266.936 355.023 266.772 353.561 267.01Z"/>
	<path fill="#FDD081" transform="scale(0.195312 0.195312)" d="M141.081 230.352C133.742 230.232 117.032 232.825 117.706 221.337C118.036 215.708 130.617 204.399 134.607 200.003C143.098 190.648 149.589 176.19 160.99 190.592C166.481 197.236 172.741 203.4 178.544 209.786C183.043 214.737 190.807 221.82 182.825 228.499C179.168 231.559 172.37 230.303 167.881 230.352L167.902 250.71C167.925 259.295 169.526 268.505 158.014 268.52L151.959 268.52L145.121 268.52C139.308 262.398 141.054 259.546 141.06 251.441L141.081 230.352Z"/>
	<path fill="#FEB051" transform="scale(0.195312 0.195312)" d="M141.081 230.352C133.742 230.232 117.032 232.825 117.706 221.337C118.036 215.708 130.617 204.399 134.607 200.003C143.098 190.648 149.589 176.19 160.99 190.592C156.207 196.86 141.599 208.363 142.798 216.617C143.856 223.899 153.362 225.735 154.379 233.313C155.004 237.971 154.526 243.226 154.518 247.951C154.511 251.579 156.246 266.898 151.959 268.52L145.121 268.52C139.308 262.398 141.054 259.546 141.06 251.441L141.081 230.352Z"/>
	<path fill="#4C98F9" transform="scale(0.195312 0.195312)" d="M130.617 372.952Q130.124 373.108 129.626 373.244Q129.127 373.38 128.623 373.496Q128.12 373.612 127.612 373.707Q127.104 373.802 126.592 373.877Q126.081 373.952 125.567 374.006Q125.053 374.06 124.537 374.093Q124.022 374.126 123.505 374.139Q122.988 374.151 122.471 374.143Q121.955 374.134 121.439 374.105Q120.923 374.076 120.408 374.025Q119.894 373.975 119.382 373.905Q118.87 373.834 118.361 373.742Q117.853 373.651 117.348 373.539Q116.844 373.427 116.344 373.295Q115.844 373.163 115.35 373.01Q114.857 372.858 114.369 372.686Q113.882 372.514 113.402 372.322Q112.922 372.131 112.45 371.92Q111.978 371.709 111.515 371.479Q111.052 371.25 110.599 371.002Q110.146 370.753 109.703 370.487Q109.26 370.221 108.828 369.937Q108.396 369.653 107.976 369.352Q107.556 369.051 107.148 368.733Q106.741 368.415 106.347 368.081Q105.952 367.747 105.572 367.397Q105.191 367.048 104.825 366.683Q104.459 366.318 104.108 365.939Q103.757 365.56 103.421 365.166Q103.086 364.773 102.766 364.367Q102.447 363.961 102.144 363.542Q101.842 363.123 101.556 362.692Q101.27 362.261 101.003 361.819Q100.735 361.377 100.485 360.925Q100.235 360.472 100.003 360.01Q99.7721 359.548 99.5595 359.077Q99.3469 358.606 99.1536 358.127Q98.9602 357.647 98.7864 357.161Q98.6125 356.674 98.4584 356.181Q98.3044 355.687 98.1703 355.188Q98.0363 354.689 97.9225 354.185Q97.8088 353.681 97.7154 353.172Q97.6221 352.664 97.5494 352.152Q97.4767 351.641 97.4247 351.126Q97.3726 350.612 97.3414 350.096Q97.3102 349.58 97.2999 349.064Q97.2895 348.547 97.3 348.03Q97.3105 347.513 97.3419 346.997Q97.3732 346.482 97.4254 345.967Q97.4776 345.453 97.5504 344.942Q97.6233 344.43 97.7168 343.922Q97.8102 343.413 97.9242 342.909Q98.0381 342.405 98.1722 341.906Q98.3064 341.407 98.4606 340.913Q98.6148 340.42 98.7888 339.933Q98.9628 339.447 99.1563 338.968Q99.3498 338.488 99.5625 338.017Q99.7752 337.546 100.007 337.084Q100.238 336.622 100.488 336.17Q100.738 335.717 101.006 335.276Q101.274 334.834 101.56 334.403Q101.846 333.972 102.149 333.553Q102.451 333.135 102.771 332.728Q103.09 332.322 103.426 331.929Q103.762 331.536 104.113 331.157Q104.464 330.778 104.83 330.413Q105.197 330.048 105.577 329.699Q105.958 329.349 106.352 329.015Q106.747 328.681 107.155 328.364Q107.562 328.046 107.982 327.745Q108.402 327.444 108.834 327.16Q109.266 326.876 109.709 326.61Q110.152 326.344 110.606 326.096Q111.059 325.848 111.522 325.618Q111.985 325.389 112.457 325.178Q112.929 324.967 113.409 324.776Q113.889 324.585 114.377 324.413Q114.864 324.241 115.358 324.089Q115.852 323.937 116.352 323.805Q116.852 323.673 117.356 323.561Q117.861 323.449 118.37 323.358Q118.878 323.266 119.39 323.196Q119.902 323.125 120.417 323.075Q120.931 323.025 121.447 322.996Q121.963 322.967 122.48 322.959Q122.997 322.951 123.513 322.963Q124.03 322.976 124.546 323.009Q125.062 323.043 125.576 323.097Q126.09 323.151 126.601 323.226Q127.112 323.301 127.62 323.396Q128.128 323.492 128.632 323.608Q129.135 323.724 129.634 323.86Q130.133 323.996 130.625 324.152Q131.118 324.309 131.604 324.485Q132.09 324.661 132.568 324.856Q133.047 325.051 133.517 325.266Q133.955 325.466 134.385 325.682Q134.815 325.898 135.237 326.13Q135.658 326.362 136.071 326.61Q136.484 326.858 136.887 327.121Q137.29 327.385 137.682 327.663Q138.075 327.941 138.457 328.234Q138.839 328.526 139.21 328.833Q139.581 329.14 139.94 329.461Q140.299 329.781 140.646 330.115Q140.992 330.449 141.326 330.796Q141.66 331.143 141.981 331.502Q142.301 331.861 142.608 332.231Q142.915 332.602 143.208 332.984Q143.501 333.366 143.779 333.759Q144.057 334.152 144.32 334.555Q144.584 334.958 144.831 335.371Q145.079 335.783 145.311 336.205Q145.544 336.626 145.76 337.057Q145.976 337.487 146.176 337.924Q146.376 338.362 146.559 338.807Q146.742 339.253 146.909 339.704Q147.075 340.156 147.224 340.613Q147.373 341.071 147.505 341.534Q147.637 341.997 147.752 342.464Q147.866 342.932 147.963 343.403Q148.06 343.875 148.139 344.35Q148.218 344.825 148.279 345.302Q148.34 345.779 148.383 346.259Q148.426 346.738 148.451 347.219Q148.477 347.7 148.483 348.181Q148.49 348.662 148.479 349.143Q148.468 349.625 148.439 350.105Q148.41 350.585 148.362 351.064Q148.315 351.543 148.25 352.02Q148.185 352.497 148.102 352.971Q148.018 353.445 147.918 353.916Q147.817 354.387 147.698 354.853Q147.58 355.32 147.444 355.781Q147.308 356.243 147.154 356.699Q147.001 357.156 146.831 357.606Q146.661 358.056 146.473 358.5Q146.286 358.943 146.083 359.379Q145.879 359.815 145.659 360.243Q145.439 360.672 145.204 361.091Q144.968 361.511 144.716 361.921Q144.465 362.332 144.198 362.732Q143.931 363.133 143.65 363.523Q143.368 363.914 143.072 364.293Q142.776 364.673 142.466 365.041Q142.156 365.409 141.832 365.765Q141.509 366.121 141.172 366.465Q140.835 366.809 140.485 367.14Q140.136 367.471 139.774 367.788Q139.412 368.106 139.039 368.409Q138.665 368.713 138.281 369.002Q137.896 369.292 137.501 369.567Q137.106 369.841 136.7 370.101Q136.295 370.361 135.88 370.605Q135.466 370.849 135.042 371.078Q134.618 371.306 134.186 371.519Q133.755 371.731 133.315 371.927Q132.875 372.123 132.429 372.302Q131.982 372.482 131.529 372.644Q131.076 372.807 130.617 372.952Z"/>
	<path fill="#69BFFA" transform="scale(0.195312 0.195312)" d="M133.517 325.266Q133.955 325.466 134.385 325.682Q134.815 325.898 135.237 326.13Q135.658 326.362 136.071 326.61Q136.484 326.858 136.887 327.121Q137.29 327.385 137.682 327.663Q138.075 327.941 138.457 328.234Q138.839 328.526 139.21 328.833Q139.581 329.14 139.94 329.461Q140.299 329.781 140.646 330.115Q140.992 330.449 141.326 330.796Q141.66 331.143 141.981 331.502Q142.301 331.861 142.608 332.231Q142.915 332.602 143.208 332.984Q143.501 333.366 143.779 333.759Q144.057 334.152 144.32 334.555Q144.584 334.958 144.831 335.371Q145.079 335.783 145.311 336.205Q145.544 336.626 145.76 337.057Q145.976 337.487 146.176 337.924Q146.376 338.362 146.559 338.807Q146.742 339.253 146.909 339.704Q147.075 340.156 147.224 340.613Q147.373 341.071 147.505 341.534Q147.637 341.997 147.752 342.464Q147.866 342.932 147.963 343.403Q148.06 343.875 148.139 344.35Q148.218 344.825 148.279 345.302Q148.34 345.779 148.383 346.259Q148.426 346.738 148.451 347.219Q148.477 347.7 148.483 348.181Q148.49 348.662 148.479 349.143Q148.468 349.625 148.439 350.105Q148.41 350.585 148.362 351.064Q148.315 351.543 148.25 352.02Q148.185 352.497 148.102 352.971Q148.018 353.445 147.918 353.916Q147.817 354.387 147.698 354.853Q147.58 355.32 147.444 355.781Q147.308 356.243 147.154 356.699Q147.001 357.156 146.831 357.606Q146.661 358.056 146.473 358.5Q146.286 358.943 146.083 359.379Q145.879 359.815 145.659 360.243Q145.439 360.672 145.204 361.091Q144.968 361.511 144.716 361.921Q144.465 362.332 144.198 362.732Q143.931 363.133 143.65 363.523Q143.368 363.914 143.072 364.293Q142.776 364.673 142.466 365.041Q142.156 365.409 141.832 365.765Q141.509 366.121 141.172 366.465Q140.835 366.809 140.485 367.14Q140.136 367.471 139.774 367.788Q139.412 368.106 139.039 368.409Q138.665 368.713 138.281 369.002Q137.896 369.292 137.501 369.567Q137.106 369.841 136.7 370.101Q136.295 370.361 135.88 370.605Q135.466 370.849 135.042 371.078Q134.618 371.306 134.186 371.519Q133.755 371.731 133.315 371.927Q132.875 372.123 132.429 372.302Q131.982 372.482 131.529 372.644Q131.076 372.807 130.617 372.952C129.013 370.402 126.933 368.84 124.719 366.867C113.595 356.952 116.342 340.352 126.88 331.041C129.073 329.104 131.675 327.575 133.517 325.266Z"/>
	<path fill="#69BFFA" transform="scale(0.195312 0.195312)" d="M396.075 374.233C371.808 378.434 357.648 350.739 371.211 331.779C379.195 320.617 392.832 319.577 403.488 327.393C414.669 336.508 416.986 354.492 407.558 365.709C404.375 369.496 400.352 371.872 396.075 374.233Z"/>
	<path fill="#F98989" transform="scale(0.195312 0.195312)" d="M381.122 96.0465C391.117 83.6854 409.433 95.2383 407.515 109.645C406.325 118.583 397.628 125.116 390.975 130.286C387.776 132.632 384.611 134.877 381.122 136.786C371.751 131.778 356.331 120.635 354.767 110.066C353.298 100.139 360.001 92.2099 369.668 90.85C374.333 90.3729 378.23 92.3902 381.122 96.0465Z"/>
	<path fill="#F98989" transform="scale(0.195312 0.195312)" d="M118.526 90.85C123.845 91.0513 126.952 92.9836 131.066 96.0465C139.5 84.9116 157.924 93.2277 156.952 108.884C156.362 118.384 147.637 124.531 141.081 130.286C137.501 131.748 134.534 134.323 131.066 136.031C121.894 132.32 106.211 119.405 104.262 109.792C102.329 100.255 109.471 92.4557 118.526 90.85Z"/>
</svg>
