<?xml version="1.0" encoding="utf-8" ?>
<svg xmlns="http://www.w3.org/2000/svg" xmlns:xlink="http://www.w3.org/1999/xlink" width="100" height="100">
	<path fill="#334A98" transform="scale(0.195312 0.195312)" d="M371.763 139.754C373.423 139.658 375.109 139.733 376.772 139.754C383.594 139.752 432.734 139.172 435.028 140.38C437.032 143.199 435.88 164.02 435.882 168.599L435.883 244.751C435.881 249.065 436.806 254.613 435.283 258.71C432.522 259.824 411.296 259.244 406.752 259.242C406.756 263.704 407.241 290.433 406.376 292.709C403.152 295.359 396.512 285.934 394.259 283.474C387.247 275.817 380.392 267.502 372.805 260.41L323.144 260.41C326.58 264.798 338.221 275.812 339.949 279.987C342.551 282.529 344.884 285.573 346.916 288.597C360.651 301.684 369.676 327.539 373.638 346.454C381.908 342.566 391.656 343.563 397.867 350.763C403.585 357.393 402.805 368.643 402.197 377.254C405.604 377.263 418.567 376.259 420.558 378.46C422.004 380.058 420.963 385.459 420.958 387.447L421 424.69C421 430.483 423.144 435.766 417.196 435.822L99.1045 435.855C95.7797 435.854 91.996 436.162 88.7265 435.545C87.6639 432.992 87.1373 381.433 88.7142 377.835C90.2937 376.667 103.583 377.242 106.252 377.254C106.25 371.43 105.418 364.279 107.238 358.732C110.685 348.229 121.209 342.408 131.817 346.051C135.52 318.701 146.897 296.833 167.561 278.378C171.101 275.216 173.161 271.037 176.979 275.538C185.398 265.793 195.71 263.902 205.858 258.264L206.247 258.046L206.438 257.798C208.573 254.992 209.28 251.43 211.058 248.413C225.279 224.287 256.656 217.223 279.131 234.441C286.529 240.109 290.759 247.444 294.488 255.781L374.46 255.781C379.272 259.609 383.129 264.823 387.656 269.023C385.327 259.248 394.441 253.358 403.137 254.266C405.497 254.76 414.385 254.364 417.261 254.266C417.035 250.007 416.442 246.03 417.261 241.746C422.532 241.828 422.09 236.447 417.261 237.244C416.637 233.481 416.668 229.574 416.452 225.765C413.109 225.44 407.551 227.087 404.719 224.949C398.509 220.26 415.901 221.257 416.452 221.258C416.545 217.696 416.511 214.145 416.452 210.582C414.994 210.697 413.547 210.899 412.106 210.582C409.265 210.397 402.482 211.919 404.381 206.799C405.84 205.472 413.595 205.993 415.722 205.989C417.764 205.183 416.507 197.578 416.452 195.244C412.067 195.286 407.506 195.555 403.137 195.244C404.305 195.084 425.671 197.141 419.756 190.759C419.041 189.987 414.698 190.474 413.561 190.487C414.396 190.167 415.557 190.42 416.452 190.487L416.452 179.717C415.851 179.721 400.267 180.884 404.412 175.914C405.939 174.082 414.009 174.954 416.452 174.891C416.274 171.201 416.086 167.513 416.452 163.827C414.062 163.797 408.645 164.4 406.752 163.827C403.926 163.604 403.067 161.203 404.893 159.731C406.33 158.574 414.186 159.195 416.452 159.235L416.452 144.513L395.41 144.527C392.348 144.543 388.852 145.056 385.866 144.513C352.498 144.151 319.088 144.509 285.716 144.513L285.689 202.761C285.707 205.373 287.055 213.492 282.903 213.555C279.848 212.323 281.139 202.589 281.145 199.96L281.118 180.944C281.114 168.678 280.723 156.273 281.152 144.021C281.384 137.394 286.983 139.752 293.281 139.759L371.763 139.754ZM402.197 280.9C401.812 279.763 401.908 278.417 401.911 277.228L401.596 277.014C399.909 277.246 397.842 278.193 397.511 279.987C399.068 281.719 400.594 283.492 402.197 285.179L402.197 280.9ZM222.051 275.538L222.035 290.863C222.039 310.526 228.848 326.306 250.977 327.747C261.657 327.437 267.245 321.427 274.637 315.211C272.256 315.427 269.718 315.178 267.312 315.211C266.156 316.803 265.061 318.267 263.512 319.501C258.698 320.605 254.254 318.354 254.235 313.1C254.545 308.705 256.356 307.614 260.563 306.596C263.22 307.382 265.005 308.742 267.312 310.196C268.226 310.107 269.122 310.157 270.037 310.196L277.923 310.196C280.825 300.248 281.207 304.779 281.139 292.519L281.122 277.25C277.526 275.768 275.218 273.102 272.619 270.333L270.037 266.328C255.771 276.27 238.97 280.102 222.051 275.538ZM273.997 278.889C269.983 275.134 272.977 277.712 273.652 277.878L274.303 276.977C274.95 276.85 275.069 276.976 275.682 277.25C273.84 281.587 278.6 300.614 273.997 302.633C274.688 294.771 273.633 286.785 273.997 278.889ZM283.292 309.278C294.261 306.663 291.392 294.127 291.372 285.617C291.356 278.517 292.204 265.469 290.592 259.147C286.545 243.279 267.206 226.888 250.103 229.807C229.376 228.67 208.943 249.896 210.127 270.043L210.421 270.245C214.151 272.834 212.648 278.109 212.602 282.15L212.579 295.511C212.569 300.194 211.87 307.236 218.098 308.123L218.574 307.901C218.407 305.732 217.686 303.627 217.508 301.467C216.98 295.051 216.679 266.18 218.186 259.866C221.263 246.972 239.559 233.38 252.471 237.244C267.085 235.829 284.235 248.538 285.519 263.572C286.296 272.667 286.837 301.848 283.292 309.278ZM236.356 336.016C237.645 340.025 241.697 343.028 244.505 346.051C247.081 348.354 249.326 350.989 251.619 353.568C257.215 347.873 262.452 341.933 267.802 336.016C267.444 334.699 266.453 329.766 265.732 328.997L265.482 329.003C254.896 332.671 247.6 333.82 237.025 329.003C236.781 331.334 236.639 333.695 236.356 336.016ZM110.758 387.047C119.92 388.158 131.246 386.079 141.257 387.047C141.196 385.302 141.199 383.58 141.257 381.835L110.758 381.835C110.831 383.454 111.169 385.494 110.758 387.047ZM149.976 387.047C150.134 385.311 150.035 383.574 149.976 381.835L145.52 381.835C145.577 383.542 145.755 385.356 145.52 387.047C147.005 387.099 148.499 386.988 149.976 387.047L149.976 387.047ZM92.8164 381.835L92.8164 421.952L92.8164 431.225L96.0423 431.225C95.8714 428.509 96.0023 425.755 96.0423 423.035C96.0442 411.066 95.7061 399.005 96.0423 387.047C99.3716 386.929 102.992 387.513 106.252 387.047C106.078 385.283 106.302 383.589 106.252 381.835L92.8164 381.835ZM375.812 387.047C383.668 386.058 390.437 386.56 398.228 387.047C397.916 385.313 398.109 383.58 398.228 381.835C393.768 381.353 387.728 381.757 383.126 381.835C378.639 381.864 373.64 382.361 369.225 381.835C368.672 388.815 371.543 384.15 375.812 387.047ZM110.758 377.254L126.188 377.254L141.257 377.254C141.301 366.292 142.369 349.21 126.188 349.797C109.596 350.004 110.702 364.96 110.758 377.254ZM398.228 377.254C398.274 364.394 399.106 347.628 380.818 348.774C365.789 352.695 369.258 364.633 369.225 377.254L387.656 377.254L398.228 377.254ZM416.452 381.835C411.907 381.327 406.787 381.683 402.197 381.835C402.424 383.361 402.354 384.952 402.197 386.48C404.215 386.443 406.224 386.411 408.241 386.48C411.036 386.474 413.697 386.505 416.452 387.047C416.306 385.345 416.435 383.547 416.452 381.835ZM233.355 340.174C230.883 342.177 228.878 343.665 225.835 344.681C229.997 351.892 234.01 359.478 238.709 366.344L240.571 364.785C243.445 362.107 246.323 359.372 249.495 357.044C244.207 353.034 237.611 345.421 233.355 340.174Z"/>
	<path fill="#9BDBF4" transform="scale(0.195312 0.195312)" d="M176.979 275.538C185.398 265.793 195.71 263.902 205.858 258.264L206.247 258.046C205.885 261.669 205.774 265.385 205.807 269.023C192.434 271.243 193.092 288.117 194.954 298.481C196.412 306.596 203.153 307.885 210.285 307.372C210.439 311.577 217.761 312.839 220.853 313.1C223.892 318.819 228.435 322.863 233.355 326.933C230.504 342.053 224.161 340.091 210.303 345.034C176.873 356.958 177.285 352.814 177.287 389.785L177.291 431.225L164.975 431.225L164.984 395.71C164.983 391.085 165.538 382.712 164.587 378.43L164.241 378.228L164.304 377.966L164.452 378.017C162.459 376.584 148.637 377.248 145.52 377.254C145.542 365.956 147.139 354.658 136.423 347.533C138.524 323.173 150.444 301.388 167.691 284.395C169.812 282.306 176.236 277.88 176.979 275.538Z"/>
	<path fill="#9BDBF4" transform="scale(0.195312 0.195312)" d="M295.987 260.41C305.018 260.414 314.124 260.127 323.144 260.41C326.58 264.798 338.221 275.812 339.949 279.987C342.551 282.529 344.884 285.573 346.916 288.597C345.532 288.967 344.245 289.264 343.736 290.732C345.133 294.161 348.097 296.685 349.663 300.022C350.272 307.213 352.596 314.107 352.994 321.417C353.957 339.076 343.698 379.962 328.488 390.04C327.606 365.992 334.402 360.921 308.172 350.973C301.258 348.351 294.422 345.602 287.596 342.759C276.323 338.064 272.336 338.285 270.037 325.243C274.815 321.416 277.171 318.878 280.629 313.828C286.485 313.498 290.629 312.28 294.488 307.372C301.481 307.704 307.821 305.33 309.131 297.687C311.309 284.969 311.401 271.035 295.987 269.023C295.817 266.118 295.798 263.318 295.987 260.41Z"/>
	<path fill="#3AB1F1" transform="scale(0.195312 0.195312)" d="M339.949 279.987C342.551 282.529 344.884 285.573 346.916 288.597C345.532 288.967 344.245 289.264 343.736 290.732C343.738 287.561 339.315 282.377 339.949 279.987Z"/>
	<path fill="#3AB1F1" transform="scale(0.195312 0.195312)" d="M349.663 300.022C359.362 313.145 367.626 333.577 369.225 349.797C362.01 355.689 364.456 369.091 364.484 377.254C340.949 377.241 345.695 373.144 345.704 396.982L345.704 431.225L328.488 431.225C328.48 417.505 328.282 403.757 328.488 390.04C343.698 379.962 353.957 339.076 352.994 321.417C352.596 314.107 350.272 307.213 349.663 300.022Z"/>
	<path fill="#CFD9EA" transform="scale(0.195312 0.195312)" d="M385.866 144.513L431.233 144.513L431.233 254.266C428.3 254.27 419.522 254.795 417.261 254.266C417.035 250.007 416.442 246.03 417.261 241.746C422.532 241.828 422.09 236.447 417.261 237.244C416.637 233.481 416.668 229.574 416.452 225.765C413.109 225.44 407.551 227.087 404.719 224.949C398.509 220.26 415.901 221.257 416.452 221.258C416.545 217.696 416.511 214.145 416.452 210.582C414.994 210.697 413.547 210.899 412.106 210.582C409.265 210.397 402.482 211.919 404.381 206.799C405.84 205.472 413.595 205.993 415.722 205.989C417.764 205.183 416.507 197.578 416.452 195.244C412.067 195.286 407.506 195.555 403.137 195.244C404.305 195.084 425.671 197.141 419.756 190.759C419.041 189.987 414.698 190.474 413.561 190.487C414.396 190.167 415.557 190.42 416.452 190.487L416.452 179.717C415.851 179.721 400.267 180.884 404.412 175.914C405.939 174.082 414.009 174.954 416.452 174.891C416.274 171.201 416.086 167.513 416.452 163.827C414.062 163.797 408.645 164.4 406.752 163.827C403.926 163.604 403.067 161.203 404.893 159.731C406.33 158.574 414.186 159.195 416.452 159.235L416.452 144.513L395.41 144.527C392.348 144.543 388.852 145.056 385.866 144.513Z"/>
	<path fill="#334A98" transform="scale(0.195312 0.195312)" d="M416.452 221.258C423.627 221.197 421.458 226.964 416.452 225.765C413.109 225.44 407.551 227.087 404.719 224.949C398.509 220.26 415.901 221.257 416.452 221.258Z"/>
	<path fill="#334A98" transform="scale(0.195312 0.195312)" d="M416.452 159.235C418.231 159.248 423.095 160.207 419.997 162.858C417.398 165.082 410.211 163.27 406.752 163.827C403.926 163.604 403.067 161.203 404.893 159.731C406.33 158.574 414.186 159.195 416.452 159.235Z"/>
	<path fill="#334A98" transform="scale(0.195312 0.195312)" d="M416.452 174.891C421.441 174.617 421.268 179.839 416.702 179.721L416.452 179.717C415.851 179.721 400.267 180.884 404.412 175.914C405.939 174.082 414.009 174.954 416.452 174.891Z"/>
	<path fill="#334A98" transform="scale(0.195312 0.195312)" d="M415.722 205.989C419.206 205.784 422.47 208.084 419.525 210.078C417.928 211.159 414.041 210.501 412.106 210.582C409.265 210.397 402.482 211.919 404.381 206.799C405.84 205.472 413.595 205.993 415.722 205.989Z"/>
	<path fill="#CFD9EA" transform="scale(0.195312 0.195312)" d="M387.656 269.023C385.327 259.248 394.441 253.358 403.137 254.266C401.262 256.854 402.154 261.517 402.161 264.547L402.197 280.9C401.812 279.763 401.908 278.417 401.911 277.228L401.596 277.014C399.909 277.246 397.842 278.193 397.511 279.987C394.377 276.312 390.407 272.967 387.656 269.023Z"/>
	<path fill="#3AB1F1" transform="scale(0.195312 0.195312)" d="M283.292 346.051C292.182 349.964 319.809 357.752 322.864 365.641C324.546 369.985 323.824 392.297 323.823 398.262L323.821 431.225L309.424 431.225L305.096 431.225L305.089 407.694C305.086 405.584 306.251 395.178 303.612 394.569C298.552 393.402 300.547 405.209 300.556 408.022L300.579 431.225L254.235 431.225L254.238 385.594C254.237 377.853 254.097 370.097 254.235 362.359C255.998 364.577 260.059 373.133 262.908 373.316C264.63 372.478 275.772 356.439 277.923 353.568C279.536 351.002 281.169 348.234 283.292 346.051Z"/>
	<path fill="#1198F0" transform="scale(0.195312 0.195312)" d="M283.292 346.051C292.182 349.964 319.809 357.752 322.864 365.641C324.546 369.985 323.824 392.297 323.823 398.262L323.821 431.225L309.424 431.225C310.601 431.007 312.033 431.198 313.239 431.225C313.79 420.896 312.915 410.448 312.576 400.123C312.234 389.714 312.377 379.298 311.96 368.873C308.014 365.375 283.775 355.344 277.923 353.568C279.536 351.002 281.169 348.234 283.292 346.051Z"/>
	<path fill="#3AB1F1" transform="scale(0.195312 0.195312)" d="M182.23 431.225L182.239 389.258C182.238 382.089 179.742 363.765 186.86 359.198C189.626 357.423 193.273 356.675 196.34 355.493L220.853 346.051C221.771 347.273 222.627 348.518 223.464 349.797C225.787 354.177 234.034 369.569 237.644 371.627C240.692 372.231 247.19 364.944 249.495 363.211L249.495 431.225L206.247 431.225L206.25 409.28C206.248 407.152 207.967 390.454 201.754 395.186C200.568 397.352 201.198 425.811 201.191 431.225C197.078 431.229 192.765 431.515 188.676 431.225C186.546 431.074 184.365 431.196 182.23 431.225Z"/>
	<defs>
		<linearGradient id="gradient_0" gradientUnits="userSpaceOnUse" x1="179.71327" y1="390.44943" x2="225.35866" y2="386.96677">
			<stop offset="0" stop-color="#CCD8EB"/>
			<stop offset="1" stop-color="#8EE1F4"/>
		</linearGradient>
	</defs>
	<path fill="url(#gradient_0)" transform="scale(0.195312 0.195312)" d="M182.23 431.225L182.239 389.258C182.238 382.089 179.742 363.765 186.86 359.198C189.626 357.423 193.273 356.675 196.34 355.493L220.853 346.051C221.771 347.273 222.627 348.518 223.464 349.797L223.168 350.021C215.26 355.976 199.608 357.875 192.959 363.767C187.315 368.769 188.673 377.349 188.673 384.117L188.661 421.617C188.63 424.829 188.362 428.019 188.676 431.225C186.546 431.074 184.365 431.196 182.23 431.225Z"/>
	<path fill="#F9BF18" transform="scale(0.195312 0.195312)" d="M350.314 381.261L360.188 381.261L364.484 381.261C365.391 382.912 363.546 384.822 365.869 385.904C368.391 387.079 369.013 383.607 369.225 381.835L383.126 381.835C378.639 381.864 373.64 382.361 369.225 381.835C368.672 388.815 371.543 384.15 375.812 387.047C383.668 386.058 390.437 386.56 398.228 387.047C399.967 387.45 400.605 387.298 402.197 386.48C404.215 386.443 406.224 386.411 408.241 386.48C411.036 386.474 413.697 386.505 416.452 387.047C416.457 401.755 416.183 416.521 416.452 431.225L372.019 431.229C364.971 431.231 357.302 431.636 350.314 431.225C350.31 425.7 350.09 420.078 350.314 414.563L350.314 387.047C350.401 385.127 350.329 383.184 350.314 381.261Z"/>
	<path fill="#F8A517" transform="scale(0.195312 0.195312)" d="M408.241 386.48C411.036 386.474 413.697 386.505 416.452 387.047C416.457 401.755 416.183 416.521 416.452 431.225L372.019 431.229C364.971 431.231 357.302 431.636 350.314 431.225C350.31 425.7 350.09 420.078 350.314 414.563C350.95 415.466 350.401 418.99 350.314 420.219C387.649 417.631 396.37 427.573 408.241 386.48Z"/>
	<path fill="#FAEA91" transform="scale(0.195312 0.195312)" d="M350.314 381.261L360.188 381.261L364.484 381.261C365.391 382.912 363.546 384.822 365.869 385.904C368.391 387.079 369.013 383.607 369.225 381.835L383.126 381.835C378.639 381.864 373.64 382.361 369.225 381.835C368.672 388.815 371.543 384.15 375.812 387.047C367.321 387.221 358.807 386.986 350.314 387.047C350.401 385.127 350.329 383.184 350.314 381.261Z"/>
	<path fill="#F9BF18" transform="scale(0.195312 0.195312)" d="M149.976 381.835L160.217 381.835L160.217 387.047L160.217 431.225L117.591 431.233C110.439 431.235 103.186 431.49 96.0423 431.225C95.8714 428.509 96.0023 425.755 96.0423 423.035C96.0442 411.066 95.7061 399.005 96.0423 387.047C99.3716 386.929 102.992 387.513 106.252 387.047L110.758 387.047C119.92 388.158 131.246 386.079 141.257 387.047C142.677 387.055 144.1 387.084 145.52 387.047C147.005 387.099 148.499 386.988 149.976 387.047L149.976 387.047C150.134 385.311 150.035 383.574 149.976 381.835Z"/>
	<path fill="#F8A517" transform="scale(0.195312 0.195312)" d="M149.976 381.835L160.217 381.835L160.217 387.047L160.217 431.225L117.591 431.233C110.439 431.235 103.186 431.49 96.0423 431.225C95.8714 428.509 96.0023 425.755 96.0423 423.035C98.2519 422.013 102.121 422.422 104.548 422.346C134.023 421.428 148.785 420.28 149.976 387.047L149.976 387.047C150.134 385.311 150.035 383.574 149.976 381.835Z"/>
	<path fill="#9BDBF4" transform="scale(0.195312 0.195312)" d="M149.976 381.835L160.217 381.835L160.217 387.047C157.256 386.366 153.099 387.041 149.976 387.047C150.134 385.311 150.035 383.574 149.976 381.835Z"/>
	<path fill="#F9BF18" transform="scale(0.195312 0.195312)" d="M244.505 241.746C257.516 238.861 277.774 246.786 280.629 260.41C281.821 263.903 281.204 268.644 281.122 272.316C278.904 270.009 276.422 267.714 274.637 265.053C273.416 263.514 272.497 261.77 271.066 260.41L270.733 260.561C267.739 261.949 265.344 264.408 262.518 266.106C252.587 272.076 240.127 274.799 228.709 272.316C226.457 271.73 224.233 271.155 222.051 270.333C221.775 261.111 223.796 254.953 231.011 248.563C235.109 245.224 239.415 243.117 244.505 241.746Z"/>
	<path fill="#FAEA91" transform="scale(0.195312 0.195312)" d="M231.011 248.563C235.109 245.224 239.415 243.117 244.505 241.746C243.386 242.79 236.065 249.613 235.435 249.885C230.3 257.202 228.574 263.286 228.709 272.316C226.457 271.73 224.233 271.155 222.051 270.333C221.775 261.111 223.796 254.953 231.011 248.563Z"/>
	<path fill="#F8A517" transform="scale(0.195312 0.195312)" d="M274.637 265.053C275.641 264.805 276.608 267.535 277.817 267.889C282.397 269.229 280.58 263.2 280.329 260.801L280.629 260.41C281.821 263.903 281.204 268.644 281.122 272.316C278.904 270.009 276.422 267.714 274.637 265.053Z"/>
	<path fill="#E8E7EA" transform="scale(0.195312 0.195312)" d="M271.066 340.174C272.812 340.46 277.201 343.613 278.965 344.681C275.802 348.005 265.278 362.608 263.512 366.344L263.074 366.502C261.519 365.815 256.917 358.863 255.595 357.044C258.054 353.398 267.64 342.837 271.066 340.174Z"/>
	<path fill="#F37878" transform="scale(0.195312 0.195312)" d="M205.807 273.558C209.846 273.347 208.106 281.542 208.108 284.973L208.101 303.551C206.417 303.506 204.902 303.243 203.328 302.633C198.095 299.169 200.103 295.169 200.158 289.943C200.225 283.594 197.128 275.549 205.807 273.558Z"/>
	<path fill="#F37878" transform="scale(0.195312 0.195312)" d="M295.987 273.558C308.457 274.541 306.417 296.603 302.498 300.927C293.777 307.358 295.991 299.428 295.983 293.299L295.987 273.558Z"/>
	<path fill="#E8E7EA" transform="scale(0.195312 0.195312)" d="M273.997 278.889C269.983 275.134 272.977 277.712 273.652 277.878L274.303 276.977C274.95 276.85 275.069 276.976 275.682 277.25C273.84 281.587 278.6 300.614 273.997 302.633C274.688 294.771 273.633 286.785 273.997 278.889Z"/>
	<path fill="#334A98" transform="scale(0.195312 0.195312)" d="M252.471 122.186L252.503 196.221C252.531 203.238 253.464 210.007 247.21 214.873C242.178 218.788 223.726 217.003 217.323 217.002L136.208 217.007C109.639 217.012 107.582 219.3 107.582 188.529L107.585 130.237C107.588 112.099 106.958 106.622 128.844 106.611L224.273 106.607C236.282 106.61 244.264 104.215 251.619 115.666C252.166 117.824 252.455 119.957 252.471 122.186ZM163.859 139.035C159.137 138.847 157.183 140 155.743 144.513C148.522 144.871 140.884 143.491 139.902 152.637C139.112 160 139.189 180.347 139.892 187.645C140.756 196.619 151.488 194.045 157.874 194.027L180.693 194.02L202.922 194.039C207.866 194.04 216.787 196.002 217.939 189.182C219.119 182.191 218.492 160.691 218.156 153.234C217.7 143.147 208.644 144.859 201.191 144.513C201.208 139.015 197.148 138.623 192.527 139.035C189.505 132.404 185.246 126.658 177.291 127.099C170.066 127.761 166.881 133.258 163.859 139.035Z"/>
	<path fill="#8AE0BF" transform="scale(0.195312 0.195312)" d="M111.952 203.008C111.723 184.276 111.958 165.514 111.953 146.778L111.922 129.096C111.876 111.096 113.244 111.003 132.493 111.016L208.582 111.03C217.82 111.03 227.13 111.317 236.356 111.03C250.125 111.89 247.97 124.719 247.967 134.638L247.957 187.763C247.965 193.595 250.494 211.698 241.63 212.497C233.763 213.207 225.47 212.72 217.559 212.722L136.93 212.717C132.881 212.715 121.124 213.989 117.982 211.911C114.071 209.928 112.557 207.462 111.952 203.008ZM163.859 139.035C159.137 138.847 157.183 140 155.743 144.513C148.522 144.871 140.884 143.491 139.902 152.637C139.112 160 139.189 180.347 139.892 187.645C140.756 196.619 151.488 194.045 157.874 194.027L180.693 194.02L202.922 194.039C207.866 194.04 216.787 196.002 217.939 189.182C219.119 182.191 218.492 160.691 218.156 153.234C217.7 143.147 208.644 144.859 201.191 144.513C201.208 139.015 197.148 138.623 192.527 139.035C189.505 132.404 185.246 126.658 177.291 127.099C170.066 127.761 166.881 133.258 163.859 139.035Z"/>
	<path fill="#46BB9B" transform="scale(0.195312 0.195312)" d="M236.356 111.03C250.125 111.89 247.97 124.719 247.967 134.638L247.957 187.763C247.965 193.595 250.494 211.698 241.63 212.497C233.763 213.207 225.47 212.72 217.559 212.722L136.93 212.717C132.881 212.715 121.124 213.989 117.982 211.911C114.071 209.928 112.557 207.462 111.952 203.008C113.997 203.17 115.938 203.202 117.982 203.008L117.982 203.008L217.347 203.02C235.464 203.046 237.127 205.693 237.046 184.739L237.033 137.877C237.039 130.034 237.153 122.168 236.356 114.353C236.31 113.252 236.354 112.133 236.356 111.03Z"/>
	<path fill="#AAECDA" transform="scale(0.195312 0.195312)" d="M111.952 203.008C111.723 184.276 111.958 165.514 111.953 146.778L111.922 129.096C111.876 111.096 113.244 111.003 132.493 111.016L208.582 111.03C217.82 111.03 227.13 111.317 236.356 111.03C236.354 112.133 236.31 113.252 236.356 114.353L236.13 115.445C234.888 116.074 153.059 115.666 146.745 115.664C138.465 115.661 122 112.342 118.519 121.783C117.308 125.067 117.999 145.469 117.996 150.39L117.982 203.008L117.982 203.008C115.938 203.202 113.997 203.17 111.952 203.008Z"/>
	<path fill="#334A98" transform="scale(0.195312 0.195312)" d="M177.291 127.099C185.246 126.658 189.505 132.404 192.527 139.035C197.148 138.623 201.208 139.015 201.191 144.513C208.644 144.859 217.7 143.147 218.156 153.234C218.492 160.691 219.119 182.191 217.939 189.182C216.787 196.002 207.866 194.04 202.922 194.039L180.693 194.02L157.874 194.027C151.488 194.045 140.756 196.619 139.892 187.645C139.189 180.347 139.112 160 139.902 152.637C140.884 143.491 148.522 144.871 155.743 144.513C157.183 140 159.137 138.847 163.859 139.035C166.881 133.258 170.066 127.761 177.291 127.099ZM198.001 152.613Q198.105 152.554 198.202 152.486Q198.3 152.417 198.39 152.34Q198.48 152.262 198.562 152.176Q198.645 152.089 198.718 151.996Q198.792 151.902 198.855 151.801Q198.919 151.701 198.973 151.594Q199.027 151.488 199.07 151.377Q199.113 151.266 199.145 151.151Q199.177 151.036 199.197 150.919Q199.218 150.801 199.227 150.682Q199.236 150.564 199.233 150.445Q199.23 150.325 199.216 150.207Q199.202 150.089 199.176 149.973Q199.15 149.856 199.113 149.743Q199.076 149.63 199.028 149.521Q198.979 149.412 198.921 149.308Q198.863 149.204 198.794 149.107Q198.726 149.009 198.648 148.919Q198.571 148.828 198.484 148.746Q198.398 148.663 198.305 148.59Q198.211 148.516 198.11 148.452Q198.01 148.388 197.904 148.334Q197.797 148.28 197.686 148.237Q197.575 148.194 197.46 148.162Q197.346 148.13 197.228 148.109Q197.111 148.088 196.992 148.079Q196.873 148.07 196.754 148.073Q196.635 148.075 196.517 148.089Q196.398 148.104 196.282 148.129Q196.166 148.155 196.052 148.192Q195.939 148.229 195.83 148.277Q195.721 148.325 195.617 148.383Q195.513 148.441 195.415 148.51Q195.317 148.578 195.227 148.656Q195.136 148.734 195.053 148.82Q194.971 148.906 194.897 149Q194.823 149.094 194.759 149.194Q194.695 149.295 194.641 149.402Q194.587 149.508 194.543 149.619Q194.5 149.731 194.468 149.846Q194.436 149.96 194.415 150.078Q194.394 150.196 194.385 150.315Q194.376 150.434 194.379 150.553Q194.381 150.672 194.396 150.791Q194.41 150.909 194.436 151.026Q194.462 151.143 194.499 151.256Q194.536 151.369 194.584 151.479Q194.632 151.588 194.691 151.692Q194.75 151.796 194.818 151.894Q194.887 151.991 194.964 152.082Q195.042 152.173 195.129 152.255Q195.215 152.337 195.309 152.411Q195.403 152.485 195.504 152.549Q195.604 152.613 195.711 152.667Q195.817 152.72 195.929 152.763Q196.04 152.807 196.155 152.839Q196.27 152.871 196.388 152.891Q196.505 152.912 196.624 152.921Q196.743 152.93 196.863 152.927Q196.982 152.924 197.101 152.91Q197.219 152.895 197.335 152.869Q197.452 152.843 197.565 152.806Q197.679 152.768 197.788 152.72Q197.897 152.672 198.001 152.613ZM162.708 153.067C164.433 150.192 163.589 148.083 160.217 148.783C157.542 151.198 159.991 153.085 162.708 153.067ZM161.965 144.513C163.688 143.748 163.155 143.014 161.458 143.005C159.892 144.03 160.086 144.585 161.965 144.513Z"/>
	<path fill="#F8B484" transform="scale(0.195312 0.195312)" d="M167.795 148.783C175.444 148.772 183.128 148.609 190.773 148.783C190.344 159.168 202.305 160.067 203.328 148.783C205.906 148.767 208.537 148.637 211.11 148.783C213.487 150.81 213.674 152.187 213.652 155.098L213.669 175.416C213.69 190.762 216.589 190.362 200.079 189.286L200.047 177.395C200.036 175.583 199.788 173.415 200.079 171.636C199.571 168.902 197.678 169.531 195.987 170.855L195.987 189.286L161.965 189.286C161.95 185.092 162.699 173.399 161.458 170.076C160.081 169.885 158.87 169.89 157.49 170.076C157.001 172.005 157.487 186.135 157.49 189.286C154.265 189.263 147.838 190.154 145.064 188.974C143.59 185.759 144.244 158.576 144.262 153.067C145.235 147.596 151.555 148.786 155.743 148.783C155.265 159.209 167.85 160.103 167.795 148.783Z"/>
	<path fill="#EA9361" transform="scale(0.195312 0.195312)" d="M161.458 170.076C164.108 169.892 166.793 171.133 169.37 171.654C178.134 173.429 187.395 173.466 195.987 170.855L195.987 189.286L161.965 189.286C161.95 185.092 162.699 173.399 161.458 170.076Z"/>
	<path fill="#EA9361" transform="scale(0.195312 0.195312)" d="M157.49 189.286C154.265 189.263 147.838 190.154 145.064 188.974C143.59 185.759 144.244 158.576 144.262 153.067C144.993 163.75 151.908 165.234 157.49 170.076C157.001 172.005 157.487 186.135 157.49 189.286Z"/>
	<path fill="#EA9361" transform="scale(0.195312 0.195312)" d="M200.079 171.636C206.279 171.276 212.227 160.395 213.652 155.098L213.669 175.416C213.69 190.762 216.589 190.362 200.079 189.286L200.047 177.395C200.036 175.583 199.788 173.415 200.079 171.636Z"/>
	<path fill="#8AE0BF" transform="scale(0.195312 0.195312)" d="M177.291 131.574C184.847 131.491 187.5 138.97 190.773 144.513L180.693 144.513L166.946 144.513C168.776 139.064 170.824 132.705 177.291 131.574Z"/>
	<path fill="#E8E7EA" transform="scale(0.195312 0.195312)" d="M194.739 143.005C196.256 143.156 197.133 143.137 198.043 144.513C196.282 144.604 194.503 145.472 194.739 143.005Z"/>
	<path fill="#334A98" transform="scale(0.195312 0.195312)" d="M222.051 187.751C223.263 187.816 236.816 187.889 230.227 192.512C227.76 192.557 219.903 194.035 220.755 189.546C220.932 188.61 221.327 188.273 222.051 187.751Z"/>
	<path fill="#334A98" transform="scale(0.195312 0.195312)" d="M127.609 187.751C130.594 187.684 140.938 186.849 134.978 192.512C132.691 192.409 121.896 192.115 127.609 187.751Z"/>
	<path fill="#334A98" transform="scale(0.195312 0.195312)" d="M329.027 151.357C344.242 150.223 356.024 162.522 355.537 177.521C355.239 186.706 350.06 192.472 343.736 198.357C344.333 215.773 358.835 237.528 332.663 242.735C324.119 243.032 313.022 238.088 312.917 228.24C312.871 223.891 316.749 202.392 317.865 198.357C297.943 182.362 304.559 154.01 329.027 151.357Z"/>
	<path fill="#ACD85F" transform="scale(0.195312 0.195312)" d="M333.686 196.501Q333.326 196.554 332.964 196.594Q332.601 196.635 332.238 196.662Q331.875 196.689 331.511 196.703Q331.147 196.717 330.783 196.718Q330.418 196.719 330.054 196.707Q329.69 196.695 329.327 196.67Q328.963 196.645 328.601 196.607Q328.238 196.569 327.878 196.518Q327.517 196.467 327.158 196.403Q326.8 196.339 326.444 196.262Q326.088 196.185 325.734 196.095Q325.381 196.006 325.032 195.904Q324.682 195.801 324.336 195.687Q323.99 195.572 323.649 195.445Q323.308 195.318 322.971 195.179Q322.634 195.039 322.303 194.888Q321.971 194.737 321.646 194.574Q321.32 194.411 321 194.236Q320.68 194.062 320.367 193.876Q320.054 193.69 319.747 193.493Q319.441 193.296 319.142 193.088Q318.843 192.88 318.551 192.661Q318.26 192.443 317.977 192.214Q317.693 191.985 317.418 191.746Q317.143 191.507 316.877 191.258Q316.611 191.01 316.353 190.751Q316.096 190.493 315.849 190.226Q315.601 189.959 315.363 189.683Q315.125 189.408 314.897 189.123Q314.669 188.839 314.451 188.547Q314.234 188.255 314.027 187.955Q313.82 187.655 313.624 187.348Q313.428 187.041 313.243 186.727Q313.058 186.413 312.885 186.093Q312.711 185.772 312.549 185.446Q312.387 185.12 312.237 184.788Q312.087 184.456 311.949 184.119Q311.811 183.781 311.685 183.44Q311.559 183.098 311.446 182.752Q311.333 182.405 311.232 182.055Q311.131 181.705 311.042 181.352Q310.954 180.998 310.878 180.642Q310.803 180.286 310.74 179.927Q310.677 179.568 310.627 179.207Q310.577 178.846 310.541 178.484Q310.504 178.121 310.48 177.758Q310.456 177.394 310.445 177.03Q310.435 176.666 310.437 176.302Q310.439 175.937 310.455 175.573Q310.47 175.209 310.498 174.846Q310.527 174.483 310.568 174.121Q310.61 173.759 310.664 173.399Q310.719 173.039 310.786 172.681Q310.854 172.323 310.934 171.967Q311.014 171.612 311.107 171.26Q311.2 170.907 311.305 170.559Q311.411 170.21 311.528 169.865Q311.646 169.521 311.777 169.18Q311.907 168.84 312.049 168.505Q312.191 168.169 312.346 167.839Q312.5 167.509 312.666 167.185Q312.832 166.861 313.01 166.543Q313.187 166.225 313.376 165.913Q313.565 165.602 313.765 165.297Q313.965 164.992 314.176 164.695Q314.386 164.398 314.608 164.109Q314.829 163.819 315.061 163.538Q315.292 163.257 315.534 162.984Q315.775 162.711 316.026 162.447Q316.277 162.183 316.538 161.929Q316.798 161.674 317.068 161.429Q317.337 161.184 317.615 160.948Q317.893 160.713 318.179 160.487Q318.466 160.262 318.76 160.047Q319.054 159.833 319.356 159.628Q319.657 159.424 319.966 159.231Q320.275 159.038 320.591 158.856Q320.906 158.674 321.228 158.503Q321.55 158.333 321.878 158.174Q322.206 158.015 322.539 157.868Q322.873 157.721 323.211 157.586Q323.549 157.452 323.892 157.329Q324.236 157.206 324.583 157.096Q324.93 156.986 325.281 156.888Q325.632 156.79 325.986 156.705Q326.34 156.62 326.697 156.548Q327.054 156.475 327.414 156.416Q327.773 156.356 328.135 156.31Q328.496 156.264 328.859 156.23Q329.221 156.197 329.585 156.176Q329.949 156.156 330.313 156.148Q330.677 156.141 331.042 156.147Q331.406 156.152 331.77 156.171Q332.133 156.19 332.496 156.222Q332.859 156.254 333.221 156.298Q333.582 156.343 333.942 156.401Q334.386 156.472 334.826 156.563Q335.266 156.654 335.702 156.764Q336.138 156.875 336.568 157.004Q336.999 157.134 337.423 157.282Q337.848 157.431 338.265 157.598Q338.682 157.765 339.092 157.95Q339.501 158.136 339.902 158.339Q340.303 158.542 340.694 158.763Q341.086 158.984 341.467 159.222Q341.849 159.46 342.219 159.715Q342.589 159.97 342.948 160.241Q343.307 160.511 343.653 160.798Q344 161.084 344.333 161.386Q344.667 161.687 344.986 162.003Q345.306 162.32 345.611 162.649Q345.917 162.979 346.207 163.322Q346.498 163.665 346.773 164.021Q347.048 164.377 347.307 164.744Q347.566 165.112 347.808 165.49Q348.05 165.869 348.276 166.258Q348.501 166.646 348.709 167.045Q348.917 167.443 349.107 167.851Q349.298 168.258 349.469 168.674Q349.641 169.089 349.795 169.511Q349.948 169.934 350.083 170.363Q350.217 170.792 350.332 171.226Q350.448 171.661 350.544 172.1Q350.64 172.539 350.716 172.982Q350.792 173.425 350.849 173.871Q350.906 174.317 350.943 174.765Q350.98 175.213 350.997 175.662Q351.014 176.111 351.011 176.561Q351.008 177.011 350.985 177.459Q350.963 177.908 350.92 178.356Q350.877 178.803 350.815 179.249Q350.752 179.694 350.67 180.136Q350.588 180.578 350.487 181.016Q350.385 181.453 350.264 181.886Q350.143 182.319 350.003 182.747Q349.863 183.174 349.705 183.594Q349.546 184.015 349.369 184.428Q349.192 184.841 348.996 185.246Q348.801 185.651 348.588 186.047Q348.375 186.443 348.144 186.829Q347.914 187.215 347.667 187.59Q347.42 187.965 347.156 188.329Q346.892 188.694 346.613 189.046Q346.333 189.398 346.038 189.737Q345.744 190.076 345.434 190.402Q345.124 190.728 344.801 191.04Q344.477 191.352 344.14 191.649Q343.803 191.947 343.453 192.229Q343.103 192.511 342.74 192.777Q342.378 193.043 342.005 193.293Q341.631 193.543 341.247 193.776Q340.862 194.009 340.468 194.225Q340.074 194.441 339.67 194.639Q339.267 194.838 338.855 195.018Q338.443 195.198 338.024 195.36Q337.604 195.521 337.178 195.664Q336.752 195.807 336.32 195.931Q335.888 196.055 335.451 196.16Q335.013 196.265 334.572 196.35Q334.131 196.435 333.686 196.501Z"/>
	<path fill="#334A98" transform="scale(0.195312 0.195312)" d="M333.837 176.317C334.347 175.863 344.907 164.966 343.329 173.274C342.978 175.121 335.201 181.785 333.45 183.511L331.615 184.958C330.39 184.023 314.375 170.217 323.265 170.882C325.815 171.073 330.003 176.806 331.615 178.81L333.837 176.317Z"/>
	<path fill="#F599AC" transform="scale(0.195312 0.195312)" d="M333.837 201.376L339.949 200.051C339.057 210.334 343.674 220.094 343.736 229.807C340.227 237.06 332.108 239.522 324.659 237.244C315.353 230.194 317.708 227.656 319.342 217.305C320.248 211.566 321.188 205.817 321.909 200.051C325.821 201.288 329.756 201.722 333.837 201.376Z"/>
	<path fill="#F37878" transform="scale(0.195312 0.195312)" d="M333.837 201.376L339.949 200.051C339.057 210.334 343.674 220.094 343.736 229.807C340.227 237.06 332.108 239.522 324.659 237.244C326.916 235.695 329.753 235.596 331.927 233.715C336.072 230.129 333.293 208.542 333.811 201.691L333.837 201.376Z"/>
	<path fill="#9BDBF4" transform="scale(0.195312 0.195312)" d="M332.663 76.6634L354.01 76.6517C373.105 76.6535 371.744 76.9061 371.747 97.3233C371.748 105.596 371.965 113.919 371.763 122.186C356.654 121.883 341.475 122.188 326.358 122.188L252.471 122.186C252.455 119.957 252.166 117.824 251.619 115.666C255.972 115.984 260.442 115.674 264.814 115.67L314.46 115.669C321.511 115.67 333.647 117.793 334.946 107.864C336.785 93.7976 318.625 96.6161 310.655 96.6148L268.158 96.6141C264.624 96.6075 247.841 98.1173 245.995 94.9136C242.286 88.4773 261.48 90.5597 263.365 90.56L304.864 90.5679C315.118 90.5678 331.807 94.3249 335.624 83.3411C334.943 80.7429 334.172 78.8894 332.663 76.6634Z"/>
	<path fill="#334A98" transform="scale(0.195312 0.195312)" d="M332.663 76.6634C327.226 76.5068 321.765 76.6595 316.325 76.6614L100.193 76.6683C89.357 76.6631 81.2275 75.4443 81.1782 89.0576L81.2116 128.895C81.2116 133.022 82.5988 147.714 79.8696 150.561C74.8274 152.23 76.5962 138.649 76.5979 136.455L76.5802 93.6497C76.527 73.4338 81.0771 71.7796 98.8114 71.7645L339.84 71.7562C347.585 71.751 355.403 71.5314 363.14 71.835C379.764 72.4871 376.809 90.5237 376.772 101.994C377.116 105.746 376.777 109.715 376.785 113.493L376.772 139.754C375.109 139.733 373.423 139.658 371.763 139.754C372.313 139.041 371.761 123.943 371.763 122.186L371.763 122.186C371.965 113.919 371.748 105.596 371.747 97.3233C371.744 76.9061 373.105 76.6535 354.01 76.6517L332.663 76.6634Z"/>
	<path fill="#8197D6" transform="scale(0.195312 0.195312)" d="M376.772 101.994C377.116 105.746 376.777 109.715 376.785 113.493L376.772 139.754C375.109 139.733 373.423 139.658 371.763 139.754C372.313 139.041 371.761 123.943 371.763 122.186C373.344 122.543 375.172 122.365 376.772 122.186C376.79 115.473 376.508 108.696 376.772 101.994Z"/>
	<path fill="#334A98" transform="scale(0.195312 0.195312)" d="M120.42 254.266L98.2156 254.288C79.8052 254.301 76.4677 253.849 76.5901 235.937L76.6011 191.638C76.6005 188.75 75.5413 175.08 77.6431 173.501C83.3992 169.179 81.201 190.233 81.2012 192.554L81.2082 229.267C81.209 234.567 78.9518 246.478 85.2094 249.093C92.6596 252.206 116.94 247.974 122.83 249.885C126.98 244.109 129.736 237.185 134.193 231.615C136.591 234.971 145.743 246.373 145.52 249.885L145.809 249.908C149.748 250.187 153.844 249.893 157.802 249.886L183.094 249.873C186.704 249.874 195.331 248.699 198.192 251.227C200.073 256.362 187.004 254.213 184.87 254.218L149.976 254.266C149.98 257.963 150.505 283.887 149.348 285.173C146.289 288.57 138.744 276.59 137.154 274.677C131.533 267.915 125.793 261.23 120.42 254.266Z"/>
	<path fill="#CFD9EA" transform="scale(0.195312 0.195312)" d="M134.193 231.615C136.591 234.971 145.743 246.373 145.52 249.885C145.136 250.836 145.523 273.283 145.52 276.632L145.503 276.87C144.528 276.628 142.813 274.369 142.041 273.558C137.461 268.387 126.247 255.425 122.83 249.885C126.98 244.109 129.736 237.185 134.193 231.615Z"/>
	<path fill="#E8E7EA" transform="scale(0.195312 0.195312)" d="M142.041 273.558C143.092 272.456 143.512 272.216 144.683 273.265L145.074 273.148L145.162 272.781C145.041 274.094 145.268 275.346 145.52 276.632L145.503 276.87C144.528 276.628 142.813 274.369 142.041 273.558Z"/>
	<path fill="#334A98" transform="scale(0.195312 0.195312)" d="M413.561 190.487C414.698 190.474 419.041 189.987 419.756 190.759C425.671 197.141 404.305 195.084 403.137 195.244C397.43 194.764 370.07 196.112 367.696 194.851C362.63 188.357 382.592 190.481 384.661 190.48L413.561 190.487Z"/>
	<path fill="#334A98" transform="scale(0.195312 0.195312)" d="M417.261 237.244C422.09 236.447 422.532 241.828 417.261 241.746L384.994 241.74C381.63 241.743 370.516 242.825 367.943 241.322C366.177 240.29 366.548 237.36 368.749 237.244C374.035 236.965 379.478 237.242 384.785 237.24L417.261 237.244Z"/>
	<path fill="#334A98" transform="scale(0.195312 0.195312)" d="M384.686 174.891C386.698 174.835 393.535 173.772 394.205 176.643C395.296 181.313 381.063 179.697 377.615 179.717C375.553 179.743 369.294 180.011 367.795 178.963C363.67 172.449 381.456 174.879 384.686 174.891Z"/>
	<path fill="#334A98" transform="scale(0.195312 0.195312)" d="M368.395 159.235C372.425 159.226 399.453 155.94 393.064 163.827C390.33 163.907 359.669 166.562 368.395 159.235Z"/>
	<path fill="#334A98" transform="scale(0.195312 0.195312)" d="M370.059 205.989C374.335 205.96 390.333 205.217 393.299 206.697C396.081 208.086 393.405 210.373 391.313 210.582C387.762 210.586 369.359 211.106 367.741 210.133C365.762 207.591 367.651 206.27 370.059 205.989Z"/>
	<path fill="#334A98" transform="scale(0.195312 0.195312)" d="M368.395 221.258L383.182 221.236C385.051 221.234 399.792 220.504 393.064 225.765L376.905 225.8C374.741 225.803 365.478 227.181 367.066 222.631C367.35 221.818 367.723 221.688 368.395 221.258Z"/>
</svg>
