<?xml version="1.0" encoding="utf-8" ?>
<svg xmlns="http://www.w3.org/2000/svg" xmlns:xlink="http://www.w3.org/1999/xlink" width="96" height="96">
	<path fill="#2E81AC" transform="scale(0.1875 0.1875)" d="M157.899 426.69C159.266 426.762 163.092 426.649 163.953 427.525L164.033 427.868C164.006 430.017 164.014 432.164 164.033 434.313C161.986 434.458 159.948 434.376 157.899 434.313C158.19 431.698 158.118 429.314 157.899 426.69Z"/>
	<path fill="#FCBD51" transform="scale(0.1875 0.1875)" d="M164.033 427.868L164.329 427.512C167.3 427.437 170.306 427.824 173.285 427.868C175.63 427.959 177.923 428.267 180.245 428.583C182.825 428.596 185.404 428.613 187.984 428.583C190.132 428.962 192.282 429.403 194.466 429.493L195.041 429.493L195.041 434.313L164.033 434.313C164.014 432.164 164.006 430.017 164.033 427.868Z"/>
	<path fill="#DC5C5B" transform="scale(0.1875 0.1875)" d="M243.575 420.267C243.666 424.946 243.594 429.633 243.575 434.313C240.1 434.52 236.543 434.348 233.062 434.313C220.395 434.462 207.71 434.321 195.041 434.313L195.041 429.493L197.843 429.493C197.95 428.216 197.848 426.832 197.843 425.545C206.433 425.541 206.967 425.767 214.784 428.654C219.634 430.446 226.559 431.634 231.617 430.145C238.344 428.027 239.329 425.269 243.575 420.267Z"/>
	<path fill="#DC5C5B" transform="scale(0.1875 0.1875)" d="M189.243 162.303C189.587 164.978 190.592 164.788 193.041 164.872L192.106 165.013C191.222 166.799 191.607 186.973 191.802 190.207C191.887 191.613 193.582 199.822 193.041 200.196C173.367 195.05 172.359 170.155 188.157 162.861C188.53 162.689 188.883 162.499 189.243 162.303Z"/>
	<path fill="#DC5C5B" transform="scale(0.1875 0.1875)" d="M301.441 162.303C319.718 165.561 323.457 195.445 299.507 200.196C299.169 198.899 299.753 188.185 299.507 184.989C299.208 180.517 299.069 170.948 299.507 166.624C300.27 165.273 300.877 163.751 301.441 162.303Z"/>
	<path fill="#285189" transform="scale(0.1875 0.1875)" d="M393.246 163.712C394.427 163.635 395.529 163.564 396.71 163.712C398.879 166.411 398.496 168.779 398.22 171.994C398.16 174.149 398.106 176.285 398.22 178.44C397.663 180.615 397.165 182.791 396.71 184.989C394.065 186.937 392.092 186.938 388.895 187.003C382.303 187.017 375.704 187.09 369.113 187.003C366.051 187.003 364.069 187.036 361.577 184.989C361.778 182.798 362.279 180.618 362.609 178.44C362.688 176.3 362.543 174.144 362.609 171.994C362.744 168.795 362.103 164.233 366.227 163.712L393.246 163.712Z"/>
	<path fill="#2F8CC7" transform="scale(0.1875 0.1875)" d="M398.22 171.994C398.16 174.149 398.106 176.285 398.22 178.44C389.124 177.603 371.807 178.041 362.609 178.44C362.688 176.3 362.543 174.144 362.609 171.994L398.22 171.994Z"/>
	<path fill="#285189" transform="scale(0.1875 0.1875)" d="M393.246 163.712C394.427 163.635 395.529 163.564 396.71 163.712C398.879 166.411 398.496 168.779 398.22 171.994L362.609 171.994C362.744 168.795 362.103 164.233 366.227 163.712L393.246 163.712Z"/>
	<path fill="#4BAFC4" transform="scale(0.1875 0.1875)" d="M157.899 426.69C156.717 425.971 132.601 424.169 127.923 422.714C121.317 420.659 115.761 415.821 112.555 409.718C98.7792 383.496 147.781 308.002 163.269 288.875C166.762 284.561 171.716 277.922 176.604 275.375C177.401 277.681 178.379 279.746 180.245 281.391C175.848 284.914 172.224 289.826 168.734 294.22C149.192 318.821 132.921 347.628 122.444 377.361C118.759 387.818 113.438 400.017 121.427 409.862C128.098 418.083 139.668 416.914 149.248 417.839C157.249 418.611 165.274 419.713 173.285 420.267L173.285 427.868C170.306 427.824 167.3 427.437 164.329 427.512L164.033 427.868L163.953 427.525C163.092 426.649 159.266 426.762 157.899 426.69Z"/>
	<path fill="#4BAFC4" transform="scale(0.1875 0.1875)" d="M388.895 187.003C392.092 186.938 394.065 186.937 396.71 184.989C396.341 193.462 393.445 202.994 390.93 211.059C378.773 250.046 355.932 283.88 325.966 311.388C323.437 313.71 320.592 315.855 318.247 318.347L318.25 351.084C318.246 358.241 318.516 368.748 317.249 375.608C313.599 371.939 309.046 347.822 308.344 342.518C309.167 340.942 309.147 319.757 308.955 316.671C311.769 313.117 316.201 310.258 319.613 307.219C352.836 277.612 382.732 231.842 388.895 187.003Z"/>
	<path fill="#F2D5C1" transform="scale(0.1875 0.1875)" d="M208.549 398.291C213.274 392.262 216.063 384.098 223.759 380.908C230.771 378.002 229.938 385.515 227.882 389.955L231.617 389.955C235.901 390.711 239.767 392.949 243.575 394.951C244.928 396.021 246.473 397.067 247.679 398.291C249.891 403.187 248.396 405.834 247.679 410.7C246.131 413.827 244.681 416.949 243.575 420.267C239.329 425.269 238.344 428.027 231.617 430.145C226.559 431.634 219.634 430.446 214.784 428.654C206.967 425.767 206.433 425.541 197.843 425.545C197.848 426.832 197.95 428.216 197.843 429.493L195.041 429.493L194.466 429.493C192.282 429.403 190.132 428.962 187.984 428.583C185.404 428.613 182.825 428.596 180.245 428.583C177.923 428.267 175.63 427.959 173.285 427.868L173.285 420.267C174.431 413.298 174.867 406.068 175.099 399.015C175.819 397.211 175.191 393.312 176.604 392.025C178.848 392.159 181.043 392.117 183.285 392.025C185.696 392.693 188.075 393.168 190.538 393.586C193.014 393.9 195.432 394.294 197.843 394.951C199.437 394.988 201.569 394.625 201.905 396.595L202.032 396.933C203.606 397.932 206.714 398.031 208.549 398.291Z"/>
	<path fill="#4BAFC4" transform="scale(0.1875 0.1875)" d="M176.604 392.025C178.848 392.159 181.043 392.117 183.285 392.025C185.696 392.693 188.075 393.168 190.538 393.586C193.014 393.9 195.432 394.294 197.843 394.951C199.437 394.988 201.569 394.625 201.905 396.595C200.358 399.265 198.961 420.094 197.843 425.545C197.848 426.832 197.95 428.216 197.843 429.493L195.041 429.493L194.466 429.493C192.282 429.403 190.132 428.962 187.984 428.583C185.404 428.613 182.825 428.596 180.245 428.583C177.923 428.267 175.63 427.959 173.285 427.868L173.285 420.267C174.431 413.298 174.867 406.068 175.099 399.015C175.819 397.211 175.191 393.312 176.604 392.025Z"/>
	<path fill="#2E81AC" transform="scale(0.1875 0.1875)" d="M176.604 392.025C178.848 392.159 181.043 392.117 183.285 392.025L181.532 411.667C181.029 417.283 180.421 422.947 180.245 428.583C177.923 428.267 175.63 427.959 173.285 427.868L173.285 420.267C174.431 413.298 174.867 406.068 175.099 399.015C175.819 397.211 175.191 393.312 176.604 392.025Z"/>
	<path fill="#2E81AC" transform="scale(0.1875 0.1875)" d="M190.538 393.586C193.014 393.9 195.432 394.294 197.843 394.951C199.437 394.988 201.569 394.625 201.905 396.595C200.358 399.265 198.961 420.094 197.843 425.545C197.848 426.832 197.95 428.216 197.843 429.493L195.041 429.493L194.466 429.493C192.282 429.403 190.132 428.962 187.984 428.583C187.91 418.991 189.372 403.755 190.538 393.586Z"/>
	<path fill="#2F8CC7" transform="scale(0.1875 0.1875)" d="M197.843 394.951C199.437 394.988 201.569 394.625 201.905 396.595C200.358 399.265 198.961 420.094 197.843 425.545C197.848 426.832 197.95 428.216 197.843 429.493L195.041 429.493L194.466 429.493C194.667 429.284 194.723 428.977 194.701 428.707C193.911 418.97 196.181 404.653 197.843 394.951Z"/>
	<path fill="#F2D5C1" transform="scale(0.1875 0.1875)" d="M369.113 108.894C369.982 109.073 370.745 109.159 371.632 109.126C373.389 105.475 371.18 81.7221 372.735 75.659C373.414 73.0155 378.326 72.8782 379.38 75.511C382.019 82.1048 378.284 103.362 380.548 109.453C384.912 110.128 383.531 105.384 383.542 102.651L383.663 91.2091C383.669 88.8825 382.723 81.3218 384.958 79.8634C395.598 72.922 389.05 105.633 391.357 108.732C396.75 115.976 392.814 92.0858 394.975 89.0938C396.099 87.5365 398.974 87.0648 400.423 88.4201C403.306 91.118 401.921 122.774 402.011 129.571C402.174 141.789 402.941 143.043 393.246 152.421C393.189 156.144 393.691 160.028 393.246 163.712L366.227 163.712C368.305 163.219 367.269 155.639 367.247 153.499C358.318 147.683 358.639 148.232 352.638 139.278C348.35 132.881 331.16 113.32 344.159 109.563C349.495 111.612 357.527 124.769 361.577 129.544C361.46 123.573 359.309 83.8902 360.344 81.294C361.489 78.4208 366.19 79.2038 367.052 81.9556C369.17 88.7181 366.471 100.601 369.113 108.894Z"/>
	<path fill="#94D3DB" transform="scale(0.1875 0.1875)" d="M361.577 184.989C364.069 187.036 366.051 187.003 369.113 187.003C375.704 187.09 382.303 187.017 388.895 187.003C382.732 231.842 352.836 277.612 319.613 307.219C316.201 310.258 311.769 313.117 308.955 316.671C309.147 319.757 309.167 340.942 308.344 342.518C305.943 329.089 304.251 300.411 308.344 287.759C309.243 281.118 312.443 276.726 316.419 271.579C321.491 264.999 327.069 258.909 331.862 252.092C342.23 237.345 360.448 203.627 361.577 184.989Z"/>
	<path fill="#4BAFC4" transform="scale(0.1875 0.1875)" d="M361.577 184.989C364.069 187.036 366.051 187.003 369.113 187.003C363.45 218.874 345.159 250.86 322.99 274.468C319.159 278.548 313.534 285.561 308.344 287.759C309.243 281.118 312.443 276.726 316.419 271.579C321.491 264.999 327.069 258.909 331.862 252.092C342.23 237.345 360.448 203.627 361.577 184.989Z"/>
	<path fill="#94D3DB" transform="scale(0.1875 0.1875)" d="M173.285 420.267C165.274 419.713 157.249 418.611 149.248 417.839C139.668 416.914 128.098 418.083 121.427 409.862C113.438 400.017 118.759 387.818 122.444 377.361C132.921 347.628 149.192 318.821 168.734 294.22C172.224 289.826 175.848 284.914 180.245 281.391C186.937 292.277 185.998 307.201 184.602 319.431C184.32 325.104 183.987 330.849 183.285 336.488L170.408 336.488C169.238 336.415 168.119 336.321 166.951 336.488C165.587 337.618 164.461 338.355 164.033 340.154C162.843 345.016 162.932 349.869 162.932 354.839L162.961 372.673C162.966 375.511 163.149 378.476 162.947 381.302L162.947 389.955C166.84 390.452 172.913 391.049 176.604 392.025C175.191 393.312 175.819 397.211 175.099 399.015C174.867 406.068 174.431 413.298 173.285 420.267ZM162.947 367.448C158.771 372.322 159.793 373.505 157.899 378.192L157.675 377.717C156.412 379.414 154.415 385.787 153.54 388.071C152.246 388.297 146.019 387.247 144.554 386.884C140.038 386.403 127.752 382.918 128.325 390.049C128.739 395.206 143.898 394.855 147.516 395.355L164.4 397.766C167.885 398.267 171.571 398.984 175.099 399.015C175.819 397.211 175.191 393.312 176.604 392.025C172.913 391.049 166.84 390.452 162.947 389.955L162.947 381.302C162.407 378.124 162.928 371.102 162.947 367.448Z"/>
	<path fill="#2F8CC7" transform="scale(0.1875 0.1875)" d="M166.951 336.488C168.884 332.42 174.467 314.196 180.245 325.42C178.73 329.205 176.764 332.771 175.099 336.488C173.564 336.455 171.929 336.312 170.408 336.488C169.238 336.415 168.119 336.321 166.951 336.488Z"/>
	<path fill="#4BAFC4" transform="scale(0.1875 0.1875)" d="M144.554 386.884C146.633 386.308 159.05 345.541 164.033 340.154C162.843 345.016 162.932 349.869 162.932 354.839L162.961 372.673C162.966 375.511 163.149 378.476 162.947 381.302C162.407 378.124 162.928 371.102 162.947 367.448C158.771 372.322 159.793 373.505 157.899 378.192L157.675 377.717C156.412 379.414 154.415 385.787 153.54 388.071C152.246 388.297 146.019 387.247 144.554 386.884Z"/>
	<path fill="#2F8CC7" transform="scale(0.1875 0.1875)" d="M162.947 367.448C162.928 371.102 162.407 378.124 162.947 381.302L162.947 389.955C166.84 390.452 172.913 391.049 176.604 392.025C175.191 393.312 175.819 397.211 175.099 399.015C171.571 398.984 167.885 398.267 164.4 397.766L147.516 395.355C143.898 394.855 128.739 395.206 128.325 390.049C127.752 382.918 140.038 386.403 144.554 386.884C146.019 387.247 152.246 388.297 153.54 388.071C154.415 385.787 156.412 379.414 157.675 377.717L157.899 378.192C159.793 373.505 158.771 372.322 162.947 367.448ZM153.54 388.071C154.627 388.211 156.98 389.322 157.826 389.058L157.899 388.977C157.519 385.54 157.648 381.643 157.899 378.192L157.675 377.717C156.412 379.414 154.415 385.787 153.54 388.071Z"/>
	<path fill="#3C4360" transform="scale(0.1875 0.1875)" d="M164.887 108.894C179.581 100.255 205.438 92.0216 221.542 86.8991C228.084 84.8179 234.83 82.3154 241.654 81.38C262.829 78.4778 284.567 88.6485 295.451 107.168C305.046 123.495 303.603 143.966 301.441 162.303C300.877 163.751 300.27 165.273 299.507 166.624C295.833 165.694 274.177 142.637 270.844 138.657C266.324 140.416 262.305 143.389 257.802 145.29C241.68 152.095 224.636 152.388 208.549 145.929C207.05 153.875 202.121 163.811 193.041 164.872C190.592 164.788 189.587 164.978 189.243 162.303L189.243 136.664L176.875 128.026C174.311 126.219 171.487 124.472 169.261 122.258C175.868 122.158 182.679 122.839 189.243 122.258C182.541 118.094 172.024 112.327 164.887 108.894Z"/>
	<path fill="#F2D5C1" transform="scale(0.1875 0.1875)" d="M208.549 145.929C224.636 152.388 241.68 152.095 257.802 145.29C262.305 143.389 266.324 140.416 270.844 138.657C274.177 142.637 295.833 165.694 299.507 166.624C299.069 170.948 299.208 180.517 299.507 184.989C299.753 188.185 299.169 198.899 299.507 200.196L298.952 200.448C292.711 218.798 282.784 227.723 266.019 235.465L265.781 235.516C255.299 237.866 249.408 239.89 237.869 237.904C234.788 237.373 229.989 235.627 227.292 235.465C221.824 235.962 206.315 221.776 202.741 218.059C201.02 215.578 193.375 200.318 193.041 200.196C193.582 199.822 191.887 191.613 191.802 190.207C191.607 186.973 191.222 166.799 192.106 165.013L193.041 164.872C202.121 163.811 207.05 153.875 208.549 145.929Z"/>
	<path fill="#3C4360" transform="scale(0.1875 0.1875)" d="M224.947 175.771C233.943 174.817 234.229 188.777 227.292 191.988C218.222 192.501 217.606 177.58 224.947 175.771Z"/>
	<path fill="#3C4360" transform="scale(0.1875 0.1875)" d="M265.049 175.771C274.549 175.495 275.083 189.657 267.729 191.988C258.612 192.828 257.764 179.015 265.049 175.771Z"/>
	<path fill="#3C4360" transform="scale(0.1875 0.1875)" d="M266.019 160.082C278.285 159.257 281.61 170.928 276.772 171.843C274.402 172.292 272.641 169.321 270.844 168.205C264.633 165.74 260.486 171.521 258.09 169.749C252.393 165.538 262.514 160.518 266.019 160.082Z"/>
	<path fill="#3C4360" transform="scale(0.1875 0.1875)" d="M223.628 160.082C231.346 159.013 240.808 166.202 236.507 169.786C233.835 172.013 230.836 168.538 227.648 168.235L227.292 168.205C222.117 166.185 221.943 169.759 217.928 170.97C212.867 172.497 210.764 162.485 223.628 160.082Z"/>
	<path fill="#3C4360" transform="scale(0.1875 0.1875)" d="M231.617 203.731C236.915 203.397 239.148 209.368 245.02 209.562C252.514 209.808 255.544 204.254 259.82 203.935C265.37 203.521 264.58 209.916 260.851 213.697C245.875 227.001 219.231 211.985 231.617 203.731Z"/>
	<path fill="#E7C4B1" transform="scale(0.1875 0.1875)" d="M299.507 184.989C299.753 188.185 299.169 198.899 299.507 200.196L298.952 200.448C292.711 218.798 282.784 227.723 266.019 235.465L265.781 235.516C255.299 237.866 249.408 239.89 237.869 237.904C234.788 237.373 229.989 235.627 227.292 235.465C221.824 235.962 206.315 221.776 202.741 218.059L203.296 217.895C205.337 218.159 210.526 223.555 212.52 225.096C241.922 247.819 280.643 231.21 294.274 199.167C296.255 194.51 296.853 189.374 299.507 184.989Z"/>
	<path fill="#2F8CC7" transform="scale(0.1875 0.1875)" d="M227.292 235.465C229.989 235.627 234.788 237.373 237.869 237.904C249.408 239.89 255.299 237.866 265.781 235.516L266.019 235.465C266.018 237.292 265.973 239.13 266.019 240.956C266.076 243.258 266.082 245.546 266.019 247.848C280.266 250.286 294.219 254.596 306.091 263.122C309.713 265.723 312.798 269.036 316.419 271.579C312.443 276.726 309.243 281.118 308.344 287.759C304.251 300.411 305.943 329.089 308.344 342.518C309.046 347.822 313.599 371.939 317.249 375.608C317.008 379.132 312.688 391.24 307.369 388.977L307.369 434.313L245.655 434.313L243.575 434.313C243.594 429.633 243.666 424.946 243.575 420.267C244.681 416.949 246.131 413.827 247.679 410.7C248.396 405.834 249.891 403.187 247.679 398.291C246.473 397.067 244.928 396.021 243.575 394.951C239.767 392.949 235.901 390.711 231.617 389.955L227.882 389.955C229.938 385.515 230.771 378.002 223.759 380.908C216.063 384.098 213.274 392.262 208.549 398.291C206.714 398.031 203.606 397.932 202.032 396.933L201.905 396.595C201.569 394.625 199.437 394.988 197.843 394.951C195.432 394.294 193.014 393.9 190.538 393.586C188.075 393.168 185.696 392.693 183.285 392.025C181.043 392.117 178.848 392.159 176.604 392.025C172.913 391.049 166.84 390.452 162.947 389.955L162.947 381.302C163.149 378.476 162.966 375.511 162.961 372.673L162.932 354.839C162.932 349.869 162.843 345.016 164.033 340.154C164.461 338.355 165.587 337.618 166.951 336.488C168.119 336.321 169.238 336.415 170.408 336.488L183.285 336.488C183.987 330.849 184.32 325.104 184.602 319.431C185.998 307.201 186.937 292.277 180.245 281.391C178.379 279.746 177.401 277.681 176.604 275.375C181.625 259.591 212.097 248.828 226.318 247.848C228.766 246.997 227.109 239.298 227.292 237.05L227.292 235.465ZM170.408 336.488C169.238 336.415 168.119 336.321 166.951 336.488C165.587 337.618 164.461 338.355 164.033 340.154C162.843 345.016 162.932 349.869 162.932 354.839L162.961 372.673C162.966 375.511 163.149 378.476 162.947 381.302L162.947 389.955C166.84 390.452 172.913 391.049 176.604 392.025C178.848 392.159 181.043 392.117 183.285 392.025C185.696 392.693 188.075 393.168 190.538 393.586C193.014 393.9 195.432 394.294 197.843 394.951C199.437 394.988 201.569 394.625 201.905 396.595L202.032 396.933C203.606 397.932 206.714 398.031 208.549 398.291C213.274 392.262 216.063 384.098 223.759 380.908C230.771 378.002 229.938 385.515 227.882 389.955L231.617 389.955C231.467 386.433 231.603 382.865 231.61 379.338L231.592 346.192C231.568 343.59 231.382 340.88 231.617 338.29L231.35 337.254C229.586 335.801 204.806 336.482 200.775 336.488L183.285 336.488L170.408 336.488ZM227.292 235.465L227.292 237.05C227.109 239.298 228.766 246.997 226.318 247.848L227.027 248.044C227.487 249.612 227.795 254.022 226.803 255.376C222.273 256.87 217.862 258.586 213.433 260.347C211.157 261.038 207.324 262.804 205.532 264.331C207.786 267.217 209.658 271.395 211.603 274.578L226.318 298.192C230.687 294.527 240.63 288.901 245.655 286.096C251.435 290.054 259.764 294.544 266.019 298.192C272.996 287.666 279.585 273.952 287.232 264.331C284.581 263.108 282.111 260.849 279.183 260.347C275.821 258.136 269.999 256.083 266.019 255.376C265.405 253.307 265.925 250.046 266.019 247.848C266.082 245.546 266.076 243.258 266.019 240.956C265.973 239.13 266.018 237.292 266.019 235.465L265.781 235.516C255.299 237.866 249.408 239.89 237.869 237.904C234.788 237.373 229.989 235.627 227.292 235.465Z"/>
	<path fill="#285189" transform="scale(0.1875 0.1875)" d="M247.679 410.7C247.898 411.57 247.85 432.816 247.571 434.002L245.655 434.313L243.575 434.313C243.594 429.633 243.666 424.946 243.575 420.267C244.681 416.949 246.131 413.827 247.679 410.7Z"/>
	<path fill="#285189" transform="scale(0.1875 0.1875)" d="M240.69 338.91C251.331 340.142 247.703 354.18 247.69 363.09L247.679 398.291C246.473 397.067 244.928 396.021 243.575 394.951L243.588 358.683C243.595 351.34 245.657 344.409 240.69 338.91Z"/>
	<path fill="#DC5C5B" transform="scale(0.1875 0.1875)" d="M231.617 338.29C234.738 338.777 237.543 337.903 240.69 338.91C245.657 344.409 243.595 351.34 243.588 358.683L243.575 394.951C239.767 392.949 235.901 390.711 231.617 389.955C231.467 386.433 231.603 382.865 231.61 379.338L231.592 346.192C231.568 343.59 231.382 340.88 231.617 338.29Z"/>
	<defs>
		<linearGradient id="gradient_0" gradientUnits="userSpaceOnUse" x1="237.43571" y1="283.88184" x2="173.8932" y2="303.38358">
			<stop offset="0" stop-color="#323857"/>
			<stop offset="1" stop-color="#374F80"/>
		</linearGradient>
	</defs>
	<path fill="url(#gradient_0)" transform="scale(0.1875 0.1875)" d="M226.318 247.848L227.027 248.044C227.487 249.612 227.795 254.022 226.803 255.376C222.273 256.87 217.862 258.586 213.433 260.347C211.157 261.038 207.324 262.804 205.532 264.331C201.566 266.199 197.472 268.325 194.466 271.579C209.609 294.647 199.623 314.258 200.775 336.488L183.285 336.488C183.987 330.849 184.32 325.104 184.602 319.431C185.998 307.201 186.937 292.277 180.245 281.391C178.379 279.746 177.401 277.681 176.604 275.375C181.625 259.591 212.097 248.828 226.318 247.848Z"/>
	<path fill="#3C4360" transform="scale(0.1875 0.1875)" d="M266.019 247.848C280.266 250.286 294.219 254.596 306.091 263.122C309.713 265.723 312.798 269.036 316.419 271.579C312.443 276.726 309.243 281.118 308.344 287.759C304.251 300.411 305.943 329.089 308.344 342.518C309.046 347.822 313.599 371.939 317.249 375.608C317.008 379.132 312.688 391.24 307.369 388.977C305.895 387.401 304.266 386.224 302.976 384.426C292.138 369.307 288.937 327.41 289.008 309.785C289.069 294.559 290.162 284.661 298.182 271.579C294.74 268.815 291.309 266.097 287.232 264.331C284.581 263.108 282.111 260.849 279.183 260.347C275.821 258.136 269.999 256.083 266.019 255.376C265.405 253.307 265.925 250.046 266.019 247.848Z"/>
	<path fill="#285189" transform="scale(0.1875 0.1875)" d="M227.292 235.465C229.989 235.627 234.788 237.373 237.869 237.904C249.408 239.89 255.299 237.866 265.781 235.516L266.019 235.465C266.018 237.292 265.973 239.13 266.019 240.956C266.076 243.258 266.082 245.546 266.019 247.848C265.925 250.046 265.405 253.307 266.019 255.376C269.999 256.083 275.821 258.136 279.183 260.347C282.111 260.849 284.581 263.108 287.232 264.331C279.585 273.952 272.996 287.666 266.019 298.192C259.764 294.544 251.435 290.054 245.655 286.096C240.63 288.901 230.687 294.527 226.318 298.192L211.603 274.578C209.658 271.395 207.786 267.217 205.532 264.331C207.324 262.804 211.157 261.038 213.433 260.347C217.862 258.586 222.273 256.87 226.803 255.376C227.795 254.022 227.487 249.612 227.027 248.044L226.318 247.848C228.766 246.997 227.109 239.298 227.292 237.05L227.292 235.465ZM266.019 255.376C264.261 263.612 252.656 271.665 245.655 275.375C241.384 272.538 233.318 265.959 230.313 261.853C229.222 260.363 227.821 256.253 226.803 255.376C222.273 256.87 217.862 258.586 213.433 260.347C218.773 268.901 224.394 277.289 229.32 286.096C231.099 285.092 232.776 283.755 234.488 282.629L245.655 275.375C251.562 278.529 257.128 282.601 262.856 286.096C266.644 279.14 274.462 265.972 279.183 260.347C275.821 258.136 269.999 256.083 266.019 255.376Z"/>
	<path fill="#E7C4B1" transform="scale(0.1875 0.1875)" d="M227.292 235.465C229.989 235.627 234.788 237.373 237.869 237.904C249.408 239.89 255.299 237.866 265.781 235.516L266.019 235.465C266.018 237.292 265.973 239.13 266.019 240.956C266.076 243.258 266.082 245.546 266.019 247.848C265.925 250.046 265.405 253.307 266.019 255.376C264.261 263.612 252.656 271.665 245.655 275.375C241.384 272.538 233.318 265.959 230.313 261.853C229.222 260.363 227.821 256.253 226.803 255.376C227.795 254.022 227.487 249.612 227.027 248.044L226.318 247.848C228.766 246.997 227.109 239.298 227.292 237.05L227.292 235.465Z"/>
	<path fill="#F2D5C1" transform="scale(0.1875 0.1875)" d="M227.292 235.465C229.989 235.627 234.788 237.373 237.869 237.904C249.408 239.89 255.299 237.866 265.781 235.516L266.019 235.465C266.018 237.292 265.973 239.13 266.019 240.956C249.009 245.421 246.425 248.334 227.292 240.956L227.321 240.911C227.383 239.731 227.66 238.172 227.292 237.05L227.292 235.465Z"/>
	<path fill="#FCBD51" transform="scale(0.1875 0.1875)" d="M170.408 336.488L183.285 336.488L200.775 336.488C204.806 336.482 229.586 335.801 231.35 337.254L231.617 338.29C231.382 340.88 231.568 343.59 231.592 346.192L231.61 379.338C231.603 382.865 231.467 386.433 231.617 389.955L227.882 389.955C229.938 385.515 230.771 378.002 223.759 380.908C216.063 384.098 213.274 392.262 208.549 398.291C206.714 398.031 203.606 397.932 202.032 396.933L201.905 396.595C201.569 394.625 199.437 394.988 197.843 394.951C195.432 394.294 193.014 393.9 190.538 393.586C188.075 393.168 185.696 392.693 183.285 392.025C181.043 392.117 178.848 392.159 176.604 392.025C172.913 391.049 166.84 390.452 162.947 389.955L162.947 381.302C163.149 378.476 162.966 375.511 162.961 372.673L162.932 354.839C162.932 349.869 162.843 345.016 164.033 340.154C164.461 338.355 165.587 337.618 166.951 336.488C168.119 336.321 169.238 336.415 170.408 336.488ZM174.607 344.305C170.422 344.87 169.312 350.16 172.943 352.28C175.296 353.654 196.598 353.12 200.775 353.051C205.933 351.177 205.041 345.843 202.1 344.786C199.313 343.785 179.068 344.219 174.607 344.305ZM211.73 344.305C207.727 345.133 205.814 349.882 209.869 352.318C211.813 353.485 222.29 353.472 224.947 353.051C226.213 352.598 227.594 352.047 228.235 350.767C232.6 342.055 215.384 344.229 211.73 344.305Z"/>
</svg>
