<?xml version="1.0" encoding="utf-8" ?>
<svg xmlns="http://www.w3.org/2000/svg" xmlns:xlink="http://www.w3.org/1999/xlink" width="96" height="96">
	<path fill="#101112" transform="scale(0.1875 0.1875)" d="M280.827 75.4972C311.485 73.9662 340.213 74.4434 357.153 105.481C365.172 120.174 364.527 133.494 364.254 149.533C376.366 155.653 373.746 168.33 364.254 175.799C364.266 181.846 363.194 193.82 366.259 198.827C367.419 200.723 369.393 202.025 370.625 203.905C380.204 218.52 368.288 240.242 354.928 248.843C369.193 253.21 380.966 252.471 388.072 268.095C395.969 255.005 410.758 228.416 420.027 217.18C423.546 212.914 428.521 217.755 431.823 219.958C438.084 224.136 432.259 229.208 429.458 233.627C419.303 249.647 409.902 266.129 399.197 281.81C401.886 289.554 403.712 297.739 405.778 305.675L423.857 372.172C427.206 384.614 432.853 397.506 422.129 408.259C413.978 416.432 404.535 415.013 393.978 414.987C394.005 419.932 394.807 430.465 391.448 434.231C388.056 438.035 365.476 436.384 359.969 436.384L257.148 436.377C248.755 436.377 240.256 436.686 231.875 436.442C226.45 436.283 228.173 425.742 228.172 422.107L228.176 350.312L228.176 318.121C221.561 324.792 209.258 340.526 202.59 345.21C192.997 351.951 178.876 350.064 172.172 340.147C158.48 319.893 144.4 296.242 131.924 275.156C127.981 268.492 123.205 262.264 119.534 255.433C117.64 251.91 118.593 250.7 121.839 248.843C119.81 247.354 117.56 246.209 115.44 244.859C105.612 238.599 100.477 227.777 94.2138 218.39L84.6421 204.056C79.0529 195.766 72.9475 189.736 83.4602 181.589C82.1786 173.596 87.5839 165.892 95.851 168.406C97.9156 163.611 102.852 159.882 108.27 160.824C115.03 162 130.273 185.738 134.694 191.951C142.038 186.723 152.27 188.107 155.623 197.181C158.576 205.171 151.523 217.909 148.09 225.534C148.579 226.784 149.147 229.03 150.409 229.645C154.864 228.791 161.741 243.11 164.339 247.17L189.759 287.067C192.818 284.404 195.993 279.796 198.643 276.603L206.756 266.942C219.444 251.93 221.355 253.822 237.506 248.843C226.479 237.221 212.574 225.018 221.074 205.899C222.78 202.063 226.001 199.195 227.034 195.004C228.2 190.274 227.569 180.995 227.55 175.799C217.267 169.668 216.052 154.29 226.987 149.533C226.636 143.42 226.515 135.755 226.942 129.741C229.008 100.626 252.253 78.7078 280.827 75.4972ZM290.573 282.514C287.484 282.732 284.535 283.056 281.503 283.714C285.813 293.246 291.568 305.146 296.676 314.347C297.384 313.035 298.111 311.732 298.752 310.386C303.102 301.528 307.191 292.527 311.621 283.714C304.541 282.601 297.715 282.563 290.573 282.514ZM319.004 247.754C316.269 253.283 313.951 258.651 310.055 263.537C306.926 267.461 302.955 270.944 300.219 275.137C302.77 275.039 305.258 275.053 307.81 275.137C312.85 276.016 317.645 276.996 322.493 278.682C322.905 268.842 322.488 258.719 322.493 248.843C321.346 248.45 320.194 247.995 319.004 247.754ZM273.514 247.754L269.753 248.843C269.601 258.783 269.758 268.74 269.753 278.682C275.28 276.929 280.651 275.919 286.385 275.137C288.156 275.158 289.976 275.264 291.742 275.137C285.925 266.031 279.345 263.004 274.66 250.862C274.351 250.06 274.08 248.264 273.514 247.754Z"/>
	<path fill="#FEC69D" transform="scale(0.1875 0.1875)" d="M354.928 154.557C358.062 154.579 360.083 155.128 362.461 157.208C361.942 158.338 355.762 171.256 354.928 164.496L354.928 154.557Z"/>
	<path fill="#FFB969" transform="scale(0.1875 0.1875)" d="M362.461 157.208C368.044 164.186 362.494 170.429 354.928 170.287C354.83 168.341 354.828 166.442 354.928 164.496C355.762 171.256 361.942 158.338 362.461 157.208Z"/>
	<path fill="#FEC69D" transform="scale(0.1875 0.1875)" d="M232.217 154.557L236.579 154.557L236.579 169.612C235.11 169.686 233.686 169.757 232.217 169.612C224.214 166.379 225.588 158.13 232.217 154.557Z"/>
	<path fill="#FEC69D" transform="scale(0.1875 0.1875)" d="M280.827 228.106L283.642 228.106C285.16 229.996 287.028 231.97 288.17 234.119C290.523 238.55 294.209 258.155 290.573 261.701C279.394 247.789 280.511 245.264 280.827 228.106Z"/>
	<path fill="#184979" transform="scale(0.1875 0.1875)" d="M424.55 223.666C428.851 225.682 417.346 240.128 415.151 243.626L371.573 313.587C370.337 315.57 367.076 322.846 365.14 323.424C364.307 323.4 363.478 323.408 362.66 323.234C364.056 319.447 368.86 312.518 371.188 308.658C380.773 292.768 390.845 277.227 400.75 261.544C408.268 249.639 416.055 234.63 424.55 223.666Z"/>
	<path fill="#FEC69D" transform="scale(0.1875 0.1875)" d="M318.359 381.441C320.551 381.631 328.847 386.224 331.857 387.319L331.857 406.931C330.386 407.088 328.904 407.405 327.445 407.658C324.409 408.009 321.399 408.541 318.359 408.878C316.311 407.943 314.929 406.478 313.589 404.725C313.762 396.229 310.56 386.177 318.359 381.441Z"/>
	<path fill="#FFB969" transform="scale(0.1875 0.1875)" d="M283.642 228.106C292.918 231.286 302.239 229.645 311.621 228.106C311.683 242.647 313.538 246.851 303.925 258.921C301.535 261.923 298.613 264.788 296.676 268.095C294.369 266.146 292.485 264.026 290.573 261.701C294.209 258.155 290.523 238.55 288.17 234.119C287.028 231.97 285.16 229.996 283.642 228.106Z"/>
	<path fill="#F5F8F8" transform="scale(0.1875 0.1875)" d="M320.815 415.834C325.394 415.152 330.303 414.719 334.716 413.295C340.574 416.437 349.154 414.997 355.547 414.997L386.029 414.987L386.029 425.263L386.029 429.22L381.539 429.22L345.797 429.231C342.214 429.231 324.661 430.406 322.386 428.02C320.177 425.705 320.81 418.928 320.815 415.834Z"/>
	<path fill="#FFB969" transform="scale(0.1875 0.1875)" d="M338.482 144.778C341.409 146.421 344.448 147.058 347.68 147.837L347.69 165.368C347.688 169.891 347.833 174.514 347.296 179.01C344.182 205.057 316.231 226.478 290.573 222.265C292.875 220.521 296.338 220.176 299.065 219.276C323.008 211.377 335.485 189.286 338.076 164.946C338.786 158.278 338.417 151.476 338.482 144.778Z"/>
	<path fill="#CD9A95" transform="scale(0.1875 0.1875)" d="M235.296 176.704C237.141 177.025 236.591 177.503 236.643 179.24C237.191 197.514 255.202 222.861 273.514 225.534L273.514 238.927C269.128 240.012 264.789 241.263 260.448 242.511C255.664 243.748 250.893 245.058 246.178 246.536C236.993 237.52 219.341 224.437 228.356 208.58C233.835 198.943 235.613 197.014 235.268 185.649C235.178 182.694 234.595 179.608 235.296 176.704Z"/>
	<path fill="#CD9A95" transform="scale(0.1875 0.1875)" d="M354.928 176.704L355.886 177.094C359.495 181.593 352.306 201.3 365.14 208.741C369.982 226.802 359.079 237.773 344.708 246.536C340.627 244.934 336.123 244.117 331.857 243.12C327.698 241.797 323.324 240.529 319.004 239.892C319.245 235.127 318.959 230.31 319.004 225.534C336.173 217.24 349.207 204.872 353.887 185.517C354.587 182.624 354.265 179.601 354.928 176.704Z"/>
	<path fill="#FEC69D" transform="scale(0.1875 0.1875)" d="M105.437 168.406C111.199 167.86 128.891 195.458 131.834 200.924C129.239 208.631 116.721 221.335 125.421 227.318C130.733 230.971 131.069 224.955 129.507 220.744C131.891 215.653 135.662 211.333 137.722 206.056C138.744 203.44 138.699 198.699 140.673 196.728C142.9 194.505 147.281 196.414 148.613 198.765C154.375 208.927 134.293 217.167 143.857 233.221C138.073 236.581 132.658 240.849 127 244.475C126.621 243.801 126.151 243.156 125.723 242.511C118.026 236.142 115.956 238.595 108.608 227.154C101.157 215.265 93.3519 203.2 84.9542 191.951C88.5785 176.312 99.3537 208.195 106.471 208.418C117.972 208.777 95.4488 183.778 94.0196 182.206C91.6838 179.638 86.8897 178.993 92.8508 175.422C96.2999 173.356 98.9066 178.167 100.575 180.367L109.383 192.177C111.044 194.433 113.771 199.66 116.756 200.299C119.526 200.892 121.571 197.799 120.427 195.321C117.31 188.568 98.0942 171.631 105.437 168.406Z"/>
	<path fill="#F5F8F8" transform="scale(0.1875 0.1875)" d="M324.305 330.745L325.536 330.731L376.596 330.724C390.391 330.696 386.791 333.733 386.792 347.384L386.776 374.06L378.125 374.06L352.452 374.048C344.73 374.048 336.574 371.964 331.857 379.491C328.206 377.702 324.203 376.324 320.815 374.06C320.558 369.329 320.49 335.029 321.409 332.786C321.915 331.552 323.171 331.186 324.305 330.745Z"/>
	<path fill="#5EBBDE" transform="scale(0.1875 0.1875)" d="M149.86 238.927L150.265 238.976C152.301 240.853 159.3 252.728 161.447 256.114L190.804 302.565C195.806 310.525 207.177 323.474 203.858 332.354C200.702 340.799 191.409 343.703 183.382 340.548C178.074 337.655 175.133 331.125 172.061 326.199L150.524 291.605C142.766 279.006 135.093 266.316 127 253.929C131.077 250.569 145.24 240.491 149.86 238.927Z"/>
	<path fill="#5EBBDE" transform="scale(0.1875 0.1875)" d="M393.978 290.686C395.99 292.961 396.337 298.757 397.146 301.749L414.183 364.598C417.206 375.366 426.594 396.628 415.314 404.566C409.289 408.806 401.597 407.659 394.655 407.652L350.928 407.67C347.245 407.672 343.145 408.029 339.525 407.445L339.607 407.071L339.373 407.381C338.469 405.594 338.928 402.188 338.944 400.181L338.944 381.441C343.118 380.814 347.304 381.397 351.499 381.428L386.805 381.445C390.073 381.446 404.953 382.524 407.004 380.787C414.984 374.027 395.846 374.059 393.978 374.06L393.987 346.741C394.006 326.667 395.042 323.317 373.986 323.424C380.413 312.374 387.482 301.699 393.978 290.686Z"/>
	<path fill="#CD9A95" transform="scale(0.1875 0.1875)" d="M280.827 83.176C280.983 83.1665 281.139 83.1638 281.296 83.1635L299.626 83.1667C304.391 83.1675 309.292 82.9432 314.027 83.5002C335.721 86.0527 354.005 105.022 356.264 126.672C356.783 131.645 356.497 136.837 356.484 141.838C343.643 140.339 329.507 135.739 323.336 123.374C318.658 113.999 322.791 109.095 310.171 120.37C294.567 131.997 275.618 137.835 256.234 137.475C253.534 137.425 239.819 135.813 238.506 136.707C234.999 139.093 238.321 145.854 235.401 147.437L234.737 147.148C233.537 144.84 234.292 140.244 234.297 137.664C234.356 108.452 251.382 87.3089 280.827 83.176Z"/>
	<path fill="#FEC69D" transform="scale(0.1875 0.1875)" d="M315.979 125.288C319.668 134.495 328.998 142.285 338.482 144.778C338.417 151.476 338.786 158.278 338.076 164.946C335.485 189.286 323.008 211.377 299.065 219.276C296.338 220.176 292.875 220.521 290.573 222.265C278.115 220.789 267.215 216.764 258.189 207.758C244.787 194.386 243.976 183.904 243.969 166.103L243.977 143.944C270.801 146.348 294.101 143.087 315.979 125.288Z"/>
	<path fill="#101112" transform="scale(0.1875 0.1875)" d="M294.144 169.612C304.015 168.657 296.526 185.213 291.035 183.559C288.485 181.876 286.932 179.894 285.303 177.354C294.452 176.723 288.587 170.052 294.144 169.612Z"/>
	<path fill="#F5F8F8" transform="scale(0.1875 0.1875)" d="M316.79 150.067C331.979 149.446 333.423 173.084 318.359 176.704C302.487 175.393 301.865 152.808 316.79 150.067Z"/>
	<path fill="#101112" transform="scale(0.1875 0.1875)" d="M315.979 154.557C326.523 153.58 327.457 168.551 319.004 173.527C308.389 172.975 306.876 158.611 315.979 154.557Z"/>
	<path fill="#F5F8F8" transform="scale(0.1875 0.1875)" d="M318.359 155.977C323.32 156.039 323.609 161.296 319.772 163.359C314.601 164.637 314.113 158.47 318.359 155.977Z"/>
	<path fill="#F5F8F8" transform="scale(0.1875 0.1875)" d="M271.89 150.067C288.615 148.82 291.684 172.605 276.843 176.704C261.64 178.768 256.537 155.326 271.89 150.067Z"/>
	<path fill="#101112" transform="scale(0.1875 0.1875)" d="M273.514 154.557C282.62 153.266 286.24 169.611 276.228 173.527C265.751 174.533 262.451 158.524 273.514 154.557Z"/>
	<path fill="#F5F8F8" transform="scale(0.1875 0.1875)" d="M274.307 155.977C279.637 155.318 279.605 160.917 276.228 163.359C270.71 163.68 269.195 158.201 274.307 155.977Z"/>
	<path fill="#101112" transform="scale(0.1875 0.1875)" d="M276.228 186.983L315.979 186.983C316.44 194.3 315.058 200.622 310.171 206.234C302.376 213.967 290.072 214.666 282.117 206.678C276.53 201.067 276.183 194.445 276.228 186.983Z"/>
	<path fill="#FF6D47" transform="scale(0.1875 0.1875)" d="M305.443 193.944C306.629 193.897 307.829 193.94 309.017 193.944C306.278 203.316 298.211 208.328 289.413 203.215C286.064 200.694 284.632 197.954 283.642 193.944C290.897 193.794 298.184 193.94 305.443 193.944Z"/>
	<path fill="#5EBBDE" transform="scale(0.1875 0.1875)" d="M261.365 250.513C263.246 249.809 262.396 257.406 262.389 258.607L262.347 274.907C262.345 278.03 262.102 281.473 262.601 284.557C263.629 290.906 270.25 286.413 273.89 285.789L274.307 285.719C277.615 294.376 283.469 304.604 287.653 312.991C295.556 328.835 293.013 331.414 293 349.588L293.006 403.009C293.006 406.322 292.504 417.097 293.226 419.527C294.073 422.377 299.086 422.724 300.036 419.846C300.772 417.614 300.219 406.016 300.217 402.634L300.208 349.615C300.208 329.07 297.71 329.472 306.189 311.856L319.004 285.719C332.835 290.485 330.025 285.957 330.015 274.343L329.997 250.513C333.726 251.223 337.455 252.467 341.157 253.364L360.772 258.186C369.194 260.283 378.042 261.197 381.124 270.746C383.878 279.276 377.502 285.022 373.237 291.881C367.459 301.175 359.516 313.33 354.648 323.031L354.454 323.424L350.835 323.424L334.003 323.408C314.014 323.404 313.561 324.881 313.575 345.966L313.589 375.393C304.159 380.961 304.772 396.999 306.606 406.166C307.421 410.242 310.277 412.82 313.589 414.987C313.685 419.877 313.343 424.504 314.868 429.22L235.296 429.22L235.315 304.669C235.275 300.413 232.395 294.953 228.862 299.192C227.264 301.109 228.019 305.294 228.176 307.642C222.336 312.635 217.273 318.966 212.276 324.806C209.008 315.545 199.56 302.489 194.059 293.957C199.096 285.944 217.565 264.301 223.694 261.109C230.089 257.778 253.975 251.378 261.365 250.513Z"/>
</svg>
