<?xml version="1.0" encoding="utf-8" ?>
<svg xmlns="http://www.w3.org/2000/svg" xmlns:xlink="http://www.w3.org/1999/xlink" width="60" height="60">
	<path fill="#0651C2" transform="scale(0.117188 0.117188)" d="M160.429 281.092C186.205 276.886 197.234 314.455 168.135 323.251C138.156 326.613 133.552 284.714 160.429 281.092ZM162.169 288.566C144.513 291.357 147.327 316.63 166.179 315.792C184.957 310.105 179.126 287.057 162.169 288.566Z"/>
	<path fill="#0651C2" transform="scale(0.117188 0.117188)" d="M234.403 281.092C238.277 279.384 245.545 282.776 248.568 285.139C263.885 297.112 256.842 321.514 237.812 323.251C204.63 323.555 207.884 282.628 234.403 281.092ZM234.403 288.566C213.904 291.393 221.576 319.101 236.562 315.792C255.641 314.3 251.433 286.487 234.403 288.566Z"/>
	<path fill="#0651C2" transform="scale(0.117188 0.117188)" d="M141.795 151.295L220.835 151.267C233.797 151.228 241.031 151.157 241.138 166.283L241.143 229.63C241.14 242.373 240.302 248.631 225.937 248.458L147.018 248.478C123.873 248.54 127.141 243.129 127.145 221.524L127.139 171.825C127.117 158.837 126.734 152.001 141.795 151.295ZM139.259 159.155C131.887 160.279 134.736 173.232 134.745 179.975L134.75 227.206C134.751 231.089 133.867 236.39 135.512 240C138.553 241.179 165.856 240.536 171.415 240.535L229.312 240.535C235.752 240.185 233.274 226.856 233.266 221.431L233.27 173.045C233.279 165.908 235.788 159.577 227.821 159.202C217.926 158.737 207.805 159.149 197.888 159.149L139.259 159.155Z"/>
	<path fill="#98EAF7" transform="scale(0.117188 0.117188)" d="M202.153 200.076C205.802 199.961 208.159 199.56 211.62 199.148L211.993 199.108C208.889 203.086 203.925 208.324 201.404 212.327C201.414 214.647 203.384 240.071 194.139 231.347C192.96 228.657 193.412 213.112 193.515 209.118C195.798 205.769 199.184 202.829 202.153 200.076Z"/>
	<path fill="#98EAF7" transform="scale(0.117188 0.117188)" d="M153.284 197.347C157.272 198.964 160.669 199.878 164.987 200.076C167.596 202.976 171.928 205.706 173.537 209.287C174.81 212.119 176.876 230.187 170.464 232.916C163.435 231.102 166.264 218.84 166.179 212.327C161.931 207.354 156.755 202.931 153.284 197.347Z"/>
	<path fill="#0651C2" transform="scale(0.117188 0.117188)" d="M202.153 200.076C185.434 194.741 190.154 171.166 206.366 172.514C220.043 173.651 223.461 189.986 211.993 199.108L211.62 199.148C208.159 199.56 205.802 199.961 202.153 200.076ZM203.765 180.28C196.815 183.981 197.928 192.86 206.834 192.238C214.716 189.06 211.495 179.575 203.765 180.28Z"/>
	<path fill="#0651C2" transform="scale(0.117188 0.117188)" d="M153.284 197.347C144.46 189.033 148.713 172.054 162.018 172.246C177.729 172.473 182.68 194.333 164.987 200.076C160.669 199.878 157.272 198.964 153.284 197.347ZM161.379 180.28C153.529 181.624 154.813 192.322 163.106 192.238C171.249 190.035 169.157 179.175 161.379 180.28Z"/>
	<path fill="#0651C2" transform="scale(0.117188 0.117188)" d="M100.94 118.078C104.325 117.585 108.086 118.042 111.526 118.061L430.935 118.077C439.718 118.076 448.573 117.8 457.346 118.078C458.299 118.791 459.058 119.561 459.767 120.519L459.766 364.425C459.764 372.656 460.091 381.248 459.89 389.424C459.726 396.11 452.266 394.157 447.798 394.131L55.0944 394.124C49.3919 391.233 51.7888 376.225 51.7757 370.383L51.7383 354.65C51.6709 322.309 67.6185 324.203 91.9147 324.209C106.788 324.213 118.915 321.532 128.489 335.523C135.52 321.593 154.736 324.061 168.37 324.175C181.86 324.287 191.532 322.359 199.74 335.523C206.708 325.816 212.344 324.293 224.37 324.182C231.798 324.114 239.174 324.098 246.603 324.171C273.081 324.432 275.543 335.853 275.536 359.517L275.522 386.004C279.238 385.789 283.084 385.983 286.809 385.986L309.33 386.004L309.33 309.009C293.903 307.61 297.124 310.567 297.252 290.125L297.234 264.757C297.232 247.276 293.367 247.809 309.33 247.595L309.329 194.946C309.318 167.275 303.509 170.023 328.371 170.017L404.885 170.019C412.518 170.019 420.228 169.768 427.852 170.02C428.627 170.632 429.286 171.356 429.969 172.067C430.338 195.775 429.97 219.552 429.969 243.265L429.969 386.004L452.131 386.004L452.131 125.802L106.245 125.802L106.245 285.076C116.27 295.554 117.903 310.425 104.97 319.617C90.106 330.182 67.0132 317.87 70.6434 298.845C73.2163 285.36 85.5615 278.616 98.5166 281.092L98.5389 131.37C98.5555 127.223 96.7009 120.552 100.94 118.078ZM92.7241 288.566C74.3573 287.936 73.2832 315.873 92.7241 315.792C105.341 315.299 111.525 299.879 101.208 291.452C98.9972 289.645 95.7056 287.606 92.7241 288.566ZM336.109 268.206C335.951 274.942 335.891 281.835 336.109 288.566C338.584 287.105 340.222 285.131 342.117 283.009C343.86 281.154 345.597 279.294 347.366 277.464C344.23 274.778 340.374 268.237 336.109 268.206Z"/>
	<path fill="#1BF1D9" transform="scale(0.117188 0.117188)" d="M305.121 255.52L328.149 255.52L328.149 301.102L305.121 301.102L305.121 255.52Z"/>
	<path fill="#1BF1D9" transform="scale(0.117188 0.117188)" d="M147.242 332.038C153.742 331.443 160.589 332.054 167.128 332.059C179.356 332.068 191.645 329.374 195.278 344.92C196.575 350.474 196.018 356.739 196.018 362.423L196.019 386.004C193.739 386.186 191.525 386.146 189.243 386.004L189.257 361.741C189.257 358.859 190.253 349.417 188.481 347.264C186.559 344.927 181.888 345.904 181.433 348.996C180.863 352.869 181.249 357.196 181.248 361.134L181.259 386.004L181.227 386.089C180.4 386.764 176.005 385.992 174.69 385.981L147.242 386.004L147.256 361.73C147.257 358.655 148.314 349.996 146.492 347.556C144.709 345.17 139.93 345.756 139.474 348.919C138.883 353.011 139.247 357.485 139.247 361.632L139.259 386.004C136.984 386.186 134.782 386.153 132.505 386.004L132.494 360.489C132.472 348.296 131.218 333.423 147.242 332.038Z"/>
	<path fill="#1BF1D9" transform="scale(0.117188 0.117188)" d="M223.401 332.038L242.901 332.02C267.048 332.008 267.577 335.392 267.583 360.959L267.575 386.004L260.777 386.004C260.648 375.495 261.932 359.025 260.687 349.136C260.313 346.166 256.004 344.993 253.985 347.07C251.878 349.238 252.973 358.508 252.975 361.482L252.99 386.004L248.779 386.004L218.432 386.004L218.422 359.628C218.426 356.559 218.803 353.156 218.584 350.128C218.271 345.798 212.024 344.044 211.267 349.072C210.62 353.371 211.046 358.136 211.061 362.485L211.05 386.004C208.608 386.091 206.208 386.124 203.765 386.004L203.752 360.98C203.75 343.639 202.713 332.625 223.401 332.038Z"/>
	<path fill="#1BF1D9" transform="scale(0.117188 0.117188)" d="M72.2376 332.038C80.9829 332.396 89.8934 332.034 98.6561 332.026C124.043 332.002 124.753 337.085 124.754 361.488L124.752 386.004C122.57 386.133 120.45 386.136 118.268 386.004L118.282 362.033C118.29 358.08 118.658 353.761 118.17 349.864C117.775 346.704 113.972 344.819 111.475 347.234C108.744 349.875 110.096 356.493 110.094 359.859L110.082 384.312C110.131 387.874 105.012 386.022 101.522 386.013L74.7257 386.004L74.7497 361.873C74.7548 357.842 75.1115 353.425 74.6014 349.433C74.031 344.969 67.4952 345.189 66.8278 349.788C66.2615 353.691 66.6183 358.009 66.6171 361.962L66.6225 386.004C64.324 386.16 62.0949 386.147 59.7953 386.004L59.7838 360.376C59.7819 348.913 58.0169 335.742 72.2376 332.038Z"/>
	<path fill="#98EAF7" transform="scale(0.117188 0.117188)" d="M317.44 177.809L421.909 177.809L421.909 386.004L382.625 386.004L317.44 386.004L317.44 309.009L326.965 309.031C338.536 309.171 336.202 307.602 336.109 295.752C337.983 295.522 340.341 295.446 341.939 294.358C344.418 292.671 357.059 280.903 357.074 277.345C357.082 275.317 349.777 268.597 347.966 266.781C343.765 262.567 342.218 259.999 336.109 259.99C335.469 243.49 335.419 247.618 317.44 247.595L317.456 200.602C317.458 193.042 317.111 185.352 317.44 177.809Z"/>
</svg>
