<?xml version="1.0" encoding="utf-8" ?>
<svg xmlns="http://www.w3.org/2000/svg" xmlns:xlink="http://www.w3.org/1999/xlink" width="60" height="60">
	<path fill="#72C5C1" transform="scale(0.117188 0.117188)" d="M377.292 154.249C400.038 154.22 418.413 151.896 436.198 169.58C451.952 185.245 452.451 199.135 452.456 219.88L452.451 312.27C452.415 338.143 439.706 363.407 412.349 369.194L417.612 399.665C418.774 406.231 420.862 414.187 420.566 420.804C420.19 429.217 412.695 435.527 405.314 429.903C400.401 426.159 395.671 422.081 390.888 418.171L352.966 386.791C346.359 381.388 339.854 375.594 332.826 370.748L232.785 370.755C224.489 370.757 215.791 371.209 207.694 369.143C186.809 363.816 169.423 343.416 168.226 321.8C178.637 313.21 177.196 314.925 191.234 314.984C190.923 328.877 198.86 342.314 212.372 347.002C219.542 349.49 230.662 348.594 238.409 348.595L317.641 348.614C322.59 348.621 335.397 347.826 339.568 349.151C345.302 350.971 382.511 382.172 392.058 389.33C390.754 382.031 384.849 360.28 388.395 354.676C392.305 348.498 398.767 350.652 404.757 349.314C416.948 346.591 428.165 335.044 429.626 322.395C430.451 315.247 430.073 307.837 430.072 300.644L430.074 225.104C430.073 208.023 432.29 191.321 415.238 181.012C409.007 177.246 384.676 174.404 377.292 176.255C377.636 174.133 377.332 171.563 377.327 169.396L377.292 154.249Z"/>
	<path fill="#FEFEFE" transform="scale(0.117188 0.117188)" d="M377.292 176.255C384.676 174.404 409.007 177.246 415.238 181.012C432.29 191.321 430.073 208.023 430.074 225.104L430.072 300.644C430.073 307.837 430.451 315.247 429.626 322.395C428.165 335.044 416.948 346.591 404.757 349.314C398.767 350.652 392.305 348.498 388.395 354.676C384.849 360.28 390.754 382.031 392.058 389.33C382.511 382.172 345.302 350.971 339.568 349.151C335.397 347.826 322.59 348.621 317.641 348.614L238.409 348.595C230.662 348.594 219.542 349.49 212.372 347.002C198.86 342.314 190.923 328.877 191.234 314.984L310.371 314.992C318.199 314.993 326.286 315.414 333.986 313.78C354.294 309.472 370.882 293.657 375.718 273.417C377.533 265.819 377.317 258.276 377.303 250.54L377.292 176.255Z"/>
	<path fill="#4487D2" transform="scale(0.117188 0.117188)" d="M99.3748 313.085C76.2621 306.904 59.5678 284.406 59.2901 260.677C58.9628 232.709 59.3044 204.691 59.2998 176.717L59.2837 148.848C59.2761 139.746 58.8265 130.451 60.8222 121.508C66.7386 94.9959 89.8679 76.7767 117.008 76.6845L305.135 76.7038C313.995 76.6963 323.525 75.9975 332.244 77.6514C355.392 82.0421 373.751 101.416 376.77 124.815C377.928 133.797 377.301 145.036 377.292 154.249L377.327 169.396C377.332 171.563 377.636 174.133 377.292 176.255L377.303 250.54C377.317 258.276 377.533 265.819 375.718 273.417C370.882 293.657 354.294 309.472 333.986 313.78C326.286 315.414 318.199 314.993 310.371 314.992L191.234 314.984C177.196 314.925 178.637 313.21 168.226 321.8C163.48 324.88 159.152 329.013 154.712 332.548L129.386 352.577C122.28 358.289 110.328 371.164 100.767 369.132C86.5587 366.112 92.6952 349.251 94.4453 339.748C96.0799 330.872 97.4805 321.908 99.3748 313.085Z"/>
	<path fill="#529EE9" transform="scale(0.117188 0.117188)" d="M115.016 98.9938C130.761 98.3784 146.609 98.9938 162.365 98.9944L317.201 98.9822C342.364 98.9941 353.982 112.345 354.124 137.065L354.139 248.236C354.137 266.504 353.857 285.195 331.398 290.954C324.3 292.774 315.17 292.003 307.787 292.004L276.875 291.996L188.564 291.992C163.96 291.998 168.639 293.179 148.852 308.897C139.47 316.35 129.387 324.128 119.847 331.359C120.829 324.338 126.276 304.255 125.401 298.796C124.06 290.425 111.884 292.612 106.176 291.503C80.2708 286.471 81.9936 262.411 81.994 242.828L81.9914 155.307C81.9916 140.639 79.9301 125.155 89.5863 112.798C96.1129 104.446 104.589 100.243 115.016 98.9938Z"/>
	<path fill="#FEFEFE" transform="scale(0.117188 0.117188)" d="M126.054 221.106L210.138 221.097C215.418 221.099 223.208 219.918 227.597 223.575C236.142 230.694 230.984 242.442 218.703 243.015L133.203 243.026C127.598 243.051 120.584 244.146 115.982 240.167C107.676 232.986 113.533 221.427 126.054 221.106Z"/>
	<path fill="#FEFEFE" transform="scale(0.117188 0.117188)" d="M123.667 175.752L214.021 175.768C222.396 175.746 234.668 173.754 237.035 184.769C238.469 191.438 233.389 197.038 227.082 198.233L134.66 198.25C130.551 198.251 126.277 198.483 122.188 198.073C109.549 196.809 109.407 177.759 123.667 175.752Z"/>
	<path fill="#FEFEFE" transform="scale(0.117188 0.117188)" d="M125.186 130.018L252.875 130.002C257.799 129.99 263.117 129.588 268.002 130.097C283.262 131.687 282.383 153.325 266.927 153.405L139.427 153.412C134.058 153.416 128.427 153.781 123.096 153.215C109.292 151.749 108.719 131.14 125.186 130.018Z"/>
	<path fill="#FEFEFE" transform="scale(0.117188 0.117188)" d="M289.243 163.103C319.783 158.888 343.699 199.091 322.747 225.972C315.405 235.392 306.217 239.274 294.671 240.727C260.804 242.672 240.013 204.362 261.76 177.578C268.751 168.967 278.325 164.21 289.243 163.103Z"/>
</svg>
