<?xml version="1.0" encoding="utf-8" ?>
<svg xmlns="http://www.w3.org/2000/svg" xmlns:xlink="http://www.w3.org/1999/xlink" width="60" height="60">
	<path fill="#00D7A5" transform="scale(0.117188 0.117188)" d="M335.699 307.441C355.017 306.653 374.895 315.611 388.368 329.195C435.199 376.414 401.054 456.674 336.689 456.297C316.867 457.211 297.501 448.505 283.435 434.816C236.974 389.605 268.77 307.995 335.699 307.441ZM359.809 351.795C349.699 353.594 336.72 373.042 327.317 379.403C322.951 374.816 318.135 368.093 311.244 368.003C304.544 367.916 298.137 373.5 298.323 380.415C298.522 387.832 307.773 395.265 312.382 400.449C329.546 419.068 334.28 409.022 349.596 394.115L363.307 380.578C366.589 377.274 370.386 373.966 372.838 369.983C377.838 361.86 370.244 350.932 359.809 351.795Z"/>
	<path fill="#DEDEDE" transform="scale(0.117188 0.117188)" d="M289.272 455.652C281.182 456.016 273.174 457.611 265.035 457.833C232.517 458.718 203.382 454.056 173.584 440.606C27.208 374.54 13.5733 166.737 152.583 83.6725C225.358 40.186 321.147 47.6457 386.238 102.623C465.837 169.855 479.152 282.023 421.876 367.957C418.459 334.688 390.66 307.266 359.809 297.212C349.734 295.364 341.797 293.954 331.379 293.931C323.316 280.053 305.19 271.48 290.071 267.461C260.112 259.496 225.523 261.71 198.367 277.468C176.991 289.872 167.473 308.467 171.759 332.901C173.727 344.119 183.383 343.772 191.913 343.779L257.64 343.771C253.709 351.358 251.544 358.903 249.49 367.136C247.407 372.844 248.079 389.633 249.097 395.881C253.501 422.917 267.926 440.352 289.272 455.652Z"/>
	<path fill="#4C5456" transform="scale(0.117188 0.117188)" d="M249.49 367.136L204.716 367.132C181.407 367.131 158.751 368.698 149.938 339.977C147.573 332.269 147.87 309.808 149.545 302.12C155.975 272.616 186.53 253.804 213.446 245.703C260.648 231.497 343.285 242.01 359.809 297.212C349.734 295.364 341.797 293.954 331.379 293.931C323.316 280.053 305.19 271.48 290.071 267.461C260.112 259.496 225.523 261.71 198.367 277.468C176.991 289.872 167.473 308.467 171.759 332.901C173.727 344.119 183.383 343.772 191.913 343.779L257.64 343.771C253.709 351.358 251.544 358.903 249.49 367.136Z"/>
	<path fill="#4C5456" transform="scale(0.117188 0.117188)" d="M253.011 105.495C270.926 104.09 287.999 111.423 300.978 123.556C341.968 161.878 313.86 232.675 259.084 234.26C223.481 236.947 192.512 207.464 191.464 172.257C190.429 137.53 217.773 106.397 253.011 105.495Z"/>
</svg>
