<?xml version="1.0" encoding="utf-8" ?>
<svg xmlns="http://www.w3.org/2000/svg" xmlns:xlink="http://www.w3.org/1999/xlink" width="60" height="60">
	<path transform="scale(0.117188 0.117188)" d="M213.69 313.694C223.196 300.866 242.893 303.42 256.717 303.423C275.207 303.427 281.466 301.091 298.029 312.463L298.294 312.838C309.055 327.8 309.367 325.567 309.355 346.568L309.331 370.652C314.281 373.005 311.015 401.642 311.557 409.154C309.788 414.365 303.338 415.813 301.401 409.856C300.319 406.529 300.761 395.296 300.899 391.296C296.603 394.357 293.04 396.491 287.597 396.387L287.613 430.843C287.617 438.634 290.61 448.846 281.606 450.898C278.534 450.067 277.13 448.871 276.379 445.843C271.491 446.313 266.328 446.082 261.422 445.843C260.418 448.98 259.044 450.014 255.802 450.898C252.703 450.12 251.266 449.047 250.233 445.843C245.512 446.159 240.54 445.835 235.787 445.843C235.136 449.08 233.597 450.043 230.417 450.898C221.601 448.794 224.63 437.797 224.624 429.83L224.621 396.387C220.111 396.078 216.18 394.872 212.276 392.517C212.2 397.1 213.25 408.047 211.045 411.653C208.031 416.582 202.262 413.996 201.24 407.772C201.236 394.092 200.849 380.293 201.257 366.624C201.328 364.265 202.675 362.208 202.765 359.74C203.346 343.931 199.751 325.198 213.69 313.694Z"/>
	<path fill="#FDC64B" transform="scale(0.117188 0.117188)" d="M235.787 396.387C240.559 396.427 245.474 396.662 250.233 396.387C250.242 412.855 250.559 429.382 250.233 445.843C245.512 446.159 240.54 445.835 235.787 445.843L235.787 396.387Z"/>
	<path fill="#FDC64B" transform="scale(0.117188 0.117188)" d="M261.422 396.387L276.379 396.387L276.37 429.064C276.368 434.648 276.232 440.263 276.379 445.843C271.491 446.313 266.328 446.082 261.422 445.843C261.179 429.373 261.423 412.862 261.422 396.387Z"/>
	<path fill="#FDE1B1" transform="scale(0.117188 0.117188)" d="M223.729 385.503C212.968 382.896 215.212 376.01 214.714 367.511C213.981 354.987 210.917 335.791 218.021 325.092C226.549 312.25 241.125 314.543 254.418 314.52C270.567 314.492 293.562 311.481 297.723 333.367C299.145 340.845 298.693 375.875 295.68 380.351C293.753 383.155 290.786 384.615 287.597 385.503C287.58 383.793 287.501 382.057 287.597 380.351C287.232 372.219 287.598 363.918 287.611 355.767C287.619 351.033 289.399 341.378 282.337 341.094C273.86 340.754 276.37 354.15 276.369 359.434L276.379 385.503L234.48 385.503L234.472 358.164C234.466 354.219 234.868 349.739 234.374 345.843C233.611 339.823 224.961 339.085 223.914 345.478C223.255 349.499 223.709 354.174 223.712 358.249L223.729 385.503Z"/>
	<path transform="scale(0.117188 0.117188)" d="M90.7507 296.89C85.1033 287.393 80.21 255.856 79.9189 245.464C79.8356 242.493 80.3013 239.51 80.2982 236.531C80.2809 220.261 80.6741 210.679 84.8965 194.099C106.548 109.082 190.777 49.8923 278.175 61.5015C383.008 75.4267 453.793 180.003 426.945 283.603C425.785 288.08 424.431 292.573 422.768 296.89C432.339 309.799 432.163 316.303 432.136 332.038L432.12 349.084C432.134 352.976 432.596 359.576 432.16 363.184C430.707 375.197 420.557 380.865 409.377 380.351L409.416 438.177C409.453 441.4 410.394 446.584 407.903 449.146C404.372 452.777 399.123 450.272 398.18 445.843C393.224 445.91 388.266 445.746 383.313 445.843C381.705 452.676 373.712 452.284 372.254 445.843C367.369 446.082 362.35 445.824 357.452 445.843C356.755 450.367 352.075 452.703 348.405 449.179C344.731 445.65 346.252 437.987 346.25 433.463L346.247 406.394L336.048 406.394C336.29 416.096 324.875 416.214 324.859 407.772L324.445 406.44C322.728 405.825 313.928 406.318 311.557 406.394C311.582 407.306 311.666 408.249 311.557 409.154C311.015 401.642 314.281 373.005 309.331 370.652L309.355 346.568C309.367 325.567 309.055 327.8 298.294 312.838L298.029 312.463C298.907 307.335 294.353 294.04 291.605 289.853C288.788 288.521 287.167 284.651 288.627 281.761C291.71 275.658 309.827 277.482 315.464 277.483C332.02 277.487 339.307 276.143 352.432 286.832C359.238 284.27 367.749 285.749 374.907 285.751C386.88 285.755 402.26 283.437 413.003 289.853C415.197 281.876 417.539 274.028 418.91 265.852C441.563 130.708 297.538 23.0962 174.088 93.7543C105.796 132.842 74.0944 215.606 100.213 289.853C115.506 283.886 144.048 285.278 160.563 286.832C169.891 277.539 177.486 277.509 189.841 277.492L206.946 277.488C214.284 277.502 231.294 280.688 220.54 290.378C215.783 295.448 211.089 306.624 213.69 313.694C199.751 325.198 203.346 343.931 202.765 359.74C202.675 362.208 201.328 364.265 201.257 366.624C200.849 380.293 201.236 394.092 201.24 407.772C196.435 407.942 191.58 407.787 186.769 407.772C186.816 409.227 186.922 410.696 186.769 412.145C182.846 415.462 177.189 416.429 175.985 409.983L165.5 409.983L165.552 432.161C165.63 439.238 168.413 449.73 159.723 450.898C156.533 450.048 154.813 448.388 154.74 445.003L139.769 445.003C139.478 447.749 138.262 449.383 135.927 450.898C131.6 450.856 129.536 449.459 129.079 445.003C124.735 445.576 118.244 444.979 113.682 445.003C113.029 451.851 106.207 452.883 102.541 447.023C102.762 439.423 102.543 431.76 102.542 424.154L102.541 378.061C90.0534 378.645 80.7927 376.153 80.3556 361.885C80.0898 353.211 80.2933 344.479 80.3021 335.796C80.3174 320.844 79.1216 308.443 90.7507 296.89Z"/>
	<path fill="#6FC7AD" transform="scale(0.117188 0.117188)" d="M336.048 379.187C339.466 378.977 342.827 379 346.247 379.187L346.247 406.394L336.048 406.394C335.915 397.333 336.007 388.25 336.048 379.187Z"/>
	<path fill="#6FC7AD" transform="scale(0.117188 0.117188)" d="M165.5 378.061C169.011 378.236 172.474 378.162 175.985 378.061L175.985 409.983L165.5 409.983L165.5 378.061Z"/>
	<path fill="#6FC7AD" transform="scale(0.117188 0.117188)" d="M291.605 289.853C301.876 288.468 331.191 286.696 340.016 291.598C321.282 304.721 324.841 324.352 324.844 344.367C324.845 351.188 322.817 365.576 327.994 370.652C322.752 376.737 324.827 380.084 324.853 387.595C324.876 394.045 324.409 401.461 324.859 407.772L324.445 406.44C322.728 405.825 313.928 406.318 311.557 406.394C311.582 407.306 311.666 408.249 311.557 409.154C311.015 401.642 314.281 373.005 309.331 370.652L309.355 346.568C309.367 325.567 309.055 327.8 298.294 312.838L298.029 312.463C298.907 307.335 294.353 294.04 291.605 289.853Z"/>
	<path fill="#6FC7AD" transform="scale(0.117188 0.117188)" d="M171.482 291.598C178.544 287.295 185.141 288.63 192.991 288.629C200.78 288.628 213.341 287.014 220.54 290.378C215.783 295.448 211.089 306.624 213.69 313.694C199.751 325.198 203.346 343.931 202.765 359.74C202.675 362.208 201.328 364.265 201.257 366.624C200.849 380.293 201.236 394.092 201.24 407.772C196.435 407.942 191.58 407.787 186.769 407.772L186.798 386.24C186.806 380.543 188.636 375.579 183.796 372.016C189.749 364.118 187.693 353.667 187.688 344.355L187.683 327.374C187.651 311.438 186.297 301.157 171.482 291.598Z"/>
	<path fill="#5B7ECE" transform="scale(0.117188 0.117188)" d="M357.452 379.187L398.18 379.187L398.18 445.843C393.224 445.91 388.266 445.746 383.313 445.843C381.705 452.676 373.712 452.284 372.254 445.843C367.369 446.082 362.35 445.824 357.452 445.843L357.452 379.187Z"/>
	<path transform="scale(0.117188 0.117188)" d="M372.254 445.843L372.243 411.145C372.241 405.941 371.758 399.31 372.423 394.266C373.256 387.951 380.247 387.824 383.313 392.517L383.322 432.81C383.323 435.592 382.886 443.769 383.313 445.843C381.705 452.676 373.712 452.284 372.254 445.843Z"/>
	<path fill="#5B7ECE" transform="scale(0.117188 0.117188)" d="M113.682 378.061L154.74 378.061L154.77 438.165C154.779 440.386 154.966 442.796 154.74 445.003L139.769 445.003C139.478 447.749 138.262 449.383 135.927 450.898C131.6 450.856 129.536 449.459 129.079 445.003C124.735 445.576 118.244 444.979 113.682 445.003L113.682 378.061Z"/>
	<path transform="scale(0.117188 0.117188)" d="M129.079 445.003L129.072 412.073C129.072 407.723 127.577 394.369 130.685 391.164C133.81 387.941 139.146 390.36 139.67 394.511C141.366 407.941 139.525 430.615 139.769 445.003C139.478 447.749 138.262 449.383 135.927 450.898C131.6 450.856 129.536 449.459 129.079 445.003Z"/>
	<path fill="#FDC64B" transform="scale(0.117188 0.117188)" d="M357.452 296.89L383.636 296.884C389.647 296.881 397.306 296.204 403.091 297.652C425.546 303.271 420.621 331.508 420.615 349.087C420.614 352.832 421.068 360.532 420.439 363.679C419.681 367.477 413.213 371.98 410.737 367.362C407.003 360.398 415.936 321.659 404.765 321.737C396.453 321.794 398.94 334.39 398.942 339.629L398.956 366.996C398.948 367.541 399.014 368.112 398.426 368.308C397.935 368.471 361.5 368.216 357.452 368.217C357.229 364.776 357.435 361.198 357.442 357.745L357.458 337.757C357.455 333.972 358.683 326.612 355.766 323.596C352.248 319.958 346.826 322.395 346.253 327.04C345.76 331.04 346.234 335.551 346.238 339.602L346.247 368.217C331.568 367.601 336.064 357.655 336.066 344.703L336.035 327.528C336.071 311.719 339.578 299.46 357.452 296.89Z"/>
	<path fill="#6FBEF9" transform="scale(0.117188 0.117188)" d="M122.527 296.89L140.867 296.867C178.856 296.844 176.665 309.834 176.754 343.091C176.768 348.35 177.259 356.558 176.641 361.507C175.906 367.391 170.819 366.813 166.082 366.996C165.987 357.306 167.394 336.635 165.887 327.892C164.841 321.822 156.357 323.298 155.354 328.71C154.414 333.779 154.73 339.385 154.728 344.522L154.74 366.996L145.375 366.996L113.682 366.996C113.686 361.51 114.497 329.914 112.504 326.585C111.421 324.777 109.441 324.178 107.527 323.692C99.991 325.503 102.524 334.723 102.528 340.67L102.541 366.996C98.3224 367.296 94.7965 367.447 91.4963 364.238C91.3943 355.719 91.4996 347.182 91.4919 338.66C91.4689 313.107 91.8475 297.242 122.527 296.89Z"/>
	<path transform="scale(0.117188 0.117188)" d="M157.585 217.417C156.844 206.363 168.508 205.02 168.3 217.417C168.052 229.841 168.082 224.241 165.586 234.39L165.5 234.746C163.162 231.173 160.667 228.512 157.585 225.584C157.445 222.892 157.62 220.123 157.585 217.417Z"/>
	<path transform="scale(0.117188 0.117188)" d="M344.047 227.993C344.03 224.268 343.162 215.727 344.944 212.739C347.95 207.697 354.635 210.064 355.118 216.508C355.098 220.645 354.89 224.864 355.118 228.993C351.845 231.146 349.417 234.363 347.333 237.623C347.107 233.418 345.46 231.698 344.047 227.993Z"/>
	<path transform="scale(0.117188 0.117188)" d="M195.617 225.584C200.144 223.717 206.178 226.433 209.644 229.286C224.906 241.844 219.367 270.874 199.259 272.365L198.867 272.375C168.707 273.137 170.331 225.608 195.617 225.584Z"/>
	<path fill="#FDC64B" transform="scale(0.117188 0.117188)" d="M195.617 236.317C209.859 234.716 212.239 255.806 199.259 261.3C184.934 262.682 182.454 241.05 195.617 236.317Z"/>
	<path transform="scale(0.117188 0.117188)" d="M310.963 225.584C336.732 221.555 346.627 264.17 317.247 272.365C288.456 276.108 282.985 230.207 310.963 225.584Z"/>
	<path fill="#FDC64B" transform="scale(0.117188 0.117188)" d="M313.01 236.317C327.005 236.09 328.337 259.667 314.653 261.3C301.338 263.712 298.711 238.908 313.01 236.317Z"/>
	<path transform="scale(0.117188 0.117188)" d="M327.994 123.751C355.899 123.128 356.708 170.324 328.841 171.764C302.598 172.253 297.083 127.487 327.994 123.751Z"/>
	<path fill="#FDC64B" transform="scale(0.117188 0.117188)" d="M327.994 134.827C341.579 134.425 341.855 158.598 328.841 160.819C315.38 159.922 313.349 137.092 327.994 134.827Z"/>
	<path transform="scale(0.117188 0.117188)" d="M180.958 123.751C209.664 120.509 213.926 165.648 185.553 171.764C157.568 170.321 150.902 130.754 180.958 123.751Z"/>
	<path fill="#FDC64B" transform="scale(0.117188 0.117188)" d="M181.957 134.827C196.513 133.616 197.361 155.813 185.553 160.222C170.486 161.281 168.281 138.759 181.957 134.827Z"/>
	<path transform="scale(0.117188 0.117188)" d="M254.467 250.328C282.639 247.766 286.578 296.315 257.562 298.368C230.421 299.916 224.949 254.645 254.467 250.328Z"/>
	<path fill="#FDC64B" transform="scale(0.117188 0.117188)" d="M255.802 261.3C269.847 261.391 270.393 283.707 257.562 287.358C242.87 287.962 240.863 264.271 255.802 261.3Z"/>
	<path transform="scale(0.117188 0.117188)" d="M254.467 111.323C279.408 108.223 289.762 151.543 258.269 160.222C231.448 162.471 223.242 115.901 254.467 111.323Z"/>
	<path fill="#F55758" transform="scale(0.117188 0.117188)" d="M254.467 122.273C269.903 121.63 270.795 144.37 257.562 148.756C245.328 152.056 239.16 126.393 254.467 122.273Z"/>
	<path transform="scale(0.117188 0.117188)" d="M375.38 232.597C379.022 231.566 385.014 233.683 388.106 235.595C405.953 246.634 402.2 275.73 379.058 280.987C345.813 279.56 348.318 235.377 375.38 232.597Z"/>
	<path fill="#FDC64B" transform="scale(0.117188 0.117188)" d="M375.38 243.545C390.007 242.197 393.079 264.387 379.058 269.707C363.331 271.027 360.435 247.984 375.38 243.545Z"/>
	<path transform="scale(0.117188 0.117188)" d="M133.953 232.597C161.815 229.218 166.997 278.446 136.989 280.987C111.142 285.276 102.312 234.117 133.953 232.597Z"/>
	<path fill="#FDC64B" transform="scale(0.117188 0.117188)" d="M133.953 243.545C149.012 241.459 150.852 266.227 136.989 269.707C122.22 270.739 119.462 246.666 133.953 243.545Z"/>
	<path fill="#F55758" transform="scale(0.117188 0.117188)" d="M214.755 211.25L214.783 210.895C215.63 199.43 212.88 189.886 222.889 181.246C229.808 175.273 236.655 175.539 245.288 175.548L260.753 175.569C294.171 175.546 297.577 180.134 297.491 212.935C293.61 211.568 290.508 211.191 286.41 211.25C286.398 216.314 286.224 221.438 286.41 226.495C277.458 237.911 277.681 235.731 281.606 247.618C279.714 246.384 277.888 245.252 276.379 243.545C257.802 236.227 251.438 233.745 232.498 246.574C232.864 244.993 233.418 243.422 233.565 241.803C233.097 230.603 227.485 231.596 225.8 225.535C224.918 222.364 225.485 214.845 225.511 211.25C221.889 211.38 218.382 210.635 214.755 211.25Z"/>
	<path transform="scale(0.117188 0.117188)" d="M225.511 211.25C225.737 207.667 224.81 201.323 227.853 198.746C230.691 196.342 235.813 198.45 236.331 202.067C236.7 204.642 236.512 207.414 236.512 210.012L236.504 223.913C236.501 227.436 236.915 234.377 236.447 237.62C236.342 238.349 235.041 243.943 233.565 241.803C233.097 230.603 227.485 231.596 225.8 225.535C224.918 222.364 225.485 214.845 225.511 211.25Z"/>
	<path transform="scale(0.117188 0.117188)" d="M276.379 243.545C274.751 237.857 274.992 210.781 275.531 203.222C275.845 198.819 280.729 195.827 284.479 199.004C287.485 201.552 286.232 207.658 286.41 211.25C286.398 216.314 286.224 221.438 286.41 226.495C277.458 237.911 277.681 235.731 281.606 247.618C279.714 246.384 277.888 245.252 276.379 243.545Z"/>
	<path transform="scale(0.117188 0.117188)" d="M209.598 179.501C218.665 166.664 228.433 164.398 242.773 164.463L256.712 164.503C279.289 164.511 283.24 160.948 301.649 176.544C312.21 176.707 322.798 176.553 333.362 176.546C345.845 176.539 357.068 175.619 366.733 185.114C377.539 195.732 375.194 207.042 375.38 220.66C372.077 221.393 368.663 221.787 365.335 222.47C364.819 220.486 364.822 218.513 364.48 216.508C361.359 216.456 358.239 216.485 355.118 216.508C354.635 210.064 347.95 207.697 344.944 212.739C343.162 215.727 344.03 224.268 344.047 227.993C333.772 217.173 325.556 208.471 308.28 212.935C304.698 214.073 301.705 215.155 298.676 217.417L297.491 212.935C297.577 180.134 294.171 175.546 260.753 175.569L245.288 175.548C236.655 175.539 229.808 175.273 222.889 181.246C212.88 189.886 215.63 199.43 214.783 210.895L214.755 211.25C212.682 216.865 208.39 214.903 204.03 212.935C197.874 211.987 192.152 211.828 186.321 214.329C177.48 218.121 178.535 217.479 168.3 217.417C168.508 205.02 156.844 206.363 157.585 217.417C154.308 217.274 151.155 217.227 147.876 217.417C147.264 222.82 140.65 221.848 137.716 219.094C136.468 215.104 136.624 203.597 137.266 199.323C139.212 186.379 150.274 177.457 162.884 176.253C166.861 175.873 170.938 176.602 174.942 176.578C187.651 176.5 197.547 174.417 209.598 179.501Z"/>
	<path fill="#FEE10C" transform="scale(0.117188 0.117188)" d="M147.876 217.417C147.458 207.146 146.447 194.911 157.011 189.24C162.98 186.036 169.578 187.512 176.016 187.523L190.94 187.467C196.557 187.425 199.938 187.543 205.414 189.216C203.39 196.771 204.02 205.172 204.03 212.935C197.874 211.987 192.152 211.828 186.321 214.329C177.48 218.121 178.535 217.479 168.3 217.417C168.508 205.02 156.844 206.363 157.585 217.417C154.308 217.274 151.155 217.227 147.876 217.417Z"/>
	<path fill="#FDC64B" transform="scale(0.117188 0.117188)" d="M306.779 187.504L332.298 187.501C341.658 187.501 352.142 186 359.37 193.328C366.502 200.559 363.647 207.715 364.48 216.508C361.359 216.456 358.239 216.485 355.118 216.508C354.635 210.064 347.95 207.697 344.944 212.739C343.162 215.727 344.03 224.268 344.047 227.993C333.772 217.173 325.556 208.471 308.28 212.935C308.294 204.417 308.862 195.838 306.779 187.504Z"/>
</svg>
