<?xml version="1.0" encoding="utf-8" ?>
<svg xmlns="http://www.w3.org/2000/svg" xmlns:xlink="http://www.w3.org/1999/xlink" width="60" height="60">
	<path fill="#4B4647" transform="scale(0.117188 0.117188)" d="M114.128 244.752C120.363 244.449 135.852 243.246 138.984 248.19C142.557 253.832 139.347 258.817 134.151 261.728C127.949 261.148 117.177 263.054 111.816 260.271C104.114 256.271 106.58 246.771 114.128 244.752Z"/>
	<path fill="#4B4647" transform="scale(0.117188 0.117188)" d="M355.053 244.752C359.612 244.663 368.332 244.221 372.481 244.879C382.454 246.462 382.391 260.023 372.191 261.728C367.293 261.701 354.257 262.744 350.501 260.398C343.346 255.93 346.675 246.324 355.053 244.752Z"/>
	<path fill="#4B4647" transform="scale(0.117188 0.117188)" d="M241.987 355.775C246.239 355.335 250.454 356.583 252.231 360.856C254.953 367.402 255.814 384.171 246.405 387.579C241.84 388.457 237.307 386.695 235.649 382.096C233.22 375.359 232.392 358.872 241.987 355.775Z"/>
	<path fill="#4B4647" transform="scale(0.117188 0.117188)" d="M243.118 118.605C256.789 116.99 255.106 140.899 252.564 146.499C251.353 149.165 249.025 150.39 246.405 151.318C232.806 152.717 234.431 135.296 235.631 126.17C236.214 121.741 238.909 119.724 243.118 118.605Z"/>
	<path fill="#EA5256" transform="scale(0.117188 0.117188)" d="M223.447 266.024C225.788 268.64 228.257 270.722 230.759 273.105C222.905 281.911 213.396 290.738 204.969 299.032L193.16 310.682C188.506 315.363 178.888 327.485 175.182 314.758C176.161 311.037 179.453 308.691 182.084 306.102L214.607 274.227C217.411 271.508 219.931 267.834 223.447 266.024Z"/>
	<path fill="#EA5256" transform="scale(0.117188 0.117188)" d="M428.748 268.929C432.803 268.581 445.485 267.704 448.477 270.868C454.901 277.66 441.346 286.481 437.145 290.605C429.988 297.63 423.084 305.059 415.582 311.713L415.291 311.455C409.981 306.715 405.264 301.145 400.218 296.107L389.701 285.769C371.375 267.554 388.974 269.209 402.722 268.929L428.748 268.929Z"/>
	<path fill="#4B4647" transform="scale(0.117188 0.117188)" d="M234.685 231.584L234.678 178.129C234.665 176.158 234.441 174.113 234.722 172.158C236.286 161.276 251.987 160.57 253.47 171.658C254.112 176.454 253.519 184.132 253.528 189.227L253.553 231.584C280.687 243.792 264.736 288.905 230.759 273.105C228.257 270.722 225.788 268.64 223.447 266.024C217.718 252.721 219.747 237.075 234.685 231.584Z"/>
	<path fill="#EA5256" transform="scale(0.117188 0.117188)" d="M243.118 240.571C259.016 239.51 261.478 262.662 245.143 266.024C228.305 266.641 225.591 243.144 243.118 240.571Z"/>
	<path fill="#3775AD" transform="scale(0.117188 0.117188)" d="M402.722 268.929C402.268 264.431 402.711 259.894 402.727 255.381C403.037 162.648 321.42 87.8377 228.782 97.3537C140.029 106.471 78.7641 184.369 88.081 272.747C95.5194 343.306 154.29 402.641 224.837 410.108C282.187 416.177 341.964 391.712 374.754 343.32C378.333 338.039 381.283 332.317 388.374 331.62C395.191 330.951 401.794 335.69 402.279 342.739C403.293 357.475 359.033 396.879 347.827 404.567C278.484 452.139 184.087 445.98 121.607 389.182C59.4036 332.636 44.1696 240.216 84.1451 166.715C140.75 62.6384 280.424 39.1956 369.161 120.321C414.136 161.437 428.83 210.29 428.748 268.929L402.722 268.929Z"/>
</svg>
