<?xml version="1.0" encoding="utf-8" ?>
<svg xmlns="http://www.w3.org/2000/svg" xmlns:xlink="http://www.w3.org/1999/xlink" width="60" height="60">
	<path fill="#F8B349" transform="scale(0.117188 0.117188)" d="M356.573 222.768C364.355 222.106 372.12 235.558 374.246 241.626C378.9 254.912 374.412 279.705 360.001 284.769C357.13 285.152 354.539 283.957 353.064 281.377C349.871 275.79 356.174 272.482 359.106 268.731C365.556 260.476 365.489 247.029 358.647 239.072C353.818 233.457 346.791 228.103 356.573 222.768Z"/>
	<path fill="#F8B349" transform="scale(0.117188 0.117188)" d="M374.492 207.293C383.938 206.414 392.441 222.021 395.632 229.338C401.962 243.858 402.807 261.995 396.942 276.822C393.974 284.327 386.256 297.87 378.399 301.249C374.048 301.548 371.766 299.18 370.672 295.13C371.702 290.007 376.368 287.308 379.268 283.231C392.538 264.574 391.252 237.8 375.499 220.874C371.536 216.616 365.636 211.323 374.492 207.293Z"/>
	<path fill="#F8B349" transform="scale(0.117188 0.117188)" d="M392.175 190.038C396.956 189.813 399.425 192.888 402.492 196.164C426.769 222.096 432.952 260.271 417.364 292.543C413.913 299.688 402.263 317.434 394.977 319.978C390.384 320.226 385.064 315.833 387.863 310.978C389.336 308.423 391.995 306.37 393.988 304.224C418.521 277.813 420.001 232.966 394.98 206.342C391.969 203.139 379.896 193.155 392.175 190.038Z"/>
	<path fill="#3C4152" transform="scale(0.117188 0.117188)" d="M111.154 98.8661C125.604 98.4969 140.148 98.8629 154.61 98.8637L296.451 98.8599C316.189 98.8575 343.318 94.2467 349.637 119.709C350.699 123.988 350.296 128.829 350.299 133.222L350.297 366.807C350.305 388.639 351.142 403.627 325.404 409.986C319.727 409.78 313.992 409.982 308.309 409.984L132.539 409.993C125.378 409.999 117.839 410.453 110.738 409.56C98.6158 408.035 87.8871 397.793 86.4956 385.494C85.954 380.708 86.2335 375.707 86.2373 370.886L86.2412 137.919C86.2424 119.45 86.1021 101.309 111.154 98.8661ZM109.945 112.239C95.9642 115.083 99.4757 132.587 99.4792 143.48L99.472 359.645C99.4704 365.558 98.8528 379.057 99.9172 384.129C103.001 398.826 120.811 396.268 131.958 396.266L301.43 396.261C309.206 396.266 319.09 397.566 326.536 395.408C335.142 392.145 336.915 385.708 337.089 377.413C337.455 359.98 337.122 342.464 337.119 325.023L337.121 135.823C337.148 125.133 337.595 112.538 322.138 112.215C307.903 111.918 293.571 112.239 279.327 112.239L118.516 112.231C115.69 112.226 112.755 112.052 109.945 112.239Z"/>
	<path fill="#3C4152" transform="scale(0.117188 0.117188)" d="M214.306 126.652C251.141 123.494 256.087 174.513 220.809 180.15C186.284 184.521 178.271 131.479 214.306 126.652Z"/>
	<path fill="#AFC1CD" transform="scale(0.117188 0.117188)" d="M216.655 139.831C233.717 137.184 237.199 164.206 219.059 166.933C201.819 168.624 197.843 142.621 216.655 139.831Z"/>
	<path fill="#3C4152" transform="scale(0.117188 0.117188)" d="M127.745 367.094L307.256 367.094C313.337 367.191 316.27 366.464 321.408 370.668C324.063 385.111 304.708 380.755 296.046 380.752L135.8 380.759C127.59 380.759 114.029 383.787 115.167 371.509C119.204 366.832 121.585 366.955 127.745 367.094Z"/>
	<path fill="#AFC1CD" transform="scale(0.117188 0.117188)" d="M115.167 128.263C117.106 127.988 126.098 127.875 127.745 128.263L127.745 367.094C121.585 366.955 119.204 366.832 115.167 371.509C114.953 369.139 115.177 366.579 115.177 364.187L115.167 128.263Z"/>
	<path fill="#AFC1CD" transform="scale(0.117188 0.117188)" d="M307.256 128.263L321.408 128.263L321.376 365.988C321.368 367.483 321.641 369.219 321.408 370.668C316.27 366.464 313.337 367.191 307.256 367.094L307.26 155.997C307.26 146.785 307.571 137.46 307.256 128.263Z"/>
	<path fill="#3C4152" transform="scale(0.117188 0.117188)" d="M214.306 193.283C232.651 192.572 249.809 198.919 263.298 211.334C306.313 250.924 278.206 325.133 222.061 326.748C186.701 329.509 154.931 302.736 151.457 267.469C147.56 227.898 175.614 196.923 214.306 193.283ZM213.398 206.51C198.353 208.264 185.352 214.741 175.902 226.757C146.722 263.86 175.131 315.816 222.061 313.704C270.679 308.361 288.51 247.768 250.764 218.086C240.677 210.154 226.355 204.966 213.398 206.51Z"/>
	<path fill="#E57775" transform="scale(0.117188 0.117188)" d="M213.398 206.51C226.355 204.966 240.677 210.154 250.764 218.086C288.51 247.768 270.679 308.361 222.061 313.704C175.131 315.816 146.722 263.86 175.902 226.757C185.352 214.741 198.353 208.264 213.398 206.51ZM214.306 230.84C175.661 236.268 182.858 292.209 220.809 288.682C259.869 283.936 252.443 226.496 214.306 230.84Z"/>
	<path fill="#3C4152" transform="scale(0.117188 0.117188)" d="M214.306 230.84C252.443 226.496 259.869 283.936 220.809 288.682C182.858 292.209 175.661 236.268 214.306 230.84ZM217.466 243.857C195.24 246.602 197.755 275.091 218.26 275.536C239.35 273.49 238.328 244.39 217.466 243.857Z"/>
</svg>
