<?xml version="1.0" encoding="utf-8" ?>
<svg xmlns="http://www.w3.org/2000/svg" xmlns:xlink="http://www.w3.org/1999/xlink" width="60" height="60">
	<path fill="#4C55B6" transform="scale(0.117188 0.117188)" d="M161.753 421.742L349.549 421.742L349.549 432.507C328.62 432.718 307.666 432.508 286.735 432.507L161.753 432.507L161.753 421.742Z"/>
	<path fill="#4C55B6" transform="scale(0.117188 0.117188)" d="M221.464 377.097L290.756 377.097C290.856 384.204 290.375 391.454 290.792 398.537C291.139 404.43 297.576 407.841 301.598 411.468L288.896 411.468L235.8 411.465C226.955 411.466 218.086 411.636 209.245 411.468C212.884 407.525 218.288 405.064 221.464 400.597C221.637 397.805 221.489 394.929 221.48 392.13L221.464 377.097Z"/>
	<path fill="#4C55B6" transform="scale(0.117188 0.117188)" d="M92.8847 75.3511C96.7356 75.0832 100.755 75.3379 104.626 75.3408L345.916 75.3518C369.361 75.3515 392.838 75.0939 416.279 75.345C435.159 75.5472 437.963 88.5536 437.962 104.324L437.956 329.034C437.957 343.134 441.284 366.816 420.028 366.241L107.008 366.253C80.809 366.251 73.9592 363.965 73.9915 336.246L73.9791 108.72C73.9683 93.3644 72.9511 77.4233 92.8847 75.3511ZM94.2241 85.9607C80.8493 87.5526 84.417 102.984 84.4337 113.049L84.4445 295.828C84.4458 301.788 84.7643 307.801 84.4415 313.749L418.125 313.749L427.51 313.749L427.517 116.486C427.518 110.067 428.063 100.185 427.165 94.0275C425.734 84.229 413.187 85.9536 406.216 85.9542L94.2241 85.9607ZM239.71 333.721L239.71 344.801L263.67 344.819C266.563 344.822 270.459 345.279 273.211 344.801C273.216 341.109 273.26 337.412 273.211 333.721L239.71 333.721Z"/>
	<path fill="#4C55B6" transform="scale(0.117188 0.117188)" d="M157.128 113.962C159.855 113.693 162.672 113.923 165.413 113.941L341.758 113.953C366.503 113.793 365.334 115.584 365.278 137.284L365.281 238.683C365.282 250.843 365.703 263.4 365.236 275.518C365.015 281.243 362.001 284.481 356.314 285.749C353.525 285.988 350.639 285.797 347.838 285.778L171.71 285.751C145.211 285.761 147.264 286.035 147.284 258.186L147.286 135.341C147.283 126.693 145.306 115.171 157.128 113.962ZM292.646 142.343C282.297 143.543 276.804 150.479 276.59 160.592C270.114 163.492 263.983 167.806 257.837 171.388C246.269 178.128 234.548 184.621 223.184 191.707C211.931 180.78 194.118 187.081 194.622 203.329C195.089 218.374 211.626 222.817 223.184 212.26C227.531 214.55 231.724 217.112 235.986 219.554L253.985 229.754C261.471 234.015 269.305 237.96 276.59 242.538C276.755 251.919 282.901 259.757 292.646 260.013C307.312 259.944 315.924 243.09 304.792 232.202C298.152 225.708 287.498 225.903 281.577 233.117C275.858 230.017 228.512 203.535 227.621 202.331C227.696 198.938 241.274 193.42 244.386 191.638C256.824 184.517 268.974 176.846 281.577 170.015C288.376 176.241 298.69 176.68 305.156 169.616C315.133 158.715 306.799 142.133 292.646 142.343Z"/>
</svg>
