<?xml version="1.0" encoding="utf-8" ?>
<svg xmlns="http://www.w3.org/2000/svg" xmlns:xlink="http://www.w3.org/1999/xlink" width="60" height="60">
	<path fill="#FEBD5E" transform="scale(0.117188 0.117188)" d="M408.875 261.83C434.841 259.396 447.09 301.246 413.482 308.741C378.68 307.553 380.408 266.072 408.875 261.83Z"/>
	<path fill="#FEBD5E" transform="scale(0.117188 0.117188)" d="M255.381 261.83C289.185 265.744 284.036 308.8 256.132 308.741C238.461 309.033 226.425 289.886 235.707 274.049C240.254 266.29 247.155 263.966 255.381 261.83Z"/>
	<path fill="#346BA2" transform="scale(0.117188 0.117188)" d="M157.412 343.257L199.057 343.257C200.967 344.352 202.669 345.909 202.733 348.288C202.962 356.796 190.589 354.628 185.249 354.61L185.249 422.747C188.641 422.322 193.542 421.373 196.242 423.989C198.865 426.53 198.203 430.27 195.714 432.537C192.542 434.07 168.349 433.839 163.788 433.179C159.438 432.549 157.084 427.361 160.477 424.008C163.222 421.296 170.101 422.784 173.856 422.747L173.856 354.61C170.82 354.602 159.842 355.069 157.834 354.495C151.564 352.702 152.116 345.848 157.412 343.257Z"/>
	<path fill="#346BA2" transform="scale(0.117188 0.117188)" d="M311.241 343.257C324.658 343.408 339.526 342.514 352.745 343.329C360.161 343.786 360.574 350.808 355.421 354.61C349.844 354.88 344.215 354.454 338.625 354.61C338.382 362.13 338.617 369.732 338.618 377.26L338.625 422.747C344.39 422.262 358.376 421.192 352.375 431.526C348.805 435.123 339.772 433.397 335.039 433.408C329.988 433.42 321.434 433.92 316.753 433.26C312.919 432.719 311.514 426.731 314.095 424.114C316.55 421.625 324.082 422.745 327.599 422.747L327.599 354.61C319.625 354.556 309.15 357.662 306.648 348.677C307.358 346.075 308.412 344.008 311.241 343.257Z"/>
	<path fill="#3C98E6" transform="scale(0.117188 0.117188)" d="M59.257 372.293L59.2425 347.183C59.2414 336.718 57.5186 326.279 65.6268 318.247C73.3572 310.588 86.4244 311.948 96.5977 312.061L111.062 312.147C116.407 312.131 122.672 311.447 127.841 312.882C146.71 318.121 143.201 338.232 143.236 352.961C143.25 359.191 144.146 366.152 143.238 372.293C139.761 372.325 136.154 371.946 132.702 372.293L132.716 345.757C132.715 335.434 134.942 323.342 120.521 323.227L90.9764 323.214C67.428 323.224 69.7333 325.145 69.7333 346.44L69.7472 372.293C66.2267 371.982 62.7778 372.115 59.257 372.293Z"/>
	<path fill="#FEBD5E" transform="scale(0.117188 0.117188)" d="M100.204 261.83C126.775 258.086 139.731 303.539 103.559 309.464C71.844 311.535 68.7799 262.921 100.204 261.83Z"/>
	<path fill="#3C98E6" transform="scale(0.117188 0.117188)" d="M214.274 372.293C214.181 363.866 214.273 355.433 214.277 347.006C214.288 325.152 214.175 312.306 240.28 312.129L261.071 312.147C280.925 312.113 297.297 310.618 297.273 335.7L297.253 359.51C297.257 363.752 297.415 368.057 297.251 372.293C293.659 372.034 289.891 372.279 286.28 372.293L286.29 343.668C286.291 339.787 287.626 328.454 284.701 325.51C280.66 321.444 253.134 323.214 246.69 323.215C225.125 323.222 224.992 319.995 224.992 343.954L224.999 372.293L214.274 372.293Z"/>
	<path fill="#3C98E6" transform="scale(0.117188 0.117188)" d="M369.033 372.293L369.019 343.32C369 334.786 367.312 325.323 373.936 318.638C382.762 309.732 394.835 312.133 406.318 312.129L433.662 312.079C454.738 312.196 453.654 333.126 453.655 347.73C453.656 355.85 454.171 364.201 453.635 372.293C450.097 371.96 446.292 372.266 442.73 372.293L442.743 345.303C442.743 340.571 443.136 335.455 442.463 330.79C440.958 320.375 430.252 323.217 422.766 323.228L390.223 323.021C376.719 322.86 379.733 333.46 379.743 342.884L379.752 372.293L369.033 372.293Z"/>
	<path fill="#FC9153" transform="scale(0.117188 0.117188)" d="M379.752 372.293L442.73 372.293C446.292 372.266 450.097 371.96 453.635 372.293C459.885 373.489 462.808 376.774 463.455 382.911C463.886 387.007 464.086 417.151 463.349 419.909C461.852 425.51 451.581 423.159 447.294 423.466L447.305 404.382C447.309 384.305 446.505 388.093 429.114 388.108L395.709 388.109C389.328 388.113 377.314 387.307 371.497 388.108C371.685 399.643 371.501 411.209 371.497 422.747C368.194 423.899 358.521 423.476 354.53 423.466L354.519 398.215C354.516 387.873 353.853 373.216 369.033 372.293L379.752 372.293Z"/>
	<path fill="#FC9153" transform="scale(0.117188 0.117188)" d="M143.238 372.293C152.699 371.909 157.213 376.7 157.404 385.883C157.659 398.15 157.421 410.473 157.412 422.747L140.378 422.747L140.395 402.58C140.407 388.948 142.329 388.03 126.737 388.101L66.8782 388.108C65.7899 388.972 64.8929 389.828 63.9788 390.874C63.9712 401.734 63.8623 412.608 63.9788 423.466C43.207 424.686 47.6609 420.075 47.5786 402.322C47.5315 392.163 43.8952 372.873 59.257 372.293C62.7778 372.115 66.2267 371.982 69.7472 372.293C75.9004 373.134 88.6544 372.279 95.3543 372.282L120.991 372.313C124.781 372.318 128.943 372.67 132.702 372.293C136.154 371.946 139.761 372.325 143.238 372.293Z"/>
	<path fill="#3C98E6" transform="scale(0.117188 0.117188)" d="M66.8782 388.108L126.737 388.101C142.329 388.03 140.407 388.948 140.395 402.58L140.378 422.747C140.478 425.537 141.222 430.149 139.273 432.391C137.237 434.731 133.402 434.557 131.305 432.407C129.254 430.306 129.638 426.199 129.522 423.466L81.3729 423.429C79.27 423.406 77.0525 423.217 74.9659 423.466C74.8437 426.096 75.4226 430.759 73.3408 432.678C66.6572 438.839 64.0097 428.835 63.9788 423.466C63.8623 412.608 63.9712 401.734 63.9788 390.874C64.8929 389.828 65.7899 388.972 66.8782 388.108ZM74.9659 398.728L74.9659 412.251L129.522 412.251L129.522 398.728L93.202 398.726C87.1329 398.726 81.0309 398.585 74.9659 398.728Z"/>
	<path fill="#3C98E6" transform="scale(0.117188 0.117188)" d="M371.497 388.108C377.314 387.307 389.328 388.113 395.709 388.109L429.114 388.108C446.505 388.093 447.309 384.305 447.305 404.382L447.294 423.466C447.603 428.987 445.335 438.56 438.571 432.591C436.354 430.634 436.712 426.195 436.569 423.466L382.278 423.466C382.274 426.211 382.366 428.865 381.579 431.526C373.829 440.372 371.488 430.052 371.497 422.747C371.501 411.209 371.685 399.643 371.497 388.108ZM382.278 398.728C382.276 403.402 382.222 408.081 382.278 412.754L418.824 412.744C424.656 412.742 430.767 412.36 436.569 412.754L436.569 398.728L382.278 398.728Z"/>
	<path fill="#FEBD5E" transform="scale(0.117188 0.117188)" d="M224.999 372.293L224.992 343.954C224.992 319.995 225.125 323.222 246.69 323.215C253.134 323.214 280.66 321.444 284.701 325.51C287.626 328.454 286.291 339.787 286.29 343.668L286.28 372.293C283.233 372.644 280.068 372.313 277 372.302L235.276 372.296C231.892 372.304 228.355 372.63 224.999 372.293Z"/>
	<path fill="#FEBD5E" transform="scale(0.117188 0.117188)" d="M69.7472 372.293L69.7333 346.44C69.7333 325.145 67.428 323.224 90.9764 323.214L120.521 323.227C134.942 323.342 132.715 335.434 132.716 345.757L132.702 372.293C128.943 372.67 124.781 372.318 120.991 372.313L95.3543 372.282C88.6544 372.279 75.9004 373.134 69.7472 372.293Z"/>
	<path fill="#FEBD5E" transform="scale(0.117188 0.117188)" d="M379.752 372.293L379.743 342.884C379.733 333.46 376.719 322.86 390.223 323.021L422.766 323.228C430.252 323.217 440.958 320.375 442.463 330.79C443.136 335.455 442.743 340.571 442.743 345.303L442.73 372.293L379.752 372.293Z"/>
	<path fill="#346BA2" transform="scale(0.117188 0.117188)" d="M105.517 123.597C113.725 126.081 111.229 135.527 111.216 142.987L111.205 237.88L324.448 237.883C328.905 237.884 333.369 237.953 337.825 237.888C343.782 237.802 353.889 235.636 353.721 244.639C350.923 251.601 338.075 248.895 331.499 248.889L124.599 248.888C118.371 248.893 111.928 249.255 105.727 248.877C97.9714 248.405 100.196 238.235 100.196 232.978L100.208 155.787C100.205 147.22 99.9109 138.56 100.181 130.005C100.303 126.154 101.708 124.57 105.517 123.597Z"/>
	<path fill="#FC9153" transform="scale(0.117188 0.117188)" d="M286.28 372.293C289.891 372.279 293.659 372.034 297.251 372.293C313.608 374.644 311.254 383.137 311.253 396.878L311.241 422.747L293.991 422.747C293.99 425.526 294.653 430.048 292.74 432.284C290.799 434.551 286.788 434.553 284.748 432.424C282.819 430.41 283.366 426.071 283.348 423.466C277.735 424.027 271.609 423.475 265.949 423.472L227.742 423.466C227.843 429.443 225.015 439.186 218.438 432.163C216.349 429.932 216.999 425.581 217.029 422.747L200.76 422.747L200.748 399.278C200.738 386.122 198.1 373.667 214.274 372.293L224.999 372.293C228.355 372.63 231.892 372.304 235.276 372.296L277 372.302C280.068 372.313 283.233 372.644 286.28 372.293ZM217.029 389.321C217.373 400.43 216.973 411.626 217.029 422.747C216.999 425.581 216.349 429.932 218.438 432.163C225.015 439.186 227.843 429.443 227.742 423.466L265.949 423.472C271.609 423.475 277.735 424.027 283.348 423.466C283.366 426.071 282.819 430.41 284.748 432.424C286.788 434.553 290.799 434.551 292.74 432.284C294.653 430.048 293.99 425.526 293.991 422.747L293.991 389.321L217.029 389.321Z"/>
	<path fill="#3C98E6" transform="scale(0.117188 0.117188)" d="M217.029 389.321L293.991 389.321L293.991 422.747C293.99 425.526 294.653 430.048 292.74 432.284C290.799 434.551 286.788 434.553 284.748 432.424C282.819 430.41 283.366 426.071 283.348 423.466C277.735 424.027 271.609 423.475 265.949 423.472L227.742 423.466C227.843 429.443 225.015 439.186 218.438 432.163C216.349 429.932 216.999 425.581 217.029 422.747C216.973 411.626 217.373 400.43 217.029 389.321ZM227.742 400.279L227.426 400.583C227.477 404.479 227.767 408.341 227.742 412.251L283.348 412.251C283.938 410.758 283.273 402.751 283.348 400.279L227.742 400.279Z"/>
	<path fill="#346BA2" transform="scale(0.117188 0.117188)" d="M105.517 110.557C101.755 109.846 100.582 108.178 100.296 104.561C100.013 100.966 99.7896 82.7016 100.418 80.3192C101.306 76.955 104.71 76.2745 107.699 76.2454L392.515 76.3145C399.668 76.3141 411.621 73.7012 411.994 83.2035C412.182 87.9987 412.013 92.8571 412 97.6592L412.009 232.366C412.041 247.234 415.439 249.144 398.258 248.911C390.657 248.808 378.168 249.794 371.497 248.886C370.39 247.559 369.557 246.311 369.033 244.639C368.169 235.908 377.831 237.871 383.646 237.87L401.023 237.88L401.023 87.5859L111.205 87.5859C111.233 96.053 114.416 107.704 105.517 110.557Z"/>
	<path fill="#8CDFE1" transform="scale(0.117188 0.117188)" d="M111.205 87.5859L401.023 87.5859L401.023 237.88L383.646 237.87C377.831 237.871 368.169 235.908 369.033 244.639C364 244.403 358.685 245.266 353.721 244.639C353.889 235.636 343.782 237.802 337.825 237.888C333.369 237.953 328.905 237.884 324.448 237.883L111.205 237.88L111.216 142.987C111.229 135.527 113.725 126.081 105.517 123.597C105.768 123.353 105.45 112.03 105.517 110.557C114.416 107.704 111.233 96.053 111.205 87.5859Z"/>
	<path fill="#346BA2" transform="scale(0.117188 0.117188)" d="M138.796 144.243L235.246 144.243C239.022 144.236 248.681 143.184 251.944 144.9C257.163 147.645 254.925 154.42 249.757 155.425L153.705 155.417C149.198 155.446 135.221 157.585 133.812 151.352C133.02 147.85 135.57 145.037 138.796 144.243Z"/>
	<path fill="#346BA2" transform="scale(0.117188 0.117188)" d="M230.693 118.957C238.147 118.963 250.732 116.918 255.381 122.67C254.076 132.487 247.101 130.293 239.545 130.292L157.412 130.284L145.977 130.321C142.055 130.329 133.688 131.137 133.641 125.181C133.577 117.08 144.128 118.962 149.426 118.961L230.693 118.957Z"/>
	<path fill="#346BA2" transform="scale(0.117188 0.117188)" d="M141.397 170.008L236.187 169.993C239.849 169.985 249.697 168.837 252.656 171.16C257.646 175.077 255.146 181.368 247.372 181.542L150.363 181.546C147.049 181.548 138.49 182.66 135.816 180.567C130.742 176.595 134.236 170.58 141.397 170.008Z"/>
	<path fill="#346BA2" transform="scale(0.117188 0.117188)" d="M286.28 134.355L362.498 134.333C376.681 134.289 378.98 131.928 378.881 148.241L378.849 193.613C378.85 200.365 381.712 214.023 373.313 214.844C367.737 215.052 362.081 214.852 356.497 214.849L299.171 214.859C281.271 214.896 280.225 217.847 280.228 198.214L280.27 151.109C280.288 145.092 277.758 135.141 286.28 134.355Z"/>
	<path fill="#3C98E6" transform="scale(0.117188 0.117188)" d="M291.411 145.439C316.457 144.951 342.572 145.137 367.632 145.439L367.632 203.734L291.411 203.734L291.408 160.402C291.407 157.505 290.955 147.494 291.411 145.439Z"/>
	<path fill="#346BA2" transform="scale(0.117188 0.117188)" d="M327.599 156.293C337.466 156.369 334.261 170.118 334.255 177.104C340.585 177.114 347.456 176.444 353.721 177.104C355.073 178.412 356.283 179.961 356.295 181.927C356.345 189.501 348.971 188.25 343.865 188.234L330.125 188.209L316.24 188.238C312.233 188.25 302.582 189.414 302.084 183.442C301.316 174.225 317.794 177.088 323.284 177.104C323.319 170.623 320.565 158.894 327.599 156.293Z"/>
</svg>
