<?xml version="1.0" encoding="utf-8" ?>
<svg xmlns="http://www.w3.org/2000/svg" xmlns:xlink="http://www.w3.org/1999/xlink" width="60" height="60">
	<path fill="#88D9F9" transform="scale(0.117188 0.117188)" d="M206.23 314.483C208.503 314.249 210.208 313.722 212.228 312.657L214.271 313.223C217.808 314.226 221.322 316.403 224.607 318.046L240.2 325.736C246.327 328.771 252.721 331.215 258.55 334.835L258.537 356.749C258.536 362.627 257.791 372.742 259.501 377.934C245.276 373.455 220.601 358.87 206.23 351.865L206.23 314.483Z"/>
	<path fill="#88D9F9" transform="scale(0.117188 0.117188)" d="M192.262 163.762L192.279 115.43C192.286 111.269 189.557 89.0364 195.246 91.3389C205.995 95.6891 219.578 103.078 230.279 108.262L248.369 116.846C251.764 118.454 255.281 119.965 258.55 121.813C258.552 137.727 258.891 153.73 258.55 169.632C258.143 167.752 258.434 165.67 258.55 163.762C248.473 160.845 213.946 140.454 209.19 142.294C207.456 145.014 208.123 159.691 208.17 163.762L192.262 163.762Z"/>
	<path fill="#1E5CB9" transform="scale(0.117188 0.117188)" d="M192.262 163.762L208.17 163.762C225.584 173.259 220.257 185.844 220.253 204.724L220.259 283.044C220.256 294.278 223.089 305.577 212.228 312.657C210.208 313.722 208.503 314.249 206.23 314.483L122.272 314.503C109.314 314.513 98.8338 312.776 98.657 297.042C98.3512 269.829 98.6976 242.565 98.6956 215.347L98.6831 191.227C98.6115 168.523 100.931 163.712 122.95 163.746L192.262 163.762ZM118.337 171.831C110.772 172.009 106.93 173.838 106.762 181.821C106.559 191.436 106.741 201.095 106.739 210.714L106.744 288.716C106.749 308 107.248 306.516 125.633 306.518L201.024 306.514C209.423 306.742 212.385 304.975 212.289 296.214C211.993 269.166 212.22 242.094 212.22 215.043L212.241 192.054C212.259 174.515 214.513 171.828 194.445 171.822L118.337 171.831Z"/>
	<path fill="#1E5CB9" transform="scale(0.117188 0.117188)" d="M158.077 197.566C164.336 197.006 168.561 205.812 172.288 210.481C181.246 221.702 194.504 231.721 170.8 231.488L170.812 266.937C170.807 275.938 170.204 276.659 161.086 276.37C144.049 276.572 147.066 276.208 147.063 258.489C147.062 249.495 147.23 240.48 147.074 231.488C144 231.327 133.192 232.54 135.484 225.451C136.4 222.618 153.731 199.656 158.077 197.566Z"/>
	<path fill="#4CADF3" transform="scale(0.117188 0.117188)" d="M159.154 207.136C159.497 207.368 171.712 222.278 172.714 223.68C168.811 223.371 166.16 223.189 162.976 225.758C162.672 229.178 162.963 232.815 162.967 236.264L162.991 257.673C163.013 262.859 165.153 268.464 160.271 268.365C158.56 268.421 156.853 268.392 155.141 268.365L155.146 241.517C155.161 230.747 158.957 223.486 147.074 223.68C149.675 218.529 155.494 211.834 159.154 207.136Z"/>
	<path fill="#1E5CB9" transform="scale(0.117188 0.117188)" d="M258.55 121.813L258.538 96.4431C258.496 79.4343 257.331 84.6126 273.634 76.0517C278.706 73.3881 284.716 67.8761 290.63 70.4918C296.281 72.9912 301.812 75.8392 307.388 78.5061L389.399 118.613C395.16 121.428 401.142 124.003 406.791 127.022C416.086 131.99 413.126 144.555 413.125 154.141L413.115 404.737C413.117 424.652 416.44 420.769 398.292 430.697C393.451 433.344 388.146 437.464 382.694 438.62C372.129 435.755 347.705 421.863 337.019 416.632L270.74 384.037C266.924 382.148 262.999 380.381 259.501 377.934C257.791 372.742 258.536 362.627 258.537 356.749L258.55 334.835C252.721 331.215 246.327 328.771 240.2 325.736L224.607 318.046C221.322 316.403 217.808 314.226 214.271 313.223L212.228 312.657C223.089 305.577 220.256 294.278 220.259 283.044L220.253 204.724C220.257 185.844 225.584 173.259 208.17 163.762C208.123 159.691 207.456 145.014 209.19 142.294C213.946 140.454 248.473 160.845 258.55 163.762C258.434 165.67 258.143 167.752 258.55 169.632C258.891 153.73 258.552 137.727 258.55 121.813ZM208.17 163.762C225.584 173.259 220.257 185.844 220.253 204.724L220.259 283.044C220.256 294.278 223.089 305.577 212.228 312.657L214.271 313.223C217.808 314.226 221.322 316.403 224.607 318.046L240.2 325.736C246.327 328.771 252.721 331.215 258.55 334.835L258.55 169.632C258.143 167.752 258.434 165.67 258.55 163.762C248.473 160.845 213.946 140.454 209.19 142.294C207.456 145.014 208.123 159.691 208.17 163.762Z"/>
	<path fill="#DEDDE0" transform="scale(0.117188 0.117188)" d="M287.273 78.4752C310.613 89.0426 333.539 100.605 356.573 111.815L390.736 128.46C395.415 130.786 400.21 133.004 404.793 135.509L404.794 385.925C404.795 396.264 405.029 406.662 404.793 416.995C399.528 420.154 394.053 423.62 388.489 426.202L388.512 161.918C388.524 155.399 389.492 149.444 384.449 144.374C380.399 140.303 364.433 133.487 358.372 130.506L299.599 101.655C291.535 97.6579 282.987 94.1927 275.219 89.6537L270.612 87.3189C272.113 86.4363 273.677 85.6505 275.219 84.8419C279.111 82.6348 283.116 80.1067 287.273 78.4752Z"/>
	<path fill="#4CADF3" transform="scale(0.117188 0.117188)" d="M266.548 94.7759C269.297 95.8706 272.004 97.4771 274.681 98.7676L357.525 139.369C364.921 142.908 372.909 146.235 379.624 150.949C381.394 155.177 380.289 180.178 380.29 186.032L380.285 428.229C379.536 428.565 378.905 428.08 378.207 427.724C344.093 410.297 309.212 394.355 275.103 376.939C272.383 375.55 269.467 373.743 266.548 372.853L266.548 94.7759Z"/>
	<path fill="#1E5CB9" transform="scale(0.117188 0.117188)" d="M286.265 243.792C300.85 242.914 303.621 261.818 290.383 265.966C275.788 268.589 271.655 247.698 286.265 243.792Z"/>
	<path fill="#88D9F9" transform="scale(0.117188 0.117188)" d="M352.654 210.265C357.477 209.881 358.746 212.834 358.048 217.033C355.275 220.145 350.364 222.031 346.804 224.116C335.287 230.86 321.372 239.737 309.581 245.435C303.934 246.729 302.375 239.855 306.662 236.829C310.071 234.424 313.972 232.442 317.59 230.357L337.614 218.935C342.663 216.117 347.393 212.696 352.654 210.265Z"/>
	<path fill="#88D9F9" transform="scale(0.117188 0.117188)" d="M351.136 239.535C353.045 239.233 355.842 239.572 357.096 241.139C358.512 242.908 358.548 268.46 358.048 273.375C355.04 277.454 347.147 280.308 342.78 282.767L324.264 293.115C319.492 295.777 313.72 299.967 308.441 301.104C304.713 300.092 302.175 295.994 305.946 293.041C312.99 287.524 328.967 280.064 337.427 275.009C341.14 272.661 345.11 270.755 348.807 268.365C349.035 262.761 348.814 257.051 348.807 251.437C340.588 254.815 329.125 262.077 321.335 266.596C318.101 268.472 310.691 274.531 306.73 272.949C302.794 271.376 303.54 266.604 306.507 264.576C315.465 258.456 329.137 251.456 338.836 246.135C342.744 243.991 346.928 240.982 351.136 239.535Z"/>
</svg>
