<?xml version="1.0" encoding="utf-8" ?>
<svg xmlns="http://www.w3.org/2000/svg" xmlns:xlink="http://www.w3.org/1999/xlink" width="60" height="60">
	<path transform="scale(0.117188 0.117188)" d="M228.266 104.25C235.761 103.159 245.087 105.768 251.072 110.315C284.552 135.752 246.456 187.833 210.62 159.613C204.965 162.463 190.426 172.095 185.262 176.349C187.162 181.685 186.539 186.657 185.262 192.036C193.236 197.285 202.49 203.7 210.62 208.363C221.457 198.657 238.832 197.919 250.513 206.486C272.749 222.795 265.384 258.639 238.03 262.671C213.846 266.437 199.03 247.371 200.754 224.399C197.712 221.755 177.995 209.223 174.68 208.363C169.263 210.76 164.608 213.81 158.577 214.627C130.568 218.422 111.449 185.954 129.414 163.304C141 148.696 161.588 148.401 175.556 159.613C183.154 155.384 194.065 147.649 200.754 142.387C198.332 122.827 208.371 107.666 228.266 104.25Z"/>
	<path fill="#348DDA" transform="scale(0.117188 0.117188)" d="M231.328 219.57C245.749 218.101 249.362 241.905 233.28 243.66C216.673 243.845 214.255 222.051 231.328 219.57Z"/>
	<path fill="#348DDA" transform="scale(0.117188 0.117188)" d="M231.328 123.337C247.849 123.603 249.303 145.904 232.466 148.143C216.286 148.762 214.153 125.571 231.328 123.337Z"/>
	<path fill="#348DDA" transform="scale(0.117188 0.117188)" d="M153.557 170.578C170.079 170.44 172.4 192.84 155.819 195.487C137.959 196.126 137.136 173.114 153.557 170.578Z"/>
	<path transform="scale(0.117188 0.117188)" d="M126.596 53.5007C129.463 53.3193 132.422 53.4709 135.3 53.4797L242.435 53.4908C251.397 53.487 260.758 52.9264 269.627 54.3664C294.659 58.4306 316.165 79.6946 320.254 104.768C321.797 114.23 321.26 124.18 321.254 133.74L321.293 231.648C321.304 236.084 322.274 242.235 319.411 246.01C314.398 252.62 303.132 250.496 301.691 242.197C301.034 238.408 301.246 234.279 301.247 230.44L301.272 122.417C301.273 118.189 301.511 113.78 300.935 109.589C298.458 91.5958 283.824 76.3151 265.775 73.5367C256.946 72.1775 246.505 72.8659 237.493 72.8696L148.21 72.875C140.805 72.876 132.552 72.2654 125.273 73.3692C107.753 76.0262 93.2785 90.9832 90.9578 108.498C89.8761 116.661 90.4967 125.903 90.4968 134.2L90.497 230.45C90.4952 240.23 89.787 251.48 91.3303 261.059C94.6545 279.537 109.806 294.52 129.028 295.62C133.499 295.875 139.342 294.637 143.475 296.494C155.001 301.67 146.018 313.682 142.605 320.764L128.262 350.77C130.713 349.246 132.97 347.327 135.251 345.557L146.6 336.73C159.051 326.993 171.447 317.137 184.047 307.596C203.665 292.741 197.006 295.54 221 295.465C229.032 295.44 243.405 292.961 243.885 305C244.345 316.516 231.706 314.924 224.517 314.898L206.627 314.873C199.906 319.304 193.532 324.744 187.162 329.692L155.512 354.148C150.053 358.375 140.889 366.752 134.642 369.04C124.944 372.592 113.438 367.053 109.946 357.387C105.659 345.523 118.498 326.228 123.791 314.873C112.702 312.763 102.497 309.16 93.688 301.835C68.7556 281.101 70.9161 260.94 70.9213 232.683L70.9201 134.198C70.9236 124.44 70.2122 114.074 71.8685 104.439C76.5266 77.3416 98.8413 55.8357 126.596 53.5007Z"/>
	<path transform="scale(0.117188 0.117188)" d="M335.609 259.251C358.612 257.42 385.253 266.44 403.031 280.677C474.449 337.866 440.625 447.123 349.062 456.793C343.78 456.77 338.564 456.931 333.29 456.491C286.796 452.614 248.34 415.175 243.112 368.728C237.669 320.373 270.354 273.296 317.748 262.017C323.624 260.619 329.614 259.916 335.609 259.251Z"/>
	<path fill="#FDFDFD" transform="scale(0.117188 0.117188)" d="M336.897 278.516C381.355 277.254 419.447 309.866 421.378 354.83C423.198 397.213 389.85 435.482 346.974 437.288C304.452 440.397 266.264 406.758 262.573 364.591C258.704 320.391 293.426 282.278 336.897 278.516Z"/>
	<path fill="#164D6E" transform="scale(0.117188 0.117188)" d="M340.605 296.5C363.083 295.187 378.512 313.21 378.774 334.962C385.776 342.793 379.91 346.353 378.547 356.487C376.771 369.7 365.028 381.901 352.314 384.971L352.314 397.046C356.699 396.994 362.465 396.225 365.898 399.522C370.966 404.389 368.882 414.001 362.08 415.949C358.215 417.055 348.347 416.439 343.875 416.422C338.948 416.438 327.65 417.059 323.489 415.912C316.605 414.016 314.632 404.537 319.509 399.642C322.922 396.216 328.766 397.029 333.187 397.046L333.187 384.971C317.271 380.943 304.974 366.601 305.545 349.81C301.508 345.954 299.951 339.924 304.752 335.72C305.458 335.102 305.431 297.244 340.605 296.5Z"/>
	<path fill="#FDFDFD" transform="scale(0.117188 0.117188)" d="M340.605 314.873C361.853 311.998 363.051 340.07 359.87 354.021C358.123 361.684 351.476 366.565 343.875 367.674C327.773 369.339 323.806 355.829 323.774 343.326C323.737 329.539 324.176 317.259 340.605 314.873Z"/>
</svg>
