<?xml version="1.0" encoding="utf-8" ?>
<svg xmlns="http://www.w3.org/2000/svg" xmlns:xlink="http://www.w3.org/1999/xlink" width="60" height="60">
	<path fill="#6657F3" transform="scale(0.117188 0.117188)" d="M359.929 331.514C362.577 329.104 365.193 326.525 368.061 324.383C385.784 311.147 410.646 314.604 425.153 330.914C441.174 348.925 438.232 376.793 420.412 392.362C401.94 408.5 375.39 404.111 359.395 386.572C350.76 375.663 347.943 363.091 350.958 349.386C353.544 344.06 353.083 340.155 358.07 334.581L359.395 333.101C359.646 332.553 359.862 332.121 359.929 331.514ZM392.023 346.064C376.574 349.266 380.538 371.22 395.689 369.051C410.435 364.854 407.003 344.292 392.023 346.064Z"/>
	<path fill="#FCA5A4" transform="scale(0.117188 0.117188)" d="M359.929 219.845C370.115 210.402 380.12 203.845 394.879 204.37C418.689 205.217 437.536 226.208 436.392 249.852C434.706 284.731 395.524 302.309 367.422 281.838C364.942 280.032 362.634 277.725 359.929 276.282C357.747 270.723 354.212 266.138 351.868 259.747C349.74 241.477 348.517 237.264 359.929 219.845ZM393.726 234.839C377.326 237.342 379.52 257.559 393.726 257.629C408.624 255.914 408.178 235.876 393.726 234.839Z"/>
	<path fill="#9BC7F6" transform="scale(0.117188 0.117188)" d="M75.5347 392.05L349.732 392.038C354.754 392.035 358.827 390.256 359.395 394.886C359.67 414.011 356.019 425.786 334.71 425.956L125.408 425.974C115.605 425.974 105.272 426.67 95.5832 425.156C85.5854 423.593 76.2769 413.272 75.5347 403.261C76.039 399.906 75.5548 395.51 75.5347 392.05Z"/>
	<path fill="#B5D8F6" transform="scale(0.117188 0.117188)" d="M278.232 81.2544L281.316 81.2544L347.213 147.256C350.895 150.891 354.83 154.458 358.061 158.508C358.69 158.779 359.321 159.036 359.929 159.352L359.925 201.015C359.927 206.696 360.607 214.381 359.929 219.845C348.517 237.264 349.74 241.477 351.868 259.747C354.212 266.138 357.747 270.723 359.929 276.282L359.929 276.282L359.924 319.071C359.922 321.288 359.47 330.094 359.929 331.514C359.862 332.121 359.646 332.553 359.395 333.101L358.07 334.581C353.083 340.155 353.544 344.06 350.958 349.386C347.943 363.091 350.76 375.663 359.395 386.572C359.41 389.329 359.529 392.133 359.395 394.886C358.827 390.256 354.754 392.035 349.732 392.038L75.5347 392.05C75.5548 395.51 76.039 399.906 75.5347 403.261C75.471 402.882 75.4528 402.54 75.4502 402.155L75.5279 113.524C75.5309 99.8143 76.9352 84.5856 94.4145 81.7711C100.872 80.7313 108.416 81.2491 114.982 81.2484L278.232 81.2544Z"/>
	<path fill="#364A8A" transform="scale(0.117188 0.117188)" d="M329.216 319.514C338.471 323.88 349.933 329.525 359.395 333.101L358.07 334.581C353.083 340.155 353.544 344.06 350.958 349.386C340.7 344.909 330.185 340.523 320.348 335.187C324.352 330.31 326.906 325.341 329.216 319.514Z"/>
	<path fill="#364A8A" transform="scale(0.117188 0.117188)" d="M351.868 259.747C354.212 266.138 357.747 270.723 359.929 276.282L359.929 276.282C352.049 280.364 335.602 289.158 329.216 294.079C326.058 288.572 322.837 283.605 318.796 278.701C329.744 272.255 340.771 265.932 351.868 259.747Z"/>
	<path fill="#B5D8F6" transform="scale(0.117188 0.117188)" d="M359.929 276.282L359.924 319.071C359.922 321.288 359.47 330.094 359.929 331.514C359.862 332.121 359.646 332.553 359.395 333.101C349.933 329.525 338.471 323.88 329.216 319.514C332.063 309.676 330.982 303.865 329.216 294.079C335.602 289.158 352.049 280.364 359.929 276.282Z"/>
	<path fill="#5975B4" transform="scale(0.117188 0.117188)" d="M135.076 289.287L207.636 289.274C212.438 289.267 217.412 288.324 221.109 292.027C228.951 299.883 221.328 307.947 210.02 307.455L138.079 307.478C133.901 307.493 127.453 308.48 123.96 305.623C120.048 302.423 119.942 296.256 123.246 292.595C126.379 289.123 130.82 289.418 135.076 289.287Z"/>
	<path fill="#5975B4" transform="scale(0.117188 0.117188)" d="M135.076 236.322L264.356 236.308C268.996 236.305 274.18 235.863 278.766 236.491C287.444 237.678 293.774 255.189 272.705 254.757L144.95 254.76C139.419 254.76 133.649 255.084 128.15 254.531C120.624 253.774 112.863 236.764 135.076 236.322Z"/>
	<path fill="#5975B4" transform="scale(0.117188 0.117188)" d="M129.167 184.258L260.915 184.265C266.292 184.263 277.71 182.866 282.362 185.722C290.246 190.562 286.713 201.283 278.232 202.749L146.423 202.728C140.766 202.748 128.797 204.375 124.065 200.927C116.922 195.724 120.84 185.261 129.167 184.258Z"/>
	<path fill="#FAC157" transform="scale(0.117188 0.117188)" d="M278.232 81.2544L281.316 81.2544L347.213 147.256C350.895 150.891 354.83 154.458 358.061 158.508C344.951 159.125 331.718 158.496 318.593 158.495L304.679 158.53C275.189 158.634 278.216 142.266 278.224 120.09L278.232 81.2544Z"/>
	<path fill="#6657F3" transform="scale(0.117188 0.117188)" d="M320.348 335.187C296.324 361.828 247.447 344.249 249.268 304.845C250.943 268.575 296.96 254.124 318.796 278.701C322.837 283.605 326.058 288.572 329.216 294.079C330.982 303.865 332.063 309.676 329.216 319.514C326.906 325.341 324.352 330.31 320.348 335.187Z"/>
</svg>
