<?xml version="1.0" encoding="utf-8" ?>
<svg xmlns="http://www.w3.org/2000/svg" xmlns:xlink="http://www.w3.org/1999/xlink" width="60" height="60">
	<path fill="#313030" transform="scale(0.117188 0.117188)" d="M247.708 97.2616C250.266 97.0747 257.962 96.8457 260.1 97.5872C264.933 99.2636 263.778 104.913 259.671 106.523C256.84 106.906 250.703 106.702 247.708 106.523C243.535 104.209 242.308 99.3169 247.708 97.2616Z"/>
	<path fill="#313030" transform="scale(0.117188 0.117188)" d="M230.8 74.537L262.478 74.524C267.769 74.5143 273.425 74.0972 278.681 74.5959C285.075 75.2026 284.672 83.1996 278.563 83.744C272.503 83.747 230.216 84.3483 228.059 83.2345C226.515 82.4374 226.112 80.7988 225.662 79.2648C226.579 76.3932 227.619 75.0928 230.8 74.537Z"/>
	<path fill="#313030" transform="scale(0.117188 0.117188)" d="M84.4522 218.737C88.3479 218.849 107.252 238.844 110.221 242.674C112.308 245.365 110.663 255.85 99.7519 244.666L89.7424 234.449C89.5812 240.176 91.3777 249.602 86.4887 252.387L86.1718 252.451C78.8866 253.992 79.8832 239.301 80.611 234.449C76.5085 237.691 67.969 247.247 64.5874 248.978C61.6053 250.505 57.528 246.495 58.8889 243.497C60.034 240.975 80.1973 220.597 84.4522 218.737Z"/>
	<path fill="#313030" transform="scale(0.117188 0.117188)" d="M425.454 240.686C429.774 240.343 432.371 245.184 435.112 247.903C440.54 253.287 446.424 258.487 451.483 264.206C454.581 267.707 451.637 277.164 442.379 267.952C438.905 264.495 435.604 260.469 431.816 257.373L431.477 257.1C431.926 262.441 432.915 277.788 428.639 280.608C418.459 282.563 422.691 262.811 422.279 256.141C419.251 259.459 407.315 278.549 402.39 268.417C400.344 264.207 413.07 252.974 415.997 249.789C418.805 246.733 421.476 242.28 425.454 240.686Z"/>
	<path fill="#313030" transform="scale(0.117188 0.117188)" d="M425.454 292.799C434.537 291.496 431.469 306.026 431.471 312.308L431.482 367.399C431.503 383.616 433.347 383.683 415.444 383.691L396.439 383.68C393.586 383.515 390.756 382.06 390.699 378.734C390.608 373.37 402.652 374.621 405.793 374.641L422.279 374.654L422.293 319.051C422.289 312.092 419.535 296.118 425.454 292.799Z"/>
	<path fill="#313030" transform="scale(0.117188 0.117188)" d="M84.4522 265.279C92.0971 264.911 89.7595 276.888 89.7511 281.72L89.7424 374.654C95.7121 374.723 117.524 372.444 119.264 378.333C120.057 381.014 117.899 383.035 115.476 383.68L95.1605 383.663C89.1501 383.66 80.9881 385.91 80.6527 377.427C80.4176 371.484 80.5997 365.467 80.613 359.518L80.6246 291.044C80.6136 284.54 77.7513 267.175 84.4522 265.279Z"/>
	<path fill="#313030" transform="scale(0.117188 0.117188)" d="M179.137 76.8777C221.701 74.481 251.274 122.629 223.467 158.104C214.464 169.589 201.866 175.312 187.608 177.062C160.463 179.53 135.687 158.873 132.968 131.827C129.997 102.263 150.058 79.7048 179.137 76.8777ZM142.224 128.619C145.341 170.402 196.858 181.437 218.018 149.84C230.779 130.786 225.375 105.89 206.226 93.381C203.162 93.985 197.651 91.5826 194.347 91.1341C169.367 87.7442 146.747 104.079 143.111 129.1C142.834 131.003 142.574 127.108 142.544 126.7L142.415 126.79L142.224 128.619Z"/>
	<path fill="#C1C0C0" transform="scale(0.117188 0.117188)" d="M142.224 128.619C138.56 108.132 157.684 88.1644 177.72 86.283C187.005 85.411 198.84 87.31 206.226 93.381C203.162 93.985 197.651 91.5826 194.347 91.1341C169.367 87.7442 146.747 104.079 143.111 129.1C142.834 131.003 142.574 127.108 142.544 126.7L142.415 126.79L142.224 128.619Z"/>
	<path fill="#313030" transform="scale(0.117188 0.117188)" d="M182.777 106.523C183.987 106.366 185.108 106.231 186.264 106.719C187.52 107.249 211.38 125.606 199.617 129.277C194.84 130.768 191.87 123.92 188.127 122.113L188.153 135.754C188.178 139.827 188.73 144.599 187.608 148.527C187.118 149.059 186.594 149.561 186.081 150.071C178.079 154.599 179.13 141.58 179.128 137.93L179.137 122.113C177.065 124.898 172.742 130.604 168.577 129.217C157.021 125.366 180.08 107.553 182.777 106.523Z"/>
	<path fill="#313030" transform="scale(0.117188 0.117188)" d="M341.826 72.7497C367.849 71.3771 388.681 88.309 391.209 114.487C422.237 125.895 419.29 167.373 390.184 174.032C383.896 175.471 372.18 174.721 365.24 174.72L320.375 174.73L290.975 174.743C285.573 174.744 279.728 175.189 274.398 174.354C242.546 169.361 240.33 124.586 272.352 116.818C276.641 100.011 289.215 89.5403 306.969 94.1217C314.839 81.6858 327.428 74.7853 341.826 72.7497ZM329.967 85.7926L330.195 85.8038C341.077 86.2361 348.932 84.7833 357.872 94.4534C366.269 103.535 365.557 115.47 365.498 126.953C372.125 127.196 378.664 126.739 383.585 132.006C391.605 140.591 386.645 155.571 375.007 157.017C369.541 157.696 363.693 157.302 358.173 157.304L290.6 157.303C283.066 157.3 275.342 157.646 267.84 156.932C264.861 156.649 263.208 155.02 260.637 154.086C266.198 168.622 285.113 165.569 297.376 165.548L368.579 165.541C373.893 165.543 379.405 165.87 384.698 165.568C406.053 164.35 413.891 131.756 387.148 123.193C379.573 120.767 382.638 117.611 381.671 111.207C378.182 88.0991 350.643 74.9208 329.967 85.7926Z"/>
	<path fill="#3AC6DC" transform="scale(0.117188 0.117188)" d="M260.637 154.086C254.319 144.076 261.537 130.097 272.37 126.822C274.275 126.246 276.269 125.937 278.157 125.327C285.37 122.998 278.16 103.411 299.188 102.622C310.718 102.189 308.055 108.081 315.808 97.6664C319.174 93.1447 324.468 87.609 329.967 85.7926L330.195 85.8038C341.077 86.2361 348.932 84.7833 357.872 94.4534C366.269 103.535 365.557 115.47 365.498 126.953C372.125 127.196 378.664 126.739 383.585 132.006C391.605 140.591 386.645 155.571 375.007 157.017C369.541 157.696 363.693 157.302 358.173 157.304L290.6 157.303C283.066 157.3 275.342 157.646 267.84 156.932C264.861 156.649 263.208 155.02 260.637 154.086Z"/>
	<defs>
		<linearGradient id="gradient_0" gradientUnits="userSpaceOnUse" x1="240.11115" y1="191.34517" x2="272.16098" y2="446.05435">
			<stop offset="0" stop-color="#2B2F31"/>
			<stop offset="1" stop-color="#42312F"/>
		</linearGradient>
	</defs>
	<path fill="url(#gradient_0)" transform="scale(0.117188 0.117188)" d="M171.685 202.553L344.097 202.553C366.526 202.527 377.887 198.918 377.845 225.133L377.831 259.191C377.84 269.546 378.873 272.913 372.286 281.354C378.505 288.353 377.815 293.419 377.823 302.087L377.828 334.197C377.832 342.711 378.025 346.548 372.286 353.466C380.317 360.223 377.836 369.008 377.823 378.101L378.033 418.641C377.98 432.291 364.983 435.517 353.836 435.497L340.875 435.471L166.125 435.473C160.967 435.478 154.248 436.224 149.339 435.132C134.806 431.899 134.257 419.154 134.252 407.668L134.232 372.025C134.229 365.011 133.342 357.623 140.47 353.466C130.697 344.144 134.26 322.504 134.251 309.41C134.243 299.19 131.702 288.397 139.022 280.608C132.964 274.492 134.256 267.85 134.25 259.966L134.245 228.67C134.249 219.036 132.182 206.346 144.459 203.135C149.211 201.893 165.725 202.541 171.685 202.553Z"/>
	<path fill="#1888D7" transform="scale(0.117188 0.117188)" d="M353.003 211.669C359.301 211.606 364.324 209.977 368.523 215.616L368.533 253.564C368.536 272.552 372.566 276.618 350.71 276.619L333.53 276.608C344.955 269.638 354.188 264.966 353.003 248.397C352.54 245.893 352.751 243.204 353.003 240.686C353.414 238.674 352.999 235.124 352.998 232.945L353.003 211.669Z"/>
	<path fill="#1888D7" transform="scale(0.117188 0.117188)" d="M340.875 285.731C343.629 285.354 346.62 285.706 349.406 285.708C365.969 285.718 368.52 284.142 368.528 300.247L368.537 331.879C368.613 349.887 367.075 349.977 347.712 349.963L168.888 349.947C163.189 349.946 150.821 351.546 146.83 346.814C152.309 345.674 158.514 346.046 164.093 346.046L315.088 346.067C329.276 346.078 338.655 347.272 348.02 334.149C350.571 330.574 353.732 323.522 353.003 319.041C352.717 317.865 352.822 316.217 353.003 315.022C353.282 313.449 352.868 311.614 352.826 310.012C352.459 295.997 353.896 294.178 340.875 285.731Z"/>
	<path fill="#FEA634" transform="scale(0.117188 0.117188)" d="M350.006 358.78C365.904 358.659 369.319 357.077 369.268 373.812L369.227 387.152C369.203 396.916 369.65 406.815 369.274 416.561C368.778 429.407 354.692 426.489 345.77 426.49L161.922 426.488C152.91 426.49 144.419 427.421 143.416 416.217C147.828 416.374 152.283 416.236 156.7 416.226L312.717 416.236C318.502 416.241 322.258 416.649 326.906 412.464C332.805 407.152 348.901 392.223 349.885 384.931C350.909 377.341 349.613 366.886 350.006 358.78Z"/>
	<path fill="#FECF40" transform="scale(0.117188 0.117188)" d="M143.416 416.217C143.419 399.784 143.552 383.339 143.31 366.908C143.127 354.422 161.145 358.781 170.978 358.784L350.006 358.78C349.613 366.886 350.909 377.341 349.885 384.931C348.901 392.223 332.805 407.152 326.906 412.464C322.258 416.649 318.502 416.241 312.717 416.236L156.7 416.226C152.283 416.236 147.828 416.374 143.416 416.217Z"/>
	<path fill="#313030" transform="scale(0.117188 0.117188)" d="M171.685 376.612L193.069 376.653C197.194 376.632 215.353 373.791 211.584 383.261C211.045 384.616 209.556 385.24 208.304 385.727L183.022 385.714C179.488 385.708 175.67 386.026 172.166 385.759C166.183 385.304 166.017 377.38 171.685 376.612Z"/>
	<path fill="#313030" transform="scale(0.117188 0.117188)" d="M170.687 396.687C175.335 396.544 180.03 396.678 184.683 396.677L226.841 396.677C230.724 396.679 240.26 395.374 238.623 402.138C238.181 403.967 237.168 404.998 235.596 405.95C232.81 406.119 229.949 405.968 227.155 405.965L209.999 405.948C203.908 405.943 174.027 407.01 170.316 405.58C166.128 403.967 167.338 398.451 170.687 396.687Z"/>
	<path fill="#95C9F4" transform="scale(0.117188 0.117188)" d="M146.83 346.814C141.197 342.906 143.398 333.108 143.402 326.6L143.318 294.616C143.273 289.777 144.186 286.148 149.464 285.814C156.6 285.362 163.988 285.725 171.154 285.724L340.875 285.731C353.896 294.178 352.459 295.997 352.826 310.012C352.868 311.614 353.282 313.449 353.003 315.022C352.822 316.217 352.717 317.865 353.003 319.041C353.732 323.522 350.571 330.574 348.02 334.149C338.655 347.272 329.276 346.078 315.088 346.067L164.093 346.046C158.514 346.046 152.309 345.674 146.83 346.814Z"/>
	<path fill="#313030" transform="scale(0.117188 0.117188)" d="M166.822 312.375C172.693 312.074 197.785 310.541 198.865 315.687C199.456 318.504 197.533 320.928 194.813 321.454L176.745 321.478C173.444 321.478 169.895 321.736 166.633 321.282C160.677 320.453 161.205 313.209 166.822 312.375Z"/>
	<path fill="#313030" transform="scale(0.117188 0.117188)" d="M214.282 312.375C218.874 312.371 244.996 311.701 247.442 313.058C251.647 315.392 249.63 320.638 245.532 321.454C237.189 321.779 222.366 322.178 214.168 321.388C208.125 320.806 208.962 313.333 214.282 312.375Z"/>
	<path fill="#313030" transform="scale(0.117188 0.117188)" d="M326.416 308.377C334.448 296.397 348.717 302.316 353.003 315.022C352.822 316.217 352.717 317.865 353.003 319.041C349.888 331.881 336.199 335.143 326.416 326.052C319.214 332.636 310.506 333.847 303.729 326.052C277.14 348.193 265.265 299.867 293.282 302.149C297.873 302.523 300.877 305.048 303.729 308.377C309.973 299.86 320.218 300.417 326.416 308.377Z"/>
	<path fill="#FECF40" transform="scale(0.117188 0.117188)" d="M338.324 311.259C341.678 311.348 342.942 314.307 343.56 317.212C342.749 320.221 341.516 321.908 338.324 322.701C330.439 322.271 330.343 312.513 338.324 311.259Z"/>
	<path fill="#FECF40" transform="scale(0.117188 0.117188)" d="M313.519 311.259C320.912 310.954 323.053 319.337 316.05 322.701C308.609 323.23 306.735 314.355 313.519 311.259Z"/>
	<path fill="#FECF40" transform="scale(0.117188 0.117188)" d="M290.277 311.259C298.537 310.812 299.72 319.916 292.7 322.701C284.876 322.833 283.625 314.172 290.277 311.259Z"/>
	<path fill="#95C9F4" transform="scale(0.117188 0.117188)" d="M146.83 211.669C154.024 211.26 161.442 211.666 168.664 211.667L353.003 211.669L352.998 232.945C352.999 235.124 353.414 238.674 353.003 240.686C352.751 243.204 352.54 245.893 353.003 248.397C354.188 264.966 344.955 269.638 333.53 276.608C328.696 276.24 323.706 276.604 318.849 276.607L160.081 276.613C144.844 276.627 143.318 278.203 143.396 261.717L143.395 225.953C143.389 220.348 141.589 215.169 146.83 211.669Z"/>
	<path fill="#313030" transform="scale(0.117188 0.117188)" d="M166.822 238.285C170.959 238.219 193.744 237.593 196.409 239.019C200.385 241.147 198.809 246.589 194.813 247.462L175.874 247.471C172.445 247.485 168.989 247.68 165.566 247.462C161.002 244.857 161.253 239.556 166.822 238.285Z"/>
	<path fill="#313030" transform="scale(0.117188 0.117188)" d="M214.282 238.285L234.743 238.262C238.025 238.26 243.183 237.726 246.295 238.595C251.743 240.116 249.799 245.635 245.532 247.462C240.57 247.713 235.494 247.432 230.519 247.446C226.943 247.457 205.005 249.871 210.633 240.594C211.479 239.2 212.763 238.661 214.282 238.285Z"/>
	<path fill="#313030" transform="scale(0.117188 0.117188)" d="M326.416 234.449C336.004 223.216 346.98 229.988 353.003 240.686C352.751 243.204 352.54 245.893 353.003 248.397C347.497 260.89 336.562 261.809 326.416 254.221C318.555 260.553 311.569 261.669 303.729 254.221C295.046 264.311 277.515 258.974 277.213 245.08C276.893 230.359 293.052 224.104 303.729 234.449C311.275 228.163 319.135 227.103 326.416 234.449Z"/>
	<path fill="#FECF40" transform="scale(0.117188 0.117188)" d="M336.271 238.285C343.736 238.638 346.127 246.304 339.409 249.636C331.203 250.586 330.43 242.029 336.271 238.285Z"/>
	<path fill="#FECF40" transform="scale(0.117188 0.117188)" d="M314.638 238.285C322.195 239.575 322.706 247.862 316.05 250.599C307.496 249.873 306.78 240.253 314.638 238.285Z"/>
	<path fill="#FECF40" transform="scale(0.117188 0.117188)" d="M291.93 238.285C295.816 238.922 297.401 240.585 298.389 244.431C297.569 247.836 296.19 249.541 292.7 250.599C284.26 249.975 284.491 240.132 291.93 238.285Z"/>
</svg>
