<?xml version="1.0" encoding="utf-8" ?>
<svg xmlns="http://www.w3.org/2000/svg" xmlns:xlink="http://www.w3.org/1999/xlink" width="60" height="60">
	<path fill="#52E3F3" transform="scale(0.117188 0.117188)" d="M217.049 221.363C219.758 220.713 227.49 211.025 230.28 208.597C234.87 204.604 237.873 209.992 240.801 213.076C243.367 215.78 246.235 218.31 248.385 221.363C243.391 224.944 238.151 231.604 233.505 236C230.721 233.108 220.33 221.893 217.049 221.363Z"/>
	<path fill="#07B48E" transform="scale(0.117188 0.117188)" d="M248.385 221.363C267.558 197.8 270.179 211.932 267.455 215.331C265.91 217.258 263.95 218.993 262.206 220.741L252.415 230.417C248.129 234.581 238.386 246.196 233.024 247.291C229.592 245.634 200.962 223.82 217.049 221.363C220.33 221.893 230.721 233.108 233.505 236C238.151 231.604 243.391 224.944 248.385 221.363Z"/>
	<path fill="#07B48E" transform="scale(0.117188 0.117188)" d="M248.385 330.339C252.084 325.911 262.514 312.504 267.552 317.632C269.036 319.144 268.925 321.374 268.678 323.315C265.675 327.336 258.855 333.333 255.002 337.241L241.415 350.977C238.688 353.691 236.869 356.433 233.024 357.463C228.529 355.608 225.668 351.838 222.214 348.551C217.636 344.194 205.479 335.765 217.049 331.57C219.905 331.315 227.991 318.584 232.356 317.606C235.723 316.852 244.236 327.5 248.035 330.101L248.385 330.339Z"/>
	<path fill="#52E3F3" transform="scale(0.117188 0.117188)" d="M217.049 331.57C219.905 331.315 227.991 318.584 232.356 317.606C235.723 316.852 244.236 327.5 248.035 330.101L248.385 330.339C242.827 335.043 238.473 341.068 233.024 345.829C230.438 343.101 220.011 332.163 217.049 331.57Z"/>
	<path fill="#07B48E" transform="scale(0.117188 0.117188)" d="M248.385 272.88C252.249 269.158 263.037 255.276 267.62 260.303C272.108 265.227 262.804 272.18 259.766 275.283C254.143 281.028 248.496 286.698 242.672 292.239C238.853 295.872 234.989 302.754 229.425 298.472C226.852 296.493 214.492 284.831 212.982 282.595C210.171 278.431 212.745 275.387 217.049 274.157C219.868 273.424 229.2 259.616 232.821 259.554C235.595 259.505 245.012 270.322 248.109 272.673L248.385 272.88Z"/>
	<path fill="#52E3F3" transform="scale(0.117188 0.117188)" d="M217.049 274.157C219.868 273.424 229.2 259.616 232.821 259.554C235.595 259.505 245.012 270.322 248.109 272.673L248.385 272.88C243.489 278.309 237.865 283.077 233.024 288.568C227.931 284.014 222.704 277.789 217.049 274.157Z"/>
	<path fill="#3B3C8E" transform="scale(0.117188 0.117188)" d="M282.748 224.011C287.609 223.616 292.689 223.995 297.581 224.007L385.697 224.012C389.652 224.011 404.043 223.44 406.883 224.224C411.67 225.547 411.057 231.76 406.885 233.754C403.217 234.107 399.334 233.788 395.645 233.768L308.334 233.754C304.189 233.755 284.958 234.308 282.44 233.481C277.706 231.925 278.469 226.261 282.748 224.011Z"/>
	<path fill="#3B3C8E" transform="scale(0.117188 0.117188)" d="M387.681 264.271C394.072 264.287 400.5 264.052 406.885 264.271C408.981 265.528 409.792 266.831 410.346 269.225C408.831 276.49 398.758 274.18 392.441 274.171L301.688 274.157C296.116 274.129 279.459 276.448 279.257 269.373C279.053 262.239 291.031 264.281 295.43 264.286L387.681 264.271Z"/>
	<path fill="#3B3C8E" transform="scale(0.117188 0.117188)" d="M310.588 62.1359C339.018 60.6488 363.695 75.8839 376.905 101.129L421.061 101.125C446.879 101.122 451.293 96.7519 451.265 126.361L451.253 316.898C451.265 320.65 452.873 329.731 446.656 329.6C438.629 329.431 441.732 312.267 441.739 306.594L441.743 137.037C441.742 129.284 441.977 121.448 441.643 113.706C441.42 108.558 422.009 110.775 417.586 110.775L380.609 110.778C390.941 145.384 373.521 182.006 339.702 195.658C309.728 207.756 274.234 195.226 257.373 167.922C246.501 150.316 244.8 130.584 249.468 110.778L212.091 110.786C207.282 110.791 200.494 110.291 195.888 110.845C188.013 111.792 190.184 119.606 190.22 125.269L190.225 351.851C190.225 356.843 188.87 372.342 192.021 376.161C195.252 377.4 220.646 376.757 226.053 376.756L277.042 376.748C277.023 357.887 280.37 344.846 290.966 329.262C304.956 310.072 326.26 298.977 350.28 299.007C393.575 299.06 422.337 334.86 422.245 376.748C424.28 376.992 436.129 377.184 438.255 376.906C443.656 376.199 441.56 353.734 441.738 348.944C443.048 346.806 444.18 346.4 446.527 345.829C450.698 346.799 451.193 348.493 451.266 352.718C451.354 357.726 451.829 373.255 450.688 377.156C447.205 389.068 430.832 386.313 420.987 386.313C415.134 414.765 394.227 436.582 365.753 443.53C324.504 453.594 287.729 426.064 278.162 386.313L201.993 386.336C181.411 386.402 180.254 382.005 180.249 361.978L180.265 345.829C171.847 345.511 163.312 345.821 154.878 345.824L105.277 345.819C97.0877 345.821 88.6242 346.275 80.4618 345.764C67.5328 344.954 76.7548 333.816 79.6747 328.84C83.479 322.356 87.184 315.841 91.3405 309.572C87.8487 302.458 83.2671 289.115 81.1689 281.368C65.0534 281.214 61.0203 286.009 61.0003 268.697L60.9982 240.725C61.0027 236.191 59.9871 232.045 64.0929 229.105C69.7833 229.039 75.4785 229.057 81.1689 229.105C84.5591 220.083 87.4802 210.682 91.3405 201.877C87.5151 195.13 83.2337 188.194 79.2989 181.408C76.5426 176.654 71.0665 171.434 77.1673 167.139L180.265 167.139L180.253 131.998C180.238 103.069 180.186 101.138 212.114 101.138L253.511 101.129C264.135 78.9686 285.769 63.5993 310.588 62.1359ZM100.056 315.363C98.4164 315.943 88.261 333.466 86.9481 336.198L105.437 336.198L118.751 336.198L118.751 315.363L100.056 315.363ZM87.9717 176.914C91.327 183.2 95.7851 191.385 100.056 196.97C106.278 196.966 112.532 196.825 118.751 196.97L118.751 176.914L87.9717 176.914ZM162.778 315.363L162.778 336.198L180.265 336.198L180.265 315.363C175.623 315.708 167.463 315.736 162.778 315.363ZM162.778 176.914L162.778 196.97C168.503 196.964 174.588 196.418 180.265 196.97L180.265 176.914L162.778 176.914Z"/>
	<path fill="#38C1FD" transform="scale(0.117188 0.117188)" d="M130.06 176.914L153.054 176.914C153.042 184.455 150.721 201.675 156.277 206.637C164.238 206.371 172.294 206.628 180.265 206.637L180.265 251.09L141.8 251.09C133.991 228.758 101.409 243.729 111.658 263.495C118.375 276.448 137.631 274.641 141.8 260.926C154.59 260.612 167.465 260.924 180.265 260.926L180.265 303.692C180.427 310.507 159.386 302.329 154.605 307.224C152.127 309.761 153.025 316.6 153.027 319.781L153.054 336.198L128.549 336.198L128.569 319.916C128.68 307.194 130.338 305.819 115.899 305.868L100.056 305.887C98.3618 299.998 96.0168 294.249 93.9918 288.465C87.3121 269.383 91.8382 271.501 70.7721 271.617L70.7721 238.763C89.6293 238.85 87.0001 242.251 93.0323 225.693L100.056 206.637L114.833 206.663C118.366 206.683 124.119 207.614 126.892 204.776C131.97 199.578 124.884 177.231 130.06 176.914Z"/>
	<path fill="#FCAF77" transform="scale(0.117188 0.117188)" d="M309.962 71.7894C339.573 68.918 369.269 92.5541 373.365 121.946C378.139 156.21 355.127 185.67 321.061 190.26C305.354 191.332 291.003 187.516 278.641 177.548C237.326 144.232 257.09 77.1492 309.962 71.7894Z"/>
	<path fill="#3B3C8E" transform="scale(0.117188 0.117188)" d="M314.008 81.0179C322.239 80.3846 320.245 89.4453 320.333 94.9688C340.84 95.918 340.947 118.884 334.222 119.476C325.725 120.224 330.213 109.251 325.618 105.906C322.735 103.807 314.283 103.784 310.758 104.392C303.428 105.654 302.6 112.901 303.905 119.095C306.919 133.401 332.263 116.39 337.322 139.724C340.626 154.964 335.482 164.063 320.333 167.139C320.681 171.277 322.014 176.023 318.142 178.833C309.911 181.408 311.558 172.317 310.588 167.139C299.592 165.543 291.972 157.784 293.795 146.214C295.714 143.445 299.29 142.145 301.984 144.677C306.563 148.981 296.374 158.921 319.835 157.15C328.174 156.52 329.017 150.118 328.254 143.041C327.181 133.083 315.03 136.181 308.302 135.083C287.593 131.707 288.789 96.7837 310.588 94.9688C310.503 90.1552 308.74 83.4982 314.008 81.0179Z"/>
	<path fill="#FED32C" transform="scale(0.117188 0.117188)" d="M345.104 308.735C377.312 306.881 407.147 330.063 411.754 362.414C417.187 400.567 391.99 430.533 354.957 435.751C320.908 437.431 292.284 414.98 287.287 380.846C281.762 343.111 308.996 313.898 345.104 308.735Z"/>
	<path fill="#3B3C8E" transform="scale(0.117188 0.117188)" d="M348.839 323.315C354.84 323.436 354.449 328.858 354.957 333.466C363.257 333.304 370.081 336.902 371.947 345.657C372.864 349.963 373.135 365.784 365.107 360.178C360.264 356.797 366.075 347.896 359.481 343.447L359.187 343.253C338.764 342.089 335.864 340.993 336.64 360.667C337.145 373.474 357.377 362.166 367.526 371.724C373.135 377.007 372.492 384.592 372.537 391.603C372.617 404.227 368.042 410.768 354.957 410.999C355.032 416.089 356.047 420.367 349.976 421.444C344.296 420.896 345.094 415.342 345.104 410.999L344.889 411.016C324.045 412.557 323.115 383.531 331.682 383.837C341.374 384.184 330.536 401.653 345.096 401.867C361.006 402.101 363.287 404.097 363.289 386.586C363.293 364.058 327.574 391.949 327.167 358.464C327.005 345.114 327.865 333.52 344.596 333.466C344.565 329.075 344.02 325.058 348.839 323.315Z"/>
</svg>
