<?xml version="1.0" encoding="utf-8" ?>
<svg xmlns="http://www.w3.org/2000/svg" xmlns:xlink="http://www.w3.org/1999/xlink" width="60" height="60">
	<path fill="#404048" transform="scale(0.117188 0.117188)" d="M310.083 182.82L332.54 182.796C336.421 182.794 340.51 182.539 344.368 182.92C349.978 183.474 349.826 189.274 344.688 189.885C339.857 189.948 311.043 190.39 308.379 189.33C304.497 187.785 306.366 183.618 310.083 182.82Z"/>
	<path fill="#404048" transform="scale(0.117188 0.117188)" d="M347.363 163.166L372.668 163.162C376.476 163.162 390.053 161.107 390.175 167.163C390.268 171.769 376.141 170.231 373.58 170.222L349.125 170.236L324.224 170.251C320.259 170.261 306.441 172.326 306.473 166.748C306.505 161.167 319.058 163.153 322.396 163.158L347.363 163.166Z"/>
	<path fill="#404048" transform="scale(0.117188 0.117188)" d="M309.158 143.539L378.592 143.544C383.862 143.544 415.861 142.569 418.393 143.95C421.67 145.738 420.669 149.383 417.594 150.496C411.357 150.655 405.082 150.504 398.84 150.502L324.353 150.492C321.295 150.496 311.055 151.454 308.723 150.392C305.263 148.817 306.163 144.855 309.158 143.539Z"/>
	<path fill="#404048" transform="scale(0.117188 0.117188)" d="M357.063 123.688L399.637 123.709C401.145 123.713 427.216 121.37 419.745 129.415C417.131 132.231 406.444 130.741 402.825 130.748L370.375 130.762L317.444 130.772C314.591 130.805 309.452 131.647 307.202 129.402C299.687 121.903 325.47 123.686 325.505 123.686L357.063 123.688Z"/>
	<path fill="#404048" transform="scale(0.117188 0.117188)" d="M330.69 290.753C353.962 289.882 370.304 312.732 358.591 332.895C353.256 342.08 346.457 345.151 336.565 347.734C330.187 346.006 327.034 347.456 319.722 343.196C296.46 329.641 302.72 297.864 330.69 290.753ZM321.183 335.986C320.71 334.905 320.064 333.878 319.521 332.828C310.251 314.932 331.565 296.23 348.233 306.424C350.216 307.637 351.755 309.523 354.07 310.139C350.01 304.155 345.178 299.475 337.845 298.112C314.757 293.817 303.631 324.698 321.183 335.986Z"/>
	<path fill="#F9D16A" transform="scale(0.117188 0.117188)" d="M321.183 335.986C320.71 334.905 320.064 333.878 319.521 332.828C310.251 314.932 331.565 296.23 348.233 306.424C350.216 307.637 351.755 309.523 354.07 310.139C355.509 317.769 356.334 324.2 351.737 330.998C345.584 340.097 327.776 344.411 321.183 335.986Z"/>
	<path fill="#404048" transform="scale(0.117188 0.117188)" d="M408.668 290.753C448.521 289.779 450.633 343.265 414.563 347.734C377.713 349.481 369.165 299.031 408.668 290.753ZM395.458 334.212C395.515 333.119 394.717 331.627 394.429 330.534C389.683 312.553 408.888 295.055 425.73 305.848C427.411 306.925 428.737 308.477 430.661 309.155C414.966 279.945 373.823 310.962 395.458 334.212Z"/>
	<path fill="#93CAE5" transform="scale(0.117188 0.117188)" d="M395.458 334.212C395.515 333.119 394.717 331.627 394.429 330.534C389.683 312.553 408.888 295.055 425.73 305.848C427.411 306.925 428.737 308.477 430.661 309.155C433.279 312.998 433.749 319.647 432.911 324.109C429.523 342.146 404.128 345.87 395.458 334.212Z"/>
	<path fill="#404048" transform="scale(0.117188 0.117188)" d="M253.938 290.347C260.303 289.277 267.93 291.903 273.088 295.524C294.774 310.749 286.754 343.504 259.728 347.734C218.498 348.624 217.513 294.937 253.938 290.347ZM243.08 335.986C242.803 334.729 241.765 333.605 241.212 332.437C232.361 313.716 255.308 291.64 274.641 307.884L275.13 307.88C269.158 297.396 255.849 294.124 245.471 300.078C232.009 307.803 230.777 326.934 243.08 335.986Z"/>
	<path fill="#F9D16A" transform="scale(0.117188 0.117188)" d="M243.08 335.986C242.803 334.729 241.765 333.605 241.212 332.437C232.361 313.716 255.308 291.64 274.641 307.884L275.13 307.88C284.756 317.452 274.956 341.517 256.376 341.126C252.169 341.038 245.682 339.637 243.08 335.986Z"/>
	<path fill="#E6A084" transform="scale(0.117188 0.117188)" d="M289.773 430.735C289.028 410.391 289.008 387.967 306.794 374.227C323.592 361.251 359.056 360.974 372.873 379.071L373.247 378.982C382.179 385.341 382.249 401.309 382.25 411.067L382.24 430.735C379.732 430.821 375.986 431.386 373.649 430.493C372.668 428.043 373.244 400.788 373.247 396.206C371.659 395.345 370.211 395.195 368.446 394.987L368.459 419.057C368.46 422.048 369.547 431.188 367.217 433.332C365.112 435.269 362.678 433.262 361.794 431.26L306.28 431.26C304.432 434.846 301.103 434.614 299.533 430.735C296.288 430.816 293.022 430.712 289.773 430.735Z"/>
	<path fill="#404048" transform="scale(0.117188 0.117188)" d="M299.533 430.735C299.801 421.68 299.53 412.532 299.519 403.467C299.515 400.174 297.743 388.909 302.877 388.741C307.998 388.573 306.301 400.131 306.299 403.077L306.28 424.524L361.794 424.524L361.8 402.971C361.798 400.133 361.569 397.21 361.691 394.386C361.94 388.618 367.656 388.163 368.446 394.987L368.459 419.057C368.46 422.048 369.547 431.188 367.217 433.332C365.112 435.269 362.678 433.262 361.794 431.26L306.28 431.26C304.432 434.846 301.103 434.614 299.533 430.735Z"/>
	<path fill="#404048" transform="scale(0.117188 0.117188)" d="M162.461 84.119L162.461 94.9509C162.46 97.1198 163.142 101.425 161.414 103.14C160.251 104.293 157.016 103.865 156.132 102.491C154.722 100.297 155.405 84.761 156.376 81.8839C160.142 70.7239 178.548 73.8358 188.4 73.8419L438.782 73.8356C451.405 73.8126 467.549 71.1064 468.283 89.4271C468.621 97.8791 468.329 106.461 468.323 114.925L468.319 214.282C468.326 224.197 472.119 245.222 461.24 249.384C458.043 250.606 430.931 249.969 425.267 249.97L354.07 249.976C341.216 259.705 299.28 288.646 302.692 274.13C303.272 271.66 306.176 269.181 307.718 267.211C311.659 262.18 314.643 255.962 316.731 249.976C310.163 250.128 303.568 249.979 296.997 249.977L243.24 249.963C240.805 249.962 238.282 249.803 235.857 249.976C238.004 247.453 240.6 245.244 243.08 243.055C245.258 243.537 253.862 243.063 256.729 243.06L298.113 243.042C325.75 243.04 331.985 238.183 316.731 266.35C323.517 261.426 331.341 257.766 338.331 253.05C357.931 239.827 347.666 243.028 373.749 243.061L447.974 243.074C453.318 243.104 461.145 245.229 461.422 237.944C461.788 228.302 461.428 218.499 461.427 208.844L461.419 110.022C461.421 81.4186 466.528 80.7518 438.692 80.8137L177.962 80.7991C172.867 80.797 165.602 79.1366 162.461 84.119Z"/>
	<path fill="#6A9EC8" transform="scale(0.117188 0.117188)" d="M438.692 80.8137C466.528 80.7518 461.421 81.4186 461.419 110.022L461.427 208.844C461.428 218.499 461.788 228.302 461.422 237.944C461.145 245.229 453.318 243.104 447.974 243.074L373.749 243.061C347.666 243.028 357.931 239.827 338.331 253.05C331.341 257.766 323.517 261.426 316.731 266.35C331.985 238.183 325.75 243.04 298.113 243.042L256.729 243.06C253.862 243.063 245.258 243.537 243.08 243.055C246.112 240.016 254.501 231.636 257.796 229.775C272.118 229.37 286.694 229.77 301.04 229.771L421.098 229.771C426.961 229.782 439.318 232.592 440.011 224.687C440.475 219.383 440.103 213.754 440.092 208.42L440.077 81.4873C439.641 80.9007 439.388 80.967 438.692 80.8137Z"/>
	<path fill="#404048" transform="scale(0.117188 0.117188)" d="M288.936 373.379C292.59 368.508 272.942 361.106 269.532 360.103C243.087 352.329 215.159 368.48 207.681 394.708C205.442 402.559 207.085 429.928 203.747 431.957C197.648 435.664 198.767 423.574 198.771 421.516C198.801 408.351 198.495 395.99 204.388 383.755C217.449 356.638 252.006 343.222 279.51 356.678C284.766 359.249 290.76 362.746 294.538 367.32C311.801 350.573 343.411 348.078 363.854 360.541C366.942 362.424 369.847 365.059 373.247 366.317L373.539 366.149C377.912 363.589 380.852 360.01 386 357.308C396.986 351.542 418.406 351.398 429.558 354.146C441.743 357.149 453.504 366.148 459.893 376.918C469.337 392.836 468.275 412.6 467.744 430.735C464.729 434.073 461.462 432.293 460.792 428.126C458.27 428.025 456.354 427.706 454.018 426.738C453.287 416.924 457.312 401.913 448.694 394.987C448.622 399.413 448.913 403.861 448.694 408.281L448.736 421.665C448.745 426.533 449.172 436.227 441.872 431.26L389.219 431.26C387.158 434.995 383.517 435.475 382.24 430.735L382.25 411.067C382.249 401.309 382.179 385.341 373.247 378.982C369.74 371.166 360.378 365.514 352.677 362.578C328.893 353.511 297.617 363.352 288.284 388.579C284.543 398.691 285.429 410.334 285.514 420.967C285.543 424.603 286.109 440.882 278.725 431.26L233.168 431.266C231.592 431.259 229.839 431.089 228.279 431.29C224.976 431.716 222.459 435.534 220.27 430.735C217.43 431.063 214.153 430.712 211.257 430.735C211.232 415.919 209.651 402.231 216.71 388.603C227.506 367.761 251.953 359.545 273.61 367.683C277.73 369.231 281.603 371.357 285.503 373.379C286.757 373.06 287.677 373.028 288.936 373.379ZM378.391 373.379C379.288 374.951 380.306 376.368 381.401 377.808C386.406 372.562 393.06 368.094 400.044 366.093C411.929 362.687 434.41 363.823 445.117 371.838C446.873 373.153 448.262 375.31 450.509 375.68C440.019 361.825 427.78 358.933 411.81 358.924C401.597 358.919 382.312 362.093 378.391 373.379Z"/>
	<path fill="#FEFEFE" transform="scale(0.117188 0.117188)" d="M226.783 391.314C228.565 391.557 230.236 391.918 231.969 392.398L231.969 424.524C230.247 424.684 228.509 424.575 226.783 424.524L226.774 401.959C226.765 398.498 226.338 394.725 226.783 391.314Z"/>
	<path fill="#F9D16A" transform="scale(0.117188 0.117188)" d="M211.257 430.735C211.232 415.919 209.651 402.231 216.71 388.603C227.506 367.761 251.953 359.545 273.61 367.683C277.73 369.231 281.603 371.357 285.503 373.379C286.757 373.06 287.677 373.028 288.936 373.379C276.989 391.888 278.705 403.878 278.725 424.524C263.146 424.524 247.546 424.342 231.969 424.524L231.969 392.398C230.236 391.918 228.565 391.557 226.783 391.314C225.589 388.225 221.922 386.843 220.623 390.806C219.811 393.283 220.235 425.049 220.27 430.735C217.43 431.063 214.153 430.712 211.257 430.735Z"/>
	<path fill="#93CAE5" transform="scale(0.117188 0.117188)" d="M381.401 377.808C386.406 372.562 393.06 368.094 400.044 366.093C411.929 362.687 434.41 363.823 445.117 371.838C446.873 373.153 448.262 375.31 450.509 375.68C462.957 387.383 460.845 412.839 460.792 428.126C458.27 428.025 456.354 427.706 454.018 426.738C453.287 416.924 457.312 401.913 448.694 394.987C448.622 399.413 448.913 403.861 448.694 408.281C448.295 404.824 449.71 395.682 447.826 393.275C445.314 390.067 442.295 393.216 441.949 396.098C441.536 399.537 441.852 403.305 441.879 406.779L441.872 424.524L388.781 424.524L388.794 409.233C388.792 397.734 388.125 387.631 381.401 377.808Z"/>
	<path fill="#404048" transform="scale(0.117188 0.117188)" d="M138.015 107.337C148.131 106.409 158.961 110.92 165.143 119.005C171.71 127.593 171.446 136.448 171.434 146.713C171.417 161.383 170.868 168.315 158.044 178.183C158.257 179.755 158.686 181.283 159.073 182.82C174.574 182.534 178.686 185.781 192.566 192.194L217.402 203.496C220.225 200.492 223.268 197.689 226.146 194.737L251.243 168.865C256.259 163.737 260.105 163.222 266.989 163.166C269.897 158.702 277.287 142.282 279.975 140.084C282.405 138.099 286.13 140.296 285.276 143.434C283.424 150.243 276.693 158.085 274.079 165.659L273.946 166.052C285.99 178.211 282.323 187.342 270.358 197.515C271.874 199.754 272.751 201.179 270.704 203.274C265.661 208.439 260.21 213.262 255.072 218.342L243.024 230.148C239.53 233.586 236.245 237.785 231.715 239.871C215.966 247.12 199.916 234.92 184.767 229.265L184.767 422.813C184.936 425.3 185.861 431.204 183.422 432.826C181.792 433.91 152.894 433.604 148.983 433.478C144.63 430.721 145.553 418.297 145.172 413.173C144.216 400.317 143.064 375.885 140.601 363.801C140.072 369.174 139.819 374.599 139.368 379.984L136.542 411.906C134.315 438.17 139.659 433.367 113.094 433.469C94.072 433.542 97.0997 434.189 97.0994 415.616L97.106 317.587C92.9 315.62 90.6304 312.521 87.5955 309.155C85.551 311.389 81.6224 317.075 78.1878 313.973C74.2886 310.45 80.6836 306.377 82.9643 304.159L59.1306 276.549C49.3836 265.195 36.6267 252.195 47.9419 235.752C51.2487 230.947 56.0525 226.662 60.1549 222.515L75.6797 206.68C90.6313 191.42 97.8955 179.804 122.665 182.82C122.852 181.256 123.133 179.727 123.437 178.183C109.47 171.657 108.475 157.956 108.52 144.709C108.589 124.165 115.552 109.969 138.015 107.337ZM247.083 192.049C241.525 197.902 235.702 203.421 230.043 209.163C218.794 220.578 222.688 219.56 206.367 211.774C201.483 209.444 166.397 190.824 161.804 195.366C157.07 200.049 149.55 221.855 145.05 223.905C143.036 223.916 141.72 221.715 140.601 220.314C136.737 218.415 126.496 198.11 125.67 194.192C112.774 194.211 105.838 194.851 96.7324 203.987C89.6422 211.1 60.9476 238.624 56.8145 245.406C53.2531 251.25 56.033 257.191 56.1662 262.519C58.5243 265.842 61.6716 268.812 64.3414 271.91L74.3942 283.789C78.3733 288.403 82.4627 292.932 86.2778 297.683C90.7761 293.019 97.5809 287.466 101.276 282.514C93.2089 273.892 82.8421 261.828 75.3482 252.361C72.3348 248.554 77.5816 245.194 80.1056 242.692L90.2523 232.773C93.9772 229.104 103.111 216.691 103.747 229.265L103.737 260.712C103.734 265.175 103.273 270.601 103.747 274.913C104.7 277.053 106.394 278.467 108.058 280.054C112.466 288.606 124.878 292.861 121.117 306.627C119.275 313.37 114.409 316.368 108.528 319.041C108.154 326.441 108.531 334.03 108.534 341.45L108.512 410.61C108.495 414.026 107.975 417.907 108.528 421.249L128.823 421.249C129.611 413.466 136.284 318.576 138.254 316.905C146.33 310.054 145.471 340.784 145.76 343.755L152.627 421.249L178.028 421.249L178.02 251.061C178.017 243.216 177.867 235.337 178.071 227.496C178.349 216.813 182.466 220.636 189.826 223.896L206.535 231.165C225.069 239.144 226.281 237.105 240.996 222.435L261.073 202.653C256.166 199.665 251.665 195.539 247.083 192.049ZM159.073 189.277L149.46 207.19C147.262 211.276 144.909 217.977 140.601 220.314C141.72 221.715 143.036 223.916 145.05 223.905C149.55 221.855 157.07 200.049 161.804 195.366C166.397 190.824 201.483 209.444 206.367 211.774C222.688 219.56 218.794 220.578 230.043 209.163C235.702 203.421 241.525 197.902 247.083 192.049C251.665 195.539 256.166 199.665 261.073 202.653C261.768 202.038 262.495 201.437 263.147 200.775C257.833 195.384 251.163 189.777 245.475 184.643C238.684 191.419 227.213 204.697 220.225 210.15C217.423 212.337 192.718 199.931 188.909 198.164C176.12 192.234 173.246 189.707 159.073 189.277ZM56.1662 262.519C56.033 257.191 53.2531 251.25 56.8145 245.406C60.9476 238.624 89.6422 211.1 96.7324 203.987C105.838 194.851 112.774 194.211 125.67 194.192C124.623 192.608 123.468 191.002 122.665 189.277C99.609 185.097 87.177 204.987 73.1405 219.286L61.8625 230.781C52.6409 240.104 44.348 249.426 56.1662 262.519ZM125.67 171.663C125.253 169.622 123.52 167.318 122.712 165.297C120.122 158.821 120.122 141.369 122.887 135.043C128.452 122.319 144.938 115.982 156.993 123.971C158.885 125.224 160.287 127.127 162.461 127.946C153.545 108.393 123.598 110.193 116.545 130.589C113.005 140.826 113.311 165.6 125.67 171.663ZM97.106 236.471C93.1245 239.562 86.2179 246.1 82.9643 249.976C85.4754 253.225 87.8954 256.396 91.0952 259.013C92.535 261.987 94.7064 264.128 97.106 266.35L97.1082 243.422C97.1086 241.804 97.4584 237.792 97.106 236.471ZM130.084 181.416C129.657 183.092 129.176 184.772 128.823 186.464C130.114 189.042 131.553 191.578 132.764 194.192C133.921 192.541 134.649 190.881 135.975 189.277C141.559 189.121 145.721 189.327 151.351 188.233C152.739 186.432 151.722 183.469 151.351 181.416C144.521 183.176 136.837 183.832 130.084 181.416ZM250.222 179.67C251.906 181.385 253.619 183.074 255.443 184.643C259.524 176.657 265.641 173.808 273.507 178.269L273.946 178.183C272.242 172.919 266.685 168.71 261.066 170.535C256.622 171.978 253.673 176.725 250.222 179.67ZM105.865 287.998C101.452 293.237 95.8402 297.624 91.0952 302.614C92.4402 304.422 93.853 306.153 95.2993 307.88C97.4011 304.769 107.143 294.882 110.163 292.799C108.782 291.149 107.327 289.575 105.865 287.998Z"/>
	<path fill="#6A9EC8" transform="scale(0.117188 0.117188)" d="M108.528 421.249L128.823 421.249C128.686 423.099 128.725 424.886 128.823 426.738L103.747 426.738C103.827 424.919 103.754 423.071 103.747 421.249L108.528 421.249Z"/>
	<path fill="#6A9EC8" transform="scale(0.117188 0.117188)" d="M178.028 421.249L178.028 426.738L152.627 426.738C152.686 424.936 152.857 423.037 152.627 421.249L178.028 421.249Z"/>
	<path fill="#F9D16A" transform="scale(0.117188 0.117188)" d="M135.975 189.277C141.559 189.121 145.721 189.327 151.351 188.233C148.183 195.198 144.574 202.376 140.601 208.924C138.216 203.909 135.3 199.136 132.764 194.192C133.921 192.541 134.649 190.881 135.975 189.277Z"/>
	<path fill="#F9D16A" transform="scale(0.117188 0.117188)" d="M255.443 184.643C259.524 176.657 265.641 173.808 273.507 178.269L273.946 178.183C275.54 185.168 268.88 189.078 265.454 194.192C262.721 190.562 258.996 187.461 255.443 184.643Z"/>
	<path fill="#F9D16A" transform="scale(0.117188 0.117188)" d="M110.163 292.799C122.995 306.028 106.436 319.741 95.2993 307.88C97.4011 304.769 107.143 294.882 110.163 292.799Z"/>
	<path fill="#FEFEFE" transform="scale(0.117188 0.117188)" d="M103.747 319.041C105.343 319.083 106.932 319.071 108.528 319.041C108.154 326.441 108.531 334.03 108.534 341.45L108.512 410.61C108.495 414.026 107.975 417.907 108.528 421.249L103.747 421.249C103.918 417.144 103.755 412.985 103.751 408.875L103.747 319.041Z"/>
	<path fill="#F9D16A" transform="scale(0.117188 0.117188)" d="M125.67 171.663C125.253 169.622 123.52 167.318 122.712 165.297C120.122 158.821 120.122 141.369 122.887 135.043C128.452 122.319 144.938 115.982 156.993 123.971C158.885 125.224 160.287 127.127 162.461 127.946C165.535 134.517 165.067 149.202 164.388 156.012C162.537 174.554 140.002 182.035 125.67 171.663Z"/>
	<path fill="#93CAE5" transform="scale(0.117188 0.117188)" d="M247.083 192.049C251.665 195.539 256.166 199.665 261.073 202.653L240.996 222.435C226.281 237.105 225.069 239.144 206.535 231.165L189.826 223.896C182.466 220.636 178.349 216.813 178.071 227.496C177.867 235.337 178.017 243.216 178.02 251.061L178.028 421.249L152.627 421.249L145.76 343.755C145.471 340.784 146.33 310.054 138.254 316.905C136.284 318.576 129.611 413.466 128.823 421.249L108.528 421.249C107.975 417.907 108.495 414.026 108.512 410.61L108.534 341.45C108.531 334.03 108.154 326.441 108.528 319.041C114.409 316.368 119.275 313.37 121.117 306.627C124.878 292.861 112.466 288.606 108.058 280.054C106.394 278.467 104.7 277.053 103.747 274.913C103.273 270.601 103.734 265.175 103.737 260.712L103.747 229.265C103.111 216.691 93.9772 229.104 90.2523 232.773L80.1056 242.692C77.5816 245.194 72.3348 248.554 75.3482 252.361C82.8421 261.828 93.2089 273.892 101.276 282.514C97.5809 287.466 90.7761 293.019 86.2778 297.683C82.4627 292.932 78.3733 288.403 74.3942 283.789L64.3414 271.91C61.6716 268.812 58.5243 265.842 56.1662 262.519C56.033 257.191 53.2531 251.25 56.8145 245.406C60.9476 238.624 89.6422 211.1 96.7324 203.987C105.838 194.851 112.774 194.211 125.67 194.192C126.496 198.11 136.737 218.415 140.601 220.314C141.72 221.715 143.036 223.916 145.05 223.905C149.55 221.855 157.07 200.049 161.804 195.366C166.397 190.824 201.483 209.444 206.367 211.774C222.688 219.56 218.794 220.578 230.043 209.163C235.702 203.421 241.525 197.902 247.083 192.049ZM103.747 229.265L103.737 260.712C103.734 265.175 103.273 270.601 103.747 274.913C104.7 277.053 106.394 278.467 108.058 280.054C108.416 274.444 108.055 268.6 108.055 262.967L108.058 229.775C106.613 229.642 105.179 229.507 103.747 229.265Z"/>
</svg>
