<svg width="584" height="404" viewBox="0 0 584 404" fill="none" xmlns="http://www.w3.org/2000/svg">
<path d="M553.371 396.826H580.522" stroke="#242043" stroke-miterlimit="10"/>
<path d="M29.5337 396.826H545.807" stroke="#242043" stroke-miterlimit="10"/>
<path d="M18.3403 396.826H25.0355" stroke="#242043" stroke-miterlimit="10"/>
<path d="M225.446 145.238H484.57L537.509 396.535H278.384L225.446 145.238Z" fill="#96C3D3"/>
<path d="M215.722 145.238H478.749L531.687 396.535H268.661L215.722 145.238Z" fill="#B0D2E4"/>
<path d="M510.042 106.165H151.193C144.296 106.165 138.026 112.186 137.187 119.614L107.481 382.858C106.643 390.285 111.555 396.307 118.451 396.307H477.3C484.197 396.307 490.467 390.286 491.306 382.858L521.012 119.614C521.851 112.186 516.939 106.165 510.042 106.165Z" fill="#96C3D3"/>
<path d="M509.303 119.612L504.692 160.439L479.599 382.856C478.754 390.29 472.49 396.307 465.596 396.307H98.4381C91.5448 396.307 86.6332 390.29 87.4692 382.856L90.8787 352.649L103.904 237.167L106.553 213.745L117.175 119.612C118.011 112.178 124.285 106.172 131.188 106.172H498.336C505.236 106.172 510.138 112.179 509.303 119.612Z" fill="#B0D2E4"/>
<path d="M495.407 130.325L491.285 166.836L469.285 361.786H108.648L111.682 334.855L134.77 130.325C135.411 124.584 140.258 119.925 145.589 119.925H486.91C492.251 119.925 496.06 124.585 495.407 130.325Z" fill="white"/>
<path d="M145.592 119.926H486.918C492.251 119.926 496.049 124.581 495.401 130.324L494.232 140.687H133.594L134.763 130.324C135.412 124.58 140.26 119.926 145.592 119.926Z" fill="#D8E9F0"/>
<path d="M154.27 130.306C154.01 132.605 152.069 134.469 149.933 134.469C147.797 134.469 146.277 132.604 146.537 130.306C146.796 128.006 148.738 126.142 150.873 126.142C153.009 126.143 154.53 128.007 154.27 130.306Z" fill="white"/>
<path d="M169.274 130.306C169.015 132.605 167.073 134.469 164.938 134.469C162.802 134.469 161.281 132.604 161.54 130.306C161.8 128.006 163.742 126.142 165.877 126.142C168.013 126.142 169.534 128.007 169.274 130.306Z" fill="white"/>
<path d="M184.28 130.306C184.021 132.605 182.079 134.469 179.943 134.469C177.808 134.469 176.287 132.604 176.547 130.306C176.806 128.006 178.748 126.142 180.884 126.142C183.018 126.143 184.539 128.007 184.28 130.306Z" fill="white"/>
<path d="M107.557 372.15L108.727 361.787L134.847 130.322C135.495 124.578 140.341 119.925 145.675 119.925H139.644C134.31 119.925 129.463 124.578 128.816 130.322L102.696 361.787L101.527 372.15C100.879 377.893 104.676 382.548 110.01 382.548H116.04C110.708 382.547 106.91 377.893 107.557 372.15Z" fill="#96C3D3"/>
<g opacity="0.7">
<path d="M223.085 272.732H395.736L397.303 259.927H224.651L223.085 272.732Z" fill="#DFE9EE"/>
<path d="M164.007 319.86H389.972L391.537 307.056H165.573L164.007 319.86Z" fill="#DFE9EE"/>
<path d="M220.203 296.296H392.854L394.42 283.491H221.769L220.203 296.296Z" fill="#DFE9EE"/>
<path d="M174.219 236.364L172.653 249.169H398.618L400.183 236.364H174.219Z" fill="#DFE9EE"/>
<path d="M161.125 343.423H387.09L388.656 330.617H162.691L161.125 343.423Z" fill="#DFE9EE"/>
<path d="M403.085 212.647H177.12L175.535 225.606H401.5L403.085 212.647Z" fill="#DFE9EE"/>
<path d="M376.644 276.531H462.325L478.275 150.957H392.594L376.644 276.531Z" fill="#DFE9EE"/>
</g>
<mask id="mask0_3994_2063" style="mask-type:luminance" maskUnits="userSpaceOnUse" x="87" y="106" width="423" height="291">
<path d="M509.306 119.617L479.597 382.854C478.754 390.288 472.488 396.303 465.595 396.303H98.437C91.5445 396.303 86.6285 390.288 87.4715 382.854L90.8749 352.653L103.904 237.165L106.551 213.746L117.171 119.617C118.013 112.184 124.28 106.169 131.183 106.169H498.33C505.233 106.169 510.138 112.184 509.306 119.617Z" fill="white"/>
</mask>
<g mask="url(#mask0_3994_2063)">
<path opacity="0.7" d="M463.8 317.141L459.893 301.155H460.183C460.183 301.155 460.231 262.786 461.044 241.675C461.211 237.298 461.546 232.793 461.857 228.236C462.646 216.29 463.34 203.804 460.566 191.188C451.948 152.345 426.456 144.934 420.062 144.836L420.066 144.829L416.58 132.992L415.215 133.659L413.274 127.471C414.725 124.135 415.998 120.989 417.136 117.994C422.228 113.404 423.254 107.766 421.904 103.271C429.755 72.8699 416.961 66.0756 405.172 65.6146C395.555 55.1488 374.446 52.2451 367.687 64.3228C360.142 61.5896 354.181 65.2183 351.487 70.3359C347.453 78.0018 350.902 86.0727 356.194 91.0379C353.423 92.3602 352.173 94.9904 354.903 95.461C354.77 95.924 354.615 96.3756 354.497 96.8462C350.845 111.455 351.114 126.084 355.225 137.2C358.533 146.147 366.223 152.304 374.718 149.993C376.629 149.473 379.423 148.542 382.557 147.43L385.857 152.506C380.584 154.955 378.055 161.215 379.615 166.866L332.564 194.496L331.885 194.871L279.933 141.505C281.978 139.378 283.105 137.607 283.105 137.607L270.764 128.967L268.332 130.411L265.525 127.431L270.662 111.603L270.759 100.366C270.786 97.2949 268.792 94.6341 266.001 94.0092L265.943 93.6272L265.942 93.6262L264.518 84.216L255.737 73.3415C254.626 71.9659 252.66 71.9087 251.482 73.2167C250.501 74.3046 250.393 75.9956 251.222 77.2188L257.391 86.3108L257.496 90.3196L257.537 91.8819L255.785 91.5742C255.082 90.1805 253.58 89.4936 252.161 89.9147L250.04 90.5454C249.256 90.7788 248.621 91.3218 248.212 92.022L247.376 88.964L244.89 89.8328L246.827 95.7001L244.616 97.7779C244.28 98.0932 244.037 98.4838 243.888 98.9096L241.549 93.3509L240.438 93.8625L243.485 102.021L243.075 102.629C242.062 104.129 241.835 106.085 242.478 107.807L243.929 111.704L243.951 111.763C244.344 112.816 245.086 113.619 245.984 114.083C244.889 121.796 248.154 127.272 250.488 130.094L253.865 139L249.942 141.329L255.53 159.538C255.53 159.538 257.137 158.789 259.332 157.237C264.224 173.487 274.448 199.331 294.493 223.716L267.608 199.779C268.219 202.695 268.603 205.475 268.823 208.128L262.72 202.263L258.974 203.851L259.157 205.839L257.154 204.623L254.021 205.952L253.314 205.273C252.664 204.648 251.632 205.117 251.593 206.054L249.943 245.918L269.658 263.064C269.64 263.081 269.619 263.095 269.601 263.113C269.202 262.897 268.791 262.701 268.358 262.551L268.197 262.493L266.603 261.944C266.241 261.857 265.893 261.8 265.545 261.8C263.456 261.8 261.593 263.387 261.164 265.681C261.151 265.768 261.138 265.855 261.138 265.94C261.138 266.488 261.473 266.993 261.982 267.166C265.157 268.205 267.743 270.701 269.056 273.99L269.388 274.821H269.387L269.388 274.822L269.39 274.828L269.397 274.829L303.78 298.889L323.566 303.728L323.348 306.681L340.54 311.686C340.54 311.686 340.626 311.343 340.744 310.74C351.28 313.814 361.112 315.631 370.197 316.5L355.356 375.335L423.117 375.411C423.525 375.401 469.304 375.335 469.304 375.335C469.304 375.335 470.821 345.748 463.8 317.141ZM373.488 228.976C374.514 232.186 375.886 235.235 377.614 238.075C379.453 241.176 381.78 244.12 384.537 246.839L379.844 268.605L362.974 272.755L337.604 242.175C351.607 237.349 363.141 233.418 373.488 228.976ZM352.54 70.9761C354.659 66.9511 359.032 63.9512 364.667 64.8639C355.942 66.8158 350.996 73.231 351.122 79.7176C350.647 76.53 351.229 73.4682 352.54 70.9761ZM296.916 226.604C296.917 226.604 296.917 226.604 296.916 226.604L290.821 229.265L290.816 229.261L296.916 226.604Z" fill="#DFE9EE"/>
</g>
<path d="M315.227 65.7845C319.522 48.1723 309.745 30.1453 293.39 25.5201C277.034 20.8948 260.294 31.4229 255.999 49.0351C251.704 66.6473 261.48 84.6743 277.836 89.2995C294.191 93.9247 310.932 83.3967 315.227 65.7845Z" fill="#F2C7B4"/>
<path d="M299.703 51.7206C301.159 44.9263 305.131 38.796 310.55 34.9787C315.969 31.1615 322.775 29.6972 329.14 30.9824C335.633 32.2922 341.774 36.3277 348.348 35.6332C354.725 34.9606 360.361 29.3019 361.431 22.499" stroke="white" stroke-miterlimit="10" stroke-dasharray="4 2"/>
<path opacity="0.5" d="M310.337 106.167V213.744H106.55L117.17 119.616C118.012 112.182 124.279 106.167 131.182 106.167H310.337Z" fill="#DFE9EE"/>
<g opacity="0.7">
<path d="M71.3434 193.81C68.0605 193.81 65.3896 190.934 65.3896 187.398V56.4787C65.3896 52.9434 68.0605 50.0674 71.3434 50.0674H286.726C290.009 50.0674 292.68 52.9434 292.68 56.4787V187.398C292.68 190.934 290.009 193.81 286.726 193.81H71.3434Z" fill="white"/>
<path d="M286.726 50.5435C289.765 50.5435 292.237 53.2061 292.237 56.4785V187.399C292.237 190.671 289.765 193.334 286.726 193.334H71.3434C68.3037 193.334 65.8319 190.671 65.8319 187.399V56.4785C65.8319 53.2061 68.3046 50.5435 71.3434 50.5435H286.726ZM286.726 49.5908H71.3434C67.8109 49.5908 64.9473 52.6745 64.9473 56.4785V187.399C64.9473 191.203 67.8109 194.287 71.3434 194.287H286.726C290.258 194.287 293.122 191.203 293.122 187.399V56.4785C293.123 52.6745 290.258 49.5908 286.726 49.5908Z" fill="#638FFD"/>
</g>
<path d="M71.1267 49.5908H286.973C290.386 49.5908 293.153 52.5698 293.153 56.2451V66.8004H64.9473V56.2451C64.9473 52.5698 67.7136 49.5908 71.1267 49.5908Z" fill="#638FFD"/>
<path d="M77.9092 61.648C79.6794 61.648 81.1144 60.1027 81.1144 58.1966C81.1144 56.2904 79.6794 54.7451 77.9092 54.7451C76.1391 54.7451 74.7041 56.2904 74.7041 58.1966C74.7041 60.1027 76.1391 61.648 77.9092 61.648Z" fill="white"/>
<path d="M93.5529 58.1966C93.5529 60.1028 92.1179 61.648 90.3477 61.648C88.5775 61.648 87.1426 60.1028 87.1426 58.1966C87.1426 56.2903 88.5775 54.7451 90.3477 54.7451C92.1179 54.7451 93.5529 56.2903 93.5529 58.1966Z" fill="white"/>
<path d="M102.786 61.648C104.556 61.648 105.991 60.1027 105.991 58.1966C105.991 56.2904 104.556 54.7451 102.786 54.7451C101.016 54.7451 99.5811 56.2904 99.5811 58.1966C99.5811 60.1027 101.016 61.648 102.786 61.648Z" fill="white"/>
<path d="M284.965 126.141C285.362 116.827 268.475 108.427 247.248 107.379C226.02 106.331 208.49 113.032 208.094 122.346C207.697 131.66 224.584 140.06 245.812 141.107C267.039 142.155 284.569 135.455 284.965 126.141Z" stroke="#B0D2E4" stroke-miterlimit="10"/>
<path d="M262.191 125.016C263.164 102.158 256.941 83.281 248.292 82.854C239.643 82.427 231.843 100.611 230.87 123.47C229.896 146.329 236.119 165.206 244.768 165.633C253.417 166.06 261.218 147.875 262.191 125.016Z" stroke="#B0D2E4" stroke-miterlimit="10"/>
<path d="M272.441 154.85C278.837 148.567 272.411 129.77 258.09 112.868C243.768 95.9653 226.974 87.357 220.578 93.6408C214.183 99.9246 220.608 118.721 234.93 135.623C249.251 152.526 266.046 161.134 272.441 154.85Z" stroke="#B0D2E4" stroke-miterlimit="10"/>
<path d="M257.075 136.716C272.772 121.294 280.766 103.209 274.93 96.3216C269.095 89.4346 251.64 96.3537 235.944 111.776C220.247 127.198 212.253 145.283 218.089 152.17C223.924 159.057 241.379 152.138 257.075 136.716Z" stroke="#B0D2E4" stroke-miterlimit="10"/>
<path d="M260.846 152.352C262.959 149.702 266.668 149.399 269.128 151.676C271.588 153.952 271.87 157.946 269.755 160.595C267.641 163.244 263.933 163.547 261.473 161.27C259.013 158.994 258.732 155.001 260.846 152.352Z" fill="#343253"/>
<path d="M210.77 129.123C212.885 126.474 216.592 126.171 219.053 128.448C221.513 130.725 221.794 134.717 219.68 137.366C217.566 140.016 213.858 140.319 211.398 138.042C208.937 135.766 208.657 131.773 210.77 129.123Z" fill="#F1C56C"/>
<path d="M255.799 91.2794C257.913 88.6301 261.621 88.3271 264.082 90.604C266.542 92.8798 266.823 96.8733 264.709 99.5226C262.595 102.172 258.887 102.475 256.427 100.198C253.966 97.9222 253.685 93.9287 255.799 91.2794Z" fill="#638FFD"/>
<path d="M241.215 119.349C243.329 116.699 247.037 116.396 249.497 118.673C251.957 120.95 252.239 124.943 250.124 127.592C248.011 130.241 244.302 130.544 241.842 128.267C239.382 125.992 239.101 121.998 241.215 119.349Z" fill="#E57956"/>
<path d="M204.296 164.702H150.936C149.173 164.702 147.743 166.242 147.743 168.14V170.66C147.743 172.559 149.173 174.098 150.936 174.098H204.296C206.059 174.098 207.489 172.559 207.489 170.66V168.14C207.49 166.242 206.06 164.702 204.296 164.702Z" stroke="#A5C7D9" stroke-miterlimit="10"/>
<path d="M157.371 164.701V82.5078" stroke="#A5C7D9" stroke-miterlimit="10"/>
<path d="M144.933 95.0234H184.89" stroke="#A5C7D9" stroke-miterlimit="10"/>
<path d="M160.576 95.0227C160.576 96.929 159.141 98.4742 157.371 98.4742C155.601 98.4742 154.166 96.929 154.166 95.0227C154.166 93.1165 155.601 91.5713 157.371 91.5713C159.141 91.5713 160.576 93.1165 160.576 95.0227Z" fill="#A5C7D9"/>
<path d="M177.152 87.2715V104.404L165.036 143.699C163.257 149.467 167.246 155.418 172.89 155.418H195.007C200.651 155.418 204.639 149.467 202.861 143.699L190.746 104.404V87.2715H177.152Z" stroke="#A5C7D9" stroke-miterlimit="10"/>
<path d="M194.65 151.851H173.243C169.653 151.851 167.115 148.063 168.251 144.392L172.82 129.566H195.085L199.654 144.392C200.779 148.063 198.24 151.851 194.65 151.851Z" stroke="#A5C7D9" stroke-miterlimit="10"/>
<path d="M172.82 129.566C185.67 142.531 195.085 129.566 195.085 129.566" stroke="#A5C7D9" stroke-miterlimit="10"/>
<path d="M192.326 87.2712H175.573C174.366 87.2712 173.388 86.2176 173.388 84.9182V83.1939C173.388 81.8944 174.366 80.8408 175.573 80.8408H192.327C193.533 80.8408 194.512 81.8944 194.512 83.1939V84.9182C194.511 86.2176 193.532 87.2712 192.326 87.2712Z" stroke="#A5C7D9" stroke-miterlimit="10"/>
<path d="M192.48 89.5879H175.418V100.457H192.48V89.5879Z" fill="#A5C7D9"/>
<path d="M97.7065 96.1172H96.498V109.317H97.7065V96.1172Z" fill="#A5C7D9"/>
<path d="M101.826 96.1172H100.617V109.317H101.826V96.1172Z" fill="#A5C7D9"/>
<path d="M88.4708 124.387L87.6162 123.467L99.2053 110.987L110.709 123.376L109.854 124.296L99.2053 112.828L88.4708 124.387Z" fill="#A5C7D9"/>
<path d="M97.2609 80.0439H101.066C101.421 80.0439 101.721 80.1764 101.966 80.4402C102.211 80.7041 102.334 81.0271 102.334 81.4091V90.9689C102.334 91.3519 102.211 91.6748 101.966 91.9387C101.72 92.2036 101.421 92.335 101.066 92.335H97.2609C96.9061 92.335 96.6054 92.2036 96.3612 91.9387C96.1152 91.6748 95.9932 91.3519 95.9932 90.9689V81.4091C95.9932 81.0261 96.1152 80.7032 96.3612 80.4402C96.6054 80.1754 96.9061 80.0439 97.2609 80.0439ZM100.114 81.9283H98.2119C98.0005 81.9283 97.8952 82.0417 97.8952 82.2693V90.1087C97.8952 90.3364 98.0005 90.4497 98.2119 90.4497H100.114C100.325 90.4497 100.431 90.3364 100.431 90.1087V82.2693C100.432 82.0426 100.325 81.9283 100.114 81.9283Z" fill="#638FFD"/>
<path d="M76.8364 125.428H78.7385V130.631H81.5915V125.428H83.4935V137.719H81.5915V132.515H78.7385V137.719H76.8364V125.428Z" fill="#F1C56C"/>
<path d="M92.3708 125.428H96.4933V127.313H93.3226C93.1112 127.313 93.0059 127.426 93.0059 127.654V135.493C93.0059 135.721 93.1112 135.834 93.3226 135.834H96.81V137.719H92.3708C92.016 137.719 91.7152 137.587 91.471 137.323C91.2251 137.059 91.103 136.735 91.103 136.353V126.793C91.103 126.41 91.2251 126.087 91.471 125.824C91.7161 125.56 92.016 125.428 92.3708 125.428Z" fill="#F1C56C"/>
<path d="M85.3037 131.07H88.0674C88.3098 131.07 88.515 131.161 88.6822 131.341C88.8494 131.521 88.9334 131.742 88.9334 132.003V134.568C88.9334 134.749 88.8742 134.905 88.7556 135.035C88.6371 135.166 88.4831 135.244 88.2921 135.269C88.4823 135.293 88.6459 135.372 88.7813 135.506C88.9166 135.64 88.9848 135.794 88.9848 135.968V138.533C88.9848 138.794 88.9007 139.015 88.7335 139.195C88.5663 139.376 88.3611 139.466 88.1187 139.466H85.0869V138.178H87.4693C87.6135 138.178 87.6861 138.101 87.6861 137.946V136.145C87.6861 135.99 87.6144 135.912 87.4693 135.912H85.5204V134.624H87.4171C87.5613 134.624 87.6339 134.547 87.6339 134.39V132.59C87.6339 132.435 87.5622 132.356 87.4171 132.356H85.3037V131.07Z" fill="#F1C56C"/>
<path d="M104.402 125.429H108.207C108.563 125.429 108.863 125.561 109.108 125.825C109.353 126.089 109.476 126.412 109.476 126.794V136.354C109.476 136.737 109.353 137.06 109.108 137.323C108.863 137.588 108.563 137.72 108.207 137.72H104.402C104.048 137.72 103.747 137.588 103.502 137.323C103.257 137.06 103.134 136.736 103.134 136.354V126.794C103.134 126.411 103.256 126.088 103.502 125.825C103.747 125.561 104.048 125.429 104.402 125.429ZM107.256 127.314H105.354C105.143 127.314 105.038 127.427 105.038 127.655V135.494C105.038 135.722 105.143 135.835 105.354 135.835H107.256C107.468 135.835 107.573 135.722 107.573 135.494V127.655C107.573 127.428 107.467 127.314 107.256 127.314Z" fill="#E2871E"/>
<path d="M117.085 125.429H118.987V130.632H119.342L121.637 125.429H123.743L121.042 131.575L123.743 137.721H121.637L119.342 132.517H118.987V137.721H117.085V125.429Z" fill="#E2871E"/>
<path d="M111.386 125.646H113.985V126.578H111.386V125.646Z" fill="#E2871E"/>
<path d="M127.045 123.778H127.912V125.645H129.645V126.577H127.912V128.442H127.045V126.577H125.312V125.645H127.045V123.778Z" fill="#E2871E"/>
<path d="M100.428 163.357H101.295V165.224H103.028V166.156H101.295V168.022H100.428V166.156H98.6963V165.224H100.428V163.357Z" fill="#A5C7D9"/>
<path d="M144.077 153.344H79.0117C77.2131 153.344 75.749 151.767 75.749 149.831V148.542C75.749 146.604 77.2131 145.028 79.0117 145.028H144.077C145.876 145.028 147.34 146.604 147.34 148.542V149.831C147.341 151.767 145.876 153.344 144.077 153.344ZM79.0117 146.33C77.8793 146.33 76.9575 147.322 76.9575 148.542V149.831C76.9575 151.05 77.8784 152.043 79.0117 152.043H144.077C145.209 152.043 146.131 151.051 146.131 149.831V148.542C146.131 147.322 145.21 146.33 144.077 146.33H79.0117Z" fill="#A5C7D9"/>
<path d="M92.8523 169.929H79.0117C77.2131 169.929 75.749 168.352 75.749 166.416V165.127C75.749 163.19 77.2131 161.613 79.0117 161.613H92.8514C94.6508 161.613 96.1149 163.19 96.1149 165.127V166.416C96.1158 168.353 94.6517 169.929 92.8523 169.929ZM79.0117 162.915C77.8793 162.915 76.9575 163.906 76.9575 165.127V166.416C76.9575 167.635 77.8784 168.628 79.0117 168.628H92.8514C93.9837 168.628 94.9056 167.635 94.9056 166.416V165.127C94.9056 163.907 93.9837 162.915 92.8514 162.915H79.0117Z" fill="#A5C7D9"/>
<path d="M123.097 169.929H109.257C107.458 169.929 105.994 168.352 105.994 166.416V165.127C105.994 163.19 107.458 161.613 109.257 161.613H123.097C124.897 161.613 126.361 163.19 126.361 165.127V166.416C126.36 168.353 124.897 169.929 123.097 169.929ZM109.257 162.915C108.124 162.915 107.203 163.906 107.203 165.127V166.416C107.203 167.635 108.124 168.628 109.257 168.628H123.097C124.23 168.628 125.152 167.635 125.152 166.416V165.127C125.152 163.907 124.23 162.915 123.097 162.915H109.257Z" fill="#A5C7D9"/>
<path d="M266.252 153.886L239.022 124.986L224.376 125.059L243.18 174.653L266.252 153.886Z" fill="#C48368"/>
<path d="M246.561 128.964L258.902 137.604C258.902 137.604 244.748 159.859 225.739 141.329L246.561 128.964Z" fill="white"/>
<path d="M295.352 248.484C240.957 205.066 231.1 140.713 231.1 140.713L246.726 132.253L315.491 202.89L295.352 248.484Z" fill="#E2871E"/>
<path d="M246.561 128.964L225.739 141.328L231.326 159.537C231.326 159.537 251.432 150.182 246.561 128.964Z" fill="white"/>
<path d="M240.471 130.049L246.459 111.601L222.271 111.599C218.941 124.798 228.425 132.283 228.425 132.283L240.471 130.049Z" fill="#C48368"/>
<path d="M242.821 100.769L233.614 102.58L233.364 92.9711L233.189 86.3111L227.02 77.219C226.19 75.9949 226.299 74.3049 227.28 73.217C228.458 71.908 230.425 71.9661 231.535 73.3418L240.316 84.2162L242.258 97.0541L242.821 100.769Z" fill="#C48368"/>
<path d="M233.364 92.971L242.257 97.0541L241.741 93.6264L233.256 88.8984L233.364 92.971Z" fill="#B5644C"/>
<path d="M239.126 94.5486L231.583 91.5744C230.88 90.1807 229.378 89.4938 227.959 89.9149L225.838 90.5456C224.399 90.9733 223.433 92.4261 223.521 94.0304L223.563 94.8163L220.412 97.7771C219.494 98.6393 219.247 100.068 219.816 101.229L218.871 102.627C217.857 104.127 217.631 106.083 218.274 107.806L219.726 111.702C220.457 113.663 222.359 114.811 224.294 114.459L242.644 111.118L239.126 94.5486Z" fill="#C48368"/>
<mask id="mask1_3994_2063" style="mask-type:luminance" maskUnits="userSpaceOnUse" x="217" y="89" width="26" height="26">
<path d="M239.305 92.9301L231.583 91.5744C230.88 90.1807 229.378 89.4938 227.959 89.9149L225.838 90.5456C224.399 90.9733 223.433 92.4261 223.521 94.0304L223.563 94.8163L220.412 97.7771C219.494 98.6393 219.247 100.068 219.816 101.229L218.871 102.627C217.857 104.127 217.631 106.083 218.274 107.806L219.748 111.762C220.467 113.689 222.334 114.816 224.235 114.47L242.645 111.119L239.305 92.9301Z" fill="white"/>
</mask>
<g mask="url(#mask1_3994_2063)">
<path d="M217.197 93.4189L226.407 115.644L224.94 116.321L216.383 93.7933L217.197 93.4189Z" fill="#B5644C"/>
</g>
<mask id="mask2_3994_2063" style="mask-type:luminance" maskUnits="userSpaceOnUse" x="217" y="89" width="26" height="26">
<path d="M239.305 92.9301L231.583 91.5744C230.88 90.1807 229.378 89.4938 227.959 89.9149L225.838 90.5456C224.399 90.9733 223.433 92.4261 223.521 94.0304L223.563 94.8163L220.412 97.7771C219.494 98.6393 219.247 100.068 219.816 101.229L218.871 102.627C217.857 104.127 217.631 106.083 218.274 107.806L219.748 111.762C220.467 113.689 222.334 114.816 224.235 114.47L242.645 111.119L239.305 92.9301Z" fill="white"/>
</mask>
<g mask="url(#mask2_3994_2063)">
<path d="M222.84 89.0801L230.213 115.332L229.372 115.627L221.021 89.7164L222.84 89.0801Z" fill="#B5644C"/>
</g>
<mask id="mask3_3994_2063" style="mask-type:luminance" maskUnits="userSpaceOnUse" x="217" y="89" width="26" height="26">
<path d="M239.305 92.9301L231.583 91.5744C230.88 90.1807 229.378 89.4938 227.959 89.9149L225.838 90.5456C224.399 90.9733 223.433 92.4261 223.521 94.0304L223.563 94.8163L220.412 97.7771C219.494 98.6393 219.247 100.068 219.816 101.229L218.871 102.627C217.857 104.127 217.631 106.083 218.274 107.806L219.748 111.762C220.467 113.689 222.334 114.816 224.235 114.47L242.645 111.119L239.305 92.9301Z" fill="white"/>
</mask>
<g mask="url(#mask3_3994_2063)">
<path d="M233.415 110.261L231.63 94.3271L240.672 99.3457L233.415 110.261Z" fill="#C48368"/>
</g>
<path d="M246.459 111.602L246.557 100.365C246.583 97.2863 244.58 94.6188 241.78 94.0025L232.506 91.961C231.233 91.6809 230.072 92.8088 230.201 94.2016C230.451 96.9128 232.212 99.1858 234.644 99.9365L236.58 100.535C236.58 100.535 225.647 107.821 229.256 121.698L246.459 111.602Z" fill="#C48368"/>
<path d="M229.942 91.3955L230.163 93.7867C230.436 96.7484 232.36 99.2301 235.016 100.05L236.581 100.533C236.581 100.533 225.808 107.449 229.257 121.696C223.229 109.822 232.21 101.102 232.21 101.102C230.473 99.9579 229.479 97.8621 229.636 95.6758L229.942 91.3955Z" fill="#B5644C"/>
<path d="M445.363 375.336C445.363 375.336 399.584 375.403 399.176 375.413L331.415 375.336L350.124 301.156L435.782 300.461L439.859 317.143C446.88 345.749 445.363 375.336 445.363 375.336Z" fill="#343253"/>
<path d="M427.461 375.353C427.461 339.181 421.146 308.669 421.146 308.669" stroke="#504E6B" stroke-width="2" stroke-miterlimit="10"/>
<path d="M436.62 308.278L348.308 310.507" stroke="#504E6B" stroke-width="2" stroke-miterlimit="10"/>
<path d="M424.299 322.614L404.815 320.264L402.383 310.173" stroke="#504E6B" stroke-width="2" stroke-miterlimit="10"/>
<path d="M368.559 373.968L366.703 344.203L356.718 339.18" stroke="#504E6B" stroke-width="2" stroke-miterlimit="10"/>
<path d="M398.756 194.181C367.337 226.727 345.885 230.463 295.351 248.478L284.207 207.841L308.36 194.495L374.598 155.599C379.284 153.345 384.379 152.99 389.107 154.315C393.466 155.537 397.478 158.19 400.507 162.14C407.791 171.656 407.017 185.624 398.756 194.181Z" fill="#E2871E"/>
<path d="M398.756 194.181C367.337 226.727 345.885 230.463 295.351 248.478L284.207 207.841L308.36 194.495L374.598 155.599C379.284 153.345 384.379 152.99 389.107 154.315C393.466 155.537 397.478 158.19 400.507 162.14C407.791 171.656 407.017 185.624 398.756 194.181Z" fill="#E2871E"/>
<path d="M400.508 162.139C399.262 160.515 397.843 159.123 396.309 157.946C397.13 165.11 394.892 172.567 389.732 177.912C358.314 210.457 336.862 214.194 286.332 232.207L286.328 232.215C269.26 218.59 256.578 202.905 247.208 187.793C256.889 207.389 272.021 229.861 295.353 248.485L295.356 248.477C345.887 230.464 367.339 226.727 398.757 194.182C407.017 185.625 407.791 171.657 400.508 162.139Z" fill="#DE7700"/>
<path d="M400.508 162.139C397.479 158.189 393.467 155.535 389.108 154.314C384.379 152.989 379.285 153.344 374.599 155.598L348.372 170.998C346.251 176.891 343.247 184.96 341.57 193.912C341.379 194.838 341.212 195.817 341.069 196.77C340.614 200.065 340.304 203.412 340.327 206.81C340.327 207.763 340.351 208.767 340.471 209.771C340.519 211.238 340.686 212.732 340.902 214.173C341.691 219.528 343.436 224.884 346.52 229.956C346.549 230.005 346.581 230.053 346.61 230.103C365.702 222.211 380.563 213.028 398.757 194.182C407.017 185.624 407.791 171.657 400.508 162.139Z" fill="#DE7700"/>
<path d="M358.287 172.659L356.637 169.821C352.95 163.479 355.513 155.09 361.976 152.344L372.127 148.03L377.598 170.087L358.287 172.659Z" fill="white"/>
<path d="M349.098 133.202L353.101 139.351L372.663 169.436L399.769 161.572L373.841 78.9277L349.098 133.202Z" fill="#C48368"/>
<path d="M385.67 79.5637C389.093 54.8034 335.375 43.3916 341.902 79.0769L385.67 79.5637Z" fill="#242043"/>
<path d="M343.305 94.869C312.913 88.6244 327.785 51.9217 363.256 68.5397C398.728 85.1577 343.305 94.869 343.305 94.869Z" fill="#242043"/>
<path d="M333.981 91.9175C317.988 79.6407 328.987 58.1204 344.853 65.5863" stroke="#242043" stroke-miterlimit="10"/>
<path d="M381.345 138.687C381.345 138.687 358.409 147.845 350.514 149.991C342.019 152.301 334.329 146.145 331.02 137.199C326.909 126.082 326.64 111.454 330.293 96.8456C332.453 88.2184 337.198 80.9583 343.498 75.8587C346.32 73.5505 349.475 71.6947 352.853 70.3724L352.887 70.3553L354.806 69.6722L354.998 69.5922C355.962 69.2826 356.934 69.0359 357.922 68.8253C360.267 68.2985 362.678 68.0051 365.138 68.0013C367.488 67.988 369.762 68.3966 371.866 69.1654C380.71 72.3968 386.736 81.9976 385.554 92.6663L384.513 101.822L381.345 138.687Z" fill="#C48368"/>
<path d="M342.989 132.306L354.94 130.619C354.94 130.619 350.555 142.804 342.989 132.306Z" fill="white"/>
<path d="M378.997 102.042C363.396 91.0939 361.563 83.8672 365.137 68.0018C365.137 68.0018 423.962 47.2397 389.069 127.472L378.997 102.042Z" fill="#242043"/>
<path d="M372.521 113.624C385.836 71.701 418.386 113.917 380.521 124.258L372.521 113.624Z" fill="#C48368"/>
<path d="M388.069 105.685L383.505 116.314" stroke="#B5644C" stroke-width="2" stroke-miterlimit="10"/>
<path d="M437.653 228.236C437.342 232.792 437.007 237.298 436.84 241.675C436.027 262.786 435.979 301.154 435.979 301.154H349.86L361.527 247.081L361.551 246.952L361.67 246.385C358.682 243.527 356.291 240.515 354.426 237.374C351.341 232.302 349.597 226.948 348.807 221.592C348.592 220.149 348.425 218.657 348.378 217.19C348.258 216.185 348.234 215.181 348.234 214.229C348.21 210.831 348.521 207.483 348.976 204.188C349.119 203.235 349.286 202.257 349.478 201.33C351.821 188.818 356.77 178.004 358.252 172.495L394.473 145.359C392.417 143.274 426.176 145.282 436.361 191.186C439.134 203.803 438.442 216.289 437.653 228.236Z" fill="#E2871E"/>
<path d="M428.075 196.972C428.408 243.916 422.792 246.994 400.185 298.889L358.506 295.915L366.119 267.854L385.45 189.323C387.153 184.109 390.417 179.882 394.562 177.096C398.383 174.529 402.932 173.218 407.677 173.566C419.101 174.418 427.986 184.629 428.075 196.972Z" fill="#DE7700"/>
<path d="M361.552 246.953L377.597 248.585" stroke="#D67000" stroke-width="2" stroke-miterlimit="10"/>
<path d="M382.522 159.364L360.61 197.011L362.358 168.827L368.89 163.634L382.522 159.364Z" fill="white"/>
<path d="M371.155 89.3086L372.756 114.274L377.875 116.512L381.894 94.9026L371.155 89.3086Z" fill="#242043"/>
<path d="M355.395 110.013C355.589 113.398 356.908 116.064 358.341 115.969C359.775 115.874 360.78 113.053 360.586 109.668C360.392 106.284 359.073 103.617 357.64 103.712C356.207 103.807 355.202 106.628 355.395 110.013Z" fill="#212121"/>
<path d="M359.4 95.1C365.571 97.9617 367.311 94.5551 362.895 91.599C358.144 88.4191 351.723 91.5409 359.4 95.1Z" fill="#242043"/>
<path d="M332.91 111.115C333.104 114.5 334.423 117.166 335.856 117.071C337.289 116.976 338.294 114.155 338.1 110.77C337.907 107.385 336.588 104.719 335.155 104.814C333.721 104.909 332.716 107.73 332.91 111.115Z" fill="#212121"/>
<path d="M333.947 95.2811C340.558 93.9921 340.259 90.1177 335.061 90.2835C329.47 90.4607 325.722 96.8844 333.947 95.2811Z" fill="#242043"/>
<path d="M358.252 172.497C356.769 178.006 351.821 188.82 349.478 201.332C349.287 202.259 349.12 203.237 348.976 204.19C348.521 207.485 348.21 210.833 348.234 214.231C348.234 215.183 348.258 216.187 348.378 217.192C348.425 218.659 348.592 220.152 348.807 221.594C349.597 226.949 351.342 232.304 354.426 237.376C356.291 240.517 358.681 243.529 361.67 246.387L349.86 301.156" stroke="#D67000" stroke-width="2" stroke-miterlimit="10"/>
<path d="M347.098 101.548C344.708 108.009 341.541 112.01 338.644 115.557C334.128 121.086 338.823 129.62 345.507 128.067L347.298 127.65" fill="#C48368"/>
<path d="M347.098 101.548C344.708 108.009 341.541 112.01 338.644 115.557C334.128 121.086 338.823 129.62 345.507 128.067L347.298 127.65" stroke="#B5644C" stroke-width="2" stroke-miterlimit="10"/>
<path d="M368.891 163.634L374.74 161.802L379.254 164.151L370.609 175.07L370.408 180.178L360.61 197.011L361.702 179.406L365.158 174.116L365.638 166.219L368.891 163.634Z" fill="#242043"/>
<path d="M374.784 172.659L370.49 160.729C368.294 151.985 372.305 142.815 379.963 139.066L392.376 132.991L395.862 144.829L374.784 172.659Z" fill="white"/>
<path d="M381.859 70.9561C351.012 93.6863 325.769 85.8279 348.234 69.3499C363.512 58.143 381.859 70.9561 381.859 70.9561Z" fill="#242043"/>
<path d="M424.202 173.994C436.483 219.039 429.646 241.251 421.127 297.834L382.511 289.694L382.682 260.461L381.263 179.232C381.572 173.715 383.634 168.686 386.91 164.783C389.931 161.186 393.971 158.58 398.623 157.513C409.828 154.955 420.973 162.151 424.202 173.994Z" fill="#E2871E"/>
<path d="M359.072 147.773L371.062 142.704" stroke="#B5644C" stroke-width="2" stroke-miterlimit="10"/>
<path d="M227.388 206.055L225.739 245.919L285.029 297.484L279.914 254.09L229.109 205.274C228.459 204.649 227.427 205.118 227.388 206.055Z" fill="#5484ED"/>
<path d="M288.062 249.872L238.516 202.265L234.77 203.854L234.953 205.84L232.949 204.624L229.019 206.291L227.369 246.176L283.398 294.908L292.896 290.881L288.062 249.872Z" fill="white"/>
<path d="M234.953 205.84C234.953 205.84 236.914 218.53 232.95 235.907V204.624L234.953 205.84Z" fill="#DFE9EE"/>
<path d="M238.652 202.395C238.652 202.395 240.921 228.247 235.505 242.871L227.368 246.175L297.816 298.606L291.079 252.772L238.652 202.395Z" fill="#DFE9EE"/>
<path d="M238.543 241.52L290.956 218.641L300.023 232.339L244.734 250.5L238.543 241.52Z" fill="#DFE9EE"/>
<path d="M231.642 247.134L297.385 221.973C298.629 221.498 300.016 221.88 300.895 222.939L348.292 280.069L284.071 297.511L231.642 247.134Z" fill="#5484ED"/>
<path d="M238.527 247.106L296.446 225.006C297.69 224.531 299.077 224.913 299.956 225.973L347.354 283.102L290.956 297.483L238.527 247.106Z" fill="#638FFD"/>
<path d="M258.347 254.96L295.518 241.771L308.037 255.875L270.767 268.285L258.347 254.96Z" fill="#789EFD"/>
<path d="M238.527 247.107L225.738 245.918L285.029 297.484H290.956L238.527 247.107Z" fill="#5484ED"/>
<path d="M236.632 242.316C236.632 242.316 248.97 226.357 243.404 199.778L273.263 226.364L236.632 242.316Z" fill="white"/>
<path d="M343.983 279.039L332.971 265.767L295.154 280.484L294.945 276.859C296.749 276.54 297.787 274.474 297.05 272.672L296.823 272.117C295.427 268.708 291.61 267.332 288.589 269.147C286.563 270.364 285.392 272.751 285.602 275.24C285.62 275.455 285.659 275.662 285.716 275.86L279.224 273.773L262.832 266.172C261.995 263.201 259.861 260.86 257.118 259.905L255.363 259.294C253.84 258.901 252.321 259.401 251.26 260.468C250.86 260.252 250.45 260.057 250.017 259.906L249.856 259.848L248.262 259.299C247.9 259.212 247.551 259.155 247.204 259.155C245.114 259.155 243.252 260.742 242.823 263.035C242.81 263.122 242.796 263.209 242.796 263.295C242.796 263.844 243.132 264.348 243.64 264.522C246.815 265.56 249.4 268.056 250.713 271.345L251.046 272.176H251.045L251.046 272.177L251.048 272.183L251.055 272.184L285.437 296.244L343.983 279.039Z" fill="#5484ED"/>
<path d="M301.024 281.156L314.517 274.821C314.517 274.821 323.974 299.8 299.142 306.682L301.024 281.156Z" fill="white"/>
<path d="M279.574 298.889L245.182 274.821L288.762 277.291L292.779 292.887L279.574 298.889Z" fill="#C48368"/>
<path d="M285.367 279.001L291.473 277.921C293.276 277.602 294.316 275.535 293.578 273.734L293.351 273.179C291.955 269.77 288.138 268.393 285.117 270.208C283.091 271.426 281.92 273.813 282.13 276.301C282.276 278.044 283.764 279.285 285.367 279.001Z" fill="#C48368"/>
<path d="M271.911 279.04L245.185 274.827L244.85 273.991C243.537 270.701 240.951 268.206 237.777 267.167C237.268 266.994 236.933 266.489 236.933 265.941C236.933 265.854 236.946 265.768 236.96 265.682C237.389 263.388 239.25 261.801 241.341 261.801C241.689 261.801 242.037 261.859 242.399 261.945L243.993 262.492L244.154 262.551C246.9 263.502 249.03 265.839 249.861 268.811L271.215 278.722L271.911 279.04Z" fill="#C48368"/>
<path d="M262.048 280.485L249.814 276.269C247.983 270.719 245.024 268.639 241.849 267.6C241.341 267.427 241.005 266.922 241.005 266.374C241.005 266.288 241.019 266.201 241.032 266.114C241.353 264.355 242.532 263.012 243.993 262.493L244.154 262.551C246.9 263.503 249.03 265.84 249.861 268.812L252.286 274.821L262.048 280.485Z" fill="#B06331"/>
<path d="M252.286 274.822L251.953 273.989C250.644 270.705 248.057 268.209 244.884 267.166C244.296 266.973 243.942 266.332 244.062 265.684C244.561 263.001 247.029 261.302 249.5 261.94L251.255 262.55C253.998 263.505 256.133 265.847 256.969 268.817L279.018 279.042L252.286 274.822Z" fill="#C48368"/>
<path d="M325.049 277.291L287.625 285.715L279.574 298.889L338.976 313.419L325.049 277.291Z" fill="#C48368"/>
<path d="M421.127 297.834C362.886 335.019 303.02 304.855 303.02 304.855L301.567 281.908L389.894 260.18L421.127 297.834Z" fill="#E2871E"/>
<path d="M426.549 183.336C437.653 228.237 421.127 297.834 421.127 297.834C421.127 297.834 378.342 333.369 303.021 304.855" stroke="#D67000" stroke-width="2" stroke-miterlimit="10"/>
<path d="M301.024 281.156L299.143 306.681L316.334 311.686C316.334 311.686 322.242 288.288 304.4 280.484L301.024 281.156Z" fill="white"/>
<path d="M358.749 266.824L382.674 261.954L381.632 207.461" stroke="#D67000" stroke-width="2" stroke-miterlimit="10"/>
<path d="M307.442 195.049L293.094 210.499" stroke="#D67000" stroke-width="2" stroke-miterlimit="10"/>
<path d="M457.316 382.548H115.99C110.657 382.548 106.859 377.893 107.507 372.15L108.676 361.787H469.314L468.144 372.15C467.497 377.894 462.649 382.548 457.316 382.548Z" fill="#242043"/>
<path d="M129.442 373.373L121.979 377.69C121.059 378.223 120.062 377.554 120.182 376.486L121.157 367.85C121.277 366.782 122.426 366.113 123.226 366.646L129.715 370.964C130.516 371.498 130.365 372.838 129.442 373.373Z" fill="#FFFFFD"/>
<path d="M144.707 372.17H441.097" stroke="#FFFFFD" stroke-width="2" stroke-miterlimit="10" stroke-linecap="round" stroke-linejoin="round"/>
<path d="M144.707 372.17H266.656" stroke="#D84F4C" stroke-width="2" stroke-miterlimit="10" stroke-linecap="round" stroke-linejoin="round"/>
<path d="M273.765 372.169C273.288 376.397 269.718 379.824 265.793 379.824C261.867 379.824 259.071 376.397 259.548 372.169C260.025 367.941 263.595 364.515 267.521 364.515C271.446 364.515 274.241 367.941 273.765 372.169Z" fill="#D84F4C"/>
<path d="M270.158 372.17C269.923 374.252 268.165 375.941 266.231 375.941C264.297 375.941 262.92 374.252 263.155 372.17C263.39 370.087 265.148 368.399 267.082 368.399C269.016 368.398 270.393 370.087 270.158 372.17Z" fill="#FFFFFD"/>
<path d="M203.354 258.955C202.749 260.896 200.798 261.942 198.995 261.291C197.192 260.639 196.22 258.537 196.825 256.596C197.43 254.654 199.382 253.608 201.185 254.26C202.987 254.912 203.958 257.013 203.354 258.955Z" stroke="#A5C7D9" stroke-miterlimit="10"/>
<path d="M198.57 278.598C197.965 280.54 196.014 281.586 194.211 280.934C192.408 280.283 191.437 278.181 192.042 276.24C192.647 274.298 194.598 273.252 196.401 273.904C198.203 274.554 199.175 276.657 198.57 278.598Z" stroke="#A5C7D9" stroke-miterlimit="10"/>
<path d="M175.769 286.733C177.471 285.82 179.539 286.567 180.386 288.4C181.233 290.233 180.539 292.459 178.837 293.372C177.135 294.285 175.068 293.538 174.22 291.705C173.374 289.871 174.067 287.645 175.769 286.733Z" stroke="#A5C7D9" stroke-miterlimit="10"/>
<path d="M203.955 298.455C203.108 296.622 203.801 294.396 205.503 293.483C207.206 292.57 209.273 293.317 210.12 295.15C210.968 296.983 210.274 299.209 208.572 300.122C206.869 301.036 204.803 300.289 203.955 298.455Z" stroke="#A5C7D9" stroke-miterlimit="10"/>
<path d="M180.385 288.401L192.223 279.07" stroke="#A5C7D9" stroke-miterlimit="10"/>
<path d="M205.504 293.484L196.834 280.725" stroke="#A5C7D9" stroke-miterlimit="10"/>
<path d="M196.4 273.903L198.994 261.292" stroke="#A5C7D9" stroke-miterlimit="10"/>
<path d="M459.667 2.51278C440.756 -3.3603 421.004 8.3868 415.55 28.7516C412.157 41.4199 415.099 54.4359 422.357 63.8805L409.59 77.9835L450.484 77.8987L450.427 77.7625C465.661 77.4748 479.59 66.6079 484.033 50.0204C489.488 29.6556 478.579 8.38585 459.667 2.51278Z" fill="white" stroke="#B0D2E4" stroke-miterlimit="10"/>
<path d="M430.599 25.3447H468.984" stroke="#B0D2E4" stroke-miterlimit="10"/>
<path d="M430.599 38.875H468.984" stroke="#B0D2E4" stroke-miterlimit="10"/>
<path d="M430.599 52.4062H468.984" stroke="#B0D2E4" stroke-miterlimit="10"/>
<path d="M158.223 313.641H153.902L145.281 403.372H256.093L158.223 313.641ZM167.981 344.285L217.978 389.042H161.518L167.981 344.285Z" fill="#EFAC5B"/>
<path d="M206.818 362.153L153.902 313.641L140.959 403.372H251.772L206.818 362.153ZM158.375 389.039L164.836 344.284L195.204 372.123L213.657 389.038L158.375 389.039Z" fill="#EDB542"/>
<path d="M251.772 403.373H158.829L175.509 389.04H213.657L195.205 372.124L206.818 362.154L251.772 403.373Z" fill="#F1C56C"/>
<path d="M147.3 391.843H146.524L144.858 403.372H145.634L147.3 391.843Z" fill="#FCF2DF"/>
<path d="M171.736 391.843H170.96L169.294 403.372H170.07L171.736 391.843Z" fill="#FCF2DF"/>
<path d="M196.173 391.843H195.397L193.731 403.372H194.507L196.173 391.843Z" fill="#FCF2DF"/>
<path d="M220.609 391.843H219.833L218.167 403.372H218.943L220.609 391.843Z" fill="#FCF2DF"/>
<path d="M149.745 403.371H150.522L151.509 396.534H150.733L149.745 403.371Z" fill="#FCF2DF"/>
<path d="M154.633 403.371H155.409L156.397 396.534H155.62L154.633 403.371Z" fill="#FCF2DF"/>
<path d="M159.52 403.371H160.296L161.284 396.534H160.508L159.52 403.371Z" fill="#FCF2DF"/>
<path d="M164.408 403.371H165.184L166.171 396.534H165.395L164.408 403.371Z" fill="#FCF2DF"/>
<path d="M174.182 403.371H174.958L175.946 396.534H175.17L174.182 403.371Z" fill="#FCF2DF"/>
<path d="M179.069 403.371H179.845L180.833 396.534H180.057L179.069 403.371Z" fill="#FCF2DF"/>
<path d="M183.956 403.371H184.733L185.72 396.534H184.944L183.956 403.371Z" fill="#FCF2DF"/>
<path d="M188.844 403.371H189.62L190.607 396.534H189.832L188.844 403.371Z" fill="#FCF2DF"/>
<path d="M198.618 403.371H199.394L200.382 396.534H199.606L198.618 403.371Z" fill="#FCF2DF"/>
<path d="M203.505 403.371H204.281L205.269 396.534H204.493L203.505 403.371Z" fill="#FCF2DF"/>
<path d="M208.392 403.371H209.168L210.156 396.534H209.38L208.392 403.371Z" fill="#FCF2DF"/>
<path d="M213.279 403.371H214.056L215.043 396.534H214.267L213.279 403.371Z" fill="#FCF2DF"/>
<path d="M223.054 403.371H223.831L224.818 396.534H224.042L223.054 403.371Z" fill="#FCF2DF"/>
<path d="M227.942 403.371H228.718L229.705 396.534H228.929L227.942 403.371Z" fill="#FCF2DF"/>
<path d="M232.829 403.371H233.604L234.593 396.534H233.817L232.829 403.371Z" fill="#FCF2DF"/>
<path d="M237.767 403.371H238.542L239.531 396.534H238.755L237.767 403.371Z" fill="#FCF2DF"/>
<path opacity="0.4" d="M178.35 245.577V344.243C178.35 348.885 174.85 352.654 170.54 352.654H90.8745L103.904 237.165H170.54C174.85 237.165 178.35 240.923 178.35 245.577Z" fill="#DFE9EE"/>
<g opacity="0.7">
<path d="M72.9426 337.757C69.6596 337.757 66.9888 334.88 66.9888 331.346V229.622C66.9888 226.087 69.6596 223.211 72.9426 223.211H156.384C159.667 223.211 162.338 226.088 162.338 229.622V331.345C162.338 334.88 159.667 337.756 156.384 337.756H72.9426V337.757Z" fill="white"/>
<path d="M156.384 223.687C159.423 223.687 161.896 226.35 161.896 229.622V331.346C161.896 334.618 159.423 337.281 156.384 337.281H72.9425C69.9037 337.281 67.4311 334.618 67.4311 331.346V229.622C67.4311 226.35 69.9037 223.687 72.9425 223.687H156.384ZM156.384 222.734H72.9425C69.4127 222.734 66.5464 225.821 66.5464 229.622V331.346C66.5464 335.147 69.4127 338.233 72.9425 338.233H156.384C159.914 338.233 162.78 335.147 162.78 331.346V229.622C162.78 225.821 159.914 222.734 156.384 222.734Z" fill="#F1C56C"/>
</g>
<path d="M142.211 300.905V281.574L126.665 271.908L111.118 281.574V300.905L126.665 310.57L142.211 300.905Z" stroke="#A5C7D9" stroke-miterlimit="10"/>
<path d="M110.981 300.905V281.574L95.4334 271.908L79.8872 281.574V300.905L95.4334 310.57L110.981 300.905Z" stroke="#A5C7D9" stroke-miterlimit="10"/>
<path d="M95.4331 271.908V254.774" stroke="#A5C7D9" stroke-miterlimit="10"/>
<path d="M79.8872 281.573L72.4463 273.562" stroke="#A5C7D9" stroke-miterlimit="10"/>
<path d="M126.665 271.908V265.199" stroke="#A5C7D9" stroke-miterlimit="10"/>
<path d="M142.211 300.904L148.932 308.142" stroke="#A5C7D9" stroke-miterlimit="10"/>
<path d="M124.762 251.122H128.567C128.922 251.122 129.221 251.254 129.467 251.518C129.712 251.782 129.835 252.105 129.835 252.488V262.048C129.835 262.431 129.712 262.754 129.467 263.018C129.221 263.283 128.922 263.414 128.567 263.414H124.762C124.407 263.414 124.106 263.283 123.862 263.018C123.616 262.754 123.494 262.431 123.494 262.048V252.488C123.494 252.105 123.616 251.782 123.862 251.518C124.107 251.254 124.407 251.122 124.762 251.122ZM127.616 253.007H125.714C125.502 253.007 125.397 253.122 125.397 253.348V261.188C125.397 261.415 125.502 261.529 125.714 261.529H127.616C127.827 261.529 127.933 261.415 127.933 261.188V253.348C127.933 253.122 127.827 253.007 127.616 253.007Z" fill="#EB7E6B"/>
<path d="M151.807 303.57H155.612C155.967 303.57 156.267 303.703 156.512 303.967C156.757 304.23 156.88 304.553 156.88 304.935V314.495C156.88 314.878 156.757 315.201 156.512 315.465C156.267 315.73 155.966 315.861 155.612 315.861H151.807C151.452 315.861 151.151 315.73 150.907 315.465C150.662 315.201 150.539 314.878 150.539 314.495V304.935C150.539 304.552 150.661 304.23 150.907 303.967C151.152 303.703 151.452 303.57 151.807 303.57ZM154.661 305.456H152.759C152.547 305.456 152.442 305.569 152.442 305.797V313.636C152.442 313.864 152.548 313.977 152.759 313.977H154.661C154.872 313.977 154.977 313.864 154.977 313.636V305.797C154.977 305.569 154.872 305.456 154.661 305.456Z" fill="#F1C56C"/>
<path d="M162.78 229.622V236.367H66.5464V229.622C66.5464 225.821 69.4127 222.734 72.9425 222.734H156.384C159.914 222.734 162.78 225.821 162.78 229.622Z" fill="#F1C56C"/>
<g opacity="0.5">
<path d="M521.02 118.681L516.728 156.678H454.741C446.517 156.678 440.153 148.923 441.158 140.141L444.769 108.723C444.865 107.848 445.039 106.991 445.276 106.173H510.811C517.235 106.172 521.798 111.763 521.02 118.681Z" fill="#DFE9EE"/>
</g>
<g opacity="0.8">
<path d="M557.887 104.729L554.664 132.793C553.906 139.387 548.704 144.34 542.533 144.34H439.685C432.339 144.34 426.653 137.412 427.554 129.562L430.777 101.498C431.534 94.904 436.737 89.9512 442.907 89.9512H545.756C553.101 89.9512 558.788 96.8788 557.887 104.729Z" fill="white" stroke="#B0D2E4" stroke-miterlimit="10"/>
</g>
<path d="M445.301 100.865C461.763 100.9 457.822 133.248 474.284 133.283C490.747 133.318 494.689 100.97 511.153 101.005C527.618 101.041 523.676 133.388 540.14 133.423" stroke="#638FFD" stroke-miterlimit="10"/>
<path d="M544.081 101.077C527.619 101.041 523.678 133.389 507.216 133.354C490.753 133.319 494.694 100.972 478.229 100.937C461.765 100.901 457.823 133.248 441.36 133.214" stroke="#638FFD" stroke-miterlimit="10"/>
<path d="M463.738 111.109L462.282 123.053" stroke="#638FFD" stroke-miterlimit="10"/>
<path d="M468.909 104.854L465.927 129.326" stroke="#638FFD" stroke-miterlimit="10"/>
<path d="M473.693 101.781L469.96 132.417" stroke="#638FFD" stroke-miterlimit="10"/>
<path d="M478.205 100.936L474.264 133.283" stroke="#638FFD" stroke-miterlimit="10"/>
<path d="M482.509 101.801L478.776 132.437" stroke="#638FFD" stroke-miterlimit="10"/>
<path d="M486.541 104.893L483.56 129.365" stroke="#638FFD" stroke-miterlimit="10"/>
<path d="M490.186 111.166L488.731 123.109" stroke="#638FFD" stroke-miterlimit="10"/>
<path d="M496.871 111.182L495.416 123.124" stroke="#638FFD" stroke-miterlimit="10"/>
<path d="M502.043 104.927L499.061 129.399" stroke="#638FFD" stroke-miterlimit="10"/>
<path d="M506.826 101.854L503.092 132.49" stroke="#638FFD" stroke-miterlimit="10"/>
<path d="M511.339 101.008L507.396 133.355" stroke="#638FFD" stroke-miterlimit="10"/>
<path d="M515.642 101.873L511.909 132.509" stroke="#638FFD" stroke-miterlimit="10"/>
<path d="M519.675 104.965L516.692 129.437" stroke="#638FFD" stroke-miterlimit="10"/>
<path d="M523.32 111.238L521.864 123.182" stroke="#638FFD" stroke-miterlimit="10"/>
<path d="M530.004 111.25L528.549 123.193" stroke="#638FFD" stroke-miterlimit="10"/>
<path d="M535.175 104.995L532.194 129.468" stroke="#638FFD" stroke-miterlimit="10"/>
<path d="M539.959 101.923L536.226 132.559" stroke="#638FFD" stroke-miterlimit="10"/>
<path d="M449.605 101.731L445.872 132.367" stroke="#638FFD" stroke-miterlimit="10"/>
<path d="M453.638 104.822L450.656 129.295" stroke="#638FFD" stroke-miterlimit="10"/>
<path d="M457.282 111.097L455.827 123.04" stroke="#638FFD" stroke-miterlimit="10"/>
<path d="M562.61 103.902C568.552 97.8884 569.37 88.431 564.436 82.7787C559.503 77.1263 550.686 77.4194 544.744 83.4332C538.803 89.4471 537.985 98.9044 542.919 104.557C547.852 110.209 556.668 109.916 562.61 103.902Z" fill="#EB7E6B"/>
<path d="M46.0617 134.15L39.785 139.596L30.4624 133.039L36.7382 127.593L46.0617 134.15Z" stroke="#DF5C13" stroke-miterlimit="10"/>
<path d="M530.024 215.573C527.239 218.574 527.331 224.085 530.218 226.975C531.647 228.404 533.529 229.16 535.326 229.98C537.123 230.8 538.958 231.784 540.095 233.493C541.231 235.201 541.402 237.827 539.972 239.258" stroke="#DF5C13" stroke-miterlimit="10"/>
<path d="M179.702 17.1377L187.697 23.8901L178.35 29.0849L179.702 17.1377Z" stroke="#656AC7" stroke-miterlimit="10"/>
<path d="M1 279.258C3.43018 274.954 8.92306 273.746 13.4817 274.877C18.0404 276.008 21.9984 278.937 26.1086 281.342C30.2187 283.747 34.9181 285.707 39.4927 284.654C44.0673 283.601 48.0315 278.402 46.5258 273.633" stroke="#656AC7" stroke-miterlimit="10"/>
<path d="M6.02588 293.368C8.45605 289.064 13.9489 287.856 18.5076 288.986C23.0663 290.117 27.0243 293.047 31.1345 295.452C35.2446 297.857 39.9439 299.817 44.5186 298.764C49.0932 297.712 53.0573 292.512 51.5516 287.743" stroke="#656AC7" stroke-miterlimit="10"/>
<path d="M30.8371 196.704L23.9305 204.73L19.8911 194.271L30.8371 196.704Z" stroke="#638FFD" stroke-miterlimit="10"/>
<path d="M524.936 43.6262C528.665 43.6262 531.688 40.371 531.688 36.3556C531.688 32.3401 528.665 29.085 524.936 29.085C521.207 29.085 518.184 32.3401 518.184 36.3556C518.184 40.371 521.207 43.6262 524.936 43.6262Z" stroke="#DF5C13" stroke-miterlimit="10"/>
<path d="M58.218 372.167C61.7212 372.167 64.5611 369.109 64.5611 365.336C64.5611 361.564 61.7212 358.506 58.218 358.506C54.7149 358.506 51.875 361.564 51.875 365.336C51.875 369.109 54.7149 372.167 58.218 372.167Z" stroke="#656AC7" stroke-miterlimit="10"/>
<path d="M539.094 293.4C541.635 293.4 543.694 291.182 543.694 288.446C543.694 285.71 541.635 283.492 539.094 283.492C536.553 283.492 534.494 285.71 534.494 288.446C534.494 291.182 536.553 293.4 539.094 293.4Z" stroke="#EAA589" stroke-miterlimit="10"/>
<path d="M583 167.95C583 171.345 580.443 174.099 577.29 174.099C574.136 174.099 571.581 171.345 571.581 167.95C571.581 164.554 574.137 161.802 577.29 161.802C580.443 161.802 583 164.554 583 167.95Z" stroke="#638FFD" stroke-miterlimit="10"/>
</svg>
