<svg xmlns="http://www.w3.org/2000/svg" enable-background="new 0 0 512 512" viewBox="0 0 512 512" id="ArtificialIntelligence">
  <path d="M248.687,229.827c-10.586,0-19.198,8.613-19.198,19.198v26.212c0,3.82,3.097,6.919,6.919,6.919s6.919-3.099,6.919-6.919
	v-10.185h10.718v10.185c0,3.82,3.097,6.919,6.919,6.919c3.822,0,6.919-3.099,6.919-6.919v-26.212
	C267.883,238.439,259.273,229.827,248.687,229.827z M243.327,251.214v-2.189c0-2.955,2.405-5.36,5.36-5.36s5.358,2.405,5.358,5.36
	v2.189H243.327z M275.597,229.827c3.822,0,6.919,3.099,6.919,6.919v38.491c0,3.82-3.097,6.919-6.919,6.919
	c-3.822,0-6.919-3.099-6.919-6.919v-38.491C268.678,232.926,271.775,229.827,275.597,229.827z M430.408,218.552
	c0-13.604-5.297-26.392-14.917-36.009c-7.313-7.315-16.223-12.239-25.651-14.275c0.05-0.838,0.077-1.685,0.077-2.527
	c0-22.581-18.372-40.955-40.955-40.955c-0.077,0-0.153,0-0.23,0c-6.552-14.581-20.966-24.059-37.324-24.059
	c-22.581,0-40.953,18.374-40.953,40.955l-0.002,61.766h-7.534v-11.775c0-3.82-3.097-6.919-6.919-6.919
	c-3.822,0-6.919,3.099-6.919,6.919v11.775h-7.532v-11.775c0-3.82-3.097-6.919-6.919-6.919s-6.919,3.099-6.919,6.919v11.775h-17.336
	c-3.822,0-6.919,3.099-6.919,6.919v8.766h-11.775c-3.822,0-6.919,3.099-6.919,6.919s3.097,6.919,6.919,6.919h11.775v6.122h-11.775
	c-3.822,0-6.919,3.099-6.919,6.919s3.097,6.919,6.919,6.919h11.775v6.122h-11.775c-3.822,0-6.919,3.099-6.919,6.919
	s3.097,6.919,6.919,6.919h11.775v6.122h-11.775c-3.822,0-6.919,3.099-6.919,6.919s3.097,6.919,6.919,6.919h11.775v8.77
	c0,3.82,3.097,6.919,6.919,6.919h17.336l-0.002,61.766c0,14.95-12.164,27.113-27.115,27.113c-9.635,0-18.255-4.964-23.092-12.851
	c4.486-1.693,8.658-4.198,12.34-7.391c2.88,1.386,6.066,2.229,9.471,2.229c12.131,0,22-9.869,22-22s-9.869-22-22-22
	c-12.133,0-22.002,9.869-22.002,22c0,3.622,0.963,6.99,2.52,10.006c-4.777,3.793-10.644,5.949-16.791,5.949
	c-14.953,0-27.117-12.162-27.117-27.113c0-0.642,0.074-1.276,0.119-1.913c7.826-0.916,15.266-3.623,21.883-7.981
	c2.085,0.657,4.26,1.11,6.559,1.11c12.133,0,22.002-9.869,22.002-22s-9.869-22-22.002-22c-12.131,0-22,9.869-22,22
	c0,4.339,1.304,8.363,3.482,11.775c-4.892,2.342-10.23,3.613-15.764,3.633c-8.665-0.483-17.148-4.45-23.907-11.209
	c-14.459-14.464-14.459-37.995-0.002-52.455c2.011-2.009,4.293-3.788,6.782-5.279c2.083-1.248,3.36-3.5,3.36-5.932
	s-1.277-4.685-3.36-5.932c-2.482-1.486-4.764-3.266-6.779-5.279c-7.005-7.005-10.863-16.32-10.863-26.23
	c0-9.905,3.858-19.221,10.863-26.225c6.761-6.764,15.244-10.735,23.907-11.214c5.264,0.019,10.34,1.208,15.041,3.337
	c-1.702,3.122-2.758,6.645-2.758,10.444c0,12.131,9.869,22,22,22c12.133,0,22.002-9.869,22.002-22s-9.869-22-22.002-22
	c-2.919,0-5.695,0.599-8.246,1.635c-6.185-3.73-13.037-6.042-20.196-6.88c-0.044-0.636-0.119-1.269-0.119-1.909
	c0-14.95,12.164-27.117,27.117-27.117c5.882,0,11.497,1.994,16.161,5.481c-1.199,2.713-1.891,5.697-1.891,8.848
	c0,12.131,9.869,22,22.002,22c12.131,0,22-9.869,22-22s-9.869-22-22-22c-3.89,0-7.493,1.1-10.667,2.878
	c-3.385-2.72-7.131-4.901-11.142-6.414c4.838-7.887,13.455-12.851,23.09-12.851c14.95,0,27.115,12.167,27.115,27.117l0.002,29.081
	c0,3.82,3.099,6.919,6.919,6.919c3.822,0,6.919-3.099,6.919-6.919l-0.002-29.081c0-22.581-18.372-40.955-40.953-40.955
	c-16.358,0-30.773,9.477-37.324,24.059c-0.077,0-0.153,0-0.23,0c-22.583,0-40.955,18.374-40.955,40.955
	c0,0.842,0.027,1.689,0.077,2.527c-9.428,2.036-18.338,6.959-25.651,14.275c-9.619,9.617-14.917,22.405-14.917,36.009
	c0,13.608,5.297,26.396,14.919,36.018c0.484,0.482,0.98,0.959,1.486,1.423c-0.507,0.464-1.005,0.937-1.489,1.423
	c-19.856,19.856-19.856,52.171,0,72.027c7.311,7.315,16.221,12.234,25.653,14.27c-0.052,0.842-0.079,1.685-0.079,2.532
	c0,22.581,18.372,40.95,40.955,40.95c0.077,0,0.153,0,0.227,0c6.55,14.581,20.966,24.059,37.327,24.059
	c22.581,0,40.953-18.369,40.953-40.95l0.002-61.766h7.532v11.775c0,3.82,3.097,6.919,6.919,6.919s6.919-3.099,6.919-6.919v-11.775
	h7.534v11.775c0,3.82,3.097,6.919,6.919,6.919c3.822,0,6.919-3.099,6.919-6.919v-11.775h17.336c3.822,0,6.919-3.099,6.919-6.919
	v-8.77h11.777c3.822,0,6.919-3.099,6.919-6.919s-3.097-6.919-6.919-6.919h-11.777v-6.122h11.777c3.822,0,6.919-3.099,6.919-6.919
	s-3.097-6.919-6.919-6.919h-11.777v-6.122h11.777c3.822,0,6.919-3.099,6.919-6.919s-3.097-6.919-6.919-6.919h-11.777v-6.122h11.777
	c3.822,0,6.919-3.099,6.919-6.919s-3.097-6.919-6.919-6.919h-11.777v-8.766c0-3.82-3.097-6.919-6.919-6.919h-17.336l0.002-61.766
	c0-14.95,12.164-27.117,27.115-27.117c9.635,0,18.252,4.964,23.09,12.851c-3.974,1.499-7.686,3.654-11.046,6.337
	c-3.141-1.729-6.692-2.801-10.524-2.801c-12.131,0-22,9.869-22,22s9.869,22,22,22c12.133,0,22.002-9.869,22.002-22
	c0-3.203-0.723-6.226-1.959-8.974c4.632-3.407,10.18-5.355,15.991-5.355c14.953,0,27.117,12.167,27.117,27.117
	c0,0.64-0.074,1.273-0.119,1.909c-7.128,0.834-13.948,3.131-20.109,6.832c-2.511-0.999-5.23-1.588-8.094-1.588
	c-12.131,0-22,9.869-22,22s9.869,22,22,22c12.133,0,22.002-9.869,22.002-22c0-3.832-1.073-7.384-2.803-10.525
	c4.647-2.073,9.652-3.237,14.845-3.256c8.662,0.479,17.145,4.45,23.907,11.214c7.004,7.005,10.863,16.32,10.863,26.225
	c0,9.91-3.858,19.225-10.86,26.225c-2.018,2.018-4.3,3.797-6.782,5.284c-2.083,1.248-3.36,3.5-3.36,5.932
	c0,2.432,1.277,4.685,3.36,5.932c2.489,1.491,4.77,3.27,6.779,5.275c14.459,14.464,14.459,37.996,0,52.459
	c-6.759,6.759-15.242,10.727-23.907,11.209c-5.462-0.02-10.727-1.269-15.567-3.552c2.208-3.428,3.526-7.484,3.526-11.856
	c0-12.131-9.869-22-22.002-22c-12.131,0-22,9.869-22,22s9.869,22,22,22c2.24,0,4.36-0.435,6.398-1.06
	c6.595,4.329,14.009,7.02,21.806,7.931c0.044,0.637,0.119,1.271,0.119,1.913c0,14.95-12.164,27.113-27.117,27.113
	c-6.075,0-11.873-2.114-16.62-5.823c1.598-3.047,2.589-6.46,2.589-10.132c0-12.131-9.869-22-22.002-22c-12.131,0-22,9.869-22,22
	s9.869,22,22,22c3.346,0,6.485-0.809,9.327-2.151c3.659,3.154,7.796,5.634,12.245,7.313c-4.838,7.887-13.457,12.851-23.092,12.851
	c-14.95,0-27.115-12.162-27.115-27.113l-0.002-29.081c0-3.82-3.099-6.919-6.919-6.919c-3.822,0-6.919,3.099-6.919,6.919
	l0.002,29.081c0,22.581,18.372,40.95,40.953,40.95c16.36,0,30.777-9.477,37.327-24.059c0.074,0,0.151,0,0.227,0
	c22.583,0,40.955-18.369,40.955-40.95c0-0.847-0.027-1.689-0.079-2.532c9.432-2.036,18.342-6.955,25.653-14.27
	c19.856-19.856,19.856-52.171-0.002-72.032c-0.484-0.482-0.98-0.955-1.486-1.419c0.507-0.468,1.002-0.941,1.489-1.428
	C425.11,244.948,430.408,232.16,430.408,218.552z M199.313,349.241c4.5,0,8.162,3.662,8.162,8.162s-3.662,8.162-8.162,8.162
	c-4.502,0-8.164-3.662-8.164-8.162S194.811,349.241,199.313,349.241z M199.313,144.791c4.5,0,8.162,3.662,8.162,8.162
	s-3.662,8.162-8.162,8.162c-4.502,0-8.164-3.662-8.164-8.162S194.811,144.791,199.313,144.791z M172.649,194.894
	c0,4.5-3.662,8.162-8.164,8.162c-4.5,0-8.162-3.662-8.162-8.162s3.662-8.162,8.162-8.162
	C168.986,186.732,172.649,190.394,172.649,194.894z M164.484,307.3c4.502,0,8.164,3.662,8.164,8.162s-3.662,8.162-8.164,8.162
	c-4.5,0-8.162-3.662-8.162-8.162S159.984,307.3,164.484,307.3z M294.707,294.7h-77.412v-77.414h77.412V294.7z M312.928,161.115
	c-4.5,0-8.162-3.662-8.162-8.162s3.662-8.162,8.162-8.162c4.502,0,8.164,3.662,8.164,8.162S317.43,161.115,312.928,161.115z
	 M347.757,203.056c-4.5,0-8.162-3.662-8.162-8.162s3.662-8.162,8.162-8.162c4.502,0,8.164,3.662,8.164,8.162
	S352.259,203.056,347.757,203.056z M312.928,365.565c-4.5,0-8.162-3.662-8.162-8.162s3.662-8.162,8.162-8.162
	c4.502,0,8.164,3.662,8.164,8.162S317.43,365.565,312.928,365.565z M339.595,315.462c0-4.5,3.662-8.162,8.162-8.162
	c4.502,0,8.164,3.662,8.164,8.162s-3.662,8.162-8.164,8.162C343.257,323.624,339.595,319.962,339.595,315.462z M509.11,217.435
	c-0.534-3.545-3.718-6.108-7.254-5.874l-37.061,2.225c-5.435-27.117-15.95-52.486-31.327-75.577l27.775-24.622
	c2.678-2.374,3.104-6.396,0.98-9.279c-15.342-20.824-33.689-39.171-54.536-54.532c-2.878-2.131-6.905-1.712-9.282,0.977
	l-24.626,27.779c-23.234-15.432-49.59-26.261-76.899-31.59l2.984-36.739c0.295-3.631-2.277-6.865-5.878-7.401
	c-25.124-3.739-50.98-3.721-75.973,0c-3.601,0.536-6.171,3.775-5.876,7.401l2.984,36.739c-27.306,5.329-53.662,16.153-76.899,31.59
	l-24.626-27.779c-2.381-2.689-6.41-3.108-9.282-0.977c-20.847,15.36-39.194,33.707-54.536,54.532
	c-2.124,2.883-1.698,6.905,0.98,9.279l27.775,24.622c-15.376,23.09-25.892,48.459-31.327,75.577l-37.061-2.225
	c-3.527-0.225-6.721,2.338-7.255,5.874C0.973,230.128,0,243.101,0,255.993c0,12.905,0.973,25.883,2.892,38.563
	c0.534,3.541,3.716,6.14,7.255,5.869l37.05-2.225c5.437,27.122,15.955,52.491,31.333,75.581l-27.768,24.617
	c-2.678,2.374-3.104,6.401-0.98,9.279c15.363,20.847,33.709,39.194,54.536,54.541c2.874,2.117,6.903,1.694,9.282-0.982
	l24.622-27.784c23.088,15.378,48.462,25.896,75.577,31.333l-2.227,37.059c-0.216,3.572,2.331,6.721,5.872,7.257
	c12.689,1.919,25.664,2.892,38.561,2.892c12.863,0,25.838-0.973,38.559-2.892c3.541-0.536,6.09-3.685,5.874-7.257l-2.23-37.059
	c27.115-5.437,52.489-15.955,75.577-31.333l24.622,27.784c2.376,2.676,6.403,3.108,9.282,0.982
	c20.827-15.347,39.173-33.694,54.536-54.541c2.124-2.878,1.698-6.905-0.98-9.279l-27.768-24.617
	c15.378-23.086,25.896-48.459,31.336-75.581l37.047,2.225c3.547,0.284,6.721-2.329,7.254-5.869
	c1.917-12.671,2.89-25.649,2.89-38.563C512,243.092,511.027,230.119,509.11,217.435z M496.291,286.227l-36.754-2.207
	c-3.473-0.225-6.64,2.261-7.234,5.739c-5.025,29.41-16.342,56.712-33.64,81.149c-2.041,2.878-1.583,6.833,1.056,9.171l27.552,24.423
	c-12.435,15.991-26.779,30.338-42.759,42.761L380.083,419.7c-2.342-2.64-6.3-3.099-9.176-1.059
	c-24.439,17.302-51.739,28.617-81.14,33.635c-3.48,0.595-5.953,3.712-5.741,7.234l2.212,36.766
	c-20.063,2.5-40.493,2.486-60.473,0.004l2.209-36.77c0.212-3.523-2.261-6.64-5.741-7.234c-29.401-5.018-56.7-16.333-81.14-33.635
	c-2.876-2.041-6.836-1.581-9.176,1.059l-24.428,27.563c-15.98-12.423-30.324-26.77-42.759-42.761l27.552-24.423
	c2.64-2.338,3.097-6.293,1.056-9.171c-17.297-24.437-28.615-51.739-33.637-81.149c-0.595-3.477-3.761-5.95-7.234-5.739
	l-36.757,2.207c-1.245-9.991-1.874-20.135-1.874-30.234c0-10.09,0.628-20.234,1.874-30.234l36.768,2.207
	c3.505,0.234,6.642-2.261,7.234-5.739c5.02-29.405,16.336-56.707,33.628-81.144c2.041-2.878,1.583-6.833-1.056-9.171L64.73,107.48
	c12.421-15.977,26.766-30.32,42.759-42.757l24.43,27.559c2.347,2.64,6.3,3.095,9.176,1.059
	c24.486-17.333,53.032-29.045,82.547-33.865c3.559-0.581,6.072-3.797,5.782-7.387l-2.962-36.464c19.532-2.378,39.462-2.378,59.079,0
	l-2.962,36.459c-0.291,3.59,2.223,6.806,5.779,7.387c29.52,4.824,58.065,16.536,82.55,33.869c2.876,2.036,6.833,1.581,9.176-1.059
	l24.43-27.559c15.993,12.437,30.338,26.779,42.759,42.757l-27.556,24.432c-2.64,2.338-3.097,6.293-1.059,9.171
	c17.295,24.437,28.61,51.739,33.631,81.144c0.592,3.477,3.734,5.986,7.234,5.739l36.768-2.207
	c1.243,9.995,1.872,20.135,1.872,30.234C498.162,266.101,497.534,276.245,496.291,286.227z" fill="#018abe" class="color000000 svgShape"></path>
</svg>
