  <svg
    xmlns="http://www.w3.org/2000/svg"
    viewBox="0 0 64 64"
    id="Learning"
    width="64"
    height="64"
  >
    <path
      d="M56.9497,12.627a1.8724,1.8724,0,0,0-1.335-.55371H55.6123l-47.22657.05567A1.88757,1.88757,0,0,0,6.5,14.01465V43.11328a1.90326,1.90326,0,0,0,.02393.30078,1.877,1.877,0,0,0,1.86181,1.585H25.026l-2.7716,6.92774H41.7456L38.974,44.999H55.45947A2.04344,2.04344,0,0,0,57.5,42.958V13.96582A1.8729,1.8729,0,0,0,56.9497,12.627Zm-48.56348.502,43.64942-.05146v1.613l-5.625.044V17.9248h1V15.72656l5.625-.04394V13.07629l2.57763-.003h.00147a.88526.88526,0,0,1,.88525.89063v5.54394H53.69628v1H56.5V38.45605H53.92065l-.0896-5.46582h-3.8252v1h2.8418l.07275,4.46582H36.00292V37.14746h1.38037v-1H36.00292V34.46094h1.38037v-1H36.00292v-1.208a7.71871,7.71871,0,1,0-7.89258.00586v1.20215H26.73046v1h1.37988v1.68652H26.73046v1h1.37988v1.30859H11.4287V33.08691h1.73194v-1H10.4287v6.36914H7.5V17.63965h4.44824l.01514,4.29687H15.9287v-1H12.95947l-.01514-4.29687H7.5v-2.625A.887.887,0,0,1,8.38622,13.12891ZM29.11034,37.14746h5.89258v1.30859H29.11034ZM32.05663,27.249a.7417.7417,0,1,1,.7417-.74121A.74186.74186,0,0,1,32.05663,27.249Zm2.94629,7.21192v1.68652H29.11034V34.46094Zm5.26514,16.46582H23.73193L26.1032,44.999H37.89678ZM55.45947,43.999H8.38573a.88107.88107,0,0,1-.87451-.74414A.84852.84852,0,0,1,7.5,43.11328V39.45605h49v3.502A1.04182,1.04182,0,0,1,55.45947,43.999ZM36.03808,17.51953l-.92188-.38672.35791-.85449.92188.38672ZM23.46,22.66992l-.854-.35742.38574-.92187.854.35742Zm17.66162,7.39942-.854-.3584.38672-.92188.854.3584ZM23.43505,28.71973l.37988.92578-.85693.35156-.37988-.92578Zm17.24317-5.98047-.37891-.92578.85693-.35059.37891.92578Zm-12.53711-5.252L27.79,16.63086l.92481-.37891.35107.85645ZM25.31249,33.18066l-.707-.707.65479-.65429.707.707Zm13.54053-13.54-.707-.707.65478-.65527.707.707Zm-13.59277,0-.65479-.65528.707-.707.65479.65527ZM38.853,31.81934l.65479.65429-.707.707-.65478-.65429ZM22.94531,26.22949H22.019v-1h.92627Zm-2.11915,0h-1.939v-1h1.939Zm24.28663,0h-1.8252v-1h1.8252Zm-3.94434-1h.92578v1h-.92578Zm-8.61182-8.61133h-1v-.92578h1ZM49.02392,33.99023h-.86328v-1h.86328ZM47.41064,20.00781h-1V18.96h1ZM14.11327,32.08691h1.07129v1H14.11327Z"
      fill="#018abe"
    />
  </svg>