<svg xmlns="http://www.w3.org/2000/svg" viewBox="0 0 64 64" id="dataanalytics">
  <path fill="#f2f2f2" d="m44,2H6c-2.21,0-4,1.79-4,4v43l13,13h29c2.21,0,4-1.79,4-4V6c0-2.21-1.79-4-4-4Z" class="colorf2f2f2 svgShape"></path>
  <polygon fill="#2db8ed" points="2 49 15 49 15 62 2 49" class="colored2d60 svgShape"></polygon>
  <rect width="6" height="10" x="10" y="14" fill="#2db8ed" rx="1" ry="1" class="colored2d60 svgShape"></rect>
  <rect width="6" height="14" x="18" y="10" fill="#2db8ed" rx="1" ry="1" class="colored2d60 svgShape"></rect>
  <rect width="6" height="18" x="26" y="6" fill="#2db8ed" rx="1" ry="1" class="colored2d60 svgShape"></rect>
  <rect width="6" height="14" x="34" y="10" fill="#2db8ed" rx="1" ry="1" class="colored2d60 svgShape"></rect>
  <path fill="#018abe" d="m41,24H9c-.55,0-1-.45-1-1s.45-1,1-1h32c.55,0,1,.45,1,1s-.45,1-1,1Z" class="color5b0624 svgShape"></path>
  <rect width="6" height="6" x="8" y="28" fill="#1bb5f0" rx="1" ry="1" class="colorf0b61b svgShape"></rect>
  <rect width="6" height="6" x="8" y="38" fill="#1bb5f0" rx="1" ry="1" class="colorf0b61b svgShape"></rect>
  <path fill="#018abe" d="M25 28h-8c-.55 0-1 .45-1 1s.45 1 1 1h8c.55 0 1-.45 1-1s-.45-1-1-1zM17 34h3c.55 0 1-.45 1-1s-.45-1-1-1h-3c-.55 0-1 .45-1 1s.45 1 1 1zM23 38h-6c-.55 0-1 .45-1 1s.45 1 1 1h6c.55 0 1-.45 1-1s-.45-1-1-1zM20 42h-3c-.55 0-1 .45-1 1s.45 1 1 1h3c.55 0 1-.45 1-1s-.45-1-1-1zM54.54 50.3l-3.42-3.42c-.39-.39-1.02-.39-1.41 0l-2.82 2.82c-.39.39-.39 1.02 0 1.41l3.42 3.42c.2.2.45.29.71.29s.51-.1.71-.29l2.82-2.82c.39-.39.39-1.02 0-1.41z" class="color5b0624 svgShape"></path>
  <circle cx="40" cy="40" r="14" fill="#1bb5f0" class="colorf0b61b svgShape"></circle>
  <circle cx="40" cy="40" r="10" fill="#ffffff" class="colorffffff svgShape"></circle>
  <path fill="#2db8ed" d="M60.71 54.46l-5.16-5.16c-.19-.19-.44-.29-.71-.29s-.52.11-.71.29l-4.84 4.84c-.19.19-.29.44-.29.71s.11.52.29.71l5.16 5.16c.83.83 1.94 1.29 3.12 1.29s2.29-.46 3.12-1.29c.83-.83 1.29-1.94 1.29-3.12s-.46-2.29-1.29-3.12zM57 25h-5c-.55 0-1 .45-1 1s.45 1 1 1h2.59l-11.09 11.09-1.79-1.79c-.39-.39-1.02-.39-1.41 0l-5 5c-.39.39-.39 1.02 0 1.41.2.2.45.29.71.29s.51-.1.71-.29l4.29-4.29 1.79 1.79c.39.39 1.02.39 1.41 0l11.79-11.79v2.59c0 .55.45 1 1 1s1-.45 1-1v-5c0-.55-.45-1-1-1z" class="colored2d60 svgShape"></path>
</svg>
