<svg xmlns="http://www.w3.org/2000/svg" viewBox="0 0 64 64" id="international-education">
  <path fill="#bddbff" d="M60 55v4a2.006 2.006 0 0 1-2 2H6a2.006 2.006 0 0 1-2-2v-4ZM55 43l5 12H4l5-12h46zM51 7a7.977 7.977 0 0 1 5.81 2.5 7.932 7.932 0 0 1-3.11 2.03C53.22 8.85 52.19 7 51 7zm4 12.07a7.66 7.66 0 0 0-1.3-.6C53.22 21.15 52.19 23 51 23a8.092 8.092 0 0 0 5.81-2.5A8.1 8.1 0 0 0 55 19.07z"></path>
  <path fill="#bddbff" d="M56.81 9.5a7.932 7.932 0 0 1-3.11 2.03 16.721 16.721 0 0 1 .22 1.7c.05.57.08 1.16.08 1.77a19.588 19.588 0 0 1-.3 3.47 7.66 7.66 0 0 1 1.3.6 8.1 8.1 0 0 1 1.81 1.43 8 8 0 0 0 0-11Z"></path>
  <path fill="#bddbff" d="M53.92 13.23a16.721 16.721 0 0 0-.22-1.7 7.99 7.99 0 0 1-5.4 0c-.09.46-.15.95-.2 1.47a18.468 18.468 0 0 0-.1 2 19.588 19.588 0 0 0 .3 3.47 7.99 7.99 0 0 1 5.4 0A19.588 19.588 0 0 0 54 15c0-.61-.03-1.2-.08-1.77Z"></path>
  <path fill="#bddbff" d="M51 7c1.19 0 2.22 1.85 2.7 4.53a7.99 7.99 0 0 1-5.4 0C48.78 8.85 49.81 7 51 7zm2.7 11.47C53.22 21.15 52.19 23 51 23s-2.22-1.85-2.7-4.53a7.99 7.99 0 0 1 5.4 0z"></path>
  <path fill="#bddbff" d="M51 7c-1.19 0-2.22 1.85-2.7 4.53a7.932 7.932 0 0 1-3.11-2.03A7.977 7.977 0 0 1 51 7zm-2.7 11.47C48.78 21.15 49.81 23 51 23a7.977 7.977 0 0 1-5.81-2.5 7.932 7.932 0 0 1 3.11-2.03z"></path>
  <path fill="#bddbff" d="M48.1 13c.05-.52.11-1.01.2-1.47a7.932 7.932 0 0 1-3.11-2.03 8.056 8.056 0 0 0-1.94 3.5 8.239 8.239 0 0 0-.25 2 8 8 0 0 0 2.19 5.5 7.932 7.932 0 0 1 3.11-2.03A19.588 19.588 0 0 1 48 15a18.468 18.468 0 0 1 .1-2ZM47 31l-2 6h-6l2-6h6zM39 34.9V37h-9l-1.82-6.18L29 30l3 1 .7-2.8 2.74 1.22A6 6 0 0 1 39 34.9ZM39 7l-5 1.67L27 11l-7-2.33L15 7l12-4 12 4z"></path>
  <path fill="#bddbff" d="m27 11-7-2.33V14h14V8.67L27 11zM32.7 28.2 32 31l-3-1-1-2 2-1 2.7 1.2zM28.18 30.82 30 37h-6l1.82-6.18L27 32l1.18-1.18z"></path>
  <path fill="#bddbff" d="m28 28 1 2-.82.82L27 32l-1.18-1.18L25 30l1-2h2z"></path>
  <path fill="#bddbff" d="m26 28-1 2-3 1-.7-2.8L24 27l2 1z"></path>
  <path fill="#bddbff" d="M25.82 30.82 24 37h-9v-2.1a6 6 0 0 1 3.56-5.48l2.74-1.22.7 2.8 3-1Z"></path>
  <path fill="#3d9ae2" d="M60.92 54.62 56 42.8V25h-2v17H10V15a1 1 0 0 1 1-1h6v-2h-6a3.009 3.009 0 0 0-3 3v27.8L3.08 54.62A1 1 0 0 0 3 55v4a3.009 3.009 0 0 0 3 3h52a3.009 3.009 0 0 0 3-3v-4a1 1 0 0 0-.08-.38ZM9.67 44h44.66l4.17 10h-53ZM59 59a1 1 0 0 1-1 1H6a1 1 0 0 1-1-1v-3h54Z"></path>
  <path fill="#3d9ae2" d="M10 50h2v2h-2zM14 50h2v2h-2zM48 50h2v2h-2zM52 50h2v2h-2zM15 46h2v2h-2zM11 46h2v2h-2zM19 46h2v2h-2zM23 46h2v2h-2zM27 46h2v2h-2zM31 46h2v2h-2zM35 46h2v2h-2zM39 46h2v2h-2zM43 46h2v2h-2zM47 46h2v2h-2zM51 46h2v2h-2zM18 50h4v2h-4zM42 50h4v2h-4zM24 50h16v2H24zM23 16h2v2h-2zM29 16h2v2h-2z"></path>
  <path fill="#3d9ae2" d="m46.39 36 1.37-4.11A3 3 0 0 0 50 29v-2a1 1 0 0 0-1-1h-6a3.009 3.009 0 0 0-3 3v1.84l-.5 1.5a7.016 7.016 0 0 0-3.65-3.83L31 26.35v-1.43A8.06 8.06 0 0 0 34.74 20H35a3 3 0 0 0 0-6V9.39l3-1V13h2V7a1.014 1.014 0 0 0-.68-.95l-12-4a1 1 0 0 0-.64 0l-12 4a1 1 0 0 0 0 1.9L19 9.39V14a3 3 0 0 0 0 6h.26A8.06 8.06 0 0 0 23 24.92v1.43l-4.85 2.16A7 7 0 0 0 14 34.9V36h-2v2h40v-2ZM19 18a1 1 0 0 1 0-2Zm12.53 10.77-.24.94-1.58-.53-.37-.73.68-.34ZM33 13H21v-2.95l5.68 1.9a1.049 1.049 0 0 0 .64 0l5.68-1.9Zm3 4a1 1 0 0 1-1 1v-2a1 1 0 0 1 1 1ZM18.16 7 27 4.05 35.84 7 27 9.95ZM21 18v-3h12v3a6 6 0 0 1-12 0Zm2.98 10.11.68.34-.37.73-1.58.53-.24-.94ZM23.25 36H16v-1.1a5 5 0 0 1 2.97-4.57l1.65-.73.41 1.64a1.017 1.017 0 0 0 .49.64A1 1 0 0 0 22 32a1.185 1.185 0 0 0 .32-.05l2.36-.79Zm2.09 0 .96-3.29a.99.99 0 0 0 1.4 0l.96 3.29Zm.88-6.2.4-.8h.76l.4.8-.78.79ZM29 26.38l-1.24.62h-1.52L25 26.38v-.64a7.822 7.822 0 0 0 4 0ZM38 36h-7.25l-1.43-4.84 2.36.79A1.185 1.185 0 0 0 32 32a1 1 0 0 0 .48-.12 1.017 1.017 0 0 0 .49-.64l.41-1.64 1.65.73A5 5 0 0 1 38 34.9Zm4-7a1 1 0 0 1 1-1h5v1a1 1 0 0 1-1 1h-5Zm2.28 7h-3.89l1.33-4h3.89Z"></path>
  <path fill="#3d9ae2" d="M51 24a9 9 0 1 0-9-9 9.01 9.01 0 0 0 9 9Zm-1.525-4.809a6.975 6.975 0 0 1 3.05 0C52.058 21.034 51.364 22 51 22s-1.058-.966-1.525-2.809ZM49 15a19.547 19.547 0 0 1 .122-2.207 8.623 8.623 0 0 0 3.756 0 20.042 20.042 0 0 1 0 4.416 9.022 9.022 0 0 0-3.756 0A19.565 19.565 0 0 1 49 15Zm5.4 4.894a6.985 6.985 0 0 1 .914.605 6.992 6.992 0 0 1-1.413.862 11.3 11.3 0 0 0 .499-1.467Zm-.5-11.255a6.992 6.992 0 0 1 1.413.862 6.985 6.985 0 0 1-.914.605 11.3 11.3 0 0 0-.499-1.467Zm-1.379 2.17a6.975 6.975 0 0 1-3.05 0C49.942 8.966 50.636 8 51 8s1.058.966 1.525 2.809Zm-4.928-.7a6.985 6.985 0 0 1-.914-.605 6.992 6.992 0 0 1 1.421-.865 11.3 11.3 0 0 0-.5 1.467Zm.5 11.255a6.992 6.992 0 0 1-1.413-.862 6.985 6.985 0 0 1 .914-.605 11.3 11.3 0 0 0 .506 1.464Zm8.609-2.319a8.974 8.974 0 0 0-1.9-1.189 21.075 21.075 0 0 0 0-5.706 8.949 8.949 0 0 0 1.9-1.189 6.956 6.956 0 0 1 0 8.084ZM45.3 10.958a8.956 8.956 0 0 0 1.9 1.189 21.022 21.022 0 0 0 0 5.706 8.949 8.949 0 0 0-1.9 1.189 6.956 6.956 0 0 1 0-8.084Z"></path>
</svg>
