<svg xmlns="http://www.w3.org/2000/svg" viewBox="0 0 512 512" id="AdsRating">
  <path fill="#99e3ff" d="M496,44V228a19.994,19.994,0,0,1-20,20H284l-28,56-28-56H36a19.994,19.994,0,0,1-20-20V44A19.994,19.994,0,0,1,36,24H476A19.994,19.994,0,0,1,496,44Z" class="colorffeb99 svgShape"></path>
  <polygon fill="#44ccff" points="256 76 277.16 114.875 320.672 122.987 290.238 155.125 295.969 199.013 256 180 216.031 199.013 221.762 155.125 191.328 122.987 234.84 114.875 256 76" class="colorffda44 svgShape"></polygon>
  <polygon fill="#44ccff" points="104 76 125.16 114.875 168.672 122.987 138.238 155.125 143.969 199.013 104 180 64.031 199.013 69.762 155.125 39.328 122.987 82.84 114.875 104 76" class="colorffda44 svgShape"></polygon>
  <polygon fill="#44ccff" points="408 76 429.16 114.875 472.672 122.987 442.238 155.125 447.969 199.013 408 180 368.031 199.013 373.762 155.125 343.328 122.987 386.84 114.875 408 76" class="colorffda44 svgShape"></polygon>
  <rect width="104" height="80" x="176" y="336" fill="#018abe" class="color787680 svgShape"></rect>
  <polygon fill="#e0e1e2" points="240 472 208 472 192 416 224 416 240 472" class="colore0e0e2 svgShape"></polygon>
  <polygon fill="#11beff" points="360 448 280 416 280 336 360 304 360 448" class="colorff9811 svgShape"></polygon>
  <rect width="24" height="32" x="152" y="360" fill="#11beff" class="colorff9811 svgShape"></rect>
  <rect width="80" height="24" x="192" y="472" fill="#11beff" class="colorff9811 svgShape"></rect>
  <g fill="#000000" class="color000000 svgShape">
    <path d="M364.48,297.38a8,8,0,0,0-7.45-.81L278.46,328H176a8,8,0,0,0-8,8v16H152a8,8,0,0,0-8,8v32a8,8,0,0,0,8,8h16v16a8,8,0,0,0,8,8h9.97l11.42,40H192a8,8,0,0,0-8,8v24a8,8,0,0,0,8,8h80a8,8,0,0,0,8-8V472a8,8,0,0,0-8-8H246.03l-11.42-40h43.85l78.57,31.43A8.078,8.078,0,0,0,360,456a8.017,8.017,0,0,0,8-8V304A7.987,7.987,0,0,0,364.48,297.38ZM168,384h-8V368h8Zm96,96v8H200v-8Zm-61.39-56h15.36l11.42,40H214.03ZM272,408H184V344h88Zm80,28.18-64-25.6V341.42l64-25.6Z" fill="#000000" class="color000000 svgShape"></path>
    <path d="M208 368h32a8 8 0 000-16H208a8 8 0 000 16zM208 400h32a8 8 0 000-16H208a8 8 0 000 16zM322.138 115.123l-39.771-7.415L263.026 72.176a8 8 0 00-14.052 0l-19.341 35.532-39.771 7.415a8 8 0 00-4.342 13.365l27.817 29.374L208.1 197.977a8 8 0 0011.369 8.26L256 188.859l36.533 17.378a8 8 0 0011.369-8.26l-5.239-40.115 27.817-29.374a8 8 0 00-4.342-13.365zm-37.709 34.5a8 8 0 00-2.124 6.537l3.828 29.314-26.7-12.7a8.009 8.009 0 00-6.874 0l-26.7 12.7 3.828-29.314a8 8 0 00-2.124-6.537l-20.328-21.466 29.063-5.419a8 8 0 005.56-4.04L256 92.733 270.134 118.7a8 8 0 005.56 4.04l29.063 5.419zM170.138 115.123l-39.771-7.415L111.026 72.176a8 8 0 00-14.052 0L77.633 107.708l-39.771 7.415a8 8 0 00-4.342 13.365l27.817 29.374L56.1 197.977a8 8 0 0011.369 8.26L104 188.859l36.533 17.378a8 8 0 0011.369-8.26l-5.239-40.115 27.817-29.374a8 8 0 00-4.342-13.365zm-37.709 34.5a8 8 0 00-2.124 6.537l3.828 29.314-26.7-12.7a8.009 8.009 0 00-6.874 0l-26.7 12.7 3.828-29.314a8 8 0 00-2.124-6.537L55.243 128.158l29.063-5.419a8 8 0 005.56-4.04L104 92.733 118.134 118.7a8 8 0 005.56 4.04l29.063 5.419zM474.138 115.123l-39.771-7.415L415.026 72.176a8 8 0 00-14.052 0l-19.341 35.532-39.771 7.415a8 8 0 00-4.342 13.365l27.817 29.374L360.1 197.977a8 8 0 0011.369 8.26L408 188.859l36.533 17.378a8 8 0 0011.369-8.26l-5.239-40.115 27.817-29.374a8 8 0 00-4.342-13.365zm-37.709 34.5a8 8 0 00-2.124 6.537l3.828 29.314-26.7-12.7a8.009 8.009 0 00-6.874 0l-26.7 12.7 3.828-29.314a8 8 0 00-2.124-6.537l-20.328-21.466 29.063-5.419a8 8 0 005.56-4.04L408 92.733 422.134 118.7a8 8 0 005.56 4.04l29.063 5.419z" fill="#000000" class="color000000 svgShape"></path>
    <path d="M476,16H36A28.032,28.032,0,0,0,8,44V228a28.032,28.032,0,0,0,28,28H223.056l25.789,51.578a8,8,0,0,0,14.31,0L288.944,256H476a28.032,28.032,0,0,0,28-28V44A28.032,28.032,0,0,0,476,16Zm12,212a12.013,12.013,0,0,1-12,12H284a8,8,0,0,0-7.155,4.422L256,286.111l-20.845-41.689A8,8,0,0,0,228,240H36a12.013,12.013,0,0,1-12-12V44A12.013,12.013,0,0,1,36,32H476a12.013,12.013,0,0,1,12,12Z" fill="#000000" class="color000000 svgShape"></path>
  </g>
</svg>
