<svg xmlns="http://www.w3.org/2000/svg" enable-background="new 0 0 64 64" width="64"
    height="64" id="DatabaseManagement">
  <g fill="#018abe" class="color000000 svgShape">
    <g fill="#018abe" class="color000000 svgShape">
      <g fill="#018abe" class="color000000 svgShape">
        <g fill="#018abe" class="color000000 svgShape">
          <path d="M41.98,26.62H22.02c-0.49,0-0.88-0.4-0.88-0.88v-5.29c0-0.49,0.4-0.88,0.88-0.88h19.96c0.49,0,0.88,0.4,0.88,0.88v5.29
					C42.86,26.23,42.47,26.62,41.98,26.62z M22.12,25.64h19.76v-5.09H22.12V25.64z" fill="#018abe" class="color000000 svgShape"></path>
        </g>
        <g fill="#018abe" class="color000000 svgShape">
          <path d="M40.19,23.59H32.1c-0.27,0-0.49-0.22-0.49-0.49c0-0.27,0.22-0.49,0.49-0.49h8.09c0.27,0,0.49,0.22,0.49,0.49
					C40.68,23.37,40.46,23.59,40.19,23.59z" fill="#018abe" class="color000000 svgShape"></path>
        </g>
        <g fill="#018abe" class="color000000 svgShape">
          <path d="M24.3,23.59h-0.28c-0.27,0-0.49-0.22-0.49-0.49c0-0.27,0.22-0.49,0.49-0.49h0.28c0.27,0,0.49,0.22,0.49,0.49
					C24.79,23.37,24.57,23.59,24.3,23.59z" fill="#018abe" class="color000000 svgShape"></path>
        </g>
        <g fill="#018abe" class="color000000 svgShape">
          <path d="M26.6,23.59h-0.28c-0.27,0-0.49-0.22-0.49-0.49c0-0.27,0.22-0.49,0.49-0.49h0.28c0.27,0,0.49,0.22,0.49,0.49
					C27.09,23.37,26.87,23.59,26.6,23.59z" fill="#018abe" class="color000000 svgShape"></path>
        </g>
        <g fill="#018abe" class="color000000 svgShape">
          <path d="M28.9,23.59h-0.28c-0.27,0-0.49-0.22-0.49-0.49c0-0.27,0.22-0.49,0.49-0.49h0.28c0.27,0,0.49,0.22,0.49,0.49
					C29.4,23.37,29.18,23.59,28.9,23.59z" fill="#018abe" class="color000000 svgShape"></path>
        </g>
      </g>
      <g fill="#018abe" class="color000000 svgShape">
        <g fill="#018abe" class="color000000 svgShape">
          <path d="M41.98,35.53H22.02c-0.49,0-0.88-0.4-0.88-0.88v-5.29c0-0.49,0.4-0.88,0.88-0.88h19.96c0.49,0,0.88,0.4,0.88,0.88v5.29
					C42.86,35.13,42.47,35.53,41.98,35.53z M22.12,34.54h19.76v-5.09H22.12V34.54z" fill="#018abe" class="color000000 svgShape"></path>
        </g>
        <g fill="#018abe" class="color000000 svgShape">
          <path d="M40.19,32.49H32.1c-0.27,0-0.49-0.22-0.49-0.49c0-0.27,0.22-0.49,0.49-0.49h8.09c0.27,0,0.49,0.22,0.49,0.49
					C40.68,32.27,40.46,32.49,40.19,32.49z" fill="#018abe" class="color000000 svgShape"></path>
        </g>
        <g fill="#018abe" class="color000000 svgShape">
          <path d="M24.3,32.49h-0.28c-0.27,0-0.49-0.22-0.49-0.49c0-0.27,0.22-0.49,0.49-0.49h0.28c0.27,0,0.49,0.22,0.49,0.49
					C24.79,32.27,24.57,32.49,24.3,32.49z" fill="#018abe" class="color000000 svgShape"></path>
        </g>
        <g fill="#018abe" class="color000000 svgShape">
          <path d="M26.6,32.49h-0.28c-0.27,0-0.49-0.22-0.49-0.49c0-0.27,0.22-0.49,0.49-0.49h0.28c0.27,0,0.49,0.22,0.49,0.49
					C27.09,32.27,26.87,32.49,26.6,32.49z" fill="#018abe" class="color000000 svgShape"></path>
        </g>
        <g fill="#018abe" class="color000000 svgShape">
          <path d="M28.9,32.49h-0.28c-0.27,0-0.49-0.22-0.49-0.49c0-0.27,0.22-0.49,0.49-0.49h0.28c0.27,0,0.49,0.22,0.49,0.49
					C29.4,32.27,29.18,32.49,28.9,32.49z" fill="#018abe" class="color000000 svgShape"></path>
        </g>
      </g>
      <g fill="#018abe" class="color000000 svgShape">
        <g fill="#018abe" class="color000000 svgShape">
          <path d="M41.98,44.43H22.02c-0.49,0-0.88-0.4-0.88-0.88v-5.29c0-0.49,0.4-0.88,0.88-0.88h19.96c0.49,0,0.88,0.4,0.88,0.88v5.29
					C42.86,44.03,42.47,44.43,41.98,44.43z M22.12,43.45h19.76v-5.09H22.12V43.45z" fill="#018abe" class="color000000 svgShape"></path>
        </g>
        <g fill="#018abe" class="color000000 svgShape">
          <path d="M40.19,41.4H32.1c-0.27,0-0.49-0.22-0.49-0.49c0-0.27,0.22-0.49,0.49-0.49h8.09c0.27,0,0.49,0.22,0.49,0.49
					C40.68,41.17,40.46,41.4,40.19,41.4z" fill="#018abe" class="color000000 svgShape"></path>
        </g>
        <g fill="#018abe" class="color000000 svgShape">
          <path d="M24.3,41.4h-0.28c-0.27,0-0.49-0.22-0.49-0.49c0-0.27,0.22-0.49,0.49-0.49h0.28c0.27,0,0.49,0.22,0.49,0.49
					C24.79,41.17,24.57,41.4,24.3,41.4z" fill="#018abe" class="color000000 svgShape"></path>
        </g>
        <g fill="#018abe" class="color000000 svgShape">
          <path d="M26.6,41.4h-0.28c-0.27,0-0.49-0.22-0.49-0.49c0-0.27,0.22-0.49,0.49-0.49h0.28c0.27,0,0.49,0.22,0.49,0.49
					C27.09,41.17,26.87,41.4,26.6,41.4z" fill="#018abe" class="color000000 svgShape"></path>
        </g>
        <g fill="#018abe" class="color000000 svgShape">
          <path d="M28.9,41.4h-0.28c-0.27,0-0.49-0.22-0.49-0.49c0-0.27,0.22-0.49,0.49-0.49h0.28c0.27,0,0.49,0.22,0.49,0.49
					C29.4,41.17,29.18,41.4,28.9,41.4z" fill="#018abe" class="color000000 svgShape"></path>
        </g>
      </g>
      <g fill="#018abe" class="color000000 svgShape">
        <g fill="#018abe" class="color000000 svgShape">
          <g fill="#018abe" class="color000000 svgShape">
            <path d="M25.39,29.46c-0.27,0-0.49-0.22-0.49-0.49v-2.83c0-0.27,0.22-0.49,0.49-0.49c0.27,0,0.49,0.22,0.49,0.49v2.83
						C25.88,29.24,25.66,29.46,25.39,29.46z" fill="#018abe" class="color000000 svgShape"></path>
          </g>
          <g fill="#018abe" class="color000000 svgShape">
            <path d="M38.61,29.46c-0.27,0-0.49-0.22-0.49-0.49v-2.83c0-0.27,0.22-0.49,0.49-0.49c0.27,0,0.49,0.22,0.49,0.49v2.83
						C39.11,29.24,38.89,29.46,38.61,29.46z" fill="#018abe" class="color000000 svgShape"></path>
          </g>
        </g>
        <g fill="#018abe" class="color000000 svgShape">
          <g fill="#018abe" class="color000000 svgShape">
            <path d="M25.39,38.36c-0.27,0-0.49-0.22-0.49-0.49v-2.83c0-0.27,0.22-0.49,0.49-0.49c0.27,0,0.49,0.22,0.49,0.49v2.83
						C25.88,38.14,25.66,38.36,25.39,38.36z" fill="#018abe" class="color000000 svgShape"></path>
          </g>
          <g fill="#018abe" class="color000000 svgShape">
            <path d="M38.61,38.36c-0.27,0-0.49-0.22-0.49-0.49v-2.83c0-0.27,0.22-0.49,0.49-0.49c0.27,0,0.49,0.22,0.49,0.49v2.83
						C39.11,38.14,38.89,38.36,38.61,38.36z" fill="#018abe" class="color000000 svgShape"></path>
          </g>
        </g>
      </g>
    </g>
    <g fill="#018abe" class="color000000 svgShape">
      <g fill="#018abe" class="color000000 svgShape">
        <g fill="#018abe" class="color000000 svgShape">
          <path d="M32,51.6c-10.81,0-19.6-8.79-19.6-19.6S21.19,12.4,32,12.4S51.6,21.19,51.6,32S42.81,51.6,32,51.6z M32,13.38
					c-10.26,0-18.62,8.35-18.62,18.62S21.74,50.62,32,50.62S50.62,42.26,50.62,32S42.26,13.38,32,13.38z" fill="#018abe" class="color000000 svgShape"></path>
        </g>
      </g>
      <g fill="#018abe" class="color000000 svgShape">
        <path d="M33.98,64h-4.21c-1.11,0-2.1-0.7-2.47-1.74l-1.48-4.16c-0.41-1.15-1.05-2.07-1.85-2.66c-3-2.22-6.75-0.41-8.71,0.87
				c-0.98,0.64-2.29,0.53-3.17-0.28l-3.93-3.59c-0.91-0.83-1.12-2.2-0.5-3.26L10,45.16c-0.51-6.35-5.12-8.32-7.83-8.93
				c-1.19-0.27-2.02-1.32-2.02-2.55V29.7c0-1.26,0.91-2.34,2.17-2.57c5.23-0.97,6.51-3.84,6.56-3.96c1.58-3.93,0.1-7.02-0.92-8.52
				c-0.69-1.01-0.56-2.41,0.31-3.32l2.97-3.09c0.86-0.89,2.25-1.05,3.31-0.38c2.92,1.85,5.62,2.2,8.26,1.09
				c2.98-1.64,4-4.96,4.34-6.79C27.39,0.9,28.47,0,29.73,0h4.66c1.3,0,2.4,0.91,2.61,2.17c0.39,2.29,1.7,6.26,6.07,7.1
				c3.7,0.3,4.98-0.53,6.37-1.73c1.01-0.87,2.5-0.83,3.48,0.1l3.71,3.5c0.9,0.85,1.09,2.18,0.46,3.24l-1.93,3.26
				c-0.59,1-0.89,2.68-0.65,3.66c0.71,2.89,3.33,4.97,7.2,5.72c1.24,0.24,2.14,1.32,2.14,2.57v4.85c0,1.26-0.9,2.34-2.13,2.58
				l-2.21,0.42c-1.34,0.25-2.51,0.92-3.3,1.88c-2.41,2.93-2.43,6.9-0.04,10.38c0.7,1.03,0.59,2.42-0.28,3.31l-2.95,3.03
				c-0.96,0.98-2.52,1.08-3.55,0.22c-1.78-1.47-5.3-3.61-8.94-1.4c-0.06,0.03-2.92,1.61-3.9,6.97C36.32,63.09,35.24,64,33.98,64z
				 M20.74,53.4c1.28,0,2.58,0.34,3.81,1.25c0.96,0.71,1.72,1.79,2.2,3.12l1.48,4.16c0.23,0.65,0.85,1.09,1.54,1.09h4.21
				c0.79,0,1.46-0.57,1.61-1.36c1.07-5.87,4.25-7.58,4.39-7.65c4.13-2.52,8.07-0.14,10.05,1.5c0.64,0.53,1.61,0.46,2.21-0.15
				l2.95-3.03c0.54-0.55,0.61-1.42,0.17-2.06c-2.64-3.85-2.6-8.29,0.1-11.56c0.93-1.13,2.31-1.92,3.88-2.22l2.21-0.42
				c0.77-0.15,1.33-0.82,1.33-1.61v-4.85c0-0.78-0.56-1.45-1.34-1.6c-4.26-0.83-7.16-3.18-7.97-6.45c-0.33-1.36,0.13-3.35,0.75-4.4
				l1.93-3.26c0.39-0.66,0.27-1.5-0.29-2.02l-3.71-3.5c-0.6-0.57-1.55-0.6-2.16-0.07c-1.74,1.5-3.4,2.26-7.14,1.96
				c-5.01-0.95-6.48-5.36-6.91-7.91c-0.13-0.78-0.82-1.35-1.64-1.35h-4.66c-0.79,0-1.46,0.57-1.61,1.35c-0.37,2-1.5,5.64-4.88,7.5
				c-2.97,1.25-6.06,0.86-9.22-1.14c-0.67-0.42-1.54-0.33-2.08,0.23l-2.97,3.09c-0.55,0.58-0.64,1.45-0.21,2.08
				c1.13,1.65,2.77,5.08,1.02,9.45c-0.06,0.15-1.5,3.48-7.29,4.55c-0.79,0.15-1.36,0.82-1.36,1.61v3.98c0,0.77,0.52,1.42,1.26,1.59
				c2.42,0.54,8.09,2.6,8.61,9.97c0.01,0.1-0.02,0.2-0.07,0.28L8.5,49.68c-0.39,0.66-0.26,1.52,0.31,2.03l3.93,3.59
				c0.55,0.5,1.36,0.58,1.97,0.18C16.13,54.56,18.38,53.4,20.74,53.4z" fill="#018abe" class="color000000 svgShape"></path>
      </g>
    </g>
  </g>
</svg>
