<?xml version="1.0" encoding="UTF-8"?>
<svg version="1.1" xmlns="http://www.w3.org/2000/svg" width="166" height="49">
<path d="M0 0 C54.78 0 109.56 0 166 0 C166 16.17 166 32.34 166 49 C111.22 49 56.44 49 0 49 C0 32.83 0 16.66 0 0 Z " fill="#F9FBFB" transform="translate(0,0)"/>
<path d="M0 0 C0.99 0 1.98 0 3 0 C3.495 11.385 3.495 11.385 4 23 C5.32 22.67 6.64 22.34 8 22 C8.01417969 21.40832031 8.02835938 20.81664063 8.04296875 20.20703125 C8.29937065 15.95907547 8.61518139 13.54327333 11.125 10 C14.62314628 7.56650694 16.73943986 6.92391857 21 7 C24.028908 8.77783731 25.61021373 9.92059186 26.8125 13.25 C26.874375 13.8275 26.93625 14.405 27 15 C27.66 15 28.32 15 29 15 C30.34331654 13.00669158 31.67594012 11.00615134 33 9 C36.25763222 6.82824519 37.22439213 6.53956002 41 7 C43.3125 8.5 43.3125 8.5 45 10 C45 9.34 45 8.68 45 8 C45.66 8 46.32 8 47 8 C47 13.94 47 19.88 47 26 C45.515 25.505 45.515 25.505 44 25 C43.01 25.66 42.02 26.32 41 27 C41.99 27.99 42.98 28.98 44 30 C43.34 30.66 42.68 31.32 42 32 C41.83318891 35.08347826 41.83318891 35.08347826 42 38 C35 38 28 38 21 38 C20.34 36.35 19.68 34.7 19 33 C18.505 33.99 18.505 33.99 18 35 C17.34 35 16.68 35 16 35 C16 35.66 16 36.32 16 37 C16.99 37.495 16.99 37.495 18 38 C15.05613377 39.47193312 12.62609964 38.84936173 9.375 38.5625 C8.18648437 38.46066406 6.99796875 38.35882813 5.7734375 38.25390625 C4.85820313 38.17011719 3.94296875 38.08632813 3 38 C3 35.03 3 32.06 3 29 C4.32 29 5.64 29 7 29 C7 28.34 7 27.68 7 27 C5.6078125 26.938125 5.6078125 26.938125 4.1875 26.875 C1 26 1 26 -0.875 23.25 C-1.9265506 20.21218714 -2.27975832 18.17059429 -2 15 C-2.99 15 -3.98 15 -5 15 C-5.33 17.97 -5.66 20.94 -6 24 C-4.68 24 -3.36 24 -2 24 C-2.33 24.99 -2.66 25.98 -3 27 C-4.65 27 -6.3 27 -8 27 C-8 27.66 -8 28.32 -8 29 C-6.68 28.67 -5.36 28.34 -4 28 C-4.66 28.99 -5.32 29.98 -6 31 C-4.68 31 -3.36 31 -2 31 C0.25 32 0.25 32 2 33 C2 34.65 2 36.3 2 38 C0.00045254 38.04254356 -2.00041636 38.04080783 -4 38 C-4.495 37.505 -4.495 37.505 -5 37 C-5.33 37.66 -5.66 38.32 -6 39 C-6.64066406 38.91621094 -7.28132813 38.83242188 -7.94140625 38.74609375 C-11.9567123 38.2733528 -15.47738814 37.92534116 -19.5 38.5 C-24.12178537 39.16025505 -28.39364808 38.60244039 -33 38 C-33 36.35 -33 34.7 -33 33 C-32.113125 33.2475 -31.22625 33.495 -30.3125 33.75 C-26.91440569 34.36226645 -26.91440569 34.36226645 -24.375 32.125 C-23.59125 31.42375 -22.8075 30.7225 -22 30 C-19.6875 29.25 -19.6875 29.25 -18 29 C-18.66 28.67 -19.32 28.34 -20 28 C-20 27.34 -20 26.68 -20 26 C-21.051875 26.268125 -22.10375 26.53625 -23.1875 26.8125 C-27 27 -27 27 -29.875 24.6875 C-32.90476848 20.85573399 -33.47062318 18.89448103 -33 14 C-31.51905054 10.65176644 -30.41072397 8.55270902 -26.90625 7.1796875 C-22.93794814 6.24052273 -19.0831362 5.75981552 -15 6 C-14.01 6 -13.02 6 -12 6 C-11.34 6.33 -10.68 6.66 -10 7 C-10 5.68 -10 4.36 -10 3 C-9.01 3 -8.02 3 -7 3 C-7 4.65 -7 6.3 -7 8 C-4.69 8 -2.38 8 0 8 C0 5.36 0 2.72 0 0 Z " fill="#EFF1F1" transform="translate(80,7)"/>
<path d="M0 0 C0.33 0 0.66 0 1 0 C1 1.65 1 3.3 1 5 C0.01 5 -0.98 5 -2 5 C-2 5.66 -2 6.32 -2 7 C-1.01 7 -0.02 7 1 7 C1.33 13.27 1.66 19.54 2 26 C3.32 25.67 4.64 25.34 6 25 C5.34 25.99 4.68 26.98 4 28 C5.32 28 6.64 28 8 28 C10.25 29 10.25 29 12 30 C12 31.65 12 33.3 12 35 C10.00045254 35.04254356 7.99958364 35.04080783 6 35 C5.505 34.505 5.505 34.505 5 34 C4.67 34.66 4.34 35.32 4 36 C3.35933594 35.91621094 2.71867187 35.83242188 2.05859375 35.74609375 C-1.9567123 35.2733528 -5.47738814 34.92534116 -9.5 35.5 C-14.12178537 36.16025505 -18.39364808 35.60244039 -23 35 C-23 33.35 -23 31.7 -23 30 C-22.113125 30.2475 -21.22625 30.495 -20.3125 30.75 C-16.91440569 31.36226645 -16.91440569 31.36226645 -14.375 29.125 C-13.59125 28.42375 -12.8075 27.7225 -12 27 C-9.6875 26.25 -9.6875 26.25 -8 26 C-8.66 25.67 -9.32 25.34 -10 25 C-10 24.34 -10 23.68 -10 23 C-11.051875 23.268125 -12.10375 23.53625 -13.1875 23.8125 C-17 24 -17 24 -19.875 21.6875 C-22.90476848 17.85573399 -23.47062318 15.89448103 -23 11 C-21.51905054 7.65176644 -20.41072397 5.55270902 -16.90625 4.1796875 C-12.93794814 3.24052273 -9.0831362 2.75981552 -5 3 C-4.01 3 -3.02 3 -2 3 C-1.34 3.33 -0.68 3.66 0 4 C0 2.68 0 1.36 0 0 Z " fill="#F0F0F0" transform="translate(70,10)"/>
<path d="M0 0 C0.98871094 -0.01417969 1.97742188 -0.02835937 2.99609375 -0.04296875 C5.5625 0.1875 5.5625 0.1875 7.5625 2.1875 C7.78955078 4.34228516 7.78955078 4.34228516 7.7578125 6.9765625 C7.74814453 8.38808594 7.74814453 8.38808594 7.73828125 9.828125 C7.72152344 10.81296875 7.70476563 11.7978125 7.6875 12.8125 C7.67847656 13.80507813 7.66945313 14.79765625 7.66015625 15.8203125 C7.63654249 18.27614388 7.6006707 20.73185174 7.5625 23.1875 C0.6325 22.6925 0.6325 22.6925 -6.4375 22.1875 C-6.46433201 18.70828265 -6.4842567 15.22926961 -6.5 11.75 C-6.50837891 10.75677734 -6.51675781 9.76355469 -6.52539062 8.74023438 C-6.52861328 7.79599609 -6.53183594 6.85175781 -6.53515625 5.87890625 C-6.54039307 5.00435791 -6.54562988 4.12980957 -6.55102539 3.22875977 C-6.32022046 -0.92126187 -3.53013824 0.02295278 0 0 Z " fill="#F3F7F8" transform="translate(29.4375,4.8125)"/>
<path d="M0 0 C1.48306641 0.02126953 1.48306641 0.02126953 2.99609375 0.04296875 C3.98738281 0.04941406 4.97867187 0.05585937 6 0.0625 C8.43359375 0.23046875 8.43359375 0.23046875 9.43359375 1.23046875 C9.52044978 2.7921962 9.54061594 4.35776219 9.53125 5.921875 C9.52802734 6.86611328 9.52480469 7.81035156 9.52148438 8.78320312 C9.51310547 9.77642578 9.50472656 10.76964844 9.49609375 11.79296875 C9.49158203 12.79005859 9.48707031 13.78714844 9.48242188 14.81445312 C9.47059398 17.28648362 9.4526579 19.75848347 9.43359375 22.23046875 C4.81359375 22.56046875 0.19359375 22.89046875 -4.56640625 23.23046875 C-4.62016592 19.77192995 -4.65996306 16.31421967 -4.69140625 12.85546875 C-4.70816406 11.870625 -4.72492187 10.88578125 -4.7421875 9.87109375 C-4.74863281 8.93007812 -4.75507812 7.9890625 -4.76171875 7.01953125 C-4.77219238 6.15021973 -4.78266602 5.2809082 -4.79345703 4.38525391 C-4.43949288 1.02601989 -3.28070643 0.29461443 0 0 Z " fill="#F2F6F8" transform="translate(10.56640625,4.76953125)"/>
<path d="M0 0 C0.66 0 1.32 0 2 0 C2.99 0 3.98 0 5 0 C5 5.94 5 11.88 5 18 C3.68 17.67 2.36 17.34 1 17 C0.01 17.66 -0.98 18.32 -2 19 C-5.4375 19 -5.4375 19 -9 18 C-11.69966307 15.02344841 -12.83983465 12.9609921 -13.5 9 C-12.86619108 5.19714649 -11.37421663 3.00268574 -9 0 C-5.93457729 -1.53271136 -3.30919757 -0.53183532 0 0 Z " fill="#1D66A2" transform="translate(60,15)"/>
<path d="M0 0 C1.43859375 0.00580078 1.43859375 0.00580078 2.90625 0.01171875 C5.5 0.3125 5.5 0.3125 8.5 2.3125 C9.06589844 1.98894531 9.63179687 1.66539063 10.21484375 1.33203125 C12.68674007 0.2291852 14.37134914 0.01366066 17.0625 0 C17.82691406 -0.01675781 18.59132813 -0.03351563 19.37890625 -0.05078125 C22.11047435 0.41705638 22.8308591 1.11579766 24.5 3.3125 C24.84057617 5.85620117 24.84057617 5.85620117 24.79296875 8.85546875 C24.78172974 10.30602661 24.78172974 10.30602661 24.77026367 11.78588867 C24.74295166 13.01154541 24.71563965 14.23720215 24.6875 15.5 C24.625625 19.398125 24.56375 23.29625 24.5 27.3125 C13.61 27.3125 2.72 27.3125 -8.5 27.3125 C-8.561875 23.414375 -8.62375 19.51625 -8.6875 15.5 C-8.71481201 14.27434326 -8.74212402 13.04868652 -8.77026367 11.78588867 C-8.77775635 10.8188501 -8.78524902 9.85181152 -8.79296875 8.85546875 C-8.8086792 7.86571045 -8.82438965 6.87595215 -8.84057617 5.85620117 C-8.5 3.3125 -8.5 3.3125 -7.14379883 1.48876953 C-4.75614466 -0.21978799 -2.90153354 -0.05069884 0 0 Z M-7.5 4.3125 C-7.77741245 6.54285297 -7.77741245 6.54285297 -7.6953125 9.1015625 C-7.68886719 10.04257813 -7.68242188 10.98359375 -7.67578125 11.953125 C-7.65902344 12.93796875 -7.64226563 13.9228125 -7.625 14.9375 C-7.61597656 15.93007813 -7.60695313 16.92265625 -7.59765625 17.9453125 C-7.57404249 20.40114388 -7.5381707 22.85685174 -7.5 25.3125 C-2.88 24.9825 1.74 24.6525 6.5 24.3125 C6.52683201 20.83328265 6.5467567 17.35426961 6.5625 13.875 C6.57087891 12.88177734 6.57925781 11.88855469 6.58789062 10.86523438 C6.59111328 9.92099609 6.59433594 8.97675781 6.59765625 8.00390625 C6.60289307 7.12935791 6.60812988 6.25480957 6.61352539 5.35375977 C6.72784809 3.31809794 6.72784809 3.31809794 5.5 2.3125 C3.69072719 2.18762242 1.87603893 2.13679154 0.0625 2.125 C-0.92621094 2.11082031 -1.91492188 2.09664063 -2.93359375 2.08203125 C-5.66584415 2.05099247 -5.66584415 2.05099247 -7.5 4.3125 Z M9.5 3.3125 C9.41314397 4.87422745 9.39297781 6.43979344 9.40234375 8.00390625 C9.40556641 8.94814453 9.40878906 9.89238281 9.41210938 10.86523438 C9.42048828 11.85845703 9.42886719 12.85167969 9.4375 13.875 C9.44201172 14.87208984 9.44652344 15.86917969 9.45117188 16.89648438 C9.46299977 19.36851487 9.48093585 21.84051472 9.5 24.3125 C16.43 24.8075 16.43 24.8075 23.5 25.3125 C23.55375967 21.8539612 23.59355681 18.39625092 23.625 14.9375 C23.64175781 13.95265625 23.65851562 12.9678125 23.67578125 11.953125 C23.68222656 11.01210937 23.68867187 10.07109375 23.6953125 9.1015625 C23.71102295 7.79759521 23.71102295 7.79759521 23.72705078 6.46728516 C23.70595109 4.09904061 23.70595109 4.09904061 21.5 2.3125 C18.8656065 2.03120534 18.8656065 2.03120534 15.9375 2.125 C14.94621094 2.13144531 13.95492188 2.13789062 12.93359375 2.14453125 C10.55234128 2.04124566 10.55234128 2.04124566 9.5 3.3125 Z " fill="#2A65A1" transform="translate(13.5,2.6875)"/>
<path d="M0 0 C2.31 0 4.62 0 7 0 C7 0.66 7 1.32 7 2 C7.81984375 1.96519531 8.6396875 1.93039062 9.484375 1.89453125 C10.56203125 1.86746094 11.6396875 1.84039062 12.75 1.8125 C14.35101563 1.76029297 14.35101563 1.76029297 15.984375 1.70703125 C19 2 19 2 21.375 3 C23.89940577 6.10696095 23.42290859 9.38018584 23.25 13.1875 C23.23195312 13.93708984 23.21390625 14.68667969 23.1953125 15.45898438 C23.14824109 17.3065371 23.07649766 19.15343159 23 21 C22.01 21 21.02 21 20 21 C19.67 16.05 19.34 11.1 19 6 C17.02 6 15.04 6 13 6 C10.22957891 8.77042109 10.60203894 10.76533805 10.375 14.625 C10.30023438 15.81351563 10.22546875 17.00203125 10.1484375 18.2265625 C10.09945312 19.14179688 10.05046875 20.05703125 10 21 C9.01 21 8.02 21 7 21 C6.67 15.72 6.34 10.44 6 5 C2.535 6.485 2.535 6.485 -1 8 C-1.33 12.29 -1.66 16.58 -2 21 C-2.66 21 -3.32 21 -4 21 C-4 14.73 -4 8.46 -4 2 C-2.68 2 -1.36 2 0 2 C0 1.34 0 0.68 0 0 Z " fill="#B6D4E5" transform="translate(137,12)"/>
<path d="M0 0 C0.99 0 1.98 0 3 0 C3.33 7.59 3.66 15.18 4 23 C5.32 23.33 6.64 23.66 8 24 C7.67 24.99 7.34 25.98 7 27 C4.1875 26.875 4.1875 26.875 1 26 C-1.51383097 22.31304792 -2.39164373 19.43862896 -2 15 C-2.99 15 -3.98 15 -5 15 C-5.33 17.97 -5.66 20.94 -6 24 C-4.68 24 -3.36 24 -2 24 C-2.33 24.99 -2.66 25.98 -3 27 C-4.66611905 27.042721 -6.33382885 27.04063832 -8 27 C-9 26 -9 26 -9.09765625 22.40234375 C-9.0909822 20.91403133 -9.07902183 19.42573568 -9.0625 17.9375 C-9.05798828 17.17888672 -9.05347656 16.42027344 -9.04882812 15.63867188 C-9.0370068 13.75908129 -9.01907078 11.87953101 -9 10 C-9.99 10 -10.98 10 -12 10 C-12 9.34 -12 8.68 -12 8 C-11.01 8 -10.02 8 -9 8 C-9 6.35 -9 4.7 -9 3 C-8.34 3 -7.68 3 -7 3 C-7 4.65 -7 6.3 -7 8 C-4.69 8 -2.38 8 0 8 C0 5.36 0 2.72 0 0 Z " fill="#C2D9E7" transform="translate(80,7)"/>
<path d="M0 0 C0.66 0 1.32 0 2 0 C2 8.58 2 17.16 2 26 C13.55 26 25.1 26 37 26 C37 17.42 37 8.84 37 0 C37.66 0 38.32 0 39 0 C39.05783842 4.29161047 39.0935412 8.58312145 39.125 12.875 C39.14175781 14.09832031 39.15851562 15.32164063 39.17578125 16.58203125 C39.18544922 18.33193359 39.18544922 18.33193359 39.1953125 20.1171875 C39.21102295 21.73536377 39.21102295 21.73536377 39.22705078 23.38623047 C39 26 39 26 37 28 C34.25514407 28.14507695 31.61519457 28.18652423 28.875 28.125 C28.12089844 28.11597656 27.36679687 28.10695313 26.58984375 28.09765625 C24.72642746 28.0740687 22.86317407 28.03819719 21 28 C21 28.99 21 29.98 21 31 C22.65 31.33 24.3 31.66 26 32 C25.67 32.66 25.34 33.32 25 34 C21.04 34 17.08 34 13 34 C13 33.01 13 32.02 13 31 C14.65 31 16.3 31 18 31 C18 30.01 18 29.02 18 28 C16.86820313 28.02320312 15.73640625 28.04640625 14.5703125 28.0703125 C13.08854825 28.08906901 11.60677688 28.10726934 10.125 28.125 C9.37863281 28.14175781 8.63226563 28.15851562 7.86328125 28.17578125 C5.90805539 28.1933959 3.95257979 28.10320189 2 28 C0 26 0 26 -0.22705078 23.38623047 C-0.21657715 22.30744629 -0.20610352 21.22866211 -0.1953125 20.1171875 C-0.18886719 18.95058594 -0.18242187 17.78398437 -0.17578125 16.58203125 C-0.15902344 15.35871094 -0.14226563 14.13539062 -0.125 12.875 C-0.11597656 11.64394531 -0.10695312 10.41289062 -0.09765625 9.14453125 C-0.07402548 6.09616185 -0.04108054 3.04817618 0 0 Z " fill="#1762A1" transform="translate(2,5)"/>
<path d="M0 0 C2.4375 2.25 2.4375 2.25 4 5 C4 6.65 4 8.3 4 10 C-0.62 10.33 -5.24 10.66 -10 11 C-9.34 12.32 -8.68 13.64 -8 15 C-2.91696314 15.11320856 -2.91696314 15.11320856 2 14 C2 14.99 2 15.98 2 17 C-1.41557022 19.10188936 -4.02173 19.4871351 -8 19 C-11.33761045 16.84909549 -12.73470933 15.79587201 -14 12 C-14.375 8.625 -14.375 8.625 -14 5 C-9.47064013 -0.48290932 -6.9543317 -1.67863179 0 0 Z " fill="#2669A3" transform="translate(103,15)"/>
<path d="M0 0 C0.33 0 0.66 0 1 0 C1 1.65 1 3.3 1 5 C0.01 5 -0.98 5 -2 5 C-2 5.66 -2 6.32 -2 7 C-1.01 7 -0.02 7 1 7 C1.24803781 9.79117245 1.47414334 12.58115074 1.6875 15.375 C1.76033203 16.1690625 1.83316406 16.963125 1.90820312 17.78125 C2.07421875 20.0859375 2.07421875 20.0859375 2 24 C1.01 24.66 0.02 25.32 -1 26 C-1.99 25.34 -2.98 24.68 -4 24 C-7.14221967 24.31506627 -7.14221967 24.31506627 -10 25 C-9.67 23.68 -9.34 22.36 -9 21 C-8.67 21.66 -8.34 22.32 -8 23 C-7.01 23 -6.02 23 -5 23 C-5 17.06 -5 11.12 -5 5 C-5.99 5 -6.98 5 -8 5 C-8.33 5.66 -8.66 6.32 -9 7 C-9.99 6.01 -10.98 5.02 -12 4 C-2.7826087 2.60869565 -2.7826087 2.60869565 0 4 C0 2.68 0 1.36 0 0 Z " fill="#E1EDF3" transform="translate(70,10)"/>
<path d="M0 0 C0.99 0.66 1.98 1.32 3 2 C3.3984375 4.3125 3.3984375 4.3125 3.375 7 C3.38273437 7.886875 3.39046875 8.77375 3.3984375 9.6875 C3.26695313 10.450625 3.13546875 11.21375 3 12 C-0.47042703 14.31361802 -1.91834173 14.51020728 -6 14 C-8.83268842 11.63942631 -8.98743809 10.11933812 -9.375 6.4375 C-9 3 -9 3 -7.875 1.0625 C-5.14015561 -0.48724515 -3.0875593 -0.32162076 0 0 Z " fill="#FBFBFA" transform="translate(122,17)"/>
<path d="M0 0 C3.375 0.6875 3.375 0.6875 4.375 1.6875 C4.4995486 3.32980364 4.55068524 4.97802276 4.5625 6.625 C4.57667969 7.52089844 4.59085938 8.41679687 4.60546875 9.33984375 C4.375 11.6875 4.375 11.6875 2.375 13.6875 C-1.125 14 -1.125 14 -4.625 13.6875 C-6.69858419 10.57712372 -6.91987123 9.69188748 -6.9375 6.125 C-6.95425781 5.33996094 -6.97101562 4.55492187 -6.98828125 3.74609375 C-6.86839844 3.06675781 -6.74851563 2.38742188 -6.625 1.6875 C-3.625 -0.3125 -3.625 -0.3125 0 0 Z " fill="#F2F7F7" transform="translate(57.625,17.3125)"/>
<path d="M0 0 C2.3125 1.5 2.3125 1.5 4 3 C4 2.34 4 1.68 4 1 C4.66 1 5.32 1 6 1 C6 6.94 6 12.88 6 19 C5.01 18.67 4.02 18.34 3 18 C2.01 18.66 1.02 19.32 0 20 C-6.08056042 19.67425569 -6.08056042 19.67425569 -8.875 17.625 C-11.42689353 13.93893157 -11.37348028 10.3323713 -11 6 C-7.89291739 1.23580667 -5.72163835 -0.54491794 0 0 Z M-6.875 4.0625 C-8.64796631 7.11594197 -8.36343372 9.54737962 -8 13 C-7.04826062 15.52040427 -7.04826062 15.52040427 -5 17 C-0.91834173 17.51020728 0.52957297 17.31361802 4 15 C4.47790518 12.63715136 4.47790518 12.63715136 4.375 10 C4.38273437 9.113125 4.39046875 8.22625 4.3984375 7.3125 C4.26695313 6.549375 4.13546875 5.78625 4 5 C0.31852809 2.54568539 -2.85415952 1.78402373 -6.875 4.0625 Z " fill="#0E629D" transform="translate(121,14)"/>
<path d="M0 0 C2 2 2 2 2.1953125 5.6953125 C2.182009 7.17200108 2.15814835 8.64862358 2.125 10.125 C2.11597656 10.87910156 2.10695312 11.63320313 2.09765625 12.41015625 C2.0740687 14.27357254 2.03819719 16.13682593 2 18 C1.01 18 0.02 18 -1 18 C-1.33 13.05 -1.66 8.1 -2 3 C-3.98 3 -5.96 3 -8 3 C-10.77042109 5.77042109 -10.39796106 7.76533805 -10.625 11.625 C-10.69976562 12.81351563 -10.77453125 14.00203125 -10.8515625 15.2265625 C-10.90054688 16.14179688 -10.94953125 17.05703125 -11 18 C-11.66 18 -12.32 18 -13 18 C-13 12.06 -13 6.12 -13 0 C-12.34 0 -11.68 0 -11 0 C-11 0.66 -11 1.32 -11 2 C-10.484375 1.484375 -9.96875 0.96875 -9.4375 0.4375 C-5.98386566 -1.59925871 -3.80968111 -0.91714545 0 0 Z " fill="#1067A4" transform="translate(158,15)"/>
<path d="M0 0 C5.28 0 10.56 0 16 0 C16.66 1.32 17.32 2.64 18 4 C16.125 5.0625 16.125 5.0625 14 6 C13.34 5.67 12.68 5.34 12 5 C11.01 5.495 11.01 5.495 10 6 C6.5625 6.375 6.5625 6.375 3 6 C0 2.22580645 0 2.22580645 0 0 Z " fill="#FAFBF9" transform="translate(92,25)"/>
<path d="M0 0 C0.66 0.66 1.32 1.32 2 2 C2.66 1.34 3.32 0.68 4 0 C4.66 2.97 5.32 5.94 6 9 C10.65052872 9.26932521 10.65052872 9.26932521 15 8 C15.72159424 6.35636866 16.39351421 4.68949614 17 3 C17.33 3 17.66 3 18 3 C18 5.97 18 8.94 18 12 C16.68 11.67 15.36 11.34 14 11 C13.01 11.66 12.02 12.32 11 13 C7.5625 13 7.5625 13 4 12 C1.10939013 8.81291733 0.06868097 6.92719316 -0.25 2.625 C-0.12625 1.325625 -0.12625 1.325625 0 0 Z " fill="#2F92C1" transform="translate(47,21)"/>
<path d="M0 0 C0.33 0 0.66 0 1 0 C1 2.64 1 5.28 1 8 C1.99 8 2.98 8 4 8 C4.33 5.36 4.66 2.72 5 0 C5.33 0 5.66 0 6 0 C6 5.94 6 11.88 6 18 C6.66 18.33 7.32 18.66 8 19 C7.01 19 6.02 19 5 19 C5 18.34 5 17.68 5 17 C3.35 17.33 1.7 17.66 0 18 C0 12.06 0 6.12 0 0 Z " fill="#BED9E7" transform="translate(127,15)"/>
<path d="M0 0 C0.66 0 1.32 0 2 0 C2 1.65 2 3.3 2 5 C3.32 5 4.64 5 6 5 C6 5.66 6 6.32 6 7 C4.68 7 3.36 7 2 7 C2.33 11.29 2.66 15.58 3 20 C4.32 20.33 5.64 20.66 7 21 C6.67 21.99 6.34 22.98 6 24 C4.33388095 24.042721 2.66617115 24.04063832 1 24 C0 23 0 23 -0.09765625 19.40234375 C-0.0909822 17.91403133 -0.07902183 16.42573568 -0.0625 14.9375 C-0.05798828 14.17888672 -0.05347656 13.42027344 -0.04882812 12.63867188 C-0.0370068 10.75908129 -0.01907078 8.87953101 0 7 C-0.99 7 -1.98 7 -3 7 C-3 6.34 -3 5.68 -3 5 C-2.01 5 -1.02 5 0 5 C0 3.35 0 1.7 0 0 Z " fill="#066DAA" transform="translate(71,10)"/>
<path d="M0 0 C0.99 0.66 1.98 1.32 3 2 C3.29296875 4.3828125 3.29296875 4.3828125 3.1875 7.125 C3.16042969 8.03507812 3.13335937 8.94515625 3.10546875 9.8828125 C3.07066406 10.58148438 3.03585938 11.28015625 3 12 C2.67 12 2.34 12 2 12 C2 9.69 2 7.38 2 5 C1.34 5 0.68 5 0 5 C-0.33 5.66 -0.66 6.32 -1 7 C-1.66 6.67 -2.32 6.34 -3 6 C-3.66 6 -4.32 6 -5 6 C-5.66 7.32 -6.32 8.64 -7 10 C-7.66 10 -8.32 10 -9 10 C-9.36103152 3.6217765 -9.36103152 3.6217765 -7.875 1.0625 C-5.14015561 -0.48724515 -3.0875593 -0.32162076 0 0 Z " fill="#EAF4F7" transform="translate(122,17)"/>
<path d="M0 0 C0.66 0 1.32 0 2 0 C2.33 7.26 2.66 14.52 3 22 C4.32 22.33 5.64 22.66 7 23 C6.67 23.99 6.34 24.98 6 26 C4.02 25.67 2.04 25.34 0 25 C0 16.75 0 8.5 0 0 Z " fill="#0261A0" transform="translate(81,8)"/>
<path d="M0 0 C3.125 0.25 3.125 0.25 5 1.5625 C6.125 3.25 6.125 3.25 6.125 6.25 C2.165 6.25 -1.795 6.25 -5.875 6.25 C-3.49662162 0.30405405 -3.49662162 0.30405405 0 0 Z " fill="#F5FAF8" transform="translate(97.875,16.75)"/>
<path d="M0 0 C3.14624993 -0.26218749 4.61837017 -0.24754367 7.3125 1.5 C8.1478125 2.2425 8.1478125 2.2425 9 3 C9 2.34 9 1.68 9 1 C9.66 1 10.32 1 11 1 C11 6.94 11 12.88 11 19 C10.34 19 9.68 19 9 19 C7.49228093 14.21997213 8.41794266 9.91515088 9 5 C5.7 4.01 2.4 3.02 -1 2 C-0.67 1.34 -0.34 0.68 0 0 Z " fill="#046AAA" transform="translate(116,14)"/>
<path d="M0 0 C2.4375 2.4375 2.4375 2.4375 4 5 C4 5.66 4 6.32 4 7 C3.01 7.33 2.02 7.66 1 8 C0.67 6.35 0.34 4.7 0 3 C-5.36090593 2.46326107 -5.36090593 2.46326107 -10 4.5 C-10.495 5.2425 -10.495 5.2425 -11 6 C-11.66 5.34 -12.32 4.68 -13 4 C-8.44505441 -0.70677711 -6.60326378 -1.59389126 0 0 Z " fill="#2584B5" transform="translate(103,15)"/>
<path d="M0 0 C0.66 0 1.32 0 2 0 C2 0.66 2 1.32 2 2 C2.99 1.34 3.98 0.68 5 0 C5.99 0 6.98 0 8 0 C8 0.66 8 1.32 8 2 C7.19175781 2.39832031 6.38351563 2.79664063 5.55078125 3.20703125 C2.67583595 4.80124595 2.67583595 4.80124595 2.29296875 8.13671875 C2.25816406 9.30847656 2.22335938 10.48023438 2.1875 11.6875 C2.13980469 12.86699219 2.09210938 14.04648437 2.04296875 15.26171875 C2.02878906 16.16535156 2.01460937 17.06898437 2 18 C1.34 18 0.68 18 0 18 C0 12.06 0 6.12 0 0 Z " fill="#0668A6" transform="translate(133,15)"/>
<path d="M0 0 C0.33 0 0.66 0 1 0 C1 5.28 1 10.56 1 16 C0.01 16 -0.98 16 -2 16 C-2 11.38 -2 6.76 -2 2 C-1.34 2 -0.68 2 0 2 C0 1.34 0 0.68 0 0 Z " fill="#1279B1" transform="translate(159,17)"/>
<path d="M0 0 C0.99 0 1.98 0 3 0 C3 0.99 3 1.98 3 3 C4.65 3.33 6.3 3.66 8 4 C7.67 4.66 7.34 5.32 7 6 C3.04 6 -0.92 6 -5 6 C-5 5.01 -5 4.02 -5 3 C-3.35 3 -1.7 3 0 3 C0 2.01 0 1.02 0 0 Z " fill="#6299C1" transform="translate(20,33)"/>
<path d="M0 0 C0.66 0 1.32 0 2 0 C2 0.99 2 1.98 2 3 C6.95 2.67 11.9 2.34 17 2 C17 2.99 17 3.98 17 5 C14.54137599 5.05383848 12.0839245 5.09359038 9.625 5.125 C8.57699219 5.15013672 8.57699219 5.15013672 7.5078125 5.17578125 C5.67102514 5.19344267 3.83398037 5.10303261 2 5 C1.34 4.34 0.68 3.68 0 3 C0 2.01 0 1.02 0 0 Z " fill="#0464A3" transform="translate(90,20)"/>
<path d="M0 0 C0.37125 0.495 0.7425 0.99 1.125 1.5 C3.76829585 3.61463668 5.69529086 3.20654432 9 3 C9.99 3 10.98 3 12 3 C10.4375 5.0625 10.4375 5.0625 8 7 C4.4375 7 4.4375 7 1 6 C-0.9375 3.9375 -0.9375 3.9375 -2 2 C-1.34 2 -0.68 2 0 2 C0 1.34 0 0.68 0 0 Z " fill="#1286BA" transform="translate(113,27)"/>
<path d="M0 0 C2.97 0.33 5.94 0.66 9 1 C9 2.32 9 3.64 9 5 C6.03 5 3.06 5 0 5 C0 3.35 0 1.7 0 0 Z " fill="#CDCDCD" transform="translate(47,40)"/>
<path d="M0 0 C0 1.65 0 3.3 0 5 C-0.928125 4.979375 -1.85625 4.95875 -2.8125 4.9375 C-6.02286011 4.84230396 -6.02286011 4.84230396 -9 6 C-9 4.35 -9 2.7 -9 1 C-5.92677456 0.08941469 -3.19902639 -0.08886184 0 0 Z " fill="#C7C7C7" transform="translate(66,40)"/>
<path d="M0 0 C3.63 0.33 7.26 0.66 11 1 C10.01 1.495 10.01 1.495 9 2 C8.67 2.66 8.34 3.32 8 4 C5.61370553 4.61187038 3.46459429 5 1 5 C0.67 3.35 0.34 1.7 0 0 Z " fill="#CDCDCD" transform="translate(146,40)"/>
<path d="M0 0 C0.99 0 1.98 0 3 0 C3.33 1.65 3.66 3.3 4 5 C0.04 5 -3.92 5 -8 5 C-7.67 4.34 -7.34 3.68 -7 3 C-5.02 3 -3.04 3 -1 3 C-0.67 2.01 -0.34 1.02 0 0 Z " fill="#DFECF2" transform="translate(100,18)"/>
<path d="M0 0 C1.32 0.66 2.64 1.32 4 2 C4 3.65 4 5.3 4 7 C2.35 7 0.7 7 -1 7 C-0.67 4.69 -0.34 2.38 0 0 Z " fill="#CCCCCC" transform="translate(78,38)"/>
<path d="M0 0 C0.33 0 0.66 0 1 0 C1 2.97 1 5.94 1 9 C-1.31 8.67 -3.62 8.34 -6 8 C-5.071875 7.4121875 -5.071875 7.4121875 -4.125 6.8125 C-1.67503632 4.72282509 -0.98120002 3.02536673 0 0 Z " fill="#1283B9" transform="translate(64,24)"/>
<path d="M0 0 C0.598125 0.350625 1.19625 0.70125 1.8125 1.0625 C1.4825 1.7225 1.1525 2.3825 0.8125 3.0625 C-2.25 3.6875 -2.25 3.6875 -5.1875 4.0625 C-5.1875 2.7425 -5.1875 1.4225 -5.1875 0.0625 C-2.1875 -0.9375 -2.1875 -0.9375 0 0 Z " fill="#CFCFCF" transform="translate(128.1875,40.9375)"/>
<path d="M0 0 C1.32 0 2.64 0 4 0 C4 3.3 4 6.6 4 10 C3.67 10 3.34 10 3 10 C3 7.69 3 5.38 3 3 C2.34 3 1.68 3 1 3 C0.67 3.66 0.34 4.32 0 5 C-0.66 4.67 -1.32 4.34 -2 4 C-1.34 2.68 -0.68 1.36 0 0 Z " fill="#C7E0EA" transform="translate(121,19)"/>
<path d="M0 0 C0 1.98 0 3.96 0 6 C-1.32 5.67 -2.64 5.34 -4 5 C-4 4.34 -4 3.68 -4 3 C-4.99 2.34 -5.98 1.68 -7 1 C-1.125 0 -1.125 0 0 0 Z " fill="#D0D0D0" transform="translate(122,39)"/>
<path d="M0 0 C-1.15173355 2.46800047 -2.04783565 4.04783565 -4 6 C-4 5.01 -4 4.02 -4 3 C-4.99 2.67 -5.98 2.34 -7 2 C-6 0 -6 0 -4.0625 -0.6875 C-2 -1 -2 -1 0 0 Z " fill="#F4F6F7" transform="translate(8,2)"/>
<path d="M0 0 C2.31 0 4.62 0 7 0 C7 1.32 7 2.64 7 4 C4.69 4 2.38 4 0 4 C0 2.68 0 1.36 0 0 Z " fill="#C2C2C2" transform="translate(105,41)"/>
<path d="M0 0 C2.15377564 2.62198774 3.40072174 4.64404172 4 8 C3.01 8.66 2.02 9.32 1 10 C-0.1577506 6.52674819 -0.06866652 3.63932552 0 0 Z " fill="#2875AC" transform="translate(89,20)"/>
<path d="M0 0 C0.33 0 0.66 0 1 0 C1.21755666 5.4389165 1.10428384 9.87080814 -1 15 C-1.33 15 -1.66 15 -2 15 C-2 12.36 -2 9.72 -2 7 C-1.34 7 -0.68 7 0 7 C0 4.69 0 2.38 0 0 Z " fill="#136FAC" transform="translate(64,15)"/>
<path d="M0 0 C0.99 0 1.98 0 3 0 C3.66 1.32 4.32 2.64 5 4 C4.34 4 3.68 4 3 4 C3 4.66 3 5.32 3 6 C1.68 5.34 0.36 4.68 -1 4 C-0.67 2.68 -0.34 1.36 0 0 Z " fill="#D9E7F0" transform="translate(122,11)"/>
<path d="M0 0 C0.66 0 1.32 0 2 0 C2 0.99 2 1.98 2 3 C2.763125 3.12375 3.52625 3.2475 4.3125 3.375 C7 4 7 4 10 6 C6.6875 6.3125 6.6875 6.3125 3 6 C0 2.22580645 0 2.22580645 0 0 Z " fill="#EBF5F7" transform="translate(92,25)"/>
<path d="M0 0 C1.65 0.33 3.3 0.66 5 1 C4.67 2.32 4.34 3.64 4 5 C2.35 4.67 0.7 4.34 -1 4 C-0.67 2.68 -0.34 1.36 0 0 Z " fill="#C2C2C2" transform="translate(133,40)"/>
<path d="M0 0 C-0.33 0.99 -0.66 1.98 -1 3 C-3.97 2.505 -3.97 2.505 -7 2 C-7 1.34 -7 0.68 -7 0 C-4.3333581 -1.33332095 -2.83319697 -0.67102033 0 0 Z " fill="#258CB9" transform="translate(88,31)"/>
<path d="M0 0 C0.66 0.33 1.32 0.66 2 1 C2 1.66 2 2.32 2 3 C2.66 3.66 3.32 4.32 4 5 C1.125 5.1875 1.125 5.1875 -2 5 C-2.66 4.01 -3.32 3.02 -4 2 C-2.125 0.9375 -2.125 0.9375 0 0 Z " fill="#EDF6F7" transform="translate(118,26)"/>
<path d="M0 0 C0.33 0.99 0.66 1.98 1 3 C1.66 3 2.32 3 3 3 C3 4.98 3 6.96 3 9 C2.34 9 1.68 9 1 9 C-0.4783226 6.04335481 -0.06032783 3.25770263 0 0 Z " fill="#1278B2" transform="translate(110,20)"/>
<path d="M0 0 C2.25 -0.25 2.25 -0.25 5 0 C7.3125 2 7.3125 2 9 4 C5.38970831 4 2.44193324 3.03907418 -1 2 C-0.67 1.34 -0.34 0.68 0 0 Z " fill="#276BA5" transform="translate(116,14)"/>
<path d="M0 0 C0.66 0.66 1.32 1.32 2 2 C-0.35968744 4.09749995 -1.54616994 4.96905704 -4.75 5.1875 C-5.86375 5.0946875 -5.86375 5.0946875 -7 5 C-4.78065836 1.67098753 -3.65316671 1.24976756 0 0 Z " fill="#2E99C3" transform="translate(123,29)"/>
<path d="M0 0 C1.98 0 3.96 0 6 0 C5.67 0.99 5.34 1.98 5 3 C3.35 3 1.7 3 0 3 C0 2.01 0 1.02 0 0 Z " fill="#2971A6" transform="translate(72,31)"/>
<path d="M0 0 C0.66 0 1.32 0 2 0 C2 2.31 2 4.62 2 7 C1.34 7 0.68 7 0 7 C-0.66 5.35 -1.32 3.7 -2 2 C-1.34 2 -0.68 2 0 2 C0 1.34 0 0.68 0 0 Z " fill="#075898" transform="translate(62,15)"/>
</svg>
