<svg width="222" height="54" viewBox="0 0 222 54" fill="none" xmlns="http://www.w3.org/2000/svg">
<path fill-rule="evenodd" clip-rule="evenodd" d="M31.4385 40.0259H14.7949V38.4563H31.4385V40.0259Z" fill="#6D207B"/>
<path fill-rule="evenodd" clip-rule="evenodd" d="M24.0407 33.7474V38.4563H22.1914V33.7474H24.0407Z" fill="#6D207B"/>
<path fill-rule="evenodd" clip-rule="evenodd" d="M0 29.4307V6.27844H1.84928V29.4307L1.84929 29.4367L1.84938 29.4575C1.84949 29.4761 1.8497 29.504 1.85013 29.5399C1.85099 29.6118 1.85273 29.7157 1.85623 29.8421C1.86324 30.0956 1.87724 30.4354 1.90495 30.7859C1.93296 31.1402 1.97366 31.4873 2.0304 31.7616C2.05893 31.8996 2.08792 32.0011 2.1136 32.068C2.11453 32.0705 2.11545 32.0728 2.11633 32.0751C2.20342 32.1296 2.39624 32.2165 2.75028 32.3012C3.15419 32.3978 3.64387 32.4631 4.13741 32.505C4.62587 32.5465 5.09128 32.563 5.43644 32.5689C5.60827 32.5718 5.74851 32.5721 5.84472 32.5717C5.89279 32.5715 5.92975 32.5711 5.95405 32.5708L5.98076 32.5704L5.9866 32.5703L5.98756 32.5703L5.99869 32.57H39.3485L39.3991 32.5748L39.4006 32.5749L39.4077 32.5756L39.4389 32.5784C39.467 32.5808 39.5093 32.5844 39.5642 32.5888C39.6739 32.5975 39.8332 32.6093 40.0278 32.6211C40.4184 32.6448 40.9443 32.6681 41.4935 32.6681C42.0484 32.6681 42.5981 32.6441 43.0463 32.5807C43.27 32.5491 43.446 32.5106 43.5744 32.4698C43.6888 32.4334 43.7295 32.4063 43.7317 32.4053C43.7684 32.3718 43.8645 32.2398 43.9385 31.9256C44.0085 31.6285 44.0361 31.2686 44.0361 30.9023C44.0361 30.5406 44.0093 30.1976 43.9821 29.9433C43.9685 29.8168 43.955 29.714 43.9451 29.6438C43.9402 29.6088 43.9361 29.582 43.9334 29.5645L43.9304 29.5456L43.9298 29.5417L43.9205 29.4865V6.27844H45.7697V29.3785C45.7729 29.3994 45.7768 29.4257 45.7812 29.4568C45.793 29.5399 45.8084 29.6578 45.8237 29.8011C45.8543 30.0864 45.8853 30.4791 45.8854 30.9023C45.8854 31.3207 45.8552 31.7947 45.7519 32.2334C45.6544 32.6473 45.4645 33.1543 45.0369 33.5173C44.5824 33.9032 43.8851 34.0534 43.3504 34.129C42.7584 34.2127 42.0944 34.2378 41.4935 34.2378C40.8868 34.2378 40.3145 34.2121 39.896 34.1867C39.686 34.174 39.513 34.1612 39.3916 34.1516C39.3308 34.1467 39.2829 34.1427 39.2495 34.1398L39.2485 34.1397H6.02029L6.0183 34.1397L5.98277 34.1402C5.95243 34.1406 5.90903 34.1411 5.85416 34.1413C5.74449 34.1418 5.58856 34.1414 5.3992 34.1382C5.022 34.1318 4.50498 34.1138 3.95325 34.0669C3.40659 34.0205 2.7983 33.9435 2.24873 33.812C1.73406 33.6889 1.11621 33.4836 0.703114 33.0981C0.509522 32.9174 0.410086 32.6971 0.355274 32.5543C0.292399 32.3904 0.24549 32.2096 0.208966 32.033C0.135606 31.6783 0.0895907 31.2675 0.059816 30.891C0.0297359 30.5106 0.0148606 30.1466 0.00745391 29.879C0.00373908 29.7447 0.0018772 29.6338 0.000943147 29.5559C0.0004759 29.517 0.000240127 29.4862 0.000121138 29.465L1.59276e-05 29.4403L0 29.4307C0 29.4307 0 29.4308 0.111315 29.4307H0Z" fill="#6D207B"/>
<path d="M5.35536 31.431C5.57656 31.5316 5.82583 31.5792 6.07648 31.5689C6.32714 31.5585 6.56976 31.4905 6.77839 31.3721C9.01334 30.1028 11.6419 29.4251 14.3311 29.4251C17.0202 29.4251 19.6488 30.1028 21.8838 31.3721C21.9018 31.3827 21.9226 31.385 21.9407 31.3945C21.9615 31.4051 21.9767 31.4204 21.9989 31.4298C22.0461 31.451 22.0974 31.4604 22.1473 31.4769C22.1986 31.4945 22.2486 31.5134 22.3026 31.5251C22.3803 31.5428 22.458 31.5487 22.537 31.5546C22.5773 31.5569 22.6147 31.5687 22.6549 31.5687C22.666 31.5687 22.6771 31.5652 22.6896 31.5652C22.7382 31.564 22.7839 31.5557 22.8311 31.551C22.9014 31.5453 22.9711 31.5343 23.0391 31.5181C23.0877 31.5063 23.1334 31.4886 23.1806 31.4722C23.2236 31.4569 23.2694 31.4486 23.311 31.4298C23.3318 31.4204 23.3456 31.4062 23.3651 31.3956C23.3845 31.3862 23.4067 31.3815 23.4261 31.3709C25.661 30.1016 28.2897 29.424 30.9788 29.424C33.6679 29.424 36.2965 30.1016 38.5315 31.3709C38.74 31.49 38.983 31.5584 39.234 31.5688C39.4851 31.5792 39.7347 31.5311 39.9559 31.4298C40.4025 31.2249 40.6841 30.827 40.6841 30.3926V7.06337C40.6841 6.67017 40.4524 6.30287 40.0669 6.08391C37.5045 4.62959 34.5098 3.82017 31.4285 3.74913C28.3472 3.6781 25.3051 4.34835 22.6535 5.68247C20.002 4.34835 16.9599 3.6781 13.8786 3.74913C10.7973 3.82017 7.80257 4.62959 5.24024 6.08391C5.05043 6.19152 4.89481 6.3372 4.78716 6.50804C4.6795 6.67889 4.62313 6.86962 4.62305 7.06337V30.3926C4.62305 30.827 4.9046 31.2249 5.35536 31.431ZM37.9101 7.7132V28.3819C35.7399 27.5181 33.3723 27.0703 30.9753 27.0703C28.5783 27.0703 26.2107 27.5181 24.0405 28.3819V7.7132C26.1389 6.65514 28.5346 6.09673 30.9753 6.09673C33.4161 6.09673 35.8117 6.65514 37.9101 7.7132ZM7.39697 7.7132C9.49539 6.65514 11.891 6.09673 14.3318 6.09673C16.7725 6.09673 19.1682 6.65514 21.2666 7.7132V28.3819C19.0964 27.5181 16.7288 27.0703 14.3318 27.0703C11.9348 27.0703 9.56717 27.5181 7.39697 28.3819V7.7132Z" fill="#6D207B"/>
<path d="M208.26 35.9093L208.213 24.0063C208.213 22.2696 207.756 20.9471 206.843 20.0387C205.962 19.1303 204.593 18.676 202.735 18.676C201.476 18.676 200.217 19.0768 198.958 19.8784C197.73 20.6532 196.644 21.5616 195.7 22.6036V19.0367C196.204 18.5024 196.849 17.968 197.636 17.4336C198.423 16.8726 199.304 16.405 200.28 16.0309C201.287 15.6569 202.326 15.4698 203.396 15.4698C205.002 15.4698 206.465 15.7771 207.788 16.3916C209.11 16.9794 210.164 17.8879 210.951 19.1169C211.738 20.3192 212.132 21.8422 212.132 23.6857V35.9093H208.26ZM191.828 35.9093V15.8706H195.7V35.9093H191.828Z" fill="#6D207B"/>
<path d="M173.271 35.9093V15.8706H177.143V35.9093H173.271ZM177.143 23.8059V19.8784C178.056 18.5424 179.158 17.4737 180.449 16.6722C181.739 15.8706 183.061 15.4698 184.415 15.4698C185.328 15.4698 186.146 15.6034 186.87 15.8706V19.678C186.398 19.4375 185.91 19.2505 185.406 19.1169C184.903 18.9833 184.383 18.9165 183.848 18.9165C182.243 18.9165 180.936 19.3974 179.929 20.3593C178.953 21.3211 178.025 22.47 177.143 23.8059Z" fill="#6D207B"/>
<path d="M153.252 36.5105C151.237 36.5105 149.396 36.083 147.727 35.228C146.059 34.3463 144.721 33.1306 143.714 31.581C142.738 30.0313 142.25 28.2412 142.25 26.2106C142.25 23.993 142.738 22.0826 143.714 20.4795C144.721 18.8764 146.09 17.6474 147.822 16.7924C149.553 15.9107 151.489 15.4698 153.629 15.4698C154.983 15.4698 156.352 15.7504 157.737 16.3115C159.154 16.8458 160.366 17.594 161.373 18.5558V15.8706H165.245V35.9093H161.373V32.5027C160.555 33.5715 159.437 34.5066 158.021 35.3082C156.636 36.1097 155.046 36.5105 153.252 36.5105ZM153.865 33.3043C155.313 33.3043 156.604 32.9837 157.737 32.3424C158.87 31.7012 159.768 30.8195 160.429 29.6973C161.09 28.5484 161.404 27.266 161.373 25.8499L161.326 22.0025C160.35 20.9605 159.295 20.1455 158.162 19.5577C157.06 18.9699 155.786 18.676 154.338 18.676C152.638 18.676 151.19 19.0367 149.994 19.7581C148.797 20.4795 147.869 21.4147 147.208 22.5635C146.578 23.6857 146.263 24.9014 146.263 26.2106C146.263 27.4931 146.578 28.682 147.208 29.7775C147.837 30.8462 148.719 31.7012 149.852 32.3424C151.017 32.9837 152.354 33.3043 153.865 33.3043Z" fill="#6D207B"/>
<path d="M127.613 36.5105C125.819 36.5105 124.166 36.2433 122.655 35.7089C121.175 35.1479 119.869 34.3864 118.736 33.4245C117.634 32.4359 116.784 31.3138 116.186 30.058C115.588 28.7755 115.289 27.4263 115.289 26.0102C115.289 24.1132 115.777 22.3632 116.753 20.7601C117.729 19.157 119.066 17.8745 120.766 16.9126C122.498 15.9508 124.465 15.4698 126.668 15.4698C129.092 15.4698 131.107 15.8973 132.712 16.7523C134.318 17.6073 135.514 18.7696 136.301 20.2391C137.119 21.7086 137.528 23.3651 137.528 25.2087V27.1725H118.925V24.367H133.704C133.546 23.0578 133.106 21.9891 132.382 21.1608C131.689 20.3326 130.839 19.7181 129.832 19.3173C128.825 18.8898 127.77 18.676 126.668 18.676C125.157 18.676 123.851 19.0234 122.749 19.7181C121.648 20.386 120.798 21.2811 120.2 22.4032C119.602 23.4987 119.303 24.701 119.303 26.0102C119.303 27.2927 119.633 28.495 120.294 29.6172C120.987 30.7126 121.962 31.6077 123.222 32.3024C124.481 32.9703 125.944 33.3043 127.613 33.3043C129.313 33.3043 130.887 32.9436 132.334 32.2222C133.814 31.4741 135.057 30.6592 136.065 29.7775V33.3444C135.624 33.7986 134.963 34.2795 134.082 34.7872C133.232 35.2681 132.24 35.6689 131.107 35.9895C130.005 36.3368 128.84 36.5105 127.613 36.5105Z" fill="#6D207B"/>
<path d="M105.042 35.9093V7.05359H108.914V35.9093H105.042Z" fill="#6D207B"/>
<path d="M92.9082 36.5105C91.5861 36.5105 90.4372 36.2834 89.4614 35.8292C88.4855 35.3482 87.7301 34.6803 87.1949 33.8253C86.6598 32.9703 86.3922 31.9817 86.3922 30.8596V18.9566H81.8594V17.9947C83.4018 17.4069 84.6924 16.4451 85.7312 15.1092C86.77 13.7465 87.6828 12.0766 88.4698 10.0995H90.2641V15.8706H97.866V18.9566H90.2641V30.6993C90.2641 31.5275 90.5788 32.1821 91.2084 32.6631C91.8694 33.144 92.7193 33.3845 93.7581 33.3845C94.7025 33.3845 95.5524 33.2909 96.3079 33.1039C97.0948 32.8902 97.7244 32.6631 98.1966 32.4226V35.3082C97.567 35.7357 96.8273 36.0429 95.9773 36.2299C95.1274 36.417 94.1044 36.5105 92.9082 36.5105Z" fill="#6D207B"/>
<path d="M63.7272 36.5105C61.7126 36.5105 59.8711 36.083 58.2028 35.228C56.5344 34.3463 55.1966 33.1306 54.1893 31.581C53.2135 30.0313 52.7256 28.2412 52.7256 26.2106C52.7256 23.993 53.2135 22.0826 54.1893 20.4795C55.1966 18.8764 56.5659 17.6474 58.2972 16.7924C60.0285 15.9107 61.9644 15.4698 64.1049 15.4698C65.4585 15.4698 66.8278 15.7504 68.2129 16.3115C69.6294 16.8458 70.8413 17.594 71.8486 18.5558V15.8706H75.7204V35.9093H71.8486V32.5027C71.0301 33.5715 69.9127 34.5066 68.4962 35.3082C67.1111 36.1097 65.5215 36.5105 63.7272 36.5105ZM64.341 33.3043C65.789 33.3043 67.0796 32.9837 68.2129 32.3424C69.3461 31.7012 70.2432 30.8195 70.9042 29.6973C71.5653 28.5484 71.8801 27.266 71.8486 25.8499L71.8014 22.0025C70.8255 20.9605 69.771 20.1455 68.6378 19.5577C67.5361 18.9699 66.2612 18.676 64.8132 18.676C63.1134 18.676 61.6654 19.0367 60.4692 19.7581C59.273 20.4795 58.3444 21.4147 57.6834 22.5635C57.0538 23.6857 56.7391 24.9014 56.7391 26.2106C56.7391 27.4931 57.0538 28.682 57.6834 29.7775C58.313 30.8462 59.1944 31.7012 60.3276 32.3424C61.4923 32.9837 62.8301 33.3043 64.341 33.3043Z" fill="#6D207B"/>
<path d="M219.725 52.2514C219.196 52.2514 218.739 52.1522 218.355 51.9538C217.974 51.7534 217.679 51.4741 217.472 51.1158C217.267 50.7555 217.164 50.3366 217.164 49.8589C217.164 49.3812 217.267 48.9602 217.472 48.5958C217.679 48.2295 217.968 47.9441 218.337 47.7396C218.709 47.5332 219.143 47.4299 219.639 47.4299C219.926 47.4299 220.208 47.4704 220.487 47.5514C220.766 47.6323 221.02 47.7639 221.249 47.9461C221.478 48.1262 221.66 48.3651 221.796 48.6626C221.932 48.9602 222 49.3265 222 49.7617V50.0653H217.765V49.4459H221.142C221.142 49.1828 221.08 48.948 220.956 48.7416C220.834 48.5351 220.66 48.3722 220.433 48.2527C220.209 48.1333 219.945 48.0736 219.639 48.0736C219.303 48.0736 219.012 48.1444 218.767 48.2861C218.523 48.4258 218.336 48.608 218.205 48.8326C218.074 49.0573 218.008 49.2982 218.008 49.5552V49.9682C218.008 50.3204 218.08 50.6189 218.223 50.8638C218.368 51.1067 218.57 51.2919 218.827 51.4195C219.085 51.5449 219.384 51.6077 219.725 51.6077C219.947 51.6077 220.147 51.5814 220.326 51.5288C220.507 51.4741 220.664 51.3931 220.795 51.2859C220.926 51.1766 221.027 51.0409 221.099 50.879L221.914 51.0733C221.829 51.3081 221.684 51.5146 221.482 51.6927C221.279 51.8688 221.028 52.0064 220.73 52.1056C220.432 52.2028 220.097 52.2514 219.725 52.2514Z" fill="black"/>
<path d="M208.667 52.1542V47.4907H209.482V48.2193H209.554C209.668 47.9704 209.853 47.7771 210.108 47.6394C210.363 47.4998 210.67 47.4299 211.027 47.4299C211.39 47.4299 211.692 47.4998 211.932 47.6394C212.176 47.7771 212.365 47.9704 212.501 48.2193H212.558C212.699 47.9785 212.91 47.7872 213.191 47.6455C213.473 47.5018 213.81 47.4299 214.204 47.4299C214.695 47.4299 215.097 47.5605 215.409 47.8216C215.722 48.0807 215.878 48.4845 215.878 49.033V52.1542H215.034V49.033C215.034 48.6889 214.923 48.443 214.701 48.2952C214.479 48.1475 214.218 48.0736 213.918 48.0736C213.531 48.0736 213.232 48.1728 213.02 48.3711C212.808 48.5675 212.701 48.8164 212.701 49.118V52.1542H211.843V48.9602C211.843 48.695 211.742 48.4815 211.539 48.3195C211.336 48.1556 211.075 48.0736 210.756 48.0736C210.536 48.0736 210.331 48.1232 210.14 48.2224C209.952 48.3216 209.799 48.4592 209.682 48.6353C209.568 48.8094 209.511 49.0108 209.511 49.2395V52.1542H208.667Z" fill="black"/>
<path d="M206.276 52.154V47.4904H207.12V52.154H206.276ZM206.705 46.7132C206.541 46.7132 206.399 46.6656 206.28 46.5705C206.163 46.4753 206.104 46.361 206.104 46.2274C206.104 46.0938 206.163 45.9794 206.28 45.8843C206.399 45.7891 206.541 45.7416 206.705 45.7416C206.87 45.7416 207.011 45.7891 207.128 45.8843C207.247 45.9794 207.306 46.0938 207.306 46.2274C207.306 46.361 207.247 46.4753 207.128 46.5705C207.011 46.6656 206.87 46.7132 206.705 46.7132Z" fill="black"/>
<path d="M199.527 46.604V45.936H205.021V46.604H202.718V52.1541H201.83V46.604H199.527Z" fill="black"/>
<path d="M190.588 52.1541H189.658L192.348 45.936H193.264L195.954 52.1541H195.024L192.835 46.9198H192.777L190.588 52.1541ZM190.932 49.7252H194.68V50.3931H190.932V49.7252Z" fill="black"/>
<path d="M186.07 47.4905V48.0977H183.223V47.4905H186.07ZM184.053 46.3732H184.897V50.8181C184.897 51.0205 184.931 51.1723 185 51.2735C185.072 51.3727 185.163 51.4395 185.272 51.4739C185.384 51.5063 185.502 51.5225 185.626 51.5225C185.719 51.5225 185.796 51.5185 185.855 51.5104C185.915 51.5002 185.963 51.4921 185.998 51.4861L186.17 52.1297C186.113 52.148 186.033 52.1662 185.931 52.1844C185.828 52.2046 185.698 52.2148 185.541 52.2148C185.302 52.2148 185.068 52.1712 184.839 52.0842C184.613 51.9972 184.425 51.8646 184.274 51.6865C184.126 51.5083 184.053 51.2837 184.053 51.0124V46.3732Z" fill="black"/>
<path d="M177.633 52.1541H176.703L179.393 45.936H180.308L182.998 52.1541H182.068L179.879 46.9198H179.822L177.633 52.1541ZM177.976 49.7252H181.725V50.3931H177.976V49.7252Z" fill="black"/>
<path d="M169.692 50.4539L169.678 49.5673H169.85L172.253 47.4906H173.298L170.737 49.6887H170.665L169.692 50.4539ZM168.905 52.1541V45.936H169.749V52.1541H168.905ZM172.396 52.1541L170.25 49.8466L170.851 49.3487L173.47 52.1541H172.396Z" fill="black"/>
<path d="M165.511 52.2514C164.996 52.2514 164.552 52.1481 164.18 51.9417C163.808 51.7352 163.522 51.4508 163.322 51.0885C163.122 50.7262 163.021 50.3123 163.021 49.8467C163.021 49.3731 163.124 48.9551 163.329 48.5928C163.537 48.2284 163.825 47.9441 164.195 47.7396C164.567 47.5332 165.001 47.4299 165.497 47.4299C165.883 47.4299 166.231 47.4907 166.541 47.6121C166.851 47.7335 167.105 47.9036 167.303 48.1222C167.501 48.3408 167.624 48.5958 167.672 48.8873H166.827C166.763 48.6748 166.62 48.4865 166.398 48.3226C166.179 48.1566 165.883 48.0736 165.511 48.0736C165.182 48.0736 164.893 48.1465 164.645 48.2922C164.4 48.4359 164.208 48.6393 164.07 48.9025C163.934 49.1636 163.866 49.4702 163.866 49.8224C163.866 50.1827 163.932 50.4965 164.066 50.7636C164.202 51.0308 164.393 51.2383 164.638 51.3861C164.886 51.5338 165.177 51.6077 165.511 51.6077C165.731 51.6077 165.93 51.5753 166.108 51.5105C166.287 51.4458 166.439 51.3527 166.563 51.2312C166.687 51.1098 166.775 50.964 166.827 50.794H167.672C167.624 51.0693 167.506 51.3172 167.318 51.5379C167.132 51.7565 166.885 51.9305 166.577 52.0601C166.272 52.1876 165.917 52.2514 165.511 52.2514Z" fill="black"/>
<path d="M160.888 52.154V47.4904H161.733V52.154H160.888ZM161.318 46.7132C161.153 46.7132 161.011 46.6656 160.892 46.5705C160.775 46.4753 160.717 46.361 160.717 46.2274C160.717 46.0938 160.775 45.9794 160.892 45.8843C161.011 45.7891 161.153 45.7416 161.318 45.7416C161.482 45.7416 161.623 45.7891 161.74 45.8843C161.859 45.9794 161.919 46.0938 161.919 46.2274C161.919 46.361 161.859 46.4753 161.74 46.5705C161.623 46.6656 161.482 46.7132 161.318 46.7132Z" fill="black"/>
<path d="M159.342 45.936V52.1541H158.498V45.936H159.342Z" fill="black"/>
<path d="M157.179 47.8791H156.292C156.24 47.6625 156.148 47.4723 156.017 47.3083C155.888 47.1444 155.731 47.0067 155.544 46.8954C155.361 46.782 155.157 46.697 154.933 46.6404C154.709 46.5837 154.475 46.5553 154.232 46.5553C153.788 46.5553 153.386 46.6505 153.026 46.8407C152.669 47.031 152.384 47.3113 152.171 47.6818C151.961 48.0522 151.857 48.5066 151.857 49.045C151.857 49.5834 151.961 50.0378 152.171 50.4082C152.384 50.7787 152.669 51.059 153.026 51.2493C153.386 51.4395 153.788 51.5347 154.232 51.5347C154.475 51.5347 154.709 51.5063 154.933 51.4496C155.157 51.393 155.361 51.309 155.544 51.1976C155.731 51.0843 155.888 50.9456 156.017 50.7817C156.148 50.6157 156.24 50.4254 156.292 50.2109H157.179C157.112 50.5287 156.991 50.8131 156.814 51.0641C156.638 51.315 156.418 51.5286 156.156 51.7047C155.894 51.8788 155.599 52.0113 155.273 52.1024C154.948 52.1935 154.601 52.239 154.232 52.239C153.607 52.239 153.051 52.1095 152.565 51.8504C152.078 51.5913 151.696 51.2229 151.417 50.7453C151.138 50.2676 150.998 49.7008 150.998 49.045C150.998 48.3892 151.138 47.8224 151.417 47.3447C151.696 46.8671 152.078 46.4987 152.565 46.2396C153.051 45.9805 153.607 45.851 154.232 45.851C154.601 45.851 154.948 45.8965 155.273 45.9876C155.599 46.0787 155.894 46.2123 156.156 46.3884C156.418 46.5624 156.638 46.775 156.814 47.0259C156.991 47.2749 157.112 47.5593 157.179 47.8791Z" fill="black"/>
<path d="M144.777 52.2514C144.248 52.2514 143.791 52.1522 143.407 51.9538C143.026 51.7534 142.731 51.4741 142.524 51.1158C142.319 50.7555 142.216 50.3366 142.216 49.8589C142.216 49.3812 142.319 48.9602 142.524 48.5958C142.731 48.2295 143.02 47.9441 143.39 47.7396C143.762 47.5332 144.196 47.4299 144.692 47.4299C144.978 47.4299 145.26 47.4704 145.539 47.5514C145.818 47.6323 146.072 47.7639 146.301 47.9461C146.53 48.1262 146.713 48.3651 146.849 48.6626C146.985 48.9602 147.053 49.3265 147.053 49.7617V50.0653H142.817V49.4459H146.194C146.194 49.1828 146.132 48.948 146.008 48.7416C145.886 48.5351 145.712 48.3722 145.486 48.2527C145.262 48.1333 144.997 48.0736 144.692 48.0736C144.355 48.0736 144.064 48.1444 143.819 48.2861C143.576 48.4258 143.388 48.608 143.257 48.8326C143.126 49.0573 143.061 49.2982 143.061 49.5552V49.9682C143.061 50.3204 143.132 50.6189 143.275 50.8638C143.421 51.1067 143.622 51.2919 143.88 51.4195C144.137 51.5449 144.436 51.6077 144.777 51.6077C144.999 51.6077 145.2 51.5814 145.378 51.5288C145.56 51.4741 145.716 51.3931 145.847 51.2859C145.978 51.1766 146.08 51.0409 146.151 50.879L146.967 51.0733C146.881 51.3081 146.737 51.5146 146.534 51.6927C146.331 51.8688 146.081 52.0064 145.783 52.1056C145.485 52.2028 145.15 52.2514 144.777 52.2514Z" fill="black"/>
<path d="M137.426 49.3488V52.1542H136.582V47.4907H137.397V48.2193H137.469C137.597 47.9825 137.793 47.7922 138.055 47.6485C138.318 47.5028 138.656 47.4299 139.071 47.4299C139.443 47.4299 139.769 47.4947 140.048 47.6242C140.327 47.7518 140.544 47.9461 140.699 48.2072C140.854 48.4663 140.931 48.7942 140.931 49.1909V52.1542H140.087V49.2395C140.087 48.8731 139.975 48.5877 139.751 48.3833C139.527 48.1768 139.219 48.0736 138.828 48.0736C138.558 48.0736 138.318 48.1232 138.105 48.2224C137.896 48.3216 137.73 48.4663 137.608 48.6565C137.487 48.8468 137.426 49.0776 137.426 49.3488Z" fill="black"/>
<path d="M135.204 49.045C135.204 49.7008 135.065 50.2676 134.786 50.7453C134.507 51.2229 134.124 51.5913 133.637 51.8504C133.151 52.1095 132.595 52.239 131.97 52.239C131.346 52.239 130.79 52.1095 130.304 51.8504C129.817 51.5913 129.434 51.2229 129.155 50.7453C128.876 50.2676 128.737 49.7008 128.737 49.045C128.737 48.3892 128.876 47.8224 129.155 47.3447C129.434 46.8671 129.817 46.4987 130.304 46.2396C130.79 45.9805 131.346 45.851 131.97 45.851C132.595 45.851 133.151 45.9805 133.637 46.2396C134.124 46.4987 134.507 46.8671 134.786 47.3447C135.065 47.8224 135.204 48.3892 135.204 49.045ZM134.346 49.045C134.346 48.5066 134.24 48.0522 134.027 47.6818C133.817 47.3113 133.532 47.031 133.172 46.8407C132.815 46.6505 132.414 46.5553 131.97 46.5553C131.527 46.5553 131.125 46.6505 130.765 46.8407C130.407 47.031 130.122 47.3113 129.91 47.6818C129.7 48.0522 129.595 48.5066 129.595 49.045C129.595 49.5834 129.7 50.0378 129.91 50.4082C130.122 50.7787 130.407 51.059 130.765 51.2493C131.125 51.4395 131.527 51.5347 131.97 51.5347C132.414 51.5347 132.815 51.4395 133.172 51.2493C133.532 51.059 133.817 50.7787 134.027 50.4082C134.24 50.0378 134.346 49.5834 134.346 49.045Z" fill="black"/>
<path d="M124.512 51.304L124.454 51.6319C124.414 51.8626 124.352 52.1096 124.268 52.3727C124.187 52.6358 124.103 52.8838 124.014 53.1165C123.926 53.3493 123.853 53.5345 123.796 53.6722H123.152C123.183 53.5426 123.224 53.3716 123.274 53.1591C123.324 52.9465 123.374 52.7087 123.424 52.4456C123.477 52.1844 123.52 51.9173 123.553 51.644L123.596 51.304H124.512Z" fill="black"/>
<path d="M121.881 48.5351L121.123 48.7173C121.075 48.61 121.005 48.5057 120.912 48.4045C120.821 48.3013 120.697 48.2163 120.54 48.1495C120.382 48.0827 120.181 48.0493 119.935 48.0493C119.599 48.0493 119.319 48.1151 119.095 48.2467C118.873 48.3762 118.762 48.5412 118.762 48.7416C118.762 48.9197 118.838 49.0604 118.991 49.1636C119.144 49.2668 119.382 49.3528 119.706 49.4217L120.522 49.5917C121.013 49.6929 121.379 49.8477 121.62 50.0562C121.861 50.2627 121.981 50.5288 121.981 50.8547C121.981 51.1219 121.891 51.3608 121.709 51.5713C121.531 51.7818 121.28 51.9477 120.958 52.0692C120.636 52.1906 120.262 52.2514 119.835 52.2514C119.275 52.2514 118.811 52.1481 118.444 51.9417C118.076 51.7352 117.844 51.4336 117.746 51.0369L118.547 50.8669C118.624 51.1179 118.768 51.3061 118.98 51.4316C119.195 51.5571 119.475 51.6198 119.821 51.6198C120.214 51.6198 120.527 51.549 120.758 51.4073C120.992 51.2636 121.109 51.0915 121.109 50.8912C121.109 50.7292 121.042 50.5936 120.908 50.4843C120.775 50.373 120.57 50.29 120.293 50.2353L119.377 50.0532C118.874 49.952 118.504 49.7951 118.268 49.5826C118.035 49.368 117.918 49.0998 117.918 48.778C117.918 48.5149 118.005 48.2821 118.179 48.0797C118.355 47.8773 118.595 47.7184 118.898 47.603C119.203 47.4876 119.549 47.4299 119.935 47.4299C120.479 47.4299 120.906 47.5311 121.216 47.7335C121.528 47.936 121.75 48.2031 121.881 48.5351Z" fill="black"/>
<path d="M113.808 52.2513C113.35 52.2513 112.946 52.1531 112.596 51.9568C112.245 51.7584 111.971 51.4791 111.773 51.1188C111.575 50.7565 111.476 50.3284 111.476 49.8345C111.476 49.3446 111.575 48.9196 111.773 48.5593C111.971 48.199 112.246 47.9207 112.599 47.7243C112.952 47.528 113.36 47.4298 113.823 47.4298C114.18 47.4298 114.463 47.4804 114.67 47.5816C114.88 47.6808 115.04 47.7942 115.15 47.9217C115.262 48.0472 115.349 48.1504 115.411 48.2314H115.482V45.936H116.327V52.1541H115.511V51.4376H115.411C115.349 51.5226 115.261 51.6299 115.146 51.7594C115.032 51.8869 114.868 52.0013 114.656 52.1025C114.444 52.2017 114.161 52.2513 113.808 52.2513ZM113.923 51.6076C114.261 51.6076 114.548 51.5327 114.781 51.3829C115.015 51.2311 115.193 51.0216 115.314 50.7544C115.436 50.4852 115.497 50.1745 115.497 49.8223C115.497 49.4742 115.437 49.1696 115.318 48.9084C115.199 48.6453 115.022 48.4409 114.788 48.2951C114.555 48.1474 114.266 48.0735 113.923 48.0735C113.565 48.0735 113.267 48.1514 113.029 48.3073C112.792 48.4611 112.615 48.6706 112.496 48.9358C112.379 49.1989 112.32 49.4944 112.32 49.8223C112.32 50.1543 112.38 50.4559 112.499 50.7271C112.621 50.9963 112.8 51.2109 113.036 51.3708C113.274 51.5287 113.57 51.6076 113.923 51.6076Z" fill="black"/>
<path d="M106.685 49.3488V52.1542H105.841V47.4907H106.656V48.2193H106.728C106.857 47.9825 107.052 47.7922 107.315 47.6485C107.577 47.5028 107.916 47.4299 108.33 47.4299C108.702 47.4299 109.028 47.4947 109.307 47.6242C109.586 47.7518 109.803 47.9461 109.958 48.2072C110.113 48.4663 110.191 48.7942 110.191 49.1909V52.1542H109.346V49.2395C109.346 48.8731 109.234 48.5877 109.01 48.3833C108.786 48.1768 108.478 48.0736 108.087 48.0736C107.818 48.0736 107.577 48.1232 107.365 48.2224C107.155 48.3216 106.989 48.4663 106.867 48.6565C106.746 48.8468 106.685 49.0776 106.685 49.3488Z" fill="black"/>
<path d="M103.451 52.154V47.4904H104.295V52.154H103.451ZM103.88 46.7132C103.716 46.7132 103.574 46.6656 103.455 46.5705C103.338 46.4753 103.279 46.361 103.279 46.2274C103.279 46.0938 103.338 45.9794 103.455 45.8843C103.574 45.7891 103.716 45.7416 103.88 45.7416C104.045 45.7416 104.185 45.7891 104.302 45.8843C104.422 45.9794 104.481 46.0938 104.481 46.2274C104.481 46.361 104.422 46.4753 104.302 46.5705C104.185 46.6656 104.045 46.7132 103.88 46.7132Z" fill="black"/>
<path d="M94.604 45.936H95.6628L98.1525 51.0975H98.2383L100.728 45.936H101.787V52.1541H100.957V47.4298H100.885L98.596 52.1541H97.7947L95.5054 47.4298H95.4339V52.1541H94.604V45.936Z" fill="black"/>
<path d="M87.7356 54.0002C87.3278 54.0002 86.9772 53.9557 86.6839 53.8666C86.3906 53.7796 86.1462 53.6642 85.9506 53.5205C85.7575 53.3788 85.6037 53.227 85.4892 53.0651L86.1617 52.6643C86.238 52.7493 86.3346 52.8465 86.4514 52.9558C86.5683 53.0671 86.728 53.1632 86.9307 53.2442C87.1358 53.3272 87.4041 53.3687 87.7356 53.3687C88.1791 53.3687 88.5452 53.2776 88.8337 53.0954C89.1223 52.9132 89.2666 52.6278 89.2666 52.2392V51.2919H89.195C89.133 51.3769 89.0448 51.4822 88.9303 51.6077C88.8182 51.7312 88.6561 51.8415 88.4438 51.9386C88.234 52.0338 87.9502 52.0813 87.5925 52.0813C87.1489 52.0813 86.7507 51.9923 86.3978 51.8142C86.0472 51.636 85.7694 51.3769 85.5643 51.0369C85.3616 50.6968 85.2603 50.2839 85.2603 49.7981C85.2603 49.3205 85.3592 48.9045 85.5571 48.5503C85.7551 48.194 86.0305 47.9188 86.3835 47.7244C86.7364 47.5281 87.1442 47.4299 87.6068 47.4299C87.9645 47.4299 88.2483 47.4805 88.4582 47.5817C88.6704 47.6809 88.8325 47.7943 88.9446 47.9218C89.0591 48.0473 89.1473 48.1505 89.2093 48.2315H89.2952V47.4907H90.1108V52.2878C90.1108 52.6886 90.0034 53.0145 89.7888 53.2654C89.5766 53.5185 89.2904 53.7037 88.9303 53.8211C88.5726 53.9405 88.1744 54.0002 87.7356 54.0002ZM87.707 51.4377C88.0456 51.4377 88.3318 51.3719 88.5655 51.2403C88.7992 51.1088 88.9768 50.9195 89.0984 50.6726C89.2201 50.4256 89.2809 50.1301 89.2809 49.786C89.2809 49.45 89.2213 49.1535 89.102 48.8964C88.9828 48.6393 88.8063 48.4379 88.5726 48.2922C88.3389 48.1465 88.0504 48.0736 87.707 48.0736C87.3493 48.0736 87.0512 48.1505 86.8127 48.3043C86.5766 48.4582 86.399 48.6646 86.2797 48.9237C86.1629 49.1828 86.1044 49.4702 86.1044 49.786C86.1044 50.1099 86.1641 50.3963 86.2833 50.6452C86.4049 50.8922 86.5838 51.0865 86.8199 51.2282C87.0583 51.3678 87.354 51.4377 87.707 51.4377Z" fill="black"/>
<path d="M80.4697 49.3488V52.1542H79.6255V47.4907H80.4411V48.2193H80.5126C80.6414 47.9825 80.8369 47.7922 81.0992 47.6485C81.3616 47.5028 81.7002 47.4299 82.1151 47.4299C82.4871 47.4299 82.8127 47.4947 83.0917 47.6242C83.3707 47.7518 83.5877 47.9461 83.7427 48.2072C83.8977 48.4663 83.9752 48.7942 83.9752 49.1909V52.1542H83.131V49.2395C83.131 48.8731 83.0189 48.5877 82.7948 48.3833C82.5706 48.1768 82.263 48.0736 81.8719 48.0736C81.6024 48.0736 81.3616 48.1232 81.1493 48.2224C80.9395 48.3216 80.7737 48.4663 80.6521 48.6565C80.5305 48.8468 80.4697 49.0776 80.4697 49.3488Z" fill="black"/>
<path d="M77.2352 52.154V47.4904H78.0794V52.154H77.2352ZM77.6644 46.7132C77.4999 46.7132 77.358 46.6656 77.2388 46.5705C77.1219 46.4753 77.0635 46.361 77.0635 46.2274C77.0635 46.0938 77.1219 45.9794 77.2388 45.8843C77.358 45.7891 77.4999 45.7416 77.6644 45.7416C77.829 45.7416 77.9697 45.7891 78.0865 45.8843C78.2058 45.9794 78.2654 46.0938 78.2654 46.2274C78.2654 46.361 78.2058 46.4753 78.0865 46.5705C77.9697 46.6656 77.829 46.7132 77.6644 46.7132Z" fill="black"/>
<path d="M73.4873 52.154V47.4905H74.3029V48.1949H74.3601C74.4603 47.9641 74.6415 47.7769 74.9038 47.6332C75.1661 47.4895 75.4618 47.4176 75.7909 47.4176C75.8529 47.4176 75.9304 47.4186 76.0234 47.4206C76.1164 47.4227 76.1868 47.4257 76.2345 47.4297V48.1584C76.2059 48.1524 76.1403 48.1432 76.0378 48.1311C75.9376 48.1169 75.8315 48.1098 75.7194 48.1098C75.4523 48.1098 75.2138 48.1574 75.004 48.2525C74.7965 48.3457 74.632 48.4752 74.5103 48.6412C74.3911 48.8051 74.3315 48.9924 74.3315 49.2029V52.154H73.4873Z" fill="black"/>
<path d="M71.097 52.154V47.4904H71.9412V52.154H71.097ZM71.5262 46.7132C71.3617 46.7132 71.2198 46.6656 71.1006 46.5705C70.9837 46.4753 70.9253 46.361 70.9253 46.2274C70.9253 46.0938 70.9837 45.9794 71.1006 45.8843C71.2198 45.7891 71.3617 45.7416 71.5262 45.7416C71.6908 45.7416 71.8315 45.7891 71.9483 45.8843C72.0676 45.9794 72.1272 46.0938 72.1272 46.2274C72.1272 46.361 72.0676 46.4753 71.9483 46.5705C71.8315 46.6656 71.6908 46.7132 71.5262 46.7132Z" fill="black"/>
<path d="M64.9585 53.903V47.4907H65.7741V48.2315H65.8742C65.9362 48.1505 66.0221 48.0473 66.1318 47.9218C66.2439 47.7943 66.4036 47.6809 66.6111 47.5817C66.821 47.4805 67.1047 47.4299 67.4624 47.4299C67.9251 47.4299 68.3329 47.5281 68.6858 47.7244C69.0387 47.9208 69.3142 48.1991 69.5121 48.5594C69.71 48.9197 69.809 49.3447 69.809 49.8346C69.809 50.3285 69.71 50.7566 69.5121 51.1189C69.3142 51.4792 69.0399 51.7585 68.6894 51.9569C68.3388 52.1532 67.9346 52.2514 67.4768 52.2514C67.1238 52.2514 66.8412 52.2018 66.629 52.1026C66.4167 52.0014 66.2534 51.887 66.1389 51.7595C66.0245 51.63 65.9362 51.5227 65.8742 51.4377H65.8027V53.903H64.9585ZM65.7884 49.8224C65.7884 50.1746 65.8492 50.4853 65.9708 50.7545C66.0924 51.0217 66.2701 51.2312 66.5038 51.383C66.7375 51.5328 67.0237 51.6077 67.3623 51.6077C67.7152 51.6077 68.0097 51.5288 68.2458 51.3709C68.4843 51.211 68.6631 50.9964 68.7824 50.7272C68.904 50.456 68.9648 50.1544 68.9648 49.8224C68.9648 49.4945 68.9052 49.199 68.786 48.9359C68.6691 48.6707 68.4914 48.4612 68.253 48.3074C68.0169 48.1515 67.72 48.0736 67.3623 48.0736C67.0189 48.0736 66.7303 48.1475 66.4966 48.2952C66.2629 48.441 66.0865 48.6454 65.9672 48.9085C65.848 49.1697 65.7884 49.4743 65.7884 49.8224Z" fill="black"/>
<path d="M63.5882 48.5351L62.8299 48.7173C62.7822 48.61 62.7118 48.5057 62.6188 48.4045C62.5282 48.3013 62.4042 48.2163 62.2468 48.1495C62.0894 48.0827 61.8879 48.0493 61.6423 48.0493C61.306 48.0493 61.0258 48.1151 60.8017 48.2467C60.5799 48.3762 60.469 48.5412 60.469 48.7416C60.469 48.9197 60.5453 49.0604 60.6979 49.1636C60.8506 49.2668 61.089 49.3528 61.4134 49.4217L62.2289 49.5917C62.7202 49.6929 63.0862 49.8477 63.3271 50.0562C63.5679 50.2627 63.6884 50.5288 63.6884 50.8547C63.6884 51.1219 63.5978 51.3608 63.4165 51.5713C63.2377 51.7818 62.9873 51.9477 62.6653 52.0692C62.3434 52.1906 61.969 52.2514 61.5421 52.2514C60.9817 52.2514 60.5179 52.1481 60.1507 51.9417C59.7834 51.7352 59.5509 51.4336 59.4531 51.0369L60.2544 50.8669C60.3307 51.1179 60.475 51.3061 60.6872 51.4316C60.9018 51.5571 61.182 51.6198 61.5278 51.6198C61.9213 51.6198 62.2337 51.549 62.465 51.4073C62.6987 51.2636 62.8156 51.0915 62.8156 50.8912C62.8156 50.7292 62.7488 50.5936 62.6153 50.4843C62.4817 50.373 62.2766 50.29 62 50.2353L61.0843 50.0532C60.5811 49.952 60.2115 49.7951 59.9754 49.5826C59.7417 49.368 59.6248 49.0998 59.6248 48.778C59.6248 48.5149 59.7119 48.2821 59.8859 48.0797C60.0624 47.8773 60.3021 47.7184 60.6049 47.603C60.9102 47.4876 61.256 47.4299 61.6423 47.4299C62.186 47.4299 62.6129 47.5311 62.9229 47.7335C63.2353 47.936 63.4571 48.2031 63.5882 48.5351Z" fill="black"/>
<path d="M54.6479 49.3488V52.1542H53.8037V47.4907H54.6193V48.2193H54.6908C54.8196 47.9825 55.0151 47.7922 55.2775 47.6485C55.5398 47.5028 55.8784 47.4299 56.2933 47.4299C56.6654 47.4299 56.9909 47.4947 57.2699 47.6242C57.5489 47.7518 57.7659 47.9461 57.9209 48.2072C58.0759 48.4663 58.1534 48.7942 58.1534 49.1909V52.1542H57.3092V49.2395C57.3092 48.8731 57.1972 48.5877 56.973 48.3833C56.7488 48.1768 56.4412 48.0736 56.0501 48.0736C55.7806 48.0736 55.5398 48.1232 55.3275 48.2224C55.1177 48.3216 54.9519 48.4663 54.8303 48.6565C54.7087 48.8468 54.6479 49.0776 54.6479 49.3488Z" fill="black"/>
<path d="M52.1396 45.936V52.1541H51.2524V45.936H52.1396Z" fill="black"/>
</svg>
