<svg width="221" height="64" viewBox="0 0 221 64" fill="none" xmlns="http://www.w3.org/2000/svg">
<path fill-rule="evenodd" clip-rule="evenodd" d="M31.2104 46.8148H14.6875V44.9789H31.2104V46.8148Z" fill="white"/>
<path fill-rule="evenodd" clip-rule="evenodd" d="M23.8666 39.4712V44.9789H22.0308V39.4712H23.8666Z" fill="white"/>
<path fill-rule="evenodd" clip-rule="evenodd" d="M0 34.4226V7.34338H1.83588V34.4225L1.83589 34.4296L1.83598 34.4539C1.83608 34.4757 1.83629 34.5083 1.83672 34.5503C1.83757 34.6344 1.8393 34.7559 1.84277 34.9037C1.84974 35.2002 1.86363 35.5977 1.89114 36.0076C1.91895 36.422 1.95935 36.8279 2.01568 37.1488C2.044 37.3102 2.07278 37.4289 2.09828 37.5072C2.09921 37.5101 2.10011 37.5128 2.10099 37.5154C2.18744 37.5792 2.37887 37.6809 2.73034 37.7799C3.13133 37.8929 3.61746 37.9693 4.10742 38.0183C4.59234 38.0669 5.05437 38.0861 5.39704 38.093C5.56762 38.0964 5.70684 38.0968 5.80236 38.0963C5.85007 38.096 5.88677 38.0956 5.91089 38.0952L5.9374 38.0948L5.9432 38.0946L5.94416 38.0946L5.95521 38.0943H39.0632L39.1135 38.0999L39.115 38.1001L39.1221 38.1008L39.153 38.1041C39.1809 38.107 39.2229 38.1112 39.2774 38.1163C39.3863 38.1265 39.5445 38.1402 39.7376 38.154C40.1254 38.1817 40.6475 38.2091 41.1927 38.2091C41.7436 38.2091 42.2893 38.181 42.7343 38.1068C42.9564 38.0698 43.1311 38.0249 43.2585 37.9771C43.3721 37.9345 43.4125 37.9028 43.4147 37.9016C43.4511 37.8625 43.5465 37.7081 43.62 37.3407C43.6895 36.9931 43.7169 36.5722 43.7169 36.1437C43.7168 35.7207 43.6903 35.3195 43.6632 35.022C43.6498 34.8741 43.6364 34.7539 43.6266 34.6718C43.6216 34.6308 43.6176 34.5994 43.6149 34.5791L43.6119 34.557L43.6113 34.5524L43.6021 34.4878V7.34338H45.438V34.3615C45.4411 34.386 45.445 34.4167 45.4494 34.453C45.461 34.5502 45.4763 34.6882 45.4916 34.8558C45.5219 35.1894 45.5527 35.6488 45.5527 36.1437C45.5527 36.6331 45.5228 37.1875 45.4202 37.7006C45.3234 38.1847 45.1349 38.7777 44.7104 39.2023C44.2593 39.6536 43.567 39.8292 43.0361 39.9177C42.4484 40.0157 41.7892 40.045 41.1927 40.045C40.5904 40.045 40.0223 40.0149 39.6068 39.9852C39.3984 39.9704 39.2266 39.9554 39.106 39.9441C39.0457 39.9385 38.9981 39.9337 38.965 39.9303L38.964 39.9302H5.97664L5.97468 39.9303L5.9394 39.9309C5.90928 39.9313 5.8662 39.9319 5.81172 39.9321C5.70285 39.9327 5.54805 39.9323 5.36006 39.9285C4.9856 39.921 4.47233 39.8999 3.92459 39.8451C3.3819 39.7908 2.77802 39.7007 2.23243 39.547C1.72149 39.403 1.10812 39.1629 0.698017 38.712C0.505829 38.5006 0.407113 38.2429 0.352698 38.0759C0.290279 37.8843 0.243711 37.6728 0.207451 37.4662C0.134623 37.0513 0.0889412 36.5709 0.0593824 36.1305C0.0295203 35.6856 0.0147529 35.2598 0.00739988 34.9468C0.00371198 34.7898 0.00186359 34.66 0.000936311 34.569C0.00047245 34.5234 0.000238386 34.4875 0.00012026 34.4626L1.58122e-05 34.4338L0 34.4226C0 34.4225 0 34.4226 0.110508 34.4226H0Z" fill="white"/>
<path d="M5.31636 36.7621C5.53596 36.8798 5.78342 36.9355 6.03225 36.9234C6.28109 36.9113 6.52195 36.8317 6.72907 36.6933C8.94782 35.2086 11.5574 34.4161 14.227 34.4161C16.8967 34.4161 19.5062 35.2086 21.725 36.6933C21.7429 36.7057 21.7635 36.7084 21.7814 36.7194C21.8021 36.7318 21.8172 36.7497 21.8393 36.7607C21.8861 36.7855 21.937 36.7965 21.9866 36.8158C22.0375 36.8365 22.0871 36.8585 22.1408 36.8723C22.2179 36.8929 22.295 36.8998 22.3735 36.9067C22.4134 36.9095 22.4506 36.9232 22.4905 36.9232C22.5016 36.9232 22.5126 36.9191 22.525 36.9191C22.5731 36.9177 22.6186 36.9081 22.6654 36.9026C22.7353 36.8959 22.8044 36.8829 22.8719 36.864C22.9201 36.8502 22.9656 36.8296 23.0124 36.8103C23.0551 36.7924 23.1005 36.7828 23.1418 36.7607C23.1625 36.7497 23.1762 36.7332 23.1955 36.7208C23.2148 36.7098 23.2368 36.7043 23.2561 36.6919C25.4748 35.2073 28.0844 34.4147 30.7541 34.4147C33.4237 34.4147 36.0333 35.2073 38.252 36.6919C38.459 36.8312 38.7002 36.9112 38.9494 36.9234C39.1987 36.9355 39.4465 36.8793 39.6661 36.7607C40.1095 36.5212 40.389 36.0558 40.389 35.5477V8.2615C40.389 7.80161 40.159 7.37202 39.7762 7.11591C37.2325 5.41492 34.2594 4.46821 31.2005 4.38513C28.1415 4.30205 25.1215 5.08598 22.4892 6.64639C19.8568 5.08598 16.8368 4.30205 13.7778 4.38513C10.7189 4.46821 7.74583 5.41492 5.20208 7.11591C5.01364 7.24178 4.85915 7.41217 4.75228 7.61199C4.6454 7.81181 4.58944 8.03489 4.58936 8.2615V35.5477C4.58936 36.0558 4.86887 36.5212 5.31636 36.7621ZM37.6351 9.02155V33.1959C35.4807 32.1856 33.1302 31.6618 30.7506 31.6618C28.371 31.6618 26.0205 32.1856 23.8661 33.1959V9.02155C25.9493 7.78404 28.3275 7.13091 30.7506 7.13091C33.1737 7.13091 35.5519 7.78404 37.6351 9.02155ZM7.34317 9.02155C9.42638 7.78404 11.8046 7.13091 14.2277 7.13091C16.6508 7.13091 19.029 7.78404 21.1123 9.02155V33.1959C18.9578 32.1856 16.6073 31.6618 14.2277 31.6618C11.8481 31.6618 9.49764 32.1856 7.34317 33.1959V9.02155Z" fill="white"/>
<path d="M206.75 42L206.703 28.0781C206.703 26.0469 206.25 24.5 205.344 23.4375C204.469 22.375 203.109 21.8438 201.266 21.8438C200.016 21.8438 198.766 22.3125 197.516 23.25C196.297 24.1562 195.219 25.2188 194.281 26.4375V22.2656C194.781 21.6406 195.422 21.0156 196.203 20.3906C196.984 19.7344 197.859 19.1875 198.828 18.75C199.828 18.3125 200.859 18.0938 201.922 18.0938C203.516 18.0938 204.969 18.4531 206.281 19.1719C207.594 19.8594 208.641 20.9219 209.422 22.3594C210.203 23.7656 210.594 25.5469 210.594 27.7031V42H206.75ZM190.438 42V18.5625H194.281V42H190.438Z" fill="white"/>
<path d="M172.016 42V18.5625H175.859V42H172.016ZM175.859 27.8438V23.25C176.766 21.6875 177.859 20.4375 179.141 19.5C180.422 18.5625 181.734 18.0938 183.078 18.0938C183.984 18.0938 184.797 18.25 185.516 18.5625V23.0156C185.047 22.7344 184.562 22.5156 184.062 22.3594C183.562 22.2031 183.047 22.125 182.516 22.125C180.922 22.125 179.625 22.6875 178.625 23.8125C177.656 24.9375 176.734 26.2812 175.859 27.8438Z" fill="white"/>
<path d="M152.141 42.7031C150.141 42.7031 148.312 42.2031 146.656 41.2031C145 40.1719 143.672 38.75 142.672 36.9375C141.703 35.125 141.219 33.0312 141.219 30.6562C141.219 28.0625 141.703 25.8281 142.672 23.9531C143.672 22.0781 145.031 20.6406 146.75 19.6406C148.469 18.6094 150.391 18.0938 152.516 18.0938C153.859 18.0938 155.219 18.4219 156.594 19.0781C158 19.7031 159.203 20.5781 160.203 21.7031V18.5625H164.047V42H160.203V38.0156C159.391 39.2656 158.281 40.3594 156.875 41.2969C155.5 42.2344 153.922 42.7031 152.141 42.7031ZM152.75 38.9531C154.188 38.9531 155.469 38.5781 156.594 37.8281C157.719 37.0781 158.609 36.0469 159.266 34.7344C159.922 33.3906 160.234 31.8906 160.203 30.2344L160.156 25.7344C159.188 24.5156 158.141 23.5625 157.016 22.875C155.922 22.1875 154.656 21.8438 153.219 21.8438C151.531 21.8438 150.094 22.2656 148.906 23.1094C147.719 23.9531 146.797 25.0469 146.141 26.3906C145.516 27.7031 145.203 29.125 145.203 30.6562C145.203 32.1562 145.516 33.5469 146.141 34.8281C146.766 36.0781 147.641 37.0781 148.766 37.8281C149.922 38.5781 151.25 38.9531 152.75 38.9531Z" fill="white"/>
<path d="M126.688 42.7031C124.906 42.7031 123.266 42.3906 121.766 41.7656C120.297 41.1094 119 40.2188 117.875 39.0938C116.781 37.9375 115.938 36.625 115.344 35.1562C114.75 33.6562 114.453 32.0781 114.453 30.4219C114.453 28.2031 114.938 26.1562 115.906 24.2812C116.875 22.4062 118.203 20.9062 119.891 19.7812C121.609 18.6562 123.562 18.0938 125.75 18.0938C128.156 18.0938 130.156 18.5938 131.75 19.5938C133.344 20.5938 134.531 21.9531 135.312 23.6719C136.125 25.3906 136.531 27.3281 136.531 29.4844V31.7812H118.062V28.5H132.734C132.578 26.9688 132.141 25.7188 131.422 24.75C130.734 23.7812 129.891 23.0625 128.891 22.5938C127.891 22.0938 126.844 21.8438 125.75 21.8438C124.25 21.8438 122.953 22.25 121.859 23.0625C120.766 23.8438 119.922 24.8906 119.328 26.2031C118.734 27.4844 118.438 28.8906 118.438 30.4219C118.438 31.9219 118.766 33.3281 119.422 34.6406C120.109 35.9219 121.078 36.9688 122.328 37.7812C123.578 38.5625 125.031 38.9531 126.688 38.9531C128.375 38.9531 129.938 38.5312 131.375 37.6875C132.844 36.8125 134.078 35.8594 135.078 34.8281V39C134.641 39.5312 133.984 40.0938 133.109 40.6875C132.266 41.25 131.281 41.7188 130.156 42.0938C129.062 42.5 127.906 42.7031 126.688 42.7031Z" fill="white"/>
<path d="M104.281 42V8.25H108.125V42H104.281Z" fill="white"/>
<path d="M92.2344 42.7031C90.9219 42.7031 89.7812 42.4375 88.8125 41.9062C87.8438 41.3438 87.0938 40.5625 86.5625 39.5625C86.0312 38.5625 85.7656 37.4062 85.7656 36.0938V22.1719H81.2656V21.0469C82.7969 20.3594 84.0781 19.2344 85.1094 17.6719C86.1406 16.0781 87.0469 14.125 87.8281 11.8125H89.6094V18.5625H97.1562V22.1719H89.6094V35.9062C89.6094 36.875 89.9219 37.6406 90.5469 38.2031C91.2031 38.7656 92.0469 39.0469 93.0781 39.0469C94.0156 39.0469 94.8594 38.9375 95.6094 38.7188C96.3906 38.4688 97.0156 38.2031 97.4844 37.9219V41.2969C96.8594 41.7969 96.125 42.1562 95.2812 42.375C94.4375 42.5938 93.4219 42.7031 92.2344 42.7031Z" fill="white"/>
<path d="M63.2656 42.7031C61.2656 42.7031 59.4375 42.2031 57.7812 41.2031C56.125 40.1719 54.7969 38.75 53.7969 36.9375C52.8281 35.125 52.3438 33.0312 52.3438 30.6562C52.3438 28.0625 52.8281 25.8281 53.7969 23.9531C54.7969 22.0781 56.1562 20.6406 57.875 19.6406C59.5938 18.6094 61.5156 18.0938 63.6406 18.0938C64.9844 18.0938 66.3438 18.4219 67.7188 19.0781C69.125 19.7031 70.3281 20.5781 71.3281 21.7031V18.5625H75.1719V42H71.3281V38.0156C70.5156 39.2656 69.4062 40.3594 68 41.2969C66.625 42.2344 65.0469 42.7031 63.2656 42.7031ZM63.875 38.9531C65.3125 38.9531 66.5938 38.5781 67.7188 37.8281C68.8438 37.0781 69.7344 36.0469 70.3906 34.7344C71.0469 33.3906 71.3594 31.8906 71.3281 30.2344L71.2812 25.7344C70.3125 24.5156 69.2656 23.5625 68.1406 22.875C67.0469 22.1875 65.7812 21.8438 64.3438 21.8438C62.6562 21.8438 61.2188 22.2656 60.0312 23.1094C58.8438 23.9531 57.9219 25.0469 57.2656 26.3906C56.6406 27.7031 56.3281 29.125 56.3281 30.6562C56.3281 32.1562 56.6406 33.5469 57.2656 34.8281C57.8906 36.0781 58.7656 37.0781 59.8906 37.8281C61.0469 38.5781 62.375 38.9531 63.875 38.9531Z" fill="white"/>
<path d="M218.132 61.1137C217.607 61.1137 217.154 60.9977 216.772 60.7657C216.394 60.5313 216.101 60.2046 215.895 59.7856C215.692 59.3642 215.59 58.8741 215.59 58.3154C215.59 57.7567 215.692 57.2643 215.895 56.8381C216.101 56.4096 216.388 56.0758 216.755 55.8367C217.124 55.5952 217.555 55.4745 218.047 55.4745C218.331 55.4745 218.612 55.5218 218.889 55.6165C219.166 55.7112 219.418 55.8651 219.645 56.0782C219.873 56.2889 220.054 56.5682 220.189 56.9162C220.324 57.2643 220.391 57.6928 220.391 58.2018V58.5569H216.186V57.8324H219.539C219.539 57.5247 219.477 57.2501 219.354 57.0086C219.233 56.7671 219.06 56.5765 218.836 56.4368C218.613 56.2972 218.35 56.2273 218.047 56.2273C217.713 56.2273 217.425 56.3102 217.181 56.4759C216.939 56.6393 216.753 56.8523 216.623 57.1151C216.493 57.3779 216.428 57.6596 216.428 57.9603V58.4432C216.428 58.8552 216.499 59.2044 216.641 59.4908C216.785 59.7749 216.985 59.9915 217.241 60.1407C217.497 60.2875 217.794 60.3609 218.132 60.3609C218.353 60.3609 218.551 60.3301 218.729 60.2685C218.909 60.2046 219.064 60.1099 219.194 59.9844C219.324 59.8566 219.425 59.698 219.496 59.5086L220.306 59.7359C220.221 60.0105 220.077 60.2519 219.876 60.4603C219.675 60.6662 219.426 60.8272 219.13 60.9432C218.834 61.0569 218.502 61.1137 218.132 61.1137Z" fill="white"/>
<path d="M207.154 61.0001V55.5455H207.963V56.3978H208.034C208.148 56.1066 208.332 55.8805 208.585 55.7195C208.838 55.5562 209.142 55.4745 209.498 55.4745C209.857 55.4745 210.157 55.5562 210.396 55.7195C210.637 55.8805 210.826 56.1066 210.961 56.3978H211.017C211.157 56.1161 211.367 55.8923 211.646 55.7266C211.925 55.5585 212.26 55.4745 212.651 55.4745C213.139 55.4745 213.538 55.6272 213.848 55.9326C214.158 56.2356 214.313 56.7079 214.313 57.3495V61.0001H213.475V57.3495C213.475 56.947 213.365 56.6594 213.145 56.4866C212.924 56.3137 212.665 56.2273 212.367 56.2273C211.983 56.2273 211.686 56.3433 211.476 56.5753C211.265 56.805 211.159 57.0962 211.159 57.4489V61.0001H210.307V57.2643C210.307 56.9541 210.207 56.7044 210.005 56.515C209.804 56.3232 209.545 56.2273 209.228 56.2273C209.01 56.2273 208.806 56.2853 208.617 56.4013C208.43 56.5173 208.278 56.6783 208.162 56.8843C208.049 57.0879 207.992 57.3234 207.992 57.591V61.0001H207.154Z" fill="white"/>
<path d="M204.781 61V55.5455H205.619V61H204.781ZM205.207 54.6364C205.044 54.6364 204.903 54.5807 204.784 54.4695C204.668 54.3582 204.61 54.2244 204.61 54.0682C204.61 53.9119 204.668 53.7782 204.784 53.6669C204.903 53.5556 205.044 53.5 205.207 53.5C205.37 53.5 205.51 53.5556 205.626 53.6669C205.744 53.7782 205.804 53.9119 205.804 54.0682C205.804 54.2244 205.744 54.3582 205.626 54.4695C205.51 54.5807 205.37 54.6364 205.207 54.6364Z" fill="white"/>
<path d="M198.081 54.5085V53.7273H203.535V54.5085H201.248V61H200.367V54.5085H198.081Z" fill="white"/>
<path d="M189.206 61H188.283L190.954 53.7273H191.863L194.533 61H193.61L191.437 54.8779H191.38L189.206 61ZM189.547 58.1591H193.269V58.9404H189.547V58.1591Z" fill="white"/>
<path d="M184.721 55.5455V56.2557H181.895V55.5455H184.721ZM182.718 54.2386H183.556V59.4375C183.556 59.6743 183.591 59.8518 183.659 59.9702C183.73 60.0862 183.82 60.1643 183.929 60.2046C184.041 60.2424 184.158 60.2614 184.281 60.2614C184.373 60.2614 184.449 60.2566 184.508 60.2472C184.567 60.2353 184.615 60.2259 184.65 60.2188L184.821 60.9716C184.764 60.9929 184.685 61.0142 184.583 61.0355C184.481 61.0592 184.352 61.071 184.196 61.071C183.959 61.071 183.727 61.0201 183.5 60.9183C183.275 60.8165 183.088 60.6615 182.939 60.4531C182.792 60.2448 182.718 59.982 182.718 59.6648V54.2386Z" fill="white"/>
<path d="M176.345 61H175.422L178.092 53.7273H179.001L181.672 61H180.749L178.575 54.8779H178.518L176.345 61ZM176.686 58.1591H180.408V58.9404H176.686V58.1591Z" fill="white"/>
<path d="M168.462 59.0114L168.448 57.9745H168.619L171.005 55.5455H172.042L169.499 58.1165H169.428L168.462 59.0114ZM167.681 61V53.7273H168.519V61H167.681ZM171.147 61L169.016 58.3012L169.613 57.7188L172.212 61H171.147Z" fill="white"/>
<path d="M164.311 61.1137C163.8 61.1137 163.36 60.993 162.99 60.7515C162.621 60.51 162.337 60.1774 162.138 59.7536C161.939 59.3298 161.84 58.8457 161.84 58.3012C161.84 57.7472 161.942 57.2583 162.145 56.8346C162.351 56.4084 162.638 56.0758 163.005 55.8367C163.374 55.5952 163.805 55.4745 164.297 55.4745C164.681 55.4745 165.026 55.5455 165.334 55.6876C165.642 55.8296 165.894 56.0285 166.091 56.2841C166.287 56.5398 166.409 56.8381 166.456 57.179H165.618C165.554 56.9305 165.412 56.7103 165.192 56.5185C164.974 56.3244 164.681 56.2273 164.311 56.2273C163.985 56.2273 163.698 56.3126 163.452 56.483C163.208 56.6511 163.018 56.889 162.88 57.1968C162.745 57.5022 162.678 57.8609 162.678 58.2728C162.678 58.6942 162.744 59.0611 162.877 59.3736C163.012 59.6861 163.201 59.9288 163.445 60.1016C163.691 60.2744 163.98 60.3609 164.311 60.3609C164.529 60.3609 164.727 60.323 164.904 60.2472C165.082 60.1715 165.232 60.0626 165.355 59.9205C165.479 59.7785 165.566 59.608 165.618 59.4091H166.456C166.409 59.7311 166.292 60.0211 166.105 60.2792C165.92 60.5349 165.675 60.7385 165.37 60.89C165.067 61.0391 164.714 61.1137 164.311 61.1137Z" fill="white"/>
<path d="M159.722 61V55.5455H160.56V61H159.722ZM160.148 54.6364C159.985 54.6364 159.844 54.5807 159.726 54.4695C159.61 54.3582 159.552 54.2244 159.552 54.0682C159.552 53.9119 159.61 53.7782 159.726 53.6669C159.844 53.5556 159.985 53.5 160.148 53.5C160.312 53.5 160.451 53.5556 160.567 53.6669C160.686 53.7782 160.745 53.9119 160.745 54.0682C160.745 54.2244 160.686 54.3582 160.567 54.4695C160.451 54.5807 160.312 54.6364 160.148 54.6364Z" fill="white"/>
<path d="M158.187 53.7273V61H157.349V53.7273H158.187Z" fill="white"/>
<path d="M156.04 56H155.159C155.107 55.7467 155.016 55.5241 154.886 55.3324C154.758 55.1406 154.601 54.9796 154.417 54.8494C154.235 54.7168 154.032 54.6174 153.81 54.5511C153.587 54.4848 153.355 54.4517 153.114 54.4517C152.673 54.4517 152.274 54.5629 151.917 54.7855C151.562 55.008 151.279 55.3359 151.068 55.7691C150.86 56.2024 150.756 56.7339 150.756 57.3636C150.756 57.9933 150.86 58.5248 151.068 58.9581C151.279 59.3913 151.562 59.7192 151.917 59.9417C152.274 60.1643 152.673 60.2755 153.114 60.2755C153.355 60.2755 153.587 60.2424 153.81 60.1761C154.032 60.1098 154.235 60.0116 154.417 59.8814C154.601 59.7488 154.758 59.5866 154.886 59.3949C155.016 59.2007 155.107 58.9782 155.159 58.7272H156.04C155.973 59.0989 155.853 59.4315 155.677 59.7251C155.502 60.0187 155.284 60.2684 155.024 60.4744C154.764 60.678 154.471 60.8331 154.147 60.9396C153.825 61.0461 153.48 61.0994 153.114 61.0994C152.493 61.0994 151.942 60.9479 151.459 60.6449C150.976 60.3418 150.596 59.911 150.319 59.3522C150.042 58.7935 149.903 58.1306 149.903 57.3636C149.903 56.5966 150.042 55.9337 150.319 55.375C150.596 54.8163 150.976 54.3854 151.459 54.0824C151.942 53.7793 152.493 53.6278 153.114 53.6278C153.48 53.6278 153.825 53.6811 154.147 53.7876C154.471 53.8941 154.764 54.0504 155.024 54.2564C155.284 54.46 155.502 54.7085 155.677 55.0021C155.853 55.2933 155.973 55.6259 156.04 56Z" fill="white"/>
<path d="M143.728 61.1137C143.203 61.1137 142.749 60.9977 142.368 60.7657C141.989 60.5313 141.697 60.2046 141.491 59.7856C141.287 59.3642 141.186 58.8741 141.186 58.3154C141.186 57.7567 141.287 57.2643 141.491 56.8381C141.697 56.4096 141.983 56.0758 142.35 55.8367C142.72 55.5952 143.151 55.4745 143.643 55.4745C143.927 55.4745 144.208 55.5218 144.485 55.6165C144.762 55.7112 145.014 55.8651 145.241 56.0782C145.468 56.2889 145.649 56.5682 145.784 56.9162C145.919 57.2643 145.987 57.6928 145.987 58.2018V58.5569H141.782V57.8324H145.134C145.134 57.5247 145.073 57.2501 144.95 57.0086C144.829 56.7671 144.656 56.5765 144.431 56.4368C144.209 56.2972 143.946 56.2273 143.643 56.2273C143.309 56.2273 143.02 56.3102 142.776 56.4759C142.535 56.6393 142.349 56.8523 142.219 57.1151C142.089 57.3779 142.024 57.6596 142.024 57.9603V58.4432C142.024 58.8552 142.095 59.2044 142.237 59.4908C142.381 59.7749 142.581 59.9915 142.837 60.1407C143.093 60.2875 143.39 60.3609 143.728 60.3609C143.948 60.3609 144.147 60.3301 144.325 60.2685C144.505 60.2046 144.66 60.1099 144.79 59.9844C144.92 59.8566 145.021 59.698 145.092 59.5086L145.901 59.7359C145.816 60.0105 145.673 60.2519 145.472 60.4603C145.271 60.6662 145.022 60.8272 144.726 60.9432C144.43 61.0569 144.097 61.1137 143.728 61.1137Z" fill="white"/>
<path d="M136.429 57.7188V61.0001H135.591V55.5455H136.401V56.3978H136.472C136.6 56.1208 136.794 55.8983 137.054 55.7302C137.315 55.5597 137.651 55.4745 138.063 55.4745C138.432 55.4745 138.755 55.5502 139.032 55.7018C139.309 55.8509 139.525 56.0782 139.679 56.3836C139.833 56.6866 139.909 57.0701 139.909 57.5341V61.0001H139.071V57.591C139.071 57.1625 138.96 56.8287 138.738 56.5895C138.515 56.3481 138.21 56.2273 137.821 56.2273C137.554 56.2273 137.315 56.2853 137.104 56.4013C136.896 56.5173 136.731 56.6866 136.61 56.9091C136.49 57.1317 136.429 57.4016 136.429 57.7188Z" fill="white"/>
<path d="M134.224 57.3636C134.224 58.1306 134.086 58.7935 133.809 59.3522C133.532 59.911 133.152 60.3418 132.669 60.6449C132.186 60.9479 131.634 61.0994 131.014 61.0994C130.394 61.0994 129.842 60.9479 129.359 60.6449C128.876 60.3418 128.496 59.911 128.219 59.3522C127.942 58.7935 127.804 58.1306 127.804 57.3636C127.804 56.5966 127.942 55.9337 128.219 55.375C128.496 54.8163 128.876 54.3854 129.359 54.0824C129.842 53.7793 130.394 53.6278 131.014 53.6278C131.634 53.6278 132.186 53.7793 132.669 54.0824C133.152 54.3854 133.532 54.8163 133.809 55.375C134.086 55.9337 134.224 56.5966 134.224 57.3636ZM133.372 57.3636C133.372 56.7339 133.267 56.2024 133.056 55.7691C132.848 55.3359 132.565 55.008 132.207 54.7855C131.852 54.5629 131.454 54.4517 131.014 54.4517C130.574 54.4517 130.175 54.5629 129.817 54.7855C129.462 55.008 129.179 55.3359 128.968 55.7691C128.76 56.2024 128.656 56.7339 128.656 57.3636C128.656 57.9933 128.76 58.5248 128.968 58.9581C129.179 59.3913 129.462 59.7192 129.817 59.9417C130.175 60.1643 130.574 60.2755 131.014 60.2755C131.454 60.2755 131.852 60.1643 132.207 59.9417C132.565 59.7192 132.848 59.3913 133.056 58.9581C133.267 58.5248 133.372 57.9933 133.372 57.3636Z" fill="white"/>
<path d="M123.609 60.0057L123.552 60.3893C123.512 60.6591 123.451 60.948 123.368 61.2557C123.287 61.5635 123.203 61.8535 123.116 62.1258C123.028 62.398 122.956 62.6146 122.899 62.7756H122.26C122.291 62.6241 122.331 62.4241 122.381 62.1755C122.43 61.9269 122.48 61.6487 122.53 61.341C122.582 61.0356 122.624 60.7231 122.657 60.4035L122.7 60.0057H123.609Z" fill="white"/>
<path d="M120.998 56.7671L120.245 56.9802C120.198 56.8547 120.128 56.7328 120.036 56.6144C119.946 56.4937 119.823 56.3942 119.667 56.3161C119.51 56.238 119.31 56.1989 119.066 56.1989C118.733 56.1989 118.454 56.2759 118.232 56.4297C118.012 56.5813 117.902 56.7742 117.902 57.0086C117.902 57.2169 117.977 57.3814 118.129 57.5022C118.28 57.6229 118.517 57.7235 118.839 57.804L119.649 58.0029C120.136 58.1213 120.5 58.3024 120.739 58.5462C120.978 58.7877 121.098 59.099 121.098 59.4802C121.098 59.7927 121.008 60.072 120.828 60.3182C120.65 60.5644 120.402 60.7586 120.082 60.9006C119.762 61.0427 119.391 61.1137 118.967 61.1137C118.411 61.1137 117.95 60.993 117.586 60.7515C117.221 60.51 116.99 60.1573 116.893 59.6932L117.689 59.4944C117.764 59.7879 117.908 60.0081 118.118 60.1549C118.331 60.3017 118.609 60.3751 118.953 60.3751C119.343 60.3751 119.653 60.2922 119.883 60.1265C120.115 59.9584 120.231 59.7572 120.231 59.5228C120.231 59.3334 120.165 59.1748 120.032 59.0469C119.9 58.9167 119.696 58.8197 119.421 58.7557L118.512 58.5427C118.013 58.4243 117.646 58.2408 117.412 57.9922C117.18 57.7413 117.064 57.4276 117.064 57.0512C117.064 56.7434 117.15 56.4712 117.323 56.2344C117.498 55.9977 117.736 55.8118 118.037 55.6769C118.34 55.542 118.683 55.4745 119.066 55.4745C119.606 55.4745 120.03 55.5929 120.338 55.8296C120.648 56.0663 120.868 56.3788 120.998 56.7671Z" fill="white"/>
<path d="M112.983 61.1137C112.529 61.1137 112.127 60.9988 111.779 60.7692C111.431 60.5372 111.159 60.2105 110.963 59.7891C110.766 59.3653 110.668 58.8646 110.668 58.287C110.668 57.714 110.766 57.2169 110.963 56.7955C111.159 56.3741 111.433 56.0486 111.783 55.8189C112.133 55.5893 112.538 55.4745 112.998 55.4745C113.353 55.4745 113.633 55.5336 113.839 55.652C114.047 55.768 114.206 55.9006 114.315 56.0497C114.426 56.1965 114.513 56.3173 114.574 56.412H114.645V53.7273H115.483V61H114.674V60.162H114.574C114.513 60.2614 114.425 60.3869 114.311 60.5384C114.198 60.6875 114.036 60.8213 113.825 60.9397C113.614 61.0557 113.334 61.1137 112.983 61.1137ZM113.097 60.3608C113.433 60.3608 113.717 60.2732 113.949 60.098C114.181 59.9205 114.358 59.6754 114.478 59.3629C114.599 59.0481 114.659 58.6847 114.659 58.2727C114.659 57.8656 114.6 57.5093 114.482 57.2039C114.364 56.8961 114.188 56.657 113.956 56.4865C113.724 56.3137 113.438 56.2273 113.097 56.2273C112.742 56.2273 112.446 56.3184 112.209 56.5007C111.975 56.6807 111.798 56.9257 111.68 57.2358C111.564 57.5436 111.506 57.8892 111.506 58.2727C111.506 58.661 111.565 59.0138 111.684 59.331C111.804 59.6459 111.982 59.8968 112.216 60.0838C112.453 60.2685 112.747 60.3608 113.097 60.3608Z" fill="white"/>
<path d="M105.912 57.7188V61.0001H105.074V55.5455H105.883V56.3978H105.954C106.082 56.1208 106.276 55.8983 106.537 55.7302C106.797 55.5597 107.133 55.4745 107.545 55.4745C107.915 55.4745 108.238 55.5502 108.515 55.7018C108.792 55.8509 109.007 56.0782 109.161 56.3836C109.315 56.6866 109.392 57.0701 109.392 57.5341V61.0001H108.554V57.591C108.554 57.1625 108.443 56.8287 108.22 56.5895C107.998 56.3481 107.692 56.2273 107.304 56.2273C107.036 56.2273 106.797 56.2853 106.587 56.4013C106.378 56.5173 106.214 56.6866 106.093 56.9091C105.972 57.1317 105.912 57.4016 105.912 57.7188Z" fill="white"/>
<path d="M102.701 61V55.5455H103.539V61H102.701ZM103.127 54.6364C102.964 54.6364 102.823 54.5807 102.704 54.4695C102.588 54.3582 102.53 54.2244 102.53 54.0682C102.53 53.9119 102.588 53.7782 102.704 53.6669C102.823 53.5556 102.964 53.5 103.127 53.5C103.29 53.5 103.43 53.5556 103.546 53.6669C103.664 53.7782 103.723 53.9119 103.723 54.0682C103.723 54.2244 103.664 54.3582 103.546 54.4695C103.43 54.5807 103.29 54.6364 103.127 54.6364Z" fill="white"/>
<path d="M93.918 53.7273H94.9691L97.4407 59.7642H97.5259L99.9975 53.7273H101.049V61H100.225V55.4745H100.154L97.881 61H97.0856L94.8129 55.4745H94.7418V61H93.918V53.7273Z" fill="white"/>
<path d="M87.1 63.1591C86.6951 63.1591 86.3471 63.1071 86.0559 63.0029C85.7647 62.9011 85.5221 62.7662 85.3279 62.5981C85.1362 62.4323 84.9835 62.2548 84.8699 62.0654L85.5375 61.5966C85.6132 61.6961 85.7091 61.8097 85.8251 61.9376C85.9411 62.0678 86.0997 62.1802 86.301 62.2749C86.5046 62.372 86.7709 62.4205 87.1 62.4205C87.5403 62.4205 87.9037 62.314 88.1902 62.1009C88.4766 61.8878 88.6199 61.554 88.6199 61.0995V59.9915H88.5488C88.4873 60.091 88.3997 60.2141 88.286 60.3609C88.1748 60.5053 88.0138 60.6343 87.8031 60.7479C87.5948 60.8592 87.313 60.9148 86.9579 60.9148C86.5176 60.9148 86.1222 60.8107 85.7718 60.6023C85.4238 60.394 85.148 60.091 84.9444 59.6932C84.7432 59.2955 84.6426 58.8126 84.6426 58.2444C84.6426 57.6857 84.7408 57.1992 84.9373 56.7849C85.1338 56.3682 85.4073 56.0462 85.7576 55.8189C86.108 55.5893 86.5128 55.4745 86.9721 55.4745C87.3272 55.4745 87.609 55.5337 87.8173 55.652C88.028 55.768 88.189 55.9006 88.3002 56.0498C88.4139 56.1966 88.5015 56.3173 88.563 56.412H88.6483V55.5455H89.4579V61.1563C89.4579 61.6251 89.3514 62.0062 89.1383 62.2998C88.9276 62.5957 88.6435 62.8123 88.286 62.9496C87.9309 63.0893 87.5356 63.1591 87.1 63.1591ZM87.0716 60.162C87.4077 60.162 87.6918 60.085 87.9238 59.9312C88.1558 59.7773 88.3322 59.5559 88.4529 59.2671C88.5737 58.9783 88.6341 58.6326 88.6341 58.2302C88.6341 57.8372 88.5749 57.4903 88.4565 57.1897C88.3381 56.889 88.1629 56.6535 87.9309 56.483C87.6989 56.3126 87.4125 56.2273 87.0716 56.2273C86.7164 56.2273 86.4205 56.3173 86.1838 56.4972C85.9494 56.6771 85.773 56.9186 85.6547 57.2216C85.5386 57.5247 85.4806 57.8609 85.4806 58.2302C85.4806 58.609 85.5398 58.9439 85.6582 59.2351C85.7789 59.524 85.9565 59.7512 86.1909 59.917C86.4276 60.0803 86.7212 60.162 87.0716 60.162Z" fill="white"/>
<path d="M79.8864 57.7188V61.0001H79.0483V55.5455H79.858V56.3978H79.929C80.0569 56.1208 80.251 55.8983 80.5114 55.7302C80.7718 55.5597 81.108 55.4745 81.5199 55.4745C81.8892 55.4745 82.2124 55.5502 82.4894 55.7018C82.7664 55.8509 82.9818 56.0782 83.1357 56.3836C83.2896 56.6866 83.3665 57.0701 83.3665 57.5341V61.0001H82.5285V57.591C82.5285 57.1625 82.4172 56.8287 82.1946 56.5895C81.9721 56.3481 81.6667 56.2273 81.2785 56.2273C81.0109 56.2273 80.7718 56.2853 80.5611 56.4013C80.3528 56.5173 80.1883 56.6866 80.0675 56.9091C79.9468 57.1317 79.8864 57.4016 79.8864 57.7188Z" fill="white"/>
<path d="M76.6753 61V55.5455H77.5134V61H76.6753ZM77.1015 54.6364C76.9381 54.6364 76.7973 54.5807 76.6789 54.4695C76.5629 54.3582 76.5049 54.2244 76.5049 54.0682C76.5049 53.9119 76.5629 53.7782 76.6789 53.6669C76.7973 53.5556 76.9381 53.5 77.1015 53.5C77.2648 53.5 77.4045 53.5556 77.5205 53.6669C77.6389 53.7782 77.6981 53.9119 77.6981 54.0682C77.6981 54.2244 77.6389 54.3582 77.5205 54.4695C77.4045 54.5807 77.2648 54.6364 77.1015 54.6364Z" fill="white"/>
<path d="M72.9546 61V55.5454H73.7642V56.3693H73.8211C73.9205 56.0994 74.1004 55.8804 74.3608 55.7123C74.6213 55.5442 74.9148 55.4602 75.2415 55.4602C75.3031 55.4602 75.38 55.4614 75.4723 55.4638C75.5647 55.4661 75.6345 55.4697 75.6819 55.4744V56.3267C75.6535 56.3196 75.5883 56.3089 75.4865 56.2947C75.3871 56.2782 75.2818 56.2699 75.1705 56.2699C74.9053 56.2699 74.6686 56.3255 74.4603 56.4368C74.2543 56.5457 74.091 56.6972 73.9702 56.8913C73.8518 57.0831 73.7927 57.3021 73.7927 57.5483V61H72.9546Z" fill="white"/>
<path d="M70.5816 61V55.5455H71.4197V61H70.5816ZM71.0077 54.6364C70.8444 54.6364 70.7035 54.5807 70.5851 54.4695C70.4691 54.3582 70.4111 54.2244 70.4111 54.0682C70.4111 53.9119 70.4691 53.7782 70.5851 53.6669C70.7035 53.5556 70.8444 53.5 71.0077 53.5C71.1711 53.5 71.3108 53.5556 71.4268 53.6669C71.5451 53.7782 71.6043 53.9119 71.6043 54.0682C71.6043 54.2244 71.5451 54.3582 71.4268 54.4695C71.3108 54.5807 71.1711 54.6364 71.0077 54.6364Z" fill="white"/>
<path d="M64.4878 63.0455V55.5455H65.2975V56.412H65.3969C65.4584 56.3173 65.5437 56.1966 65.6526 56.0498C65.7638 55.9006 65.9225 55.768 66.1284 55.652C66.3368 55.5337 66.6185 55.4745 66.9736 55.4745C67.4329 55.4745 67.8377 55.5893 68.1881 55.8189C68.5385 56.0486 68.8119 56.3741 69.0084 56.7955C69.2049 57.2169 69.3031 57.7141 69.3031 58.287C69.3031 58.8646 69.2049 59.3653 69.0084 59.7891C68.8119 60.2105 68.5396 60.5372 68.1916 60.7692C67.8436 60.9989 67.4423 61.1137 66.9878 61.1137C66.6374 61.1137 66.3569 61.0557 66.1462 60.9397C65.9355 60.8213 65.7733 60.6876 65.6597 60.5384C65.546 60.3869 65.4584 60.2614 65.3969 60.162H65.3259V63.0455H64.4878ZM65.3117 58.2728C65.3117 58.6847 65.372 59.0481 65.4928 59.363C65.6135 59.6755 65.7899 59.9205 66.0219 60.0981C66.2539 60.2733 66.538 60.3609 66.8742 60.3609C67.2245 60.3609 67.5169 60.2685 67.7513 60.0839C67.988 59.8968 68.1656 59.6459 68.284 59.331C68.4047 59.0138 68.4651 58.661 68.4651 58.2728C68.4651 57.8893 68.4059 57.5436 68.2875 57.2359C68.1715 56.9257 67.9951 56.6807 67.7584 56.5008C67.524 56.3185 67.2293 56.2273 66.8742 56.2273C66.5332 56.2273 66.2468 56.3137 66.0148 56.4866C65.7828 56.657 65.6076 56.8961 65.4892 57.2039C65.3708 57.5093 65.3117 57.8656 65.3117 58.2728Z" fill="white"/>
<path d="M63.1271 56.7671L62.3742 56.9802C62.3269 56.8547 62.2571 56.7328 62.1647 56.6144C62.0748 56.4937 61.9517 56.3942 61.7954 56.3161C61.6392 56.238 61.4391 56.1989 61.1953 56.1989C60.8615 56.1989 60.5833 56.2759 60.3608 56.4297C60.1406 56.5813 60.0305 56.7742 60.0305 57.0086C60.0305 57.2169 60.1063 57.3814 60.2578 57.5022C60.4093 57.6229 60.646 57.7235 60.968 57.804L61.7777 58.0029C62.2653 58.1213 62.6287 58.3024 62.8679 58.5462C63.107 58.7877 63.2265 59.099 63.2265 59.4802C63.2265 59.7927 63.1366 60.072 62.9566 60.3182C62.7791 60.5644 62.5305 60.7586 62.2109 60.9006C61.8913 61.0427 61.5196 61.1137 61.0958 61.1137C60.5395 61.1137 60.079 60.993 59.7144 60.7515C59.3499 60.51 59.119 60.1573 59.022 59.6932L59.8174 59.4944C59.8932 59.7879 60.0364 60.0081 60.2471 60.1549C60.4602 60.3017 60.7384 60.3751 61.0816 60.3751C61.4723 60.3751 61.7824 60.2922 62.012 60.1265C62.244 59.9584 62.36 59.7572 62.36 59.5228C62.36 59.3334 62.2938 59.1748 62.1612 59.0469C62.0286 58.9167 61.825 58.8197 61.5504 58.7557L60.6413 58.5427C60.1418 58.4243 59.7748 58.2408 59.5404 57.9922C59.3084 57.7413 59.1924 57.4276 59.1924 57.0512C59.1924 56.7434 59.2788 56.4712 59.4517 56.2344C59.6268 55.9977 59.8648 55.8118 60.1654 55.6769C60.4685 55.542 60.8117 55.4745 61.1953 55.4745C61.735 55.4745 62.1588 55.5929 62.4666 55.8296C62.7767 56.0663 62.9969 56.3788 63.1271 56.7671Z" fill="white"/>
<path d="M54.2516 57.7188V61.0001H53.4136V55.5455H54.2232V56.3978H54.2943C54.4221 56.1208 54.6162 55.8983 54.8766 55.7302C55.1371 55.5597 55.4732 55.4745 55.8852 55.4745C56.2545 55.4745 56.5776 55.5502 56.8546 55.7018C57.1316 55.8509 57.347 56.0782 57.5009 56.3836C57.6548 56.6866 57.7318 57.0701 57.7318 57.5341V61.0001H56.8937V57.591C56.8937 57.1625 56.7824 56.8287 56.5599 56.5895C56.3373 56.3481 56.0319 56.2273 55.6437 56.2273C55.3762 56.2273 55.1371 56.2853 54.9264 56.4013C54.718 56.5173 54.5535 56.6866 54.4328 56.9091C54.312 57.1317 54.2516 57.4016 54.2516 57.7188Z" fill="white"/>
<path d="M51.7615 53.7273V61H50.8809V53.7273H51.7615Z" fill="white"/>
</svg>
