<svg width="234" height="70" viewBox="0 0 234 70" fill="none" xmlns="http://www.w3.org/2000/svg">
<g clip-path="url(#clip0_1366_1156)">
<path fill-rule="evenodd" clip-rule="evenodd" d="M38.9417 19.2012C39.4618 19.2012 39.8834 19.6229 39.8834 20.1429V43.3427C39.8834 44.2095 40.5861 44.9122 41.4529 44.9122H73.4671C74.3339 44.9122 75.0366 44.2095 75.0366 43.3427V20.1429C75.0366 19.6229 75.4583 19.2012 75.9783 19.2012C76.4984 19.2012 76.9201 19.6229 76.9201 20.1429V43.3427C76.9201 45.2497 75.3741 46.7956 73.4671 46.7956H41.4529C39.5459 46.7956 38 45.2497 38 43.3427V20.1429C38 19.6229 38.4216 19.2012 38.9417 19.2012Z" fill="url(#paint0_linear_1366_1156)"/>
<path fill-rule="evenodd" clip-rule="evenodd" d="M53.0368 19.097C50.6724 18.6914 48.2697 18.6914 45.9053 19.097L45.0304 19.2471C43.5204 19.5061 42.4017 21.0159 42.4017 22.7946V41.811C47.0131 40.1996 51.929 40.1996 56.5404 41.811V22.7946C56.5404 21.0159 55.4217 19.5061 53.9117 19.2471L53.0368 19.097ZM45.6813 17.3233C48.1943 16.8922 50.7478 16.8922 53.2608 17.3233L54.1358 17.4734C56.4006 17.8619 58.0788 20.1266 58.0788 22.7946V43.0187C58.0788 43.3024 57.9636 43.5694 57.7681 43.7385C57.5726 43.9076 57.3199 43.9589 57.0869 43.8767L56.1538 43.5477C51.7962 42.0112 47.1459 42.0112 42.7883 43.5477L41.8552 43.8767C41.6222 43.9589 41.3695 43.9076 41.174 43.7385C40.9785 43.5694 40.8633 43.3024 40.8633 43.0187V22.7946C40.8633 20.1266 42.5415 17.8619 44.8063 17.4734L45.6813 17.3233Z" fill="url(#paint1_linear_1366_1156)"/>
<path fill-rule="evenodd" clip-rule="evenodd" d="M69.1736 19.097C66.8092 18.6914 64.4065 18.6914 62.0421 19.097L61.1672 19.2471C59.6572 19.5061 58.5384 21.0159 58.5384 22.7946V41.811C63.1499 40.1996 68.0657 40.1996 72.6772 41.811V22.7946C72.6772 21.0159 71.5584 19.5061 70.0485 19.2471L69.1736 19.097ZM61.8181 17.3233C64.331 16.8922 66.8846 16.8922 69.3976 17.3233L70.2725 17.4734C72.5374 17.8619 74.2156 20.1266 74.2156 22.7946V43.0187C74.2156 43.3024 74.1004 43.5694 73.9048 43.7385C73.7093 43.9076 73.4567 43.9589 73.2237 43.8767L72.2905 43.5477C67.933 42.0112 63.2827 42.0112 58.9251 43.5477L57.992 43.8767C57.759 43.9589 57.5063 43.9076 57.3108 43.7385C57.1153 43.5694 57 43.3024 57 43.0187V22.7946C57 20.1266 58.6782 17.8619 60.9431 17.4734L61.8181 17.3233Z" fill="url(#paint2_linear_1366_1156)"/>
<path fill-rule="evenodd" clip-rule="evenodd" d="M57.5432 44.9102C58.0632 44.9102 58.4849 45.3318 58.4849 45.8519V50.5114H62.9611C63.4812 50.5114 63.9028 50.933 63.9028 51.4531C63.9028 51.9732 63.4812 52.3948 62.9611 52.3948H51.6604C51.1403 52.3948 50.7188 51.9732 50.7188 51.4531C50.7188 50.933 51.1403 50.5114 51.6604 50.5114H56.6013V45.8519C56.6013 45.3318 57.0231 44.9102 57.5432 44.9102Z" fill="url(#paint3_linear_1366_1156)"/>
<path d="M100.861 47.3522H97.9637V44.5705C96.5728 46.4636 94.2933 47.8159 91.6661 47.8159C86.798 47.8159 83.3594 44.1068 83.3594 38.041C83.3594 32.0524 86.798 28.2275 91.6661 28.2275C94.1774 28.2275 96.4569 29.4638 97.9637 31.5115V28.6911H100.861V47.3522ZM92.4002 45.2273C94.6797 45.2273 96.9592 43.875 97.9637 42.2523V33.8297C96.9592 32.207 94.6797 30.8161 92.4002 30.8161C88.6138 30.8161 86.373 33.907 86.373 38.041C86.373 42.175 88.6138 45.2273 92.4002 45.2273Z" fill="url(#paint4_linear_1366_1156)"/>
<path d="M110.645 47.8155C107.863 47.8155 106.472 46.2314 106.472 43.4496V31.2407H103.381V28.6907H106.472V23.5908H109.408V28.6907H113.195V31.2407H109.408V42.8314C109.408 44.2223 110.027 45.2269 111.263 45.2269C112.113 45.2269 112.847 44.8405 113.233 44.4155L114.083 46.6177C113.349 47.3132 112.306 47.8155 110.645 47.8155Z" fill="url(#paint5_linear_1366_1156)"/>
<path d="M120.611 47.8158C117.868 47.8158 116.477 46.2317 116.477 43.4499V21.582H119.374V42.8317C119.374 44.2226 119.993 45.2272 121.268 45.2272C122.079 45.2272 122.852 44.8408 123.199 44.4158L124.088 46.618C123.315 47.3135 122.311 47.8158 120.611 47.8158Z" fill="url(#paint6_linear_1366_1156)"/>
<path d="M134.539 47.8159C128.976 47.8159 124.996 43.8364 124.996 38.0024C124.996 32.5933 128.86 28.2275 134.191 28.2275C139.832 28.2275 143.155 32.632 143.155 38.2342V38.9683H128.087C128.319 42.4841 130.753 45.4204 134.771 45.4204C136.934 45.4204 139.059 44.5704 140.566 43.025L141.957 44.9182C140.064 46.7727 137.553 47.8159 134.539 47.8159ZM140.296 36.8046C140.257 34.0615 138.403 30.6229 134.153 30.6229C130.173 30.6229 128.203 33.9842 128.048 36.8046H140.296Z" fill="url(#paint7_linear_1366_1156)"/>
<path d="M163.496 47.3522H160.598V44.5705C159.207 46.4636 156.928 47.8159 154.3 47.8159C149.432 47.8159 145.994 44.1068 145.994 38.041C145.994 32.0524 149.432 28.2275 154.3 28.2275C156.812 28.2275 159.091 29.4638 160.598 31.5115V28.6911H163.496V47.3522ZM155.034 45.2273C157.314 45.2273 159.593 43.875 160.598 42.2523V33.8297C159.593 32.207 157.314 30.8161 155.034 30.8161C151.248 30.8161 149.007 33.907 149.007 38.041C149.007 42.175 151.248 45.2273 155.034 45.2273Z" fill="url(#paint8_linear_1366_1156)"/>
<path d="M171.425 47.3517H168.527V28.6906H171.425V31.6656C172.931 29.7338 175.095 28.2656 177.645 28.2656V31.2406C177.297 31.202 176.95 31.1633 176.525 31.1633C174.709 31.1633 172.275 32.6315 171.425 34.1383V47.3517Z" fill="url(#paint9_linear_1366_1156)"/>
<path d="M196.001 47.3522H193.142V35.1433C193.142 31.8206 191.442 30.8161 188.931 30.8161C186.651 30.8161 184.526 32.207 183.406 33.7138V47.3522H180.508V28.6911H183.406V31.3956C184.719 29.8116 187.269 28.2275 190.09 28.2275C193.953 28.2275 196.001 30.1979 196.001 34.2547V47.3522Z" fill="url(#paint10_linear_1366_1156)"/>
<path d="M83.582 58.7504V53.916H84.2626V58.7504H83.582ZM85.3384 58.7504V55.1346H85.9361L85.9659 55.6127H85.9825C86.1242 55.4378 86.2947 55.3039 86.4939 55.2109C86.6931 55.1158 86.9144 55.0682 87.1579 55.0682C87.5409 55.0682 87.8452 55.1755 88.071 55.3902C88.299 55.605 88.413 55.9658 88.413 56.4727V58.7504H87.7523V56.466C87.7523 56.1672 87.6825 55.9536 87.5431 55.8252C87.4058 55.6968 87.2099 55.6326 86.9554 55.6326C86.7385 55.6326 86.5481 55.6891 86.3843 55.802C86.2205 55.9126 86.091 56.0565 85.9958 56.2336V58.7504H85.3384ZM89.1368 57.6879H89.7943V57.7045C89.7943 57.9059 89.8762 58.0598 90.04 58.166C90.2038 58.2701 90.4196 58.3221 90.6874 58.3221C90.9553 58.3221 91.1644 58.2723 91.315 58.1727C91.4677 58.0708 91.5441 57.9425 91.5441 57.7875C91.5441 57.6281 91.4843 57.5064 91.3648 57.4223C91.2452 57.3359 90.9752 57.2507 90.5546 57.1666C90.1363 57.0825 89.8175 56.9541 89.5984 56.7815C89.3792 56.6088 89.2697 56.3731 89.2697 56.0742C89.2697 55.7754 89.3969 55.5275 89.6515 55.3305C89.9083 55.1335 90.2536 55.035 90.6874 55.035C91.1301 55.035 91.481 55.1368 91.74 55.3404C92.0012 55.5419 92.1318 55.8075 92.1318 56.1373V56.1539H91.4777V56.1373C91.4777 55.9602 91.4135 55.8197 91.2851 55.7156C91.1567 55.6116 90.9575 55.5596 90.6874 55.5596C90.4174 55.5596 90.2226 55.6061 90.103 55.699C89.9835 55.792 89.9238 55.9049 89.9238 56.0377C89.9238 56.1749 89.9846 56.2845 90.1064 56.3664C90.2303 56.4461 90.5015 56.528 90.9198 56.6121C91.3404 56.6962 91.6592 56.8268 91.8761 57.0039C92.0952 57.181 92.2048 57.43 92.2048 57.751C92.2048 58.0719 92.0775 58.3354 91.823 58.5412C91.5706 58.7471 91.1921 58.85 90.6874 58.85C90.1827 58.85 89.7976 58.746 89.532 58.5379C89.2685 58.3276 89.1368 58.0498 89.1368 57.7045V57.6879ZM92.9618 60.1317V55.1346H93.5595L93.5894 55.6061H93.606C93.7034 55.4578 93.8528 55.3316 94.0542 55.2275C94.2557 55.1213 94.4903 55.0682 94.7581 55.0682C95.2363 55.0682 95.6181 55.2397 95.9036 55.5828C96.1914 55.9259 96.3353 56.3609 96.3353 56.8877V56.994C96.3353 57.5208 96.1914 57.9568 95.9036 58.3022C95.6181 58.6453 95.2363 58.8168 94.7581 58.8168C94.4903 58.8168 94.2612 58.7725 94.0708 58.684C93.8827 58.5932 93.7322 58.4726 93.6193 58.3221V60.1317H92.9618ZM93.6193 57.6514C93.6945 57.8108 93.8174 57.9535 93.9878 58.0797C94.1583 58.2037 94.3652 58.2656 94.6087 58.2656C94.9717 58.2656 95.2374 58.1439 95.4056 57.9004C95.576 57.6547 95.6613 57.3525 95.6613 56.994V56.8877C95.6613 56.5313 95.576 56.2314 95.4056 55.9879C95.2374 55.7422 94.9717 55.6193 94.6087 55.6193C94.3652 55.6193 94.1583 55.6824 93.9878 55.8086C93.8174 55.9326 93.6945 56.0742 93.6193 56.2336V57.6514ZM97.1421 58.7504V55.1346H97.7995V58.7504H97.1421ZM97.079 54.1053C97.079 53.999 97.1122 53.9094 97.1786 53.8363C97.2473 53.7633 97.3447 53.7268 97.4708 53.7268C97.597 53.7268 97.6933 53.7633 97.7597 53.8363C97.8283 53.9094 97.8626 53.999 97.8626 54.1053C97.8626 54.2137 97.8283 54.3045 97.7597 54.3775C97.6933 54.4506 97.597 54.4871 97.4708 54.4871C97.3447 54.4871 97.2473 54.4506 97.1786 54.3775C97.1122 54.3045 97.079 54.2137 97.079 54.1053ZM98.8122 58.7504V55.1346H99.4099L99.4398 55.6027H99.4564C99.5538 55.4522 99.681 55.3205 99.8382 55.2076C99.9976 55.0925 100.187 55.035 100.406 55.035C100.457 55.035 100.51 55.0405 100.565 55.0516C100.623 55.0626 100.663 55.0726 100.685 55.0815V55.709C100.638 55.7001 100.59 55.6935 100.539 55.6891C100.488 55.6846 100.431 55.6824 100.37 55.6824C100.15 55.6824 99.9644 55.7367 99.8116 55.8451C99.6589 55.9536 99.5449 56.0875 99.4697 56.2469V58.7504H98.8122ZM101.306 58.7504V55.1346H101.963V58.7504H101.306ZM101.243 54.1053C101.243 53.999 101.276 53.9094 101.342 53.8363C101.411 53.7633 101.508 53.7268 101.635 53.7268C101.761 53.7268 101.857 53.7633 101.923 53.8363C101.992 53.9094 102.026 53.999 102.026 54.1053C102.026 54.2137 101.992 54.3045 101.923 54.3775C101.857 54.4506 101.761 54.4871 101.635 54.4871C101.508 54.4871 101.411 54.4506 101.342 54.3775C101.276 54.3045 101.243 54.2137 101.243 54.1053ZM102.976 58.7504V55.1346H103.574L103.604 55.6127H103.62C103.762 55.4378 103.932 55.3039 104.131 55.2109C104.331 55.1158 104.552 55.0682 104.796 55.0682C105.178 55.0682 105.483 55.1755 105.709 55.3902C105.937 55.605 106.051 55.9658 106.051 56.4727V58.7504H105.39V56.466C105.39 56.1672 105.32 55.9536 105.181 55.8252C105.043 55.6968 104.848 55.6326 104.593 55.6326C104.376 55.6326 104.186 55.6891 104.022 55.802C103.858 55.9126 103.729 56.0565 103.633 56.2336V58.7504H102.976ZM106.937 59.6934L107.319 59.1887C107.43 59.3038 107.583 59.4045 107.78 59.4908C107.98 59.5772 108.202 59.6203 108.448 59.6203C108.775 59.6203 109.033 59.5351 109.222 59.3647C109.412 59.1964 109.507 58.9585 109.507 58.6508V58.3221C109.394 58.4726 109.243 58.5932 109.052 58.684C108.864 58.7725 108.636 58.8168 108.368 58.8168C107.89 58.8168 107.507 58.6453 107.219 58.3022C106.934 57.9568 106.791 57.5208 106.791 56.994V56.8877C106.791 56.3609 106.934 55.9259 107.219 55.5828C107.507 55.2397 107.89 55.0682 108.368 55.0682C108.636 55.0682 108.871 55.1213 109.072 55.2275C109.274 55.3316 109.423 55.4578 109.52 55.6061H109.537L109.567 55.1346H110.164V58.6508C110.164 59.1488 110.007 59.5307 109.693 59.7963C109.379 60.0641 108.97 60.1981 108.468 60.1981C108.156 60.1981 107.868 60.1505 107.605 60.0553C107.341 59.9601 107.119 59.8395 106.937 59.6934ZM107.465 56.994C107.465 57.3525 107.549 57.6547 107.717 57.9004C107.888 58.1439 108.155 58.2656 108.518 58.2656C108.761 58.2656 108.968 58.2037 109.139 58.0797C109.309 57.9535 109.432 57.8108 109.507 57.6514V56.2336C109.432 56.0742 109.309 55.9326 109.139 55.8086C108.968 55.6824 108.761 55.6193 108.518 55.6193C108.155 55.6193 107.888 55.7422 107.717 55.9879C107.549 56.2314 107.465 56.5313 107.465 56.8877V56.994ZM112.884 58.7504V53.916H113.807L115.241 57.409C115.268 57.4754 115.295 57.5451 115.324 57.6182C115.353 57.6912 115.38 57.7598 115.404 57.824H115.434C115.456 57.7598 115.48 57.6912 115.507 57.6182C115.536 57.5451 115.563 57.4754 115.59 57.409L116.994 53.916H117.954V58.7504H117.293V55.2242C117.293 55.1578 117.294 55.0837 117.297 55.0018C117.301 54.9177 117.308 54.8424 117.316 54.776H117.28C117.258 54.8424 117.231 54.9177 117.2 55.0018C117.171 55.0837 117.144 55.1578 117.117 55.2242L115.699 58.7504H115.108L113.661 55.2242C113.634 55.1578 113.607 55.0837 113.578 55.0018C113.551 54.9177 113.532 54.8424 113.521 54.776H113.481C113.488 54.8424 113.495 54.9177 113.501 55.0018C113.508 55.0837 113.511 55.1578 113.511 55.2242V58.7504H112.884ZM119.043 58.7504V55.1346H119.7V58.7504H119.043ZM118.98 54.1053C118.98 53.999 119.013 53.9094 119.08 53.8363C119.148 53.7633 119.246 53.7268 119.372 53.7268C119.498 53.7268 119.594 53.7633 119.661 53.8363C119.729 53.9094 119.763 53.999 119.763 54.1053C119.763 54.2137 119.729 54.3045 119.661 54.3775C119.594 54.4506 119.498 54.4871 119.372 54.4871C119.246 54.4871 119.148 54.4506 119.08 54.3775C119.013 54.3045 118.98 54.2137 118.98 54.1053ZM120.713 58.7504V55.1346H121.311L121.341 55.6127H121.357C121.499 55.4378 121.669 55.3039 121.869 55.2109C122.068 55.1158 122.289 55.0682 122.533 55.0682C122.916 55.0682 123.22 55.1755 123.446 55.3902C123.674 55.605 123.788 55.9658 123.788 56.4727V58.7504H123.127V56.466C123.127 56.1672 123.057 55.9536 122.918 55.8252C122.781 55.6968 122.585 55.6326 122.33 55.6326C122.113 55.6326 121.923 55.6891 121.759 55.802C121.595 55.9126 121.466 56.0565 121.371 56.2336V58.7504H120.713ZM124.528 56.994V56.8877C124.528 56.3609 124.671 55.9259 124.956 55.5828C125.244 55.2397 125.627 55.0682 126.105 55.0682C126.373 55.0682 126.601 55.1136 126.789 55.2043C126.98 55.2928 127.131 55.4124 127.244 55.5629V53.6504H127.902V58.7504H127.304L127.274 58.2789H127.257C127.16 58.4272 127.011 58.5545 126.809 58.6608C126.608 58.7648 126.373 58.8168 126.105 58.8168C125.627 58.8168 125.244 58.6453 124.956 58.3022C124.671 57.9568 124.528 57.5208 124.528 56.994ZM125.202 56.994C125.202 57.3525 125.286 57.6547 125.455 57.9004C125.625 58.1439 125.892 58.2656 126.255 58.2656C126.498 58.2656 126.705 58.2037 126.876 58.0797C127.046 57.9535 127.169 57.8108 127.244 57.6514V56.2336C127.169 56.0742 127.046 55.9326 126.876 55.8086C126.705 55.6824 126.498 55.6193 126.255 55.6193C125.892 55.6193 125.625 55.7422 125.455 55.9879C125.286 56.2314 125.202 56.5313 125.202 56.8877V56.994ZM128.662 57.6879H129.319V57.7045C129.319 57.9059 129.401 58.0598 129.565 58.166C129.729 58.2701 129.945 58.3221 130.213 58.3221C130.48 58.3221 130.69 58.2723 130.84 58.1727C130.993 58.0708 131.069 57.9425 131.069 57.7875C131.069 57.6281 131.009 57.5064 130.89 57.4223C130.77 57.3359 130.5 57.2507 130.08 57.1666C129.661 57.0825 129.343 56.9541 129.123 56.7815C128.904 56.6088 128.795 56.3731 128.795 56.0742C128.795 55.7754 128.922 55.5275 129.177 55.3305C129.433 55.1335 129.779 55.035 130.213 55.035C130.655 55.035 131.006 55.1368 131.265 55.3404C131.526 55.5419 131.657 55.8075 131.657 56.1373V56.1539H131.003V56.1373C131.003 55.9602 130.939 55.8197 130.81 55.7156C130.682 55.6116 130.483 55.5596 130.213 55.5596C129.942 55.5596 129.748 55.6061 129.628 55.699C129.509 55.792 129.449 55.9049 129.449 56.0377C129.449 56.1749 129.51 56.2845 129.631 56.3664C129.755 56.4461 130.027 56.528 130.445 56.6121C130.866 56.6962 131.184 56.8268 131.401 57.0039C131.62 57.181 131.73 57.43 131.73 57.751C131.73 58.0719 131.603 58.3354 131.348 58.5412C131.096 58.7471 130.717 58.85 130.213 58.85C129.708 58.85 129.323 58.746 129.057 58.5379C128.794 58.3276 128.662 58.0498 128.662 57.7045V57.6879ZM132.354 59.4875C132.463 59.3414 132.546 59.192 132.603 59.0393C132.663 58.8865 132.693 58.7072 132.693 58.5014V57.9668H133.324V58.5014C133.324 58.7559 133.268 58.9895 133.158 59.202C133.049 59.4145 132.904 59.5982 132.723 59.7531L132.354 59.4875ZM135.997 56.4693V56.1971C135.997 55.4489 136.199 54.8656 136.604 54.4473C137.009 54.0267 137.529 53.8164 138.165 53.8164C138.798 53.8164 139.317 54.0267 139.722 54.4473C140.129 54.8656 140.333 55.4489 140.333 56.1971V56.4693C140.333 57.2175 140.129 57.8019 139.722 58.2225C139.317 58.6408 138.798 58.85 138.165 58.85C137.529 58.85 137.009 58.6408 136.604 58.2225C136.199 57.8019 135.997 57.2175 135.997 56.4693ZM136.684 56.4693C136.684 57.0272 136.819 57.4654 137.089 57.7842C137.361 58.1007 137.72 58.259 138.165 58.259C138.61 58.259 138.967 58.1007 139.237 57.7842C139.509 57.4654 139.646 57.0272 139.646 56.4693V56.1971C139.646 55.6393 139.509 55.2021 139.237 54.8856C138.967 54.5668 138.61 54.4074 138.165 54.4074C137.72 54.4074 137.361 54.5668 137.089 54.8856C136.819 55.2021 136.684 55.6393 136.684 56.1971V56.4693ZM141.206 58.7504V55.1346H141.804L141.834 55.6127H141.85C141.992 55.4378 142.162 55.3039 142.362 55.2109C142.561 55.1158 142.782 55.0682 143.026 55.0682C143.409 55.0682 143.713 55.1755 143.939 55.3902C144.167 55.605 144.281 55.9658 144.281 56.4727V58.7504H143.62V56.466C143.62 56.1672 143.55 55.9536 143.411 55.8252C143.274 55.6968 143.078 55.6326 142.823 55.6326C142.606 55.6326 142.416 55.6891 142.252 55.802C142.088 55.9126 141.959 56.0565 141.864 56.2336V58.7504H141.206ZM145.021 56.994V56.8877C145.021 56.3432 145.177 55.8983 145.489 55.5529C145.804 55.2076 146.218 55.035 146.731 55.035C147.249 55.035 147.646 55.1966 147.923 55.5197C148.202 55.8429 148.341 56.279 148.341 56.8279V57.1068H145.43V56.5789H147.674V56.5889C147.674 56.2989 147.602 56.0587 147.458 55.8684C147.317 55.6758 147.074 55.5795 146.731 55.5795C146.392 55.5795 146.133 55.7057 145.954 55.958C145.777 56.2104 145.689 56.5203 145.689 56.8877V56.994C145.689 57.3614 145.781 57.6724 145.967 57.927C146.156 58.1793 146.446 58.3055 146.837 58.3055C147.079 58.3055 147.286 58.2568 147.458 58.1594C147.633 58.062 147.774 57.9458 147.88 57.8108L148.305 58.1693C148.188 58.3376 148.003 58.4936 147.75 58.6375C147.5 58.7792 147.196 58.85 146.837 58.85C146.251 58.85 145.801 58.6774 145.489 58.332C145.177 57.9867 145.021 57.5407 145.021 56.994ZM150.639 56.4693V56.1971C150.639 55.4489 150.842 54.8656 151.247 54.4473C151.652 54.0267 152.16 53.8164 152.771 53.8164C153.384 53.8164 153.852 53.9769 154.175 54.2979C154.501 54.6166 154.685 55.0007 154.73 55.45L154.733 55.4832H154.052L154.049 55.45C154.022 55.191 153.908 54.9531 153.707 54.7361C153.506 54.517 153.194 54.4074 152.771 54.4074C152.35 54.4074 152.004 54.5668 151.731 54.8856C151.461 55.2021 151.326 55.6393 151.326 56.1971V56.4693C151.326 57.0272 151.461 57.4654 151.731 57.7842C152.004 58.1007 152.35 58.259 152.771 58.259C153.194 58.259 153.506 58.1505 153.707 57.9336C153.908 57.7145 154.022 57.4754 154.049 57.2164L154.052 57.1832H154.733L154.73 57.2164C154.685 57.6658 154.501 58.0509 154.175 58.3719C153.852 58.6906 153.384 58.85 152.771 58.85C152.16 58.85 151.652 58.6408 151.247 58.2225C150.842 57.8019 150.639 57.2175 150.639 56.4693ZM155.543 58.7504V53.6504H156.201V58.7504H155.543ZM157.24 58.7504V55.1346H157.897V58.7504H157.24ZM157.177 54.1053C157.177 53.999 157.21 53.9094 157.276 53.8363C157.345 53.7633 157.442 53.7268 157.569 53.7268C157.695 53.7268 157.791 53.7633 157.857 53.8363C157.926 53.9094 157.96 53.999 157.96 54.1053C157.96 54.2137 157.926 54.3045 157.857 54.3775C157.791 54.4506 157.695 54.4871 157.569 54.4871C157.442 54.4871 157.345 54.4506 157.276 54.3775C157.21 54.3045 157.177 54.2137 157.177 54.1053ZM158.701 56.994V56.8877C158.701 56.3432 158.856 55.8983 159.166 55.5529C159.478 55.2076 159.906 55.035 160.451 55.035C160.955 55.035 161.338 55.1645 161.599 55.4234C161.863 55.6824 161.995 55.9713 161.995 56.29V56.3066H161.354V56.29C161.354 56.1041 161.282 55.9403 161.138 55.7986C160.996 55.6548 160.767 55.5828 160.451 55.5828C160.081 55.5828 159.809 55.709 159.634 55.9613C159.461 56.2137 159.375 56.5225 159.375 56.8877V56.994C159.375 57.3614 159.461 57.6713 159.634 57.9236C159.809 58.176 160.081 58.3022 160.451 58.3022C160.767 58.3022 160.996 58.2313 161.138 58.0897C161.282 57.9458 161.354 57.7809 161.354 57.5949V57.5783H161.995V57.5949C161.995 57.9137 161.863 58.2025 161.599 58.4615C161.338 58.7205 160.955 58.85 160.451 58.85C159.906 58.85 159.478 58.6774 159.166 58.332C158.856 57.9867 158.701 57.5407 158.701 56.994ZM162.735 58.7504V53.6504H163.392V56.7715L164.966 55.1346H165.747L163.392 57.5053V58.7504H162.735ZM165.155 58.7504L163.678 56.8412L164.113 56.3897L165.949 58.7504H165.155ZM167.556 58.7504L169.469 53.8861H170.119L172.032 58.7504H171.315L169.947 55.1479C169.913 55.066 169.885 54.9874 169.86 54.9121C169.838 54.8369 169.817 54.7594 169.797 54.6797H169.761C169.743 54.7594 169.722 54.8369 169.698 54.9121C169.673 54.9874 169.646 55.066 169.615 55.1479L168.233 58.7504H167.556ZM168.376 57.5186L168.589 56.9475L170.983 56.9541L171.195 57.5252L168.376 57.5186ZM171.965 55.6525V55.1346H174.114V55.6525H171.965ZM172.639 57.8473V55.4434V55.3438V54.3941H173.297V57.8473C173.297 58.0022 173.33 58.1129 173.397 58.1793C173.463 58.2457 173.567 58.2789 173.709 58.2789C173.775 58.2789 173.839 58.2723 173.901 58.259C173.965 58.2457 174.031 58.228 174.097 58.2059V58.7504C174.035 58.777 173.955 58.8002 173.858 58.8201C173.761 58.84 173.654 58.85 173.539 58.85C173.265 58.85 173.046 58.7692 172.882 58.6076C172.72 58.446 172.639 58.1926 172.639 57.8473ZM175.943 58.7504L177.856 53.8861H178.506L180.419 58.7504H179.702L178.334 55.1479C178.301 55.066 178.272 54.9874 178.247 54.9121C178.225 54.8369 178.204 54.7594 178.184 54.6797H178.148C178.13 54.7594 178.109 54.8369 178.085 54.9121C178.06 54.9874 178.033 55.066 178.002 55.1479L176.621 58.7504H175.943ZM176.763 57.5186L176.976 56.9475L179.37 56.9541L179.582 57.5252L176.763 57.5186ZM182.019 54.4838V53.916H185.984V54.4838H184.34V58.7504H183.663V54.4838H182.019ZM186.585 58.7504V55.1346H187.242V58.7504H186.585ZM186.522 54.1053C186.522 53.999 186.555 53.9094 186.621 53.8363C186.69 53.7633 186.787 53.7268 186.914 53.7268C187.04 53.7268 187.136 53.7633 187.202 53.8363C187.271 53.9094 187.305 53.999 187.305 54.1053C187.305 54.2137 187.271 54.3045 187.202 54.3775C187.136 54.4506 187.04 54.4871 186.914 54.4871C186.787 54.4871 186.69 54.4506 186.621 54.3775C186.555 54.3045 186.522 54.2137 186.522 54.1053ZM188.255 58.7504V55.1346H188.853L188.882 55.6127H188.899C189.039 55.44 189.205 55.3061 189.397 55.2109C189.59 55.1158 189.804 55.0682 190.041 55.0682C190.296 55.0682 190.515 55.118 190.699 55.2176C190.885 55.315 191.025 55.471 191.12 55.6858H191.137C191.299 55.4666 191.479 55.3094 191.678 55.2143C191.877 55.1169 192.103 55.0682 192.355 55.0682C192.747 55.0682 193.054 55.1766 193.275 55.3936C193.499 55.6083 193.611 55.968 193.611 56.4727V58.7504H192.953V56.466C192.951 56.1672 192.883 55.9536 192.751 55.8252C192.62 55.6968 192.433 55.6326 192.189 55.6326C191.979 55.6326 191.795 55.6891 191.638 55.802C191.483 55.9126 191.358 56.0565 191.263 56.2336V58.7504H190.602V56.466C190.602 56.1672 190.536 55.9536 190.403 55.8252C190.27 55.6968 190.082 55.6326 189.839 55.6326C189.628 55.6326 189.445 55.6891 189.288 55.802C189.133 55.9126 189.008 56.0565 188.912 56.2336V58.7504H188.255ZM194.354 56.994V56.8877C194.354 56.3432 194.51 55.8983 194.822 55.5529C195.137 55.2076 195.551 55.035 196.064 55.035C196.582 55.035 196.98 55.1966 197.256 55.5197C197.535 55.8429 197.675 56.279 197.675 56.8279V57.1068H194.763V56.5789H197.007V56.5889C197.007 56.2989 196.935 56.0587 196.791 55.8684C196.65 55.6758 196.407 55.5795 196.064 55.5795C195.726 55.5795 195.467 55.7057 195.287 55.958C195.11 56.2104 195.022 56.5203 195.022 56.8877V56.994C195.022 57.3614 195.115 57.6724 195.301 57.927C195.489 58.1793 195.779 58.3055 196.171 58.3055C196.412 58.3055 196.619 58.2568 196.791 58.1594C196.966 58.062 197.107 57.9458 197.213 57.8108L197.638 58.1693C197.521 58.3376 197.336 58.4936 197.084 58.6375C196.833 58.7792 196.529 58.85 196.171 58.85C195.584 58.85 195.135 58.6774 194.822 58.332C194.51 57.9867 194.354 57.5407 194.354 56.994Z" fill="#444444"/>
</g>
<defs>
<linearGradient id="paint0_linear_1366_1156" x1="57" y1="12.5" x2="57" y2="55.501" gradientUnits="userSpaceOnUse">
<stop stop-color="#6E8AF5"/>
<stop offset="1" stop-color="#001B48"/>
</linearGradient>
<linearGradient id="paint1_linear_1366_1156" x1="49" y1="9.5" x2="49" y2="67" gradientUnits="userSpaceOnUse">
<stop stop-color="#6E8AF5"/>
<stop offset="1" stop-color="#001B48"/>
</linearGradient>
<linearGradient id="paint2_linear_1366_1156" x1="66" y1="8" x2="66" y2="51.5" gradientUnits="userSpaceOnUse">
<stop stop-color="#6E8AF5"/>
<stop offset="1" stop-color="#001B48"/>
</linearGradient>
<linearGradient id="paint3_linear_1366_1156" x1="57" y1="42.4991" x2="57" y2="60.4991" gradientUnits="userSpaceOnUse">
<stop stop-color="#001B48"/>
<stop offset="1" stop-color="#6E8AF5"/>
</linearGradient>
<linearGradient id="paint4_linear_1366_1156" x1="92" y1="24.001" x2="92.1102" y2="47.8159" gradientUnits="userSpaceOnUse">
<stop stop-color="#001B48"/>
<stop offset="1" stop-color="#6E8AF5"/>
</linearGradient>
<linearGradient id="paint5_linear_1366_1156" x1="109" y1="16.5" x2="109" y2="70" gradientUnits="userSpaceOnUse">
<stop stop-color="#6E8AF5"/>
<stop offset="1" stop-color="#001B48"/>
</linearGradient>
<linearGradient id="paint6_linear_1366_1156" x1="118.5" y1="10" x2="120" y2="53" gradientUnits="userSpaceOnUse">
<stop stop-color="#001B48"/>
<stop offset="1" stop-color="#6E8AF5"/>
</linearGradient>
<linearGradient id="paint7_linear_1366_1156" x1="134" y1="21" x2="134" y2="60.5" gradientUnits="userSpaceOnUse">
<stop stop-color="#6E8AF5"/>
<stop offset="1" stop-color="#001B48"/>
</linearGradient>
<linearGradient id="paint8_linear_1366_1156" x1="155" y1="18.5" x2="154.745" y2="47.8159" gradientUnits="userSpaceOnUse">
<stop stop-color="#001B48"/>
<stop offset="1" stop-color="#6E8AF5"/>
</linearGradient>
<linearGradient id="paint9_linear_1366_1156" x1="173" y1="21" x2="173" y2="56" gradientUnits="userSpaceOnUse">
<stop stop-color="#6E8AF5"/>
<stop offset="1" stop-color="#001B48"/>
</linearGradient>
<linearGradient id="paint10_linear_1366_1156" x1="188" y1="20" x2="188.254" y2="47.3522" gradientUnits="userSpaceOnUse">
<stop stop-color="#001B48"/>
<stop offset="1" stop-color="#6E8AF5"/>
</linearGradient>
<clipPath id="clip0_1366_1156">
<rect width="234" height="70" fill="white"/>
</clipPath>
</defs>
</svg>
