<?xml version="1.0" encoding="utf-8" ?>
<svg xmlns="http://www.w3.org/2000/svg" xmlns:xlink="http://www.w3.org/1999/xlink" width="60" height="60">
	<path fill="#1869AD" transform="scale(0.117188 0.117188)" d="M318.612 318.23C321.342 318.419 324.089 318.267 326.825 318.249L341.906 318.225C344.327 318.241 347.537 317.967 349.838 318.66C353.608 319.796 353.736 324.47 350.082 325.725L318.612 325.725C315.124 323.835 314.352 320.062 318.612 318.23Z"/>
	<path fill="#1869AD" transform="scale(0.117188 0.117188)" d="M318.612 260.767C326.303 260.674 342.395 259.831 349.605 260.906C354.16 261.585 353.052 266.097 350.082 268.012C347.364 268.299 319.282 268.127 318.259 267.883C313.645 266.78 315.416 262.255 318.612 260.767Z"/>
	<path fill="#6AD2F6" transform="scale(0.117188 0.117188)" d="M246.927 123.164C250.653 122.97 281.388 122.438 283.47 123.891C286.007 125.663 284.994 130.063 281.813 130.272L255.612 130.221C252.635 130.215 245.32 131.834 244.17 127.92C243.467 125.53 244.471 123.623 246.927 123.164Z"/>
	<path fill="#6AD2F6" transform="scale(0.117188 0.117188)" d="M245.994 141.677C257.009 141.618 268.14 141.382 279.148 141.675C285.428 141.842 286.74 146.038 282.667 149.248C276.476 150.11 254.563 149.645 248.436 149.176C243.528 148.8 242.026 144.289 245.994 141.677Z"/>
	<path fill="#6AD2F6" transform="scale(0.117188 0.117188)" d="M246.927 182.763C253.42 182.714 297.831 182.191 300.258 183.319C303.74 184.938 302.36 189.146 299.331 190.246L265.7 190.259C261.051 190.26 249.2 191.288 245.219 189.574C243.225 186.926 243.652 183.839 246.927 182.763Z"/>
	<path fill="#6AD2F6" transform="scale(0.117188 0.117188)" d="M246.927 260.767L287.221 260.754C289.957 260.752 299.605 260.337 301.716 260.89C305.814 261.963 305.329 266.496 301.941 268.012C297.918 268.353 246.792 268.11 245.759 267.769C242.932 266.835 242.684 262.563 246.927 260.767Z"/>
	<path fill="#6AD2F6" transform="scale(0.117188 0.117188)" d="M246.927 201.727L286.235 201.723C289.891 201.718 298.753 201.228 301.684 201.854C305.79 202.73 304.865 207.589 301.941 209.27C299.739 209.5 297.403 209.3 295.183 209.285L283.452 209.277C277.771 209.278 249.376 210.215 246.009 208.914C242.693 207.632 243.378 203.267 246.927 201.727Z"/>
	<path fill="#6AD2F6" transform="scale(0.117188 0.117188)" d="M245.994 318.23C249.365 318.061 252.806 318.219 256.185 318.22L290.633 318.218C294.944 318.215 299.666 317.568 303.622 319.599C305.632 321.775 305.131 324.3 302.615 325.725L246.927 325.725C242.925 323.831 242.637 320.896 245.994 318.23Z"/>
	<path fill="#6AD2F6" transform="scale(0.117188 0.117188)" d="M248.145 298.976L302.016 298.976C306.573 298.975 329.4 297.929 332.169 299.481C334.974 301.054 334.589 305.875 329.062 306.112L273.727 306.111C264.841 306.111 255.788 306.521 246.927 306.112C242.12 303.654 243.113 299.4 248.145 298.976Z"/>
	<path fill="#6AD2F6" transform="scale(0.117188 0.117188)" d="M246.927 241.534L322.904 241.517C326.178 241.486 335.134 239.838 333.575 245.922C333.223 247.298 332.413 248.172 331.234 248.906L267.536 248.912C263.622 248.912 248.496 249.386 246.158 248.732C242.319 247.658 243.634 242.737 246.927 241.534Z"/>
	<path fill="#1869AD" transform="scale(0.117188 0.117188)" d="M189.893 173.454L209.027 173.428C230.202 173.367 228.123 176.848 228.235 197.413C228.28 205.625 230.178 219.145 218.062 219.252C210.806 219.155 193.74 220.237 187.38 218.851C177.308 216.655 179.409 204.861 179.376 197.255C179.336 188.2 176.638 173.785 189.893 173.454Z"/>
	<path fill="#EDDE6F" transform="scale(0.117188 0.117188)" d="M190.483 180.013L208.142 179.988C212.238 179.986 220.724 178.383 221.406 183.476C222.089 188.571 221.582 194.327 221.56 199.487C221.545 203.028 223.424 212.48 218.062 212.728L199.866 212.742C195.8 212.744 186.94 214.446 186.147 208.849C185.436 203.835 186.062 198.19 186.058 193.1C186.054 188.339 183.787 180.706 190.483 180.013Z"/>
	<path fill="#1869AD" transform="scale(0.117188 0.117188)" d="M211.877 188.746C222.737 187.006 206.624 203.587 202.714 205.343C200.505 204.021 199.037 202.663 197.4 200.679C190.134 194.832 193.263 187.506 202.714 196.985C205.411 193.973 208.07 190.348 211.877 188.746Z"/>
	<path fill="#1869AD" transform="scale(0.117188 0.117188)" d="M188.47 291.25C193.494 290.912 198.772 291.228 203.818 291.228C211.505 291.228 225.188 288.62 227.875 298.529C228.664 301.44 228.48 324.57 228.138 328.366C227.684 333.408 224.221 336.823 219.356 338.145C213.621 338.342 207.811 338.166 202.069 338.174C194.859 338.185 182.114 340.199 179.735 330.785C178.903 327.494 179.067 304.971 179.536 300.877C180.134 295.658 183.258 292.407 188.47 291.25Z"/>
	<path fill="#EDDE6F" transform="scale(0.117188 0.117188)" d="M189.215 297.953C194.285 297.737 217.411 297.014 220.73 299.209C222.216 301.295 221.823 324.679 221.575 329.272C220.884 330.159 220.221 330.949 219.356 331.677C212.888 332.011 190.368 333.735 186.001 329.272C185.794 322.886 183.295 300.202 189.215 297.953Z"/>
	<path fill="#1869AD" transform="scale(0.117188 0.117188)" d="M211.877 305.199C223.03 305.571 204.075 322.59 201.966 322.91C200.045 322.508 198.754 320.917 197.4 319.599C193.998 316.224 190.887 313.265 196.52 310.486C198.727 311.594 200.106 313.136 201.777 314.907C205.176 311.672 207.78 307.626 211.877 305.199Z"/>
	<path fill="#1869AD" transform="scale(0.117188 0.117188)" d="M189.893 231.797L208.204 231.772C231.404 231.776 228.268 236.829 228.27 256.204C228.271 265.409 230.643 277.58 218.062 278.987L199.059 279C178.581 279.009 179.349 276.684 179.336 255.208C179.33 245.54 177.069 233.584 189.893 231.797Z"/>
	<path fill="#EDDE6F" transform="scale(0.117188 0.117188)" d="M189.215 238.472C199.247 238.266 209.32 238.475 219.356 238.472C223.486 241.912 221.864 268.892 221.036 270.519C220.447 271.679 219.212 271.997 218.062 272.357L199.141 272.379C196.273 272.378 188.239 273.701 186.653 270.394C185.994 269.019 182.864 240.695 189.215 238.472Z"/>
	<path fill="#1869AD" transform="scale(0.117188 0.117188)" d="M210.573 248.906C222.118 246.498 206.87 262.978 202.707 264.714C200.674 264.184 198.926 262.158 197.4 260.767C195.885 258.958 191.95 255.765 193.773 253.086C196.636 248.88 200.448 254.073 202.714 256.205C205.325 253.679 207.232 250.534 210.573 248.906Z"/>
	<path fill="#1869AD" transform="scale(0.117188 0.117188)" d="M189.215 113.052C195.456 112.931 201.724 113.028 207.968 113.02C215.971 113.01 227.076 111.118 228.05 122.239C228.546 127.906 228.905 146.337 227.992 151.885C227.012 157.843 223.133 160.25 217.249 160.632L199.045 160.658C177.894 160.771 179.334 157.742 179.325 135.952C179.321 126.887 176.798 114.325 189.215 113.052Z"/>
	<path fill="#EDDE6F" transform="scale(0.117188 0.117188)" d="M188.47 119.782L209.381 119.774C212.985 119.76 221.094 117.7 221.549 123.022C221.989 128.177 221.583 133.67 221.581 138.855C221.58 143.205 223.535 150.922 219.356 153.76C214.808 154.089 188.358 155.619 186.598 151.504C185.862 149.783 183.51 121.409 188.47 119.782Z"/>
	<path fill="#1869AD" transform="scale(0.117188 0.117188)" d="M212.721 127.181C222.797 131.235 205.736 143.661 203.06 144.815C201.404 144.774 198.618 141.505 197.4 140.349C196.287 139.21 193.999 137.402 193.774 135.828C193.525 134.075 196.022 132.021 197.635 132.158C199.656 132.329 201.523 135.145 202.714 136.561C206.206 133.748 208.815 129.418 212.721 127.181Z"/>
	<path fill="#0DE3A9" transform="scale(0.117188 0.117188)" d="M388.85 197.728C395.404 203.887 400.963 204.114 409.004 201.727L409.008 336.859C409.015 342.317 409.32 347.874 409.004 353.314L377.904 353.314C377.509 348.732 377.885 343.774 377.89 339.163L377.904 214.965C386.159 211.616 389.187 206.309 388.85 197.728Z"/>
	<path fill="#1869AD" transform="scale(0.117188 0.117188)" d="M357.745 65.3344C378.024 65.335 377.35 64.3237 377.245 84.8669C380.947 85.7577 384.108 87.2211 387.508 88.8791C390.537 85.3551 398.313 76.0994 403.65 79.3736C405.881 80.7426 415.71 90.6895 417.604 93.0503C421.786 98.2597 410.564 106.559 408.067 110.337L407.876 110.629C409.587 113.926 410.583 116.829 411.327 120.49C417.63 122.35 428.141 119.249 429.246 128.056C429.707 131.722 430.464 145.658 427.841 148.795C425.775 151.268 414.737 151.522 411.327 151.786C410.064 154.712 408.839 157.589 407.876 160.632C410.814 164.214 421.476 171.536 417.441 176.722C415.946 178.644 406.308 188.625 404.493 189.897C398.712 193.95 391.469 185.312 387.508 181.998C384.237 183.889 380.84 185.452 377.245 186.613C377.153 196.253 380.553 204.562 368.866 204.525C364.832 204.488 355.249 205.077 351.911 204.471C344.083 203.049 346.926 192.119 346.268 186.613C343.079 185.33 339.928 183.676 336.927 181.998C332.892 184.519 325.905 193.57 320.437 190.293C317.666 188.633 303.86 176.936 306.391 172.119C307.909 169.23 314.299 162.982 316.89 160.632C315.609 157.709 314.431 154.742 313.233 151.786C306.377 151.476 294.681 154.851 294.199 144.87C293.097 122.061 290.5 120.225 311.633 120.49C312.175 116.512 314.153 113.234 315.986 109.733C313.412 106.6 306.063 101.128 306.191 96.9553C306.291 93.7072 319.253 78.8338 324.138 79.3353C327.51 79.6816 334.9 86.2243 336.927 88.8791C340.12 87.5984 342.87 85.6759 346.268 84.8669C346.358 72.5259 343.1 65.3618 357.745 65.3344ZM356.74 77.4912C356.765 81.1153 357.436 89.2096 356.061 92.1813L355.488 92.3077L355.802 92.3535C354.797 92.8454 336.099 99.5307 335.303 99.5875C332.742 99.7704 326.592 93.6696 324.715 92.0023C322.31 95.2578 319.637 98.2596 316.89 101.227C318.933 103.422 321.908 107.131 324.715 108.271C325.624 108.525 327.446 111.296 328.143 112.134C323.115 120.405 323.266 122.989 319.734 130.272C315.109 132.218 310.461 132.272 305.514 132.208C305.512 136.562 305.418 140.936 305.514 145.289C323.317 145.124 316.402 145.645 324.715 161.405C325.803 162.765 326.942 164.04 328.143 165.302C325.084 170.037 320.867 173.911 317.887 178.668C319.73 180.579 321.588 182.374 323.583 184.128C327.389 180.845 331.731 176.316 335.573 173.454C338.707 175.306 341.904 177.196 345.235 178.674C350.402 180.965 353.423 179.614 353.565 185.234C359.331 186.218 358.98 195.228 357.745 197.728L365.807 197.728C365.753 193.651 363.589 181.935 369.655 182.238L370.026 182.763C370.147 181.065 377.02 179.719 379.124 178.824C382.431 177.418 385.382 175.374 388.85 174.353C392.231 176.084 397.372 181.562 400.811 184.128C402.643 182.229 404.321 180.287 406.421 178.668C403.318 174.336 398.955 171.199 395.867 166.885C396.894 164.988 398.272 163.694 399.825 162.234C399.501 161.296 405.398 147.373 406.153 146.53C407.8 144.69 418.719 144.315 421.367 144.116C424.213 143.579 422.767 132.139 422.751 129.078C418.356 128.149 413.712 128.329 409.254 127.819C404.46 127.27 404.618 116.64 399.825 110.629C400.135 106.8 405.318 102.455 407.876 99.801C405.569 97.3952 403.226 95.0484 400.811 92.7506C388.105 102.22 396.775 106.53 378.934 97.4338C375.165 95.5119 371.048 94.9872 367.83 92.0023C367.739 87.1646 367.889 82.3276 367.83 77.4912L356.74 77.4912ZM353.136 72.0492C353.152 77.6326 353.38 83.3042 353.136 88.8791C352.624 89.1897 337.759 96.4472 336.927 96.7799C332.343 93.8113 327.742 89.5944 323.583 85.999C320.346 90.0581 316.589 93.6855 313.233 97.6464C314.325 99.0446 315.543 100.084 316.89 101.227C319.637 98.2596 322.31 95.2578 324.715 92.0023C326.592 93.6696 332.742 99.7704 335.303 99.5875C336.099 99.5307 354.797 92.8454 355.802 92.3535L355.488 92.3077L356.061 92.1813C357.436 89.2096 356.765 81.1153 356.74 77.4912L367.83 77.4912C367.889 82.3276 367.739 87.1646 367.83 92.0023C371.048 94.9872 375.165 95.5119 378.934 97.4338C396.775 106.53 388.105 102.22 400.811 92.7506C403.226 95.0484 405.569 97.3952 407.876 99.801C409.036 98.8066 410.218 97.831 411.327 96.7799C408.957 92.6906 404.931 88.7313 401.005 86.1259L400.811 85.999C396.004 89.4001 392.401 94.4235 387.508 97.6464C383.988 94.7114 380.542 92.59 376.163 91.1732C372.697 90.052 370.114 90.6542 370.709 86.0801C371.358 81.0868 370.536 76.3145 371.112 72.0492L353.136 72.0492ZM324.715 108.271C322.774 111.216 320.668 114.145 319.378 117.452C314.191 130.749 317.574 127.281 300.745 127.181L300.745 145.289L305.514 145.289C305.418 140.936 305.512 136.562 305.514 132.208C310.461 132.272 315.109 132.218 319.734 130.272C323.266 122.989 323.115 120.405 328.143 112.134C327.446 111.296 325.624 108.525 324.715 108.271ZM395.867 166.885C398.955 171.199 403.318 174.336 406.421 178.668C408.013 176.885 409.79 175.289 411.327 173.454C407.163 170.478 403.148 166.135 399.825 162.234C398.272 163.694 396.894 164.988 395.867 166.885ZM324.715 161.405C320.907 165.559 316.422 169.717 313.233 174.353C314.71 175.868 316.151 177.442 317.887 178.668C320.867 173.911 325.084 170.037 328.143 165.302C326.942 164.04 325.803 162.765 324.715 161.405ZM365.807 197.728L370.026 197.728C370.044 192.741 370.111 187.749 370.026 182.763L369.655 182.238C363.589 181.935 365.753 193.651 365.807 197.728ZM353.565 185.234C353.484 189.397 353.544 193.565 353.565 197.728C354.956 197.73 356.356 197.763 357.745 197.728C358.98 195.228 359.331 186.218 353.565 185.234Z"/>
	<path fill="#6AD2F6" transform="scale(0.117188 0.117188)" d="M356.74 77.4912L367.83 77.4912C367.889 82.3276 367.739 87.1646 367.83 92.0023C371.048 94.9872 375.165 95.5119 378.934 97.4338C396.775 106.53 388.105 102.22 400.811 92.7506C403.226 95.0484 405.569 97.3952 407.876 99.801C405.318 102.455 400.135 106.8 399.825 110.629C404.618 116.64 404.46 127.27 409.254 127.819C413.712 128.329 418.356 128.149 422.751 129.078C422.767 132.139 424.213 143.579 421.367 144.116C418.719 144.315 407.8 144.69 406.153 146.53C405.398 147.373 399.501 161.296 399.825 162.234C398.272 163.694 396.894 164.988 395.867 166.885C398.955 171.199 403.318 174.336 406.421 178.668C404.321 180.287 402.643 182.229 400.811 184.128C397.372 181.562 392.231 176.084 388.85 174.353C385.382 175.374 382.431 177.418 379.124 178.824C377.02 179.719 370.147 181.065 370.026 182.763L369.655 182.238C363.589 181.935 365.753 193.651 365.807 197.728L357.745 197.728C358.98 195.228 359.331 186.218 353.565 185.234C353.423 179.614 350.402 180.965 345.235 178.674C341.904 177.196 338.707 175.306 335.573 173.454C331.731 176.316 327.389 180.845 323.583 184.128C321.588 182.374 319.73 180.579 317.887 178.668C320.867 173.911 325.084 170.037 328.143 165.302C326.942 164.04 325.803 162.765 324.715 161.405C316.402 145.645 323.317 145.124 305.514 145.289C305.418 140.936 305.512 136.562 305.514 132.208C310.461 132.272 315.109 132.218 319.734 130.272C323.266 122.989 323.115 120.405 328.143 112.134C327.446 111.296 325.624 108.525 324.715 108.271C321.908 107.131 318.933 103.422 316.89 101.227C319.637 98.2596 322.31 95.2578 324.715 92.0023C326.592 93.6696 332.742 99.7704 335.303 99.5875C336.099 99.5307 354.797 92.8454 355.802 92.3535L355.488 92.3077L356.061 92.1813C357.436 89.2096 356.765 81.1153 356.74 77.4912ZM359.352 106.605C324.324 109.389 324.555 163.864 364.058 162.234C390.236 158.211 398.753 126.377 377.132 111.256C372.456 107.985 365.088 105.617 359.352 106.605ZM399.825 110.629C395.508 113.871 398.801 115.33 400.154 119.414C401.448 123.319 401.747 127.551 403.014 131.437C408.547 131.594 414.054 132.225 419.59 132.208C419.743 136.592 417.444 143.862 421.367 144.116C424.213 143.579 422.767 132.139 422.751 129.078C418.356 128.149 413.712 128.329 409.254 127.819C404.46 127.27 404.618 116.64 399.825 110.629Z"/>
	<path fill="#1869AD" transform="scale(0.117188 0.117188)" d="M359.352 106.605C365.088 105.617 372.456 107.985 377.132 111.256C398.753 126.377 390.236 158.211 364.058 162.234C324.555 163.864 324.324 109.389 359.352 106.605ZM359.352 113.052C328.497 120.265 338.675 158.591 364.058 155.49C388.009 150.966 391.576 116.642 359.352 113.052Z"/>
	<path fill="#1869AD" transform="scale(0.117188 0.117188)" d="M133.957 170.026L133.936 136.762C133.932 131.311 132.206 122.411 135.824 118C139.314 113.746 166.396 86.3136 168.814 86.1347C173.811 85.7651 178.954 85.9941 183.967 85.993L295.43 85.999C295.348 88.2587 295.348 90.4908 295.43 92.7506L172.239 92.7506L172.268 108.734C172.299 124.375 170.269 124.35 156.46 124.312L140.741 124.298L140.741 365.63L371.112 365.63C370.716 360.554 371.103 355.256 371.107 350.153L371.112 215.941C373.437 215.787 375.643 215.543 377.904 214.965L377.89 339.163C377.885 343.774 377.509 348.732 377.904 353.314L377.904 365.63C389.166 365.088 410.191 364.679 421.367 365.63C421.704 351.292 421.371 336.857 421.37 322.509L421.364 206.951C421.356 193.789 418.635 193.5 428.504 184.128C428.711 200.057 428.505 216.018 428.504 231.949L428.499 372.261C428.501 387.253 431.674 407.719 411.378 411.887C406.552 412.878 401.301 412.641 396.387 412.643L334.968 412.639C327.195 412.635 319.402 412.489 311.633 412.637C311.469 420.572 311.63 428.543 311.633 436.482L332.936 436.486C335.6 436.477 341.999 435.164 344.104 437.305C345.417 438.641 345.264 441.886 343.636 442.942C340.907 444.71 329.276 443.521 325.659 443.518L180.802 443.547C177.732 443.551 165.817 445.352 167.728 438.961C168.115 437.667 169.356 437.089 170.449 436.482C173.587 436.193 176.995 436.457 180.159 436.46L200.45 436.482L200.45 412.637C198.976 412.582 197.497 412.615 196.022 412.621L112.477 412.645C94.9646 412.653 83.7536 408.8 83.719 388.927L83.7263 194.412C83.73 170.541 94.3353 170.023 113.234 170.018L133.957 170.026ZM90.754 372.713C90.6421 401.408 88.2949 405.658 116.687 405.659L379.614 405.649C388.658 405.656 409.998 407.665 416.645 401.464C421.511 396.226 421.395 390.533 421.392 383.775L421.367 372.713L101.241 372.698C97.8106 372.694 94.1523 372.392 90.754 372.713ZM90.754 365.63L133.957 365.63L133.957 353.314C132.7 353.534 104.608 353.521 103.36 353.314L103.36 188.746L133.957 188.746L133.957 176.854L113.401 176.841C88.2922 176.744 90.7306 181.907 90.756 204.712L90.754 365.63ZM165.249 98.4643C158.906 104.133 152.326 110.448 146.741 116.865L146.728 117.199L146.832 117.3C152.964 117.306 159.12 117.428 165.249 117.3C165.25 115.174 165.579 99.1422 165.249 98.4643Z"/>
	<path fill="#6AD2F6" transform="scale(0.117188 0.117188)" d="M207.495 412.637L304.735 412.637L304.735 436.482L207.495 436.482L207.495 412.637Z"/>
	<path fill="#0DE3A9" transform="scale(0.117188 0.117188)" d="M103.36 188.746L133.957 188.746C133.572 202.33 133.958 216.041 133.958 229.64L133.962 339.527C133.962 344.092 134.194 348.767 133.957 353.314C132.7 353.534 104.608 353.521 103.36 353.314L103.36 188.746Z"/>
</svg>
