<svg xmlns="http://www.w3.org/2000/svg" viewBox="0 0 64 64" id="Live">
  <g fill="#000000" class="color000000 svgShape">
    <path fill="#e3e3e3" d="M41 57H23l3-10h12l3 10z" class="colore3e3e3 svgShape"></path>
    <path fill="#d4d4d4" d="M26.772 52.425 28.4 47H26l-3 10h18l-.6-2H28.688a2 2 0 0 1-1.916-2.575Z" class="colord4d4d4 svgShape"></path>
    <rect width="58" height="46" x="3" y="3" fill="#89dfff" rx="2" class="color89f2ff svgShape"></rect>
    <path fill="#018abe" d="M10 44a2 2 0 0 1-2-2V3H5a2 2 0 0 0-2 2v42a2 2 0 0 0 2 2h54a2 2 0 0 0 2-2v-3Z" class="color01cadb svgShape"></path>
    <path fill="#e3e3e3" d="M61 41v6a2.006 2.006 0 0 1-2 2H5a2.006 2.006 0 0 1-2-2v-6Z" class="colore3e3e3 svgShape"></path>
    <path fill="#d4d4d4" d="M8 42v-1H3v6a2.006 2.006 0 0 0 2 2h54a2.006 2.006 0 0 0 2-2v-3H10a2 2 0 0 1-2-2Z" class="colord4d4d4 svgShape"></path>
    <path fill="#e3e3e3" d="M22 57h20a4 4 0 0 1 4 4H18a4 4 0 0 1 4-4Z" class="colore3e3e3 svgShape"></path>
    <path fill="#d4d4d4" d="M22.71 59a1.325 1.325 0 0 1-1.191-1.935l.01-.018A3.987 3.987 0 0 0 18 61h28a3.955 3.955 0 0 0-.555-2Z" class="colord4d4d4 svgShape"></path>
    <rect width="42" height="21" x="11" y="12" fill="#23b4eb" rx="4" class="coloreb2335 svgShape"></rect>
    <path fill="#2094c0" d="M15 25V12a4 4 0 0 0-4 4v13a4 4 0 0 0 4 4h34a4 4 0 0 0 4-4H19a4 4 0 0 1-4-4Z" class="colorc02027 svgShape"></path>
    <path d="M59 2H5a3 3 0 0 0-3 3v42a3 3 0 0 0 3 3h19.056l-1.8 6H22a5.006 5.006 0 0 0-5 5 1 1 0 0 0 1 1h28a1 1 0 0 0 1-1 5.006 5.006 0 0 0-5-5h-.256l-1.8-6H59a3 3 0 0 0 3-3V5a3 3 0 0 0-3-3ZM5 4h54a1 1 0 0 1 1 1v35H4V5a1 1 0 0 1 1-1Zm39.829 56H19.171A3.006 3.006 0 0 1 22 58h20a3.006 3.006 0 0 1 2.829 2Zm-5.173-4H24.344l1.8-6h11.71ZM59 48H5a1 1 0 0 1-1-1v-5h56v5a1 1 0 0 1-1 1Z" fill="#000000" class="color000000 svgShape"></path>
    <circle cx="32" cy="45" r="1" fill="#000000" class="color000000 svgShape"></circle>
    <path d="M15 34h34a5.006 5.006 0 0 0 5-5V16a5.006 5.006 0 0 0-5-5H15a5.006 5.006 0 0 0-5 5v13a5.006 5.006 0 0 0 5 5Zm-3-18a3 3 0 0 1 3-3h34a3 3 0 0 1 3 3v13a3 3 0 0 1-3 3H15a3 3 0 0 1-3-3Z" fill="#000000" class="color000000 svgShape"></path>
    <path d="M16 29.968h5.875a1 1 0 0 0 0-2H17V17.032a1 1 0 1 0-2 0v11.936a1 1 0 0 0 1 1zM26 30a1 1 0 0 0 1-1V17a1 1 0 0 0-2 0v12a1 1 0 0 0 1 1zm7.051-.653a1 1 0 0 0 1.9 0l4.029-12.125a1 1 0 0 0-1.9-.631L34 25.862l-3.082-9.271a1 1 0 0 0-1.9.631zM42 30h6a1 1 0 0 0 0-2h-5v-4h5a1 1 0 0 0 0-2h-5v-4h5a1 1 0 0 0 0-2h-6a1 1 0 0 0-1 1v12a1 1 0 0 0 1 1zm15 0a1 1 0 0 0 1-1V11a1 1 0 0 0-2 0v18a1 1 0 0 0 1 1z" fill="#000000" class="color000000 svgShape"></path>
    <circle cx="57" cy="33" r="1" fill="#000000" class="color000000 svgShape"></circle>
  </g>
</svg>
