<svg xmlns="http://www.w3.org/2000/svg" viewBox="0 0 512 512" id="monitor-book">
  <g>
    <polygon fill="#00acea" points="466.62 321.08 466.62 390.88 311.84 390.88 200.16 390.88 45.38 390.88 45.38 321.08 466.62 321.08"></polygon>
    <path fill="#00efd1" d="M466.62,54.74V321.08H45.38V54.74Zm-73.83,219V98.31H297.52a23.66,23.66,0,0,0-8.12,1.43l-25.28,9.19a23.769,23.769,0,0,1-16.24,0L222.6,99.74a23.66,23.66,0,0,0-8.12-1.43H119.21V273.74h95.27a23.9,23.9,0,0,1,8.12,1.43l25.28,9.2a23.769,23.769,0,0,0,16.24,0l25.28-9.2a23.9,23.9,0,0,1,8.12-1.43Z"></path>
    <path fill="#fedb41" d="M392.79,98.31V273.74H297.52a23.9,23.9,0,0,0-8.12,1.43l-25.28,9.2a23.928,23.928,0,0,1-8.13,1.43l.01-.26V110.36a23.829,23.829,0,0,0,8.12-1.43l25.28-9.19a23.66,23.66,0,0,1,8.12-1.43Z"></path>
    <polygon fill="#f4b844" points="311.84 390.88 330.45 457.26 181.55 457.26 200.16 390.88 311.84 390.88"></polygon>
    <path fill="#00acea" d="M256,110.7V285.54l-.01.26a23.773,23.773,0,0,1-8.11-1.43l-25.28-9.2a23.9,23.9,0,0,0-8.12-1.43H119.21V98.31h95.27a23.66,23.66,0,0,1,8.12,1.43l25.28,9.19a23.829,23.829,0,0,0,8.12,1.43Z"></path>
    <path fill="#083863" d="M466.62,47H45.38C40.962,47,37,50.322,37,54.74V390.88A8.436,8.436,0,0,0,45.38,399H189.608l-14.124,50H150.34a8,8,0,0,0,0,16H361.66a8,8,0,1,0,0-16H336.516l-14.124-50H466.62a8.436,8.436,0,0,0,8.38-8.12V54.74C475,50.322,471.038,47,466.62,47ZM192.1,449l14.124-50h99.548L319.9,449ZM459,383H53V329H459Zm0-70H53V63H459Z"></path>
    <path fill="#083863" d="M119.21,282h95.27a15.7,15.7,0,0,1,5.383.817l25.29,9.139a31.907,31.907,0,0,0,21.7-.052l25.264-9.073a15.729,15.729,0,0,1,5.4-.831h95.27a8.407,8.407,0,0,0,8.21-8.26V98.31A8.452,8.452,0,0,0,392.79,90H297.52a31.68,31.68,0,0,0-10.853,2.067l-25.273,9.265a15.859,15.859,0,0,1-10.781.041l-25.267-9.321A31.678,31.678,0,0,0,214.48,90H119.21A8.452,8.452,0,0,0,111,98.31V273.74A8.407,8.407,0,0,0,119.21,282ZM264,117.329c.961-.249,1.914-.54,2.854-.88l25.292-9.35a15.744,15.744,0,0,1,5.374-1.1H385V266H297.52a31.7,31.7,0,0,0-10.856,1.782L264,275.9ZM127,106h87.48a15.756,15.756,0,0,1,5.386,1.1l25.287,9.27c.937.339,1.888.707,2.847.956V275.9l-22.68-8.124A31.685,31.685,0,0,0,214.48,266H127Z"></path>
    <path fill="#083863" d="M292.99 147h30.38a8 8 0 0 0 0-16H292.99a8 8 0 0 0 0 16zM292.99 178h66.2a8 8 0 1 0 0-16h-66.2a8 8 0 0 0 0 16zM292.99 210h66.2a8 8 0 1 0 0-16h-66.2a8 8 0 0 0 0 16zM292.99 241h66.2a8 8 0 1 0 0-16h-66.2a8 8 0 0 0 0 16z"></path>
  </g>
</svg>
