<svg xmlns="http://www.w3.org/2000/svg" enable-background="new 0 0 512 512" viewBox="0 0 512 512" id="Feedback">
  <path fill="#357187" d="M71.5,447.5c-1,0-1.9-0.2-2.9-0.6c-2.8-1.2-4.6-3.9-4.6-6.9v-73.5H17.5c-4.1,0-7.5-3.4-7.5-7.5V71
			c0-4.1,3.4-7.5,7.5-7.5h477c4.1,0,7.5,3.4,7.5,7.5v288c0,4.1-3.4,7.5-7.5,7.5H357c-4.1,0-7.5-3.4-7.5-7.5s3.4-7.5,7.5-7.5h130
			v-273H25v273h46.5c4.1,0,7.5,3.4,7.5,7.5v62.9l68.2-68.2c1.4-1.4,3.3-2.2,5.3-2.2h101.4c4.1,0,7.5,3.4,7.5,7.5s-3.4,7.5-7.5,7.5
			h-98.3l-78.8,78.8C75.4,446.8,73.5,447.5,71.5,447.5z" class="color354b87 svgShape"></path>
  <circle cx="111.6" cy="217.4" r="33.8" fill="#87ddfd" class="color95abfc svgShape"></circle>
  <circle cx="255.4" cy="217.3" r="33.8" fill="#49beea" class="color496cea svgShape"></circle>
  <path fill="#87ddfd" d="M417.7,189l-16.1,16.1l-30.5,30.7c-3.5-5.3-5.5-11.7-5.5-18.5c0-18.6,15.1-33.8,33.8-33.8
		C406.1,183.5,412.5,185.5,417.7,189z" class="color95abfc svgShape"></path>
  <path fill="#49beea" d="M488.1,227.1l-31.9,32.1l-26.7-26.6l-0.5-0.5l-27.2-27.1l16.1-16.1l15.9-16c7.3-7.3,19.1-7.4,26.4-0.1l28,27.8
		C495.3,208,495.4,219.8,488.1,227.1z" class="color496cea svgShape"></path>
  <path fill="#357187" d="M461.4,253.9L407,199.8c-2.9-2.9-7.7-2.9-10.6,0L252,345.1c0,0-0.1,0.1-0.1,0.1c-0.1,0.1-0.1,0.2-0.2,0.2
		c-0.1,0.1-0.2,0.3-0.4,0.4c-0.1,0.1-0.1,0.2-0.2,0.2c-0.1,0.2-0.2,0.4-0.3,0.6c0,0.1-0.1,0.1-0.1,0.2c-0.1,0.3-0.3,0.5-0.4,0.8
		c0,0,0,0,0,0l-35.9,90.6c-1.1,2.8-0.4,6,1.7,8.1c1.4,1.4,3.3,2.2,5.3,2.2c0.9,0,1.9-0.2,2.8-0.5l90.4-36.5c0,0,0,0,0,0
		c0.3-0.1,0.5-0.2,0.8-0.4c0.1,0,0.1-0.1,0.2-0.1c0.2-0.1,0.4-0.2,0.5-0.3c0.1-0.1,0.2-0.1,0.2-0.2c0.1-0.1,0.3-0.2,0.4-0.4
		c0.1-0.1,0.1-0.1,0.2-0.2c0,0,0.1-0.1,0.1-0.1l144.4-145.2C464.4,261.6,464.4,256.9,461.4,253.9z M260.1,363.7l32.3,32.1l6.1,6
		l-63.6,25.7L260.1,363.7z M311.7,393.9l-16.6-16.5l57.9-58.2c2.9-2.9,2.9-7.7,0-10.6c-2.9-2.9-7.7-2.9-10.6,0l-57.9,58.2
		l-16.6-16.5l133.8-134.6l43.8,43.6L311.7,393.9z" class="color354b87 svgShape"></path>
  <polygon fill="#48cdff" points="234.8 427.5 292.4 395.8 437.2 251 445.5 259.3 311.7 393.9 298.4 401.8" enable-background="new" opacity=".3" class="color485eff svgShape"></polygon>
</svg>
