<?xml version="1.0" encoding="utf-8" ?>
<svg xmlns="http://www.w3.org/2000/svg" xmlns:xlink="http://www.w3.org/1999/xlink" width="60" height="60">
	<path fill="#010101" transform="scale(0.117188 0.117188)" d="M303.798 82.9446C308.015 82.504 312.592 86.358 314.739 89.7095C314.916 93.0758 314.502 94.0602 311.372 95.6632C306.594 95.6234 296.045 86.6164 303.798 82.9446Z"/>
	<path fill="#010101" transform="scale(0.117188 0.117188)" d="M184.253 99.5272C193.769 99.9504 185.303 112.962 180.356 114.017C171.041 113.668 179.505 100.88 184.253 99.5272Z"/>
	<path fill="#010101" transform="scale(0.117188 0.117188)" d="M201.406 81.2295C203.806 81.2308 206.71 83.4346 206.167 86.0626C205.572 88.9386 198.733 94.0798 196.207 95.6632C184.392 94.4323 195.735 83.7983 201.406 81.2295Z"/>
	<path fill="#010101" transform="scale(0.117188 0.117188)" d="M319.965 99.5272C325.448 98.8272 335.202 112.138 327.745 115.576C323.7 116.158 312.975 103.561 319.965 99.5272Z"/>
	<path fill="#010101" transform="scale(0.117188 0.117188)" d="M224.636 70.01C226.433 69.2784 228.17 69.65 229.078 71.476C232.173 77.7016 221.185 79.6635 217.193 81.2295C213.97 81.9329 212.564 79.3777 211.838 76.651C212.058 75.6854 212.372 74.8235 212.759 73.9125C216.311 71.8028 220.525 70.3544 224.636 70.01Z"/>
	<path fill="#010101" transform="scale(0.117188 0.117188)" d="M280.343 70.01C286.754 69.6992 301.989 75.3256 292.751 82.9446C288.871 82.3724 270.401 75.5167 280.343 70.01Z"/>
	<path fill="#010101" transform="scale(0.117188 0.117188)" d="M208.494 377.747C214.959 376.918 213.813 383.928 213.75 388.249C216.262 388.269 229.456 388.184 222.854 394.766C220.819 396.795 216.374 395.914 213.75 395.873C213.703 400.095 214.89 403.999 210.955 406.804C204.914 406.761 205.791 400.161 205.756 395.873C203.316 395.838 190.475 395.815 196.659 389.349C198.468 387.458 203.263 388.215 205.756 388.249C205.743 384.479 204.709 379.982 208.494 377.747Z"/>
	<path fill="#010101" transform="scale(0.117188 0.117188)" d="M128.811 398.629C134.632 398.618 155.235 396.261 155.343 402.891C155.445 409.186 139.255 406.824 135.687 406.804C134.821 406.804 99.529 409.706 110.076 399.723C112.117 397.792 125.344 398.614 128.811 398.629Z"/>
	<path fill="#010101" transform="scale(0.117188 0.117188)" d="M125.507 92.5265C131.183 92.171 130.066 99.035 130.233 102.75C132.765 102.795 136.234 101.986 138.236 103.881C144.715 110.016 134 111.189 130.233 111.229C130.323 113.699 130.298 116.143 130.233 118.612C129.034 120.346 128.316 120.947 126.322 121.7C120.552 122 121.355 115.021 121.753 111.229C118.139 111.292 106.306 110.438 112.673 104.099C114.818 101.964 118.949 102.712 121.753 102.75L121.753 95.6632C122.735 93.8439 123.609 93.297 125.507 92.5265Z"/>
	<path fill="#010101" transform="scale(0.117188 0.117188)" d="M79.3927 218.732C85.9698 218.89 84.2791 225.565 84.2509 230.251C87.6404 230.277 94.536 228.988 94.7471 234.088C94.9773 239.649 87.8964 238.526 84.2509 238.47C84.113 242.919 85.6312 246.992 80.8964 249.365C75.1162 249.137 76.1272 242.521 76.1956 238.47C73.1326 238.513 60.1933 238.197 66.7746 231.447C68.6431 229.53 73.6396 230.215 76.1956 230.251C76.258 226.096 74.8179 220.841 79.3927 218.732Z"/>
	<path fill="#010101" transform="scale(0.117188 0.117188)" d="M114.615 381.569C126.792 381.35 151.491 380.189 163.071 381.745C168.321 382.451 168.648 389.921 161.062 389.745L128.852 389.747C123.574 389.754 118.043 390.136 112.801 389.73C107.961 389.356 105.678 382.289 114.615 381.569Z"/>
	<path fill="#010101" transform="scale(0.117188 0.117188)" d="M140.595 197.262C158.2 196.325 160.222 218.008 144.664 221.464C129.036 223.393 125.4 201.682 140.595 197.262ZM142.066 205.243C137.787 207.399 137.753 213.514 143.343 213.546C148.177 211.607 148.076 205.179 142.066 205.243Z"/>
	<path fill="#010101" transform="scale(0.117188 0.117188)" d="M251.132 50.5772C257.721 49.6267 267.801 73.3322 269.432 78.393C269.406 78.4604 269.382 78.5282 269.356 78.5954L269.222 78.93C268.518 80.7239 267.722 81.7258 266.252 82.9446C262.651 83.2882 258.812 82.9859 255.188 82.9446C250.839 82.9675 234.98 85.1831 237.714 76.365C239.066 72.0052 247.433 52.5069 251.132 50.5772ZM249.182 71.7111L247.174 74.7451L250.122 74.7451C250.255 73.3477 250.657 72.3433 249.182 71.7111Z"/>
	<path fill="#F8889A" transform="scale(0.117188 0.117188)" d="M252.887 63.6191C254.695 67.3168 257.018 70.9275 258.508 74.7451L250.122 74.7451C250.255 73.3477 250.657 72.3433 249.182 71.7111C249.705 68.8364 251.344 66.0755 252.887 63.6191Z"/>
	<path fill="#010101" transform="scale(0.117188 0.117188)" d="M382.951 73.9125C403.006 70.6123 410.48 104.881 385.387 109.53C358.479 110.029 360.447 72.6106 382.951 73.9125ZM381.769 81.2295C368.736 86.9634 371.999 101.705 385.387 101.242C396.441 97.3561 396.913 83.1591 381.769 81.2295Z"/>
	<path fill="#010101" transform="scale(0.117188 0.117188)" d="M184.253 415.942L242.547 415.942C244.88 417.169 246.665 420.248 244.637 422.619C242.655 424.937 236.327 424.027 233.646 424.027L169.875 424.016L130.28 424.042C123.896 424.048 117.333 424.482 110.979 424.016C109.13 422.517 107.122 419.692 109.276 417.504C111.757 414.982 119.291 415.941 122.495 415.94L184.253 415.942Z"/>
	<path fill="#010101" transform="scale(0.117188 0.117188)" d="M401.529 140.078C414.39 138.839 420.476 153.562 410.749 164.398C410.567 174.017 413.964 175.681 423.079 175.247C440.658 161.022 452.655 183.184 442.959 193.194C437.665 198.661 428.157 197.458 423.079 192.375C413.707 192.928 409.769 194.653 410.749 204.605C418.514 212.467 416.552 225.315 404.625 227.881C391.659 230.032 384.516 215.935 393.752 204.605C394.613 195.982 390.838 191.717 381.769 192.375C357.019 209.251 350.097 169.005 372.559 170.216C376.5 170.429 379.191 172.489 381.769 175.247C391.17 175.383 393.895 174.143 393.752 164.398C386.528 154.264 387.092 141.658 401.529 140.078ZM402.194 166.082C400.597 179.681 397.244 183.451 382.951 183.501C394.682 187.1 400.441 184.822 402.305 201.927L402.741 201.954C402.638 193.325 407.121 185.464 416.392 184.626C418.271 184.456 420.175 184.577 422.044 184.294C409.747 182.102 403.262 180.733 402.78 166.931C402.767 166.565 402.742 166.655 402.518 166.238L402.194 166.082Z"/>
	<path fill="#EF4955" transform="scale(0.117188 0.117188)" d="M370.259 178.784C376.889 177.289 378.174 184.952 372.701 188.732C366.456 188.303 364.627 181.486 370.259 178.784Z"/>
	<path fill="#EF4955" transform="scale(0.117188 0.117188)" d="M401.529 210.021C408.595 209.52 409.255 217.499 402.741 219.664C396.501 219.865 395.982 212.245 401.529 210.021Z"/>
	<path fill="#EF4955" transform="scale(0.117188 0.117188)" d="M432.557 178.784C439.522 178.142 440.345 185.808 434.723 188.732C427.38 189.028 426.956 181.982 432.557 178.784Z"/>
	<path fill="#EF4955" transform="scale(0.117188 0.117188)" d="M402.194 148.285C409.289 148.716 408.674 156.875 402.741 158.55C395.573 157.755 395.732 149.932 402.194 148.285Z"/>
	<path fill="#010101" transform="scale(0.117188 0.117188)" d="M135.687 249.365C143.635 248.958 152.154 249.974 152.546 260.123C153.102 274.478 155.105 261.755 162.207 259.336C168.971 257.031 178.364 263.136 180.437 269.55C182.41 275.657 178.638 279.53 176.063 284.541C179.713 284.32 183.001 282.595 186.602 282.27C193.177 281.679 198.932 289.45 199.285 295.366C199.94 306.361 191.147 305.813 186.939 310.383C187.316 312.217 194.849 312.583 197.531 318.303C202.492 328.884 194.36 341.761 180.356 336.479C179.133 337.345 178.247 338.245 177.523 339.566C178.949 343.375 182.089 346.043 181.857 350.479C181.513 357.041 173.449 364.471 166.826 363.927C159.47 363.323 155.77 353.619 153.124 356.136C151.221 357.947 155.421 373.754 136.942 372.156C127.292 370.743 125.547 365.582 125.507 356.512L123.664 355.534C121.53 358.005 115.507 364.046 112.403 364.428C105.902 365.228 96.1214 357.669 95.3538 351.14C94.8031 346.457 99.0359 342.967 101.637 339.566C100.833 338.61 100.169 337.493 99.4308 336.479C95.94 337.447 92.4114 339.354 88.6885 338.682C81.8123 337.44 77.5987 327.456 78.9673 321.254C80.3054 315.191 86.1403 314.392 90.59 311.479L90.9518 311.239C87.04 309.365 81.481 307.064 79.2856 303.083C76.5084 298.047 81.079 286.784 85.6983 284.236C90.177 281.766 95.0067 284.233 99.4308 285.581C100.212 284.917 100.919 284.193 101.637 283.463C99.1626 279.626 95.3439 276.032 95.639 271.105C96.0171 264.79 106.109 257.642 111.88 258.068C117.186 258.459 120.508 263.978 123.664 267.62C124.347 267.178 124.915 266.603 125.507 266.05C125.428 257.624 125.827 250.65 135.687 249.365ZM120.785 274.584C118.989 273.84 117.19 272.176 115.643 271.007C111.89 271.79 109.393 274.293 106.546 276.686C108.636 278.732 109.828 280.559 110.385 283.463C111.937 283.811 114.679 287.779 114.146 289.512C113.933 290.206 107.285 299.054 106.546 299.768C101.178 300.262 97.5652 298.148 92.4437 297.606C91.1828 299.07 90.5744 300.407 89.9605 302.235C94.6943 304.562 97.9942 305.957 99.4308 311.239C97.6235 326.116 82.6965 313.659 88.4986 329.5C91.5442 334.748 98.1261 324.091 104.437 331.071C106.615 333.48 109.714 337.01 110.385 340.295C117.719 346.406 111.176 349.425 107.468 355.534C108.627 355.947 109.811 356.152 110.979 356.512C118.795 352.608 115.857 345.438 127.7 349.095C131.677 350.323 133.18 352.506 133.352 356.512C133.712 358.607 133.789 362.7 135.687 363.999C151.98 365.951 137.21 348.442 154.836 347.706C164.541 347.3 163.618 364.236 174.374 350.614C170.216 342.785 165.478 340.413 173.22 331.817C180.317 323.938 186.271 334.844 190.963 325.898C190.899 319.634 187.16 319.961 182.019 318.057C179.763 315.775 179.151 313.329 179.114 310.194C178.988 299.534 194.185 301.837 190.963 294.029C186.583 286.422 181.839 294.944 173.149 291.511L172.839 291.35C160.9 285.303 176.522 276.072 172.494 271.007C170.667 269.033 168.088 267.558 165.872 266.05C160.695 270.704 158.93 276.715 150.79 274.584C143.411 272.224 144.976 266.068 144.681 259.812L144.664 259.495C143.282 255.776 134.416 256.01 133.56 259.279C132.181 264.543 135.556 269.279 129.694 272.964C127.059 274.62 123.826 275.461 120.785 274.584ZM110.385 283.463C109.473 286.756 105.402 291.778 102.778 294.029C94.322 293.174 87.5373 285.635 86.5943 298.408C86.4388 300.515 88.3861 301.36 89.9605 302.235C90.5744 300.407 91.1828 299.07 92.4437 297.606C97.5652 298.148 101.178 300.262 106.546 299.768C107.285 299.054 113.933 290.206 114.146 289.512C114.679 287.779 111.937 283.811 110.385 283.463ZM110.385 340.295C108.718 344.411 105.259 347.087 102.778 350.614C104.336 352.255 105.869 353.933 107.468 355.534C111.176 349.425 117.719 346.406 110.385 340.295ZM110.979 266.05C108.329 267.473 105.934 269.269 103.488 271.007C104.121 273.208 104.857 275.048 106.546 276.686C109.393 274.293 111.89 271.79 115.643 271.007C114.266 268.785 113.407 267.223 110.979 266.05Z"/>
	<path fill="#EF4955" transform="scale(0.117188 0.117188)" d="M120.785 274.584C123.826 275.461 127.059 274.62 129.694 272.964C135.556 269.279 132.181 264.543 133.56 259.279C134.416 256.01 143.282 255.776 144.664 259.495L144.681 259.812C144.976 266.068 143.411 272.224 150.79 274.584C158.93 276.715 160.695 270.704 165.872 266.05C168.088 267.558 170.667 269.033 172.494 271.007C176.522 276.072 160.9 285.303 172.839 291.35L173.149 291.511C181.839 294.944 186.583 286.422 190.963 294.029C194.185 301.837 178.988 299.534 179.114 310.194C179.151 313.329 179.763 315.775 182.019 318.057C187.16 319.961 190.899 319.634 190.963 325.898C186.271 334.844 180.317 323.938 173.22 331.817C165.478 340.413 170.216 342.785 174.374 350.614C163.618 364.236 164.541 347.3 154.836 347.706C137.21 348.442 151.98 365.951 135.687 363.999C133.789 362.7 133.712 358.607 133.352 356.512C133.18 352.506 131.677 350.323 127.7 349.095C115.857 345.438 118.795 352.608 110.979 356.512C109.811 356.152 108.627 355.947 107.468 355.534C111.176 349.425 117.719 346.406 110.385 340.295C109.714 337.01 106.615 333.48 104.437 331.071C98.1261 324.091 91.5442 334.748 88.4986 329.5C82.6965 313.659 97.6235 326.116 99.4308 311.239C97.9942 305.957 94.6943 304.562 89.9605 302.235C90.5744 300.407 91.1828 299.07 92.4437 297.606C97.5652 298.148 101.178 300.262 106.546 299.768C107.285 299.054 113.933 290.206 114.146 289.512C114.679 287.779 111.937 283.811 110.385 283.463C109.828 280.559 108.636 278.732 106.546 276.686C109.393 274.293 111.89 271.79 115.643 271.007C117.19 272.176 118.989 273.84 120.785 274.584ZM119.072 319.177C131.625 341.591 164.933 329.232 157.384 303.063C143.256 274.663 107.815 296.826 119.072 319.177ZM157.384 303.063C164.933 329.232 131.625 341.591 119.072 319.177C118.401 325.383 125.827 333.448 130.968 335.691C148.515 343.348 169.067 326.324 162.448 310.414C161.61 308.401 159.467 303.921 157.384 303.063ZM120.785 274.584C122.161 277.171 123.043 279.593 126.303 279.872C139.664 281.017 137.925 273.287 137.869 263.874C140.109 263.358 142.379 263.219 144.664 263.04L144.664 259.495C143.282 255.776 134.416 256.01 133.56 259.279C132.181 264.543 135.556 269.279 129.694 272.964C127.059 274.62 123.826 275.461 120.785 274.584ZM99.4308 311.239C97.6235 326.116 82.6965 313.659 88.4986 329.5C95.1222 324.539 105.98 324.222 102.921 314.882C102.328 313.073 101.039 312.108 99.4308 311.239ZM165.872 266.05C160.695 270.704 158.93 276.715 150.79 274.584C152.085 277.711 155.122 280.072 158.527 280.45C162.322 280.871 166.518 273.645 169.875 271.007C170.753 271.047 171.616 271.041 172.494 271.007C170.667 269.033 168.088 267.558 165.872 266.05ZM173.149 291.511C178.025 303.17 180.353 297.479 190.963 294.029C186.583 286.422 181.839 294.944 173.149 291.511ZM182.019 318.057C181.173 324.118 186.026 324.86 190.963 325.898C190.899 319.634 187.16 319.961 182.019 318.057ZM133.352 356.512C133.712 358.607 133.789 362.7 135.687 363.999C136.533 362.5 135.255 357.017 133.635 356.094L133.352 356.512Z"/>
	<path fill="#010101" transform="scale(0.117188 0.117188)" d="M119.072 319.177C107.815 296.826 143.256 274.663 157.384 303.063C164.933 329.232 131.625 341.591 119.072 319.177ZM137.869 297.606C119.949 299.338 120.961 323.227 138.817 323.246C156.664 319.496 152.052 296.715 137.869 297.606Z"/>
	<path fill="#FBE4E0" transform="scale(0.117188 0.117188)" d="M339.09 289.182C332.931 279.924 325.866 271.004 319.257 262.038C316.169 257.85 312.165 253.493 310.127 248.69C302.466 230.633 324.537 215.641 337.301 227.696C339.719 229.98 341.573 232.935 343.548 235.597L353.025 248.341C362.272 260.763 376.912 277.004 382.636 291.389C397.282 328.188 382.849 377.828 349.098 399.392C345.246 401.853 340.968 403.868 337.457 406.804L337.484 450.431C337.503 452.426 337.691 454.527 337.457 456.507C332.354 461.947 329.079 457.664 329.285 451.922C321.711 453.64 287.504 450.264 284.767 451.922C284.8 456.523 282.058 461.962 277.969 457.654C275.934 455.51 276.731 445.103 276.733 442.059L276.727 415.595C276.651 405.83 276.908 403.993 274.434 394.533C269.917 377.263 279.687 358.57 292.513 347.499C294.569 345.724 297.495 344.427 299.271 342.431C308.327 332.254 319.204 312.71 327.694 300.877C331.354 295.776 333.149 291.906 339.09 289.182Z"/>
	<path fill="#010101" transform="scale(0.117188 0.117188)" d="M339.09 289.182C332.931 279.924 325.866 271.004 319.257 262.038C316.169 257.85 312.165 253.493 310.127 248.69C302.466 230.633 324.537 215.641 337.301 227.696C339.719 229.98 341.573 232.935 343.548 235.597L353.025 248.341C362.272 260.763 376.912 277.004 382.636 291.389C397.282 328.188 382.849 377.828 349.098 399.392C345.246 401.853 340.968 403.868 337.457 406.804L337.484 450.431C337.503 452.426 337.691 454.527 337.457 456.507C332.354 461.947 329.079 457.664 329.285 451.922L329.285 409.687C325.207 411.027 313.549 416.392 309.765 412.546C302.757 405.424 319.304 404.465 321.349 403.892C354.002 394.744 376.913 364.908 379.553 331.349C381.79 302.912 375.51 291.572 359.495 270.767C352.335 261.466 345.347 252.013 338.33 242.602C335.279 238.511 331.972 232.304 326.238 232.067C320.906 231.847 316.714 236.237 316.826 241.513C316.922 245.993 320.683 250.011 323.193 253.416L342.312 279.523C351.061 291.29 351.825 286.912 358.612 293.577C368.594 303.381 361.958 312.863 355.758 322.099L335.191 352.831C333.023 356.115 330.23 362.627 325.496 362.316C316.873 361.748 327.116 350.157 328.777 347.641C332.434 342.104 355.184 309.358 355.49 305.906C355.922 301.029 350.419 296.376 345.813 296.422C337.944 296.5 334.085 306.102 330.367 311.646C323.129 322.438 314.176 337.176 306.372 347.118C303.598 350.652 297.758 353.991 294.252 357.496C285.695 366.052 278.638 380.91 282.658 393.214C285.85 402.987 284.772 408.22 284.773 418.484L284.767 451.922C284.8 456.523 282.058 461.962 277.969 457.654C275.934 455.51 276.731 445.103 276.733 442.059L276.727 415.595C276.651 405.83 276.908 403.993 274.434 394.533C269.917 377.263 279.687 358.57 292.513 347.499C294.569 345.724 297.495 344.427 299.271 342.431C308.327 332.254 319.204 312.71 327.694 300.877C331.354 295.776 333.149 291.906 339.09 289.182Z"/>
	<path fill="#010101" transform="scale(0.117188 0.117188)" d="M249.182 95.6632C276.272 94.2329 300.305 111.013 308.844 136.745C319.481 168.8 298.465 200.772 267.463 210.8C267.254 217.604 267.464 224.466 267.465 231.276L267.463 272.275C281.714 272.797 283.792 267.651 284.823 253.844C285.791 240.871 293.277 224.409 302.735 215.227C305.25 212.786 308.083 210.684 310.6 208.238C328.725 190.619 338.668 159.822 331.685 135.097C330.512 130.943 326.023 118.07 336.294 123.289C347.465 142.545 341.048 178.285 330.17 196.695C317.859 217.53 295.079 226.03 292.89 254.015C291.77 268.337 292.075 263.636 286.269 275.43L286.099 275.781C290.461 282.535 291.922 288.946 286.099 295.565C290.712 301.892 291.149 308.423 286.099 314.765C295.103 324.94 285.569 338.675 273.506 338.749C270.373 348.123 268.302 357.517 256.239 357.839C241.692 358.066 233.206 354.614 231.386 338.749C218.672 337.418 209.959 323.508 219.907 314.765C215.825 308.205 214.039 301.911 219.907 295.565C215.211 289.35 214.132 280.927 220.975 275.781C211.583 269.249 213.257 261.98 212.633 252.083C211.281 230.595 200.353 224.502 188.024 211.556C167.958 190.489 159.549 160.152 166.797 131.842C167.702 128.303 169.758 117.982 175.61 121.758C177.002 122.656 177.212 124.06 177.523 125.558C166.74 153.306 173.599 185.495 194.772 206.582C207.087 218.848 216.739 226.338 220.037 245.648C222.588 260.58 217.177 273.221 238.004 272.275L238.004 210.8C178.16 192.462 178.347 106.426 249.182 95.6632ZM217.193 188.732C217.186 186.36 214.598 182.316 213.674 179.94C203.805 154.575 213.028 126.326 239.616 116.608C264.531 107.501 293.93 122.152 300.231 148.257C301.124 151.956 301.074 156.245 302.349 159.767L302.759 159.915C303.505 143.812 300.86 132.256 289.712 120.029C271.518 100.074 238.536 98.9954 218.763 117.275C198.621 135.895 196.88 169.838 217.193 188.732ZM246.23 183.501L246.23 272.275L259.336 272.275L259.336 183.501L246.23 183.501ZM252.887 154.206C250.255 156.248 248.285 158.348 246.23 160.966C246.225 165.725 246.169 170.489 246.23 175.247L253.875 175.247L259.336 175.247C259.844 170.982 259.288 166.455 259.336 162.14C258.276 160.768 253.978 154.803 252.887 154.206ZM239.295 338.749C239.87 340.704 240.455 342.614 241.233 344.497C249.085 344.54 258.149 347.188 261.296 338.749C253.967 338.634 246.625 338.736 239.295 338.749ZM224.636 302.235C223.904 304.111 223.947 305.489 224.636 307.376C225.281 306.895 225.989 306.54 226.697 306.163C226.605 304.066 226.619 303.312 224.636 302.235Z"/>
	<path fill="#EF4955" transform="scale(0.117188 0.117188)" d="M261.296 338.749C262.315 338.748 263.337 338.729 264.357 338.749C263.127 348.968 258.965 350.999 248.793 349.702C245.514 349.284 242.918 347.268 241.233 344.497C249.085 344.54 258.149 347.188 261.296 338.749Z"/>
	<path fill="#FEE055" transform="scale(0.117188 0.117188)" d="M224.636 152.348C228.938 155.562 233.285 159.616 238.004 162.14C237.84 164.232 238.349 171.228 237.487 172.566L236.973 172.382C232.345 168.909 227.898 165.023 222.865 162.14C223.569 158.906 224.067 155.609 224.636 152.348Z"/>
	<path fill="#FEE055" transform="scale(0.117188 0.117188)" d="M280.343 152.348L280.556 152.466C281.892 154.891 282.438 158.266 283.103 160.966C278.585 164.505 273.849 167.591 269.432 171.305L267.463 172.382L267.463 162.14C271.72 158.927 275.695 154.965 280.343 152.348Z"/>
	<path fill="#AEF0F9" transform="scale(0.117188 0.117188)" d="M224.636 302.235C227.627 297.668 238.566 299.749 244.036 299.749L264.105 299.76C270.558 299.767 280.066 297.51 281.408 305.039L248.657 305.029C243.061 305.03 231.654 303.876 226.697 306.163C226.605 304.066 226.619 303.312 224.636 302.235Z"/>
	<path fill="#14A0D8" transform="scale(0.117188 0.117188)" d="M278.255 324.493L281.408 324.493C280.59 326.659 279.311 328.714 277.099 329.669C274.914 330.612 230.148 333.322 225.53 327.197C227.285 326.619 228.69 325.245 230.537 324.844C239.164 322.972 268.087 324.618 278.255 324.493Z"/>
	<path fill="#AEF0F9" transform="scale(0.117188 0.117188)" d="M226.697 319.177C229.538 318.983 232.417 319.152 235.264 319.164L266.436 319.168C270.445 319.169 276.744 318.227 280.343 320.373C281.026 321.737 281.261 322.989 281.408 324.493L278.255 324.493C268.087 324.618 239.164 322.972 230.537 324.844C228.69 325.245 227.285 326.619 225.53 327.197C223.439 324.081 223.908 321.668 226.697 319.177Z"/>
	<path fill="#AEF0F9" transform="scale(0.117188 0.117188)" d="M225.53 281.897C228.3 279.409 232.939 280.249 236.402 280.242L266.48 280.224C272.029 280.219 280.542 278.117 281.408 285.581L231.386 285.581C228.893 286.416 226.888 287.873 224.636 289.182C223.884 286.676 224.041 284.13 225.53 281.897Z"/>
	<path fill="#14A0D8" transform="scale(0.117188 0.117188)" d="M231.386 285.581L281.408 285.581C281.511 292.547 276.315 291.543 270.919 291.535L259.564 291.515C251.423 291.505 230.537 293.667 224.636 289.182C226.888 287.873 228.893 286.416 231.386 285.581Z"/>
	<path fill="#14A0D8" transform="scale(0.117188 0.117188)" d="M281.408 305.039C281.09 314.519 262.473 311.248 255.376 311.251C246.129 311.255 236.783 311.537 227.547 311.239C226.317 310.07 225.373 308.925 224.636 307.376C225.281 306.895 225.989 306.54 226.697 306.163C231.654 303.876 243.061 305.03 248.657 305.029L281.408 305.039Z"/>
	<path fill="#FEE055" transform="scale(0.117188 0.117188)" d="M217.193 188.732C217.186 186.36 214.598 182.316 213.674 179.94C203.805 154.575 213.028 126.326 239.616 116.608C264.531 107.501 293.93 122.152 300.231 148.257C301.124 151.956 301.074 156.245 302.349 159.767L302.759 159.915C299.567 179.641 286.433 195.725 267.463 201.954C267.479 195.805 267.554 189.649 267.463 183.501C271.036 180.018 291.965 165.959 292.185 163.069C292.296 161.622 287.592 146.475 286.742 144.457C283 135.567 268.274 150.956 264.357 154.206C258.823 148.945 254.573 137.386 247.566 145.995C245.39 148.669 243.148 151.336 241.233 154.206L240.785 153.973C236.294 151.615 222.216 136.317 218.535 143.547C217.736 145.116 214.776 159.853 214.486 162.401C213.822 168.239 223.534 172.712 227.997 175.988C231.319 178.426 234.515 181.33 238.004 183.501C238.017 189.645 238.136 195.812 238.004 201.954C230.48 199.866 222.34 194.609 217.193 188.732Z"/>
</svg>
