<?xml version="1.0" encoding="utf-8" ?>
<svg xmlns="http://www.w3.org/2000/svg" xmlns:xlink="http://www.w3.org/1999/xlink" width="60" height="60">
	<path fill="#7DC1F5" transform="scale(0.117188 0.117188)" d="M307.494 252.189C309.723 254.52 307.784 274.472 308.633 279.836C309.534 285.534 314.451 294.924 316.488 300.931C313.766 303.782 310.095 305.229 306.176 305.35C286.88 305.946 300.772 289.815 303.014 280.543C304.258 275.402 303.438 261.059 303.526 254.88C304.946 254.066 306.217 253.214 307.494 252.189Z"/>
	<path fill="#5FA0D9" transform="scale(0.117188 0.117188)" d="M255.528 131.904C259.49 131.562 264.281 131.27 264.021 136.664C263.714 143.039 251.093 141.482 246.612 142.166C229.631 144.756 210.952 151.131 197.994 162.571C202.214 162.973 216.363 165.524 207.797 172.176C205.576 173.902 194.889 171.308 191.811 170.856C180.232 169.329 181.908 168.624 183.166 157.636C183.524 154.504 183.378 144.684 186.361 142.809C189.532 140.816 191.888 142.178 193.724 144.996C193.872 147.821 193.737 150.71 193.724 153.543C216.292 140.036 227.55 134.456 255.528 131.904Z"/>
	<path fill="#5FA0D9" transform="scale(0.117188 0.117188)" d="M404.467 220.087C407.032 219.89 408.057 220.572 409.871 222.454C410.162 225.105 409.911 227.981 409.776 230.647C408.19 262.081 391.575 295.271 358.959 303.691C360.793 305.862 364.84 308.689 365.286 311.57C365.958 315.909 360.674 317.338 357.623 315.4C354.894 313.667 351.182 308.71 347.961 306.288L347.609 306.026C345.771 303.746 343.748 302.013 342.47 299.299C344.102 294.7 353.603 285.5 357.207 283.022C360.243 280.934 363.967 282.754 364.017 286.614C364.059 289.841 360.315 292.459 358.251 294.588C382.869 286.699 396.954 262.73 400.044 237.997C400.817 231.81 398.737 221.982 404.467 220.087Z"/>
	<path fill="#ED6564" transform="scale(0.117188 0.117188)" d="M286.32 129.741C288.738 129.761 309.164 142.622 310.289 144.485C314.252 151.051 302.634 153.691 298.9 156.057L298.603 156.248C325.885 197.197 375.951 212.412 418.426 183.626C427.808 177.267 439.82 165.773 444.079 155.336C439.468 153.424 427.04 150.314 434.963 143.838C437.503 141.761 453.021 130.776 455.243 130.162C458.426 129.282 459.686 134.96 460.261 136.977C461.616 140.801 462.759 144.718 463.971 148.591C468.556 163.24 466.506 166.107 452.806 159.249C444.387 175.976 428.632 189.374 412.163 197.731C370.116 219.068 312.234 203.093 290.736 160.208C287.513 161.764 277.55 167.621 277.842 158.644C278.06 151.951 279.055 132.084 286.32 129.741Z"/>
	<path fill="#F7DECA" transform="scale(0.117188 0.117188)" d="M290.736 284.424C289.837 301.754 295.112 323.106 280.647 336.146C278.354 338.213 275.778 339.944 273.761 342.297L273.239 342.9C270.339 342.776 267.697 344.387 264.934 345.059C253.481 347.845 249.696 344.982 240.05 342.9C222.822 331.852 220.168 321.511 220.186 301.061L220.199 286.483C223.794 286.446 229.734 290.044 233.406 291.189C251.342 296.783 275.922 297.037 290.736 284.424Z"/>
	<path fill="#3D568B" transform="scale(0.117188 0.117188)" d="M239.347 302.286C245.662 301.383 246.567 308.402 241.633 311.019C235.444 311.834 233.995 305.072 239.347 302.286Z"/>
	<path fill="#3D568B" transform="scale(0.117188 0.117188)" d="M271.382 302.286C277.12 301.767 278.094 309.008 273.239 311.019C266.436 311.039 265.082 303.663 271.382 302.286Z"/>
	<path fill="#3D568B" transform="scale(0.117188 0.117188)" d="M246.789 321.271C251.315 320.706 251.078 323.784 254.165 325.748C259.174 328.933 260.291 322.128 264.153 321.364C270.302 320.148 269.107 326.722 266.598 329.836C254.895 342.137 237.48 327.35 246.789 321.271Z"/>
	<path fill="#556E92" transform="scale(0.117188 0.117188)" d="M256.277 225.522C272.637 233.718 291.031 245.238 307.494 252.189C306.217 253.214 304.946 254.066 303.526 254.88C301.052 256.288 289.756 262.002 288.6 262.988C289.351 267.03 291.335 281.144 290.736 284.424C275.922 297.037 251.342 296.783 233.406 291.189C229.734 290.044 223.794 286.446 220.199 286.483C219.98 283.67 220.157 280.821 220.174 278.001L220.199 264.279C214.381 259.911 206.07 258.581 200.259 253.847C205.9 249.988 216.632 245.591 222.983 242.447C234.126 236.932 245.045 230.841 256.277 225.522Z"/>
	<path fill="#3D568B" transform="scale(0.117188 0.117188)" d="M255.528 280.315C263.284 277.493 274.304 270.646 281.72 266.626C283.772 265.514 286.393 263.552 288.6 262.988C289.351 267.03 291.335 281.144 290.736 284.424C275.922 297.037 251.342 296.783 233.406 291.189C229.734 290.044 223.794 286.446 220.199 286.483C219.98 283.67 220.157 280.821 220.174 278.001L220.199 264.279C221.932 264.353 251.784 278.395 255.528 280.315Z"/>
	<path fill="#5FA0D9" transform="scale(0.117188 0.117188)" d="M249.894 459.189C239.788 452.807 229.768 453.732 218.271 453.745L187.803 453.781C182.134 453.785 171.703 456.272 171.191 448.147C170.938 444.135 171.234 391.04 171.437 390.43C173.212 385.091 181.864 390.598 184.997 391.571C203.762 396.676 225.477 388.673 242.472 400.059C246.023 402.438 251.226 406.675 249.894 411.519C249.302 425.278 249.113 445.502 249.894 459.189Z"/>
	<path fill="#5FA0D9" transform="scale(0.117188 0.117188)" d="M326.798 391.571C341.44 387.778 340.245 382.785 340.245 402.778L340.257 439.606C340.258 445.094 342.299 452.836 334.885 453.623C330.124 454.129 325.038 453.749 320.236 453.751L290.556 453.749C279.601 453.75 272.009 453.526 262.251 459.189C260.083 460.938 258.232 461.733 255.528 462.308C253.278 461.647 251.728 460.6 249.894 459.189C249.113 445.502 249.302 425.278 249.894 411.519C253.979 411.601 258.17 411.696 262.251 411.519C261.712 406.98 264.641 403.774 268.092 401.109C286.066 387.226 315.856 398.068 326.798 391.571Z"/>
	<path fill="#556E92" transform="scale(0.117188 0.117188)" d="M249.894 411.519C253.979 411.601 258.17 411.696 262.251 411.519C262.036 422.085 262.265 432.694 262.26 443.265L262.221 453.477C262.205 455.339 262.031 457.35 262.251 459.189C260.083 460.938 258.232 461.733 255.528 462.308C253.278 461.647 251.728 460.6 249.894 459.189C249.113 445.502 249.302 425.278 249.894 411.519Z"/>
	<path fill="#34C8A2" transform="scale(0.117188 0.117188)" d="M240.05 342.9C249.696 344.982 253.481 347.845 264.934 345.059C267.697 344.387 270.339 342.776 273.239 342.9C273.25 343.921 273.307 344.963 273.239 345.981C273.225 346.802 273.17 347.648 273.239 348.465C277.78 348.798 282.329 348.607 286.861 348.934C310.204 350.622 326.649 368.331 326.798 391.571C315.856 398.068 286.066 387.226 268.092 401.109C264.641 403.774 261.712 406.98 262.251 411.519C258.17 411.696 253.979 411.601 249.894 411.519C251.226 406.675 246.023 402.438 242.472 400.059C225.477 388.673 203.762 396.676 184.997 391.571C185.757 380.15 189.188 370.17 197.431 361.938C211.113 348.276 221.967 349.202 239.347 349.196C239.948 348.468 239.919 346.936 240.05 345.981L240.05 342.9Z"/>
	<path fill="#F7DECA" transform="scale(0.117188 0.117188)" d="M240.05 342.9C249.696 344.982 253.481 347.845 264.934 345.059C267.697 344.387 270.339 342.776 273.239 342.9C273.25 343.921 273.307 344.963 273.239 345.981C273.225 346.802 273.17 347.648 273.239 348.465C275.136 371.948 240.459 373.812 239.552 351.586C239.522 350.854 239.596 349.874 239.347 349.196C239.948 348.468 239.919 346.936 240.05 345.981L240.05 342.9Z"/>
	<path fill="#FABE7F" transform="scale(0.117188 0.117188)" d="M240.05 342.9C249.696 344.982 253.481 347.845 264.934 345.059C267.697 344.387 270.339 342.776 273.239 342.9C273.25 343.921 273.307 344.963 273.239 345.981C265.257 347.141 259.949 356.63 246.788 349.489C244.567 348.285 242.488 346.732 240.05 345.981L240.05 342.9Z"/>
	<path fill="#FABE7F" transform="scale(0.117188 0.117188)" d="M365.636 47.7415C420.518 43.8929 454.079 103.626 422.031 147.631C411.189 162.517 396.032 169.956 378.213 172.751C362.323 173.725 348.066 170.817 334.924 161.266C307.879 141.61 300.345 101.09 320.413 73.7917C332.764 56.9903 345.915 50.7373 365.636 47.7415ZM370.712 57.4933C340.377 57.6653 318.279 81.6312 318.607 111.681C318.918 140.081 343.458 164.098 371.894 163.491L372.75 163.47C387.812 162.43 401.784 156.736 411.814 145.156C441.878 110.446 414.641 54.8559 370.712 57.4933Z"/>
	<path fill="#30305B" transform="scale(0.117188 0.117188)" d="M363.533 149.778C364.675 149.061 377.715 149.485 379.555 149.778C375.051 157.917 366.986 159.257 363.533 149.778Z"/>
	<path fill="#FABE7F" transform="scale(0.117188 0.117188)" d="M341.488 76.492C347.653 75.8125 353.497 83.1033 347.609 87.9094C341.79 89.1841 335.467 79.9781 341.488 76.492Z"/>
	<path fill="#FABE7F" transform="scale(0.117188 0.117188)" d="M406.176 102.804C415.356 102.113 418.033 109.357 409.871 111.799C401.392 112.288 397.062 105.655 406.176 102.804Z"/>
	<path fill="#FABE7F" transform="scale(0.117188 0.117188)" d="M332.337 102.804C340.835 101.389 343.935 110.274 336.001 111.799C326.006 111.978 323.11 103.889 332.337 102.804Z"/>
	<path fill="#FABE7F" transform="scale(0.117188 0.117188)" d="M398.891 76.492C407.77 74.3494 404.975 84.8081 398.121 87.9094C390.345 88.539 391.701 77.6895 398.891 76.492Z"/>
	<path fill="#FABE7F" transform="scale(0.117188 0.117188)" d="M370.712 63.3208C377.788 62.5993 378.221 74.8242 372.75 76.492C364.218 76.8934 364.956 65.2556 370.712 63.3208Z"/>
	<path fill="#FABE7F" transform="scale(0.117188 0.117188)" d="M396.525 126.254C403.301 125.867 409.263 132.911 402.491 137.748C395.529 138.65 389.467 130.663 396.525 126.254Z"/>
	<path fill="#FABE7F" transform="scale(0.117188 0.117188)" d="M344.778 126.254C353.433 124.616 349.58 136.373 341.488 139.421C331.58 138.544 338.662 128.121 344.778 126.254Z"/>
	<defs>
		<linearGradient id="gradient_0" gradientUnits="userSpaceOnUse" x1="370.76001" y1="149.82387" x2="371.35553" y2="142.29004">
			<stop offset="0" stop-color="#3A5C9A"/>
			<stop offset="1" stop-color="#5583B4"/>
		</linearGradient>
	</defs>
	<path fill="url(#gradient_0)" transform="scale(0.117188 0.117188)" d="M384.309 143.021C383.635 148.341 380.601 147.64 379.555 149.778C377.715 149.485 364.675 149.061 363.533 149.778C361.025 147.372 359.494 149.22 358.251 143.021L384.309 143.021Z"/>
	<path fill="#556E92" transform="scale(0.117188 0.117188)" d="M358.251 132.573L363.533 132.573L379.555 132.573L384.309 132.573L384.309 136.977L384.309 140.506L384.309 143.021L358.251 143.021L358.251 143.021C357.922 141.132 358.201 138.898 358.251 136.977L358.251 132.573Z"/>
	<path fill="#3D568B" transform="scale(0.117188 0.117188)" d="M384.309 140.506L384.309 143.021L358.251 143.021L358.251 143.021C358.301 142.258 358.245 141.077 359.061 140.72C360.17 140.235 381.51 140.305 384.309 140.506Z"/>
	<path fill="#3D568B" transform="scale(0.117188 0.117188)" d="M358.251 132.573L363.533 132.573L379.555 132.573L384.309 132.573L384.309 136.977L358.251 136.977L358.251 132.573Z"/>
	<path fill="#FEAD07" transform="scale(0.117188 0.117188)" d="M358.251 132.573C356.925 120.205 345.399 120.091 347.411 103.563C350.764 76.0207 392.584 76.6191 394.787 104.247C396.191 121.858 385.647 120.356 384.309 132.573L379.555 132.573C381.759 121.797 385.264 122.689 389.236 114.764C396.983 99.311 380.321 82.0655 364.203 87.9135C353.108 91.9391 347.535 105.79 354.241 115.964C359.191 123.474 360.06 123.261 363.533 132.573L358.251 132.573Z"/>
	<path fill="#F9D317" transform="scale(0.117188 0.117188)" d="M363.533 132.573C360.06 123.261 359.191 123.474 354.241 115.964C347.535 105.79 353.108 91.9391 364.203 87.9135C380.321 82.0655 396.983 99.311 389.236 114.764C385.264 122.689 381.759 121.797 379.555 132.573L363.533 132.573Z"/>
	<path fill="#3D568B" transform="scale(0.117188 0.117188)" d="M114.912 159.249C163.446 157.212 197.952 206.985 174.531 249.391C166.422 264.073 167.784 255.634 167.787 273.237L167.776 298.423C167.769 303.218 170.155 313.341 163.45 314.131C158.087 314.763 151.658 314.291 146.2 314.29L111.625 314.275C99.1358 314.323 97.6349 316.267 97.677 302.907L97.7216 291.253C76.0266 295.51 65.0924 284.549 67.7168 262.988C64.3152 263.271 50.6546 263.439 48.0444 262.452C40.0077 259.412 56.7636 234.348 59.3673 227.652L59.5031 227.295C59.7114 222.968 59.3641 218.637 59.618 214.306C61.3728 184.367 85.7802 162.395 114.912 159.249ZM114.912 167.746C84.0328 171.666 63.4475 197.156 68.4607 228.378C64.2837 237.261 58.4021 245.415 55.4484 254.88C58.7506 254.884 71.9657 254.105 74.0321 255.959C78.7371 260.182 70.1134 283.924 87.4451 284.162C96.0106 284.28 105.618 280.203 112.708 275.642C114.776 274.312 116.806 272.189 119.169 271.462C121.784 270.658 124.539 273.564 124.316 276.114C123.973 280.04 113.552 284.985 110.556 286.483C109.059 287.078 107.573 287.629 106.031 288.095C106.113 294.073 105.967 300.05 106.031 306.026L159.25 306.026L159.261 271.867C159.256 267.764 158.715 260.436 159.405 256.7C160.047 253.227 165.347 248.825 167.162 245.265C186.617 207.097 157.358 166.356 114.912 167.746Z"/>
	<path fill="#EE5B2E" transform="scale(0.117188 0.117188)" d="M143.925 210.411C146.315 205.756 148.043 197.787 150.775 193.939C153.396 198.778 153.187 203.66 151.646 208.828L151.515 209.264C164.059 209.684 169.582 228.189 150.775 233.775C157.528 248.298 143.553 258.107 133.442 250.55C126.75 263.003 113.63 264.993 107.234 250.55C101.452 251.92 93.6732 252.824 90.6299 246.299L91.1262 246.38C94.5194 250.547 103.74 253.589 106.666 249.403L106.391 248.876L105.6 248.668C107.839 247.746 111.45 248.421 113.863 248.312C133.62 247.42 149.792 230.344 143.925 210.411Z"/>
	<path fill="#FA9273" transform="scale(0.117188 0.117188)" d="M90.6299 207.884C87.4106 193.059 89.8105 187.15 105.475 190.143C110.903 191.18 109.544 177.318 122.124 180.36C126.592 181.44 128.507 185.24 130.742 188.809C131.598 189.645 132.447 190.284 133.442 190.943C139.667 187.997 146.272 187.948 150.775 193.939C148.043 197.787 146.315 205.756 143.925 210.411C149.792 230.344 133.62 247.42 113.863 248.312C111.45 248.421 107.839 247.746 105.6 248.668L106.391 248.876L106.666 249.403C103.74 253.589 94.5194 250.547 91.1262 246.38L90.6299 246.299C86.3836 244.278 89.6417 234.773 90.6299 231.754C76.8776 224.63 77.6109 214.622 90.6299 207.884ZM117.869 202.324C95.0206 205.813 98.2484 240.86 122.505 238.192C145.731 233.335 139.751 200.014 117.869 202.324Z"/>
	<path fill="#3D568B" transform="scale(0.117188 0.117188)" d="M121.01 223.638C124.544 222.629 127.098 220.006 130.742 219.116C131.257 234.648 109.356 235.1 109.126 221.304C113.047 218.35 116.597 222.778 121.01 223.638Z"/>
	<path fill="#7DC1F5" transform="scale(0.117188 0.117188)" d="M109.126 221.304C107.308 207.206 128.648 204.435 130.742 219.116C127.098 220.006 124.544 222.629 121.01 223.638C116.597 222.778 113.047 218.35 109.126 221.304Z"/>
</svg>
