<?xml version="1.0" encoding="utf-8" ?>
<svg xmlns="http://www.w3.org/2000/svg" xmlns:xlink="http://www.w3.org/1999/xlink" width="60" height="60">
	<path fill="#2D3040" transform="scale(0.117188 0.117188)" d="M297.591 389.244C293.529 385.628 294.444 379.427 300.076 378.814C306.699 378.092 331.203 375.927 335.255 382.388C334.843 385.839 334.215 387.652 331.134 389.244C327.821 389.712 302.081 390.05 297.591 389.244Z"/>
	<path fill="#2D3040" transform="scale(0.117188 0.117188)" d="M156.05 389.244C150.443 384.566 153.482 378.776 160.106 378.644C170.714 378.432 181.362 378.703 191.976 378.677L203.791 378.629C205.77 378.617 207.869 378.439 209.83 378.672C215.877 379.39 216.114 385.962 212.015 389.244C208.119 390.168 203.888 389.306 199.931 389.259C188.258 389.121 176.51 389.03 164.836 389.268C161.931 389.327 158.918 389.776 156.05 389.244Z"/>
	<path fill="#2D3040" transform="scale(0.117188 0.117188)" d="M216.808 157.246C219.197 157.072 221.7 157.236 224.101 157.237L262.027 157.236C266.797 157.236 281.718 154.88 278.875 164.237C278.306 166.11 277.215 167.068 275.555 168.001C273.449 168.206 271.242 168.035 269.125 168.024L233.427 168.007C229.232 168.01 219.431 168.592 215.958 167.511C211.131 166.009 212.584 159.291 216.808 157.246Z"/>
	<path fill="#2D3040" transform="scale(0.117188 0.117188)" d="M216.808 133.026C219.469 132.814 222.271 132.999 224.944 133.006L261.752 133.009C265.86 133.002 272.554 132.129 276.42 133.592C281.199 135.402 279.87 141.851 275.555 143.761C273.244 144.006 270.809 143.796 268.482 143.782L255.149 143.762C242.965 143.765 230.619 144.195 218.453 143.736C212.024 143.494 211.114 135.24 216.808 133.026Z"/>
	<path fill="#2D3040" transform="scale(0.117188 0.117188)" d="M157.508 341.741C160.19 341.547 162.943 341.728 165.635 341.731L234.011 341.741C233.257 344.635 231.879 350.091 230.43 352.532C223.155 352.664 160.977 353.473 156.8 352.13C151.135 350.309 152.62 343.89 157.508 341.741Z"/>
	<path fill="#2D3040" transform="scale(0.117188 0.117188)" d="M157.508 304.763L255.866 304.763C253.362 307.546 250.559 310.125 247.94 312.808C247.028 313.767 246.172 314.541 245.09 315.31C240.459 315.536 235.708 315.324 231.066 315.321L170.505 315.306C166.565 315.308 162.528 315.587 158.608 315.464C151.722 315.249 151.66 306.921 157.508 304.763Z"/>
	<path fill="#2D3040" transform="scale(0.117188 0.117188)" d="M157.508 266.754L293.998 266.754C291.781 269.471 289.006 271.894 286.56 274.423L283.341 277.499C276.515 277.782 269.562 277.51 262.721 277.507L177.291 277.491C171.241 277.493 165.064 277.836 159.032 277.633C151.549 277.381 151.134 268.975 157.508 266.754Z"/>
	<path fill="#2D3040" transform="scale(0.117188 0.117188)" d="M187.268 192.743C193.124 192.34 199.302 192.729 205.191 192.736L298.95 192.742C307.724 192.744 316.594 192.478 325.356 192.7C333.147 192.897 334.341 201.347 327.529 203.229L201.962 203.225C197.564 203.226 193.008 203.518 188.629 203.321C181.606 203.004 179.913 193.956 187.268 192.743Z"/>
	<path fill="#2D3040" transform="scale(0.117188 0.117188)" d="M221.751 229.625L314.427 229.618C318.275 229.618 322.372 229.324 326.181 229.826C329.575 231.913 323.199 234.143 321.511 240.62C319.373 240.777 317.148 240.637 315.002 240.634L259.438 240.62L170.388 240.629C166.7 240.63 157.712 241.735 154.857 239.004C152.8 237.035 152.416 233.336 154.544 231.288C157.091 228.836 161.017 229.631 164.251 229.63L221.751 229.625Z"/>
	<path fill="#2D3040" transform="scale(0.117188 0.117188)" d="M111.441 79.0757C118.135 78.1424 121.019 87.5365 123.632 92.2225C128.336 100.657 132.84 109.266 137.714 117.593C144.542 118.413 151.367 119.969 158.114 121.28C164.322 122.487 176.545 122.926 179.749 128.413L179.749 131.631C176.066 138.605 157.212 156.796 151.048 164.143L155.397 191.756C156.211 196.99 157.331 202.363 157.508 207.656C156.134 209.735 154.244 210.645 152.003 211.517C146.935 209.697 142.158 206.763 137.412 204.221L121.608 195.944C119.749 194.961 116.044 191.749 114 191.971C105.128 195.817 95.1654 201.141 86.3648 205.53C82.2586 207.577 77.9537 210.169 73.5872 211.517C70.8743 210.498 69.4358 209.467 68.0912 206.888C68.1584 203.346 68.9609 199.866 69.5788 196.39L72.2609 181.73C73.3108 176.237 74.0304 170.503 75.4006 165.096C68.8082 158.497 62.5681 151.541 56.1719 144.752C44.901 132.788 37.2093 127.978 57.3369 123.756L71.7214 120.734C77.3444 119.604 83.3269 117.569 89.0655 117.593L89.1727 117.328C91.4906 111.654 94.8356 106.161 97.6861 100.723L104.046 88.7793C105.925 85.2997 107.555 80.7209 111.441 79.0757ZM60.9981 134.107L71.2639 145.013C73.4479 147.336 77.2761 152.644 80.7391 153.025C79.408 150.316 71.8221 141.445 72.2028 139.48C74.8258 137.169 93.7435 135.957 99.1749 133.185L99.4803 133.026C103.689 129.729 111.013 113.116 115.014 107.419C120.302 115.707 124.89 124.261 129.322 133.026C134.48 134.783 156.555 137.732 158.541 139.326C160.547 137.323 162.189 135.522 163.548 133.026C157.148 132.506 150.86 130.948 144.551 129.804C127.809 126.767 131.552 129.577 123.708 115.01L112.983 95.306C109.909 101.362 100.076 120.797 96.1966 125.496C94.0108 128.144 66.0842 132.726 60.9981 134.107Z"/>
	<path fill="#FDC710" transform="scale(0.117188 0.117188)" d="M99.4803 133.026C103.689 129.729 111.013 113.116 115.014 107.419C120.302 115.707 124.89 124.261 129.322 133.026C134.48 134.783 156.555 137.732 158.541 139.326C152.174 146.651 145.196 153.636 139.104 161.17C140.606 171.473 142.731 185.929 145.297 195.964C135.53 190.642 124.253 183.773 114 179.565C103.04 184.165 91.813 190.922 80.7391 195.964C82.7391 184.577 85.2081 172.512 86.922 161.17C84.7155 158.613 82.1942 156.103 80.7391 153.025C79.408 150.316 71.8221 141.445 72.2028 139.48C74.8258 137.169 93.7435 135.957 99.1749 133.185L99.4803 133.026Z"/>
	<path fill="#2D3040" transform="scale(0.117188 0.117188)" d="M318.563 89.1866L164.128 89.183C159.901 89.186 143.373 90.5906 140.479 87.7425C138.272 85.5698 138.048 81.5664 140.491 79.4798C143.382 77.0116 150.236 78.1278 153.737 78.1361L291.433 78.117C302.739 78.1166 314.158 77.7476 325.445 78.1198C328.13 79.8968 330.422 82.5862 332.703 84.8626L361.882 114.216C380.755 132.874 377.653 124.082 377.649 149.842C377.646 166.86 377.862 183.912 377.644 200.926C382.906 195.218 388.498 189.782 393.946 184.251C400.554 177.541 406.345 169.155 416.566 168.679C428.746 168.111 439.217 182.638 447.269 190.71C452.327 195.783 460.979 202.975 464.481 208.816C474.405 225.366 453.431 240.032 443.162 250.184L391.05 302.106C386.68 306.483 382.389 311.358 377.644 315.31L377.654 411.589C377.66 420.341 380.581 429.015 369.984 429.187C352.809 429.467 335.584 429.18 318.402 429.179L127.477 429.199C121.369 429.202 111.406 431.541 110.721 423.78C110.148 417.29 110.646 409.866 110.646 403.265L110.627 230.501C110.622 225.623 110.272 220.504 110.62 215.655C110.967 210.814 117.103 208.577 120.175 212.647C122.831 216.168 121.405 229.006 121.417 233.48L121.422 389.244C121.81 389.436 153.022 389.422 156.05 389.244C158.918 389.776 161.931 389.327 164.836 389.268C176.51 389.03 188.258 389.121 199.931 389.259C203.888 389.306 208.119 390.168 212.015 389.244C217.872 389.741 227.631 389.246 233.809 389.252L273.787 389.25C281.687 389.244 289.548 389.045 297.443 389.373L297.591 389.244C302.081 390.05 327.821 389.712 331.134 389.244C334.215 387.652 334.843 385.839 335.255 382.388C335.685 380.621 335.392 357.648 335.255 357.337C330.623 359.636 325.272 356.166 327.754 350.801C328.788 348.563 341.729 336.434 344.245 333.91L420.756 257.654C423.573 254.9 426.669 252.303 429.345 249.426C426.611 246.509 423.907 243.15 420.823 240.62C416.448 245.312 411.833 249.795 407.307 254.342L304.275 356.948C295.938 365.181 297.862 366.194 286.558 369.41L270.195 373.907C260.656 376.475 251.141 379.238 241.786 382.388C233.355 378.108 239.263 369.123 241.416 362.507L249.699 337.339C253.037 327.166 251.393 328.55 258.758 321.008L335.434 243.722C345.862 233.242 356.528 222.956 366.771 212.296L366.771 137.751L338.428 137.767C316.005 137.768 318.547 140.217 318.551 117.297L318.563 89.1866ZM329.487 97.1551C329.363 107.108 329.504 117.07 329.487 127.024L349.378 127.044C352.523 127.047 355.894 127.312 359.011 127.024C357.797 125.081 330.742 97.8972 329.487 97.1551ZM362.838 418.484L366.771 418.484L366.771 414.824C365.014 416.039 364.082 416.632 362.838 418.484Z"/>
	<path fill="#FDC710" transform="scale(0.117188 0.117188)" d="M262.012 333.395C267.965 340.301 267.694 342.147 277.006 341.741C276.702 351.568 280.14 352.355 286.56 358.23C278.476 360.878 270.18 362.764 262.012 365.123C258.209 366.352 254.314 367.368 250.467 368.456C251.108 366.248 251.845 364.096 252.624 361.935L258.129 345.328C259.395 341.379 260.435 337.222 262.012 333.395Z"/>
	<path fill="#E18989" transform="scale(0.117188 0.117188)" d="M416.498 179.565C424.458 179.303 443.946 202.651 449.763 208.598C460.295 219.363 455.883 222.608 447.123 231.32L437.006 241.347L435.341 239.699C421.832 226.027 408.333 212.274 394.469 198.964C399.039 194.522 411.035 180.423 416.498 179.565Z"/>
	<path fill="#7C75EC" transform="scale(0.117188 0.117188)" d="M386.721 207.656C388.583 208.3 393.845 213.793 395.718 215.449C374.964 235.384 355.19 256.297 334.806 276.601L302.713 308.662C295.402 315.961 287.888 323.127 281.022 330.85L278.237 330.85L273.659 331.331C272.043 329.459 270.557 327.448 269.139 325.423C279.796 315.131 290.151 304.489 300.636 294.02L372.233 222.188C377.042 217.331 381.779 212.378 386.721 207.656Z"/>
	<path fill="#CAB894" transform="scale(0.117188 0.117188)" d="M403.293 223.223C406.87 226.241 410.311 229.743 413.394 233.261C407.688 238.809 402.148 244.536 396.495 250.14L313.131 333.212C307.518 338.837 301.77 344.361 296.312 350.137C293.76 353.171 290.449 347.805 287.593 345.279C287.569 343.29 287.583 341.302 287.593 339.313C294.708 330.885 303.142 323.085 310.973 315.329L395.435 230.862C397.988 228.259 400.465 225.533 403.293 223.223Z"/>
	<path fill="#E7E6E6" transform="scale(0.117188 0.117188)" d="M335.255 357.337C344.711 349.572 357.698 335.613 366.771 326.584C366.624 336.441 366.771 346.318 366.771 356.177L366.771 414.824C365.014 416.039 364.082 416.632 362.838 418.484L121.422 418.484L121.422 389.244C121.81 389.436 153.022 389.422 156.05 389.244C158.918 389.776 161.931 389.327 164.836 389.268C176.51 389.03 188.258 389.121 199.931 389.259C203.888 389.306 208.119 390.168 212.015 389.244C217.872 389.741 227.631 389.246 233.809 389.252L273.787 389.25C281.687 389.244 289.548 389.045 297.443 389.373L297.591 389.244C302.081 390.05 327.821 389.712 331.134 389.244C334.215 387.652 334.843 385.839 335.255 382.388C335.685 380.621 335.392 357.648 335.255 357.337Z"/>
</svg>
