<?xml version="1.0" encoding="utf-8" ?>
<svg xmlns="http://www.w3.org/2000/svg" xmlns:xlink="http://www.w3.org/1999/xlink" width="60" height="60">
	<path fill="#F76361" transform="scale(0.117188 0.117188)" d="M181.886 202.26C184.807 202.106 188.573 204.712 187.643 208.03C186.845 210.879 176.614 220.12 173.924 221.718C170.514 222.061 167.201 219.507 168.33 215.751C169.367 212.302 178.475 204.115 181.886 202.26Z"/>
	<path fill="#F76361" transform="scale(0.117188 0.117188)" d="M296.764 149.751C300.742 149.421 313.105 149.397 316.846 150.289C320.39 153.225 320.323 158.259 315.143 159.456C311.127 159.508 299.466 160.087 296.312 159.11C290.632 157.35 292.606 151.744 296.764 149.751Z"/>
	<path fill="#F76361" transform="scale(0.117188 0.117188)" d="M292.285 93.2634C295.812 93.0773 299.567 95.5696 298.002 99.59C297.067 101.994 284.952 113.64 282.438 114.852C279.068 115.227 275.177 113.48 276.297 109.417C277.042 106.713 289.594 94.6671 292.285 93.2634Z"/>
	<path fill="#F76361" transform="scale(0.117188 0.117188)" d="M173.924 93.2634C175.382 93.394 200.713 109.819 187.325 116.246C185.344 116.21 159.75 97.3421 173.924 93.2634Z"/>
	<path fill="#F76361" transform="scale(0.117188 0.117188)" d="M163.615 149.001L166.187 148.833C172.804 148.423 179.384 152.229 173.761 157.422C171.421 159.583 162.534 158.757 159.375 158.734C156.091 158.787 152.323 159.244 149.35 157.653C143.892 147.104 157.456 149.025 163.615 149.001Z"/>
	<path fill="#F76361" transform="scale(0.117188 0.117188)" d="M233.929 65.2506C236.052 65.2443 238.075 66.5584 238.961 68.4788C240.005 70.7412 241.821 90.5393 235.839 93.2634C233.832 93.1464 231.594 92.6953 230.6 90.7048C228.476 86.4486 226.351 68.5607 233.929 65.2506Z"/>
	<path fill="#FE9B45" transform="scale(0.117188 0.117188)" d="M87.9472 284.832C95.7728 285.28 103.393 286.634 104.248 296.251C104.472 298.768 104.654 318.111 104.147 319.429L103.758 319.365L103.267 318.488C100.011 310.566 96.5633 302.779 93.5278 294.765C91.1654 294.796 87.8233 295.533 86.0191 293.66C83.4173 290.957 85.5542 286.785 87.9472 284.832Z"/>
	<path fill="#25AED1" transform="scale(0.117188 0.117188)" d="M145.717 298.242L180.518 298.229C186.481 298.228 192.631 297.92 198.574 298.289C204.337 298.647 204.192 306.972 198.576 307.881L160.676 307.877C157.183 307.876 148.083 308.382 145.341 307.688C140.09 306.36 141.729 300.01 145.717 298.242Z"/>
	<path fill="#25AED1" transform="scale(0.117188 0.117188)" d="M147.91 367.272L187.944 367.263C191.897 367.263 210.39 366.259 213.092 368.13C215.974 370.125 216.144 376.58 209.313 376.742L168.59 376.73C164.622 376.735 146.703 377.88 144.063 376.017C140.472 373.483 141.658 367.799 147.91 367.272Z"/>
	<path fill="#25AED1" transform="scale(0.117188 0.117188)" d="M190.423 321.955C195.956 321.956 205.874 321.282 210.992 321.923C214.813 322.401 216.201 327.394 213.513 330.067C210.93 332.635 198.206 331.459 194.594 331.46L166.375 331.452C159.492 331.435 152.597 331.6 145.717 331.452C141.226 328.66 141.139 325.352 144.877 321.955C149.881 321.714 155.006 321.946 160.025 321.948L190.423 321.955Z"/>
	<path fill="#25AED1" transform="scale(0.117188 0.117188)" d="M145.717 344.159L202.769 344.152C209.01 344.147 215.729 342.383 214.667 351.217C213.849 352.525 213.124 353.226 211.71 353.87L154.221 353.885C151.111 353.908 147.982 354.064 144.877 353.87C141.335 350.618 141.326 346.473 145.717 344.159Z"/>
	<path fill="#25AED1" transform="scale(0.117188 0.117188)" d="M255.961 367.272C268.31 366.867 280.804 367.267 293.165 367.272L314.21 367.275C317.052 367.274 319.968 367.085 322.799 367.199C328.646 367.433 330.413 375.164 324.246 376.742L279.97 376.739C272.394 376.747 264.646 377.099 257.089 376.731C250.466 376.408 250.282 368.881 255.961 367.272Z"/>
	<path fill="#25AED1" transform="scale(0.117188 0.117188)" d="M255.017 321.955C259.34 321.781 263.722 321.937 268.052 321.943L313.375 321.948C317.247 321.937 321.136 321.759 325.002 321.955C329.218 324.715 328.785 328.682 325.002 331.452C322.814 331.734 320.458 331.497 318.249 331.473L270.845 331.466C267.111 331.471 258.553 331.971 255.322 331.233C250.446 330.119 251.14 323.89 255.017 321.955Z"/>
	<path fill="#25AED1" transform="scale(0.117188 0.117188)" d="M275.805 344.159L307.931 344.143C313.09 344.141 318.614 343.741 323.722 344.247C329.936 344.861 328.928 351.086 325.002 353.87C322.71 354.08 320.313 353.903 318.007 353.895L304.125 353.87L271.304 353.871C265.896 353.874 260.415 354.106 255.017 353.87C250.533 350.764 250.783 347.339 255.017 344.159L275.805 344.159Z"/>
	<path fill="#326592" transform="scale(0.117188 0.117188)" d="M255.961 273.329C257.613 272.748 259.289 272.089 261.064 272.061C262.583 272.851 263.682 273.678 264.825 274.971C268.588 278.479 272.009 282.479 275.805 285.89C276.962 287.014 277.971 287.97 278.746 289.412C278.763 291.37 278.804 293.331 278.746 295.288C270.415 298.688 254.171 307.769 246.289 309.273C243.432 308.068 242.613 307.006 242.108 303.865C242.926 297.854 252.381 278.603 255.961 273.329ZM261.064 284.832C259.302 288.225 257.241 291.687 255.961 295.288C257.35 294.79 258.611 294.164 259.917 293.484C262.174 292.368 264.41 291.379 266.756 290.467C265.286 288.574 263.202 285.954 261.064 284.832Z"/>
	<path fill="#25AED1" transform="scale(0.117188 0.117188)" d="M399.243 111.32C401.384 108.384 404.563 105.767 407.163 103.228C415.611 94.977 425.448 84.7626 437.979 94.0968C441.832 96.9672 452.591 107.9 455.001 111.8C465.493 128.779 446.377 139.145 437.745 149.751C435.987 146.918 433.942 144.693 431.452 142.47C437.416 138.04 452.672 125.36 446.947 116.585C444.982 113.573 434.537 103.038 431.694 101.062C421.914 94.2632 412.351 112.894 405.658 117.173C403.685 115.025 401.544 113.11 399.243 111.32Z"/>
	<path fill="#FE9B45" transform="scale(0.117188 0.117188)" d="M70.5565 284.832C74.2453 284.79 76.0957 285.864 77.4258 289.412C73.9972 303.525 62.5109 281.65 62.5153 312.584L62.5259 330.53C70.6182 331.081 78.733 329.815 86.7984 330.53C91.2242 332.405 103.386 345.348 104.609 348.754C105.058 350.005 104.992 364.611 104.954 366.94L104.733 367.017L104.341 366.415C98.5993 357.875 93.3918 345.392 83.6867 339.876C78.0268 339.758 72.2954 339.81 66.6337 339.915C50.5368 340.213 53.339 338.743 53.3221 324.548C53.3036 308.988 48.9432 287.268 70.5565 284.832Z"/>
	<path fill="#326592" transform="scale(0.117188 0.117188)" d="M142.15 250.758L170.407 250.747C196.154 250.756 213.842 252.189 233.929 272.061C236.675 266.471 242.918 263.042 248.143 259.987C246.613 264.578 244.215 268.974 242.108 273.329C240.138 277.124 238.703 282.195 236.402 285.621C232.537 291.378 229.671 282.631 227.987 279.896C221.366 269.146 202.355 262.056 190.589 260.405C184.66 259.572 178.399 259.975 172.418 259.977L142.15 259.987C137.508 257.773 136.495 252.722 142.15 250.758Z"/>
	<path fill="#FE9B45" transform="scale(0.117188 0.117188)" d="M78.7024 238.585C90.9055 236.085 103.203 251.014 98.0552 264.24C95.347 271.198 90.1231 273.937 83.6867 276.807C55.5792 277.201 54.5062 242.049 78.7024 238.585ZM78.7024 248.029C65.8779 251.294 70.4509 269.641 82.1409 267.071C93.8455 262.965 91.5554 246.868 78.7024 248.029Z"/>
	<path fill="#F76361" transform="scale(0.117188 0.117188)" d="M230.283 106.653C260.539 103.555 282.384 128.181 281.896 157.653C278.823 156.038 275.958 154.524 272.579 153.62C271.507 133.247 259.034 120.879 239.462 116.246C215.157 113.463 198.972 130.182 196.945 153.62C193.669 154.496 190.495 155.427 187.325 156.631C186.241 130.394 204.091 109.685 230.283 106.653Z"/>
	<path fill="#0B4074" transform="scale(0.117188 0.117188)" d="M394.055 112.984C395.768 111.794 397.127 111.147 399.243 111.32C401.544 113.11 403.685 115.025 405.658 117.173C414.647 125.133 422.495 134.415 431.452 142.47C433.942 144.693 435.987 146.918 437.745 149.751C437.908 152.985 435.065 157.17 431.452 155.14C429.165 153.009 426.54 151.207 424.233 149.001C421.582 146.315 418.889 143.675 416.256 140.969C414.071 138.52 411.472 136.03 409.05 133.804C406.118 131.38 403.451 128.284 400.714 125.607C398.53 123.426 396.389 121.16 394.055 119.139C392.681 116.943 392.725 115.265 394.055 112.984Z"/>
	<path fill="#F76361" transform="scale(0.117188 0.117188)" d="M235.839 165.502C259.928 141.488 295.832 170.743 280.289 197.536C277.719 201.966 273.608 205.263 270.038 208.846L252.12 226.524C231.426 247.016 237.967 244.233 216.991 223.387L202.098 208.565C198.91 205.399 195.056 202.136 192.555 198.397C180.79 180.812 193.167 158.068 214.667 156.631C223.182 156.245 229.837 159.564 235.839 165.502ZM212.804 166.285C201.341 169.022 192.786 182.239 200.6 192.987C203.389 196.823 207.258 200.171 210.613 203.525L224.821 217.739C228.579 221.503 232.389 225.201 235.839 229.256C241.739 223.464 247.377 217.418 253.319 211.66L262.486 202.608C267.858 197.339 273.961 192.327 274.033 184.164C274.122 174.16 265.67 166.26 255.791 166.382C243.958 166.527 240.921 177.097 235.588 177.253C231.096 177.384 228.104 165.028 212.804 166.285Z"/>
	<path fill="#326592" transform="scale(0.117188 0.117188)" d="M345.424 276.807C352.789 278.039 350.22 290.646 350.216 296.925L350.212 407.012C346.051 412.355 337.019 410.253 330.467 410.248L299.884 410.247C269.371 410.224 261.333 411.976 239.462 432.264L346.694 432.251C353.286 432.231 363.269 429.739 365.38 436.947C363.423 444.643 354.461 441.583 347.644 441.581L104.341 441.58C101.88 439.893 99.9679 436.191 102.492 433.682C105.243 430.946 114.691 432.254 118.402 432.254L226.859 432.264C207.48 408.867 185.852 410.225 157.875 410.251L134.858 410.269C130.688 410.271 119.945 412.391 119.31 406.237C118.814 401.427 119.24 395.77 119.24 390.846L119.233 308.026C119.229 303.554 117.984 281.107 120.201 278.573C123.638 274.644 128.236 277.99 128.553 282.268C128.829 286.002 128.497 290.046 128.496 293.817L128.494 401.115L165.413 401.104C195.336 401.106 206.49 402.076 229.245 420.588L229.228 330.532C229.203 324.112 226.95 316.575 233.929 314.654C240.516 316.492 238.354 326.003 238.343 331.951L238.328 420.588C258.444 400.479 279.397 401.104 304.704 401.115L341.115 401.115L341.111 293.664C341.099 287.388 338.671 278.681 345.424 276.807Z"/>
	<path fill="#25AED1" transform="scale(0.117188 0.117188)" d="M394.055 119.139C396.389 121.16 398.53 123.426 400.714 125.607C403.451 128.284 406.118 131.38 409.05 133.804C411.472 136.03 414.071 138.52 416.256 140.969C418.889 143.675 421.582 146.315 424.233 149.001C426.54 151.207 429.165 153.009 431.452 155.14C418.879 167.054 406.866 179.605 394.632 191.876L312.453 274.446C309.216 277.703 304.401 283.537 300.828 285.97C296.226 289.103 284.468 292.61 278.746 295.288C278.804 293.331 278.763 291.37 278.746 289.412C277.971 287.97 276.962 287.014 275.805 285.89C272.009 282.479 268.588 278.479 264.825 274.971C263.682 273.678 262.583 272.851 261.064 272.061C259.289 272.089 257.613 272.748 255.961 273.329C262.471 260.488 259.912 252.663 270.914 241.876L366.083 146.778C375.263 137.52 384.333 127.814 394.055 119.139ZM400.714 125.607C396.284 129.685 392.233 134.144 387.986 138.41L283.479 243.117C280.924 245.654 278.467 248.335 275.805 250.758C278.671 253.715 281.571 256.584 284.727 259.236C288.166 255.012 292.36 251.273 296.212 247.421L373.937 169.178C385.672 157.459 397.739 145.93 409.05 133.804C406.118 131.38 403.451 128.284 400.714 125.607ZM416.256 140.969C411.46 143.666 397.771 159.075 393.322 163.512L315.61 241.654C308.108 249.245 297.953 257.914 291.321 265.904C293.99 268.632 296.712 271.323 299.24 274.183L412.196 160.571C416.079 156.639 419.809 152.323 424.233 149.001C421.582 146.315 418.889 143.675 416.256 140.969ZM270.833 259.236C269.285 264.098 267.173 270.475 264.825 274.971C268.588 278.479 272.009 282.479 275.805 285.89C280.976 283.81 286.355 282.027 291.321 279.484C284 273.444 278.428 265.359 270.833 259.236Z"/>
</svg>
