<?xml version="1.0" encoding="utf-8" ?>
<svg xmlns="http://www.w3.org/2000/svg" xmlns:xlink="http://www.w3.org/1999/xlink" width="100" height="100">
	<path fill="#CFDBF4" transform="scale(0.195312 0.195312)" d="M198.113 193.484C208.583 193.755 219.121 193.481 229.6 193.482L315.08 193.466C322.691 193.46 331.004 192.205 336.815 198.251C343.686 205.4 339.678 217.392 340.795 226.205L369.872 226.192C375.521 226.192 382.578 225.529 388.007 226.823C405.279 230.941 403.76 246.795 403.756 260.136L403.751 353.393C403.753 363.85 403.902 374.331 403.759 384.785L403.747 385.291C411.04 385.431 418.349 385.291 425.644 385.291C426.597 418.126 407.626 418.471 381.258 418.519C377.737 418.526 374.053 418.769 370.55 418.523L370.55 425.437C371.037 430.144 370.559 435.135 370.55 439.87L199.336 439.865C192.315 439.867 185.194 440.164 178.187 439.87L152.238 439.87C151.853 437.803 152.194 435.21 152.207 433.077L152.238 418.523L136.802 418.523C124.26 417.277 113.439 420.155 103.554 410.035C96.2421 402.549 96.1939 395.136 96.2517 385.291C102.466 385.539 110.315 385.646 116.484 385.291L119.681 385.291L119.674 278.298C119.669 273.848 119.461 269.327 119.681 264.887C119.676 264.781 119.677 264.675 119.676 264.569L119.645 253.054C119.607 228.92 129.221 226.205 150.754 226.224L174.506 226.205L174.5 216.248C174.524 197.557 180.073 193.65 198.113 193.484ZM228.603 244.995C232.924 244.879 237.247 244.968 241.569 244.995C242.209 240.541 243.681 236.528 247.467 233.738C263.004 222.289 276.98 245.113 261.359 254.669C257.96 256.748 253.528 257.388 249.725 258.481L249.725 263.375L249.725 286.136C254.272 286.155 258.861 286.304 263.404 286.136C261.975 278.511 262.627 274.114 262.318 266.745C294.815 254.435 281.751 215.437 252.251 218.762C236.8 221.473 231.717 230.848 228.603 244.995Z"/>
	<path fill="#79CEF7" transform="scale(0.195312 0.195312)" d="M198.113 193.484C208.583 193.755 219.121 193.481 229.6 193.482L315.08 193.466C322.691 193.46 331.004 192.205 336.815 198.251C343.686 205.4 339.678 217.392 340.795 226.205C341.014 230.245 340.964 234.491 340.795 238.534L340.795 306.19L354.096 306.163C356.323 306.159 358.661 306.013 360.875 306.19C354.23 306.376 347.441 306.369 340.795 306.19L340.795 317.519C342.566 317.431 344.369 317.258 346.129 317.519L340.795 317.519C340.876 318.806 341.072 320.28 340.795 321.547L340.727 321.496C339.759 321.619 336.3 328.83 326.633 329.434C319.263 329.894 311.646 329.489 304.248 329.489L228.041 329.503C204.787 329.532 201.037 333.242 201.097 306.774L201.097 193.484C200.078 193.569 199.132 193.573 198.113 193.484ZM228.603 244.995C232.924 244.879 237.247 244.968 241.569 244.995C242.209 240.541 243.681 236.528 247.467 233.738C263.004 222.289 276.98 245.113 261.359 254.669C257.96 256.748 253.528 257.388 249.725 258.481L249.725 263.375L249.725 286.136C254.272 286.155 258.861 286.304 263.404 286.136C261.975 278.511 262.627 274.114 262.318 266.745C294.815 254.435 281.751 215.437 252.251 218.762C236.8 221.473 231.717 230.848 228.603 244.995Z"/>
	<path fill="#FEFEFE" transform="scale(0.195312 0.195312)" d="M256.533 298.144Q256.716 298.15 256.898 298.164Q257.081 298.179 257.263 298.202Q257.444 298.226 257.624 298.258Q257.805 298.29 257.983 298.332Q258.161 298.373 258.338 298.422Q258.514 298.472 258.687 298.531Q258.861 298.589 259.031 298.656Q259.202 298.723 259.369 298.798Q259.536 298.873 259.699 298.956Q259.862 299.039 260.021 299.13Q260.18 299.221 260.334 299.32Q260.488 299.419 260.637 299.525Q260.787 299.631 260.93 299.744Q261.074 299.857 261.212 299.978Q261.35 300.098 261.482 300.225Q261.615 300.352 261.74 300.485Q261.866 300.618 261.985 300.757Q262.104 300.896 262.216 301.041Q262.328 301.186 262.433 301.336Q262.538 301.486 262.635 301.641Q262.732 301.796 262.822 301.956Q262.912 302.115 262.993 302.279Q263.075 302.443 263.149 302.611Q263.222 302.778 263.288 302.949Q263.353 303.12 263.41 303.294Q263.467 303.468 263.515 303.645Q263.563 303.822 263.603 304Q263.643 304.179 263.673 304.36Q263.704 304.54 263.726 304.722Q263.748 304.904 263.761 305.086Q263.774 305.269 263.778 305.452Q263.782 305.635 263.777 305.818Q263.772 306.001 263.758 306.184Q263.744 306.366 263.721 306.548Q263.699 306.729 263.667 306.91Q263.635 307.09 263.595 307.269Q263.554 307.447 263.505 307.624Q263.456 307.8 263.398 307.974Q263.341 308.147 263.274 308.318Q263.208 308.489 263.134 308.656Q263.059 308.823 262.977 308.987Q262.894 309.15 262.804 309.309Q262.713 309.469 262.615 309.623Q262.517 309.778 262.411 309.927Q262.306 310.077 262.193 310.221Q262.08 310.365 261.961 310.504Q261.841 310.642 261.715 310.775Q261.588 310.907 261.456 311.034Q261.323 311.16 261.184 311.279Q261.046 311.399 260.901 311.511Q260.757 311.624 260.607 311.729Q260.457 311.835 260.303 311.933Q260.148 312.031 259.989 312.121Q259.829 312.211 259.666 312.293Q259.502 312.376 259.335 312.45Q259.168 312.524 258.997 312.59Q258.826 312.656 258.652 312.714Q258.478 312.771 258.302 312.82Q258.126 312.869 257.947 312.909Q257.768 312.949 257.588 312.981Q257.408 313.012 257.226 313.035Q257.044 313.057 256.862 313.071Q256.679 313.085 256.496 313.09Q256.313 313.094 256.13 313.09Q255.946 313.086 255.763 313.072Q255.579 313.059 255.397 313.037Q255.214 313.014 255.033 312.983Q254.851 312.952 254.672 312.912Q254.492 312.871 254.315 312.823Q254.138 312.774 253.963 312.716Q253.788 312.658 253.617 312.592Q253.445 312.526 253.277 312.452Q253.109 312.377 252.944 312.294Q252.78 312.212 252.62 312.121Q252.46 312.03 252.304 311.932Q252.149 311.834 251.999 311.728Q251.848 311.622 251.703 311.508Q251.558 311.395 251.419 311.275Q251.28 311.155 251.146 311.028Q251.013 310.901 250.887 310.768Q250.76 310.634 250.64 310.495Q250.52 310.356 250.407 310.21Q250.294 310.065 250.188 309.915Q250.082 309.764 249.984 309.609Q249.885 309.453 249.795 309.293Q249.705 309.133 249.622 308.968Q249.54 308.804 249.465 308.636Q249.391 308.467 249.325 308.296Q249.259 308.124 249.202 307.949Q249.144 307.774 249.095 307.597Q249.047 307.42 249.007 307.24Q248.967 307.061 248.936 306.879Q248.905 306.698 248.883 306.515Q248.86 306.333 248.847 306.149Q248.834 305.966 248.83 305.782Q248.826 305.598 248.831 305.414Q248.836 305.23 248.85 305.047Q248.864 304.863 248.887 304.681Q248.91 304.498 248.942 304.317Q248.974 304.136 249.015 303.957Q249.056 303.777 249.105 303.6Q249.155 303.423 249.213 303.249Q249.271 303.074 249.338 302.903Q249.405 302.731 249.48 302.564Q249.555 302.396 249.638 302.232Q249.722 302.068 249.813 301.908Q249.904 301.748 250.003 301.593Q250.102 301.438 250.209 301.288Q250.315 301.138 250.429 300.994Q250.543 300.849 250.663 300.71Q250.784 300.572 250.911 300.439Q251.039 300.306 251.173 300.18Q251.306 300.054 251.446 299.934Q251.586 299.815 251.731 299.702Q251.877 299.59 252.028 299.484Q252.179 299.379 252.335 299.282Q252.49 299.184 252.651 299.094Q252.811 299.004 252.976 298.922Q253.141 298.84 253.309 298.767Q253.478 298.693 253.65 298.628Q253.822 298.562 253.997 298.506Q254.172 298.449 254.349 298.401Q254.527 298.353 254.706 298.313Q254.886 298.274 255.068 298.244Q255.249 298.213 255.432 298.192Q255.614 298.17 255.798 298.158Q255.981 298.145 256.165 298.142Q256.349 298.138 256.533 298.144Z"/>
	<path fill="#A3AFBD" transform="scale(0.195312 0.195312)" d="M340.795 226.205L369.872 226.192C375.521 226.192 382.578 225.529 388.007 226.823C405.279 230.941 403.76 246.795 403.756 260.136L403.751 353.393C403.753 363.85 403.902 374.331 403.759 384.785L403.747 385.291C411.04 385.431 418.349 385.291 425.644 385.291C426.597 418.126 407.626 418.471 381.258 418.519C377.737 418.526 374.053 418.769 370.55 418.523L370.55 425.437C371.037 430.144 370.559 435.135 370.55 439.87L199.336 439.865C192.315 439.867 185.194 440.164 178.187 439.87L152.238 439.87C151.853 437.803 152.194 435.21 152.207 433.077L152.238 418.523L136.802 418.523C124.26 417.277 113.439 420.155 103.554 410.035C96.2421 402.549 96.1939 395.136 96.2517 385.291C102.466 385.539 110.315 385.646 116.484 385.291L119.681 385.291L119.674 278.298C119.669 273.848 119.461 269.327 119.681 264.887C119.986 269.032 119.694 273.33 119.688 277.497L119.681 385.291C123.265 385.76 129.117 386.47 132.561 385.291L227.158 385.291C229.248 402.312 234.735 397.528 249.867 397.51L272.962 397.511C289.378 397.536 289.933 401.336 292.62 385.291L390.319 385.291L390.331 258.278C390.335 237.383 392.221 238.527 369.198 238.524L340.795 238.534C340.964 234.491 341.014 230.245 340.795 226.205Z"/>
	<path fill="#4B5A76" transform="scale(0.195312 0.195312)" d="M152.238 418.523L346.476 418.526C354.494 418.525 362.535 418.372 370.55 418.523L370.55 425.437C371.037 430.144 370.559 435.135 370.55 439.87L199.336 439.865C192.315 439.867 185.194 440.164 178.187 439.87L152.238 439.87C152.938 435.601 152.303 423.237 152.238 418.523Z"/>
	<path fill="#828DA2" transform="scale(0.195312 0.195312)" d="M370.55 425.437C371.037 430.144 370.559 435.135 370.55 439.87L199.336 439.865C192.315 439.867 185.194 440.164 178.187 439.87C181.713 439.358 185.891 439.852 189.486 439.87L189.486 430.518L370.55 430.518C370.484 428.816 370.401 427.136 370.55 425.437Z"/>
	<path fill="#828DA2" transform="scale(0.195312 0.195312)" d="M96.2517 385.291C102.466 385.539 110.315 385.646 116.484 385.291C116.733 393.159 115.586 397.638 119.842 404.748C126.449 415.786 133.581 414.362 136.802 418.523C124.26 417.277 113.439 420.155 103.554 410.035C96.2421 402.549 96.1939 395.136 96.2517 385.291Z"/>
	<path fill="#49ABD8" transform="scale(0.195312 0.195312)" d="M174.506 226.205L174.5 216.248C174.524 197.557 180.073 193.65 198.113 193.484C199.132 193.573 200.078 193.569 201.097 193.484L201.097 306.774C201.037 333.242 204.787 329.532 228.041 329.503L304.248 329.489C311.646 329.489 319.263 329.894 326.633 329.434C336.3 328.83 339.759 321.619 340.727 321.496L340.795 321.547C340.794 324.488 340.759 327.432 340.795 330.373C340.744 332.497 341.283 340.471 340.795 341.719C338.734 342.326 335.568 347.853 330.089 349.506C326.005 350.739 314 350.129 309.032 350.129L275.688 350.123C270.678 356.77 265.569 366.074 260.553 371.968C258.683 374.165 257.723 374.578 255.754 372.335C250.06 365.847 245.481 356.157 239.242 350.123L205.399 350.134C197.412 350.133 185.741 352.259 179.492 345.937C178.254 344.684 177.184 342.699 175.819 341.719C174.464 338.085 174.739 334.18 174.506 330.373L174.506 317.519C174.821 316.179 174.879 308.248 174.506 306.903L174.506 294.105C174.658 290.432 174.663 286.611 174.506 282.94C174.023 279.885 174.4 273.121 174.506 269.792C174.85 268.755 174.743 259.615 174.506 258.481C173.945 252.879 174.412 245.094 174.506 239.394C174.319 235.04 174.281 230.556 174.506 226.205Z"/>
	<path fill="#828DA2" transform="scale(0.195312 0.195312)" d="M119.681 264.887C119.676 264.781 119.677 264.675 119.676 264.569L119.645 253.054C119.607 228.92 129.221 226.205 150.754 226.224L174.506 226.205C174.281 230.556 174.319 235.04 174.506 239.394L151.39 239.371C144.64 239.367 136.376 237.259 132.561 244.301L132.561 385.291C129.117 386.47 123.265 385.76 119.681 385.291L119.688 277.497C119.694 273.33 119.986 269.032 119.681 264.887Z"/>
	<path fill="#5C86E4" transform="scale(0.195312 0.195312)" d="M340.795 330.373L359.355 330.359C364.459 330.359 374.552 328.594 374.254 336.509C373.964 344.178 360.318 341.741 355.541 341.74C350.827 341.738 345.421 342.494 340.795 341.719C341.283 340.471 340.744 332.497 340.795 330.373Z"/>
	<path fill="#5C86E4" transform="scale(0.195312 0.195312)" d="M340.795 306.19C347.441 306.369 354.23 306.376 360.875 306.19C364.324 306.162 370.008 305.384 372.682 307.991C375.775 311.006 374.235 316.705 369.937 317.374C367.252 317.792 364.232 317.54 361.511 317.537L346.129 317.519C344.369 317.258 342.566 317.431 340.795 317.519L340.795 306.19Z"/>
	<path fill="#5C86E4" transform="scale(0.195312 0.195312)" d="M174.506 269.792C170.1 269.708 152.145 270.945 149.206 268.613C145.741 265.862 146.536 259.745 151.012 258.75C153.817 258.126 157.135 258.452 160.009 258.456L174.506 258.481C174.743 259.615 174.85 268.755 174.506 269.792Z"/>
	<path fill="#5C86E4" transform="scale(0.195312 0.195312)" d="M174.506 294.105L160.659 294.124C156.905 294.125 151.165 294.888 148.115 292.114C145.903 290.103 146.458 286.228 148.486 284.295C150.821 282.069 156.695 282.919 159.604 282.919L174.506 282.94C174.663 286.611 174.658 290.432 174.506 294.105Z"/>
	<path fill="#5C86E4" transform="scale(0.195312 0.195312)" d="M174.506 306.903C174.879 308.248 174.821 316.179 174.506 317.519C167.34 317.503 160.24 317.602 153.08 317.831C147.09 318.023 144.867 311.702 148.465 308.367C150.982 306.033 156.777 306.879 159.886 306.881L174.506 306.903Z"/>
	<path fill="#5C86E4" transform="scale(0.195312 0.195312)" d="M175.819 341.719C171.318 342.177 156.302 342.193 151.736 341.737C147.894 341.353 145.128 336.6 147.693 333.308C151.647 328.23 168.081 331.283 174.161 330.425L174.506 330.373C174.739 334.18 174.464 338.085 175.819 341.719Z"/>
	<path fill="#F1AE48" transform="scale(0.195312 0.195312)" d="M365.612 287.913Q365.304 288.039 364.99 288.151Q364.677 288.264 364.36 288.365Q364.042 288.465 363.721 288.552Q363.399 288.639 363.075 288.713Q362.75 288.787 362.423 288.848Q362.095 288.909 361.766 288.957Q361.436 289.004 361.105 289.039Q360.774 289.073 360.441 289.094Q360.109 289.114 359.776 289.122Q359.443 289.129 359.11 289.123Q358.778 289.116 358.445 289.097Q358.113 289.077 357.781 289.044Q357.45 289.011 357.12 288.964Q356.791 288.918 356.463 288.858Q356.136 288.798 355.811 288.725Q355.486 288.652 355.164 288.566Q354.843 288.479 354.525 288.38Q354.207 288.281 353.893 288.169Q353.58 288.057 353.271 287.933Q352.962 287.808 352.659 287.671Q352.355 287.534 352.057 287.385Q351.76 287.236 351.468 287.075Q351.177 286.914 350.892 286.741Q350.608 286.568 350.33 286.384Q350.053 286.2 349.783 286.004Q349.513 285.809 349.252 285.603Q348.99 285.397 348.737 285.181Q348.484 284.964 348.24 284.738Q347.996 284.511 347.761 284.275Q347.527 284.039 347.302 283.793Q347.077 283.548 346.862 283.293Q346.647 283.039 346.443 282.776Q346.239 282.513 346.045 282.242Q345.852 281.971 345.669 281.692Q345.487 281.414 345.316 281.128Q345.145 280.842 344.986 280.55Q344.827 280.257 344.68 279.959Q344.532 279.66 344.397 279.356Q344.262 279.051 344.14 278.742Q344.017 278.432 343.908 278.118Q343.798 277.803 343.701 277.485Q343.603 277.166 343.519 276.844Q343.435 276.522 343.364 276.197Q343.293 275.871 343.236 275.543Q343.178 275.216 343.134 274.885Q343.089 274.555 343.058 274.224Q343.027 273.892 343.01 273.56Q342.992 273.227 342.988 272.894Q342.984 272.561 342.993 272.229Q343.003 271.896 343.026 271.564Q343.049 271.231 343.085 270.9Q343.121 270.569 343.171 270.24Q343.221 269.911 343.284 269.584Q343.347 269.257 343.423 268.933Q343.499 268.609 343.589 268.288Q343.678 267.967 343.78 267.65Q343.883 267.333 343.998 267.021Q344.113 266.709 344.24 266.401Q344.368 266.093 344.508 265.791Q344.648 265.489 344.8 265.193Q344.952 264.897 345.116 264.607Q345.279 264.317 345.455 264.034Q345.63 263.751 345.817 263.475Q346.004 263.2 346.202 262.932Q346.4 262.664 346.608 262.405Q346.817 262.145 347.036 261.894Q347.255 261.643 347.484 261.401Q347.712 261.159 347.951 260.927Q348.189 260.695 348.437 260.472Q348.685 260.25 348.941 260.037Q349.198 259.825 349.463 259.623Q349.728 259.422 350.001 259.231Q350.273 259.04 350.554 258.86Q350.834 258.681 351.122 258.513Q351.409 258.345 351.703 258.188Q351.997 258.032 352.297 257.888Q352.597 257.743 352.903 257.611Q353.209 257.479 353.519 257.36Q353.83 257.24 354.146 257.134Q354.461 257.027 354.78 256.933Q355.1 256.839 355.423 256.758Q355.746 256.677 356.072 256.609Q356.398 256.541 356.726 256.487Q357.055 256.432 357.385 256.391Q357.716 256.35 358.047 256.322Q358.379 256.294 358.712 256.28Q359.045 256.266 359.378 256.265Q359.711 256.264 360.043 256.277Q360.376 256.29 360.708 256.316Q361.04 256.342 361.371 256.382Q361.701 256.421 362.03 256.474Q362.359 256.527 362.685 256.593Q363.011 256.66 363.335 256.739Q363.658 256.818 363.978 256.911Q364.298 257.003 364.614 257.109Q364.93 257.214 365.241 257.332Q365.528 257.441 365.811 257.56Q366.094 257.68 366.372 257.81Q366.651 257.94 366.924 258.08Q367.197 258.221 367.465 258.371Q367.733 258.522 367.995 258.682Q368.257 258.842 368.513 259.012Q368.768 259.182 369.018 259.362Q369.267 259.541 369.509 259.73Q369.752 259.919 369.987 260.116Q370.222 260.314 370.45 260.52Q370.677 260.726 370.897 260.941Q371.117 261.155 371.329 261.378Q371.54 261.601 371.743 261.831Q371.946 262.062 372.141 262.299Q372.335 262.537 372.52 262.782Q372.706 263.027 372.882 263.279Q373.058 263.531 373.224 263.789Q373.391 264.047 373.548 264.311Q373.704 264.575 373.851 264.845Q373.998 265.115 374.135 265.39Q374.271 265.665 374.397 265.945Q374.523 266.225 374.639 266.51Q374.755 266.794 374.86 267.083Q374.965 267.372 375.059 267.664Q375.153 267.956 375.236 268.252Q375.319 268.548 375.391 268.847Q375.463 269.145 375.524 269.446Q375.584 269.747 375.634 270.051Q375.683 270.354 375.721 270.658Q375.759 270.963 375.786 271.269Q375.813 271.575 375.828 271.882Q375.843 272.189 375.847 272.496Q375.851 272.803 375.843 273.11Q375.835 273.417 375.816 273.724Q375.797 274.03 375.766 274.336Q375.735 274.642 375.693 274.946Q375.651 275.25 375.598 275.553Q375.544 275.855 375.48 276.155Q375.415 276.456 375.339 276.753Q375.263 277.051 375.176 277.346Q375.089 277.64 374.991 277.931Q374.893 278.223 374.785 278.51Q374.676 278.797 374.557 279.08Q374.437 279.363 374.307 279.642Q374.178 279.92 374.037 280.193Q373.897 280.466 373.747 280.734Q373.597 281.002 373.436 281.264Q373.276 281.526 373.106 281.782Q372.936 282.038 372.757 282.288Q372.578 282.537 372.389 282.78Q372.201 283.022 372.003 283.257Q371.806 283.493 371.6 283.72Q371.393 283.948 371.179 284.168Q370.964 284.388 370.742 284.6Q370.519 284.811 370.289 285.015Q370.059 285.218 369.821 285.412Q369.583 285.607 369.338 285.792Q369.094 285.978 368.842 286.154Q368.59 286.33 368.332 286.497Q368.074 286.663 367.81 286.82Q367.546 286.977 367.276 287.124Q367.007 287.271 366.732 287.408Q366.456 287.544 366.176 287.671Q365.896 287.797 365.612 287.913Z"/>
	<path fill="#F8D16A" transform="scale(0.195312 0.195312)" d="M365.241 257.332Q365.528 257.441 365.811 257.56Q366.094 257.68 366.372 257.81Q366.651 257.94 366.924 258.08Q367.197 258.221 367.465 258.371Q367.733 258.522 367.995 258.682Q368.257 258.842 368.513 259.012Q368.768 259.182 369.018 259.362Q369.267 259.541 369.509 259.73Q369.752 259.919 369.987 260.116Q370.222 260.314 370.45 260.52Q370.677 260.726 370.897 260.941Q371.117 261.155 371.329 261.378Q371.54 261.601 371.743 261.831Q371.946 262.062 372.141 262.299Q372.335 262.537 372.52 262.782Q372.706 263.027 372.882 263.279Q373.058 263.531 373.224 263.789Q373.391 264.047 373.548 264.311Q373.704 264.575 373.851 264.845Q373.998 265.115 374.135 265.39Q374.271 265.665 374.397 265.945Q374.523 266.225 374.639 266.51Q374.755 266.794 374.86 267.083Q374.965 267.372 375.059 267.664Q375.153 267.956 375.236 268.252Q375.319 268.548 375.391 268.847Q375.463 269.145 375.524 269.446Q375.584 269.747 375.634 270.051Q375.683 270.354 375.721 270.658Q375.759 270.963 375.786 271.269Q375.813 271.575 375.828 271.882Q375.843 272.189 375.847 272.496Q375.851 272.803 375.843 273.11Q375.835 273.417 375.816 273.724Q375.797 274.03 375.766 274.336Q375.735 274.642 375.693 274.946Q375.651 275.25 375.598 275.553Q375.544 275.855 375.48 276.155Q375.415 276.456 375.339 276.753Q375.263 277.051 375.176 277.346Q375.089 277.64 374.991 277.931Q374.893 278.223 374.785 278.51Q374.676 278.797 374.557 279.08Q374.437 279.363 374.307 279.642Q374.178 279.92 374.037 280.193Q373.897 280.466 373.747 280.734Q373.597 281.002 373.436 281.264Q373.276 281.526 373.106 281.782Q372.936 282.038 372.757 282.288Q372.578 282.537 372.389 282.78Q372.201 283.022 372.003 283.257Q371.806 283.493 371.6 283.72Q371.393 283.948 371.179 284.168Q370.964 284.388 370.742 284.6Q370.519 284.811 370.289 285.015Q370.059 285.218 369.821 285.412Q369.583 285.607 369.338 285.792Q369.094 285.978 368.842 286.154Q368.59 286.33 368.332 286.497Q368.074 286.663 367.81 286.82Q367.546 286.977 367.276 287.124Q367.007 287.271 366.732 287.408Q366.456 287.544 366.176 287.671Q365.896 287.797 365.612 287.913C354.201 279.882 354.254 265.381 365.241 257.332Z"/>
	<path fill="#5C86E4" transform="scale(0.195312 0.195312)" d="M163.772 354.862L185.278 354.847C189.006 354.832 193.064 354.465 196.742 354.916C202.082 355.57 203.892 361.156 200.116 364.791C197.752 367.067 188.656 366.071 185.276 366.056L163.153 366.063C157.044 366.076 148.72 368.431 146.642 360.909C148.313 352.384 156.944 354.811 163.772 354.862Z"/>
	<path fill="#5C86E4" transform="scale(0.195312 0.195312)" d="M332.649 354.862L356.722 354.851C360.864 354.852 365.405 354.523 369.509 355.092C374.444 355.777 375.884 361.385 372.428 364.654C370.061 366.894 363.94 366.078 360.875 366.056L337.114 366.044C332.941 366.059 328.326 366.485 324.199 365.923C319.884 365.336 316.076 360.732 319.892 356.871C322.766 353.963 328.836 354.862 332.649 354.862Z"/>
	<path fill="#79CEF7" transform="scale(0.195312 0.195312)" d="M395.536 116.267Q396.37 116.22 397.206 116.206Q398.042 116.192 398.878 116.212Q399.713 116.231 400.547 116.285Q401.382 116.338 402.213 116.425Q403.044 116.512 403.871 116.632Q404.699 116.752 405.52 116.905Q406.342 117.059 407.157 117.245Q407.971 117.431 408.778 117.65Q409.585 117.869 410.382 118.12Q411.179 118.371 411.966 118.654Q412.752 118.937 413.527 119.251Q414.301 119.566 415.063 119.911Q415.824 120.256 416.571 120.632Q417.317 121.007 418.048 121.412Q418.779 121.818 419.494 122.252Q420.208 122.686 420.904 123.149Q421.6 123.612 422.277 124.102Q422.954 124.592 423.611 125.109Q424.267 125.626 424.903 126.169Q425.538 126.713 426.151 127.281Q426.764 127.849 427.354 128.441Q427.944 129.034 428.509 129.649Q429.074 130.265 429.615 130.903Q430.155 131.54 430.669 132.199Q431.183 132.858 431.67 133.538Q432.158 134.217 432.617 134.915Q433.077 135.613 433.508 136.329Q433.939 137.045 434.341 137.778Q434.743 138.511 435.115 139.259Q435.487 140.008 435.829 140.771Q436.171 141.533 436.482 142.309Q436.793 143.085 437.072 143.873Q437.351 144.661 437.599 145.459Q437.846 146.257 438.062 147.065Q438.277 147.873 438.46 148.688Q438.642 149.504 438.792 150.326Q438.942 151.149 439.058 151.977Q439.175 152.804 439.258 153.636Q439.341 154.468 439.39 155.302Q439.44 156.136 439.456 156.972Q439.472 157.808 439.455 158.643Q439.437 159.479 439.386 160.313Q439.335 161.148 439.25 161.979Q439.165 162.811 439.047 163.638Q438.929 164.466 438.778 165.288Q438.627 166.11 438.443 166.925Q438.259 167.741 438.042 168.548Q437.825 169.355 437.576 170.153Q437.327 170.951 437.047 171.738Q436.766 172.526 436.453 173.301Q436.141 174.076 435.798 174.838Q435.455 175.6 435.081 176.348Q434.708 177.096 434.304 177.828Q433.901 178.56 433.469 179.275Q433.036 179.991 432.575 180.688Q432.114 181.385 431.626 182.064Q431.137 182.742 430.622 183.4Q430.107 184.058 429.565 184.695Q429.024 185.332 428.457 185.946Q427.891 186.561 427.3 187.152Q426.709 187.743 426.095 188.31Q425.481 188.877 424.845 189.419Q424.208 189.961 423.551 190.477Q422.893 190.993 422.215 191.482Q421.564 191.952 420.894 192.396Q420.225 192.841 419.539 193.259Q418.854 193.677 418.152 194.069Q417.451 194.46 416.735 194.824Q416.019 195.188 415.289 195.524Q414.56 195.86 413.818 196.168Q413.076 196.476 412.322 196.755Q411.569 197.033 410.805 197.283Q410.042 197.532 409.269 197.752Q408.496 197.972 407.716 198.162Q406.935 198.351 406.148 198.511Q405.361 198.67 404.568 198.799Q403.775 198.928 402.978 199.026Q402.181 199.125 401.38 199.192Q400.58 199.259 399.777 199.296Q398.975 199.332 398.172 199.337Q397.368 199.343 396.565 199.317Q395.763 199.291 394.961 199.235Q394.16 199.178 393.362 199.09Q392.563 199.003 391.769 198.884Q390.974 198.766 390.185 198.617Q389.395 198.468 388.612 198.289Q387.829 198.109 387.054 197.9Q386.279 197.69 385.512 197.451Q384.745 197.212 383.988 196.943Q383.231 196.674 382.485 196.376Q381.739 196.078 381.005 195.752Q380.271 195.426 379.55 195.071Q378.829 194.717 378.123 194.335Q377.416 193.952 376.725 193.543Q376.034 193.134 375.359 192.699Q374.684 192.263 374.026 191.802Q373.368 191.341 372.729 190.854Q372.09 190.368 371.47 189.857Q370.85 189.347 370.25 188.813Q369.65 188.278 369.071 187.721Q368.492 187.164 367.935 186.585Q367.379 186.006 366.844 185.406Q366.31 184.806 365.8 184.186Q365.289 183.566 364.803 182.926Q364.317 182.287 363.856 181.629Q363.395 180.971 362.96 180.296Q362.524 179.621 362.115 178.93Q361.706 178.238 361.325 177.532Q360.943 176.825 360.588 176.104Q360.234 175.383 359.908 174.649Q359.582 173.915 359.284 173.169Q358.987 172.423 358.718 171.666Q358.45 170.909 358.21 170.142Q357.971 169.375 357.762 168.599Q357.553 167.824 357.374 167.041Q357.194 166.258 357.046 165.468Q356.897 164.679 356.779 163.884Q356.661 163.09 356.573 162.291Q356.486 161.493 356.429 160.691Q356.373 159.89 356.347 159.087Q356.322 158.284 356.327 157.481Q356.333 156.678 356.37 155.875Q356.406 155.073 356.474 154.273Q356.541 153.472 356.64 152.675Q356.738 151.878 356.867 151.085Q356.997 150.292 357.156 149.505Q357.316 148.718 357.506 147.937Q357.696 147.157 357.916 146.384Q358.136 145.611 358.386 144.848Q358.635 144.084 358.914 143.331Q359.193 142.578 359.501 141.836Q359.809 141.094 360.145 140.365Q360.482 139.635 360.846 138.919Q361.21 138.203 361.602 137.502Q361.993 136.801 362.412 136.115Q362.83 135.429 363.275 134.76Q363.72 134.091 364.19 133.44Q364.66 132.788 365.155 132.156Q365.65 131.523 366.169 130.91Q366.688 130.297 367.23 129.704Q367.772 129.112 368.337 128.541Q368.902 127.969 369.489 127.421Q370.075 126.872 370.682 126.346Q371.289 125.82 371.917 125.318Q372.544 124.816 373.19 124.338Q373.836 123.861 374.5 123.409Q375.164 122.957 375.844 122.531Q376.525 122.105 377.222 121.705Q377.919 121.306 378.631 120.933Q379.343 120.561 380.068 120.217Q380.794 119.872 381.533 119.556Q382.271 119.24 383.021 118.952Q383.771 118.665 384.532 118.407Q385.292 118.148 386.062 117.92Q386.833 117.691 387.611 117.492Q388.389 117.294 389.175 117.125Q389.96 116.957 390.751 116.818Q391.543 116.68 392.339 116.573Q393.135 116.466 393.934 116.389Q394.734 116.313 395.536 116.267Z"/>
	<path fill="#61CCD9" transform="scale(0.195312 0.195312)" d="M422.215 191.482Q421.564 191.952 420.894 192.396Q420.225 192.841 419.539 193.259Q418.854 193.677 418.152 194.069Q417.451 194.46 416.735 194.824Q416.019 195.188 415.289 195.524Q414.56 195.86 413.818 196.168Q413.076 196.476 412.322 196.755Q411.569 197.033 410.805 197.283Q410.042 197.532 409.269 197.752Q408.496 197.972 407.716 198.162Q406.935 198.351 406.148 198.511Q405.361 198.67 404.568 198.799Q403.775 198.928 402.978 199.026Q402.181 199.125 401.38 199.192Q400.58 199.259 399.777 199.296Q398.975 199.332 398.172 199.337Q397.368 199.343 396.565 199.317Q395.763 199.291 394.961 199.235Q394.16 199.178 393.362 199.09Q392.563 199.003 391.769 198.884Q390.974 198.766 390.185 198.617Q389.395 198.468 388.612 198.289Q387.829 198.109 387.054 197.9Q386.279 197.69 385.512 197.451Q384.745 197.212 383.988 196.943Q383.231 196.674 382.485 196.376Q381.739 196.078 381.005 195.752Q380.271 195.426 379.55 195.071Q378.829 194.717 378.123 194.335Q377.416 193.952 376.725 193.543Q376.034 193.134 375.359 192.699Q374.684 192.263 374.026 191.802Q373.368 191.341 372.729 190.854Q372.09 190.368 371.47 189.857Q370.85 189.347 370.25 188.813Q369.65 188.278 369.071 187.721Q368.492 187.164 367.935 186.585Q367.379 186.006 366.844 185.406Q366.31 184.806 365.8 184.186Q365.289 183.566 364.803 182.926Q364.317 182.287 363.856 181.629Q363.395 180.971 362.96 180.296Q362.524 179.621 362.115 178.93Q361.706 178.238 361.325 177.532Q360.943 176.825 360.588 176.104Q360.234 175.383 359.908 174.649Q359.582 173.915 359.284 173.169Q358.987 172.423 358.718 171.666Q358.45 170.909 358.21 170.142Q357.971 169.375 357.762 168.599Q357.553 167.824 357.374 167.041Q357.194 166.258 357.046 165.468Q356.897 164.679 356.779 163.884Q356.661 163.09 356.573 162.291Q356.486 161.493 356.429 160.691Q356.373 159.89 356.347 159.087Q356.322 158.284 356.327 157.481Q356.333 156.678 356.37 155.875Q356.406 155.073 356.474 154.273Q356.541 153.472 356.64 152.675Q356.738 151.878 356.867 151.085Q356.997 150.292 357.156 149.505Q357.316 148.718 357.506 147.937Q357.696 147.157 357.916 146.384Q358.136 145.611 358.386 144.848Q358.635 144.084 358.914 143.331Q359.193 142.578 359.501 141.836Q359.809 141.094 360.145 140.365Q360.482 139.635 360.846 138.919Q361.21 138.203 361.602 137.502Q361.993 136.801 362.412 136.115Q362.83 135.429 363.275 134.76Q363.72 134.091 364.19 133.44Q364.66 132.788 365.155 132.156Q365.65 131.523 366.169 130.91Q366.688 130.297 367.23 129.704Q367.772 129.112 368.337 128.541Q368.902 127.969 369.489 127.421Q370.075 126.872 370.682 126.346Q371.289 125.82 371.917 125.318Q372.544 124.816 373.19 124.338Q373.836 123.861 374.5 123.409Q375.164 122.957 375.844 122.531Q376.525 122.105 377.222 121.705Q377.919 121.306 378.631 120.933Q379.343 120.561 380.068 120.217Q380.794 119.872 381.533 119.556Q382.271 119.24 383.021 118.952Q383.771 118.665 384.532 118.407Q385.292 118.148 386.062 117.92Q386.833 117.691 387.611 117.492Q388.389 117.294 389.175 117.125Q389.96 116.957 390.751 116.818Q391.543 116.68 392.339 116.573Q393.135 116.466 393.934 116.389Q394.734 116.313 395.536 116.267C396.779 116.268 398.964 116.547 400.094 116.229C397.007 117.887 393.794 119.471 390.865 121.395C353.931 145.657 371.371 197.83 408.838 193.686C412.338 193.299 419.303 190.043 422.215 191.482Z"/>
	<path fill="#F1AE48" transform="scale(0.195312 0.195312)" d="M396.735 137.123Q397.082 137.102 397.431 137.094Q397.779 137.086 398.127 137.09Q398.475 137.094 398.822 137.11Q399.17 137.126 399.517 137.154Q399.864 137.182 400.21 137.223Q400.556 137.263 400.9 137.316Q401.244 137.369 401.586 137.433Q401.928 137.498 402.267 137.575Q402.607 137.651 402.944 137.74Q403.28 137.828 403.614 137.929Q403.947 138.029 404.277 138.141Q404.606 138.253 404.932 138.376Q405.257 138.5 405.578 138.635Q405.899 138.769 406.215 138.915Q406.531 139.061 406.842 139.218Q407.152 139.375 407.457 139.543Q407.762 139.711 408.061 139.889Q408.36 140.068 408.653 140.257Q408.945 140.446 409.231 140.644Q409.516 140.843 409.795 141.052Q410.073 141.261 410.344 141.48Q410.615 141.698 410.878 141.926Q411.142 142.154 411.396 142.391Q411.651 142.628 411.898 142.874Q412.144 143.12 412.382 143.374Q412.62 143.629 412.848 143.891Q413.077 144.154 413.296 144.424Q413.515 144.694 413.725 144.972Q413.935 145.25 414.134 145.535Q414.334 145.821 414.523 146.113Q414.713 146.405 414.892 146.703Q415.071 147.001 415.24 147.306Q415.409 147.611 415.566 147.921Q415.724 148.231 415.871 148.547Q416.018 148.862 416.153 149.183Q416.289 149.504 416.413 149.829Q416.538 150.154 416.65 150.483Q416.763 150.813 416.864 151.146Q416.966 151.479 417.055 151.815Q417.144 152.152 417.222 152.491Q417.299 152.83 417.365 153.172Q417.43 153.514 417.484 153.858Q417.537 154.202 417.579 154.548Q417.62 154.893 417.649 155.24Q417.679 155.587 417.696 155.935Q417.713 156.282 417.717 156.631Q417.722 156.979 417.715 157.327Q417.707 157.675 417.688 158.022Q417.668 158.37 417.636 158.716Q417.604 159.063 417.56 159.408Q417.516 159.754 417.46 160.097Q417.404 160.441 417.336 160.782Q417.268 161.124 417.188 161.462Q417.108 161.801 417.016 162.137Q416.924 162.473 416.82 162.805Q416.716 163.137 416.601 163.466Q416.486 163.794 416.359 164.118Q416.232 164.443 416.094 164.762Q415.956 165.082 415.807 165.396Q415.658 165.711 415.497 166.02Q415.337 166.329 415.166 166.632Q414.995 166.935 414.814 167.232Q414.632 167.529 414.441 167.82Q414.249 168.11 414.047 168.394Q413.845 168.678 413.633 168.954Q413.422 169.23 413.2 169.499Q412.979 169.768 412.748 170.028Q412.518 170.289 412.278 170.542Q412.039 170.794 411.79 171.038Q411.542 171.282 411.285 171.517Q411.028 171.752 410.763 171.978Q410.499 172.204 410.226 172.42Q409.953 172.637 409.673 172.843Q409.393 173.05 409.106 173.247Q408.819 173.444 408.525 173.63Q408.231 173.817 407.931 173.993Q407.631 174.169 407.324 174.335Q407.018 174.5 406.706 174.655Q406.394 174.809 406.077 174.953Q405.76 175.096 405.438 175.229Q405.116 175.361 404.79 175.482Q404.463 175.603 404.133 175.712Q403.802 175.822 403.468 175.919Q403.134 176.017 402.797 176.103Q402.459 176.189 402.119 176.263Q401.779 176.337 401.437 176.399Q401.094 176.461 400.75 176.511Q400.405 176.561 400.059 176.599Q399.713 176.637 399.366 176.662Q399.019 176.688 398.671 176.701Q398.323 176.715 397.975 176.716Q397.627 176.717 397.279 176.706Q396.931 176.695 396.584 176.672Q396.236 176.649 395.89 176.613Q395.544 176.578 395.199 176.53Q394.854 176.483 394.511 176.423Q394.067 176.346 393.627 176.249Q393.187 176.151 392.752 176.034Q392.317 175.917 391.888 175.78Q391.458 175.643 391.036 175.487Q390.613 175.331 390.198 175.155Q389.783 174.98 389.376 174.786Q388.97 174.592 388.572 174.38Q388.175 174.168 387.787 173.938Q387.4 173.708 387.023 173.46Q386.647 173.213 386.282 172.948Q385.917 172.684 385.564 172.403Q385.212 172.123 384.872 171.826Q384.533 171.53 384.208 171.219Q383.882 170.907 383.571 170.581Q383.26 170.255 382.964 169.915Q382.668 169.576 382.388 169.223Q382.108 168.87 381.844 168.505Q381.58 168.139 381.333 167.762Q381.086 167.386 380.856 166.998Q380.627 166.61 380.415 166.212Q380.203 165.815 380.01 165.408Q379.816 165.001 379.642 164.586Q379.467 164.17 379.311 163.747Q379.156 163.325 379.019 162.895Q378.883 162.466 378.767 162.03Q378.65 161.595 378.553 161.155Q378.457 160.715 378.38 160.271Q378.303 159.827 378.247 159.38Q378.191 158.933 378.155 158.484Q378.119 158.035 378.103 157.584Q378.088 157.134 378.093 156.683Q378.098 156.233 378.123 155.783Q378.148 155.333 378.194 154.885Q378.24 154.437 378.306 153.991Q378.373 153.545 378.459 153.103Q378.545 152.661 378.652 152.223Q378.758 151.785 378.884 151.353Q379.011 150.92 379.156 150.494Q379.302 150.067 379.467 149.648Q379.632 149.229 379.816 148.817Q380 148.406 380.202 148.003Q380.405 147.601 380.625 147.208Q380.845 146.815 381.084 146.432Q381.322 146.05 381.577 145.678Q381.832 145.307 382.104 144.948Q382.376 144.588 382.664 144.242Q382.952 143.895 383.255 143.562Q383.558 143.229 383.877 142.91Q384.195 142.591 384.527 142.287Q384.86 141.982 385.205 141.694Q385.551 141.405 385.91 141.132Q386.269 140.859 386.639 140.603Q387.01 140.347 387.392 140.108Q387.774 139.869 388.166 139.647Q388.559 139.426 388.961 139.222Q389.363 139.019 389.774 138.834Q390.185 138.649 390.603 138.483Q391.022 138.317 391.448 138.17Q391.874 138.023 392.307 137.896Q392.739 137.769 393.176 137.661Q393.614 137.553 394.056 137.466Q394.498 137.378 394.943 137.311Q395.389 137.244 395.837 137.197Q396.285 137.15 396.735 137.123Z"/>
	<path fill="#F8D16A" transform="scale(0.195312 0.195312)" d="M396.735 137.123Q397.082 137.102 397.431 137.094Q397.779 137.086 398.127 137.09Q398.475 137.094 398.822 137.11Q399.17 137.126 399.517 137.154Q399.864 137.182 400.21 137.223Q400.556 137.263 400.9 137.316Q401.244 137.369 401.586 137.433Q401.928 137.498 402.267 137.575Q402.607 137.651 402.944 137.74Q403.28 137.828 403.614 137.929Q403.947 138.029 404.277 138.141Q404.606 138.253 404.932 138.376Q405.257 138.5 405.578 138.635Q405.899 138.769 406.215 138.915Q406.531 139.061 406.842 139.218Q407.152 139.375 407.457 139.543Q407.762 139.711 408.061 139.889Q408.36 140.068 408.653 140.257Q408.945 140.446 409.231 140.644Q409.516 140.843 409.795 141.052Q410.073 141.261 410.344 141.48Q410.615 141.698 410.878 141.926Q411.142 142.154 411.396 142.391Q411.651 142.628 411.898 142.874Q412.144 143.12 412.382 143.374Q412.62 143.629 412.848 143.891Q413.077 144.154 413.296 144.424Q413.515 144.694 413.725 144.972Q413.935 145.25 414.134 145.535Q414.334 145.821 414.523 146.113Q414.713 146.405 414.892 146.703Q415.071 147.001 415.24 147.306Q415.409 147.611 415.566 147.921Q415.724 148.231 415.871 148.547Q416.018 148.862 416.153 149.183Q416.289 149.504 416.413 149.829Q416.538 150.154 416.65 150.483Q416.763 150.813 416.864 151.146Q416.966 151.479 417.055 151.815Q417.144 152.152 417.222 152.491Q417.299 152.83 417.365 153.172Q417.43 153.514 417.484 153.858Q417.537 154.202 417.579 154.548Q417.62 154.893 417.649 155.24Q417.679 155.587 417.696 155.935Q417.713 156.282 417.717 156.631Q417.722 156.979 417.715 157.327Q417.707 157.675 417.688 158.022Q417.668 158.37 417.636 158.716Q417.604 159.063 417.56 159.408Q417.516 159.754 417.46 160.097Q417.404 160.441 417.336 160.782Q417.268 161.124 417.188 161.462Q417.108 161.801 417.016 162.137Q416.924 162.473 416.82 162.805Q416.716 163.137 416.601 163.466Q416.486 163.794 416.359 164.118Q416.232 164.443 416.094 164.762Q415.956 165.082 415.807 165.396Q415.658 165.711 415.497 166.02Q415.337 166.329 415.166 166.632Q414.995 166.935 414.814 167.232Q414.632 167.529 414.441 167.82Q414.249 168.11 414.047 168.394Q413.845 168.678 413.633 168.954Q413.422 169.23 413.2 169.499Q412.979 169.768 412.748 170.028Q412.518 170.289 412.278 170.542Q412.039 170.794 411.79 171.038Q411.542 171.282 411.285 171.517Q411.028 171.752 410.763 171.978Q410.499 172.204 410.226 172.42Q409.953 172.637 409.673 172.843Q409.393 173.05 409.106 173.247Q408.819 173.444 408.525 173.63Q408.231 173.817 407.931 173.993Q407.631 174.169 407.324 174.335Q407.018 174.5 406.706 174.655Q406.394 174.809 406.077 174.953Q405.76 175.096 405.438 175.229Q405.116 175.361 404.79 175.482Q404.463 175.603 404.133 175.712Q403.802 175.822 403.468 175.919Q403.134 176.017 402.797 176.103Q402.459 176.189 402.119 176.263Q401.779 176.337 401.437 176.399Q401.094 176.461 400.75 176.511Q400.405 176.561 400.059 176.599Q399.713 176.637 399.366 176.662Q399.019 176.688 398.671 176.701Q398.323 176.715 397.975 176.716Q397.627 176.717 397.279 176.706Q396.931 176.695 396.584 176.672Q396.236 176.649 395.89 176.613Q395.544 176.578 395.199 176.53Q394.854 176.483 394.511 176.423C395.55 175.893 399.223 165.809 400.094 164.067C409.482 160.836 407.478 151.484 397.993 148.838C397.255 145.314 398.73 140.919 397.59 137.468L396.735 137.123Z"/>
	<path fill="#FAF48C" transform="scale(0.195312 0.195312)" d="M397.993 148.838C407.478 151.484 409.482 160.836 400.094 164.067C391.525 164.802 388.594 154.309 397.993 148.838Z"/>
	<path fill="#79CEF7" transform="scale(0.195312 0.195312)" d="M111.292 116.138Q112.224 116.082 113.158 116.068Q114.092 116.054 115.025 116.082Q115.959 116.111 116.89 116.181Q117.821 116.251 118.748 116.363Q119.675 116.476 120.597 116.63Q121.518 116.784 122.431 116.979Q123.344 117.174 124.248 117.411Q125.151 117.647 126.043 117.924Q126.935 118.201 127.814 118.517Q128.692 118.834 129.555 119.19Q130.419 119.546 131.265 119.941Q132.112 120.336 132.939 120.768Q133.767 121.201 134.574 121.67Q135.382 122.139 136.167 122.645Q136.953 123.15 137.714 123.69Q138.476 124.23 139.213 124.804Q139.95 125.378 140.66 125.985Q141.37 126.592 142.052 127.23Q142.733 127.868 143.386 128.536Q144.038 129.204 144.66 129.901Q145.282 130.598 145.871 131.322Q146.461 132.047 147.017 132.797Q147.574 133.547 148.095 134.321Q148.617 135.096 149.104 135.893Q149.59 136.69 150.04 137.508Q150.49 138.327 150.903 139.164Q151.316 140.002 151.69 140.858Q152.064 141.713 152.4 142.585Q152.735 143.456 153.031 144.342Q153.327 145.228 153.582 146.126Q153.838 147.025 154.053 147.934Q154.267 148.842 154.441 149.76Q154.615 150.678 154.747 151.602Q154.878 152.527 154.969 153.456Q155.059 154.386 155.107 155.318Q155.155 156.251 155.161 157.185Q155.167 158.119 155.131 159.052Q155.095 159.985 155.017 160.916Q154.938 161.846 154.818 162.772Q154.698 163.699 154.537 164.618Q154.375 165.538 154.172 166.45Q153.969 167.361 153.725 168.263Q153.481 169.164 153.196 170.054Q152.912 170.943 152.588 171.819Q152.264 172.695 151.9 173.555Q151.537 174.415 151.135 175.258Q150.733 176.101 150.294 176.925Q149.854 177.749 149.378 178.553Q148.902 179.356 148.39 180.137Q147.878 180.918 147.332 181.676Q146.785 182.433 146.205 183.165Q145.625 183.896 145.012 184.601Q144.399 185.306 143.756 185.983Q143.112 186.659 142.438 187.306Q141.764 187.953 141.062 188.568Q140.36 189.184 139.631 189.768Q138.902 190.351 138.147 190.901Q137.392 191.451 136.613 191.966Q135.835 192.482 135.033 192.961Q134.232 193.441 133.41 193.884Q132.588 194.327 131.747 194.733Q130.905 195.138 130.047 195.505Q129.188 195.873 128.314 196.201Q127.439 196.529 126.551 196.817Q125.855 197.043 125.151 197.244Q124.447 197.445 123.737 197.622Q123.026 197.798 122.31 197.949Q121.594 198.1 120.873 198.225Q120.151 198.351 119.426 198.451Q118.701 198.551 117.973 198.625Q117.245 198.699 116.514 198.748Q115.784 198.796 115.052 198.819Q114.321 198.841 113.589 198.838Q112.857 198.835 112.125 198.806Q111.394 198.776 110.664 198.721Q109.934 198.666 109.207 198.586Q108.479 198.505 107.755 198.398Q107.031 198.292 106.311 198.16Q105.591 198.028 104.876 197.871Q104.161 197.713 103.452 197.531Q102.743 197.348 102.041 197.141Q101.339 196.933 100.645 196.701Q99.9511 196.469 99.2655 196.212Q98.58 195.955 97.904 195.675Q97.2279 195.394 96.5622 195.09Q95.8966 194.785 95.2421 194.457Q94.5876 194.13 93.9451 193.779Q93.3026 193.428 92.6729 193.055Q92.0432 192.682 91.4271 192.287Q90.811 191.891 90.2092 191.475Q89.6075 191.058 89.0208 190.62Q88.4342 190.182 87.8634 189.724Q87.2926 189.266 86.7384 188.787Q86.1842 188.309 85.6472 187.812Q85.1102 187.314 84.5912 186.798Q84.0722 186.282 83.5717 185.748Q83.0712 185.214 82.59 184.662Q82.1087 184.111 81.6472 183.543Q81.1858 182.974 80.7447 182.39Q80.3036 181.806 79.8835 181.207Q79.4633 180.607 79.0647 179.993Q78.666 179.379 78.2892 178.752Q77.9125 178.124 77.5582 177.484Q77.2039 176.843 76.8725 176.19Q76.5411 175.538 76.2329 174.874Q75.9248 174.21 75.6403 173.535Q75.3558 172.861 75.0954 172.177Q74.835 171.493 74.5989 170.8Q74.3628 170.107 74.1513 169.406Q73.9399 168.705 73.7534 167.998Q73.5668 167.29 73.4055 166.576Q73.2441 165.862 73.1081 165.143Q72.972 164.423 72.8615 163.7Q72.751 162.976 72.6661 162.249Q72.5813 161.522 72.5222 160.792Q72.4631 160.063 72.4298 159.332Q72.3966 158.6 72.3892 157.868Q72.3818 157.136 72.4003 156.405Q72.4188 155.673 72.4632 154.942Q72.5076 154.212 72.5778 153.483Q72.6479 152.754 72.7439 152.029Q72.8398 151.303 72.9613 150.581Q73.0828 149.859 73.2297 149.142Q73.3767 148.425 73.5489 147.714Q73.7211 147.002 73.9184 146.297Q74.1156 145.592 74.3377 144.895Q74.5598 144.197 74.8064 143.508Q75.053 142.819 75.3238 142.139Q75.5946 141.459 75.8893 140.789Q76.184 140.119 76.5022 139.46Q76.8204 138.8 77.1617 138.153Q77.503 137.505 77.867 136.87Q78.231 136.235 78.6172 135.613Q79.0034 134.992 79.4114 134.384Q79.8194 133.776 80.2486 133.183Q80.6778 132.59 81.1277 132.013Q81.5776 131.435 82.0477 130.874Q82.5177 130.313 83.0073 129.769Q83.4969 129.225 84.0054 128.698Q84.5139 128.172 85.0408 127.664Q85.5676 127.155 86.1121 126.666Q86.6565 126.177 87.218 125.707Q87.7794 125.238 88.3571 124.788Q88.9348 124.338 89.528 123.91Q90.1212 123.481 90.7292 123.073Q91.3372 122.666 91.9593 122.28Q92.5813 121.894 93.2166 121.53Q93.8519 121.167 94.4997 120.826Q95.1475 120.485 95.8069 120.167Q96.4663 119.849 97.1365 119.555Q97.8067 119.261 98.487 118.99Q99.1672 118.72 99.8566 118.474Q100.546 118.228 101.244 118.006Q101.941 117.785 102.646 117.588Q103.351 117.391 104.063 117.219Q104.774 117.047 105.492 116.901Q106.209 116.754 106.931 116.633Q107.653 116.512 108.378 116.417Q109.104 116.321 109.833 116.252Q110.561 116.182 111.292 116.138Z"/>
	<path fill="#61CCD9" transform="scale(0.195312 0.195312)" d="M126.551 196.817Q125.855 197.043 125.151 197.244Q124.447 197.445 123.737 197.622Q123.026 197.798 122.31 197.949Q121.594 198.1 120.873 198.225Q120.151 198.351 119.426 198.451Q118.701 198.551 117.973 198.625Q117.245 198.699 116.514 198.748Q115.784 198.796 115.052 198.819Q114.321 198.841 113.589 198.838Q112.857 198.835 112.125 198.806Q111.394 198.776 110.664 198.721Q109.934 198.666 109.207 198.586Q108.479 198.505 107.755 198.398Q107.031 198.292 106.311 198.16Q105.591 198.028 104.876 197.871Q104.161 197.713 103.452 197.531Q102.743 197.348 102.041 197.141Q101.339 196.933 100.645 196.701Q99.9511 196.469 99.2655 196.212Q98.58 195.955 97.904 195.675Q97.2279 195.394 96.5622 195.09Q95.8966 194.785 95.2421 194.457Q94.5876 194.13 93.9451 193.779Q93.3026 193.428 92.6729 193.055Q92.0432 192.682 91.4271 192.287Q90.811 191.891 90.2092 191.475Q89.6075 191.058 89.0208 190.62Q88.4342 190.182 87.8634 189.724Q87.2926 189.266 86.7384 188.787Q86.1842 188.309 85.6472 187.812Q85.1102 187.314 84.5912 186.798Q84.0722 186.282 83.5717 185.748Q83.0712 185.214 82.59 184.662Q82.1087 184.111 81.6472 183.543Q81.1858 182.974 80.7447 182.39Q80.3036 181.806 79.8835 181.207Q79.4633 180.607 79.0647 179.993Q78.666 179.379 78.2892 178.752Q77.9125 178.124 77.5582 177.484Q77.2039 176.843 76.8725 176.19Q76.5411 175.538 76.2329 174.874Q75.9248 174.21 75.6403 173.535Q75.3558 172.861 75.0954 172.177Q74.835 171.493 74.5989 170.8Q74.3628 170.107 74.1513 169.406Q73.9399 168.705 73.7534 167.998Q73.5668 167.29 73.4055 166.576Q73.2441 165.862 73.1081 165.143Q72.972 164.423 72.8615 163.7Q72.751 162.976 72.6661 162.249Q72.5813 161.522 72.5222 160.792Q72.4631 160.063 72.4298 159.332Q72.3966 158.6 72.3892 157.868Q72.3818 157.136 72.4003 156.405Q72.4188 155.673 72.4632 154.942Q72.5076 154.212 72.5778 153.483Q72.6479 152.754 72.7439 152.029Q72.8398 151.303 72.9613 150.581Q73.0828 149.859 73.2297 149.142Q73.3767 148.425 73.5489 147.714Q73.7211 147.002 73.9184 146.297Q74.1156 145.592 74.3377 144.895Q74.5598 144.197 74.8064 143.508Q75.053 142.819 75.3238 142.139Q75.5946 141.459 75.8893 140.789Q76.184 140.119 76.5022 139.46Q76.8204 138.8 77.1617 138.153Q77.503 137.505 77.867 136.87Q78.231 136.235 78.6172 135.613Q79.0034 134.992 79.4114 134.384Q79.8194 133.776 80.2486 133.183Q80.6778 132.59 81.1277 132.013Q81.5776 131.435 82.0477 130.874Q82.5177 130.313 83.0073 129.769Q83.4969 129.225 84.0054 128.698Q84.5139 128.172 85.0408 127.664Q85.5676 127.155 86.1121 126.666Q86.6565 126.177 87.218 125.707Q87.7794 125.238 88.3571 124.788Q88.9348 124.338 89.528 123.91Q90.1212 123.481 90.7292 123.073Q91.3372 122.666 91.9593 122.28Q92.5813 121.894 93.2166 121.53Q93.8519 121.167 94.4997 120.826Q95.1475 120.485 95.8069 120.167Q96.4663 119.849 97.1365 119.555Q97.8067 119.261 98.487 118.99Q99.1672 118.72 99.8566 118.474Q100.546 118.228 101.244 118.006Q101.941 117.785 102.646 117.588Q103.351 117.391 104.063 117.219Q104.774 117.047 105.492 116.901Q106.209 116.754 106.931 116.633Q107.653 116.512 108.378 116.417Q109.104 116.321 109.833 116.252Q110.561 116.182 111.292 116.138L111.548 116.371C111.007 117.169 110.246 117.336 109.375 117.73C77.8443 131.993 76.0916 188.404 116.423 194.477C119.635 194.961 125.582 194.014 126.551 196.817Z"/>
	<defs>
		<linearGradient id="gradient_0" gradientUnits="userSpaceOnUse" x1="94.409798" y1="157.11636" x2="132.74681" y2="155.66556">
			<stop offset="0" stop-color="#E69C4E"/>
			<stop offset="1" stop-color="#F7C568"/>
		</linearGradient>
	</defs>
	<path fill="url(#gradient_0)" transform="scale(0.195312 0.195312)" d="M111.871 136.856Q112.352 136.813 112.835 136.793Q113.318 136.774 113.802 136.778Q114.285 136.782 114.768 136.81Q115.25 136.838 115.731 136.889Q116.211 136.941 116.689 137.015Q117.167 137.09 117.64 137.188Q118.113 137.286 118.581 137.407Q119.049 137.528 119.511 137.672Q119.972 137.816 120.426 137.982Q120.88 138.148 121.325 138.336Q121.77 138.525 122.206 138.734Q122.641 138.944 123.066 139.175Q123.491 139.405 123.904 139.657Q124.317 139.908 124.717 140.179Q125.117 140.45 125.504 140.74Q125.89 141.031 126.262 141.34Q126.634 141.649 126.99 141.975Q127.346 142.302 127.686 142.646Q128.026 142.989 128.348 143.349Q128.671 143.709 128.976 144.084Q129.28 144.46 129.566 144.849Q129.852 145.239 130.119 145.642Q130.386 146.046 130.632 146.461Q130.879 146.877 131.105 147.304Q131.33 147.732 131.535 148.17Q131.74 148.607 131.923 149.055Q132.106 149.502 132.267 149.958Q132.428 150.414 132.567 150.877Q132.705 151.34 132.821 151.809Q132.937 152.278 133.03 152.753Q133.122 153.227 133.192 153.705Q133.261 154.184 133.307 154.665Q133.353 155.146 133.375 155.629Q133.398 156.112 133.396 156.595Q133.395 157.079 133.37 157.561Q133.345 158.044 133.297 158.525Q133.248 159.006 133.176 159.484Q133.104 159.962 133.009 160.436Q132.914 160.91 132.796 161.378Q132.677 161.847 132.536 162.309Q132.395 162.772 132.232 163.227Q132.068 163.682 131.883 164.128Q131.697 164.574 131.49 165.011Q131.283 165.448 131.055 165.874Q130.827 166.3 130.578 166.714Q130.329 167.129 130.061 167.531Q129.792 167.932 129.504 168.321Q129.216 168.709 128.909 169.082Q128.603 169.456 128.278 169.814Q127.953 170.172 127.612 170.514Q127.27 170.856 126.912 171.181Q126.554 171.506 126.181 171.813Q125.807 172.12 125.419 172.408Q125.031 172.696 124.63 172.965Q124.228 173.234 123.814 173.483Q123.399 173.732 122.973 173.961Q122.547 174.189 122.111 174.397Q121.674 174.604 121.228 174.79Q120.782 174.975 120.327 175.139Q119.872 175.303 119.41 175.444Q118.948 175.586 118.479 175.704Q118.01 175.823 117.537 175.918Q117.063 176.014 116.585 176.086Q116.107 176.158 115.626 176.207Q115.141 176.256 114.655 176.281Q114.169 176.307 113.682 176.308Q113.195 176.309 112.708 176.286Q112.221 176.264 111.737 176.217Q111.252 176.17 110.77 176.1Q110.288 176.029 109.81 175.935Q109.332 175.841 108.86 175.723Q108.387 175.606 107.921 175.465Q107.454 175.324 106.996 175.161Q106.537 174.997 106.087 174.811Q105.636 174.626 105.196 174.418Q104.755 174.21 104.326 173.981Q103.896 173.751 103.478 173.501Q103.06 173.251 102.655 172.98Q102.25 172.71 101.859 172.42Q101.468 172.13 101.091 171.821Q100.715 171.512 100.354 171.185Q99.993 170.857 99.6488 170.513Q99.3045 170.168 98.9777 169.807Q98.6508 169.446 98.3421 169.069Q98.0334 168.693 97.7437 168.301Q97.4539 167.91 97.1838 167.504Q96.9137 167.099 96.6639 166.681Q96.414 166.263 96.1851 165.833Q95.9562 165.403 95.7487 164.962Q95.5412 164.522 95.3557 164.071Q95.1702 163.621 95.0071 163.162Q94.844 162.703 94.7037 162.237Q94.5634 161.77 94.4462 161.298Q94.329 160.825 94.2353 160.347Q94.1415 159.869 94.0714 159.387Q94.0014 158.905 93.9551 158.42Q93.9088 157.935 93.8865 157.449Q93.8642 156.962 93.8659 156.475Q93.8675 155.988 93.8932 155.502Q93.9188 155.015 93.9684 154.531Q94.018 154.046 94.0914 153.565Q94.1648 153.083 94.2618 152.606Q94.3588 152.129 94.4792 151.657Q94.5996 151.185 94.7431 150.719Q94.8866 150.254 95.0528 149.796Q95.2191 149.338 95.4077 148.889Q95.5963 148.44 95.8068 148.001Q96.0172 147.562 96.2491 147.133Q96.481 146.705 96.7336 146.289Q96.9863 145.872 97.2592 145.469Q97.5321 145.065 97.8245 144.676Q98.1169 144.286 98.4282 143.912Q98.7394 143.537 99.0687 143.178Q99.398 142.82 99.7446 142.477Q100.091 142.135 100.454 141.81Q100.817 141.486 101.196 141.179Q101.574 140.873 101.968 140.586Q102.361 140.298 102.768 140.03Q103.175 139.763 103.594 139.515Q104.014 139.268 104.445 139.042Q104.876 138.815 105.318 138.611Q105.76 138.406 106.212 138.223Q106.663 138.04 107.123 137.88Q107.583 137.719 108.05 137.582Q108.517 137.444 108.991 137.33Q109.464 137.216 109.943 137.125Q110.421 137.034 110.903 136.967Q111.386 136.899 111.871 136.856Z"/>
	<path fill="#F8D16A" transform="scale(0.195312 0.195312)" d="M113.169 148.838C123.632 148.137 126.249 162.528 115.74 164.067C104.449 166.924 102.484 151.935 113.169 148.838Z"/>
	<path fill="#FC9A87" transform="scale(0.195312 0.195312)" d="M253.748 66.8358Q254.321 66.79 254.895 66.7667Q255.47 66.7435 256.044 66.7427Q256.619 66.7419 257.194 66.7637Q257.768 66.7855 258.341 66.8297Q258.914 66.874 259.485 66.9407Q260.056 67.0074 260.624 67.0964Q261.192 67.1854 261.756 67.2966Q262.32 67.4078 262.879 67.541Q263.438 67.6742 263.992 67.8292Q264.545 67.9842 265.092 68.1608Q265.639 68.3374 266.179 68.5353Q266.719 68.7331 267.25 68.952Q267.782 69.1709 268.304 69.4104Q268.827 69.65 269.34 69.9098Q269.852 70.1697 270.355 70.4494Q270.857 70.7291 271.348 71.0283Q271.838 71.3275 272.317 71.6457Q272.796 71.9639 273.262 72.3006Q273.728 72.6373 274.18 72.992Q274.632 73.3467 275.07 73.7189Q275.508 74.091 275.932 74.4801Q276.355 74.8691 276.762 75.2744Q277.17 75.6798 277.561 76.1008Q277.953 76.5217 278.327 76.9577Q278.702 77.3937 279.059 77.8441Q279.417 78.2944 279.756 78.7584Q280.095 79.2224 280.416 79.6993Q280.737 80.1763 281.039 80.6654Q281.341 81.1546 281.623 81.6552Q281.906 82.1558 282.169 82.6671Q282.431 83.1783 282.674 83.6995Q282.916 84.2207 283.138 84.751Q283.36 85.2813 283.561 85.8199Q283.762 86.3584 283.941 86.9045Q284.121 87.4505 284.279 88.0032Q284.437 88.5558 284.574 89.1143Q284.71 89.6727 284.824 90.2361Q284.939 90.7994 285.031 91.3668Q285.123 91.9342 285.193 92.5048Q285.263 93.0753 285.31 93.6482Q285.358 94.2211 285.383 94.7954Q285.408 95.3697 285.41 95.9445Q285.413 96.5193 285.393 97.0938Q285.372 97.6683 285.33 98.2416Q285.287 98.8148 285.222 99.386Q285.157 99.9571 285.07 100.525Q284.983 101.093 284.873 101.658Q284.764 102.222 284.632 102.782Q284.501 103.341 284.347 103.895Q284.194 104.449 284.019 104.997Q283.844 105.544 283.648 106.085Q283.451 106.625 283.234 107.157Q283.017 107.689 282.779 108.213Q282.541 108.736 282.282 109.249Q282.024 109.763 281.746 110.266Q281.468 110.769 281.17 111.261Q280.872 111.752 280.555 112.232Q280.239 112.712 279.903 113.178Q279.568 113.645 279.215 114.099Q278.861 114.552 278.49 114.991Q278.119 115.431 277.732 115.855Q277.344 116.279 276.94 116.688Q276.536 117.097 276.116 117.489Q275.696 117.882 275.261 118.258Q274.825 118.635 274.374 118.995Q273.923 119.354 273.459 119.696Q272.994 120.038 272.517 120.361Q272.039 120.684 271.549 120.988Q271.059 121.292 270.557 121.577Q270.056 121.861 269.544 122.126Q269.031 122.39 268.509 122.635Q267.987 122.879 267.455 123.103Q266.924 123.326 266.384 123.529Q265.844 123.731 265.296 123.912Q264.749 124.094 264.195 124.253Q263.641 124.413 263.081 124.55Q262.521 124.688 261.956 124.803Q261.391 124.919 260.822 125.012Q260.253 125.105 259.68 125.176Q259.108 125.246 258.534 125.295Q257.959 125.343 257.383 125.368Q256.807 125.394 256.23 125.397Q255.653 125.4 255.077 125.38Q254.501 125.36 253.926 125.318Q253.351 125.275 252.778 125.21Q252.205 125.145 251.635 125.058Q251.065 124.97 250.499 124.86Q249.933 124.751 249.371 124.619Q248.81 124.487 248.254 124.333Q247.699 124.179 247.149 124.003Q246.6 123.827 246.058 123.63Q245.516 123.433 244.983 123.215Q244.449 122.997 243.924 122.757Q243.399 122.518 242.885 122.259Q242.37 121.999 241.865 121.72Q241.361 121.44 240.868 121.141Q240.375 120.842 239.894 120.524Q239.413 120.205 238.946 119.868Q238.478 119.531 238.023 119.176Q237.569 118.821 237.129 118.448Q236.689 118.076 236.264 117.686Q235.839 117.296 235.43 116.89Q235.02 116.484 234.627 116.062Q234.234 115.64 233.858 115.203Q233.482 114.766 233.123 114.315Q232.764 113.864 232.423 113.398Q232.083 112.933 231.76 112.455Q231.438 111.977 231.135 111.486Q230.832 110.996 230.548 110.494Q230.265 109.991 230.001 109.479Q229.738 108.966 229.494 108.443Q229.251 107.92 229.029 107.388Q228.806 106.856 228.604 106.316Q228.403 105.776 228.223 105.228Q228.043 104.68 227.885 104.126Q227.726 103.571 227.59 103.011Q227.453 102.451 227.339 101.886Q227.224 101.32 227.132 100.751Q227.04 100.182 226.971 99.6095Q226.901 99.0371 226.854 98.4624Q226.807 97.8877 226.783 97.3116Q226.758 96.7355 226.757 96.1589Q226.755 95.5823 226.776 95.006Q226.797 94.4298 226.84 93.8548Q226.884 93.2798 226.95 92.707Q227.016 92.1342 227.105 91.5644Q227.193 90.9946 227.304 90.4287Q227.415 89.8629 227.548 89.3018Q227.681 88.7407 227.836 88.1853Q227.991 87.6299 228.168 87.0811Q228.345 86.5322 228.543 85.9907Q228.741 85.4492 228.96 84.9159Q229.18 84.3826 229.42 83.8583Q229.66 83.3341 229.92 82.8196Q230.181 82.3052 230.461 81.8014Q230.742 81.2977 231.042 80.8053Q231.342 80.3129 231.661 79.8327Q231.981 79.3526 232.319 78.8853Q232.656 78.418 233.012 77.9644Q233.368 77.5108 233.742 77.0715Q234.115 76.6322 234.506 76.208Q234.896 75.7837 235.303 75.3751Q235.71 74.9665 236.133 74.5743Q236.556 74.182 236.993 73.8067Q237.431 73.4313 237.883 73.0735Q238.335 72.7156 238.801 72.3758Q239.267 72.036 239.746 71.7148Q240.225 71.3935 240.716 71.0914Q241.207 70.7892 241.71 70.5066Q242.212 70.224 242.726 69.9614Q243.239 69.6987 243.762 69.4565Q244.286 69.2142 244.818 68.9927Q245.35 68.7712 245.891 68.5708Q246.432 68.3704 246.98 68.1914Q247.528 68.0124 248.083 67.8551Q248.637 67.6978 249.198 67.5624Q249.758 67.427 250.324 67.3138Q250.889 67.2005 251.459 67.1096Q252.028 67.0187 252.601 66.9502Q253.173 66.8817 253.748 66.8358ZM238.49 93.8108L238.49 97.6384C239.814 100.924 246.743 107.211 249.725 109.16C256.646 112.324 272.543 92.5193 273.69 89.0326C270.102 74.9957 256.127 92.8287 252.251 97.6384C249.68 94.9432 247.441 92.1262 243.822 90.8731C241.444 91.3192 240.012 91.8065 238.49 93.8108Z"/>
	<path fill="#D78F81" transform="scale(0.195312 0.195312)" d="M275.261 118.258Q274.825 118.635 274.374 118.995Q273.923 119.354 273.459 119.696Q272.994 120.038 272.517 120.361Q272.039 120.684 271.549 120.988Q271.059 121.292 270.557 121.577Q270.056 121.861 269.544 122.126Q269.031 122.39 268.509 122.635Q267.987 122.879 267.455 123.103Q266.924 123.326 266.384 123.529Q265.844 123.731 265.296 123.912Q264.749 124.094 264.195 124.253Q263.641 124.413 263.081 124.55Q262.521 124.688 261.956 124.803Q261.391 124.919 260.822 125.012Q260.253 125.105 259.68 125.176Q259.108 125.246 258.534 125.295Q257.959 125.343 257.383 125.368Q256.807 125.394 256.23 125.397Q255.653 125.4 255.077 125.38Q254.501 125.36 253.926 125.318Q253.351 125.275 252.778 125.21Q252.205 125.145 251.635 125.058Q251.065 124.97 250.499 124.86Q249.933 124.751 249.371 124.619Q248.81 124.487 248.254 124.333Q247.699 124.179 247.149 124.003Q246.6 123.827 246.058 123.63Q245.516 123.433 244.983 123.215Q244.449 122.997 243.924 122.757Q243.399 122.518 242.885 122.259Q242.37 121.999 241.865 121.72Q241.361 121.44 240.868 121.141Q240.375 120.842 239.894 120.524Q239.413 120.205 238.946 119.868Q238.478 119.531 238.023 119.176Q237.569 118.821 237.129 118.448Q236.689 118.076 236.264 117.686Q235.839 117.296 235.43 116.89Q235.02 116.484 234.627 116.062Q234.234 115.64 233.858 115.203Q233.482 114.766 233.123 114.315Q232.764 113.864 232.423 113.398Q232.083 112.933 231.76 112.455Q231.438 111.977 231.135 111.486Q230.832 110.996 230.548 110.494Q230.265 109.991 230.001 109.479Q229.738 108.966 229.494 108.443Q229.251 107.92 229.029 107.388Q228.806 106.856 228.604 106.316Q228.403 105.776 228.223 105.228Q228.043 104.68 227.885 104.126Q227.726 103.571 227.59 103.011Q227.453 102.451 227.339 101.886Q227.224 101.32 227.132 100.751Q227.04 100.182 226.971 99.6095Q226.901 99.0371 226.854 98.4624Q226.807 97.8877 226.783 97.3116Q226.758 96.7355 226.757 96.1589Q226.755 95.5823 226.776 95.006Q226.797 94.4298 226.84 93.8548Q226.884 93.2798 226.95 92.707Q227.016 92.1342 227.105 91.5644Q227.193 90.9946 227.304 90.4287Q227.415 89.8629 227.548 89.3018Q227.681 88.7407 227.836 88.1853Q227.991 87.6299 228.168 87.0811Q228.345 86.5322 228.543 85.9907Q228.741 85.4492 228.96 84.9159Q229.18 84.3826 229.42 83.8583Q229.66 83.3341 229.92 82.8196Q230.181 82.3052 230.461 81.8014Q230.742 81.2977 231.042 80.8053Q231.342 80.3129 231.661 79.8327Q231.981 79.3526 232.319 78.8853Q232.656 78.418 233.012 77.9644Q233.368 77.5108 233.742 77.0715Q234.115 76.6322 234.506 76.208Q234.896 75.7837 235.303 75.3751Q235.71 74.9665 236.133 74.5743Q236.556 74.182 236.993 73.8067Q237.431 73.4313 237.883 73.0735Q238.335 72.7156 238.801 72.3758Q239.267 72.036 239.746 71.7148Q240.225 71.3935 240.716 71.0914Q241.207 70.7892 241.71 70.5066Q242.212 70.224 242.726 69.9614Q243.239 69.6987 243.762 69.4565Q244.286 69.2142 244.818 68.9927Q245.35 68.7712 245.891 68.5708Q246.432 68.3704 246.98 68.1914Q247.528 68.0124 248.083 67.8551Q248.637 67.6978 249.198 67.5624Q249.758 67.427 250.324 67.3138Q250.889 67.2005 251.459 67.1096Q252.028 67.0187 252.601 66.9502Q253.173 66.8817 253.748 66.8358C254.496 66.9189 255.201 66.8916 255.84 67.3142C254.953 70.2909 239.621 79.8885 243.822 90.8731C241.444 91.3192 240.012 91.8065 238.49 93.8108L238.49 97.6384C239.814 100.924 246.743 107.211 249.725 109.16C252.163 120.844 274.562 115.658 275.261 118.258Z"/>
	<path fill="#5C86E4" transform="scale(0.195312 0.195312)" d="M196.565 154.581C201.161 154.546 212.761 152.468 214.969 157.678C216.591 161.507 218.487 179.369 210.774 181.836C202.324 181.247 204.392 171.668 204.485 165.635C201.355 165.548 198.228 165.757 195.096 165.635C191.177 162.246 190.118 155.912 196.565 154.581Z"/>
	<path fill="#5C86E4" transform="scale(0.195312 0.195312)" d="M301.839 154.581C305.44 154.549 315.599 153.64 318.087 155.991C320.456 158.228 319.879 162.715 317.529 164.74C315.26 166.695 310.567 165.802 307.815 165.635L307.815 176.213C307.679 183.812 300.167 183.407 296.651 178.437C296.604 171.068 293.323 155.741 301.839 154.581Z"/>
	<path fill="#5C86E4" transform="scale(0.195312 0.195312)" d="M169.515 154.581C172.669 154.566 177.121 154.014 179.868 155.713C184.741 158.728 181.435 164.713 176.874 165.635C158.79 166.301 163.705 155.307 169.515 154.581Z"/>
	<path fill="#5C86E4" transform="scale(0.195312 0.195312)" d="M256.144 164.067C263.788 164.023 262.077 173.247 261.929 178.437C260.491 179.96 259.095 181.018 257.155 181.836C248.528 181.176 248.642 165.455 256.144 164.067Z"/>
	<path fill="#5C86E4" transform="scale(0.195312 0.195312)" d="M254.551 135.271L255.615 135.23C263.714 134.925 262.093 143.074 261.929 148.838C260.898 150.029 259.822 150.838 258.468 151.618C249.675 153.579 247.757 138.371 254.551 135.271Z"/>
	<path fill="#5C86E4" transform="scale(0.195312 0.195312)" d="M336.68 154.581C353.827 154.433 347.685 164.88 342.395 165.635C339.552 165.69 335.463 166.261 333.076 164.523C328.571 161.242 331.886 155.068 336.68 154.581Z"/>
</svg>
