<?xml version="1.0" encoding="utf-8" ?>
<svg xmlns="http://www.w3.org/2000/svg" xmlns:xlink="http://www.w3.org/1999/xlink" width="100" height="100">
	<defs>
		<linearGradient id="gradient_0" gradientUnits="userSpaceOnUse" x1="293.06174" y1="220.5183" x2="211.10403" y2="45.802128">
			<stop offset="0" stop-color="#4AA1F4"/>
			<stop offset="1" stop-color="#18C0F1"/>
		</linearGradient>
	</defs>
	<path fill="url(#gradient_0)" transform="scale(0.195312 0.195312)" d="M169.944 66.2942C181.987 66.0881 194.066 66.2941 206.113 66.2947L316.391 66.2841C328.896 66.2862 349.606 62.9835 350.822 80.9653C351.332 88.5061 350.966 96.2878 350.965 103.857L350.967 172.327C351.018 185.464 352.04 198.991 334.554 200.052L186.644 200.062C155.773 200.067 153.045 200.037 153.082 171.076L153.094 101.979C153.078 86.636 149.302 69.0391 169.944 66.2942ZM164.714 184.692C168.242 190.319 173.179 188.05 179.811 188.039L290.819 188.035C297.519 188.035 332.861 189.171 336.776 187.21C339.391 184.508 338.698 182.275 338.679 178.748L338.629 111.604L166.223 111.604C163.277 111.771 164.714 116.758 164.717 119.926L164.72 138.476C164.718 153.869 164.473 169.304 164.714 184.692ZM164.714 81.3933C164.556 87.497 164.732 93.6187 164.714 99.7255L335.232 99.7255L338.629 99.7255L338.656 86.6693C338.68 84.0496 338.906 81.3471 338.629 78.7417L173.912 78.7229C171.865 78.7117 169.746 78.5603 167.709 78.7417C166.541 79.5361 165.631 80.3042 164.714 81.3933Z"/>
	<path fill="#52BFF7" transform="scale(0.195312 0.195312)" d="M253.765 158.263C258.571 158.042 263.485 158.256 268.303 158.256L313.035 158.255C316.023 158.255 319.55 157.919 322.471 158.544C328.227 159.776 328.211 167.294 322.456 170.49C319.658 170.858 316.701 170.538 313.88 170.516L267.673 170.511C263.544 170.519 257.651 171.054 253.687 170.238C248.054 169.08 248.57 161.106 253.765 158.263Z"/>
	<path fill="#52BFF7" transform="scale(0.195312 0.195312)" d="M285.998 129.353L309.11 129.333C313.083 129.316 317.633 128.865 321.545 129.52C326.093 130.281 327.988 136.114 324.55 139.374C321.474 142.291 315.186 140.985 311.389 140.975L289.766 140.988L267.275 141.004C263.467 141.005 254.851 142.107 251.705 139.634C247.709 136.493 249.016 130.673 253.888 129.707C257.595 128.972 261.993 129.349 265.781 129.347L285.998 129.353Z"/>
	<path fill="#52BFF7" transform="scale(0.195312 0.195312)" d="M228.521 129.353C234.453 129.153 236.316 135.033 232.956 139.113C226.792 146.598 215.575 156.736 208.459 163.717C206.401 165.737 199.88 174.271 196.634 173.548C194.155 172.995 186.58 164.48 185.164 162.159C178.504 157.682 173.707 147.325 183.23 147.184C188.104 147.112 193.977 154.936 197.26 158.263C199.944 156.589 202.195 153.891 204.413 151.656L217.958 138.042C221.014 134.984 224.198 130.606 228.521 129.353Z"/>
	<path fill="#52BFF7" transform="scale(0.195312 0.195312)" d="M220.538 84.5099C224.658 84.1222 228.486 83.8157 231.806 86.8342C233.206 90.6568 232.614 93.9628 228.521 95.3275C225.632 95.366 221.247 95.9276 218.648 94.5539C213.994 92.0943 216.012 85.6629 220.538 84.5099Z"/>
	<path fill="#52BFF7" transform="scale(0.195312 0.195312)" d="M177.336 84.5099C182.692 83.942 187.542 83.5006 189.385 89.432C188.783 92.3911 188.152 94.0262 185.164 95.3275C182.512 95.5045 178.164 95.9862 175.753 94.8237C171.85 92.942 171.618 85.9263 177.336 84.5099Z"/>
	<path fill="#52BFF7" transform="scale(0.195312 0.195312)" d="M198.793 84.5099C202.267 84.4548 208.53 83.5065 210.265 87.5817C211.699 90.9495 209.396 94.1419 206.298 95.3275C191.86 96.8675 192.061 86.8266 198.793 84.5099Z"/>
	<defs>
		<linearGradient id="gradient_1" gradientUnits="userSpaceOnUse" x1="281.26447" y1="484.78711" x2="217.61336" y2="322.23969">
			<stop offset="0" stop-color="#7E78EB"/>
			<stop offset="1" stop-color="#3EA7F2"/>
		</linearGradient>
	</defs>
	<path fill="url(#gradient_1)" transform="scale(0.195312 0.195312)" d="M106.203 365.282L118.273 365.282C118.442 373.087 118.263 380.936 118.273 388.746L381.751 388.746L381.751 366.007L393.869 366.007L393.869 388.746C413.637 388.684 413.798 386.055 413.785 404.998C413.777 415.782 414.611 423.121 407.787 432.324L406.834 433.397C396.548 444.771 380.855 442.269 367.098 442.254L123.892 442.255C120.158 442.254 116.2 442.511 112.498 442.062C90.0923 439.348 87.4844 421.262 87.4071 403.506C87.3279 385.336 90.4983 388.706 106.203 388.746C106.214 383.791 105.405 369.395 106.203 365.282ZM203.307 401.296L99.7374 401.296C99.5815 434.258 109.602 430.278 136.807 430.275L181.125 430.272L369.712 430.268C388.408 430.274 402.046 433.314 402.033 408.225L402.016 400.682L300.22 400.682C289.427 418.942 290.083 422.09 271.137 421.983L235.357 421.98C231.532 421.979 221.947 422.979 218.597 421.05C215.203 419.095 205.971 405.257 203.307 401.296ZM224.507 409.753L280.008 409.753C280.678 408.993 281.271 408.214 281.85 407.383C283.265 405.372 284.654 403.355 285.998 401.296C281.491 401.548 276.902 401.304 272.383 401.299L229.09 401.317C226.3 401.327 223.298 401.605 220.538 401.296C217.005 402.448 222.8 407.849 224.507 409.753Z"/>
	<defs>
		<linearGradient id="gradient_2" gradientUnits="userSpaceOnUse" x1="442.28049" y1="348.78394" x2="338.08133" y2="241.86346">
			<stop offset="0" stop-color="#6683EC"/>
			<stop offset="1" stop-color="#3EA5F4"/>
		</linearGradient>
	</defs>
	<path fill="url(#gradient_2)" transform="scale(0.195312 0.195312)" d="M359.362 236.13L424.267 236.096C437.324 236.045 444.622 237.249 444.93 252.35C445.339 272.411 444.948 292.568 444.956 312.636L444.959 331.997C444.957 353.862 442.593 354.4 421.562 354.302L355.497 354.319C330.195 354.318 335.198 341.189 335.235 319.683L335.218 260.11C335.177 238.305 337.474 236.107 359.362 236.13ZM347.072 342.523L433.225 342.523L433.462 342.39C433.727 335.138 433.207 326.557 433.214 319.114L433.225 248.248L375.667 248.242C366.409 248.241 356.208 247.841 347.072 248.248C346.843 248.75 347.105 333.622 347.072 342.523Z"/>
	<path fill="#4C97F2" transform="scale(0.195312 0.195312)" d="M403.199 302.452C408.498 302.488 419.329 300.204 419.37 308.398C419.382 310.75 418.025 312.362 416.491 313.961C412.499 314.327 408.18 313.972 404.152 313.97L377.347 313.961C373.698 313.988 365.253 314.828 362.501 312.521C360.452 310.802 360.391 306.008 362.3 304.165C365.516 301.062 374.762 302.444 378.794 302.443L403.199 302.452Z"/>
	<path fill="#4C97F2" transform="scale(0.195312 0.195312)" d="M365.217 283.503C368.21 282.875 372.705 283.493 375.875 283.499L404.491 283.506C412.026 283.499 417.368 280.432 419.636 288.457C418.98 291.312 417.957 293.236 415.072 294.454C412.97 294.625 410.75 294.468 408.637 294.467L395.105 294.465C390.004 294.465 366.138 295.784 362.793 293.245C359.086 290.431 360.138 283.71 365.217 283.503Z"/>
	<path fill="#52BFF7" transform="scale(0.195312 0.195312)" d="M231.806 232.213L232.67 232.207C247.615 232.103 251.955 230.883 251.911 247.45C255.889 248.33 259.588 250.162 263.205 251.988C267.203 249.19 271.685 243.444 277.148 245.825C280.481 247.277 288.063 254.902 289.35 258.297C291.16 263.073 285.816 267.888 284.126 271.999C285.758 274.85 287.069 277.863 288.68 280.724C292.075 280.824 297.117 280.154 299.843 282.57C304.144 286.383 303.811 301.339 300.273 304.9C297.539 307.651 292.274 307.314 288.68 307.303C286.482 311.832 285.09 316.655 282.799 321.177C285.281 323.685 288.923 327.153 288.944 330.917C288.978 336.998 278.003 347.314 272.369 347.019C268.781 346.831 265.487 343.078 263.205 340.617C259.587 342.507 255.79 343.678 251.911 344.883C250.733 351.52 250.862 357.979 242.743 358.549C228.855 359.555 225.591 358.956 223.752 344.883C219.959 343.564 216.168 341.784 212.668 339.829L211.185 341.241C202.828 349.122 201.462 347.832 193.953 341.014C185.574 333.407 182.825 329.725 193.513 321.177C191.338 316.62 189.594 313.08 189.385 307.955C185.432 308.172 180.148 308.923 177.126 305.863C173.792 302.488 173.192 286.996 177.296 283.338C180.352 280.614 185.606 281.488 189.385 281.698C190.835 277.786 192.563 274.063 194.326 270.288C191.916 267.492 186.837 263.777 186.849 259.867C186.865 254.78 197.516 245.259 201.854 245.433C205.939 245.597 209.148 249.246 211.732 251.988C215.869 250.112 219.969 248.1 224.507 247.45C224.466 240.749 224.019 234.082 231.806 232.213ZM239.88 331.568Q240.748 331.526 241.612 331.441Q242.476 331.356 243.336 331.229Q244.195 331.103 245.047 330.934Q245.899 330.765 246.742 330.555Q247.585 330.345 248.416 330.094Q249.248 329.843 250.066 329.551Q250.884 329.26 251.687 328.928Q252.49 328.597 253.276 328.227Q254.062 327.857 254.828 327.449Q255.595 327.041 256.341 326.596Q257.087 326.151 257.81 325.67Q258.534 325.189 259.232 324.674Q259.931 324.158 260.604 323.608Q261.277 323.059 261.922 322.478Q262.567 321.896 263.183 321.284Q263.799 320.671 264.384 320.029Q264.97 319.388 265.523 318.718Q266.076 318.048 266.596 317.352Q267.116 316.657 267.601 315.936Q268.086 315.216 268.535 314.472Q268.984 313.729 269.397 312.965Q269.809 312.2 270.184 311.416Q270.558 310.633 270.894 309.832Q271.23 309.031 271.526 308.214Q271.822 307.398 272.078 306.568Q272.334 305.738 272.549 304.896Q272.764 304.055 272.938 303.203Q273.111 302.352 273.243 301.494Q273.375 300.635 273.465 299.771Q273.554 298.907 273.602 298.04Q273.649 297.173 273.654 296.304Q273.659 295.436 273.621 294.568Q273.583 293.7 273.503 292.835Q273.423 291.97 273.301 291.111Q273.179 290.251 273.015 289.398Q272.851 288.545 272.645 287.701Q272.439 286.857 272.193 286.024Q271.946 285.191 271.659 284.371Q271.372 283.552 271.045 282.747Q270.718 281.942 270.352 281.154Q269.986 280.367 269.582 279.598Q269.179 278.829 268.738 278.08Q268.297 277.332 267.819 276.606Q267.342 275.88 266.83 275.179Q266.318 274.477 265.773 273.801Q265.227 273.126 264.649 272.477Q264.071 271.829 263.462 271.21Q262.853 270.591 262.214 270.002Q261.575 269.413 260.909 268.856Q260.242 268.3 259.549 267.776Q258.856 267.253 258.138 266.764Q257.42 266.275 256.679 265.821Q255.938 265.368 255.176 264.952Q254.414 264.535 253.632 264.156Q252.85 263.778 252.051 263.438Q251.252 263.098 250.437 262.797Q249.622 262.496 248.793 262.236Q247.965 261.976 247.124 261.756Q246.284 261.537 245.434 261.358Q244.584 261.18 243.726 261.044Q242.868 260.907 242.005 260.813Q241.141 260.719 240.274 260.667Q239.407 260.615 238.539 260.605Q237.67 260.596 236.802 260.629Q235.928 260.662 235.057 260.738Q234.186 260.815 233.319 260.934Q232.453 261.053 231.593 261.214Q230.734 261.376 229.884 261.579Q229.033 261.783 228.194 262.028Q227.354 262.274 226.528 262.56Q225.702 262.846 224.89 263.173Q224.079 263.499 223.285 263.866Q222.491 264.232 221.716 264.637Q220.94 265.042 220.186 265.484Q219.432 265.927 218.7 266.406Q217.969 266.885 217.262 267.399Q216.554 267.914 215.873 268.463Q215.193 269.011 214.539 269.593Q213.886 270.175 213.263 270.788Q212.639 271.401 212.046 272.044Q211.454 272.687 210.893 273.358Q210.333 274.029 209.806 274.728Q209.28 275.426 208.788 276.149Q208.296 276.872 207.841 277.619Q207.386 278.366 206.968 279.134Q206.55 279.902 206.17 280.69Q205.79 281.477 205.45 282.283Q205.109 283.088 204.809 283.91Q204.508 284.731 204.249 285.566Q203.989 286.401 203.771 287.248Q203.552 288.095 203.376 288.951Q203.2 289.808 203.066 290.672Q202.932 291.536 202.841 292.406Q202.75 293.276 202.702 294.149Q202.653 295.022 202.648 295.897Q202.643 296.771 202.681 297.645Q202.719 298.519 202.8 299.389Q202.881 300.26 203.004 301.126Q203.128 301.992 203.294 302.85Q203.46 303.709 203.668 304.558Q203.877 305.408 204.126 306.246Q204.376 307.084 204.667 307.909Q204.957 308.734 205.288 309.543Q205.619 310.353 205.99 311.145Q206.36 311.937 206.769 312.71Q207.178 313.483 207.625 314.235Q208.071 314.987 208.554 315.716Q209.037 316.445 209.556 317.15Q210.074 317.854 210.627 318.532Q211.179 319.21 211.764 319.86Q212.349 320.51 212.966 321.13Q213.582 321.751 214.228 322.34Q214.874 322.929 215.549 323.486Q216.223 324.043 216.924 324.566Q217.625 325.089 218.351 325.576Q219.077 326.064 219.826 326.515Q220.575 326.967 221.345 327.381Q222.116 327.795 222.906 328.17Q223.695 328.546 224.503 328.882Q225.31 329.218 226.133 329.514Q226.956 329.81 227.792 330.065Q228.629 330.32 229.477 330.534Q230.325 330.748 231.183 330.919Q232.04 331.091 232.905 331.22Q233.77 331.35 234.64 331.436Q235.51 331.523 236.384 331.566Q237.257 331.61 238.132 331.61Q239.007 331.611 239.88 331.568Z"/>
	<path fill="#4C97F2" transform="scale(0.195312 0.195312)" d="M233.796 271.999C237.348 271.911 240.946 271.837 244.496 271.999L244.703 272.254C246.823 274.816 260.21 308.873 258.437 312.816C254.859 320.769 248.109 315.24 245.956 307.955L242.743 307.955L230.526 307.955C228.027 318.803 219.351 318.319 217.809 312.015C216.981 308.631 221.528 298.115 222.641 294.697C224.828 287.978 226.586 273.256 233.796 271.999ZM233.796 297.748L239.75 297.748L242.743 297.748C242.023 295.624 238.809 285.691 237.536 284.631C236.344 289.02 235.077 293.384 233.796 297.748Z"/>
	<defs>
		<linearGradient id="gradient_3" gradientUnits="userSpaceOnUse" x1="159.7988" y1="344.27884" x2="64.071693" y2="247.87436">
			<stop offset="0" stop-color="#58A0F2"/>
			<stop offset="1" stop-color="#19B2F6"/>
		</linearGradient>
	</defs>
	<path fill="url(#gradient_3)" transform="scale(0.195312 0.195312)" d="M146.441 236.13L149.746 236.13L149.746 248.248L101.087 248.244C95.2381 248.24 85.9439 248.931 80.5369 248.248C79.8388 249.141 79.2968 250.089 78.7335 251.069C78.458 254.314 78.7072 257.748 78.7159 261.016L78.7335 343.644L149.746 343.644L149.746 355.817C147.252 355.941 144.737 355.847 142.24 355.817L86.2244 355.84C74.3311 355.873 67.0838 353.924 66.6977 340.543C66.4905 333.363 66.6429 326.143 66.6422 318.959L66.6335 259.554C66.6297 255.962 66.3075 252.068 66.8389 248.519C69.2582 232.364 90.7842 236.136 102.278 236.139L146.441 236.13Z"/>
	<path fill="#52BFF7" transform="scale(0.195312 0.195312)" d="M140.663 116.744C143.877 116.477 142.263 125.62 142.24 128.468C134.961 128.486 127.668 128.313 120.391 128.468C119.595 129.216 118.943 130.034 118.273 130.891C117.946 140.222 118.263 149.673 118.265 159.015L118.273 225.3C115.061 225.052 112.027 225.01 108.813 225.3C104.781 225.165 106.232 221.902 106.239 218.847L106.18 141.656C106.124 121.817 107.711 116.65 128.961 116.731L140.663 116.744Z"/>
	<path fill="#4C97F2" transform="scale(0.195312 0.195312)" d="M364.137 116.744L368.457 116.733C388.813 116.745 393.901 119.27 393.886 140.146L393.869 225.3C389.83 225.322 385.789 225.375 381.751 225.3L381.753 165.7C381.753 158.771 383.026 135.867 380.92 130.419C378.661 128.52 367.394 129.351 364.137 129.353L364.137 116.744Z"/>
	<path fill="#4C97F2" transform="scale(0.195312 0.195312)" d="M112.791 283.503L133.597 283.479C138.564 283.477 149.622 281.63 150.089 289.142C150.697 298.933 135.436 296.172 129.312 296.139L108.083 296.157C104.35 296.173 95.8765 297.541 92.9027 294.716C89.0526 291.058 90.7794 284.802 95.8817 283.778C99.9591 282.96 108.331 283.487 112.791 283.503Z"/>
	<path fill="#4C97F2" transform="scale(0.195312 0.195312)" d="M95.2478 303.744C104.097 303.531 137.69 302.412 145.426 303.923C151.719 305.153 151.623 313.023 146.441 315.955C144.11 316.142 141.674 315.99 139.332 315.982L125.744 315.946C119.898 315.936 98.4945 317.054 94.2738 315.467C89.6469 313.727 89.4076 306.171 95.2478 303.744Z"/>
</svg>
