<?xml version="1.0" encoding="utf-8" ?>
<svg xmlns="http://www.w3.org/2000/svg" xmlns:xlink="http://www.w3.org/1999/xlink" width="100" height="100">
	<defs>
		<linearGradient id="gradient_0" gradientUnits="userSpaceOnUse" x1="296.2204" y1="422.13287" x2="196.30713" y2="110.005">
			<stop offset="0" stop-color="#1446C9"/>
			<stop offset="1" stop-color="#07B0FF"/>
		</linearGradient>
	</defs>
	<path fill="url(#gradient_0)" transform="scale(0.195312 0.195312)" d="M190.647 132.497C202.938 127.816 207.776 129.009 220.81 129.018C247.012 129.037 238.813 130.05 260.506 138.765C280.173 127.23 285.245 129.005 306.669 129.012C319.207 129.016 331.568 127.449 342.998 133.581C356.695 127.555 365.792 129.022 380.472 129.015C398.491 129.007 417.627 127.634 424.12 150.133C428.073 163.829 426.083 180.541 419.141 193.089C423.165 208.043 420.565 218.224 420.23 232.217L420.225 232.517C424.499 239.967 427.961 250.111 426.499 258.886C458.075 273.197 456.738 293.057 456.746 323.006C456.749 333.064 457.936 343.616 454.878 353.361C445.975 381.74 418.227 387.361 392.282 379.055C374.652 384.001 362.644 384.975 344.151 380.323L341.185 379.055C326.281 384.718 313.578 384.897 299.081 379.055C284.686 385.59 279.951 384.067 266.146 380.323C252.221 383.627 243.38 385.958 229.76 376.972C219.079 383.592 206.061 385.631 194.321 380.199C191.243 378.775 188.624 376.459 185.339 375.472C182.144 376.175 179.338 378.156 176.351 379.443C167.075 383.438 155.853 384.215 146.127 381.492C141.107 380.087 136.915 376.497 131.784 375.472C129.023 376.055 126.897 377.53 124.395 378.728C107.767 386.691 86.1627 382.835 72.4024 371.001C54.3966 355.517 56.1358 338.363 56.1244 317.306C56.1141 298.494 54.7605 284.781 68.1745 269.424C76.8753 259.464 88.3641 254.615 101.255 253.733L101.242 176.933C101.238 171.864 100.921 166.652 102.037 161.676C105.62 145.69 119.956 131.362 136.485 129.36C140.843 128.832 145.301 129.007 149.684 129.012L167.768 129.025C176.285 128.237 182.747 129.776 190.647 132.497ZM208.148 151.972C191.507 153.514 194.222 167.4 194.217 179.498L194.215 237.078C194.218 244.917 192.059 254.455 199.012 259.954C204.032 263.923 211.38 262.976 215.217 257.799C218.132 253.865 217.285 247.699 217.281 243.133L217.252 225.285L226.89 225.285C229.585 232.995 233.116 240.426 235.997 248.074C237.922 253.17 239.437 258.624 244.788 261.167C255.161 266.097 264.545 257.22 259.606 244.971L253.134 229.103C251.548 225.2 250.048 221.138 248.107 217.4C249.973 214.5 252.266 211.877 254.039 208.931C264.55 191.469 261.112 167.908 243.349 156.645C233.839 150.615 219.286 151.7 208.148 151.972ZM147.745 218.284L153.231 218.284C159.201 218.312 169.012 219.612 173.506 215.118C177.915 210.709 177.599 202.634 173.205 198.325C167.998 193.219 154.74 194.546 147.745 194.57L147.745 175.143L163.064 175.164C169.107 175.166 176.829 176.161 181.507 171.39C185.664 167.15 184.908 159.463 180.674 155.547C175.416 150.683 166.759 151.972 160.218 151.969L140.898 151.972C122.889 153.569 124.307 166.031 124.305 180.314L124.305 235.535C124.307 240.985 123.981 246.7 124.551 252.119C125.605 262.16 139.354 266.13 145.482 257.833C148.998 253.074 147.755 245.861 147.74 240.359L147.745 218.284ZM128.588 315.153C128.737 327.359 126.496 334.173 131.784 345.278C133.238 345.859 134.46 346.883 135.751 347.755C143.034 352.671 155.62 352.59 162.092 346.344C169.492 339.202 166.489 308.501 166.683 297.266C163.747 298.002 160.884 298.647 157.855 298.864C159.992 304.191 158.788 312.244 158.786 317.945C158.783 328.15 163.188 344.798 147.745 342.902C134.393 344.536 136.983 327.907 136.99 320.433C136.997 313.813 136.325 301.856 137.69 295.871C139.952 285.958 153.429 283.195 161.08 290.28C163.161 288.468 165.086 287.017 167.768 286.209C155.924 270.741 130.32 278.343 128.588 298.864C128.617 303.749 129.038 310.457 128.588 315.153ZM200.731 341.279C200.251 343.7 196.813 346.169 195.138 347.985C200.269 351.33 207.454 351.691 212.654 348.269C219.889 343.507 218.307 333.446 218.281 326.023L218.259 301.817C218.256 294.377 217.779 286.892 219.385 279.585C216.387 279.262 213.366 279.191 210.386 278.738L210.399 318.092C210.4 323.239 210.891 332.064 210.204 336.909C209.493 341.922 204.78 344.479 200.731 341.279ZM116.57 306.145C117.16 304.239 116.733 301.92 116.57 299.952C113.852 299.809 111.353 299.74 108.733 300.594C108.969 303.354 108.51 306.109 108.733 308.856C111.314 307.783 113.846 306.792 116.57 306.145ZM189.277 284.189L195.138 281.157C190.989 278.251 186.059 278.947 181.241 278.738L181.25 319.941C181.245 329.062 179.911 337.512 183.612 346.059C186.026 345.777 190.104 347.737 193.022 347.985C186.861 335.675 189.162 336.153 189.272 322.409L189.277 284.189ZM83.5132 346.059C87.6074 345.988 90.6428 354.428 104.606 350.548C112.979 348.221 117.53 342.181 116.999 333.408C116.658 327.783 115.663 329.229 121.001 329.983C122.136 329.174 123.257 328.377 124.308 327.459C119.052 327.428 113.917 327.246 108.733 328.264C108.801 336.179 109.559 344.345 98.7302 342.902C83.3843 343.06 87.207 326.09 87.2063 315.438C87.206 310.134 86.8295 304.651 87.1717 299.373C88.0457 285.896 105.517 282.199 113.466 291.956C115.493 290.699 117.259 289.103 118.746 287.244L116.57 284.189C107.707 276.127 92.9351 276.44 84.8888 285.519C77.1184 294.286 79.046 306.685 79.055 317.517C79.0636 327.787 78.0907 336.845 83.5132 346.059ZM234.457 278.738C234.656 295.958 234.449 313.203 234.447 330.425L234.444 344.121C234.442 349.505 233.287 354.662 238.664 357.804C244.734 352.976 242.257 338.23 242.256 330.794L242.266 287.244C250.594 287.275 259.32 286.109 267.34 288.739C267.86 286.344 268.414 283.969 269.024 281.595C263.552 278.106 256.158 278.716 249.97 278.719L234.457 278.738Z"/>
	<path fill="#098CF3" transform="scale(0.195312 0.195312)" d="M217.252 174.413C222.519 174.508 227.567 173.864 231.899 177.596C238.267 183.083 238.291 192.581 232.907 198.748C228.497 203.116 222.984 202.701 217.252 202.526L217.252 174.413Z"/>
	<path fill="#FEFEFE" transform="scale(0.195312 0.195312)" d="M291.184 151.972C299.797 151.552 323.391 150.295 328.734 155.476C332.873 159.489 332.865 167.259 328.718 171.265C324.334 175.5 317.746 174.419 312.194 174.418L294.504 174.413L294.504 194.57L308.652 194.548C311.976 194.546 315.784 194.188 319.017 194.984C330.38 197.78 329.441 214.416 318.385 217.09C315.638 217.755 312.256 217.403 309.412 217.405L294.504 217.4L294.504 238.26L302.875 238.26C307.86 238.26 317.017 237.655 321.522 238.547C329.595 240.146 333.581 249.555 328.417 256.39C322.96 263.612 309.602 261.232 301.828 261.249C277.016 261.305 271.445 263.59 271.244 233.516L271.236 184.203C271.239 169.152 272.436 153.959 291.184 151.972Z"/>
	<path fill="#FEFEFE" transform="scale(0.195312 0.195312)" d="M363.775 151.972C368.842 151.616 389.513 151.442 393.617 152.344C401.878 154.161 405.098 164.738 399.112 170.932C394.472 175.733 387.074 174.438 381.052 174.426L364.604 174.413L364.604 194.249C370.742 194.314 381.989 193.519 387.623 194.778C399.663 197.467 400.168 213.911 388.122 216.993C384.765 217.852 380.945 217.442 377.504 217.428L364.604 217.4L364.604 238.26C368.137 238.39 371.699 238.283 375.235 238.26C381.166 238.238 391.411 237.199 396.436 240.584C401.651 244.099 402.93 251.53 399.263 256.639C394.681 263.023 384.937 261.281 378.164 261.259C372.345 261.24 365.675 261.92 359.978 260.688C341.675 256.729 342.996 238.32 342.992 224.148L342.971 182.512C342.915 166.937 345.77 154.103 363.775 151.972Z"/>
	<path fill="#FED05C" transform="scale(0.195312 0.195312)" d="M386.44 302.245C387.313 277.759 411.845 268.584 426.499 287.721C427.219 288.559 427.93 289.394 428.593 290.28C433.653 298.236 435.114 313.585 422.274 311.885C421.56 312.237 421.57 312.465 421.243 313.168C423.264 315.442 425.34 317.684 427.218 320.079C427.692 320.993 428.171 321.902 428.593 322.841C431.729 325.779 432.191 331.041 432.314 335.095C433.042 359.01 406.066 366.734 395.715 353.882C392.9 351.182 390.398 348.693 388.473 345.278C384.745 337.847 383.828 328.362 393.986 327.459C393.639 327.349 393.294 327.244 392.942 327.151L392.638 327.073L393.361 327.048L392.963 326.944C394.779 326.993 397.196 328.151 398.907 327.416C399.808 325.682 399.712 324.918 398.083 324.011C393.322 321.361 383.564 307.352 386.44 302.245Z"/>
	<path fill="#FEFEFE" transform="scale(0.195312 0.195312)" d="M386.44 302.245C387.313 277.759 411.845 268.584 426.499 287.721L427.218 291.956C420.301 288.198 413.626 283.821 405.378 286.3C393.154 289.973 392.471 302.784 395.715 313.168C393.455 313.471 391.888 313.96 389.94 315.153C387.967 310.838 386.714 306.995 386.44 302.245Z"/>
	<path fill="#FEFEFE" transform="scale(0.195312 0.195312)" d="M414.756 329.124C434.958 334.082 410.938 362.944 400.403 342.902C402.222 342.597 404.309 342.363 405.849 341.279C414.595 344.894 415.86 335.221 414.756 329.124Z"/>
	<path fill="#1D4FC3" transform="scale(0.195312 0.195312)" d="M386.44 302.245C386.714 306.995 387.967 310.838 389.94 315.153C392.386 317.948 395.037 320.548 397.963 322.841C403.769 328.644 407.642 327.343 414.756 328.264L414.756 329.124C415.86 335.221 414.595 344.894 405.849 341.279C405.31 340.901 404.805 340.475 404.291 340.064C403.464 337.135 403.034 334.56 401.318 331.958C401.116 331.307 400.698 330.605 400.403 329.983C398.363 328.453 396.483 327.77 393.986 327.459C393.639 327.349 393.294 327.244 392.942 327.151L392.638 327.073L393.361 327.048L392.963 326.944C394.779 326.993 397.196 328.151 398.907 327.416C399.808 325.682 399.712 324.918 398.083 324.011C393.322 321.361 383.564 307.352 386.44 302.245Z"/>
	<path fill="#FD7A05" transform="scale(0.195312 0.195312)" d="M428.593 322.841C431.729 325.779 432.191 331.041 432.314 335.095C433.042 359.01 406.066 366.734 395.715 353.882C403.11 355.283 407.698 357.78 415.494 355.575C429.676 351.565 432.182 335.17 428.593 322.841Z"/>
	<path fill="#FEFEFE" transform="scale(0.195312 0.195312)" d="M404.291 307.384C407.286 309.653 416.426 310.78 421.243 313.168C423.264 315.442 425.34 317.684 427.218 320.079C424.485 323.826 406.947 316.112 405.159 314.853C403.376 313.597 403.095 309.003 404.291 307.384Z"/>
	<path fill="#1D4FC3" transform="scale(0.195312 0.195312)" d="M404.291 307.384C403.354 299.803 406.171 296.149 413.883 296.127L414.756 296.913C415.223 299.627 414.302 302.422 414.756 305.126C415.559 306.492 416.482 307.761 417.635 308.856C419.085 310.332 420.273 311.209 422.274 311.885C421.56 312.237 421.57 312.465 421.243 313.168C416.426 310.78 407.286 309.653 404.291 307.384L404.291 307.384Z"/>
	<path fill="#FEFEFE" transform="scale(0.195312 0.195312)" d="M388.473 345.278C384.745 337.847 383.828 328.362 393.986 327.459C396.483 327.77 398.363 328.453 400.403 329.983C398.085 331.374 395.955 332.694 393.986 334.549C393.75 337.713 393.914 340.907 393.986 344.076C392.174 344.483 390.314 345.072 388.473 345.278Z"/>
	<path fill="#FD7A05" transform="scale(0.195312 0.195312)" d="M428.593 290.28C433.653 298.236 435.114 313.585 422.274 311.885C420.273 311.209 419.085 310.332 417.635 308.856C436.916 310.104 426.72 297.504 428.593 290.28Z"/>
	<path fill="#FEFEFE" transform="scale(0.195312 0.195312)" d="M414.756 296.913C416.202 296.623 419.476 295.699 420.724 296.711C422.671 298.29 422.565 304.427 421.257 306.547C419.788 307.208 416.346 305.536 414.756 305.126C414.302 302.422 415.223 299.627 414.756 296.913Z"/>
	<path fill="#FD7A05" transform="scale(0.195312 0.195312)" d="M404.291 307.384C395.498 301.964 406.681 287.892 413.883 296.127C406.171 296.149 403.354 299.803 404.291 307.384Z"/>
	<path fill="#FD7A05" transform="scale(0.195312 0.195312)" d="M397.963 322.841C401.881 323.805 413.77 325.214 414.756 328.264C407.642 327.343 403.769 328.644 397.963 322.841Z"/>
	<path fill="#FD9043" transform="scale(0.195312 0.195312)" d="M401.318 331.958C403.034 334.56 403.464 337.135 404.291 340.064C403.163 339.379 402.275 338.629 401.318 337.731C401.054 335.812 401.201 333.883 401.318 331.958Z"/>
	<path fill="#FED05C" transform="scale(0.195312 0.195312)" d="M294.504 318.039C292.353 314.444 289.935 311.083 288.979 306.928C283.929 284.978 304.594 270.118 325.348 283.53C327.364 285.483 329.254 287.44 330.882 289.732C332.766 291.621 333.788 293.719 334.829 296.127C338.898 299.106 335.044 309.671 333.029 312.79C331.997 314.387 329.15 315.535 328.806 317.461C330.154 320.058 333.611 321.731 334.18 324.514C334.367 326.561 335.753 328.743 336.184 330.831L336.184 331.958C336.369 334.655 336.347 337.365 336.184 340.064C333.57 358.245 311.231 367.348 298.229 353.882C296.126 352.993 294.975 352.008 293.826 350.03C280.881 334.93 292.242 317.665 302.875 329.983L302.875 329.983C305.763 333.09 305.141 337.495 306.384 341.279C306.607 341.272 306.924 341.227 307.138 341.279C315.521 343.904 320.003 337.639 318.802 329.983C318.345 329.231 318.033 328.732 317.276 328.264C313.41 328.591 303.896 323.051 302.456 327.5L302.039 327.472C301.173 326.584 301.685 325.064 301.01 324.022C299.619 321.876 295.685 321.343 294.504 318.039L294.504 318.039Z"/>
	<path fill="#FEFEFE" transform="scale(0.195312 0.195312)" d="M293.826 350.03C280.881 334.93 292.242 317.665 302.875 329.983L302.875 329.983C305.763 333.09 305.141 337.495 306.384 341.279C306.607 341.272 306.924 341.227 307.138 341.279C315.521 343.904 320.003 337.639 318.802 329.983C321.115 329.711 323.181 329.1 325.348 328.264C325.81 334.433 325.929 339.112 321.609 344.069C313.746 353.094 307.943 349.146 299.081 347.985C298.529 353.559 297.656 352.303 293.826 350.03Z"/>
	<path fill="#FED05C" transform="scale(0.195312 0.195312)" d="M302.875 329.983L302.875 329.983C305.763 333.09 305.141 337.495 306.384 341.279C306.607 341.272 306.924 341.227 307.138 341.279C299.242 344.055 292.554 339.285 296.147 333.114C297.146 331.397 301.032 330.583 302.875 329.983Z"/>
	<path fill="#FB6924" transform="scale(0.195312 0.195312)" d="M302.875 329.983C305.763 333.09 305.141 337.495 306.384 341.279C302.69 338.414 303 334.237 302.875 329.983Z"/>
	<path fill="#FEFEFE" transform="scale(0.195312 0.195312)" d="M294.504 318.039C292.353 314.444 289.935 311.083 288.979 306.928C283.929 284.978 304.594 270.118 325.348 283.53C323.918 285.323 323.474 287.753 322.324 289.732C314.142 284.857 303.765 284.078 298.326 293.391C294.465 300.002 296.837 306.587 299.081 313.168C297.84 315.025 296.114 316.508 294.504 318.039Z"/>
	<path fill="#1D4FC3" transform="scale(0.195312 0.195312)" d="M330.882 289.732C332.766 291.621 333.788 293.719 334.829 296.127C338.898 299.106 335.044 309.671 333.029 312.79C331.997 314.387 329.15 315.535 328.806 317.461C330.154 320.058 333.611 321.731 334.18 324.514L332.52 323.491C330.986 320.247 328.081 317.402 325.348 315.153C320.106 312.234 314.844 310.773 308.972 309.713C308.366 309.414 307.754 309.135 307.138 308.856C303.91 301.296 309.277 294.007 317.276 298.864L317.276 298.864C318.983 302.582 315.766 304.074 320.288 308.856C321.325 309.098 322.392 309.291 323.374 309.713C336.867 312.391 333.591 297.324 330.882 289.732Z"/>
	<path fill="#FD7A05" transform="scale(0.195312 0.195312)" d="M330.882 289.732C332.766 291.621 333.788 293.719 334.829 296.127C338.287 309.461 329.138 318.879 320.288 308.856C321.325 309.098 322.392 309.291 323.374 309.713C336.867 312.391 333.591 297.324 330.882 289.732Z"/>
	<path fill="#FD7A05" transform="scale(0.195312 0.195312)" d="M334.18 329.983C334.859 330.239 335.554 330.467 336.184 330.831L336.184 331.958C336.369 334.655 336.347 337.365 336.184 340.064C333.57 358.245 311.231 367.348 298.229 353.882C299.582 353.954 300.702 354.687 301.915 355.245C319.379 363.293 335.748 348.843 334.18 329.983Z"/>
	<path fill="#FEFEFE" transform="scale(0.195312 0.195312)" d="M317.276 298.864L317.568 298.325C319.842 297.719 321.673 295.78 323.374 294.245C325.844 300.486 324.687 303.418 323.374 309.713C322.392 309.291 321.325 309.098 320.288 308.856C315.766 304.074 318.983 302.582 317.276 298.864Z"/>
	<path fill="#FEFEFE" transform="scale(0.195312 0.195312)" d="M308.972 309.713C314.844 310.773 320.106 312.234 325.348 315.153C324.582 316.415 324 317.798 323.374 319.134C318.049 316.114 312.527 315.125 308.972 309.713Z"/>
	<path fill="#FD7A05" transform="scale(0.195312 0.195312)" d="M307.138 308.856C295.391 297.663 316.501 287.959 317.276 298.864C309.277 294.007 303.91 301.296 307.138 308.856Z"/>
	<path fill="#FD7A05" transform="scale(0.195312 0.195312)" d="M294.504 318.039C295.821 318.807 297.162 319.919 298.229 321.012C302.858 321.616 314.94 324.508 317.276 328.264L317.276 328.264C313.41 328.591 303.896 323.051 302.456 327.5L302.039 327.472C301.173 326.584 301.685 325.064 301.01 324.022C299.619 321.876 295.685 321.343 294.504 318.039Z"/>
	<path fill="#1D4FC3" transform="scale(0.195312 0.195312)" d="M294.504 318.039C295.821 318.807 297.162 319.919 298.229 321.012C302.97 325.795 309.675 325.357 315.505 327.639L316.612 328.066C316.981 328.208 316.839 328.158 317.276 328.264L317.276 328.264C313.41 328.591 303.896 323.051 302.456 327.5L302.039 327.472C301.173 326.584 301.685 325.064 301.01 324.022C299.619 321.876 295.685 321.343 294.504 318.039Z"/>
	<path fill="#FB6924" transform="scale(0.195312 0.195312)" d="M332.52 323.491L334.18 324.514C334.367 326.561 335.753 328.743 336.184 330.831C335.554 330.467 334.859 330.239 334.18 329.983C333.783 327.787 333.121 325.638 332.52 323.491Z"/>
	<path fill="#FED05C" transform="scale(0.195312 0.195312)" d="M337.993 329.124C338.207 325.827 337.999 322.397 337.997 319.084L337.983 298.201C337.986 281.093 337.066 278.203 356.381 278.279C362.843 278.304 373.162 276.556 377.792 281.157C379.039 282.441 380.018 283.688 380.826 285.305C388.131 297.54 373.809 297.29 366.102 297.351C362.929 297.377 359.637 297.667 356.483 297.266L356.483 309.713C362.119 309.828 370.273 307.637 373.783 313.168L375.235 315.153C377.793 318.712 378.166 324.192 374.111 326.875C370.603 329.196 360.897 328.264 356.483 328.264L356.483 341.279C359.932 341.358 374.27 340.73 376.197 341.279C377.927 342.29 379.379 343.9 380.826 345.278C384.414 350.558 383.236 359.126 376.083 359.882C368.357 360.699 346.368 363.229 342.21 354.931C341.544 354.096 340.945 353.197 340.326 352.327C337.909 348.755 338.209 345.425 337.993 341.279L337.756 340.466C337.187 339.949 336.934 340.075 336.184 340.064C336.347 337.365 336.369 334.655 336.184 331.958C338.292 332.271 337.937 330.767 337.993 329.124Z"/>
	<path fill="#FEFEFE" transform="scale(0.195312 0.195312)" d="M337.993 329.124C338.207 325.827 337.999 322.397 337.997 319.084L337.983 298.201C337.986 281.093 337.066 278.203 356.381 278.279C362.843 278.304 373.162 276.556 377.792 281.157C376.562 282.81 375.324 284.842 373.783 286.209C367.728 286.49 346.882 283.538 346.011 290.08C345.318 295.285 345.764 300.931 345.771 306.187L345.782 334.771C345.785 339.566 346.018 344.45 345.773 349.234C344.264 351.344 342.87 352.244 340.326 352.327C337.909 348.755 338.209 345.425 337.993 341.279L337.756 340.466C337.187 339.949 336.934 340.075 336.184 340.064C336.347 337.365 336.369 334.655 336.184 331.958C338.292 332.271 337.937 330.767 337.993 329.124Z"/>
	<path fill="#1D4FC3" transform="scale(0.195312 0.195312)" d="M337.993 329.124C338.286 333.121 338.167 337.273 337.993 341.279L337.756 340.466C337.187 339.949 336.934 340.075 336.184 340.064C336.347 337.365 336.369 334.655 336.184 331.958C338.292 332.271 337.937 330.767 337.993 329.124Z"/>
	<path fill="#FEFEFE" transform="scale(0.195312 0.195312)" d="M356.483 341.279C359.932 341.358 374.27 340.73 376.197 341.279C376.729 343.218 378.369 346.956 375.846 348.233C372.029 350.164 358.14 349.352 353.959 347.985C353.575 344.656 352.326 341.773 356.483 341.279L356.483 341.279Z"/>
	<path fill="#FD7A05" transform="scale(0.195312 0.195312)" d="M380.826 345.278C384.414 350.558 383.236 359.126 376.083 359.882C368.357 360.699 346.368 363.229 342.21 354.931C348.652 357.982 374.642 358.639 378.405 354.678C380.542 352.429 380.891 348.246 380.826 345.278Z"/>
	<path fill="#FEFEFE" transform="scale(0.195312 0.195312)" d="M356.483 309.713C362.119 309.828 370.273 307.637 373.783 313.168C369.322 319.774 361.861 317.355 353.959 317.302C354.011 314.783 353.682 312.22 353.959 309.713L356.483 309.713Z"/>
	<path fill="#FD7A05" transform="scale(0.195312 0.195312)" d="M380.826 285.305C388.131 297.54 373.809 297.29 366.102 297.351C362.929 297.377 359.637 297.667 356.483 297.266L356.483 309.713L353.959 309.713L353.959 294.245L366.808 294.266C375.269 294.313 379.821 295.161 380.826 285.305Z"/>
	<path fill="#FD7A05" transform="scale(0.195312 0.195312)" d="M375.235 315.153C377.793 318.712 378.166 324.192 374.111 326.875C370.603 329.196 360.897 328.264 356.483 328.264L356.483 341.279L356.483 341.279C351.767 341.189 353.97 329.787 353.959 325.292C363.895 325.232 375.591 328.585 375.235 315.153Z"/>
	<path fill="#FED05C" transform="scale(0.195312 0.195312)" d="M269.024 281.595C272.811 283.853 275.374 286.614 277.796 290.28C279.955 293.154 281.815 296.362 282.43 299.952L282.43 302.245C285.397 304.992 281.944 317.008 280.181 319.642C278.537 322.097 279.27 322.448 279.481 325.162L279.753 325.288C280.879 323.852 281.57 322.12 282.605 320.61C281.647 325.351 276.146 328.773 276.06 331.958C277.774 335.956 279.29 340.139 281.103 344.076C288.104 348.959 282.783 364.086 272.247 357.804C267.324 354.645 265.647 345.519 263.074 340.328L262.94 340.064L262.601 340.235C262.338 339.529 260.605 334.745 260.292 334.463C254.679 332.522 253.864 356.304 249.684 359.24C248.17 360.304 243.914 361.168 242.266 360.028C240.837 359.514 239.846 358.729 238.664 357.804C244.734 352.976 242.257 338.23 242.256 330.794L242.266 287.244C250.594 287.275 259.32 286.109 267.34 288.739C267.86 286.344 268.414 283.969 269.024 281.595Z"/>
	<path fill="#FEFEFE" transform="scale(0.195312 0.195312)" d="M258.898 329.983C260.168 328.298 264.225 328.627 266.146 328.264L271.733 342.285C273.528 346.881 275.665 351.39 276.06 356.36C274.798 356.872 273.532 357.351 272.247 357.804C267.324 354.645 265.647 345.519 263.074 340.328L262.94 340.064C262.489 337.625 260.258 332.912 258.898 330.831L258.898 329.983Z"/>
	<path fill="#FD7A05" transform="scale(0.195312 0.195312)" d="M281.103 299.952C281.539 299.344 282.183 299.821 282.43 299.952L282.43 302.245C285.397 304.992 281.944 317.008 280.181 319.642C278.537 322.097 279.27 322.448 279.481 325.162L279.753 325.288C280.879 323.852 281.57 322.12 282.605 320.61C281.647 325.351 276.146 328.773 276.06 331.958C275.118 330.532 274.411 328.917 273.488 327.459C269.907 324.027 274.081 322.432 276.152 319.696C280.621 313.795 280.787 307.083 281.103 299.952Z"/>
	<path fill="#1D4FC3" transform="scale(0.195312 0.195312)" d="M282.43 302.245C285.397 304.992 281.944 317.008 280.181 319.642C278.537 322.097 279.27 322.448 279.481 325.162L279.753 325.288C280.879 323.852 281.57 322.12 282.605 320.61C281.647 325.351 276.146 328.773 276.06 331.958C275.118 330.532 274.411 328.917 273.488 327.459C275.794 320.434 284.181 322.022 282.43 302.245Z"/>
	<path fill="#1D4FC3" transform="scale(0.195312 0.195312)" d="M258.898 330.831C260.258 332.912 262.489 337.625 262.94 340.064L262.601 340.235C262.338 339.529 260.605 334.745 260.292 334.463C254.679 332.522 253.864 356.304 249.684 359.24C248.17 360.304 243.914 361.168 242.266 360.028L243.643 360.028C256.649 360.24 252.72 339.425 252.698 330.831C254.699 331.006 256.894 330.941 258.898 330.831Z"/>
	<path fill="#FD7A05" transform="scale(0.195312 0.195312)" d="M250.759 328.264C253.943 328.046 256.668 327.185 258.898 329.983L258.898 330.831C256.894 330.941 254.699 331.006 252.698 330.831C252.72 339.425 256.649 360.24 243.643 360.028C254.402 356.464 250.077 337.895 250.759 328.264Z"/>
	<path fill="#FD7A05" transform="scale(0.195312 0.195312)" d="M281.103 344.076C288.104 348.959 282.783 364.086 272.247 357.804C273.532 357.351 274.798 356.872 276.06 356.36C280.625 354.571 281.917 352.821 283.373 347.985C282.727 347.015 281.193 345.176 281.103 344.076Z"/>
	<path fill="#FD9043" transform="scale(0.195312 0.195312)" d="M277.796 290.28C279.955 293.154 281.815 296.362 282.43 299.952C282.183 299.821 281.539 299.344 281.103 299.952C279.757 298.618 277.917 292.192 277.796 290.28Z"/>
	<path fill="#FEFEFE" transform="scale(0.195312 0.195312)" d="M250.759 293.515C257.439 293.431 259.483 292.375 264.837 297.266C264.807 297.811 264.769 298.32 264.837 298.864C266.947 297.843 270.655 295.103 272.076 298.217C275.379 305.456 272.098 316.079 264.589 319.31C259.265 321.601 252.641 320.786 246.99 321.012C248.538 318.524 250.453 315.879 251.561 313.168C250.106 311.418 250.74 296.61 250.759 293.515Z"/>
	<path fill="#1D4FC3" transform="scale(0.195312 0.195312)" d="M250.759 293.515C257.439 293.431 259.483 292.375 264.837 297.266C264.807 297.811 264.769 298.32 264.837 298.864C269.107 308.199 261.982 313.906 252.698 313.168L251.561 313.168C250.106 311.418 250.74 296.61 250.759 293.515Z"/>
	<path fill="#FD7A05" transform="scale(0.195312 0.195312)" d="M250.759 293.515C257.439 293.431 259.483 292.375 264.837 297.266C260.693 295.972 256.957 296.248 252.698 296.127C252.729 301.806 252.631 307.489 252.698 313.168L251.561 313.168C250.106 311.418 250.74 296.61 250.759 293.515Z"/>
	<path fill="#FED05C" transform="scale(0.195312 0.195312)" d="M161.08 290.28C163.161 288.468 165.086 287.017 167.768 286.209C168.774 286.945 169.725 287.623 170.337 288.739C177.863 295.295 175.802 310.172 175.774 319.134L175.821 331.838C175.899 344.981 171.192 359.559 155.581 360.028C145.699 359.608 135.174 355.588 131.784 345.278C133.238 345.859 134.46 346.883 135.751 347.755C143.034 352.671 155.62 352.59 162.092 346.344C169.492 339.202 166.489 308.501 166.683 297.266C163.747 298.002 160.884 298.647 157.855 298.864C159.992 304.191 158.788 312.244 158.786 317.945C158.783 328.15 163.188 344.798 147.745 342.902C134.393 344.536 136.983 327.907 136.99 320.433C136.997 313.813 136.325 301.856 137.69 295.871C139.952 285.958 153.429 283.195 161.08 290.28Z"/>
	<defs>
		<linearGradient id="gradient_1" gradientUnits="userSpaceOnUse" x1="140.37369" y1="314.47318" x2="163.69803" y2="324.74896">
			<stop offset="0" stop-color="#2257C4"/>
			<stop offset="1" stop-color="#1A6DDF"/>
		</linearGradient>
	</defs>
	<path fill="url(#gradient_1)" transform="scale(0.195312 0.195312)" d="M146.048 340.829C146.438 337.579 146.075 334.1 146.064 330.82L146.012 310.354C145.975 302.619 145.022 294.324 155.581 296.127C156.31 297.065 157.081 297.962 157.855 298.864C159.992 304.191 158.788 312.244 158.786 317.945C158.783 328.15 163.188 344.798 147.745 342.902C147.207 342.193 146.614 341.516 146.048 340.829Z"/>
	<path fill="#FD7A05" transform="scale(0.195312 0.195312)" d="M170.337 288.739C177.863 295.295 175.802 310.172 175.774 319.134L175.821 331.838C175.899 344.981 171.192 359.559 155.581 360.028C172.003 355.082 174.075 343.336 174.036 328.264C174.053 315.08 175.346 301.201 170.337 288.739Z"/>
	<path fill="#FD7A05" transform="scale(0.195312 0.195312)" d="M146.048 340.829C143.512 337.646 143.336 305.936 144.525 300.189C145.498 295.484 152.455 291.021 155.581 296.127C145.022 294.324 145.975 302.619 146.012 310.354L146.064 330.82C146.075 334.1 146.438 337.579 146.048 340.829Z"/>
	<path fill="#FED05C" transform="scale(0.195312 0.195312)" d="M219.385 279.585C222.615 279.978 224.291 280.852 226.333 283.464L226.89 284.189C229.535 290.086 228.112 307.819 228.111 314.828C228.109 330.121 232.165 351.392 214.694 358.907C208.18 361.709 198.354 361.702 193.022 356.36C188.807 353.982 185.788 350.34 183.612 346.059C186.026 345.777 190.104 347.737 193.022 347.985C186.861 335.675 189.162 336.153 189.272 322.409L189.277 284.189L195.138 281.157C196.183 281.757 196.809 282.502 197.417 283.53C197.958 284.418 198.493 285.306 199.007 286.209C200.386 288.018 202.376 289.877 203.451 291.826L203.176 291.827C196.622 284.517 199.639 302.853 199.638 307.284C199.637 315.053 199.94 328.336 199.007 335.818C199.086 337.879 200.253 339.367 200.731 341.279L200.731 341.279C200.251 343.7 196.813 346.169 195.138 347.985C200.269 351.33 207.454 351.691 212.654 348.269C219.889 343.507 218.307 333.446 218.281 326.023L218.259 301.817C218.256 294.377 217.779 286.892 219.385 279.585Z"/>
	<path fill="#FD7A05" transform="scale(0.195312 0.195312)" d="M226.89 284.189C229.535 290.086 228.112 307.819 228.111 314.828C228.109 330.121 232.165 351.392 214.694 358.907C208.18 361.709 198.354 361.702 193.022 356.36C194.598 356.416 196.158 357.057 197.697 357.392C209.152 359.885 221.489 354.795 224.919 343.052C226.386 338.028 226.011 332.475 226.01 327.291L225.994 303.726C225.989 297.242 225.576 290.565 226.89 284.189Z"/>
	<path fill="#FB6924" transform="scale(0.195312 0.195312)" d="M197.417 283.53C197.958 284.418 198.493 285.306 199.007 286.209C200.386 288.018 202.376 289.877 203.451 291.826L203.176 291.827C196.622 284.517 199.639 302.853 199.638 307.284C199.637 315.053 199.94 328.336 199.007 335.818C199.086 337.879 200.253 339.367 200.731 341.279C195.6 337.327 197.309 331.458 197.399 325.786C197.582 314.146 195.969 294.106 197.417 283.53Z"/>
	<path fill="#1D4FC3" transform="scale(0.195312 0.195312)" d="M199.007 286.209C200.386 288.018 202.376 289.877 203.451 291.826L203.176 291.827C196.622 284.517 199.639 302.853 199.638 307.284C199.637 315.053 199.94 328.336 199.007 335.818C198.342 333.19 198.983 324.966 198.996 321.755L199.007 286.209Z"/>
	<defs>
		<linearGradient id="gradient_2" gradientUnits="userSpaceOnUse" x1="82.998634" y1="319.00488" x2="119.26265" y2="308.17368">
			<stop offset="0" stop-color="#FFB32E"/>
			<stop offset="1" stop-color="#FFDA6D"/>
		</linearGradient>
	</defs>
	<path fill="url(#gradient_2)" transform="scale(0.195312 0.195312)" d="M98.7302 342.902C83.3843 343.06 87.207 326.09 87.2063 315.438C87.206 310.134 86.8295 304.651 87.1717 299.373C88.0457 285.896 105.517 282.199 113.466 291.956C115.519 294.725 116.604 296.388 116.57 299.952C113.852 299.809 111.353 299.74 108.733 300.594C108.06 298.744 107.09 297.461 105.667 296.127C92.5059 292.519 96.6045 311.285 96.4815 319.134C96.4614 327.258 95.2312 335.34 98.7302 342.902Z"/>
	<path fill="#FD7A05" transform="scale(0.195312 0.195312)" d="M95.2707 297.266C97.608 293.053 103.036 291.483 105.667 296.127C92.5059 292.519 96.6045 311.285 96.4815 319.134C95.9242 316.772 95.1536 299.426 95.2707 297.266Z"/>
	<path fill="#FED05C" transform="scale(0.195312 0.195312)" d="M124.308 327.459C127.539 328.914 129.385 361.107 101.255 360.028C93.2699 357.881 86.9542 354.002 83.5132 346.059C87.6074 345.988 90.6428 354.428 104.606 350.548C112.979 348.221 117.53 342.181 116.999 333.408C116.658 327.783 115.663 329.229 121.001 329.983C122.136 329.174 123.257 328.377 124.308 327.459Z"/>
	<path fill="#FD7A05" transform="scale(0.195312 0.195312)" d="M124.308 327.459C127.539 328.914 129.385 361.107 101.255 360.028C120.518 356.457 125.356 346.288 124.308 327.459Z"/>
	<path fill="#FED05C" transform="scale(0.195312 0.195312)" d="M116.57 284.189C122.357 287.095 125.497 293.712 125.731 299.952C126.945 300.298 126.386 301.628 127.182 302.485L127.838 302.352C128.413 301.232 127.699 299.911 128.588 298.864C128.617 303.749 129.038 310.457 128.588 315.153C127.521 314.419 128.437 310.834 128.588 309.713C122.562 309.023 115.509 308.931 109.526 310.239C109.654 310.681 109.757 310.74 109.585 311.187L109.33 310.65L109.335 310.77L108.733 309.713L108.733 308.856C111.314 307.783 113.846 306.792 116.57 306.145C117.16 304.239 116.733 301.92 116.57 299.952C116.604 296.388 115.519 294.725 113.466 291.956C115.493 290.699 117.259 289.103 118.746 287.244L116.57 284.189Z"/>
	<path fill="#FD7A05" transform="scale(0.195312 0.195312)" d="M116.57 284.189C122.357 287.095 125.497 293.712 125.731 299.952C126.945 300.298 126.386 301.628 127.182 302.485L127.838 302.352C128.413 301.232 127.699 299.911 128.588 298.864C128.617 303.749 129.038 310.457 128.588 315.153C127.521 314.419 128.437 310.834 128.588 309.713C122.562 309.023 115.509 308.931 109.526 310.239C109.654 310.681 109.757 310.74 109.585 311.187L109.33 310.65L109.335 310.77L108.733 309.713L108.733 308.856C111.314 307.783 113.846 306.792 116.57 306.145C118.901 306.578 121.91 306.187 124.308 306.145C123.94 300.857 124.056 290.371 118.746 287.244L116.57 284.189Z"/>
	<path fill="#1D4FC3" transform="scale(0.195312 0.195312)" d="M125.731 299.952C126.945 300.298 126.386 301.628 127.182 302.485L127.838 302.352C128.413 301.232 127.699 299.911 128.588 298.864C128.617 303.749 129.038 310.457 128.588 315.153C127.521 314.419 128.437 310.834 128.588 309.713C122.562 309.023 115.509 308.931 109.526 310.239C109.654 310.681 109.757 310.74 109.585 311.187L109.33 310.65L109.335 310.77L108.733 309.713C111.284 309.287 113.794 308.983 116.38 308.895C126.935 308.533 126.781 311.448 125.731 299.952Z"/>
</svg>
