<?xml version="1.0" encoding="utf-8" ?>
<svg xmlns="http://www.w3.org/2000/svg" xmlns:xlink="http://www.w3.org/1999/xlink" width="100" height="100">
	<path fill="#8ACEF6" transform="scale(0.195312 0.195312)" d="M367.366 161.524L402.37 161.536C411.162 161.536 427.127 158.404 428.155 171.183C428.821 179.456 428.334 188.88 428.335 197.246L428.331 310.625C428.331 321.909 428.779 333.361 428.202 344.621C427.588 356.601 415.972 355.245 407.308 355.241L390.365 355.22C390.618 358.559 390.384 361.902 390.369 365.246L390.367 403.13C390.366 414.198 392.583 424.478 377.887 423.359C378.322 437.684 371.71 435.004 359.917 435.007L283.611 434.989C280.539 434.975 277.452 434.808 274.384 434.999C273.642 434.89 272.902 434.718 272.166 434.57C269.462 436.054 264.174 435.042 261.143 435.027L241.333 434.999L241.333 354.016C242.983 354.03 244.639 354.07 246.287 354.016L264.837 354.033C267.995 354.036 271.236 354.194 274.384 354.016C271.17 351.325 268.82 349.906 267.19 345.746L267.18 190.308C267.175 180.839 263.741 163.006 277.453 161.524C280.031 161.039 282.968 161.446 285.592 161.478L359.241 161.524C361.917 161.357 364.69 161.285 367.366 161.524Z"/>
	<defs>
		<linearGradient id="gradient_0" gradientUnits="userSpaceOnUse" x1="235.89935" y1="393.32837" x2="370.52328" y2="413.7449">
			<stop offset="0" stop-color="#82D8F7"/>
			<stop offset="1" stop-color="#A7F7FB"/>
		</linearGradient>
	</defs>
	<path fill="url(#gradient_0)" transform="scale(0.195312 0.195312)" d="M241.333 354.016C242.983 354.03 244.639 354.07 246.287 354.016L264.837 354.033C267.995 354.036 271.236 354.194 274.384 354.016C277.396 355.345 281.954 354.826 285.213 354.786C294.289 355.428 303.406 355.226 312.498 355.224L377.719 355.229C381.856 355.234 386.273 355.646 390.365 355.22C390.618 358.559 390.384 361.902 390.369 365.246L390.367 403.13C390.366 414.198 392.583 424.478 377.887 423.359C378.322 437.684 371.71 435.004 359.917 435.007L283.611 434.989C280.539 434.975 277.452 434.808 274.384 434.999C273.642 434.89 272.902 434.718 272.166 434.57C269.462 436.054 264.174 435.042 261.143 435.027L241.333 434.999L241.333 354.016Z"/>
	<defs>
		<linearGradient id="gradient_1" gradientUnits="userSpaceOnUse" x1="333.15332" y1="433.33615" x2="313.40424" y2="340.34436">
			<stop offset="0" stop-color="#CCF5FB"/>
			<stop offset="1" stop-color="white"/>
		</linearGradient>
	</defs>
	<path fill="url(#gradient_1)" transform="scale(0.195312 0.195312)" d="M246.287 354.016L264.837 354.033C267.995 354.036 271.236 354.194 274.384 354.016C277.396 355.345 281.954 354.826 285.213 354.786C294.289 355.428 303.406 355.226 312.498 355.224L377.719 355.229C381.856 355.234 386.273 355.646 390.365 355.22C390.618 358.559 390.384 361.902 390.369 365.246L390.367 403.13C390.366 414.198 392.583 424.478 377.887 423.359C377.918 419.022 378.371 415.159 373.868 412.993C373.296 412.27 372.118 412.51 371.296 412.505C370.619 410.673 369.911 404.67 371.611 403.105C372.425 403.104 373.247 403.233 373.868 402.585C380.518 398.675 379.094 384.135 374.877 381.779C371.755 380.034 281.03 379.196 274.384 380.741L273.831 380.741C259.511 376.862 246.268 387.587 246.272 362.552L246.287 354.016Z"/>
	<path fill="#71DC8A" transform="scale(0.195312 0.195312)" d="M274.384 380.741C281.03 379.196 371.755 380.034 374.877 381.779C379.094 384.135 380.518 398.675 373.868 402.585C369.794 402.864 365.555 402.588 361.461 402.589L300.353 402.577C294.969 402.582 280.641 403.6 275.879 401.794C289.226 394.445 286.18 386.845 274.749 380.933L274.384 380.741Z"/>
	<path fill="#47B67B" transform="scale(0.195312 0.195312)" d="M365.876 388.824C367.557 388.682 369.305 388.799 370.994 388.824L370.994 394.489L293.438 394.489C291.34 394.531 289.178 394.284 288.605 391.783C287.681 387.747 300.692 388.812 302.559 388.817L319.092 388.835C334.663 388.83 350.315 388.478 365.876 388.824Z"/>
	<path fill="#6782B4" transform="scale(0.195312 0.195312)" d="M274.384 412.993C278.352 413.266 282.318 413.038 286.289 413.006L303.783 412.988C327.131 412.985 350.525 412.689 373.868 412.993C378.371 415.159 377.918 419.022 377.887 423.359C378.322 437.684 371.71 435.004 359.917 435.007L283.611 434.989C280.539 434.975 277.452 434.808 274.384 434.999C287.066 428.963 287.698 416.159 274.384 412.993Z"/>
	<path fill="#4A699C" transform="scale(0.195312 0.195312)" d="M297.662 420.614L370.994 420.614C371.229 422.833 371.229 424.784 370.994 427L362.937 427L289.527 427C286.353 420.09 292.894 420.624 297.662 420.614Z"/>
	<path fill="#F47F7F" transform="scale(0.195312 0.195312)" d="M272.166 434.57C259.486 429.809 261.118 414.811 274.384 412.993C287.698 416.159 287.066 428.963 274.384 434.999C273.642 434.89 272.902 434.718 272.166 434.57Z"/>
	<path fill="#ECF5F9" transform="scale(0.195312 0.195312)" d="M273.858 418.232Q273.992 418.228 274.125 418.23Q274.259 418.232 274.393 418.241Q274.526 418.25 274.659 418.265Q274.792 418.28 274.924 418.302Q275.056 418.324 275.187 418.352Q275.318 418.38 275.447 418.414Q275.577 418.449 275.704 418.489Q275.831 418.53 275.957 418.577Q276.082 418.623 276.205 418.676Q276.328 418.729 276.448 418.788Q276.569 418.847 276.686 418.911Q276.803 418.976 276.917 419.046Q277.031 419.116 277.141 419.191Q277.252 419.267 277.358 419.348Q277.465 419.429 277.567 419.515Q277.67 419.601 277.768 419.691Q277.866 419.782 277.96 419.878Q278.054 419.973 278.143 420.073Q278.232 420.173 278.316 420.277Q278.4 420.381 278.479 420.489Q278.558 420.598 278.631 420.709Q278.705 420.821 278.773 420.936Q278.841 421.052 278.903 421.17Q278.965 421.288 279.022 421.41Q279.078 421.531 279.129 421.655Q279.179 421.779 279.224 421.905Q279.268 422.031 279.306 422.159Q279.345 422.288 279.377 422.418Q279.409 422.547 279.434 422.679Q279.46 422.81 279.479 422.943Q279.498 423.075 279.511 423.208Q279.524 423.341 279.53 423.475Q279.536 423.609 279.536 423.742Q279.536 423.876 279.529 424.01Q279.522 424.144 279.509 424.277Q279.496 424.41 279.476 424.542Q279.457 424.675 279.43 424.806Q279.404 424.937 279.372 425.067Q279.34 425.197 279.301 425.325Q279.262 425.453 279.217 425.579Q279.172 425.705 279.121 425.829Q279.07 425.953 279.014 426.074Q278.957 426.195 278.894 426.313Q278.831 426.431 278.763 426.546Q278.694 426.661 278.62 426.773Q278.547 426.884 278.467 426.992Q278.388 427.1 278.304 427.204Q278.219 427.308 278.13 427.407Q278.041 427.507 277.947 427.602Q277.852 427.697 277.754 427.788Q277.655 427.878 277.552 427.964Q277.45 428.049 277.343 428.13Q277.236 428.21 277.125 428.285Q277.014 428.361 276.9 428.43Q276.786 428.5 276.668 428.564Q276.551 428.628 276.431 428.687Q276.31 428.745 276.187 428.797Q276.064 428.85 275.938 428.896Q275.813 428.942 275.685 428.983Q275.557 429.023 275.428 429.057Q275.299 429.091 275.168 429.118Q275.037 429.146 274.905 429.167Q274.773 429.188 274.64 429.203Q274.507 429.218 274.373 429.226Q274.009 429.249 273.646 429.223Q273.283 429.197 272.926 429.124Q272.569 429.051 272.225 428.931Q271.881 428.812 271.556 428.648Q271.231 428.484 270.93 428.279Q270.629 428.073 270.358 427.83Q270.087 427.587 269.85 427.31Q269.613 427.034 269.415 426.728Q269.217 426.422 269.06 426.093Q268.904 425.764 268.793 425.418Q268.681 425.071 268.616 424.712Q268.551 424.354 268.534 423.99Q268.517 423.626 268.548 423.263Q268.579 422.9 268.658 422.545Q268.737 422.189 268.861 421.847Q268.986 421.505 269.155 421.182Q269.324 420.859 269.534 420.562Q269.744 420.264 269.991 419.996Q270.238 419.729 270.518 419.497Q270.799 419.264 271.107 419.071Q271.416 418.877 271.747 418.726Q272.078 418.575 272.427 418.468Q272.775 418.362 273.135 418.303Q273.494 418.243 273.858 418.232Z"/>
	<path fill="#56B1F6" transform="scale(0.195312 0.195312)" d="M274.384 380.741L274.749 380.933C286.18 386.845 289.226 394.445 275.879 401.794C262.818 401.951 259.766 385.469 272.02 381.346L273.831 380.741L274.384 380.741Z"/>
	<path fill="#ECF5F9" transform="scale(0.195312 0.195312)" d="M273.424 386.03Q273.553 386.014 273.684 386.004Q273.814 385.994 273.944 385.99Q274.074 385.987 274.205 385.99Q274.335 385.992 274.465 386.002Q274.596 386.011 274.725 386.026Q274.855 386.042 274.983 386.064Q275.112 386.085 275.239 386.113Q275.367 386.141 275.493 386.176Q275.619 386.21 275.743 386.25Q275.867 386.291 275.989 386.337Q276.111 386.383 276.23 386.435Q276.35 386.488 276.467 386.546Q276.583 386.604 276.697 386.667Q276.811 386.731 276.922 386.8Q277.033 386.869 277.14 386.943Q277.247 387.018 277.35 387.097Q277.454 387.177 277.553 387.261Q277.652 387.346 277.748 387.435Q277.843 387.525 277.933 387.618Q278.024 387.712 278.11 387.81Q278.196 387.908 278.277 388.01Q278.358 388.113 278.434 388.219Q278.51 388.325 278.581 388.434Q278.652 388.544 278.717 388.657Q278.783 388.77 278.842 388.886Q278.902 389.002 278.956 389.12Q279.01 389.239 279.058 389.36Q279.107 389.482 279.149 389.605Q279.191 389.729 279.227 389.854Q279.263 389.979 279.293 390.106Q279.323 390.233 279.347 390.361Q279.371 390.49 279.388 390.619Q279.405 390.748 279.417 390.878Q279.428 391.008 279.432 391.139Q279.437 391.269 279.436 391.399Q279.434 391.53 279.426 391.66Q279.418 391.79 279.404 391.92Q279.39 392.05 279.369 392.178Q279.348 392.307 279.322 392.435Q279.295 392.563 279.262 392.689Q279.229 392.815 279.189 392.939Q279.15 393.064 279.105 393.186Q279.06 393.309 279.009 393.429Q278.958 393.549 278.901 393.666Q278.844 393.783 278.781 393.898Q278.719 394.012 278.651 394.124Q278.583 394.235 278.509 394.343Q278.436 394.451 278.357 394.555Q278.279 394.659 278.195 394.759Q278.111 394.859 278.023 394.955Q277.935 395.051 277.842 395.143Q277.749 395.234 277.652 395.321Q277.554 395.408 277.453 395.49Q277.352 395.572 277.246 395.649Q277.141 395.726 277.032 395.798Q276.923 395.87 276.811 395.936Q276.698 396.002 276.583 396.063Q276.468 396.124 276.349 396.179Q276.231 396.234 276.11 396.284Q275.99 396.333 275.867 396.376Q275.744 396.42 275.619 396.457Q275.494 396.494 275.367 396.525Q275.24 396.556 275.112 396.581Q274.984 396.606 274.855 396.625Q274.573 396.666 274.287 396.676Q274.002 396.687 273.718 396.667Q273.433 396.647 273.152 396.597Q272.871 396.547 272.597 396.467Q272.323 396.387 272.059 396.279Q271.795 396.171 271.544 396.035Q271.293 395.899 271.058 395.737Q270.823 395.575 270.607 395.389Q270.391 395.203 270.195 394.995Q270 394.787 269.827 394.559Q269.655 394.332 269.508 394.087Q269.361 393.843 269.241 393.584Q269.121 393.325 269.029 393.055Q268.937 392.784 268.875 392.506Q268.812 392.227 268.78 391.944Q268.747 391.66 268.745 391.375Q268.743 391.132 268.763 390.89Q268.784 390.648 268.826 390.408Q268.868 390.169 268.931 389.935Q268.995 389.7 269.079 389.472Q269.164 389.245 269.269 389.026Q269.374 388.806 269.498 388.598Q269.623 388.389 269.765 388.192Q269.908 387.996 270.068 387.813Q270.228 387.63 270.404 387.463Q270.58 387.295 270.771 387.144Q270.961 386.993 271.164 386.86Q271.368 386.727 271.582 386.613Q271.797 386.499 272.021 386.405Q272.245 386.311 272.477 386.238Q272.708 386.164 272.946 386.112Q273.183 386.06 273.424 386.03Z"/>
	<path fill="#56B1F6" transform="scale(0.195312 0.195312)" d="M267.19 345.746L267.18 190.308C267.175 180.839 263.741 163.006 277.453 161.524C281.315 161.546 285.177 161.469 289.039 161.524C276.802 169.982 280.124 176.173 280.13 190.161L280.141 326.628C280.146 340.476 277.56 345.963 290.282 354.786C288.622 354.765 286.861 354.627 285.213 354.786C281.954 354.826 277.396 355.345 274.384 354.016C271.17 351.325 268.82 349.906 267.19 345.746Z"/>
	<path fill="#C2EEFA" transform="scale(0.195312 0.195312)" d="M295.935 181.983L392.992 181.968C397.577 181.967 411.159 179.782 408.002 188.448C407.4 190.102 406.323 190.767 404.795 191.497C401.578 191.794 398.137 191.519 394.897 191.513L316.606 191.501C312.657 191.501 298.494 191.984 295.697 191.244C290.437 189.852 291.736 183.728 295.935 181.983Z"/>
	<path fill="#C2EEFA" transform="scale(0.195312 0.195312)" d="M393.637 232.678C397.359 232.52 401.073 232.585 404.795 232.678C405.545 239.874 405.087 254.654 404.795 262.035C399.23 262.169 393.631 262.044 388.063 262.035L375.639 262.035C375.837 258.87 375.669 255.647 375.658 252.474L375.639 233.413C380.139 231.955 388.72 232.661 393.637 232.678Z"/>
	<path fill="#71DC8A" transform="scale(0.195312 0.195312)" d="M401.358 236.232L401.528 236.268C401.659 236.544 401.355 257.094 401.358 258.619L379.184 258.619L378.992 258.354C379.434 255.434 379.213 252.518 379.198 249.579L379.184 236.232L401.358 236.232Z"/>
	<path fill="#C2EEFA" transform="scale(0.195312 0.195312)" d="M332.357 232.678C338.41 232.187 352.169 232.201 358.283 232.678C358.689 236.005 358.581 261.137 358.073 261.946L356.938 262.035L329.465 262.035C329.347 256.086 328.627 238.453 329.671 233.11C330.393 232.651 331.51 232.725 332.357 232.678Z"/>
	<path fill="#8461C2" transform="scale(0.195312 0.195312)" d="M332.908 236.232C337.51 236.637 350.367 236.685 355.005 236.232L355.005 258.619L332.908 258.619L332.908 236.232Z"/>
	<path fill="#C2EEFA" transform="scale(0.195312 0.195312)" d="M289.039 196.468L315.211 196.468C315.621 200.451 315.792 221.384 315.187 225.344C314.688 225.882 314.266 225.762 313.562 225.831C304.501 226.173 295.3 225.838 286.225 225.831C285.966 222.714 285.961 198.858 286.612 197.066C287.309 196.542 288.2 196.56 289.039 196.468Z"/>
	<path fill="#F8B44B" transform="scale(0.195312 0.195312)" d="M289.527 200.218L311.844 200.218L311.844 221.869L289.527 221.869C289.515 214.653 289.627 207.433 289.527 200.218Z"/>
	<path fill="#C2EEFA" transform="scale(0.195312 0.195312)" d="M287.593 232.678L315.211 232.678C315.394 237.272 316.933 261.342 313.562 262.035C308.228 262.621 291.701 262.494 286.225 262.035C285.969 257.71 284.548 233.647 287.593 232.678Z"/>
	<path fill="#03D3FA" transform="scale(0.195312 0.195312)" d="M289.527 236.232L311.844 236.232C311.807 243.621 312.324 251.261 311.844 258.619L289.527 258.619L289.527 236.232Z"/>
	<path fill="#C2EEFA" transform="scale(0.195312 0.195312)" d="M377.087 268.773C386.32 268.675 395.561 268.763 404.795 268.773C404.612 273.388 406.281 297.049 403.445 298.203C395.539 298.08 383.295 297.492 375.639 298.203C375.623 293.505 374.031 269.685 377.087 268.773Z"/>
	<path fill="#8461C2" transform="scale(0.195312 0.195312)" d="M379.184 272.418C386.572 272.403 393.972 272.544 401.358 272.418L401.358 294.263L379.184 294.263L379.184 272.418Z"/>
	<path fill="#C2EEFA" transform="scale(0.195312 0.195312)" d="M286.225 268.773C295.787 269.196 305.619 268.798 315.211 268.773L315.229 287.111C315.23 289.778 316.079 295.971 314.675 298.203C305.604 298.497 294.894 297.428 286.225 298.203C285.727 292.187 285.596 274.708 286.225 268.773Z"/>
	<path fill="#03D3FA" transform="scale(0.195312 0.195312)" d="M289.527 272.418C296.955 272.436 304.424 272.187 311.844 272.418L311.844 294.263L289.527 294.263L289.527 272.418Z"/>
	<path fill="#C2EEFA" transform="scale(0.195312 0.195312)" d="M331.598 268.773C340.484 268.561 349.404 269.098 358.283 268.773C358.668 271.671 358.545 296.014 357.825 297.86L356.938 298.203C352.906 298.053 331.867 298.965 329.838 297.224C329.265 295.217 329.168 271.773 329.613 269.314C330.197 268.861 330.877 268.886 331.598 268.773Z"/>
	<path fill="#8461C2" transform="scale(0.195312 0.195312)" d="M332.908 272.418L355.005 272.418L355.005 294.263L332.908 294.263L332.908 272.418Z"/>
	<path fill="#C2EEFA" transform="scale(0.195312 0.195312)" d="M388.063 304.222C393.636 304.247 399.225 304.021 404.795 304.222C405.052 310.055 405.229 328.646 404.055 332.545C402.184 333.508 395.112 332.746 392.625 332.738C386.961 332.695 381.3 333.012 375.639 332.738C374.995 325.648 375.271 311.43 375.639 304.222C379.743 304.005 383.947 304.2 388.063 304.222Z"/>
	<path fill="#03D3FA" transform="scale(0.195312 0.195312)" d="M379.184 307.804L401.358 307.804C401.177 314.766 402.04 322.108 401.358 329.01C398.685 329.406 395.829 329.061 393.127 329.035L379.184 329.01C379.26 321.944 379.214 314.871 379.184 307.804Z"/>
	<path fill="#C2EEFA" transform="scale(0.195312 0.195312)" d="M330.185 304.222C339.518 303.965 348.943 304.221 358.283 304.222C358.161 308.551 358.967 330.731 357.667 332.738C348.27 332.835 338.864 332.747 329.465 332.738C329.499 329.705 328.649 305.35 330.185 304.222Z"/>
	<path fill="#03D3FA" transform="scale(0.195312 0.195312)" d="M332.908 307.804L355.005 307.804C355.019 314.871 355.096 321.944 355.005 329.01L332.908 329.01L332.908 307.804Z"/>
	<path fill="#C2EEFA" transform="scale(0.195312 0.195312)" d="M289.527 304.222C298.086 304.221 306.653 304.332 315.211 304.222C314.976 313.506 315.093 322.907 315.211 332.197L313.562 332.738C308.046 332.748 291.164 333.459 287.135 331.954C285.255 329.938 286.212 323.881 286.212 321.313L286.225 304.222L289.527 304.222Z"/>
	<path fill="#F47F7F" transform="scale(0.195312 0.195312)" d="M289.527 307.804L311.844 307.804L311.844 329.01L289.527 329.01L289.527 307.804Z"/>
	<path fill="#4A699C" transform="scale(0.195312 0.195312)" d="M332.908 206.243L395.061 206.223C398.498 206.222 402.097 205.989 405.487 206.627C407.489 208.053 406.936 210.431 404.795 211.236L353.157 211.216C348.889 211.211 336.019 211.894 332.917 210.894C330.013 209.958 330.441 207.222 332.908 206.243Z"/>
	<path fill="#F8B44B" transform="scale(0.195312 0.195312)" d="M185.221 170.205C193.59 182.025 180.56 201.524 163.032 198.642C144.574 195.607 140.276 170.521 156.107 159.702C163.861 154.403 176.323 155.838 181.794 163.769C185.327 164.458 187.745 166.733 185.221 170.205Z"/>
	<path fill="#4A699C" transform="scale(0.195312 0.195312)" d="M181.794 163.769C185.327 164.458 187.745 166.733 185.221 170.205C180.342 175.203 173.743 182.814 168.67 187.174C163.316 191.776 155.375 181.263 155.224 179.117C154.65 170.958 162.694 177.459 165.027 179.851C167.726 176.589 178.45 165.054 181.794 163.769Z"/>
	<path fill="#6782B4" transform="scale(0.195312 0.195312)" d="M142.58 277.201L234.786 277.195C239.592 277.195 246.146 276.516 250.655 277.872C253.454 280.966 252.597 285.022 248.568 286.236L142.118 286.236C138.226 283.752 137.285 278.955 142.58 277.201Z"/>
	<path fill="#6782B4" transform="scale(0.195312 0.195312)" d="M149.319 235.167L238.458 235.16C241.506 235.155 244.662 234.912 247.695 235.072C251.949 235.297 257.814 243.422 243.813 244.257L156.249 244.263C152.823 244.262 143.494 245.318 140.835 242.958C139.078 241.399 138.535 238.021 140.364 236.291C142.274 234.484 146.865 235.124 149.319 235.167Z"/>
	<path fill="#6782B4" transform="scale(0.195312 0.195312)" d="M149.319 213.826L239.251 213.818C242.2 213.813 245.604 213.476 248.509 213.838C251.723 214.238 257.777 223.528 242.875 222.845L154.335 222.863C149.566 222.866 139.444 225.046 139.142 217.994C138.928 212.998 146.111 213.845 149.319 213.826Z"/>
	<path fill="#6782B4" transform="scale(0.195312 0.195312)" d="M151.415 256.169L249.534 256.169C251.146 257.286 252.351 258.609 252.339 260.707C252.303 266.83 243.851 265.215 239.875 265.112L152.873 265.111C149.187 265.113 143.17 266.343 140.254 263.415C133.194 256.327 148.343 256.141 151.415 256.169Z"/>
	<path fill="#6782B4" transform="scale(0.195312 0.195312)" d="M142.58 298.203L208.49 298.204C214.211 298.204 246.364 297.546 249.512 298.736C254.031 300.444 252.346 305.833 248.568 307.157L155.595 307.172C152.538 307.185 141.471 308.676 139.815 305.283C138.339 302.257 139.64 299.536 142.58 298.203Z"/>
	<path fill="#6782B4" transform="scale(0.195312 0.195312)" d="M207.258 184.175L233.026 184.17C237.449 184.168 242.007 183.904 246.414 184.157C253.854 184.585 253.602 192.376 247.59 193.133C236.44 193.372 217.902 194.151 207.085 193.084C200.457 192.431 200.896 184.497 207.258 184.175Z"/>
	<path fill="#6782B4" transform="scale(0.195312 0.195312)" d="M207.258 163.769L232.539 163.78C236.3 163.761 256.932 161.279 251.431 170.508C250.545 171.994 249.191 172.391 247.59 172.745L220.163 172.741C216.133 172.742 211.822 173.107 207.824 172.782C200.766 172.209 200.51 164.804 207.258 163.769Z"/>
	<defs>
		<linearGradient id="gradient_2" gradientUnits="userSpaceOnUse" x1="58.818306" y1="326.54385" x2="145.65834" y2="349.95602">
			<stop offset="0" stop-color="#D9E0E5"/>
			<stop offset="1" stop-color="#C0E0F0"/>
		</linearGradient>
	</defs>
	<path fill="url(#gradient_2)" transform="scale(0.195312 0.195312)" d="M108.754 244.745L108.74 129.708C108.713 104.501 111.765 104.144 138.741 104.173C148.321 104.183 157.91 104.29 167.49 104.187L167.49 112.351L139.425 112.338C133.683 112.339 117.692 109.858 117.133 118.461C116.546 127.51 116.973 136.841 116.972 145.923L116.938 341.377C116.941 341.783 116.959 342.187 116.976 342.592C118.045 343.89 119.159 344.844 120.586 345.746L267.19 345.746C268.82 349.906 271.17 351.325 274.384 354.016C271.236 354.194 267.995 354.036 264.837 354.033L246.287 354.016C244.639 354.07 242.983 354.03 241.333 354.016L241.333 434.999C239.079 435.159 236.697 435.004 234.433 435.003L149.417 435.02C144.957 435.059 140.288 435.595 135.869 434.999L133.959 434.999C130.778 434.46 126.764 434.727 123.571 434.999L121.703 434.57C113.439 433.515 107.656 425.808 102.168 420.339L82.907 401.053C75.4922 393.489 76.1529 389.694 76.2486 379.589L76.2443 277.314C76.2458 261.724 73.5318 249.225 91.4328 244.257C97.2486 244.107 102.993 244.825 108.754 244.745Z"/>
	<path fill="#FEE89E" transform="scale(0.195312 0.195312)" d="M142.58 354.016L198.998 354.016L233.258 354.016C235.95 354.048 238.642 354.098 241.333 354.016L241.333 434.999C239.079 435.159 236.697 435.004 234.433 435.003L149.417 435.02C144.957 435.059 140.288 435.595 135.869 434.999L133.959 434.999L133.959 354.016L133.959 354.016L142.58 354.016Z"/>
	<path fill="#F47F7F" transform="scale(0.195312 0.195312)" d="M198.998 354.016L233.258 354.016C233.087 358.955 233.892 386.73 232.909 388.821L232.39 389.003C229.371 388.017 219.512 378.442 216.526 375.757C213.277 378.234 210.124 380.912 207.011 383.561C196.206 392.753 198.999 388.684 199.001 376.109L198.998 354.016Z"/>
	<path fill="#F47F7F" transform="scale(0.195312 0.195312)" d="M133.959 354.016L142.58 354.016L142.58 434.999L135.869 434.999L133.959 434.999L133.959 354.016L133.959 354.016Z"/>
	<path fill="#ECF5F9" transform="scale(0.195312 0.195312)" d="M152.354 374.722C160.074 374.31 183.656 371.527 187.184 378.629C186.293 380.683 185.307 381.969 183.524 383.287C178.515 383.333 155.473 383.807 152.342 382.917C146.723 381.318 147.928 376.689 152.354 374.722Z"/>
	<path fill="#ECF5F9" transform="scale(0.195312 0.195312)" d="M152.354 389.76C160.195 389.565 175.555 388.932 183.107 389.891C188.494 390.574 187.433 397.17 182.711 398.011C172.291 398.177 161.839 398.023 151.415 398.011C147.497 395.532 147.075 390.951 152.354 389.76Z"/>
	<path fill="#4A699C" transform="scale(0.195312 0.195312)" d="M108.754 244.745L108.74 129.708C108.713 104.501 111.765 104.144 138.741 104.173C148.321 104.183 157.91 104.29 167.49 104.187L167.49 112.351L139.425 112.338C133.683 112.339 117.692 109.858 117.133 118.461C116.546 127.51 116.973 136.841 116.972 145.923L116.938 341.377C116.941 341.783 116.959 342.187 116.976 342.592C118.045 343.89 119.159 344.844 120.586 345.746L267.19 345.746C268.82 349.906 271.17 351.325 274.384 354.016C271.236 354.194 267.995 354.036 264.837 354.033L246.287 354.016C244.639 354.07 242.983 354.03 241.333 354.016C238.642 354.098 235.95 354.048 233.258 354.016L198.998 354.016L142.58 354.016L133.959 354.016L124.894 354.044C110.027 354.067 108.7 344.879 108.736 332.476L108.754 262.035L108.754 244.745Z"/>
	<path fill="#ECF5F9" transform="scale(0.195312 0.195312)" d="M76.2486 379.589C88.8268 359.429 116.562 366.314 121.034 386.416C124.193 400.619 120.151 419.862 121.703 434.57C113.439 433.515 107.656 425.808 102.168 420.339L82.907 401.053C75.4922 393.489 76.1529 389.694 76.2486 379.589Z"/>
	<path fill="#ECF5F9" transform="scale(0.195312 0.195312)" d="M123.571 354.016L133.959 354.016L133.959 434.999C130.778 434.46 126.764 434.727 123.571 434.999L123.571 354.016Z"/>
	<path fill="#8ACEF6" transform="scale(0.195312 0.195312)" d="M91.4328 244.257C97.2486 244.107 102.993 244.825 108.754 244.745L108.754 262.035C108.632 260.858 108.636 259.797 108.754 258.619C101.033 246.798 95.5638 248.658 91.4328 244.257Z"/>
	<path fill="#F47F7F" transform="scale(0.195312 0.195312)" d="M220.023 87.491C221.613 63.0975 255.186 66.367 254.756 87.491L283.757 87.4801C301.462 87.4869 305.187 84.938 305.699 104.187C305.559 108.918 303.692 112.365 308.303 112.351C303.661 112.469 305.812 117.703 305.699 122.636C305.875 140.956 297.689 137.625 283.687 137.628L202.397 137.633C192.664 137.633 168.221 142.081 167.49 129.025C166.926 125.284 167.297 116.167 167.49 112.351L167.49 104.187C168.087 89.306 167.615 87.4927 183.729 87.4907L197.95 87.494C204.821 87.496 213.36 86.9823 220.023 87.491ZM246.287 87.491C244.225 76.3233 232.229 74.9346 228.483 87.491C234.265 87.8864 240.486 87.6245 246.287 87.491Z"/>
	<path fill="#C97188" transform="scale(0.195312 0.195312)" d="M167.49 117.158L305.699 117.158C305.586 118.934 305.338 120.887 305.699 122.636C305.875 140.956 297.689 137.625 283.687 137.628L202.397 137.633C192.664 137.633 168.221 142.081 167.49 129.025C167.658 125.096 167.495 121.095 167.49 117.158Z"/>
	<path fill="#4A699C" transform="scale(0.195312 0.195312)" d="M220.023 87.491C221.613 63.0975 255.186 66.367 254.756 87.491L246.287 87.491C244.225 76.3233 232.229 74.9346 228.483 87.491C225.624 87.1997 222.883 87.2889 220.023 87.491Z"/>
	<path fill="#4A699C" transform="scale(0.195312 0.195312)" d="M305.699 104.187L340.085 104.201C364.447 104.199 367.41 102.605 367.386 130.846L367.366 161.524C364.69 161.285 361.917 161.357 359.241 161.524L359.259 132.083C359.262 109.77 360.901 112.332 340.834 112.341L308.303 112.351C303.692 112.365 305.559 108.918 305.699 104.187Z"/>
	<path fill="#71DC8A" transform="scale(0.195312 0.195312)" d="M428.886 124.465Q429.085 124.413 429.286 124.375Q429.488 124.337 429.691 124.312Q429.895 124.287 430.1 124.275Q430.305 124.263 430.51 124.265Q430.715 124.267 430.92 124.283Q431.125 124.298 431.328 124.327Q431.531 124.356 431.732 124.398Q431.933 124.441 432.13 124.496Q432.328 124.552 432.521 124.62Q432.715 124.688 432.904 124.769Q433.092 124.85 433.275 124.943Q433.458 125.036 433.634 125.141Q433.81 125.246 433.98 125.363Q434.149 125.479 434.31 125.606Q434.471 125.733 434.623 125.871Q434.775 126.009 434.918 126.156Q435.061 126.303 435.194 126.46Q435.327 126.616 435.449 126.781Q435.571 126.946 435.682 127.118Q435.793 127.291 435.893 127.47Q435.992 127.65 436.08 127.835Q436.167 128.021 436.242 128.212Q436.318 128.403 436.38 128.599Q436.442 128.794 436.491 128.993Q436.541 129.193 436.577 129.395Q436.613 129.597 436.636 129.801Q436.658 130.005 436.668 130.21Q436.677 130.415 436.672 130.62Q436.668 130.825 436.65 131.029Q436.632 131.234 436.601 131.437Q436.57 131.639 436.525 131.84Q436.481 132.04 436.423 132.237Q436.365 132.434 436.295 132.627Q436.224 132.82 436.141 133.007Q436.058 133.195 435.963 133.377Q435.867 133.559 435.76 133.734Q435.653 133.909 435.535 134.077Q435.417 134.244 435.287 134.404Q435.158 134.563 435.019 134.714Q434.879 134.865 434.73 135.006Q434.581 135.147 434.423 135.278Q434.265 135.409 434.099 135.529Q433.933 135.65 433.759 135.759Q433.585 135.868 433.404 135.965Q433.224 136.063 433.037 136.148Q432.85 136.233 432.658 136.306Q432.466 136.379 432.27 136.439Q432.074 136.499 431.874 136.546Q431.726 136.581 431.577 136.608Q431.428 136.636 431.278 136.656Q431.128 136.676 430.977 136.689Q430.825 136.701 430.674 136.707Q430.522 136.712 430.371 136.71Q430.219 136.708 430.068 136.699Q429.916 136.69 429.766 136.673Q429.615 136.656 429.465 136.632Q429.316 136.608 429.167 136.577Q429.019 136.546 428.872 136.507Q428.726 136.469 428.581 136.423Q428.436 136.378 428.294 136.325Q428.152 136.273 428.012 136.213Q427.873 136.154 427.736 136.088Q427.6 136.022 427.467 135.949Q427.334 135.876 427.205 135.797Q427.075 135.718 426.95 135.633Q426.825 135.547 426.704 135.456Q426.582 135.365 426.466 135.268Q426.35 135.171 426.238 135.068Q426.126 134.965 426.02 134.857Q425.913 134.749 425.812 134.636Q425.711 134.523 425.616 134.405Q425.52 134.288 425.431 134.165Q425.341 134.043 425.258 133.916Q425.174 133.79 425.097 133.659Q425.02 133.529 424.949 133.395Q424.878 133.261 424.814 133.124Q424.749 132.986 424.692 132.846Q424.635 132.706 424.584 132.563Q424.533 132.42 424.49 132.274Q424.446 132.129 424.41 131.982Q424.374 131.835 424.344 131.686Q424.315 131.537 424.293 131.387Q424.272 131.237 424.257 131.086Q424.242 130.935 424.235 130.784Q424.228 130.632 424.228 130.481Q424.228 130.329 424.236 130.178Q424.243 130.026 424.258 129.875Q424.273 129.725 424.295 129.575Q424.318 129.425 424.347 129.276Q424.377 129.127 424.414 128.98Q424.45 128.833 424.494 128.688Q424.538 128.543 424.589 128.4Q424.64 128.257 424.698 128.117Q424.755 127.977 424.82 127.839Q424.884 127.702 424.955 127.568Q425.027 127.434 425.104 127.304Q425.182 127.174 425.266 127.048Q425.349 126.921 425.439 126.799Q425.529 126.677 425.625 126.559Q425.721 126.442 425.822 126.329Q425.923 126.216 426.03 126.109Q426.137 126.001 426.249 125.898Q426.36 125.796 426.477 125.699Q426.594 125.602 426.715 125.511Q426.836 125.42 426.962 125.335Q427.087 125.25 427.217 125.172Q427.346 125.093 427.48 125.02Q427.613 124.948 427.749 124.882Q427.886 124.816 428.026 124.757Q428.165 124.698 428.308 124.646Q428.45 124.594 428.595 124.548Q428.739 124.503 428.886 124.465Z"/>
	<path fill="#FEE89E" transform="scale(0.195312 0.195312)" d="M89.1703 219.082Q89.318 219.059 89.4666 219.043Q89.6152 219.028 89.7644 219.019Q89.9137 219.011 90.0631 219.01Q90.2125 219.009 90.3618 219.015Q90.5112 219.021 90.66 219.035Q90.8088 219.048 90.9568 219.069Q91.1048 219.09 91.2516 219.118Q91.3984 219.146 91.5436 219.181Q91.6889 219.216 91.8323 219.259Q91.9756 219.301 92.1167 219.35Q92.2579 219.399 92.3964 219.455Q92.535 219.511 92.6706 219.574Q92.8063 219.637 92.9387 219.706Q93.0711 219.775 93.2 219.851Q93.3289 219.926 93.4539 220.008Q93.5789 220.09 93.6998 220.178Q93.8206 220.266 93.9371 220.36Q94.0535 220.453 94.1652 220.553Q94.2769 220.652 94.3836 220.757Q94.4904 220.861 94.5918 220.971Q94.6933 221.081 94.7893 221.195Q94.8853 221.31 94.9756 221.429Q95.0659 221.548 95.1502 221.671Q95.2346 221.795 95.3128 221.922Q95.391 222.049 95.4629 222.18Q95.5348 222.311 95.6002 222.446Q95.6656 222.58 95.7243 222.717Q95.7831 222.855 95.8351 222.995Q95.887 223.135 95.9321 223.278Q95.9772 223.42 96.0152 223.565Q96.0532 223.709 96.0842 223.855Q96.1151 224.001 96.1388 224.149Q96.1625 224.297 96.179 224.445Q96.1955 224.594 96.2047 224.743Q96.2139 224.892 96.2159 225.041Q96.2178 225.191 96.2124 225.34Q96.207 225.49 96.1943 225.638Q96.1816 225.787 96.1616 225.935Q96.1416 226.084 96.1145 226.231Q96.0873 226.377 96.0529 226.523Q96.0186 226.668 95.9772 226.812Q95.9358 226.956 95.8874 227.097Q95.8391 227.238 95.7838 227.377Q95.7286 227.516 95.6666 227.652Q95.6047 227.788 95.5362 227.921Q95.4676 228.054 95.3927 228.183Q95.3177 228.312 95.2366 228.438Q95.1554 228.563 95.0682 228.685Q94.981 228.806 94.8879 228.923Q94.7949 229.04 94.6962 229.152Q94.5976 229.264 94.4936 229.372Q94.3895 229.479 94.2804 229.581Q94.1713 229.683 94.0573 229.78Q93.9433 229.877 93.8247 229.968Q93.7061 230.058 93.5832 230.144Q93.4603 230.229 93.3334 230.307Q93.2065 230.386 93.0759 230.459Q92.9453 230.532 92.8112 230.598Q92.6772 230.664 92.5402 230.724Q92.4031 230.783 92.2632 230.836Q92.1234 230.889 91.9812 230.934Q91.8389 230.98 91.6946 231.019Q91.5503 231.058 91.4043 231.09Q91.2582 231.121 91.1108 231.146Q90.9623 231.171 90.8128 231.188Q90.6633 231.206 90.5131 231.216Q90.3629 231.226 90.2124 231.228Q90.062 231.231 89.9115 231.226Q89.7611 231.221 89.6111 231.209Q89.461 231.197 89.3118 231.177Q89.1626 231.158 89.0145 231.131Q88.8664 231.104 88.7198 231.07Q88.5732 231.035 88.4285 230.994Q88.2837 230.953 88.1412 230.904Q87.9987 230.856 87.8587 230.801Q87.7188 230.745 87.5817 230.683Q87.4447 230.621 87.3108 230.552Q87.177 230.483 87.0467 230.408Q86.9164 230.332 86.79 230.251Q86.6636 230.169 86.5414 230.081Q86.4192 229.993 86.3014 229.899Q86.1836 229.806 86.0706 229.706Q85.9576 229.607 85.8497 229.502Q85.7417 229.397 85.639 229.287Q85.5364 229.177 85.4392 229.062Q85.3421 228.947 85.2507 228.827Q85.1594 228.708 85.0741 228.584Q84.9887 228.46 84.9096 228.332Q84.8304 228.204 84.7577 228.072Q84.685 227.94 84.6188 227.805Q84.5526 227.67 84.4932 227.531Q84.4338 227.393 84.3812 227.252Q84.3287 227.111 84.2832 226.968Q84.2376 226.824 84.1992 226.679Q84.1608 226.533 84.1296 226.386Q84.0984 226.239 84.0745 226.09Q84.0506 225.941 84.034 225.792Q84.0175 225.642 84.0083 225.492Q83.9991 225.342 83.9974 225.191Q83.9956 225.041 84.0012 224.89Q84.0069 224.74 84.0199 224.59Q84.033 224.44 84.0534 224.291Q84.0738 224.142 84.1016 223.994Q84.1293 223.846 84.1643 223.699Q84.1993 223.553 84.2414 223.408Q84.2836 223.264 84.3328 223.122Q84.382 222.979 84.4382 222.84Q84.4944 222.7 84.5574 222.563Q84.6203 222.427 84.69 222.293Q84.7596 222.16 84.8357 222.03Q84.9118 221.9 84.9942 221.774Q85.0767 221.648 85.1652 221.526Q85.2537 221.405 85.3481 221.287Q85.4425 221.17 85.5426 221.058Q85.6427 220.945 85.7482 220.838Q85.8537 220.731 85.9643 220.629Q86.0749 220.526 86.1905 220.43Q86.306 220.333 86.4262 220.243Q86.5463 220.152 86.6708 220.067Q86.7953 219.983 86.9237 219.904Q87.0522 219.826 87.1844 219.754Q87.3166 219.682 87.4522 219.617Q87.5878 219.551 87.7264 219.493Q87.865 219.434 88.0064 219.382Q88.1477 219.33 88.2915 219.286Q88.4352 219.241 88.5809 219.203Q88.7267 219.166 88.8741 219.135Q89.0216 219.105 89.1703 219.082Z"/>
	<path fill="#71DC8A" transform="scale(0.195312 0.195312)" d="M148.191 70.0829Q148.332 70.0679 148.474 70.0598Q148.616 70.0517 148.758 70.0505Q148.9 70.0492 149.042 70.0549Q149.184 70.0606 149.325 70.0731Q149.466 70.0856 149.607 70.105Q149.748 70.1244 149.887 70.1506Q150.027 70.1767 150.165 70.2097Q150.303 70.2426 150.439 70.2822Q150.576 70.3217 150.71 70.3679Q150.844 70.414 150.976 70.4667Q151.108 70.5193 151.237 70.5782Q151.367 70.6371 151.493 70.7023Q151.619 70.7674 151.742 70.8386Q151.865 70.9098 151.984 70.9869Q152.103 71.0639 152.219 71.1467Q152.334 71.2294 152.445 71.3177Q152.556 71.4059 152.663 71.4995Q152.77 71.593 152.872 71.6917Q152.974 71.7903 153.072 71.8937Q153.169 71.9972 153.261 72.1052Q153.353 72.2133 153.44 72.3257Q153.527 72.4381 153.608 72.5546Q153.689 72.671 153.765 72.7913Q153.84 72.9116 153.91 73.0354Q153.979 73.1592 154.043 73.2862Q154.106 73.4132 154.163 73.5432Q154.221 73.6731 154.271 73.8057Q154.322 73.9383 154.367 74.0732Q154.411 74.208 154.449 74.3449Q154.487 74.4818 154.518 74.6204Q154.549 74.7589 154.573 74.8988Q154.597 75.0387 154.615 75.1796Q154.633 75.3205 154.643 75.4621Q154.654 75.6037 154.658 75.7456Q154.661 75.8876 154.658 76.0295Q154.655 76.1715 154.645 76.3131Q154.635 76.4548 154.618 76.5958Q154.602 76.7368 154.578 76.8768Q154.554 77.0168 154.524 77.1555Q154.493 77.2942 154.456 77.4312Q154.419 77.5683 154.375 77.7034Q154.332 77.8385 154.281 77.9713Q154.231 78.1041 154.175 78.2343Q154.118 78.3645 154.055 78.4919Q153.992 78.6192 153.923 78.7433Q153.854 78.8674 153.78 78.9881Q153.705 79.1087 153.624 79.2256Q153.543 79.3424 153.457 79.4552Q153.371 79.568 153.279 79.6765Q153.188 79.785 153.091 79.889Q152.994 79.9929 152.892 80.092Q152.791 80.1911 152.684 80.2851Q152.578 80.3792 152.467 80.468Q152.356 80.5568 152.241 80.6401Q152.126 80.7234 152.008 80.801Q151.889 80.8786 151.766 80.9504Q151.644 81.0222 151.518 81.088Q151.392 81.1537 151.263 81.2133Q151.134 81.2728 151.002 81.3261Q150.871 81.3793 150.737 81.4261Q150.603 81.4729 150.467 81.5131Q150.33 81.5534 150.192 81.587Q150.054 81.6205 149.915 81.6474Q149.776 81.6742 149.635 81.6943Q149.443 81.7217 149.25 81.7363Q149.057 81.7509 148.863 81.7527Q148.669 81.7545 148.476 81.7435Q148.282 81.7325 148.09 81.7087Q147.898 81.6849 147.708 81.6485Q147.517 81.612 147.33 81.563Q147.142 81.5141 146.958 81.4528Q146.775 81.3916 146.595 81.3183Q146.416 81.245 146.242 81.16Q146.068 81.075 145.9 80.9787Q145.731 80.8824 145.57 80.7751Q145.409 80.6679 145.255 80.5502Q145.101 80.4326 144.955 80.305Q144.809 80.1774 144.672 80.0404Q144.535 79.9034 144.407 79.7577Q144.28 79.612 144.162 79.4581Q144.044 79.3043 143.937 79.143Q143.83 78.9817 143.733 78.8136Q143.637 78.6456 143.552 78.4715Q143.466 78.2974 143.393 78.1181Q143.32 77.9388 143.258 77.7551Q143.197 77.5713 143.148 77.3839Q143.099 77.1964 143.062 77.0062Q143.025 76.8159 143.002 76.6236Q142.978 76.4314 142.966 76.2379Q142.955 76.0445 142.957 75.8507Q142.959 75.657 142.973 75.4638Q142.988 75.2706 143.015 75.0787Q143.042 74.8869 143.082 74.6973Q143.122 74.5077 143.174 74.3211Q143.226 74.1346 143.291 73.9519Q143.356 73.7692 143.432 73.5912Q143.509 73.4132 143.597 73.2406Q143.685 73.0681 143.784 72.9017Q143.883 72.7353 143.994 72.5759Q144.104 72.4165 144.224 72.2647Q144.345 72.1129 144.475 71.9694Q144.605 71.8259 144.744 71.6914Q144.884 71.5568 145.032 71.4318Q145.18 71.3067 145.336 71.1918Q145.492 71.0768 145.655 70.9724Q145.818 70.868 145.988 70.7746Q146.158 70.6812 146.333 70.5993Q146.509 70.5173 146.69 70.4472Q146.87 70.3771 147.055 70.319Q147.24 70.261 147.428 70.2153Q147.617 70.1696 147.807 70.1365Q147.998 70.1033 148.191 70.0829Z"/>
	<path fill="#71DC8A" transform="scale(0.195312 0.195312)" d="M82.5613 422.09Q82.6988 422.089 82.8362 422.094Q82.9735 422.1 83.1105 422.112Q83.2474 422.124 83.3837 422.143Q83.5199 422.161 83.655 422.186Q83.7901 422.212 83.9239 422.244Q84.0576 422.275 84.1897 422.314Q84.3218 422.352 84.4518 422.397Q84.5818 422.441 84.7095 422.492Q84.8373 422.543 84.9624 422.6Q85.0875 422.657 85.2097 422.72Q85.3319 422.783 85.4509 422.852Q85.5699 422.921 85.6854 422.995Q85.8009 423.07 85.9127 423.15Q86.0245 423.23 86.1322 423.315Q86.24 423.401 86.3435 423.491Q86.4469 423.582 86.5459 423.677Q86.6449 423.772 86.7391 423.873Q86.8334 423.973 86.9226 424.077Q87.0119 424.182 87.096 424.291Q87.1801 424.399 87.2588 424.512Q87.3375 424.625 87.4107 424.741Q87.4838 424.858 87.5512 424.977Q87.6187 425.097 87.6802 425.22Q87.7417 425.343 87.7972 425.469Q87.8527 425.595 87.9021 425.723Q87.9514 425.851 87.9945 425.982Q88.0375 426.113 88.0742 426.245Q88.1109 426.378 88.1411 426.512Q88.1713 426.646 88.195 426.781Q88.2186 426.917 88.2357 427.053Q88.2528 427.189 88.2632 427.327Q88.2736 427.464 88.2774 427.601Q88.2812 427.738 88.2783 427.876Q88.2754 428.013 88.2659 428.15Q88.2563 428.288 88.2401 428.424Q88.224 428.561 88.2012 428.696Q88.1784 428.832 88.1491 428.966Q88.1197 429.1 88.0839 429.233Q88.0481 429.366 88.0059 429.497Q87.9637 429.628 87.9152 429.756Q87.8667 429.885 87.812 430.011Q87.7573 430.137 87.6966 430.26Q87.6359 430.384 87.5692 430.504Q87.5026 430.624 87.4302 430.741Q87.3578 430.858 87.2798 430.971Q87.2018 431.085 87.1185 431.194Q87.0351 431.303 86.9465 431.408Q86.8579 431.513 86.7644 431.614Q86.6708 431.715 86.5724 431.811Q86.4741 431.907 86.3712 431.998Q86.2683 432.089 86.1611 432.175Q86.0539 432.262 85.9427 432.342Q85.8314 432.423 85.7164 432.498Q85.6014 432.574 85.4828 432.643Q85.3643 432.713 85.2425 432.777Q85.1207 432.841 84.996 432.898Q84.8713 432.956 84.7439 433.008Q84.6165 433.06 84.4868 433.105Q84.357 433.151 84.2252 433.19Q84.0934 433.229 83.9599 433.262Q83.8264 433.294 83.6914 433.32Q83.5564 433.346 83.4203 433.366Q83.2843 433.386 83.1474 433.399Q83.0105 433.412 82.8732 433.418Q82.4978 433.435 82.1234 433.403Q81.749 433.37 81.3822 433.289Q81.0153 433.207 80.6625 433.078Q80.3096 432.948 79.9769 432.774Q79.6443 432.599 79.3376 432.382Q79.0309 432.164 78.7556 431.909Q78.4803 431.653 78.2412 431.363Q78.002 431.073 77.8033 430.754Q77.6046 430.435 77.4497 430.093Q77.2948 429.75 77.1864 429.39Q77.0781 429.031 77.0182 428.66Q76.9584 428.289 76.948 427.913Q76.9377 427.537 76.9771 427.163Q77.0164 426.79 77.1048 426.424Q77.1931 426.059 77.329 425.709Q77.4648 425.358 77.6457 425.029Q77.8266 424.7 78.0494 424.397Q78.2722 424.094 78.533 423.824Q78.7938 423.553 79.0881 423.319Q79.3823 423.086 79.7049 422.893Q80.0275 422.7 80.3726 422.551Q80.7178 422.403 81.0796 422.301Q81.4414 422.199 81.8135 422.146Q82.1855 422.093 82.5613 422.09Z"/>
	<path fill="#C2EEFA" transform="scale(0.195312 0.195312)" d="M83.7228 179.851C91.2649 177.883 93.0238 186.374 86.6378 189.633C80.1774 190.524 76.5946 181.897 83.7228 179.851Z"/>
	<path fill="#8ACEF6" transform="scale(0.195312 0.195312)" d="M421.304 369.558C428.086 370.181 428.929 378.047 422.678 380.111C415.91 379.91 414.407 370.89 421.304 369.558Z"/>
	<path fill="#C2EEFA" transform="scale(0.195312 0.195312)" d="M393.636 94.7379Q393.754 94.7073 393.874 94.6824Q393.994 94.6575 394.115 94.6385Q394.235 94.6194 394.357 94.6063Q394.479 94.5931 394.601 94.5858Q394.723 94.5785 394.845 94.5772Q394.967 94.5759 395.09 94.5804Q395.212 94.585 395.334 94.5955Q395.455 94.606 395.577 94.6224Q395.698 94.6388 395.818 94.661Q395.938 94.6832 396.057 94.7113Q396.176 94.7393 396.294 94.773Q396.412 94.8068 396.527 94.8462Q396.643 94.8856 396.757 94.9306Q396.871 94.9756 396.982 95.026Q397.093 95.0765 397.202 95.1322Q397.311 95.188 397.417 95.249Q397.523 95.31 397.626 95.376Q397.729 95.442 397.829 95.513Q397.928 95.5839 398.024 95.6596Q398.12 95.7353 398.213 95.8156Q398.305 95.8958 398.393 95.9805Q398.481 96.0651 398.566 96.1539Q398.65 96.2427 398.729 96.3355Q398.809 96.4282 398.884 96.5248Q398.959 96.6213 399.029 96.7213Q399.1 96.8214 399.165 96.9247Q399.231 97.0281 399.291 97.1344Q399.351 97.2408 399.406 97.35Q399.462 97.4592 399.511 97.5709Q399.561 97.6826 399.605 97.7966Q399.65 97.9106 399.688 98.0266Q399.727 98.1426 399.76 98.2604Q399.793 98.3781 399.82 98.4974Q399.848 98.6166 399.869 98.737Q399.891 98.8574 399.906 98.9787Q399.922 99.1 399.932 99.2219Q399.941 99.3438 399.945 99.4661Q399.949 99.5883 399.947 99.7106Q399.945 99.8329 399.937 99.955Q399.929 100.077 399.915 100.199Q399.901 100.32 399.881 100.441Q399.861 100.561 399.836 100.681Q399.81 100.801 399.779 100.919Q399.747 101.037 399.71 101.154Q399.673 101.27 399.631 101.385Q399.588 101.499 399.54 101.612Q399.492 101.724 399.438 101.834Q399.384 101.944 399.326 102.051Q399.267 102.159 399.203 102.263Q399.139 102.367 399.07 102.468Q399.001 102.569 398.927 102.667Q398.854 102.764 398.775 102.858Q398.697 102.952 398.614 103.042Q398.531 103.132 398.444 103.218Q398.357 103.304 398.266 103.385Q398.175 103.467 398.08 103.544Q397.985 103.621 397.886 103.693Q397.787 103.766 397.685 103.833Q397.583 103.901 397.478 103.963Q397.373 104.026 397.265 104.083Q397.157 104.14 397.046 104.192Q396.936 104.244 396.823 104.291Q396.709 104.337 396.594 104.379Q396.479 104.42 396.362 104.455Q396.041 104.552 395.711 104.606Q395.38 104.659 395.045 104.669Q394.71 104.678 394.377 104.644Q394.044 104.609 393.718 104.53Q393.392 104.452 393.08 104.331Q392.767 104.21 392.474 104.049Q392.18 103.888 391.91 103.689Q391.64 103.49 391.399 103.258Q391.158 103.026 390.949 102.763Q390.741 102.501 390.569 102.213Q390.397 101.926 390.264 101.618Q390.132 101.31 390.041 100.987Q389.951 100.665 389.904 100.333Q389.857 100.001 389.854 99.6663Q389.851 99.3312 389.892 98.9987Q389.934 98.6662 390.019 98.3421Q390.104 98.018 390.231 97.708Q390.359 97.398 390.526 97.1075Q390.693 96.817 390.897 96.5512Q391.101 96.2854 391.338 96.0489Q391.575 95.8123 391.842 95.6093Q392.109 95.4062 392.4 95.2401Q392.691 95.0741 393.001 94.948Q393.312 94.8219 393.636 94.7379Z"/>
	<path fill="#F8B44B" transform="scale(0.195312 0.195312)" d="M411.253 414.002C417.832 414.276 418.134 421.272 412.576 423.359C406.901 424.187 406.164 416.74 411.253 414.002Z"/>
</svg>
