<?xml version="1.0" encoding="utf-8" ?>
<svg xmlns="http://www.w3.org/2000/svg" xmlns:xlink="http://www.w3.org/1999/xlink" width="100" height="100">
	<path fill="#324B66" transform="scale(0.195312 0.195312)" d="M247.567 53.7576C299.75 52.0934 350.725 69.7245 389.704 104.918C427.701 139.224 453.755 189.397 456.352 240.851C456.722 248.177 454.623 255.255 445.843 255.122C434.563 254.95 435.578 241.316 434.781 233.515C429.744 184.181 402.268 138.484 362.467 109.232C336.217 89.9392 298.95 75.1964 265.81 75.2241C265.706 82.2295 267.496 100.99 263.148 105.42C259.593 109.041 252.804 108.707 249.334 105.153C245.543 101.271 246.511 95.0507 246.519 90.1246L246.548 75.2241C237.893 75.0863 226.985 76.9733 218.498 78.9577C141.05 97.0671 84.4859 162.003 78.8067 242.061C73.7572 313.245 115.285 383.045 179.866 412.851C200.932 422.573 222.663 427.679 245.752 429.296L245.752 422.375C245.752 416.524 244.437 407.401 248.554 402.884C253.578 397.371 263.351 398.133 265.309 406.146C266.474 410.912 265.823 423.857 265.81 429.296C340.568 426.69 408.428 372.357 428.188 300.302C429.229 296.505 429.698 291.334 431.932 288.042C437.591 279.705 450.684 282.912 451.864 293.124C452.43 298.023 450.138 304.136 448.75 308.806C425.867 385.807 361.013 442.172 280.372 451.861C124.396 470.602 7.1535 311.619 75.9286 167.895C105.888 105.286 165.454 63.0186 233.961 55.0733C238.488 54.5482 243.042 54.2904 247.567 53.7576Z"/>
	<path fill="#38A5F2" transform="scale(0.195312 0.195312)" d="M160.443 196.883C178.389 196.156 194.815 207.062 197.499 225.501C201.77 254.846 172.684 268.468 159.53 286.716L159.326 287.003C168.399 287.383 185.58 285.755 193.568 287.419C202.912 289.366 202.725 306.363 193.278 308.073C188.422 308.951 177.919 308.401 172.639 308.401L128.982 308.393L128.363 308.132C123.498 306.039 119.273 300.369 121.98 294.973C123.906 291.133 145.577 270.047 149.961 265.465C158.09 256.968 178.861 239.102 173.083 225.213C170.369 218.688 161.179 216.933 155.258 219.77C148.771 222.878 146.317 231.618 144.064 237.823C136.824 234.684 129.344 232.217 122.032 229.273C128.141 210.158 139.511 198.391 160.443 196.883Z"/>
	<path fill="#38A5F2" transform="scale(0.195312 0.195312)" d="M261.238 198.479C276.617 199.55 272.414 215.222 272.415 226.932L272.405 269.637C276.732 269.896 282.496 268.499 286.02 271.55C289.076 274.197 289.542 279.318 286.667 282.269C283.521 285.499 276.668 284.334 272.405 284.37C272.426 289.173 273.262 301.881 271.131 305.523C268.962 309.23 263.954 310.117 260.45 307.69C253.995 303.218 258.459 291.034 257.05 284.37L230.362 284.383C225.537 284.384 220.567 284.629 215.764 284.266C209.124 283.765 202.95 276.799 206.162 270.124C208.616 265.023 220.491 250.842 224.508 245.541L249.069 213.004C251.581 209.713 257.673 199.802 261.238 198.479ZM224.73 269.637L257.05 269.637L257.065 239.079C257.067 235.034 257.476 229.212 257.05 225.431C250.894 230.726 242.815 243.824 237.693 250.797C233.593 256.379 229.112 261.741 225.156 267.42C224.798 267.934 223.515 269.491 224.73 269.637Z"/>
	<path fill="#38A5F2" transform="scale(0.195312 0.195312)" d="M320.458 198.479L359.378 198.474C367.415 198.474 386.816 195.545 390.219 204.251C392.423 209.889 382.31 226.226 379.312 232.333L349.033 292.961C346.502 298.079 343.863 303.155 341.584 308.393C339.408 308.098 336.915 308.355 334.708 308.362L320.458 308.393L315.562 308.393C317.454 302.573 322.58 293.696 325.531 287.939L356.207 227.568C357.752 224.538 359.531 221.475 360.599 218.241C350.993 217.877 341.239 218.235 331.618 218.241C331.517 223.05 331.617 227.888 331.618 232.7L308.995 232.7C308.375 223.533 308.487 207.719 308.995 198.479L320.458 198.479Z"/>
	<path fill="#38A5F2" transform="scale(0.195312 0.195312)" d="M200.526 116.798C207.039 116.161 211.681 121.443 209.244 127.614C208.163 130.35 197.426 134.935 194.278 136.789C182.174 143.916 170.354 152.757 160.595 162.93C158.226 165.399 156.218 168.42 152.978 169.781C146.965 170.934 140.738 164.956 143.961 158.925C150.351 146.965 188.839 120.516 200.526 116.798Z"/>
	<path fill="#38A5F2" transform="scale(0.195312 0.195312)" d="M360.599 333.32C366.333 334.029 369.486 340.536 366.142 345.28C358.147 356.624 321.384 381.93 310.239 384.018C304.646 384.016 299.506 378.214 303.498 372.967C305.493 370.343 315.319 366.062 318.75 364.143C329.996 357.855 340.906 350.04 349.973 340.821C353.526 337.208 355.388 334.134 360.599 333.32Z"/>
</svg>
