<?xml version="1.0" encoding="utf-8" ?>
<svg xmlns="http://www.w3.org/2000/svg" xmlns:xlink="http://www.w3.org/1999/xlink" width="100" height="100">
	<path fill="#294982" transform="scale(0.195312 0.195312)" d="M312.962 91.5007C304.308 106.96 283.798 105.966 277.458 90.2239C268.672 68.4065 303.836 50.4602 313.897 78.9772C318.555 82.2104 328.717 88.7213 331.749 93.0074L331.749 113.349C339.814 111.592 348.836 110.41 356.764 113.349C357.288 107.397 354.664 95.2052 358.542 90.5711C360.975 87.6637 370.523 81.4326 374.054 78.9772C376.815 68.9934 384.484 63.5065 395.04 64.661C418.544 67.2317 415.787 105.358 389.112 102.005C382.776 101.208 378.486 96.2332 374.804 91.5007C372.288 93.1664 369.638 94.9759 367.435 97.0446L367.435 116.592C386.248 122.508 396.97 144.002 399.362 162.332C404.509 162.35 409.661 162.412 414.807 162.332C421.122 147.397 441.754 146.474 448.221 161.865C457.01 182.782 423.82 199.423 413.763 172.99C409.008 172.743 404.13 172.98 399.362 172.99C397.63 181.995 395.005 190.025 389.861 197.703C396.411 204.539 403.092 211.271 409.773 217.98C419.041 210.936 430.528 211.702 437.387 221.648C446.091 234.27 433.955 252.389 419.147 249.381C409.078 247.337 401.717 237.162 403.991 226.89L390.85 213.812C388.164 211.15 385.181 208.572 382.959 205.508C376.435 213.38 366.448 217.19 356.764 219.538L356.764 287.24L356.764 301.906C356.823 315.462 354.236 326.241 344.367 336.124C331.667 348.844 320.747 347.155 304.975 347.173C305.013 356.743 305.126 364.431 297.954 371.762C286.899 383.061 266.272 379.728 251.077 379.904C255.91 385.919 261.752 391.299 267.187 396.765L294.693 424.308C297.374 426.96 308.986 436.92 309.811 439.806C310.991 443.93 305.949 448.133 302.196 445.877C298.411 443.601 291.669 436.025 288.301 432.659L242.548 386.73C240.231 384.401 238.133 381.782 235.408 379.904C232.403 379.455 230.035 379.494 227.019 379.904C221.224 388.735 217.851 392.382 207.553 395.5C206.821 401.09 209.128 415.377 205.872 419.451C204.003 421.788 200.324 422.177 198.144 420.044C195.481 417.437 196.453 411.714 196.474 408.394L196.464 395.5C187.492 393.009 181.173 387.037 176.946 378.798C174.17 378.727 171.392 378.774 168.616 378.798C161.088 385.351 154.246 392.889 147.24 399.988L117.441 429.707C113.216 433.921 101.145 450.109 95.024 445.14C88.9394 440.2 96.2237 435.378 99.6807 431.901L134.349 397.561C140.693 391.315 147.236 385.231 153.391 378.798C137.147 378.972 120.885 378.784 104.639 378.802L90.0514 378.817C86.7345 378.818 83.2266 379.046 79.9567 378.451C58.5742 374.561 62.764 349.812 62.7548 333.922L62.7419 250.603C62.7308 245.286 62.396 239.724 62.7924 234.432C63.2322 228.563 73.5335 223.683 73.4893 238.758L73.4452 345.616C73.4462 365.116 72.8161 368.234 91.8973 368.239L174.174 368.234L174.174 347.173C117.158 325.981 95.5123 254.746 135.499 207.543C164.59 173.202 213.979 167.353 250.795 192.712C254.482 195.252 257.862 198.196 261.267 201.094C261.316 200.579 261.29 200.093 261.267 199.577C264.927 197.801 268.062 195.152 271.691 193.365C284.688 200.839 294.767 212.633 302.856 225.003C306.592 223.604 310.585 221.671 314.49 220.896L314.919 220.808C315.005 220.791 315.091 220.777 315.177 220.762C323 221.886 329.914 246.171 331.376 252.716C333.142 260.619 324.207 261.294 318.76 263.412L318.76 275.164C322.971 275.773 332.877 277.82 331.928 283.86C331.472 286.757 322.657 310.414 321.288 312.92C318.345 318.308 305.949 311.976 301.398 311.329C290.616 328.123 269.153 339.986 248.888 337.871C242.721 340.363 235.639 344.308 228.988 347.173L228.988 369.616L262.921 369.623C283.695 369.622 294.358 371.808 294.246 347.173C288.812 347.189 260.483 348.134 258.074 345.873C255.758 343.7 256.759 340.458 259.632 339.388C263.09 338.101 293.918 338.621 298.718 338.623C306.611 338.626 315.024 339.121 322.715 337.073C343.636 331.502 346.047 315.474 346.029 297.664L346.025 220.762C285.278 219.913 269.385 141.941 321.51 116.592C321.528 110.108 321.184 103.512 321.51 97.0446C318.631 95.1515 316.103 92.9882 312.962 91.5007Z"/>
	<path fill="#28AAF2" transform="scale(0.195312 0.195312)" d="M271.691 193.365C284.688 200.839 294.767 212.633 302.856 225.003C306.592 223.604 310.585 221.671 314.49 220.896L314.919 220.808C315.005 220.791 315.091 220.777 315.177 220.762C323 221.886 329.914 246.171 331.376 252.716C333.142 260.619 324.207 261.294 318.76 263.412L318.76 275.164C322.971 275.773 332.877 277.82 331.928 283.86C331.472 286.757 322.657 310.414 321.288 312.92C318.345 318.308 305.949 311.976 301.398 311.329C290.616 328.123 269.153 339.986 248.888 337.871C254.93 332.297 260.516 329.295 267.445 322.261C292.418 290.755 297.154 252.827 275.126 217.701C272.807 214.003 270.019 210.591 267.445 207.067C265.287 205.211 263.175 203.209 261.267 201.094C261.316 200.579 261.29 200.093 261.267 199.577C264.927 197.801 268.062 195.152 271.691 193.365Z"/>
	<path fill="#6ACCF7" transform="scale(0.195312 0.195312)" d="M267.445 207.067C273.598 203.534 289.831 225.632 292.272 229.647C300.456 243.107 296.491 238.931 312.044 233.545C314.712 239.248 316.569 245.394 319.36 251.011C315.047 252.649 310.373 254.101 306.269 256.192C307.806 268.437 306.404 271.31 306.269 281.913C310.225 284.535 315.174 284.911 319.36 287.24C316.465 291.303 314.132 298.126 312.962 302.989C307.878 301.554 302.721 299.256 297.561 298.312C294.77 300.871 293.002 304.246 290.712 307.214C282.232 318.202 277.899 319.785 266.614 324.982L265.994 324.924L265.859 324.761C266.513 323.967 267.162 323.275 267.445 322.261C292.418 290.755 297.154 252.827 275.126 217.701C272.807 214.003 270.019 210.591 267.445 207.067Z"/>
	<path fill="#FEDC69" transform="scale(0.195312 0.195312)" d="M197.138 187.986Q199.011 187.872 200.888 187.85Q202.765 187.829 204.641 187.899Q206.516 187.969 208.386 188.132Q210.256 188.294 212.116 188.548Q213.975 188.802 215.82 189.147Q217.665 189.492 219.491 189.927Q221.317 190.362 223.119 190.886Q224.922 191.41 226.696 192.022Q228.47 192.634 230.213 193.332Q231.955 194.031 233.661 194.813Q235.366 195.596 237.032 196.462Q238.697 197.328 240.318 198.274Q241.939 199.221 243.511 200.245Q245.084 201.27 246.604 202.371Q248.124 203.472 249.589 204.646Q251.053 205.82 252.458 207.064Q253.863 208.309 255.206 209.621Q256.548 210.933 257.824 212.309Q259.1 213.685 260.308 215.122Q261.515 216.56 262.65 218.054Q263.785 219.549 264.846 221.098Q265.906 222.646 266.889 224.245Q267.872 225.844 268.776 227.489Q269.68 229.134 270.501 230.822Q271.323 232.509 272.061 234.235Q272.799 235.961 273.451 237.721Q274.103 239.481 274.669 241.27Q275.234 243.06 275.71 244.876Q276.187 246.691 276.574 248.528Q276.961 250.364 277.257 252.218Q277.554 254.071 277.759 255.937Q277.964 257.802 278.077 259.676Q278.19 261.549 278.211 263.426Q278.233 265.303 278.162 267.179Q278.091 269.054 277.928 270.924Q277.765 272.794 277.51 274.654Q277.256 276.513 276.91 278.358Q276.565 280.203 276.129 282.029Q275.694 283.854 275.169 285.657Q274.644 287.459 274.032 289.233Q273.419 291.007 272.72 292.749Q272.022 294.491 271.238 296.197Q270.455 297.902 269.588 299.568Q268.722 301.233 267.775 302.853Q266.828 304.474 265.803 306.046Q264.778 307.618 263.677 309.138Q262.575 310.658 261.401 312.122Q260.226 313.586 258.981 314.991Q257.736 316.395 256.424 317.737Q255.112 319.079 253.735 320.355Q252.358 321.631 250.921 322.838Q249.483 324.044 247.988 325.179Q246.493 326.314 244.944 327.374Q243.395 328.434 241.796 329.417Q240.197 330.399 238.551 331.302Q236.906 332.205 235.218 333.026Q233.53 333.848 231.804 334.585Q230.078 335.322 228.318 335.974Q226.558 336.626 224.768 337.19Q222.978 337.755 221.162 338.231Q219.347 338.707 217.51 339.094Q215.673 339.48 213.82 339.776Q211.966 340.071 210.1 340.276Q208.235 340.48 206.361 340.593Q204.488 340.706 202.612 340.726Q200.736 340.747 198.861 340.675Q196.986 340.604 195.117 340.44Q193.248 340.277 191.389 340.022Q189.531 339.767 187.687 339.422Q185.842 339.076 184.018 338.64Q182.193 338.204 180.391 337.68Q178.59 337.155 176.817 336.542Q175.043 335.93 173.302 335.231Q171.561 334.532 169.856 333.749Q168.151 332.965 166.487 332.099Q164.823 331.233 163.203 330.286Q161.583 329.34 160.011 328.315Q158.44 327.29 156.921 326.189Q155.401 325.088 153.938 323.914Q152.474 322.74 151.07 321.495Q149.666 320.251 148.325 318.939Q146.984 317.627 145.708 316.251Q144.433 314.875 143.226 313.438Q142.02 312.001 140.886 310.507Q139.751 309.013 138.692 307.464Q137.632 305.916 136.65 304.318Q135.667 302.719 134.764 301.074Q133.861 299.43 133.04 297.743Q132.219 296.056 131.482 294.331Q130.744 292.605 130.093 290.846Q129.441 289.087 128.876 287.298Q128.311 285.508 127.835 283.694Q127.359 281.879 126.972 280.043Q126.585 278.207 126.289 276.354Q125.993 274.502 125.788 272.637Q125.583 270.772 125.47 268.899Q125.357 267.026 125.336 265.15Q125.314 263.274 125.385 261.399Q125.456 259.524 125.619 257.655Q125.782 255.786 126.036 253.927Q126.29 252.068 126.636 250.224Q126.981 248.38 127.416 246.555Q127.851 244.73 128.375 242.929Q128.9 241.127 129.512 239.354Q130.124 237.58 130.822 235.839Q131.52 234.097 132.303 232.392Q133.086 230.687 133.951 229.023Q134.817 227.358 135.763 225.738Q136.709 224.118 137.734 222.546Q138.758 220.974 139.859 219.455Q140.959 217.935 142.133 216.471Q143.306 215.007 144.55 213.603Q145.794 212.198 147.106 210.857Q148.417 209.515 149.793 208.239Q151.168 206.963 152.605 205.757Q154.041 204.55 155.535 203.415Q157.029 202.28 158.577 201.22Q160.125 200.16 161.723 199.177Q163.321 198.194 164.966 197.29Q166.61 196.387 168.297 195.565Q169.984 194.744 171.709 194.006Q173.433 193.268 175.193 192.616Q176.952 191.963 178.741 191.398Q180.53 190.833 182.344 190.356Q184.159 189.879 185.995 189.492Q187.83 189.104 189.683 188.808Q191.535 188.511 193.4 188.305Q195.265 188.1 197.138 187.986Z"/>
	<path fill="#294982" transform="scale(0.195312 0.195312)" d="M224.773 234.853C229.91 234.844 243.996 234.25 248.349 235.32C253.183 236.509 252.055 243.013 252.024 246.697L251.999 298.312C264.555 298.742 259.841 308.265 254.999 308.73C251.644 309.052 248.186 308.93 244.818 308.932L178.375 308.93L158.614 308.945C154.992 308.944 150.951 309.269 147.385 308.668C142.265 307.806 139.615 298.158 151.594 298.312C151.637 292.937 151.108 287.246 151.594 281.913C155.843 276.263 167.085 278.763 174.174 278.789C174.174 261.387 181.54 265.997 197.248 266.069C197.37 261.676 195.514 255.434 201.343 254.373C205.04 253.7 214.959 254.223 219.304 254.245C219.365 247.438 216.369 235.794 224.773 234.853Z"/>
	<path fill="#FEDC69" transform="scale(0.195312 0.195312)" d="M229.796 245.553L241.687 245.553L241.687 298.312L229.796 298.312L229.796 245.553Z"/>
	<path fill="#FEDC69" transform="scale(0.195312 0.195312)" d="M207.553 264.676L219.304 264.676L219.304 298.312L207.553 298.312L207.553 264.676Z"/>
	<path fill="#FEDC69" transform="scale(0.195312 0.195312)" d="M184.779 276.288L196.464 276.288L196.464 298.312C192.568 298.299 188.675 298.446 184.779 298.312L184.779 276.288Z"/>
	<path fill="#FEDC69" transform="scale(0.195312 0.195312)" d="M162.152 289.235L174.174 289.235C174.597 292.421 174.537 295.115 174.174 298.312L162.152 298.312L162.152 289.235Z"/>
	<path fill="#294982" transform="scale(0.195312 0.195312)" d="M216.376 205.508C219.517 205.48 227.89 204.795 230.214 206.309C234.715 209.242 234.04 233.246 222.635 223.803C217.526 227.767 201.084 246.636 196.49 246.829C192.356 247.002 185.481 239.55 182.494 236.679C174.372 244.202 166.487 252.084 158.683 259.937C149.42 269.472 144.879 259.245 149.767 253.978C155.94 247.327 163.856 240.141 170.511 233.814C183.315 221.643 181.542 221.265 195.992 234.853C202.527 228.531 209.572 222.309 215.519 215.44L215.276 215.296C210.806 212.594 210.291 206.595 216.376 205.508Z"/>
	<path fill="#ECB9C2" transform="scale(0.195312 0.195312)" d="M343.352 122.105C366.86 120.172 386.566 139.729 388.931 162.332L372.169 162.332C365.277 128.326 318.676 134.465 317.671 164.733C316.771 191.829 346.407 202.655 364.931 184.708C368.278 181.175 369.889 177.557 371.396 172.99L388.931 172.99C380.627 207.878 343.529 222.801 315.791 199.333C285.452 173.664 302.91 124.842 343.352 122.105Z"/>
	<path fill="#6ACCF7" transform="scale(0.195312 0.195312)" d="M200.288 351.525C206.655 351.577 212.072 350.436 218.27 350.008L218.3 362.906C218.307 365.104 218.485 367.435 218.27 369.616C214.938 384.034 200.868 391.042 190.191 380.411C184.448 374.694 184.725 369.533 184.757 361.943L184.779 350.008C189.892 350.826 195.099 351.641 200.288 351.525Z"/>
	<path fill="#28AAF2" transform="scale(0.195312 0.195312)" d="M200.288 351.525C206.655 351.577 212.072 350.436 218.27 350.008L218.3 362.906C218.307 365.104 218.485 367.435 218.27 369.616C215.711 367.295 213.932 364.012 211.447 361.53C208.539 358.626 202.206 354.455 200.288 351.525Z"/>
	<path fill="#28AAF2" transform="scale(0.195312 0.195312)" d="M344.586 149.746Q344.996 149.74 345.405 149.755Q345.814 149.769 346.223 149.804Q346.631 149.838 347.037 149.893Q347.443 149.947 347.846 150.022Q348.248 150.096 348.647 150.19Q349.046 150.284 349.439 150.397Q349.833 150.511 350.221 150.643Q350.608 150.776 350.989 150.927Q351.37 151.078 351.742 151.248Q352.115 151.418 352.479 151.606Q352.843 151.794 353.198 151.999Q353.552 152.205 353.896 152.427Q354.24 152.65 354.572 152.889Q354.905 153.128 355.225 153.384Q355.546 153.639 355.853 153.909Q356.161 154.18 356.455 154.465Q356.749 154.751 357.028 155.05Q357.308 155.349 357.572 155.662Q357.837 155.975 358.086 156.3Q358.335 156.626 358.568 156.963Q358.8 157.3 359.016 157.648Q359.232 157.996 359.431 158.354Q359.629 158.713 359.81 159.08Q359.991 159.448 360.154 159.824Q360.316 160.2 360.46 160.583Q360.604 160.967 360.729 161.357Q360.854 161.747 360.96 162.143Q361.066 162.539 361.152 162.939Q361.238 163.339 361.304 163.744Q361.371 164.148 361.418 164.555Q361.464 164.962 361.491 165.371Q361.517 165.779 361.524 166.189Q361.531 166.599 361.517 167.008Q361.504 167.417 361.47 167.826Q361.436 168.234 361.383 168.64Q361.329 169.046 361.256 169.449Q361.183 169.852 361.09 170.251Q360.997 170.65 360.884 171.044Q360.772 171.438 360.64 171.826Q360.509 172.213 360.358 172.594Q360.208 172.975 360.039 173.349Q359.87 173.722 359.683 174.086Q359.496 174.451 359.291 174.805Q359.087 175.16 358.865 175.505Q358.643 175.849 358.405 176.182Q358.166 176.515 357.912 176.836Q357.658 177.157 357.388 177.466Q357.118 177.774 356.833 178.068Q356.549 178.363 356.25 178.643Q355.951 178.924 355.639 179.189Q355.327 179.454 355.003 179.704Q354.678 179.954 354.341 180.187Q354.005 180.421 353.657 180.637Q353.31 180.854 352.952 181.054Q352.594 181.253 352.227 181.435Q351.86 181.617 351.484 181.78Q351.109 181.943 350.726 182.088Q350.343 182.233 349.953 182.359Q349.563 182.485 349.168 182.592Q348.772 182.699 348.372 182.786Q347.972 182.873 347.568 182.94Q347.164 183.008 346.757 183.056Q346.35 183.103 345.941 183.131Q345.533 183.158 345.123 183.166Q344.712 183.174 344.301 183.161Q343.891 183.148 343.481 183.116Q343.072 183.083 342.664 183.03Q342.257 182.977 341.852 182.904Q341.448 182.832 341.047 182.739Q340.647 182.646 340.252 182.534Q339.857 182.422 339.467 182.291Q339.078 182.159 338.696 182.009Q338.313 181.858 337.939 181.689Q337.564 181.52 337.198 181.333Q336.833 181.146 336.477 180.941Q336.12 180.736 335.775 180.513Q335.429 180.291 335.095 180.052Q334.761 179.813 334.439 179.558Q334.117 179.303 333.807 179.032Q333.498 178.762 333.203 178.476Q332.907 178.191 332.626 177.891Q332.345 177.592 332.079 177.278Q331.813 176.965 331.562 176.64Q331.312 176.314 331.078 175.976Q330.844 175.638 330.627 175.289Q330.409 174.941 330.21 174.582Q330.01 174.222 329.828 173.854Q329.646 173.486 329.483 173.109Q329.319 172.732 329.174 172.347Q329.029 171.963 328.904 171.571Q328.778 171.18 328.672 170.783Q328.565 170.386 328.478 169.985Q328.392 169.583 328.325 169.178Q328.258 168.772 328.211 168.364Q328.164 167.956 328.137 167.546Q328.111 167.136 328.104 166.725Q328.097 166.314 328.111 165.904Q328.125 165.493 328.158 165.083Q328.192 164.674 328.246 164.266Q328.3 163.859 328.374 163.455Q328.447 163.051 328.541 162.651Q328.635 162.251 328.748 161.855Q328.861 161.46 328.993 161.072Q329.126 160.683 329.277 160.301Q329.428 159.919 329.598 159.544Q329.768 159.17 329.956 158.805Q330.144 158.44 330.35 158.084Q330.556 157.728 330.779 157.383Q331.002 157.038 331.242 156.705Q331.482 156.371 331.738 156.049Q331.994 155.728 332.265 155.419Q332.536 155.111 332.822 154.816Q333.109 154.521 333.409 154.241Q333.709 153.96 334.023 153.695Q334.337 153.43 334.663 153.18Q334.99 152.931 335.328 152.697Q335.666 152.464 336.016 152.248Q336.365 152.032 336.725 151.833Q337.084 151.634 337.453 151.453Q337.822 151.272 338.199 151.109Q338.577 150.947 338.961 150.803Q339.346 150.659 339.738 150.534Q340.129 150.409 340.526 150.304Q340.924 150.198 341.325 150.113Q341.727 150.027 342.133 149.961Q342.538 149.895 342.947 149.849Q343.355 149.803 343.765 149.777Q344.175 149.752 344.586 149.746Z"/>
	<path fill="#59D1AC" transform="scale(0.195312 0.195312)" d="M294.312 75.1332Q294.515 75.1027 294.718 75.0822Q294.922 75.0616 295.127 75.0511Q295.331 75.0405 295.536 75.04Q295.741 75.0395 295.946 75.049Q296.15 75.0584 296.354 75.0779Q296.558 75.0974 296.761 75.1268Q296.964 75.1562 297.165 75.1955Q297.366 75.2348 297.565 75.2839Q297.764 75.333 297.96 75.3918Q298.156 75.4505 298.349 75.5188Q298.543 75.5871 298.732 75.6647Q298.922 75.7424 299.107 75.8292Q299.293 75.916 299.474 76.0118Q299.655 76.1076 299.831 76.2121Q300.007 76.3166 300.178 76.4296Q300.349 76.5426 300.514 76.6639Q300.679 76.7851 300.838 76.9142Q300.997 77.0434 301.15 77.1802Q301.303 77.317 301.448 77.461Q301.594 77.6051 301.732 77.7561Q301.871 77.9072 302.002 78.0648Q302.132 78.2224 302.255 78.3862Q302.378 78.55 302.493 78.7197Q302.608 78.8893 302.715 79.0644Q302.821 79.2394 302.919 79.4195Q303.016 79.5995 303.105 79.7841Q303.194 79.9688 303.274 80.1575Q303.353 80.3462 303.424 80.5386Q303.494 80.731 303.555 80.9266Q303.616 81.1222 303.667 81.3206Q303.718 81.5189 303.76 81.7196Q303.801 81.9202 303.833 82.1226Q303.865 82.325 303.886 82.5287Q303.908 82.7324 303.92 82.937Q303.931 83.1415 303.933 83.3464Q303.935 83.5512 303.926 83.7559Q303.918 83.9606 303.9 84.1647Q303.881 84.3687 303.853 84.5716Q303.825 84.7745 303.787 84.9758Q303.748 85.1771 303.701 85.3763Q303.653 85.5754 303.595 85.772Q303.537 85.9686 303.47 86.1621Q303.403 86.3557 303.326 86.5457Q303.25 86.7357 303.164 86.9218Q303.078 87.1078 302.983 87.2894Q302.889 87.4711 302.785 87.6479Q302.682 87.8246 302.569 87.9961Q302.457 88.1676 302.337 88.3335Q302.217 88.4993 302.089 88.659Q301.96 88.8188 301.824 88.972Q301.688 89.1253 301.545 89.2718Q301.402 89.4182 301.252 89.5575Q301.101 89.6968 300.945 89.8285Q300.788 89.9603 300.625 90.0842Q300.461 90.2081 300.292 90.3239Q300.123 90.4397 299.949 90.5472Q299.775 90.6546 299.595 90.7533Q299.416 90.8521 299.231 90.9419Q299.047 91.0318 298.859 91.1125Q298.671 91.1932 298.479 91.2647Q298.287 91.3361 298.091 91.3981Q297.896 91.4601 297.698 91.5124Q297.5 91.5648 297.3 91.6073Q297.099 91.6499 296.897 91.6827Q296.693 91.7157 296.488 91.7386Q296.283 91.7615 296.077 91.7743Q295.871 91.7871 295.665 91.7898Q295.459 91.7924 295.252 91.7849Q295.046 91.7773 294.841 91.7597Q294.635 91.742 294.431 91.7142Q294.226 91.6865 294.023 91.6487Q293.82 91.6108 293.62 91.5631Q293.419 91.5154 293.221 91.4578Q293.023 91.4002 292.828 91.3329Q292.633 91.2657 292.441 91.1889Q292.25 91.1121 292.062 91.026Q291.875 90.9398 291.691 90.8446Q291.508 90.7493 291.33 90.6451Q291.152 90.541 290.979 90.4282Q290.807 90.3154 290.64 90.1942Q290.473 90.0731 290.312 89.9438Q290.151 89.8146 289.997 89.6776Q289.842 89.5405 289.695 89.3961Q289.548 89.2516 289.408 89.1001Q289.268 88.9486 289.135 88.7904Q289.003 88.6321 288.878 88.4675Q288.754 88.303 288.637 88.1325Q288.521 87.962 288.414 87.786Q288.306 87.61 288.207 87.4289Q288.108 87.2478 288.018 87.062Q287.928 86.8763 287.848 86.6863Q287.767 86.4964 287.696 86.3027Q287.625 86.109 287.564 85.912Q287.502 85.7151 287.45 85.5153Q287.398 85.3156 287.357 85.1135Q287.315 84.9115 287.283 84.7076Q287.251 84.5037 287.229 84.2985Q287.208 84.0934 287.196 83.8874Q287.184 83.6813 287.183 83.475Q287.181 83.2687 287.19 83.0625Q287.199 82.8564 287.218 82.6509Q287.236 82.4454 287.265 82.2411Q287.294 82.0368 287.333 81.8342Q287.372 81.6316 287.421 81.4311Q287.47 81.2307 287.529 81.0329Q287.587 80.8351 287.656 80.6404Q287.724 80.4457 287.802 80.2546Q287.88 80.0635 287.967 79.8765Q288.054 79.6895 288.15 79.507Q288.247 79.3245 288.352 79.147Q288.457 78.9695 288.571 78.7973Q288.685 78.6252 288.807 78.4589Q288.929 78.2925 289.059 78.1324Q289.189 77.9723 289.327 77.8188Q289.465 77.6653 289.61 77.5188Q289.755 77.3722 289.908 77.233Q290.06 77.0938 290.219 76.9623Q290.378 76.8308 290.543 76.7072Q290.708 76.5837 290.88 76.4684Q291.051 76.3532 291.227 76.2465Q291.404 76.1398 291.586 76.0419Q291.767 75.9441 291.954 75.8553Q292.14 75.7665 292.33 75.687Q292.521 75.6074 292.715 75.5374Q292.909 75.4673 293.106 75.4069Q293.303 75.3465 293.503 75.2959Q293.703 75.2453 293.906 75.2046Q294.108 75.1639 294.312 75.1332Z"/>
	<path fill="#59D1AC" transform="scale(0.195312 0.195312)" d="M391.031 75.0203Q391.231 74.9874 391.431 74.9641Q391.632 74.9409 391.834 74.9274Q392.036 74.9138 392.238 74.9101Q392.44 74.9064 392.642 74.9124Q392.844 74.9185 393.046 74.9343Q393.248 74.9501 393.448 74.9757Q393.649 75.0013 393.848 75.0365Q394.047 75.0717 394.244 75.1165Q394.441 75.1614 394.636 75.2157Q394.831 75.27 395.023 75.3337Q395.215 75.3973 395.403 75.4702Q395.592 75.5431 395.777 75.625Q395.962 75.7069 396.142 75.7977Q396.323 75.8885 396.499 75.9879Q396.675 76.0873 396.846 76.1951Q397.017 76.3029 397.183 76.4189Q397.349 76.5348 397.509 76.6587Q397.668 76.7825 397.822 76.9139Q397.976 77.0453 398.123 77.1841Q398.27 77.3228 398.41 77.4684Q398.551 77.6141 398.684 77.7663Q398.817 77.9186 398.942 78.0772Q399.068 78.2357 399.185 78.4001Q399.303 78.5645 399.413 78.7344Q399.522 78.9044 399.624 79.0794Q399.725 79.2544 399.818 79.4342Q399.91 79.6139 399.994 79.7979Q400.078 79.9819 400.153 80.1697Q400.228 80.3575 400.293 80.5488Q400.359 80.74 400.416 80.9342Q400.472 81.1284 400.519 81.3251Q400.566 81.5218 400.603 81.7205Q400.64 81.9192 400.668 82.1195Q400.696 82.3198 400.714 82.5212Q400.732 82.7227 400.74 82.9247Q400.748 83.1267 400.746 83.3289Q400.745 83.5311 400.733 83.733Q400.722 83.9349 400.701 84.136Q400.68 84.3371 400.649 84.537Q400.618 84.7368 400.578 84.9349Q400.537 85.133 400.487 85.329Q400.437 85.5249 400.378 85.7182Q400.318 85.9115 400.25 86.1016Q400.181 86.2918 400.103 86.4784Q400.025 86.6651 399.939 86.8477Q399.852 87.0304 399.756 87.2086Q399.661 87.3869 399.557 87.5603Q399.453 87.7337 399.341 87.9019Q399.228 88.07 399.108 88.2326Q398.988 88.3951 398.86 88.5517Q398.732 88.7082 398.596 88.8584Q398.461 89.0085 398.319 89.152Q398.176 89.2954 398.027 89.4318Q397.877 89.5682 397.722 89.6972Q397.566 89.8262 397.404 89.9475Q397.242 90.0688 397.075 90.1821Q396.908 90.2955 396.735 90.4006Q396.562 90.5057 396.384 90.6023Q396.207 90.6989 396.025 90.7868Q395.843 90.8748 395.656 90.9538Q395.47 91.0328 395.281 91.1027Q395.091 91.1726 394.898 91.2332Q394.705 91.2939 394.509 91.3451Q394.314 91.3964 394.116 91.4381Q393.845 91.4953 393.57 91.5344Q393.295 91.5735 393.019 91.5943Q392.742 91.6151 392.465 91.6175Q392.188 91.6199 391.911 91.604Q391.634 91.588 391.359 91.5537Q391.083 91.5194 390.811 91.4669Q390.539 91.4144 390.27 91.3439Q390.002 91.2735 389.739 91.1854Q389.476 91.0974 389.22 90.992Q388.963 90.8867 388.714 90.7646Q388.465 90.6425 388.225 90.5041Q387.984 90.3658 387.754 90.2118Q387.523 90.0578 387.303 89.8888Q387.083 89.7199 386.875 89.5367Q386.666 89.3536 386.471 89.157Q386.275 88.9604 386.093 88.7513Q385.911 88.5422 385.743 88.3214Q385.575 88.1007 385.422 87.8693Q385.269 87.6379 385.132 87.3969Q384.995 87.1559 384.874 86.9063Q384.753 86.6567 384.649 86.3996Q384.545 86.1425 384.458 85.8791Q384.371 85.6157 384.302 85.3471Q384.233 85.0786 384.182 84.806Q384.13 84.5334 384.097 84.258Q384.064 83.9827 384.05 83.7057Q384.035 83.4288 384.039 83.1514Q384.042 82.8741 384.065 82.5977Q384.087 82.3212 384.127 82.0468Q384.167 81.7724 384.226 81.5013Q384.284 81.2302 384.361 80.9636Q384.437 80.697 384.531 80.436Q384.625 80.175 384.736 79.9209Q384.847 79.6667 384.974 79.4204Q385.102 79.1742 385.246 78.9369Q385.389 78.6997 385.548 78.4724Q385.707 78.2452 385.881 78.0291Q386.055 77.8129 386.242 77.6088Q386.43 77.4046 386.631 77.2133Q386.832 77.0221 387.045 76.8445Q387.258 76.667 387.482 76.504Q387.707 76.341 387.941 76.1932Q388.176 76.0455 388.42 75.9136Q388.664 75.7817 388.916 75.6663Q389.168 75.5509 389.428 75.4525Q389.687 75.354 389.952 75.273Q390.217 75.192 390.487 75.1288Q390.757 75.0655 391.031 75.0203Z"/>
	<path fill="#59D1AC" transform="scale(0.195312 0.195312)" d="M421.059 223.934Q421.243 223.91 421.429 223.895Q421.614 223.88 421.8 223.874Q421.986 223.869 422.172 223.872Q422.357 223.875 422.543 223.887Q422.729 223.9 422.913 223.921Q423.098 223.943 423.281 223.973Q423.465 224.003 423.647 224.043Q423.828 224.082 424.008 224.13Q424.187 224.178 424.364 224.235Q424.542 224.292 424.716 224.357Q424.89 224.423 425.06 224.497Q425.231 224.57 425.398 224.653Q425.565 224.735 425.727 224.825Q425.89 224.915 426.048 225.013Q426.206 225.111 426.359 225.216Q426.512 225.322 426.66 225.435Q426.807 225.548 426.949 225.668Q427.091 225.788 427.227 225.915Q427.363 226.041 427.493 226.175Q427.623 226.308 427.746 226.447Q427.869 226.587 427.985 226.732Q428.101 226.878 428.209 227.028Q428.318 227.179 428.419 227.335Q428.521 227.491 428.614 227.652Q428.708 227.812 428.793 227.977Q428.879 228.143 428.956 228.312Q429.034 228.481 429.103 228.653Q429.172 228.826 429.233 229.002Q429.293 229.177 429.345 229.356Q429.397 229.535 429.44 229.715Q429.483 229.896 429.517 230.079Q429.552 230.262 429.577 230.446Q429.602 230.63 429.618 230.815Q429.635 231.001 429.642 231.186Q429.649 231.372 429.647 231.558Q429.645 231.744 429.634 231.93Q429.623 232.115 429.603 232.3Q429.583 232.485 429.554 232.669Q429.525 232.852 429.487 233.034Q429.449 233.216 429.402 233.396Q429.355 233.576 429.3 233.754Q429.244 233.931 429.18 234.106Q429.116 234.28 429.043 234.451Q428.971 234.622 428.89 234.79Q428.809 234.957 428.72 235.121Q428.631 235.284 428.534 235.443Q428.438 235.601 428.333 235.755Q428.229 235.909 428.117 236.057Q428.005 236.206 427.886 236.349Q427.767 236.492 427.641 236.629Q427.515 236.766 427.383 236.896Q427.251 237.027 427.112 237.151Q426.973 237.275 426.829 237.392Q426.685 237.509 426.535 237.619Q426.385 237.729 426.229 237.831Q426.074 237.933 425.914 238.028Q425.754 238.123 425.59 238.21Q425.425 238.296 425.257 238.375Q425.088 238.454 424.916 238.524Q424.744 238.594 424.569 238.656Q424.393 238.718 424.215 238.771Q424.037 238.824 423.857 238.869Q423.676 238.913 423.494 238.949Q423.311 238.984 423.127 239.011Q422.941 239.038 422.754 239.056Q422.568 239.073 422.38 239.082Q422.193 239.09 422.005 239.089Q421.817 239.088 421.63 239.078Q421.443 239.068 421.256 239.049Q421.069 239.03 420.884 239.001Q420.698 238.973 420.514 238.935Q420.33 238.898 420.149 238.851Q419.967 238.805 419.788 238.749Q419.608 238.694 419.432 238.629Q419.256 238.565 419.083 238.492Q418.91 238.419 418.741 238.338Q418.571 238.257 418.407 238.167Q418.242 238.077 418.081 237.98Q417.921 237.882 417.766 237.777Q417.61 237.672 417.461 237.559Q417.311 237.446 417.166 237.326Q417.022 237.205 416.884 237.078Q416.746 236.951 416.614 236.817Q416.483 236.684 416.358 236.544Q416.233 236.404 416.115 236.258Q415.997 236.111 415.887 235.96Q415.776 235.808 415.674 235.651Q415.571 235.494 415.476 235.332Q415.381 235.17 415.294 235.004Q415.207 234.838 415.128 234.667Q415.05 234.497 414.979 234.323Q414.909 234.149 414.848 233.971Q414.786 233.794 414.734 233.614Q414.681 233.434 414.638 233.251Q414.594 233.069 414.559 232.884Q414.524 232.7 414.499 232.514Q414.474 232.328 414.457 232.141Q414.441 231.954 414.434 231.767Q414.427 231.579 414.429 231.391Q414.431 231.204 414.443 231.016Q414.454 230.829 414.475 230.643Q414.495 230.456 414.525 230.271Q414.555 230.086 414.594 229.902Q414.633 229.718 414.681 229.537Q414.729 229.355 414.785 229.177Q414.842 228.998 414.908 228.822Q414.973 228.646 415.048 228.474Q415.122 228.301 415.204 228.133Q415.287 227.964 415.378 227.8Q415.468 227.636 415.567 227.476Q415.666 227.317 415.772 227.162Q415.879 227.007 415.993 226.858Q416.107 226.709 416.228 226.566Q416.349 226.423 416.477 226.286Q416.605 226.148 416.74 226.018Q416.875 225.887 417.016 225.763Q417.157 225.639 417.304 225.523Q417.451 225.406 417.603 225.297Q417.756 225.187 417.913 225.085Q418.071 224.984 418.234 224.89Q418.396 224.796 418.563 224.71Q418.73 224.625 418.901 224.547Q419.072 224.47 419.247 224.401Q419.421 224.332 419.599 224.272Q419.777 224.212 419.957 224.161Q420.138 224.109 420.321 224.067Q420.503 224.025 420.688 223.991Q420.873 223.958 421.059 223.934Z"/>
	<path fill="#59D1AC" transform="scale(0.195312 0.195312)" d="M429.834 161.105Q430.015 161.067 430.197 161.037Q430.38 161.008 430.563 160.987Q430.747 160.967 430.931 160.955Q431.116 160.944 431.301 160.941Q431.485 160.938 431.67 160.945Q431.855 160.951 432.039 160.967Q432.223 160.982 432.406 161.007Q432.589 161.031 432.771 161.064Q432.953 161.098 433.133 161.14Q433.313 161.182 433.49 161.233Q433.668 161.284 433.843 161.343Q434.018 161.402 434.19 161.47Q434.362 161.538 434.53 161.614Q434.698 161.691 434.863 161.775Q435.027 161.859 435.187 161.952Q435.347 162.044 435.503 162.144Q435.658 162.244 435.809 162.351Q435.959 162.458 436.104 162.573Q436.249 162.688 436.388 162.809Q436.527 162.931 436.661 163.059Q436.794 163.187 436.92 163.322Q437.047 163.456 437.167 163.597Q437.287 163.737 437.4 163.883Q437.513 164.029 437.619 164.181Q437.725 164.333 437.823 164.489Q437.921 164.646 438.012 164.807Q438.102 164.968 438.185 165.133Q438.267 165.299 438.342 165.468Q438.416 165.637 438.482 165.809Q438.548 165.982 438.605 166.158Q438.663 166.333 438.712 166.511Q438.761 166.69 438.801 166.87Q438.841 167.05 438.872 167.232Q438.904 167.415 438.926 167.598Q438.949 167.781 438.962 167.966Q438.975 168.15 438.98 168.335Q438.984 168.519 438.98 168.704Q438.975 168.889 438.962 169.073Q438.948 169.257 438.925 169.441Q438.903 169.624 438.872 169.806Q438.84 169.988 438.8 170.169Q438.759 170.349 438.71 170.527Q438.661 170.705 438.604 170.881Q438.546 171.057 438.48 171.229Q438.414 171.402 438.339 171.571Q438.265 171.74 438.182 171.905Q438.1 172.07 438.009 172.231Q437.918 172.392 437.82 172.549Q437.722 172.705 437.616 172.857Q437.51 173.008 437.397 173.154Q437.284 173.301 437.164 173.441Q437.044 173.581 436.917 173.716Q436.79 173.85 436.657 173.978Q436.524 174.106 436.384 174.228Q436.245 174.349 436.1 174.464Q435.955 174.578 435.805 174.685Q435.654 174.793 435.499 174.893Q435.343 174.992 435.183 175.085Q435.023 175.177 434.858 175.261Q434.694 175.345 434.525 175.421Q434.357 175.497 434.185 175.565Q434.013 175.633 433.838 175.692Q433.663 175.752 433.486 175.802Q433.308 175.853 433.128 175.895Q432.885 175.952 432.639 175.992Q432.392 176.033 432.144 176.057Q431.895 176.082 431.646 176.09Q431.396 176.098 431.147 176.089Q430.897 176.08 430.649 176.056Q430.401 176.031 430.154 175.989Q429.908 175.948 429.665 175.891Q429.422 175.833 429.184 175.76Q428.945 175.687 428.712 175.598Q428.478 175.51 428.251 175.406Q428.024 175.302 427.805 175.183Q427.585 175.064 427.374 174.932Q427.162 174.799 426.96 174.652Q426.758 174.506 426.566 174.346Q426.374 174.187 426.193 174.015Q426.011 173.843 425.842 173.66Q425.672 173.477 425.515 173.283Q425.358 173.089 425.215 172.885Q425.071 172.681 424.94 172.468Q424.81 172.254 424.694 172.033Q424.578 171.812 424.477 171.584Q424.376 171.356 424.291 171.121Q424.205 170.887 424.135 170.647Q424.064 170.408 424.01 170.164Q423.956 169.92 423.918 169.674Q423.879 169.427 423.858 169.178Q423.836 168.929 423.831 168.68Q423.825 168.43 423.836 168.181Q423.847 167.931 423.875 167.683Q423.902 167.435 423.946 167.189Q423.99 166.944 424.049 166.701Q424.109 166.459 424.185 166.221Q424.261 165.983 424.352 165.751Q424.443 165.518 424.549 165.292Q424.655 165.066 424.776 164.848Q424.897 164.63 425.032 164.42Q425.167 164.21 425.316 164.009Q425.464 163.808 425.626 163.618Q425.787 163.427 425.961 163.248Q426.134 163.069 426.319 162.901Q426.504 162.733 426.7 162.578Q426.896 162.423 427.101 162.281Q427.307 162.14 427.521 162.012Q427.735 161.884 427.958 161.77Q428.18 161.656 428.409 161.558Q428.638 161.459 428.874 161.376Q429.109 161.292 429.349 161.224Q429.59 161.157 429.834 161.105Z"/>
	<path fill="#6ACCF7" transform="scale(0.195312 0.195312)" d="M356.764 287.24C361.723 285.728 372.614 268.37 379.151 265.837C384.096 263.921 392.769 276.035 396.078 279.449C407.497 291.233 423.459 304.527 393.004 301.906L393.004 446.431C389.939 446.675 386.827 446.467 383.754 446.444L368.717 446.431L368.717 301.906C364.736 301.896 360.744 301.824 356.764 301.906L356.764 287.24Z"/>
	<path fill="#294982" transform="scale(0.195312 0.195312)" d="M73.4505 181.712C73.5117 186.279 75.6359 195.928 68.5981 196.256C59.4885 196.68 60.9915 177.808 67.2605 171.502L91.9094 147.195C95.4219 143.707 107.654 130.003 111.633 128.544C114.314 127.561 146.345 128.105 151.519 128.105L251.958 128.078C267.383 128.058 271.684 138.265 271.701 151.887L271.691 162.332C275.434 162.187 279.268 161.852 282.995 162.332C285.479 164.539 286.962 167.316 284.821 170.341C282.469 173.664 275.6 172.363 271.691 172.99C271.679 179.748 272.022 186.624 271.691 193.365C268.062 195.152 264.927 197.801 261.267 199.577C261.277 199.195 261.287 198.812 261.29 198.429L261.283 163.591C261.284 137.28 263.564 138.511 239.375 138.528L119.747 138.539L119.763 164.795C119.774 184.494 119.165 181.699 101.29 181.701L73.4505 181.712ZM82.8664 171.245L109.236 171.245L109.26 153.438C109.273 150.825 109.607 147.74 109.236 145.183L89.8829 163.921C87.7538 165.982 83.8149 168.504 82.8664 171.245Z"/>
	<path fill="#28AAF2" transform="scale(0.195312 0.195312)" d="M326.379 391.224L351.341 391.224C351.34 396.52 351.617 445.838 351.341 446.431L326.379 446.431C326.292 428.054 326.077 409.596 326.379 391.224Z"/>
	<path fill="#294982" transform="scale(0.195312 0.195312)" d="M67.0944 204.285C75.659 203.732 76.1879 218.047 69.5146 221.352C61.753 222.522 59.2532 207.707 67.0944 204.285Z"/>
	<path fill="#294982" transform="scale(0.195312 0.195312)" d="M200.288 430.262C209.466 429.552 209.708 442.818 202.97 446.431C194.951 447.333 193.066 434.059 200.288 430.262Z"/>
</svg>
