<?xml version="1.0" encoding="utf-8" ?>
<svg xmlns="http://www.w3.org/2000/svg" xmlns:xlink="http://www.w3.org/1999/xlink" width="100" height="100">
	<defs>
		<linearGradient id="gradient_0" gradientUnits="userSpaceOnUse" x1="449.50949" y1="177.96709" x2="161.67062" y2="107.2415">
			<stop offset="0" stop-color="#455971"/>
			<stop offset="1" stop-color="#4C76A0"/>
		</linearGradient>
	</defs>
	<path fill="url(#gradient_0)" transform="scale(0.195312 0.195312)" d="M184.436 201.304C166.662 187.131 156.109 169.256 154.822 145.986C152.974 112.581 177.089 81.0138 209.712 73.8539C236.389 67.9987 258.845 76.5915 278.262 94.2534C283.717 83.0709 292.84 77.2877 305.496 77.2487L408.636 77.242C413.556 77.2433 419.023 76.8068 423.843 77.8167C444.27 82.0967 446.729 98.6368 446.731 115.497L446.722 196.836C446.477 207.417 446.738 218.057 446.735 228.645C446.729 246.526 445.927 263.404 422.776 262.025L422.776 287.055C414.678 281.827 397.17 269.059 390.341 262.025C380.984 262.214 371.614 261.971 362.257 262.025C362.541 283.011 349.848 310.171 337.767 326.333C335.445 329.441 329.646 335.128 329.182 337.396L329.211 418.188C329.231 427.514 330.807 429.281 324.861 436.439C321.334 436.862 317.402 436.462 313.824 436.454L169.886 436.428C166.139 436.425 159.143 437.061 155.774 436.439C150.869 431.692 151.403 429.93 151.395 423.494L151.396 366.529C151.608 361.528 151.669 356.157 151.396 351.161L151.38 326.882C151.363 322.849 150.975 318.835 151.396 314.812C150.678 307.643 161.431 309.97 165.815 310.265C165.775 307.591 165.802 304.916 165.815 302.242C166.28 295.103 165.802 286.845 165.808 279.585C165.822 263.795 169.337 241.739 154.751 230.917C155.669 227.84 179.746 203.453 184.436 201.304ZM247.459 171.756C253.398 171.082 258.151 166.768 257.411 160.431C256.855 155.668 253 152.365 249.821 149.175L240.658 140.01C238.833 138.184 236.868 136.394 235.26 134.375L235.261 116.268C235.267 107.819 236.007 97.8306 224.945 97.0726C212.03 98.7169 214.893 111.65 214.913 121.124C214.972 147.988 212.444 141.138 231.999 160.633C236.602 165.222 240.38 171.49 247.459 171.756Z"/>
	<path fill="#0FAABD" transform="scale(0.195312 0.195312)" d="M200.189 310.265C200.084 308.989 199.553 305.981 200.189 304.884C200.229 306.679 200.215 308.47 200.189 310.265C205.527 310.281 210.876 310.371 216.212 310.265C216.151 308.499 215.977 306.635 216.212 304.884C216.313 306.684 216.267 308.464 216.212 310.265L263.937 310.265C268.938 310.439 275.342 310.621 280.272 310.265L307.477 310.259C310.655 310.258 322.599 309.202 324.861 311.276C331.155 315.343 329.353 330.014 329.182 337.396L329.211 418.188C329.231 427.514 330.807 429.281 324.861 436.439C321.334 436.862 317.402 436.462 313.824 436.454L169.886 436.428C166.139 436.425 159.143 437.061 155.774 436.439C150.869 431.692 151.403 429.93 151.395 423.494L151.396 366.529C151.608 361.528 151.669 356.157 151.396 351.161L151.38 326.882C151.363 322.849 150.975 318.835 151.396 314.812C150.678 307.643 161.431 309.97 165.815 310.265C169.523 309.999 173.376 310.253 177.1 310.256L200.189 310.265Z"/>
	<path fill="#94E7F8" transform="scale(0.195312 0.195312)" d="M200.189 310.265C200.084 308.989 199.553 305.981 200.189 304.884C200.229 306.679 200.215 308.47 200.189 310.265C205.527 310.281 210.876 310.371 216.212 310.265C216.151 308.499 215.977 306.635 216.212 304.884C216.313 306.684 216.267 308.464 216.212 310.265L263.937 310.265C268.938 310.439 275.342 310.621 280.272 310.265L307.477 310.259C310.655 310.258 322.599 309.202 324.861 311.276C326.541 317.337 326.662 319.522 321.78 323.361C307.562 334.542 291.543 346.207 276.963 356.926C272.867 359.938 265.979 364.013 262.66 367.4C239.081 379.629 241.476 384.367 217.448 367.4C205.034 357.237 187.404 345.572 174.139 336.103C166.484 330.639 154.623 324.584 151.652 315.016L151.396 314.812C150.678 307.643 161.431 309.97 165.815 310.265C169.523 309.999 173.376 310.253 177.1 310.256L200.189 310.265Z"/>
	<path fill="#12CAE1" transform="scale(0.195312 0.195312)" d="M324.861 311.276C331.155 315.343 329.353 330.014 329.182 337.396L329.211 418.188C329.231 427.514 330.807 429.281 324.861 436.439C321.749 430.789 316.101 426.074 311.814 421.253C298.362 406.127 284.462 391.379 270.944 376.301C268.286 373.211 265.934 369.885 262.66 367.4C265.979 364.013 272.867 359.938 276.963 356.926C291.543 346.207 307.562 334.542 321.78 323.361C326.662 319.522 326.541 317.337 324.861 311.276Z"/>
	<path fill="#12CAE1" transform="scale(0.195312 0.195312)" d="M151.396 314.812L151.652 315.016C154.623 324.584 166.484 330.639 174.139 336.103C187.404 345.572 205.034 357.237 217.448 367.4C214.915 370.466 212.119 373.288 209.531 376.301C197.756 388.328 186.529 401.017 175.214 413.478C171.199 417.899 156.742 431.044 155.774 436.439C150.869 431.692 151.403 429.93 151.395 423.494L151.396 366.529C151.608 361.528 151.669 356.157 151.396 351.161L151.38 326.882C151.363 322.849 150.975 318.835 151.396 314.812Z"/>
	<path fill="#0494AE" transform="scale(0.195312 0.195312)" d="M262.66 367.4C265.934 369.885 268.286 373.211 270.944 376.301C266.213 376.802 259.094 383.632 254.828 386.109C239.335 395.107 228.175 388.686 215.169 379.945C213.363 378.732 211.524 377.167 209.531 376.301C212.119 373.288 214.915 370.466 217.448 367.4C241.476 384.367 239.081 379.629 262.66 367.4Z"/>
	<path fill="#E8F4FA" transform="scale(0.195312 0.195312)" d="M184.436 201.304C213.254 221.867 250.278 219.075 276.758 195.774L276.747 229.346C276.748 234.705 276.135 242.583 277.265 247.647C281.369 266.031 300.868 262.031 314.955 262.031L362.257 262.025C362.541 283.011 349.848 310.171 337.767 326.333C335.445 329.441 329.646 335.128 329.182 337.396C329.353 330.014 331.155 315.343 324.861 311.276C322.599 309.202 310.655 310.258 307.477 310.259L280.272 310.265C275.342 310.621 268.938 310.439 263.937 310.265L216.212 310.265C216.267 308.464 216.313 306.684 216.212 304.884C215.977 306.635 216.151 308.499 216.212 310.265C210.876 310.371 205.527 310.281 200.189 310.265C200.215 308.47 200.229 306.679 200.189 304.884C199.553 305.981 200.084 308.989 200.189 310.265L177.1 310.256C173.376 310.253 169.523 309.999 165.815 310.265C165.775 307.591 165.802 304.916 165.815 302.242C166.28 295.103 165.802 286.845 165.808 279.585C165.822 263.795 169.337 241.739 154.751 230.917C155.669 227.84 179.746 203.453 184.436 201.304Z"/>
	<path fill="#12CAE1" transform="scale(0.195312 0.195312)" d="M200.189 304.884C202.043 254.141 280.818 249.282 280.272 310.265C275.342 310.621 268.938 310.439 263.937 310.265L216.212 310.265C216.267 308.464 216.313 306.684 216.212 304.884C215.977 306.635 216.151 308.499 216.212 310.265C210.876 310.371 205.527 310.281 200.189 310.265C200.215 308.47 200.229 306.679 200.189 304.884Z"/>
	<path fill="#E8F4FA" transform="scale(0.195312 0.195312)" d="M216.212 304.884C216.3 275.982 264.523 270.753 263.937 310.265L216.212 310.265C216.267 308.464 216.313 306.684 216.212 304.884Z"/>
	<path fill="#FE8576" transform="scale(0.195312 0.195312)" d="M297.933 181.044C302.316 183.536 307.896 182.524 312.745 182.521L403.577 182.513C408.446 182.515 420.096 181.749 424.239 182.506C435.947 181.046 443.686 185.378 446.722 196.836C446.477 207.417 446.738 218.057 446.735 228.645C446.729 246.526 445.927 263.404 422.776 262.025L422.776 287.055C414.678 281.827 397.17 269.059 390.341 262.025C380.984 262.214 371.614 261.971 362.257 262.025L314.955 262.031C300.868 262.031 281.369 266.031 277.265 247.647C276.135 242.583 276.748 234.705 276.747 229.346L276.758 195.774C281.39 190.53 284.71 186.91 288.745 181.044C291.803 181.104 294.873 181.046 297.933 181.044Z"/>
	<path fill="#E8F4FA" transform="scale(0.195312 0.195312)" d="M359.549 211.595Q359.903 211.518 360.262 211.466Q360.62 211.413 360.981 211.383Q361.342 211.354 361.704 211.349Q362.067 211.344 362.429 211.362Q362.79 211.381 363.15 211.423Q363.51 211.466 363.866 211.532Q364.222 211.598 364.574 211.687Q364.925 211.777 365.269 211.889Q365.614 212.002 365.95 212.137Q366.286 212.272 366.613 212.428Q366.939 212.585 367.255 212.763Q367.57 212.941 367.873 213.14Q368.177 213.338 368.466 213.556Q368.755 213.774 369.03 214.011Q369.304 214.248 369.562 214.502Q369.82 214.756 370.061 215.027Q370.302 215.298 370.524 215.584Q370.747 215.87 370.95 216.17Q371.153 216.47 371.335 216.783Q371.518 217.095 371.68 217.42Q371.842 217.744 371.982 218.078Q372.122 218.412 372.239 218.755Q372.357 219.097 372.452 219.447Q372.546 219.797 372.618 220.152Q372.689 220.507 372.737 220.866Q372.785 221.225 372.809 221.587Q372.833 221.948 372.834 222.311Q372.834 222.673 372.81 223.034Q372.786 223.396 372.739 223.755Q372.691 224.114 372.62 224.469Q372.549 224.825 372.455 225.174Q372.36 225.524 372.243 225.867Q372.126 226.21 371.986 226.544Q371.846 226.878 371.685 227.203Q371.524 227.527 371.341 227.84Q371.159 228.153 370.956 228.453Q370.753 228.754 370.531 229.04Q370.309 229.326 370.069 229.597Q369.828 229.868 369.57 230.123Q369.313 230.377 369.038 230.614Q368.764 230.851 368.475 231.07Q368.186 231.288 367.883 231.487Q367.58 231.685 367.265 231.864Q366.95 232.042 366.623 232.199Q366.297 232.357 365.961 232.492Q365.625 232.627 365.28 232.74Q364.936 232.853 364.585 232.943Q364.234 233.033 363.878 233.099Q363.616 233.148 363.351 233.184Q363.087 233.22 362.821 233.244Q362.555 233.267 362.289 233.277Q362.022 233.287 361.755 233.285Q361.488 233.282 361.222 233.266Q360.955 233.251 360.69 233.222Q360.425 233.194 360.161 233.152Q359.898 233.111 359.636 233.056Q359.375 233.002 359.117 232.935Q358.858 232.868 358.604 232.789Q358.349 232.71 358.098 232.618Q357.847 232.527 357.602 232.423Q357.356 232.319 357.115 232.204Q356.875 232.088 356.64 231.961Q356.405 231.834 356.177 231.695Q355.949 231.557 355.728 231.408Q355.507 231.258 355.293 231.098Q355.079 230.939 354.874 230.768Q354.668 230.598 354.471 230.418Q354.274 230.239 354.086 230.049Q353.898 229.86 353.719 229.662Q353.54 229.464 353.371 229.257Q353.203 229.05 353.044 228.836Q352.885 228.621 352.737 228.399Q352.589 228.177 352.452 227.948Q352.315 227.719 352.19 227.484Q352.064 227.248 351.95 227.007Q351.836 226.766 351.733 226.519Q351.631 226.273 351.541 226.022Q351.451 225.771 351.373 225.515Q351.295 225.26 351.23 225.001Q351.165 224.743 351.112 224.481Q351.059 224.219 351.019 223.956Q350.98 223.692 350.953 223.426Q350.926 223.161 350.911 222.894Q350.897 222.628 350.896 222.361Q350.895 222.094 350.907 221.828Q350.919 221.561 350.944 221.295Q350.969 221.03 351.007 220.765Q351.044 220.501 351.095 220.239Q351.145 219.977 351.209 219.718Q351.272 219.459 351.348 219.203Q351.423 218.947 351.511 218.695Q351.599 218.443 351.7 218.196Q351.8 217.949 351.912 217.706Q352.024 217.464 352.148 217.228Q352.272 216.991 352.407 216.761Q352.542 216.531 352.688 216.308Q352.834 216.085 352.991 215.869Q353.148 215.653 353.315 215.445Q353.482 215.237 353.66 215.037Q353.837 214.838 354.023 214.647Q354.21 214.456 354.406 214.275Q354.601 214.093 354.805 213.922Q355.01 213.75 355.222 213.588Q355.434 213.427 355.654 213.275Q355.874 213.124 356.101 212.984Q356.328 212.844 356.562 212.715Q356.795 212.586 357.035 212.468Q357.275 212.351 357.52 212.245Q357.765 212.139 358.015 212.046Q358.264 211.952 358.518 211.871Q358.773 211.789 359.03 211.72Q359.288 211.651 359.549 211.595Z"/>
	<path fill="#E8F4FA" transform="scale(0.195312 0.195312)" d="M378.901 218.74L397.58 218.716C400.876 218.716 404.426 218.463 407.693 218.843C412.862 219.445 412.14 224.579 408.816 227.013C403.606 227.699 385.208 227.339 380.622 226.724C376.311 226.146 375.25 221.282 378.901 218.74Z"/>
	<path fill="#E8F4FA" transform="scale(0.195312 0.195312)" d="M317.96 218.74C322.428 218.818 341.828 217.943 344.494 219.597C347.631 221.544 346.339 226.325 342.939 227.013C339.377 227.114 318.669 227.474 316.675 226.669C312.646 225.043 314.806 219.964 317.96 218.74Z"/>
	<path fill="#E8F4FA" transform="scale(0.195312 0.195312)" d="M297.933 181.044C291.083 174.01 294.493 171.358 296.775 163.199C300.238 150.813 300.525 135.9 296.025 123.647C292.872 115.061 290.185 96.9909 302.621 95.8344C308.619 95.2766 314.961 95.7263 320.995 95.73L397.797 95.7318C404.607 95.73 411.686 95.2921 418.457 95.8284C431.027 96.824 429.048 110.603 429.046 119.594L429.041 161.693C429.047 168.762 430.669 177.685 424.239 182.506C420.096 181.749 408.446 182.515 403.577 182.513L312.745 182.521C307.896 182.524 302.316 183.536 297.933 181.044Z"/>
	<path fill="#4E6B89" transform="scale(0.195312 0.195312)" d="M324.861 141.958C329.496 141.724 334.228 141.951 338.876 141.951L384.602 141.952C387.86 141.953 391.519 141.66 394.719 142.226C398.825 142.953 397.808 147.731 395.076 149.452C389.938 149.592 384.757 149.461 379.615 149.461L333.77 149.458C329.992 149.46 320.956 151.035 322.762 144.337C323.077 143.169 323.84 142.512 324.861 141.958Z"/>
	<path fill="#4E6B89" transform="scale(0.195312 0.195312)" d="M326.601 118.233L386.125 118.232C389.534 118.224 396.067 116.982 397.412 121.331C398.188 123.84 395.817 125.293 393.687 125.715L349.663 125.706C345.374 125.71 327.024 126.77 324.136 125.111C320.221 122.86 322.272 118.974 326.601 118.233Z"/>
	<path fill="#FECE79" transform="scale(0.195312 0.195312)" d="M98.8536 222.728L117.077 222.709C119.811 222.705 122.778 222.435 125.48 222.728C135.388 224.69 144.72 220.356 154.751 230.917C169.337 241.739 165.822 263.795 165.808 279.585C165.802 286.845 166.28 295.103 165.815 302.242C165.802 304.916 165.775 307.591 165.815 310.265C161.431 309.97 150.678 307.643 151.396 314.812C150.975 318.835 151.363 322.849 151.38 326.882L151.396 351.161C151.231 356.61 144.092 349.184 141.165 346.911C137.611 347.612 126.673 346.673 124.683 347.847C122.399 346.716 119.055 346.887 116.551 346.891L104.275 346.928C73.4786 347.004 65.9253 330.794 65.909 301.909L65.9129 263.156C65.9361 245.206 70.0594 228.721 90.8819 223.939C93.4091 223.359 96.0418 223.348 98.58 222.791L98.8536 222.728Z"/>
	<path fill="#FEBB47" transform="scale(0.195312 0.195312)" d="M141.165 302.242C149.362 302.235 157.626 302.51 165.815 302.242C165.802 304.916 165.775 307.591 165.815 310.265C161.431 309.97 150.678 307.643 151.396 314.812C150.975 318.835 151.363 322.849 151.38 326.882L151.396 351.161C151.231 356.61 144.092 349.184 141.165 346.911C140.889 341.998 141.15 336.921 141.152 331.989L141.165 302.242Z"/>
	<path fill="#FE8576" transform="scale(0.195312 0.195312)" d="M113.143 277.801C127.648 276.58 125.465 290.212 125.46 300.382C125.454 309.848 128.373 320.726 117.943 324.648C113.405 325.228 107.586 323.49 106.111 318.562C105.096 315.169 105.252 292.018 105.646 287.583C106.113 282.334 107.867 279.457 113.143 277.801Z"/>
	<path fill="#FE8576" transform="scale(0.195312 0.195312)" d="M115.62 242.141Q115.935 242.143 116.249 242.161Q116.563 242.178 116.876 242.211Q117.189 242.244 117.5 242.292Q117.811 242.34 118.12 242.403Q118.428 242.466 118.733 242.544Q119.038 242.622 119.338 242.715Q119.639 242.808 119.935 242.916Q120.231 243.023 120.521 243.145Q120.811 243.267 121.095 243.403Q121.379 243.539 121.656 243.689Q121.932 243.838 122.202 244.001Q122.471 244.164 122.732 244.34Q122.993 244.516 123.245 244.704Q123.497 244.893 123.74 245.094Q123.982 245.294 124.215 245.506Q124.447 245.718 124.669 245.942Q124.891 246.165 125.101 246.399Q125.312 246.633 125.511 246.876Q125.71 247.12 125.897 247.374Q126.084 247.627 126.258 247.889Q126.432 248.151 126.593 248.421Q126.755 248.692 126.902 248.969Q127.05 249.247 127.184 249.532Q127.318 249.817 127.438 250.108Q127.558 250.399 127.664 250.695Q127.77 250.992 127.861 251.293Q127.952 251.594 128.028 251.9Q128.104 252.205 128.165 252.514Q128.226 252.822 128.272 253.134Q128.319 253.445 128.349 253.758Q128.38 254.072 128.396 254.386Q128.411 254.7 128.411 255.015Q128.411 255.33 128.396 255.644Q128.38 255.958 128.35 256.272Q128.319 256.585 128.273 256.896Q128.227 257.207 128.166 257.516Q128.105 257.825 128.029 258.13Q127.953 258.436 127.862 258.737Q127.771 259.038 127.665 259.335Q127.56 259.631 127.44 259.922Q127.32 260.213 127.186 260.498Q127.052 260.783 126.904 261.061Q126.757 261.339 126.596 261.609Q126.434 261.879 126.26 262.141Q126.086 262.404 125.899 262.657Q125.713 262.91 125.514 263.154Q125.315 263.398 125.104 263.632Q124.894 263.866 124.672 264.089Q124.45 264.312 124.218 264.525Q123.986 264.737 123.743 264.938Q123.501 265.138 123.249 265.327Q122.997 265.515 122.736 265.691Q122.475 265.867 122.206 266.03Q121.937 266.193 121.66 266.343Q121.383 266.493 121.099 266.629Q120.815 266.765 120.525 266.887Q120.235 267.009 119.939 267.116Q119.644 267.224 119.343 267.317Q119.042 267.41 118.738 267.489Q118.433 267.567 118.124 267.63Q117.816 267.693 117.505 267.742Q117.194 267.79 116.881 267.823Q116.568 267.856 116.254 267.873Q115.94 267.891 115.625 267.893Q115.308 267.895 114.99 267.882Q114.673 267.868 114.357 267.839Q114.041 267.81 113.726 267.766Q113.412 267.721 113.1 267.661Q112.789 267.601 112.48 267.526Q112.172 267.451 111.867 267.36Q111.563 267.27 111.264 267.164Q110.964 267.059 110.67 266.939Q110.376 266.819 110.089 266.685Q109.801 266.551 109.52 266.402Q109.239 266.254 108.966 266.092Q108.693 265.93 108.428 265.755Q108.164 265.58 107.908 265.392Q107.652 265.204 107.406 265.003Q107.16 264.803 106.924 264.591Q106.688 264.378 106.462 264.155Q106.237 263.931 106.023 263.696Q105.809 263.462 105.607 263.217Q105.405 262.972 105.215 262.718Q105.025 262.463 104.848 262.2Q104.671 261.936 104.507 261.665Q104.343 261.393 104.193 261.113Q104.042 260.833 103.906 260.547Q103.77 260.26 103.647 259.967Q103.525 259.674 103.418 259.375Q103.311 259.076 103.218 258.773Q103.125 258.469 103.048 258.161Q102.97 257.853 102.908 257.542Q102.846 257.231 102.799 256.917Q102.752 256.603 102.721 256.287Q102.689 255.971 102.674 255.654Q102.658 255.336 102.658 255.019Q102.658 254.702 102.674 254.384Q102.689 254.067 102.72 253.751Q102.752 253.436 102.798 253.121Q102.845 252.807 102.907 252.496Q102.969 252.185 103.047 251.877Q103.124 251.569 103.217 251.265Q103.309 250.962 103.417 250.663Q103.524 250.364 103.646 250.071Q103.768 249.778 103.904 249.491Q104.04 249.204 104.19 248.925Q104.341 248.645 104.504 248.373Q104.668 248.101 104.845 247.838Q105.022 247.574 105.212 247.32Q105.402 247.065 105.604 246.82Q105.806 246.576 106.02 246.341Q106.234 246.106 106.459 245.883Q106.684 245.659 106.92 245.446Q107.156 245.234 107.402 245.034Q107.649 244.833 107.904 244.645Q108.16 244.457 108.425 244.282Q108.689 244.106 108.962 243.944Q109.235 243.782 109.516 243.634Q109.797 243.485 110.084 243.351Q110.372 243.217 110.666 243.097Q110.96 242.977 111.259 242.871Q111.559 242.766 111.863 242.675Q112.167 242.585 112.476 242.509Q112.784 242.434 113.096 242.374Q113.407 242.314 113.722 242.269Q114.036 242.224 114.352 242.195Q114.668 242.166 114.985 242.152Q115.303 242.139 115.62 242.141Z"/>
	<path fill="#60CBB9" transform="scale(0.195312 0.195312)" d="M435.383 298.276C443.304 297.871 449.988 305.263 446.124 312.951C444.213 316.753 433.72 325.911 429.934 329.736L383.634 376.028C378.609 380.995 370.22 391.632 363.976 394.289C355.764 395.237 348.362 387.681 352.905 379.513C354.471 376.698 358.628 373.532 360.966 371.204L415.98 315.937C420.534 311.351 429.364 300.196 435.383 298.276Z"/>
	<path fill="#E8F4FA" transform="scale(0.195312 0.195312)" d="M136.299 133.332C144.229 133.481 149.214 140.456 144.207 147.747C140.064 153.781 134.089 158.92 128.868 164.029C118.49 174.183 108.24 184.621 98.2476 195.152C92.8914 200.797 82.2277 214.252 74.3152 215.717C70.0091 216.057 65.1483 212.466 64.3462 208.219C62.9907 201.041 70.758 195.991 75.1178 191.508L99.7657 166.632C107.542 158.815 115.236 150.969 123.122 143.259C127.386 139.089 130.055 134.334 136.299 133.332Z"/>
	<path fill="#60CBB9" transform="scale(0.195312 0.195312)" d="M393.687 285.287C404.43 284.585 409.952 293.744 403.11 301.443C397.644 307.594 391.503 313.096 385.766 318.98L370.031 334.973C366.108 338.922 361.712 344.667 356.473 346.911C347.356 347.544 340.554 340.742 345.408 332.842C348.4 327.971 355.162 322.204 359.385 318.007L380.043 297.282C384.006 293.302 387.923 286.736 393.687 285.287Z"/>
	<path fill="#12CAE1" transform="scale(0.195312 0.195312)" d="M98.8536 222.728C107.778 211.631 123.743 198.335 134.202 187.258C137.511 183.754 141.65 177.929 146.809 177.279C151.999 176.624 157.291 180.165 157.905 185.51C158.679 192.254 149.672 198.451 145.479 202.623C138.787 209.281 132.04 215.941 125.48 222.728C122.778 222.435 119.811 222.705 117.077 222.709L98.8536 222.728Z"/>
	<path fill="#E8F4FA" transform="scale(0.195312 0.195312)" d="M124.683 347.847C126.673 346.673 137.611 347.612 141.165 346.911C144.092 349.184 151.231 356.61 151.396 351.161C151.669 356.157 151.608 361.528 151.396 366.529C148.036 365.664 129.382 351.081 124.683 347.847Z"/>
</svg>
