<?xml version="1.0" encoding="utf-8" ?>
<svg xmlns="http://www.w3.org/2000/svg" xmlns:xlink="http://www.w3.org/1999/xlink" width="100" height="100">
	<path fill="#FDFDFD" transform="scale(0.195312 0.195312)" d="M115.24 135.17C118.404 126.966 142.937 107.662 150.491 102.315C193.779 71.6763 251.286 60.2146 302.499 75.2824C305.896 76.2817 312.878 77.9703 315.737 79.6414C326.481 71.4297 343.739 68.0015 356.753 69.7006C394.348 74.6092 416.564 111.209 405.53 146.627C407.507 147.512 409.299 150.532 410.519 152.283C428.919 178.689 439.774 210.554 441.71 242.636C442.253 251.64 442.68 268.238 440.797 276.653C439.095 309.121 420.756 348.039 400.156 372.255C397.795 375.03 392.839 381.986 389.54 383.342C371.931 405.06 341.809 418.222 317.245 430.396C318.996 433.598 318.444 437.24 318.278 440.749L228.491 440.749C213.421 440.75 198.317 440.965 183.251 440.749C183.21 434.937 182.31 430.23 187.356 426.161C185.422 424.985 182.974 424.24 180.884 423.352C159.221 414.154 138.961 400.871 122.539 383.981C98.8075 364.812 78.2503 317.535 72.8295 288.798C72.2565 283.324 70.9225 277.939 70.3841 272.425C66.2243 229.821 77.5215 189.13 100.653 153.32C103.227 149.336 105.896 144.125 110.062 141.61C111.323 139.276 113.375 137.043 115.24 135.17Z"/>
	<path fill="#7AD1E6" transform="scale(0.195312 0.195312)" d="M407.996 238.413C417.621 244.786 428.578 258.055 435.243 267.687C437.006 270.235 438.682 274.566 440.797 276.653C439.095 309.121 420.756 348.039 400.156 372.255C397.795 375.03 392.839 381.986 389.54 383.342C371.931 405.06 341.809 418.222 317.245 430.396C318.996 433.598 318.444 437.24 318.278 440.749L228.491 440.749C213.421 440.75 198.317 440.965 183.251 440.749C183.21 434.937 182.31 430.23 187.356 426.161C185.422 424.985 182.974 424.24 180.884 423.352C159.221 414.154 138.961 400.871 122.539 383.981C98.8075 364.812 78.2503 317.535 72.8295 288.798C75.5087 286.539 79.0556 279.64 81.1443 276.31C87.7883 265.72 97.785 250.147 107.38 242.327L107.371 327.351C107.367 353.172 114.016 358.3 137.624 358.271L160.232 358.243C165.343 358.239 170.699 357.924 175.754 358.762L274.616 358.762L277.177 358.762L285.486 358.762C289.396 358.793 293.37 358.971 297.271 358.762C298.592 359.009 300.011 358.857 301.347 358.762C301.325 354.597 301.589 350.374 301.347 346.22L333.4 346.231C364.745 346.221 364.023 346.368 364.019 318.461L364.058 302.058C364.078 298.87 364.266 295.595 364.037 292.419C364.13 291.685 364.063 290.943 364.037 290.204L364.037 290.204L364.037 281.642C368.013 281.662 371.998 281.735 375.972 281.642L375.972 281.642C402.025 281.663 408.017 283.607 408.004 256.758L407.996 238.413Z"/>
	<path fill="#6F80A1" transform="scale(0.195312 0.195312)" d="M214.953 383.342C238.13 383.337 261.332 383.579 284.506 383.342L284.506 397.918C284.06 432.89 306.503 414.792 317.245 430.396C318.996 433.598 318.444 437.24 318.278 440.749L228.491 440.749C213.421 440.75 198.317 440.965 183.251 440.749C183.21 434.937 182.31 430.23 187.356 426.161C191.05 422.713 200.103 423.307 205.716 420.886C214.045 414.503 214.954 406.586 214.97 396.615L214.953 383.342Z"/>
	<path fill="#5C628D" transform="scale(0.195312 0.195312)" d="M214.953 383.342C238.13 383.337 261.332 383.579 284.506 383.342L284.506 397.918L265.247 397.906C252.999 397.918 251.156 397.658 240.259 403.441C233.541 407.007 211.779 419.828 205.716 420.886C214.045 414.503 214.954 406.586 214.97 396.615L214.953 383.342Z"/>
	<path fill="#18ACD6" transform="scale(0.195312 0.195312)" d="M284.506 383.342L378.045 383.348C381.874 383.354 385.717 383.612 389.54 383.342C371.931 405.06 341.809 418.222 317.245 430.396C306.503 414.792 284.06 432.89 284.506 397.918L284.506 383.342Z"/>
	<path fill="#18ACD6" transform="scale(0.195312 0.195312)" d="M122.539 383.981C124.945 383.807 127.459 383.96 129.875 383.967L190.187 383.985C198.39 383.984 206.815 384.441 214.953 383.342L214.97 396.615C214.954 406.586 214.045 414.503 205.716 420.886C200.103 423.307 191.05 422.713 187.356 426.161C185.422 424.985 182.974 424.24 180.884 423.352C159.221 414.154 138.961 400.871 122.539 383.981Z"/>
	<path fill="#6F80A1" transform="scale(0.195312 0.195312)" d="M375.972 281.642L377.408 281.642C377.556 285.663 377.406 289.721 377.401 293.746L377.423 330.666C377.534 359.295 367.262 358.774 341.193 358.763L301.347 358.762C301.325 354.597 301.589 350.374 301.347 346.22L333.4 346.231C364.745 346.221 364.023 346.368 364.019 318.461L364.058 302.058C364.078 298.87 364.266 295.595 364.037 292.419C364.13 291.685 364.063 290.943 364.037 290.204L364.037 290.204L364.037 281.642C368.013 281.662 371.998 281.735 375.972 281.642Z"/>
	<path fill="#2F4D76" transform="scale(0.195312 0.195312)" d="M375.972 281.642L377.408 281.642C377.217 284.489 377.424 287.354 377.408 290.204C376.053 290.204 364.602 290.611 364.207 290.425L364.037 290.204L364.037 281.642C368.013 281.662 371.998 281.735 375.972 281.642Z"/>
	<path fill="#F98C7A" transform="scale(0.195312 0.195312)" d="M315.737 79.6414C326.481 71.4297 343.739 68.0015 356.753 69.7006C394.348 74.6092 416.564 111.209 405.53 146.627C399.371 160.909 395.212 163.612 385.481 173.567C382.402 174.881 379.569 176.727 376.624 178.31C360.334 187.065 338.651 186.475 322.356 178.343C317.954 176.146 313.999 173.35 309.76 170.889C307.684 168.53 305.415 166.281 303.652 163.674L301.347 161.729C299.662 157.639 296.374 153.678 294.368 149.161C293.091 145.551 291.746 142.087 291.696 138.209C290.796 135.488 290.324 133.188 290.229 130.32C288.714 110.395 299.38 90.6826 315.737 79.6414Z"/>
	<path fill="#FDFDFD" transform="scale(0.195312 0.195312)" d="M333.324 170.889C308.639 160.91 293.734 136.848 304.41 110.535C319.983 72.1563 377.376 70.6119 393.17 109.336C403.619 134.955 390.573 164.849 362.512 170.889C362.548 167.066 363.416 161.516 360.721 158.439L358.793 157.504L337.371 157.504L336.325 157.504C331.783 160.324 333.407 166.386 333.324 170.889Z"/>
	<path fill="#69DAA3" transform="scale(0.195312 0.195312)" d="M341.537 96.023L341.993 96.0014C347.745 95.6901 353.283 94.8302 358.793 97.2632C363.402 99.9135 365.511 99.6584 370.868 104.147C374.869 109.019 378.005 113.292 380.122 119.297C381.452 124.049 381.674 128.158 381.217 133.051C379.127 140.287 376.11 145.585 370.868 151.007C369.051 152.737 362.915 157.709 360.721 158.439L358.793 157.504L337.371 157.504L336.325 157.504C333.204 156.162 329.768 153.942 327.137 151.778C322.079 143.695 319.754 146.955 317.245 133.051C316.71 127.731 317.698 123.199 318.278 118.072C320.902 114.847 320.043 110.676 327.137 104.147C332.215 98.7005 337.687 98.8806 341.537 96.023Z"/>
	<path fill="#FDFDFD" transform="scale(0.195312 0.195312)" d="M337.371 157.504C344.844 149.791 351.279 149.155 358.793 157.504L337.371 157.504Z"/>
	<path fill="#FDFDFD" transform="scale(0.195312 0.195312)" d="M348.221 108.306Q348.713 108.286 349.206 108.291Q349.698 108.296 350.19 108.324Q350.681 108.353 351.171 108.406Q351.66 108.459 352.147 108.536Q352.633 108.612 353.115 108.713Q353.598 108.813 354.074 108.937Q354.551 109.061 355.021 109.209Q355.491 109.356 355.953 109.526Q356.415 109.696 356.868 109.889Q357.321 110.081 357.765 110.296Q358.208 110.51 358.64 110.746Q359.072 110.982 359.493 111.239Q359.913 111.496 360.32 111.773Q360.727 112.05 361.12 112.347Q361.513 112.644 361.891 112.96Q362.269 113.275 362.631 113.609Q362.993 113.943 363.338 114.294Q363.683 114.645 364.011 115.013Q364.338 115.381 364.648 115.764Q364.957 116.147 365.247 116.545Q365.537 116.943 365.807 117.355Q366.077 117.767 366.327 118.191Q366.576 118.616 366.805 119.052Q367.033 119.488 367.24 119.935Q367.447 120.382 367.632 120.839Q367.817 121.295 367.979 121.76Q368.141 122.225 368.28 122.697Q368.419 123.17 368.535 123.649Q368.651 124.127 368.743 124.611Q368.835 125.095 368.904 125.582Q368.972 126.07 369.016 126.561Q369.061 127.051 369.081 127.543Q369.101 128.035 369.098 128.527Q369.094 129.02 369.066 129.512Q369.038 130.003 368.986 130.493Q368.934 130.983 368.858 131.469Q368.782 131.956 368.682 132.438Q368.582 132.92 368.459 133.397Q368.336 133.874 368.189 134.344Q368.043 134.814 367.874 135.277Q367.704 135.739 367.513 136.193Q367.321 136.646 367.107 137.09Q366.893 137.533 366.658 137.966Q366.423 138.399 366.166 138.819Q365.91 139.24 365.634 139.647Q365.357 140.055 365.061 140.448Q364.765 140.842 364.45 141.22Q364.135 141.599 363.801 141.961Q363.468 142.324 363.117 142.669Q362.767 143.015 362.4 143.343Q362.032 143.672 361.65 143.981Q361.267 144.291 360.869 144.582Q360.472 144.872 360.06 145.143Q359.649 145.414 359.225 145.664Q358.801 145.915 358.365 146.144Q357.929 146.373 357.483 146.581Q357.036 146.788 356.58 146.974Q356.124 147.159 355.659 147.322Q355.194 147.485 354.722 147.625Q354.25 147.765 353.772 147.882Q353.293 147.998 352.81 148.091Q352.326 148.184 351.838 148.253Q351.351 148.323 350.86 148.368Q350.37 148.413 349.878 148.434Q349.385 148.455 348.892 148.452Q348.398 148.449 347.905 148.422Q347.413 148.394 346.922 148.343Q346.431 148.291 345.944 148.216Q345.456 148.14 344.973 148.041Q344.489 147.941 344.011 147.818Q343.533 147.695 343.062 147.549Q342.591 147.403 342.127 147.233Q341.664 147.064 341.209 146.872Q340.755 146.68 340.31 146.466Q339.865 146.252 339.432 146.017Q338.998 145.781 338.577 145.525Q338.155 145.268 337.747 144.991Q337.338 144.714 336.944 144.417Q336.55 144.121 336.171 143.805Q335.791 143.489 335.428 143.155Q335.065 142.821 334.718 142.47Q334.372 142.119 334.043 141.751Q333.714 141.383 333.404 140.999Q333.094 140.615 332.803 140.217Q332.512 139.818 332.24 139.406Q331.969 138.994 331.719 138.569Q331.468 138.144 331.239 137.707Q331.009 137.27 330.802 136.822Q330.594 136.375 330.409 135.917Q330.223 135.46 330.06 134.994Q329.898 134.528 329.758 134.055Q329.618 133.582 329.502 133.102Q329.386 132.623 329.293 132.138Q329.201 131.653 329.132 131.165Q329.063 130.676 329.019 130.184Q328.974 129.693 328.954 129.2Q328.934 128.707 328.938 128.214Q328.941 127.72 328.969 127.227Q328.998 126.735 329.05 126.244Q329.102 125.753 329.178 125.266Q329.255 124.778 329.355 124.295Q329.455 123.812 329.579 123.334Q329.703 122.857 329.85 122.386Q329.997 121.915 330.167 121.451Q330.337 120.988 330.53 120.534Q330.722 120.079 330.937 119.635Q331.151 119.191 331.388 118.758Q331.624 118.324 331.881 117.903Q332.138 117.482 332.416 117.074Q332.694 116.666 332.991 116.272Q333.288 115.878 333.605 115.5Q333.921 115.121 334.255 114.758Q334.59 114.395 334.942 114.049Q335.294 113.704 335.662 113.375Q336.031 113.047 336.415 112.737Q336.799 112.428 337.198 112.137Q337.597 111.847 338.01 111.576Q338.422 111.306 338.848 111.056Q339.273 110.806 339.711 110.577Q340.148 110.349 340.596 110.142Q341.044 109.935 341.501 109.75Q341.959 109.565 342.425 109.403Q342.891 109.241 343.365 109.102Q343.838 108.963 344.318 108.848Q344.798 108.732 345.283 108.641Q345.767 108.549 346.256 108.481Q346.745 108.413 347.236 108.369Q347.728 108.326 348.221 108.306Z"/>
	<path fill="#7AD1E6" transform="scale(0.195312 0.195312)" d="M322.06 153.712C315.712 150.983 305.669 135.538 317.245 133.051C319.754 146.955 322.079 143.695 327.137 151.778C325.394 152.182 323.707 153.015 322.06 153.712Z"/>
	<path fill="#7AD1E6" transform="scale(0.195312 0.195312)" d="M381.217 133.051C392.206 136.456 378.819 158.409 370.868 151.007C376.11 145.585 379.127 140.287 381.217 133.051Z"/>
	<path fill="#7AD1E6" transform="scale(0.195312 0.195312)" d="M318.278 118.072L317.235 117.641C305.788 112.83 320.412 101.645 321.263 101.53C323.301 101.255 325.563 103.05 327.137 104.147C320.043 110.676 320.902 114.847 318.278 118.072Z"/>
	<path fill="#7AD1E6" transform="scale(0.195312 0.195312)" d="M370.868 104.147C373.018 102.369 375.538 100.805 377.712 103.429C381.992 108.594 388.325 115.793 380.122 119.297C378.005 113.292 374.869 109.019 370.868 104.147Z"/>
	<path fill="#7AD1E6" transform="scale(0.195312 0.195312)" d="M341.537 96.023C341.28 87.2862 353.914 89.2327 357.798 91.6372C358.794 93.0528 358.699 95.5825 358.793 97.2632C353.283 94.8302 347.745 95.6901 341.993 96.0014L341.537 96.023Z"/>
	<path fill="#B9E5F0" transform="scale(0.195312 0.195312)" d="M115.24 135.17C118.404 126.966 142.937 107.662 150.491 102.315C193.779 71.6763 251.286 60.2146 302.499 75.2824C305.896 76.2817 312.878 77.9703 315.737 79.6414C299.38 90.6826 288.714 110.395 290.229 130.32L145.293 130.32C130.426 130.267 128.444 128.904 115.24 135.17Z"/>
	<path fill="#5C628D" transform="scale(0.195312 0.195312)" d="M115.24 135.17C128.444 128.904 130.426 130.267 145.293 130.32C144.007 132.352 142.413 134.192 141.404 136.382C139.3 140.776 139.848 145.022 139.598 149.722Q139.715 149.847 139.827 149.977Q139.938 150.107 140.043 150.242Q140.148 150.377 140.247 150.517Q140.346 150.657 140.438 150.801Q140.529 150.945 140.614 151.094Q140.699 151.243 140.777 151.395Q140.855 151.547 140.926 151.703Q140.996 151.859 141.059 152.018Q141.123 152.177 141.178 152.339Q141.234 152.501 141.281 152.666Q141.329 152.83 141.369 152.996Q141.409 153.163 141.441 153.331Q141.474 153.499 141.498 153.669Q141.522 153.838 141.538 154.008Q141.554 154.179 141.562 154.35Q141.57 154.521 141.57 154.692Q141.57 154.863 141.562 155.034Q141.554 155.205 141.538 155.375Q141.522 155.546 141.497 155.715Q141.473 155.885 141.441 156.053Q141.409 156.221 141.369 156.387Q141.329 156.554 141.281 156.718Q141.233 156.882 141.177 157.044Q141.121 157.206 141.058 157.365Q140.995 157.524 140.924 157.68Q140.854 157.836 140.776 157.989Q140.698 158.141 140.613 158.29Q140.528 158.438 140.436 158.582Q140.344 158.727 140.245 158.867Q140.147 159.007 140.041 159.142Q139.936 159.277 139.825 159.407Q139.713 159.536 139.596 159.661C140.56 164.593 139.294 172.553 139.966 178.008C117.016 179.471 120.77 198.616 120.77 215.053L120.77 322.345C120.71 346.395 126.527 346.239 150.456 346.233L174.983 346.22C174.912 350.06 174.289 355.129 175.754 358.762C170.699 357.924 165.343 358.239 160.232 358.243L137.624 358.271C114.016 358.3 107.367 353.172 107.371 327.351L107.38 242.327C97.785 250.147 87.7883 265.72 81.1443 276.31C79.0556 279.64 75.5087 286.539 72.8295 288.798C72.2565 283.324 70.9225 277.939 70.3841 272.425C66.2243 229.821 77.5215 189.13 100.653 153.32C103.227 149.336 105.896 144.125 110.062 141.61C111.323 139.276 113.375 137.043 115.24 135.17Z"/>
	<path fill="#B9E5F0" transform="scale(0.195312 0.195312)" d="M72.8295 288.798C72.2565 283.324 70.9225 277.939 70.3841 272.425C66.2243 229.821 77.5215 189.13 100.653 153.32C103.227 149.336 105.896 144.125 110.062 141.61C107.529 149.012 107.369 155.683 107.365 163.482L107.389 221.846C107.391 228.599 107.774 235.597 107.38 242.327C97.785 250.147 87.7883 265.72 81.1443 276.31C79.0556 279.64 75.5087 286.539 72.8295 288.798Z"/>
	<path fill="#F25E68" transform="scale(0.195312 0.195312)" d="M139.596 159.661Q139.411 159.858 139.211 160.04Q139.012 160.222 138.799 160.389Q138.587 160.556 138.362 160.706Q138.138 160.857 137.903 160.99Q137.668 161.123 137.424 161.239Q137.18 161.354 136.928 161.452Q136.675 161.549 136.417 161.627Q136.158 161.704 135.894 161.763Q135.631 161.822 135.363 161.86Q135.096 161.899 134.826 161.918Q134.557 161.936 134.287 161.935Q134.016 161.933 133.747 161.912Q133.478 161.89 133.211 161.849Q132.944 161.807 132.681 161.746Q132.418 161.684 132.16 161.604Q131.902 161.523 131.651 161.423Q131.4 161.323 131.157 161.205Q130.914 161.087 130.68 160.951Q130.447 160.815 130.224 160.662Q130.002 160.509 129.791 160.34Q129.58 160.171 129.383 159.987Q129.185 159.802 129.002 159.604Q128.819 159.405 128.651 159.194Q128.483 158.982 128.331 158.758Q128.179 158.535 128.045 158.301Q127.91 158.066 127.793 157.823Q127.676 157.579 127.578 157.327Q127.48 157.076 127.4 156.818Q127.321 156.559 127.261 156.296Q127.201 156.032 127.161 155.765Q127.121 155.498 127.101 155.229Q127.081 154.959 127.081 154.689Q127.081 154.419 127.101 154.149Q127.121 153.88 127.162 153.613Q127.202 153.346 127.262 153.082Q127.322 152.819 127.401 152.561Q127.481 152.302 127.579 152.051Q127.678 151.799 127.795 151.556Q127.912 151.312 128.046 151.078Q128.181 150.844 128.333 150.62Q128.485 150.397 128.653 150.185Q128.821 149.974 129.004 149.775Q129.187 149.577 129.385 149.392Q129.583 149.208 129.793 149.039Q130.004 148.87 130.227 148.717Q130.45 148.564 130.683 148.429Q130.917 148.293 131.16 148.175Q131.403 148.057 131.654 147.957Q131.905 147.857 132.163 147.777Q132.421 147.696 132.684 147.635Q132.947 147.574 133.214 147.532Q133.481 147.491 133.75 147.469Q134.02 147.448 134.29 147.446Q134.56 147.445 134.829 147.464Q135.099 147.483 135.366 147.521Q135.634 147.56 135.897 147.619Q136.161 147.677 136.42 147.755Q136.678 147.833 136.93 147.931Q137.182 148.028 137.427 148.143Q137.671 148.259 137.906 148.392Q138.14 148.526 138.365 148.677Q138.589 148.827 138.801 148.994Q139.014 149.161 139.213 149.343Q139.413 149.525 139.598 149.722Q139.715 149.847 139.827 149.977Q139.938 150.107 140.043 150.242Q140.148 150.377 140.247 150.517Q140.346 150.657 140.438 150.801Q140.529 150.945 140.614 151.094Q140.699 151.243 140.777 151.395Q140.855 151.547 140.926 151.703Q140.996 151.859 141.059 152.018Q141.123 152.177 141.178 152.339Q141.234 152.501 141.281 152.666Q141.329 152.83 141.369 152.996Q141.409 153.163 141.441 153.331Q141.474 153.499 141.498 153.669Q141.522 153.838 141.538 154.008Q141.554 154.179 141.562 154.35Q141.57 154.521 141.57 154.692Q141.57 154.863 141.562 155.034Q141.554 155.205 141.538 155.375Q141.522 155.546 141.497 155.715Q141.473 155.885 141.441 156.053Q141.409 156.221 141.369 156.387Q141.329 156.554 141.281 156.718Q141.233 156.882 141.177 157.044Q141.121 157.206 141.058 157.365Q140.995 157.524 140.924 157.68Q140.854 157.836 140.776 157.989Q140.698 158.141 140.613 158.29Q140.528 158.438 140.436 158.582Q140.344 158.727 140.245 158.867Q140.147 159.007 140.041 159.142Q139.936 159.277 139.825 159.407Q139.713 159.536 139.596 159.661Z"/>
	<path fill="#F98C7A" transform="scale(0.195312 0.195312)" d="M246.326 283.329C248.595 283.097 250.77 282.309 252.941 281.642L252.941 283.329L252.941 295.466C267.893 295.402 279.576 294.44 291.028 305.832C297.509 312.28 301.156 320.484 301.347 329.609C301.362 335.134 301.512 340.697 301.347 346.22C301.589 350.374 301.325 354.597 301.347 358.762C300.011 358.857 298.592 359.009 297.271 358.762C293.37 358.971 289.396 358.793 285.486 358.762L277.177 358.762L274.616 358.762L175.754 358.762C174.289 355.129 174.912 350.06 174.983 346.22C174.94 329.679 174.601 316.947 187.953 304.314C198.557 294.362 210.408 295.444 223.831 295.466L223.831 290.204C224.218 289.607 223.836 282.921 223.831 281.642C230.536 284.049 239.397 286.049 246.326 283.329Z"/>
	<path fill="#F25E68" transform="scale(0.195312 0.195312)" d="M187.953 304.314C189.543 306.08 192.456 322.726 192.542 325.826C196.212 323.663 199.92 323.919 200.729 328.706C202.732 331.353 204.446 334.307 206.603 336.819C220.03 352.46 245.834 348.114 264.666 349.189C268.843 349.194 273.009 349.031 277.177 348.764C277.336 352.123 277.474 355.405 277.177 358.762L274.616 358.762L175.754 358.762C174.289 355.129 174.912 350.06 174.983 346.22C174.94 329.679 174.601 316.947 187.953 304.314Z"/>
	<path fill="#E84860" transform="scale(0.195312 0.195312)" d="M192.542 325.826C196.212 323.663 199.92 323.919 200.729 328.706C200.272 331.582 200.698 334.931 200.713 337.87L200.729 358.762C197.977 358.561 195.296 358.592 192.542 358.762C193.073 348.453 191.452 335.337 192.542 325.826Z"/>
	<path fill="#FCDD89" transform="scale(0.195312 0.195312)" d="M246.326 283.329C248.595 283.097 250.77 282.309 252.941 281.642L252.941 283.329L252.941 295.466C250.463 317.18 223.713 311.601 223.831 296.242L223.831 295.466L223.831 290.204C224.218 289.607 223.836 282.921 223.831 281.642C230.536 284.049 239.397 286.049 246.326 283.329Z"/>
	<path fill="#F6A232" transform="scale(0.195312 0.195312)" d="M246.326 283.329C248.595 283.097 250.77 282.309 252.941 281.642L252.941 283.329C252.371 284.569 252.869 287.372 252.941 288.798C250.489 289.843 248.591 291.811 246.202 292.968C237.075 297.389 233.279 295.653 223.831 296.242L223.831 295.466L223.831 290.204C224.218 289.607 223.836 282.921 223.831 281.642C230.536 284.049 239.397 286.049 246.326 283.329Z"/>
	<path fill="#E84860" transform="scale(0.195312 0.195312)" d="M277.177 348.764L277.148 335.938C277.146 333.301 276.382 327.434 278.449 325.348C280.915 322.86 285.048 324.634 285.415 327.917C285.738 330.813 285.515 333.936 285.513 336.861L285.486 353.242L285.486 358.762L277.177 358.762C277.474 355.405 277.336 352.123 277.177 348.764Z"/>
	<path fill="#F25E68" transform="scale(0.195312 0.195312)" d="M285.486 353.242C286.089 356.231 293.313 356.409 297.271 358.762C293.37 358.971 289.396 358.793 285.486 358.762L285.486 353.242Z"/>
	<path fill="#6F80A1" transform="scale(0.195312 0.195312)" d="M145.293 130.32L290.229 130.32C290.324 133.188 290.796 135.488 291.696 138.209C291.746 142.087 293.091 145.551 294.368 149.161C296.374 153.678 299.662 157.639 301.347 161.729L303.652 163.674C305.415 166.281 307.684 168.53 309.76 170.889C307.201 171.408 305.537 172.16 303.652 174.03C302.864 175.293 301.923 176.636 301.347 178.008C295.477 178.211 289.535 178.011 283.656 178.01L139.966 178.008C139.294 172.553 140.56 164.593 139.596 159.661Q139.713 159.536 139.825 159.407Q139.936 159.277 140.041 159.142Q140.147 159.007 140.245 158.867Q140.344 158.727 140.436 158.582Q140.528 158.438 140.613 158.29Q140.698 158.141 140.776 157.989Q140.854 157.836 140.924 157.68Q140.995 157.524 141.058 157.365Q141.121 157.206 141.177 157.044Q141.233 156.882 141.281 156.718Q141.329 156.554 141.369 156.387Q141.409 156.221 141.441 156.053Q141.473 155.885 141.497 155.715Q141.522 155.546 141.538 155.375Q141.554 155.205 141.562 155.034Q141.57 154.863 141.57 154.692Q141.57 154.521 141.562 154.35Q141.554 154.179 141.538 154.008Q141.522 153.838 141.498 153.669Q141.474 153.499 141.441 153.331Q141.409 153.163 141.369 152.996Q141.329 152.83 141.281 152.666Q141.234 152.501 141.178 152.339Q141.123 152.177 141.059 152.018Q140.996 151.859 140.926 151.703Q140.855 151.547 140.777 151.395Q140.699 151.243 140.614 151.094Q140.529 150.945 140.438 150.801Q140.346 150.657 140.247 150.517Q140.148 150.377 140.043 150.242Q139.938 150.107 139.827 149.977Q139.715 149.847 139.598 149.722C139.848 145.022 139.3 140.776 141.404 136.382C142.413 134.192 144.007 132.352 145.293 130.32Z"/>
	<path fill="#9FAFD5" transform="scale(0.195312 0.195312)" d="M294.368 149.161C296.374 153.678 299.662 157.639 301.347 161.729C293.418 161.604 214.296 162.872 211.336 160.638C208.36 158.392 207.913 153.52 210.581 150.852C213.343 148.091 219.659 149.154 223.164 149.154L240.506 149.156C258.454 149.159 276.423 148.954 294.368 149.161Z"/>
	<path fill="#2F4D76" transform="scale(0.195312 0.195312)" d="M303.652 163.674C305.415 166.281 307.684 168.53 309.76 170.889C307.201 171.408 305.537 172.16 303.652 174.03C303.532 170.6 303.575 167.105 303.652 163.674Z"/>
	<path fill="#F98C7A" transform="scale(0.195312 0.195312)" d="M177.872 147.874Q178.281 147.76 178.702 147.694Q179.122 147.629 179.546 147.613Q179.971 147.597 180.395 147.632Q180.819 147.666 181.236 147.75Q181.652 147.834 182.056 147.966Q182.46 148.098 182.846 148.277Q183.232 148.456 183.594 148.679Q183.956 148.902 184.289 149.166Q184.622 149.43 184.922 149.731Q185.222 150.033 185.485 150.367Q185.747 150.702 185.969 151.065Q186.19 151.428 186.367 151.814Q186.544 152.201 186.675 152.605Q186.805 153.01 186.888 153.427Q186.97 153.844 187.002 154.268Q187.035 154.692 187.017 155.117Q187.005 155.396 186.972 155.673Q186.939 155.95 186.885 156.223Q186.831 156.497 186.755 156.765Q186.68 157.034 186.584 157.296Q186.488 157.558 186.373 157.812Q186.257 158.066 186.122 158.31Q185.987 158.554 185.833 158.787Q185.68 159.02 185.509 159.24Q185.338 159.46 185.15 159.667Q184.963 159.873 184.76 160.065Q184.557 160.256 184.34 160.431Q184.122 160.606 183.892 160.764Q183.662 160.922 183.421 161.062Q183.18 161.201 182.928 161.322Q182.676 161.442 182.416 161.543Q182.156 161.644 181.889 161.724Q181.718 161.775 181.546 161.818Q181.373 161.861 181.198 161.895Q181.023 161.929 180.847 161.955Q180.67 161.98 180.493 161.997Q180.316 162.014 180.138 162.022Q179.96 162.03 179.782 162.029Q179.604 162.029 179.426 162.019Q179.248 162.01 179.071 161.991Q178.894 161.973 178.717 161.946Q178.541 161.919 178.367 161.883Q178.192 161.847 178.02 161.803Q177.847 161.759 177.677 161.706Q177.507 161.653 177.34 161.592Q177.172 161.531 177.008 161.462Q176.844 161.393 176.684 161.315Q176.523 161.238 176.367 161.153Q176.21 161.068 176.058 160.975Q175.906 160.882 175.759 160.782Q175.611 160.682 175.469 160.575Q175.327 160.467 175.19 160.353Q175.054 160.239 174.923 160.118Q174.792 159.997 174.667 159.87Q174.542 159.743 174.424 159.61Q174.305 159.477 174.194 159.338Q174.082 159.199 173.978 159.055Q173.873 158.911 173.775 158.762Q173.678 158.613 173.588 158.459Q173.498 158.305 173.416 158.147Q173.334 157.989 173.259 157.828Q173.185 157.666 173.119 157.5Q173.053 157.335 172.995 157.167Q172.937 156.998 172.887 156.827Q172.837 156.656 172.796 156.483Q172.755 156.309 172.723 156.134Q172.69 155.959 172.666 155.783Q172.643 155.606 172.628 155.429Q172.612 155.251 172.606 155.073Q172.6 154.895 172.602 154.717Q172.605 154.539 172.616 154.361Q172.628 154.183 172.648 154.006Q172.668 153.829 172.696 153.654Q172.725 153.478 172.763 153.304Q172.8 153.13 172.846 152.957Q172.892 152.785 172.946 152.616Q173.001 152.446 173.064 152.279Q173.126 152.113 173.197 151.949Q173.268 151.786 173.347 151.626Q173.426 151.467 173.512 151.311Q173.599 151.155 173.693 151.004Q173.788 150.853 173.889 150.707Q173.991 150.56 174.099 150.419Q174.208 150.278 174.324 150.143Q174.439 150.007 174.561 149.877Q174.683 149.748 174.811 149.624Q174.94 149.5 175.074 149.383Q175.208 149.266 175.348 149.156Q175.488 149.046 175.633 148.943Q175.778 148.839 175.928 148.743Q176.079 148.647 176.233 148.559Q176.388 148.471 176.547 148.39Q176.705 148.309 176.868 148.237Q177.031 148.164 177.197 148.099Q177.362 148.035 177.531 147.978Q177.7 147.922 177.872 147.874Z"/>
	<path fill="#69DAA3" transform="scale(0.195312 0.195312)" d="M156.157 147.485Q156.388 147.438 156.621 147.407Q156.854 147.375 157.089 147.359Q157.324 147.343 157.559 147.342Q157.795 147.342 158.03 147.357Q158.265 147.372 158.498 147.402Q158.732 147.432 158.963 147.478Q159.194 147.524 159.421 147.584Q159.648 147.645 159.871 147.721Q160.094 147.796 160.312 147.886Q160.529 147.977 160.74 148.081Q160.951 148.185 161.155 148.303Q161.359 148.421 161.555 148.552Q161.75 148.683 161.937 148.827Q162.123 148.97 162.3 149.126Q162.476 149.282 162.642 149.449Q162.808 149.615 162.963 149.793Q163.118 149.97 163.26 150.158Q163.403 150.345 163.533 150.541Q163.663 150.737 163.779 150.942Q163.896 151.146 163.999 151.358Q164.102 151.569 164.191 151.787Q164.28 152.005 164.354 152.228Q164.429 152.452 164.488 152.679Q164.548 152.907 164.592 153.138Q164.637 153.369 164.666 153.603Q164.695 153.836 164.708 154.071Q164.722 154.306 164.72 154.542Q164.718 154.777 164.701 155.012Q164.684 155.246 164.651 155.48Q164.618 155.713 164.57 155.943Q164.522 156.173 164.459 156.4Q164.396 156.627 164.318 156.849Q164.24 157.071 164.148 157.288Q164.055 157.504 163.949 157.714Q163.843 157.924 163.723 158.127Q163.603 158.329 163.47 158.523Q163.337 158.718 163.191 158.903Q163.045 159.088 162.888 159.263Q162.731 159.438 162.562 159.602Q162.393 159.766 162.214 159.919Q162.035 160.072 161.847 160.212Q161.658 160.353 161.46 160.481Q161.263 160.609 161.057 160.724Q160.852 160.838 160.639 160.939Q160.426 161.04 160.207 161.127Q159.988 161.214 159.764 161.286Q159.54 161.358 159.312 161.415Q159.084 161.472 158.852 161.514Q158.681 161.545 158.508 161.568Q158.335 161.59 158.162 161.605Q157.988 161.619 157.814 161.625Q157.64 161.63 157.466 161.628Q157.291 161.625 157.118 161.614Q156.944 161.603 156.771 161.583Q156.598 161.563 156.426 161.535Q156.254 161.507 156.084 161.471Q155.913 161.434 155.745 161.389Q155.576 161.345 155.41 161.292Q155.245 161.239 155.081 161.178Q154.918 161.117 154.758 161.049Q154.598 160.98 154.442 160.903Q154.285 160.827 154.132 160.743Q153.98 160.659 153.832 160.567Q153.683 160.476 153.54 160.378Q153.396 160.279 153.257 160.174Q153.118 160.068 152.985 159.956Q152.852 159.844 152.724 159.726Q152.596 159.608 152.474 159.483Q152.352 159.359 152.237 159.229Q152.121 159.098 152.012 158.963Q151.903 158.827 151.8 158.686Q151.698 158.545 151.602 158.399Q151.507 158.254 151.419 158.103Q151.33 157.953 151.25 157.799Q151.169 157.645 151.096 157.487Q151.023 157.328 150.957 157.167Q150.892 157.006 150.834 156.841Q150.777 156.677 150.728 156.51Q150.678 156.343 150.637 156.173Q150.596 156.004 150.563 155.833Q150.53 155.662 150.506 155.489Q150.481 155.317 150.465 155.144Q150.449 154.97 150.441 154.796Q150.434 154.622 150.435 154.448Q150.436 154.274 150.445 154.1Q150.454 153.926 150.472 153.753Q150.49 153.579 150.517 153.407Q150.543 153.235 150.577 153.064Q150.612 152.893 150.655 152.725Q150.698 152.556 150.749 152.389Q150.8 152.223 150.859 152.059Q150.919 151.895 150.986 151.734Q151.053 151.574 151.128 151.416Q151.202 151.259 151.285 151.106Q151.367 150.952 151.457 150.803Q151.547 150.654 151.644 150.509Q151.741 150.364 151.845 150.224Q151.949 150.085 152.059 149.95Q152.17 149.815 152.287 149.686Q152.404 149.557 152.527 149.434Q152.65 149.311 152.779 149.194Q152.908 149.077 153.043 148.966Q153.177 148.856 153.317 148.752Q153.457 148.648 153.602 148.551Q153.746 148.454 153.896 148.364Q154.045 148.275 154.198 148.192Q154.352 148.11 154.509 148.035Q154.666 147.96 154.827 147.893Q154.988 147.826 155.152 147.767Q155.316 147.708 155.482 147.657Q155.649 147.605 155.817 147.563Q155.986 147.52 156.157 147.485Z"/>
	<path fill="#B9E5F0" transform="scale(0.195312 0.195312)" d="M405.53 146.627C407.507 147.512 409.299 150.532 410.519 152.283C428.919 178.689 439.774 210.554 441.71 242.636C442.253 251.64 442.68 268.238 440.797 276.653C438.682 274.566 437.006 270.235 435.243 267.687C428.578 258.055 417.621 244.786 407.996 238.413C407.863 226.488 407.993 214.549 408 202.622C408.004 195.709 409.614 185.113 405.73 179.014C400.011 170.033 391.737 175.337 385.481 173.567C395.212 163.612 399.371 160.909 405.53 146.627Z"/>
	<path fill="#FCDD89" transform="scale(0.195312 0.195312)" d="M249.427 222.541C257.432 227.378 267.563 227.296 276.61 227.256C276.667 228.483 276.8 229.741 276.61 230.959C275.229 233.224 276.032 250.11 275.915 254.007C272.962 261.714 271.3 267.187 265.415 273.445C263.986 274.966 260.848 276.821 259.852 278.166C257.62 279.123 254.877 280.18 252.941 281.642C250.77 282.309 248.595 283.097 246.326 283.329C218.339 275.736 219.01 256.144 219.04 231.706C229.616 231.963 240.952 228.94 249.427 222.541Z"/>
	<path fill="#6F80A1" transform="scale(0.195312 0.195312)" d="M232.8 189.529C256.68 186.936 276.398 202.677 276.61 227.256C267.563 227.296 257.432 227.378 249.427 222.541C240.952 228.94 229.616 231.963 219.04 231.706C218.641 219.687 220.253 206.921 226.81 196.589C228.481 193.958 231.236 192.264 232.8 189.529Z"/>
	<path fill="#DCDBDB" transform="scale(0.195312 0.195312)" d="M364.037 290.204L323.898 290.219C294.933 290.224 291.671 293.837 291.692 260.297L291.698 206.071C291.692 200.591 291.724 186.201 301.089 187.37L301.347 187.915C300.962 206.401 301.359 224.98 301.36 243.476L301.337 260.844C301.324 272.693 301.405 281.562 315.767 281.64L370.698 281.573C372.4 281.577 374.294 281.422 375.972 281.642L375.972 281.642C371.998 281.735 368.013 281.662 364.037 281.642L364.037 290.204L364.037 290.204Z"/>
	<path fill="#F5BB41" transform="scale(0.195312 0.195312)" d="M202.216 228.751C207.406 230.948 213.416 231.837 219.04 231.706C219.01 256.144 218.339 275.736 246.326 283.329C239.397 286.049 230.536 284.049 223.831 281.642C223.836 282.921 224.218 289.607 223.831 290.204C223.684 287.382 223.83 284.474 223.831 281.642C222.406 280.654 219.12 278.083 217.472 278.166C217.179 277.059 214.04 274.729 213.104 273.817C204.531 265.464 205.57 258.417 202.216 254.007C202.725 246.665 202.394 238.33 202.216 230.959L202.216 228.751Z"/>
	<path fill="#2F4D76" transform="scale(0.195312 0.195312)" d="M202.216 228.751C198.101 209.45 214.573 192.997 232.8 189.529C231.236 192.264 228.481 193.958 226.81 196.589C220.253 206.921 218.641 219.687 219.04 231.706C213.416 231.837 207.406 230.948 202.216 228.751Z"/>
	<path fill="#5C628D" transform="scale(0.195312 0.195312)" d="M283.859 250.48C283.224 274.565 285.059 277.298 259.852 278.166C260.848 276.821 263.986 274.966 265.415 273.445C271.3 267.187 272.962 261.714 275.915 254.007C279.509 254.155 281.331 253.109 283.859 250.48Z"/>
	<path fill="#5C628D" transform="scale(0.195312 0.195312)" d="M195.093 251.968C198.016 252.577 197.219 254.548 202.216 254.007C205.57 258.417 204.531 265.464 213.104 273.817C214.04 274.729 217.179 277.059 217.472 278.166C194.615 278.381 195.035 273.103 195.093 251.968Z"/>
	<path fill="#FCDD89" transform="scale(0.195312 0.195312)" d="M202.216 230.959C202.394 238.33 202.725 246.665 202.216 254.007C197.219 254.548 198.016 252.577 195.093 251.968C194.667 250.444 193.323 249.006 192.706 247.491C189.488 239.592 195.177 233.473 202.216 230.959Z"/>
	<path fill="#F5BB41" transform="scale(0.195312 0.195312)" d="M276.61 230.959C286.342 233.679 287.134 241.994 283.859 250.48C281.331 253.109 279.509 254.155 275.915 254.007C276.032 250.11 275.229 233.224 276.61 230.959Z"/>
	<path fill="#5095F4" transform="scale(0.195312 0.195312)" d="M383.604 193.688C400.154 192.054 395.309 202.37 390.609 203.022C387.748 203.418 384.739 203.251 381.853 203.239L323.651 203.221C320.962 203.123 316.161 203.752 313.924 202.013C312.169 200.648 312.013 196.138 313.387 194.594C315.316 192.425 335.607 193.684 339.234 193.688L383.604 193.688Z"/>
	<path fill="#5095F4" transform="scale(0.195312 0.195312)" d="M315.737 234.519C321.196 234.309 326.748 234.512 332.216 234.513L364.642 234.519C368.694 234.519 389.606 234.065 391.682 234.716C396.631 236.269 395.355 242.108 391.481 243.994C388.267 244.213 384.917 244.018 381.691 244.012L362.922 243.991C356.149 243.99 318.451 245.129 314.912 243.534C310.931 241.739 311.678 235.669 315.737 234.519Z"/>
	<path fill="#F5BB41" transform="scale(0.195312 0.195312)" d="M315.737 255.501L363.663 255.501C368.374 255.503 390.024 254.345 392.991 256.124C396.471 258.212 395.68 264.141 391.481 264.646L340.947 264.646C333.019 264.646 324.441 265.079 316.616 264.636C310.686 264.3 310.396 256.467 315.737 255.501Z"/>
	<path fill="#5095F4" transform="scale(0.195312 0.195312)" d="M315.737 214.727L383.567 214.727C386.235 214.725 389.608 214.018 392.114 215.174C396.364 217.135 395.594 222.395 391.481 223.766L338.41 223.762C334.45 223.766 317.219 224.292 314.645 223.494C310.734 222.28 312.044 216.39 315.737 214.727Z"/>
</svg>
