<?xml version="1.0" encoding="utf-8" ?>
<svg xmlns="http://www.w3.org/2000/svg" xmlns:xlink="http://www.w3.org/1999/xlink" width="1024" height="1024">
	<path fill="#161617" transform="scale(2 2)" d="M313.124 79.09L433.774 79.0724C438.915 79.0714 444.178 78.8471 449.308 79.1118C458.162 79.5687 455.978 86.7105 455.902 93.6846L455.887 385.71C466.761 386.726 463.253 403.879 463.241 412.128C463.213 431.463 461.548 429.529 444.488 429.502L159.375 429.491L63.7814 429.496C59.9444 429.502 55.1057 430.764 51.8701 428.098C47.9125 424.837 49.5345 411.746 49.5226 407.099C49.4762 388.919 46.0938 385.868 66.4967 386.093C66.9535 378.09 64.2041 365.111 63.0492 356.741L49.347 257.193C48.4079 250.747 46.1155 243.436 50.3639 237.66C55.7084 230.393 69.7247 230.612 78.2645 229.417C75.8953 207.004 78.1421 207.363 101.658 204.102C114.061 202.383 122.395 198.084 131.733 208.748L131.746 169.819C131.738 150.082 129.214 136.318 155.662 136.304L254.131 136.29C267.917 136.281 278.791 133.398 287.485 146.527C296.214 146.469 299.632 145.682 307.841 149.381L307.842 112.56C307.841 103.831 307.986 95.1301 307.482 86.4161C307.189 81.3645 307.69 79.2275 313.124 79.09ZM233.654 395.201C217.259 395.01 200.838 395.199 184.439 395.194L58.7543 395.201L58.7543 420.251L280.284 420.251L454.018 420.251L454.018 395.201L233.654 395.201ZM99.2987 373.107C91.2505 373.996 83.2179 375.436 75.1989 376.578C75.6486 379.705 76.3046 382.938 76.443 386.093L78.2645 386.093C86.3639 386.005 94.9176 384.763 102.911 383.467C102.014 380.803 101.566 372.638 99.2987 373.107Z"/>
	<path fill="#F35D47" transform="scale(2 2)" d="M83.677 270.602C84.0381 270.871 85.8946 278.791 86.3256 280.003C78.6496 281.272 70.42 281.831 63.1035 284.512L62.9341 284.443C61.9902 283.167 61.5697 276.283 61.162 274.263C68.5653 272.699 76.2113 271.928 83.677 270.602Z"/>
	<path fill="#FEFEFE" transform="scale(2 2)" d="M86.3256 289.848C88.5172 289.279 88.8722 298.865 89.1371 300.548C81.6365 301.707 74.0456 303.144 66.4967 303.893C63.7189 304.36 64.1315 295.806 63.7653 293.426C71.16 291.78 78.8312 291.009 86.3256 289.848Z"/>
	<path fill="#FEFEFE" transform="scale(2 2)" d="M132.817 267.383C133.42 267.762 134.887 277.008 135.361 278.445C122.285 280.041 109.254 282.105 96.3049 284.512L95.7067 284.386C94.519 281.628 94.4647 276.045 94.5793 273.085C105.825 270.721 121.462 268.66 132.817 267.383Z"/>
	<path fill="#F35D47" transform="scale(2 2)" d="M78.2645 238.831L79.4523 238.698C80.6207 239.433 82.4932 258.164 83.677 261.499C79.1159 261.981 66.793 263.139 63.1035 264.824L59.8517 264.824C58.3933 258.654 57.8583 251.136 57.15 244.765C59.6316 239.16 72.2324 239.762 78.2645 238.831Z"/>
	<path fill="#4EA4FB" transform="scale(2 2)" d="M316.989 88.4593L370.256 88.4593L370.256 110.207L316.989 110.207L316.989 88.4593Z"/>
	<path fill="#4EA4FB" transform="scale(2 2)" d="M316.989 364.292L370.256 364.292L370.256 385.71L367.676 385.71L313.882 385.71C317.647 376.221 317.025 374.21 316.989 364.292Z"/>
	<path fill="#F35D47" transform="scale(2 2)" d="M89.1371 310.082C92.4594 309.539 92.7535 323.049 93.2952 326.533L99.2987 364.292C94.0404 363.896 81.5779 365.955 76.443 367.567C75.7085 367.501 74.9082 367.562 74.1673 367.567C71.0647 349.701 69.2811 331.548 66.4967 313.612L89.1371 310.082Z"/>
	<path fill="#4EA4FB" transform="scale(2 2)" d="M379.624 364.292L446.747 364.292L446.747 385.71L379.624 385.71C379.539 378.573 379.612 371.429 379.624 364.292Z"/>
	<path fill="#4EA4FB" transform="scale(2 2)" d="M379.624 88.4593L446.747 88.4593L446.747 110.207L379.624 110.207L379.624 88.4593Z"/>
	<path fill="#75CAFC" transform="scale(2 2)" d="M118.361 211.356C126.673 209.934 127.208 223.508 127.989 228.496C129.509 238.201 131.367 248.276 131.733 258.094C121.266 259.373 110.854 261.117 100.443 262.783C97.9531 263.151 95.4502 263.413 92.9484 263.689C91.2584 248.881 87.4767 233.041 86.3256 218.62C88.2774 213.789 94.2463 214.565 98.705 213.932C105.241 213.005 111.794 212.039 118.361 211.356Z"/>
	<path fill="#75CAFC" transform="scale(2 2)" d="M135.361 288.299L135.774 288.157L136.165 288.465L145.901 359.623C146.976 366.889 151.704 381.254 142.319 384.842C136.87 386.926 120.17 386.33 113.592 383.467C110.012 378.765 109.924 372.902 109.025 367.271L105.663 345.903C102.938 328.434 99.7412 310.952 97.4603 293.426C109.451 291.963 123.523 288.261 135.361 288.299Z"/>
	<path fill="#161617" transform="scale(2 2)" d="M118.361 301.542C125.596 301.999 126.36 319.259 126.228 324.276C126.169 326.533 124.054 327.86 122.137 328.526C113.521 328.546 114.13 305.072 114.676 303.986C115.41 302.525 116.886 301.966 118.361 301.542Z"/>
	<path fill="#F8C457" transform="scale(2 2)" d="M289.123 155.765C307.399 155.677 307.839 158.166 307.842 175.748L307.838 329.219C307.837 340.717 311.301 376.193 303.651 383.467C298.932 386.564 292.893 385.734 287.485 385.71C290.724 376.779 289.132 363.01 289.131 353.517L289.123 155.765Z"/>
	<path fill="#75CAFC" transform="scale(2 2)" d="M358.129 245.442L370.256 245.442L370.256 354.928C368.393 355.125 366.364 354.962 364.483 354.952L316.989 354.928L316.989 245.442L358.129 245.442Z"/>
	<path fill="#161617" transform="scale(2 2)" d="M352.827 255.822C361.653 254.725 358.989 263.704 358.972 270.03L358.971 321.656C358.971 324.601 359.886 340.134 358.073 342.149C356.323 344.094 348.058 343.108 345.382 343.119C340.704 343.173 330.554 341.3 337.057 335.11C339.507 332.777 346.262 333.77 349.662 333.785L349.662 265.974C346.392 265.517 339.677 266.37 337.314 264.263C335.522 262.664 335.616 259.287 337.29 257.651C340.144 254.86 348.933 255.812 352.827 255.822Z"/>
	<path fill="#FEFEFE" transform="scale(2 2)" d="M358.129 245.442L370.256 245.442L370.256 354.928C367.639 354.518 364.428 354.904 361.733 354.91L341.856 354.928C341.777 350.997 341.864 347.052 341.856 343.119C343.054 343.194 344.182 343.21 345.382 343.119C348.058 343.108 356.323 344.094 358.073 342.149C359.886 340.134 358.971 324.601 358.971 321.656L358.972 270.03C358.989 263.704 361.653 254.725 352.827 255.822C352.122 253.237 352.436 250.684 352.827 248.083C353.312 247.17 353.953 246.307 354.523 245.442C355.746 245.54 356.909 245.513 358.129 245.442Z"/>
	<path fill="#FEFEFE" transform="scale(2 2)" d="M360.814 119.494C363.974 119.376 367.097 119.325 370.256 119.494L370.256 236.092C365.295 236.322 360.215 236.107 355.241 236.105L325.875 236.092L316.989 236.092L316.989 119.494L360.814 119.494Z"/>
	<path fill="#161617" transform="scale(2 2)" d="M332.501 131.043C337.803 130.995 351.608 128.311 351.9 135.718C352.156 142.195 342.383 140.41 338.388 140.299L338.388 216.034C341.772 215.865 346.378 215.19 349.662 216.034C359.319 226.97 336.399 225.383 331.709 224.769C330.73 224.022 329.862 223.284 329.094 222.312C328.846 218.275 329.082 214.112 329.085 210.059L329.091 154.291C329.081 148.788 326.84 133.041 332.501 131.043Z"/>
	<path fill="#FEFEFE" transform="scale(2 2)" d="M384.162 245.442L446.747 245.442L446.747 354.928C445.208 354.876 443.658 354.921 442.117 354.928L379.624 354.928L379.615 256.658C379.601 252.935 379.216 249.147 379.624 245.442C381.131 245.393 382.653 245.439 384.162 245.442Z"/>
	<path fill="#161617" transform="scale(2 2)" d="M394.571 256.717L419.654 256.693C437.359 256.682 435.471 254.637 435.468 273.526L435.447 322.742C435.462 327.991 437.642 341.422 432.302 343.119C422.407 343.622 406.382 343.757 396.532 343.088C391.749 342.764 391.362 341.594 391.229 337.224C390.514 313.736 390.311 285.206 391.228 261.727C391.34 258.84 391.64 257.647 394.571 256.717Z"/>
	<path fill="#4EDA96" transform="scale(2 2)" d="M400.372 265.974L426.311 265.974L426.305 311.02C426.308 318.595 426.504 326.214 426.311 333.785L400.372 333.785L400.372 265.974Z"/>
	<path fill="#161617" transform="scale(2 2)" d="M412.601 276.764C418.742 277.132 416.771 289.417 416.77 293.262L416.761 318.705C415.669 320.537 414.57 321.348 412.601 322.129C410.737 321.989 408.737 321.361 407.873 319.53C407.461 318.656 407.457 284.652 407.649 281.668C407.843 278.654 409.954 277.608 412.601 276.764Z"/>
	<path fill="#FEFEFE" transform="scale(2 2)" d="M379.624 119.494L446.747 119.494L446.747 236.092L379.624 236.092C379.6 232.321 379.525 228.54 379.624 224.769L379.624 134.909C379.616 129.809 379.39 124.581 379.624 119.494Z"/>
	<path fill="#161617" transform="scale(2 2)" d="M391.224 134.909C391.656 132.068 393.117 131.337 395.82 131.099C400.466 130.691 427.536 130.429 431.581 131.242C437.649 132.462 435.455 147.672 435.456 152.937L435.441 205.214C435.509 228.111 438.242 225.285 416.881 225.269C410.168 225.264 398.616 226.346 392.453 224.769C384.587 214.656 401.093 216.027 405.646 216.026L426.311 216.034L426.311 140.299C416.384 140.305 406.397 140.566 396.477 140.302C392.484 140.196 390.965 138.939 391.224 134.909Z"/>
	<path fill="#F8C457" transform="scale(2 2)" d="M379.624 134.909C380.345 135.328 389.569 134.895 391.224 134.909C390.965 138.939 392.484 140.196 396.477 140.302C406.397 140.566 416.384 140.305 426.311 140.299L426.311 216.034L405.646 216.026C401.093 216.027 384.587 214.656 392.453 224.769C388.189 224.653 383.891 224.768 379.624 224.769L379.624 134.909Z"/>
	<path fill="#161617" transform="scale(2 2)" d="M410.988 151.042C412.923 150.915 414.922 151.096 416.099 152.892C417.645 155.252 417.13 193.068 416.462 194.929C415.91 196.467 414.889 197.143 413.458 197.8C409.428 198.314 407.939 196.201 407.761 192.62C407.382 185.033 404.515 154.104 410.988 151.042Z"/>
	<path fill="#FEFEFE" transform="scale(2 2)" d="M148.408 145.45C157.501 145.156 166.687 145.443 175.79 145.447L258.268 145.428C279.791 145.394 280.32 144.447 280.287 169.217L280.28 364.972C280.282 373.181 282.854 385.323 270.996 385.71L155.022 385.71C159.443 375.697 154.834 357.016 153.265 345.59L144.502 281.969C142.833 269.232 140.737 256.84 140.745 243.976L140.761 182.369C140.753 171.161 136.339 149.491 148.408 145.45Z"/>
	<path fill="#161617" transform="scale(2 2)" d="M167.984 195.961C170.705 195.923 175.769 195.213 177.613 197.799C179.339 200.217 177.57 203.499 175.44 204.967C172.971 204.913 169.835 205.246 167.507 204.423C163.305 202.937 164.59 197.525 167.984 195.961Z"/>
	<path fill="#161617" transform="scale(2 2)" d="M167.984 170.535C170.237 170.572 172.84 170.398 175.025 170.936C179.273 171.984 179.069 177.603 175.44 179.486C171.374 179.572 163.444 180.661 165.121 173.956C165.541 172.278 166.558 171.413 167.984 170.535Z"/>
	<path fill="#161617" transform="scale(2 2)" d="M168.837 221.582C171.021 221.638 174.425 221.315 176.357 222.456C180.399 224.842 177.451 229.902 173.894 230.833C171.667 230.775 169.433 230.828 167.205 230.833C164.191 227.595 163.52 223.073 168.837 221.582Z"/>
	<path fill="#161617" transform="scale(2 2)" d="M234.807 299.277C238.998 299.049 255.866 315.285 258.603 318.39C262.369 322.664 254.794 327.48 252.108 329.926C247.472 334.147 242.764 338.551 237.855 342.447C234.999 344.198 230.392 342.619 230.712 338.795C231.086 334.34 244.964 324.008 248.393 321.44C244.277 316.77 223.025 303.866 234.807 299.277Z"/>
	<path fill="#161617" transform="scale(2 2)" d="M192.867 299.277C194.132 299.188 195.307 299.19 196.316 300.065C202.288 305.243 184.104 316.858 180.053 321.152L179.785 321.44C182.913 324.067 195.426 334.395 196.98 336.756C199.469 340.538 195.448 343.891 191.742 343.119L191.531 343C188.316 341.214 174.471 329.113 170.971 325.811C169.022 323.972 167.462 321.79 169.235 319.112C171.205 316.138 188.604 300.08 192.867 299.277Z"/>
	<path fill="#161617" transform="scale(2 2)" d="M195.197 170.535C200.978 170.363 251.611 170.264 252.92 170.733C257.361 172.327 257.208 178.043 252.883 179.486L216.19 179.488C209.639 179.501 202.888 179.854 196.356 179.459C190.518 179.105 189.889 171.989 195.197 170.535Z"/>
	<path fill="#161617" transform="scale(2 2)" d="M195.197 195.961C201.77 195.79 249.387 195.148 253.196 196.275C257.519 197.554 256.421 203.4 252.883 204.967C244.878 205.383 196.554 205.35 194.169 204.507C190.054 203.051 190.941 197.433 195.197 195.961Z"/>
	<path fill="#161617" transform="scale(2 2)" d="M196.517 221.582C208.139 221.327 219.824 221.576 231.453 221.58L244.446 221.611C247.184 221.602 251.117 220.832 253.671 222.079C258.222 224.303 256.343 229.845 252.063 230.833L213.986 230.826C209.758 230.827 196.627 231.801 193.572 229.854C189.137 227.025 192.462 222.186 196.517 221.582Z"/>
	<path fill="#161617" transform="scale(2 2)" d="M217.563 288.299C223.238 288.218 223.183 291.708 222.575 296.14C221.127 306.68 218.519 317.987 216.586 328.563L213.983 342.847C213.196 347.175 213.572 351.538 209.208 353.739C206.974 353.958 204.977 352.989 204.165 350.769C202.618 346.538 210.454 312.307 211.706 305.718C212.738 300.287 212.232 290.126 217.563 288.299Z"/>
</svg>
