<svg width="32" height="32" viewBox="0 0 32 32" fill="none" xmlns="http://www.w3.org/2000/svg">
<path fill-rule="evenodd" clip-rule="evenodd" d="M4.5807 6.35742C4.90142 6.35742 5.16139 6.61746 5.16139 6.93812V21.2442C5.16139 21.7787 5.59471 22.2121 6.12922 22.2121H25.8707C26.4052 22.2121 26.8385 21.7787 26.8385 21.2442V6.93812C26.8385 6.61746 27.0986 6.35742 27.4192 6.35742C27.74 6.35742 28 6.61746 28 6.93812V21.2442C28 22.4202 27.0467 23.3735 25.8707 23.3735H6.12922C4.95328 23.3735 4 22.4202 4 21.2442V6.93812C4 6.61746 4.25998 6.35742 4.5807 6.35742Z" fill="url(#paint0_linear_1367_1181)"/>
<path fill-rule="evenodd" clip-rule="evenodd" d="M13.2743 6.29313C11.8163 6.04301 10.3347 6.04301 8.87672 6.29313L8.33721 6.38569C7.40607 6.5454 6.71623 7.47641 6.71623 8.57324V20.2997C9.55984 19.306 12.5912 19.306 15.4348 20.2997V8.57324C15.4348 7.47641 14.745 6.5454 13.8138 6.38569L13.2743 6.29313ZM8.73859 5.19938C10.2882 4.93354 11.8628 4.93354 13.4125 5.19938L13.952 5.29194C15.3486 5.5315 16.3835 6.92803 16.3835 8.57324V21.0444C16.3835 21.2193 16.3124 21.384 16.1919 21.4883C16.0713 21.5925 15.9155 21.6242 15.7718 21.5735L15.1964 21.3706C12.5093 20.4231 9.64173 20.4231 6.95463 21.3706L6.37923 21.5735C6.23555 21.6242 6.07973 21.5925 5.95917 21.4883C5.83862 21.384 5.76758 21.2193 5.76758 21.0444V8.57324C5.76758 6.92803 6.80244 5.5315 8.19902 5.29194L8.73859 5.19938Z" fill="url(#paint1_linear_1367_1181)"/>
<path fill-rule="evenodd" clip-rule="evenodd" d="M23.2236 6.29313C21.7656 6.04301 20.284 6.04301 18.826 6.29313L18.2865 6.38569C17.3554 6.5454 16.6654 7.47641 16.6654 8.57324V20.2997C19.5091 19.306 22.5404 19.306 25.3841 20.2997V8.57324C25.3841 7.47641 24.6942 6.5454 23.7631 6.38569L23.2236 6.29313ZM18.6879 5.19938C20.2374 4.93354 21.8121 4.93354 23.3618 5.19938L23.9013 5.29194C25.2979 5.5315 26.3328 6.92803 26.3328 8.57324V21.0444C26.3328 21.2193 26.2617 21.384 26.1411 21.4883C26.0206 21.5925 25.8648 21.6242 25.7211 21.5735L25.1457 21.3706C22.4586 20.4231 19.591 20.4231 16.9039 21.3706L16.3285 21.5735C16.1848 21.6242 16.029 21.5925 15.9085 21.4883C15.7879 21.384 15.7168 21.2193 15.7168 21.0444V8.57324C15.7168 6.92803 16.7517 5.5315 18.1483 5.29194L18.6879 5.19938Z" fill="url(#paint2_linear_1367_1181)"/>
<path fill-rule="evenodd" clip-rule="evenodd" d="M16.052 22.2109C16.3727 22.2109 16.6327 22.4709 16.6327 22.7916V25.6649H19.3929C19.7137 25.6649 19.9736 25.9249 19.9736 26.2456C19.9736 26.5663 19.7137 26.8263 19.3929 26.8263H12.4244C12.1037 26.8263 11.8438 26.5663 11.8438 26.2456C11.8438 25.9249 12.1037 25.6649 12.4244 25.6649H15.4712V22.7916C15.4712 22.4709 15.7313 22.2109 16.052 22.2109Z" fill="url(#paint3_linear_1367_1181)"/>
<defs>
<linearGradient id="paint0_linear_1367_1181" x1="15.7163" y1="2.22516" x2="15.7163" y2="28.7416" gradientUnits="userSpaceOnUse">
<stop stop-color="#6E8AF5"/>
<stop offset="1" stop-color="#001B48"/>
</linearGradient>
<linearGradient id="paint1_linear_1367_1181" x1="10.7851" y1="0.37514" x2="10.7851" y2="35.8324" gradientUnits="userSpaceOnUse">
<stop stop-color="#6E8AF5"/>
<stop offset="1" stop-color="#001B48"/>
</linearGradient>
<linearGradient id="paint2_linear_1367_1181" x1="21.2666" y1="-0.549832" x2="21.2666" y2="26.2744" gradientUnits="userSpaceOnUse">
<stop stop-color="#6E8AF5"/>
<stop offset="1" stop-color="#001B48"/>
</linearGradient>
<linearGradient id="paint3_linear_1367_1181" x1="15.717" y1="20.7241" x2="15.717" y2="31.8238" gradientUnits="userSpaceOnUse">
<stop stop-color="#001B48"/>
<stop offset="1" stop-color="#6E8AF5"/>
</linearGradient>
</defs>
</svg>
